%TF.GenerationSoftware,KiCad,Pcbnew,(7.0.0)*%
%TF.CreationDate,2024-03-28T13:36:06-07:00*%
%TF.ProjectId,Quartz,51756172-747a-42e6-9b69-6361645f7063,rev?*%
%TF.SameCoordinates,Original*%
%TF.FileFunction,Soldermask,Top*%
%TF.FilePolarity,Negative*%
%FSLAX46Y46*%
G04 Gerber Fmt 4.6, Leading zero omitted, Abs format (unit mm)*
G04 Created by KiCad (PCBNEW (7.0.0)) date 2024-03-28 13:36:06*
%MOMM*%
%LPD*%
G01*
G04 APERTURE LIST*
G04 Aperture macros list*
%AMRoundRect*
0 Rectangle with rounded corners*
0 $1 Rounding radius*
0 $2 $3 $4 $5 $6 $7 $8 $9 X,Y pos of 4 corners*
0 Add a 4 corners polygon primitive as box body*
4,1,4,$2,$3,$4,$5,$6,$7,$8,$9,$2,$3,0*
0 Add four circle primitives for the rounded corners*
1,1,$1+$1,$2,$3*
1,1,$1+$1,$4,$5*
1,1,$1+$1,$6,$7*
1,1,$1+$1,$8,$9*
0 Add four rect primitives between the rounded corners*
20,1,$1+$1,$2,$3,$4,$5,0*
20,1,$1+$1,$4,$5,$6,$7,0*
20,1,$1+$1,$6,$7,$8,$9,0*
20,1,$1+$1,$8,$9,$2,$3,0*%
G04 Aperture macros list end*
%ADD10C,0.100000*%
%ADD11C,0.150000*%
%ADD12C,0.300000*%
%ADD13C,0.400000*%
%ADD14RoundRect,0.135000X-0.135000X-0.185000X0.135000X-0.185000X0.135000X0.185000X-0.135000X0.185000X0*%
%ADD15RoundRect,0.140000X-0.140000X-0.170000X0.140000X-0.170000X0.140000X0.170000X-0.140000X0.170000X0*%
%ADD16RoundRect,0.135000X0.135000X0.185000X-0.135000X0.185000X-0.135000X-0.185000X0.135000X-0.185000X0*%
%ADD17RoundRect,0.200000X-0.200000X-0.275000X0.200000X-0.275000X0.200000X0.275000X-0.200000X0.275000X0*%
%ADD18RoundRect,0.147500X0.172500X-0.147500X0.172500X0.147500X-0.172500X0.147500X-0.172500X-0.147500X0*%
%ADD19RoundRect,0.062500X-0.062500X0.325000X-0.062500X-0.325000X0.062500X-0.325000X0.062500X0.325000X0*%
%ADD20RoundRect,0.062500X-0.325000X0.062500X-0.325000X-0.062500X0.325000X-0.062500X0.325000X0.062500X0*%
%ADD21R,1.750000X1.750000*%
%ADD22RoundRect,0.225000X0.250000X-0.225000X0.250000X0.225000X-0.250000X0.225000X-0.250000X-0.225000X0*%
%ADD23RoundRect,0.140000X0.140000X0.170000X-0.140000X0.170000X-0.140000X-0.170000X0.140000X-0.170000X0*%
%ADD24RoundRect,0.140000X0.170000X-0.140000X0.170000X0.140000X-0.170000X0.140000X-0.170000X-0.140000X0*%
%ADD25RoundRect,0.135000X0.185000X-0.135000X0.185000X0.135000X-0.185000X0.135000X-0.185000X-0.135000X0*%
%ADD26RoundRect,0.250000X-0.250000X-0.475000X0.250000X-0.475000X0.250000X0.475000X-0.250000X0.475000X0*%
%ADD27R,0.450000X0.700000*%
%ADD28RoundRect,0.140000X-0.170000X0.140000X-0.170000X-0.140000X0.170000X-0.140000X0.170000X0.140000X0*%
%ADD29RoundRect,0.200000X0.200000X0.275000X-0.200000X0.275000X-0.200000X-0.275000X0.200000X-0.275000X0*%
%ADD30RoundRect,0.249750X1.250250X-0.305250X1.250250X0.305250X-1.250250X0.305250X-1.250250X-0.305250X0*%
%ADD31RoundRect,0.218750X0.218750X0.381250X-0.218750X0.381250X-0.218750X-0.381250X0.218750X-0.381250X0*%
%ADD32C,5.000000*%
%ADD33RoundRect,0.200000X-0.275000X0.200000X-0.275000X-0.200000X0.275000X-0.200000X0.275000X0.200000X0*%
%ADD34RoundRect,0.147500X-0.147500X-0.172500X0.147500X-0.172500X0.147500X0.172500X-0.147500X0.172500X0*%
%ADD35RoundRect,0.150000X0.150000X-0.587500X0.150000X0.587500X-0.150000X0.587500X-0.150000X-0.587500X0*%
%ADD36RoundRect,0.150000X0.512500X0.150000X-0.512500X0.150000X-0.512500X-0.150000X0.512500X-0.150000X0*%
%ADD37RoundRect,0.218750X-0.381250X0.218750X-0.381250X-0.218750X0.381250X-0.218750X0.381250X0.218750X0*%
%ADD38RoundRect,0.250000X0.250000X0.475000X-0.250000X0.475000X-0.250000X-0.475000X0.250000X-0.475000X0*%
%ADD39RoundRect,0.250000X0.475000X-0.250000X0.475000X0.250000X-0.475000X0.250000X-0.475000X-0.250000X0*%
%ADD40RoundRect,0.250000X-0.475000X0.250000X-0.475000X-0.250000X0.475000X-0.250000X0.475000X0.250000X0*%
%ADD41C,1.270000*%
%ADD42C,0.844000*%
%ADD43RoundRect,0.150000X0.825000X0.150000X-0.825000X0.150000X-0.825000X-0.150000X0.825000X-0.150000X0*%
%ADD44RoundRect,0.225000X0.225000X0.250000X-0.225000X0.250000X-0.225000X-0.250000X0.225000X-0.250000X0*%
%ADD45RoundRect,0.062500X-0.062500X0.350000X-0.062500X-0.350000X0.062500X-0.350000X0.062500X0.350000X0*%
%ADD46RoundRect,0.062500X-0.350000X0.062500X-0.350000X-0.062500X0.350000X-0.062500X0.350000X0.062500X0*%
%ADD47R,2.600000X2.600000*%
%ADD48RoundRect,0.250000X-0.625000X0.312500X-0.625000X-0.312500X0.625000X-0.312500X0.625000X0.312500X0*%
%ADD49R,0.450000X0.550000*%
%ADD50C,0.510000*%
%ADD51R,1.900000X1.100000*%
%ADD52RoundRect,0.100000X-0.637500X-0.100000X0.637500X-0.100000X0.637500X0.100000X-0.637500X0.100000X0*%
%ADD53R,0.254000X0.914400*%
%ADD54R,2.463800X1.701800*%
%ADD55RoundRect,0.225000X-0.225000X-0.250000X0.225000X-0.250000X0.225000X0.250000X-0.225000X0.250000X0*%
%ADD56RoundRect,0.135000X-0.185000X0.135000X-0.185000X-0.135000X0.185000X-0.135000X0.185000X0.135000X0*%
%ADD57RoundRect,0.250000X0.262500X0.450000X-0.262500X0.450000X-0.262500X-0.450000X0.262500X-0.450000X0*%
%ADD58C,2.050000*%
%ADD59C,2.250000*%
%ADD60C,2.000000*%
%ADD61C,6.000000*%
%ADD62C,1.651000*%
%ADD63C,3.683000*%
%ADD64R,1.350000X1.350000*%
%ADD65O,1.350000X1.350000*%
%TA.AperFunction,Profile*%
%ADD66C,0.100000*%
%TD*%
G04 APERTURE END LIST*
D10*
D11*
X299989000Y-253002200D02*
X407989000Y-253002200D01*
X407989000Y-285002200D01*
X299989000Y-285002200D01*
X299989000Y-253002200D01*
D10*
D11*
X10000000Y-10000000D02*
X409989000Y-10000000D01*
X409989000Y-287002200D01*
X10000000Y-287002200D01*
X10000000Y-10000000D01*
D10*
D11*
X12000000Y-12000000D02*
X407989000Y-12000000D01*
X407989000Y-285002200D01*
X12000000Y-285002200D01*
X12000000Y-12000000D01*
D10*
D11*
X60000000Y-12000000D02*
X60000000Y-10000000D01*
D10*
D11*
X110000000Y-12000000D02*
X110000000Y-10000000D01*
D10*
D11*
X160000000Y-12000000D02*
X160000000Y-10000000D01*
D10*
D11*
X210000000Y-12000000D02*
X210000000Y-10000000D01*
D10*
D11*
X260000000Y-12000000D02*
X260000000Y-10000000D01*
D10*
D11*
X310000000Y-12000000D02*
X310000000Y-10000000D01*
D10*
D11*
X360000000Y-12000000D02*
X360000000Y-10000000D01*
D10*
D11*
X35990476Y-11477595D02*
X35247619Y-11477595D01*
X35619047Y-11477595D02*
X35619047Y-10177595D01*
X35619047Y-10177595D02*
X35495238Y-10363309D01*
X35495238Y-10363309D02*
X35371428Y-10487119D01*
X35371428Y-10487119D02*
X35247619Y-10549023D01*
D10*
D11*
X85247619Y-10301404D02*
X85309523Y-10239500D01*
X85309523Y-10239500D02*
X85433333Y-10177595D01*
X85433333Y-10177595D02*
X85742857Y-10177595D01*
X85742857Y-10177595D02*
X85866666Y-10239500D01*
X85866666Y-10239500D02*
X85928571Y-10301404D01*
X85928571Y-10301404D02*
X85990476Y-10425214D01*
X85990476Y-10425214D02*
X85990476Y-10549023D01*
X85990476Y-10549023D02*
X85928571Y-10734738D01*
X85928571Y-10734738D02*
X85185714Y-11477595D01*
X85185714Y-11477595D02*
X85990476Y-11477595D01*
D10*
D11*
X135185714Y-10177595D02*
X135990476Y-10177595D01*
X135990476Y-10177595D02*
X135557142Y-10672833D01*
X135557142Y-10672833D02*
X135742857Y-10672833D01*
X135742857Y-10672833D02*
X135866666Y-10734738D01*
X135866666Y-10734738D02*
X135928571Y-10796642D01*
X135928571Y-10796642D02*
X135990476Y-10920452D01*
X135990476Y-10920452D02*
X135990476Y-11229976D01*
X135990476Y-11229976D02*
X135928571Y-11353785D01*
X135928571Y-11353785D02*
X135866666Y-11415690D01*
X135866666Y-11415690D02*
X135742857Y-11477595D01*
X135742857Y-11477595D02*
X135371428Y-11477595D01*
X135371428Y-11477595D02*
X135247619Y-11415690D01*
X135247619Y-11415690D02*
X135185714Y-11353785D01*
D10*
D11*
X185866666Y-10610928D02*
X185866666Y-11477595D01*
X185557142Y-10115690D02*
X185247619Y-11044261D01*
X185247619Y-11044261D02*
X186052380Y-11044261D01*
D10*
D11*
X235928571Y-10177595D02*
X235309523Y-10177595D01*
X235309523Y-10177595D02*
X235247619Y-10796642D01*
X235247619Y-10796642D02*
X235309523Y-10734738D01*
X235309523Y-10734738D02*
X235433333Y-10672833D01*
X235433333Y-10672833D02*
X235742857Y-10672833D01*
X235742857Y-10672833D02*
X235866666Y-10734738D01*
X235866666Y-10734738D02*
X235928571Y-10796642D01*
X235928571Y-10796642D02*
X235990476Y-10920452D01*
X235990476Y-10920452D02*
X235990476Y-11229976D01*
X235990476Y-11229976D02*
X235928571Y-11353785D01*
X235928571Y-11353785D02*
X235866666Y-11415690D01*
X235866666Y-11415690D02*
X235742857Y-11477595D01*
X235742857Y-11477595D02*
X235433333Y-11477595D01*
X235433333Y-11477595D02*
X235309523Y-11415690D01*
X235309523Y-11415690D02*
X235247619Y-11353785D01*
D10*
D11*
X285866666Y-10177595D02*
X285619047Y-10177595D01*
X285619047Y-10177595D02*
X285495238Y-10239500D01*
X285495238Y-10239500D02*
X285433333Y-10301404D01*
X285433333Y-10301404D02*
X285309523Y-10487119D01*
X285309523Y-10487119D02*
X285247619Y-10734738D01*
X285247619Y-10734738D02*
X285247619Y-11229976D01*
X285247619Y-11229976D02*
X285309523Y-11353785D01*
X285309523Y-11353785D02*
X285371428Y-11415690D01*
X285371428Y-11415690D02*
X285495238Y-11477595D01*
X285495238Y-11477595D02*
X285742857Y-11477595D01*
X285742857Y-11477595D02*
X285866666Y-11415690D01*
X285866666Y-11415690D02*
X285928571Y-11353785D01*
X285928571Y-11353785D02*
X285990476Y-11229976D01*
X285990476Y-11229976D02*
X285990476Y-10920452D01*
X285990476Y-10920452D02*
X285928571Y-10796642D01*
X285928571Y-10796642D02*
X285866666Y-10734738D01*
X285866666Y-10734738D02*
X285742857Y-10672833D01*
X285742857Y-10672833D02*
X285495238Y-10672833D01*
X285495238Y-10672833D02*
X285371428Y-10734738D01*
X285371428Y-10734738D02*
X285309523Y-10796642D01*
X285309523Y-10796642D02*
X285247619Y-10920452D01*
D10*
D11*
X335185714Y-10177595D02*
X336052380Y-10177595D01*
X336052380Y-10177595D02*
X335495238Y-11477595D01*
D10*
D11*
X385495238Y-10734738D02*
X385371428Y-10672833D01*
X385371428Y-10672833D02*
X385309523Y-10610928D01*
X385309523Y-10610928D02*
X385247619Y-10487119D01*
X385247619Y-10487119D02*
X385247619Y-10425214D01*
X385247619Y-10425214D02*
X385309523Y-10301404D01*
X385309523Y-10301404D02*
X385371428Y-10239500D01*
X385371428Y-10239500D02*
X385495238Y-10177595D01*
X385495238Y-10177595D02*
X385742857Y-10177595D01*
X385742857Y-10177595D02*
X385866666Y-10239500D01*
X385866666Y-10239500D02*
X385928571Y-10301404D01*
X385928571Y-10301404D02*
X385990476Y-10425214D01*
X385990476Y-10425214D02*
X385990476Y-10487119D01*
X385990476Y-10487119D02*
X385928571Y-10610928D01*
X385928571Y-10610928D02*
X385866666Y-10672833D01*
X385866666Y-10672833D02*
X385742857Y-10734738D01*
X385742857Y-10734738D02*
X385495238Y-10734738D01*
X385495238Y-10734738D02*
X385371428Y-10796642D01*
X385371428Y-10796642D02*
X385309523Y-10858547D01*
X385309523Y-10858547D02*
X385247619Y-10982357D01*
X385247619Y-10982357D02*
X385247619Y-11229976D01*
X385247619Y-11229976D02*
X385309523Y-11353785D01*
X385309523Y-11353785D02*
X385371428Y-11415690D01*
X385371428Y-11415690D02*
X385495238Y-11477595D01*
X385495238Y-11477595D02*
X385742857Y-11477595D01*
X385742857Y-11477595D02*
X385866666Y-11415690D01*
X385866666Y-11415690D02*
X385928571Y-11353785D01*
X385928571Y-11353785D02*
X385990476Y-11229976D01*
X385990476Y-11229976D02*
X385990476Y-10982357D01*
X385990476Y-10982357D02*
X385928571Y-10858547D01*
X385928571Y-10858547D02*
X385866666Y-10796642D01*
X385866666Y-10796642D02*
X385742857Y-10734738D01*
D10*
D11*
X60000000Y-285002200D02*
X60000000Y-287002200D01*
D10*
D11*
X110000000Y-285002200D02*
X110000000Y-287002200D01*
D10*
D11*
X160000000Y-285002200D02*
X160000000Y-287002200D01*
D10*
D11*
X210000000Y-285002200D02*
X210000000Y-287002200D01*
D10*
D11*
X260000000Y-285002200D02*
X260000000Y-287002200D01*
D10*
D11*
X310000000Y-285002200D02*
X310000000Y-287002200D01*
D10*
D11*
X360000000Y-285002200D02*
X360000000Y-287002200D01*
D10*
D11*
X35990476Y-286479795D02*
X35247619Y-286479795D01*
X35619047Y-286479795D02*
X35619047Y-285179795D01*
X35619047Y-285179795D02*
X35495238Y-285365509D01*
X35495238Y-285365509D02*
X35371428Y-285489319D01*
X35371428Y-285489319D02*
X35247619Y-285551223D01*
D10*
D11*
X85247619Y-285303604D02*
X85309523Y-285241700D01*
X85309523Y-285241700D02*
X85433333Y-285179795D01*
X85433333Y-285179795D02*
X85742857Y-285179795D01*
X85742857Y-285179795D02*
X85866666Y-285241700D01*
X85866666Y-285241700D02*
X85928571Y-285303604D01*
X85928571Y-285303604D02*
X85990476Y-285427414D01*
X85990476Y-285427414D02*
X85990476Y-285551223D01*
X85990476Y-285551223D02*
X85928571Y-285736938D01*
X85928571Y-285736938D02*
X85185714Y-286479795D01*
X85185714Y-286479795D02*
X85990476Y-286479795D01*
D10*
D11*
X135185714Y-285179795D02*
X135990476Y-285179795D01*
X135990476Y-285179795D02*
X135557142Y-285675033D01*
X135557142Y-285675033D02*
X135742857Y-285675033D01*
X135742857Y-285675033D02*
X135866666Y-285736938D01*
X135866666Y-285736938D02*
X135928571Y-285798842D01*
X135928571Y-285798842D02*
X135990476Y-285922652D01*
X135990476Y-285922652D02*
X135990476Y-286232176D01*
X135990476Y-286232176D02*
X135928571Y-286355985D01*
X135928571Y-286355985D02*
X135866666Y-286417890D01*
X135866666Y-286417890D02*
X135742857Y-286479795D01*
X135742857Y-286479795D02*
X135371428Y-286479795D01*
X135371428Y-286479795D02*
X135247619Y-286417890D01*
X135247619Y-286417890D02*
X135185714Y-286355985D01*
D10*
D11*
X185866666Y-285613128D02*
X185866666Y-286479795D01*
X185557142Y-285117890D02*
X185247619Y-286046461D01*
X185247619Y-286046461D02*
X186052380Y-286046461D01*
D10*
D11*
X235928571Y-285179795D02*
X235309523Y-285179795D01*
X235309523Y-285179795D02*
X235247619Y-285798842D01*
X235247619Y-285798842D02*
X235309523Y-285736938D01*
X235309523Y-285736938D02*
X235433333Y-285675033D01*
X235433333Y-285675033D02*
X235742857Y-285675033D01*
X235742857Y-285675033D02*
X235866666Y-285736938D01*
X235866666Y-285736938D02*
X235928571Y-285798842D01*
X235928571Y-285798842D02*
X235990476Y-285922652D01*
X235990476Y-285922652D02*
X235990476Y-286232176D01*
X235990476Y-286232176D02*
X235928571Y-286355985D01*
X235928571Y-286355985D02*
X235866666Y-286417890D01*
X235866666Y-286417890D02*
X235742857Y-286479795D01*
X235742857Y-286479795D02*
X235433333Y-286479795D01*
X235433333Y-286479795D02*
X235309523Y-286417890D01*
X235309523Y-286417890D02*
X235247619Y-286355985D01*
D10*
D11*
X285866666Y-285179795D02*
X285619047Y-285179795D01*
X285619047Y-285179795D02*
X285495238Y-285241700D01*
X285495238Y-285241700D02*
X285433333Y-285303604D01*
X285433333Y-285303604D02*
X285309523Y-285489319D01*
X285309523Y-285489319D02*
X285247619Y-285736938D01*
X285247619Y-285736938D02*
X285247619Y-286232176D01*
X285247619Y-286232176D02*
X285309523Y-286355985D01*
X285309523Y-286355985D02*
X285371428Y-286417890D01*
X285371428Y-286417890D02*
X285495238Y-286479795D01*
X285495238Y-286479795D02*
X285742857Y-286479795D01*
X285742857Y-286479795D02*
X285866666Y-286417890D01*
X285866666Y-286417890D02*
X285928571Y-286355985D01*
X285928571Y-286355985D02*
X285990476Y-286232176D01*
X285990476Y-286232176D02*
X285990476Y-285922652D01*
X285990476Y-285922652D02*
X285928571Y-285798842D01*
X285928571Y-285798842D02*
X285866666Y-285736938D01*
X285866666Y-285736938D02*
X285742857Y-285675033D01*
X285742857Y-285675033D02*
X285495238Y-285675033D01*
X285495238Y-285675033D02*
X285371428Y-285736938D01*
X285371428Y-285736938D02*
X285309523Y-285798842D01*
X285309523Y-285798842D02*
X285247619Y-285922652D01*
D10*
D11*
X335185714Y-285179795D02*
X336052380Y-285179795D01*
X336052380Y-285179795D02*
X335495238Y-286479795D01*
D10*
D11*
X385495238Y-285736938D02*
X385371428Y-285675033D01*
X385371428Y-285675033D02*
X385309523Y-285613128D01*
X385309523Y-285613128D02*
X385247619Y-285489319D01*
X385247619Y-285489319D02*
X385247619Y-285427414D01*
X385247619Y-285427414D02*
X385309523Y-285303604D01*
X385309523Y-285303604D02*
X385371428Y-285241700D01*
X385371428Y-285241700D02*
X385495238Y-285179795D01*
X385495238Y-285179795D02*
X385742857Y-285179795D01*
X385742857Y-285179795D02*
X385866666Y-285241700D01*
X385866666Y-285241700D02*
X385928571Y-285303604D01*
X385928571Y-285303604D02*
X385990476Y-285427414D01*
X385990476Y-285427414D02*
X385990476Y-285489319D01*
X385990476Y-285489319D02*
X385928571Y-285613128D01*
X385928571Y-285613128D02*
X385866666Y-285675033D01*
X385866666Y-285675033D02*
X385742857Y-285736938D01*
X385742857Y-285736938D02*
X385495238Y-285736938D01*
X385495238Y-285736938D02*
X385371428Y-285798842D01*
X385371428Y-285798842D02*
X385309523Y-285860747D01*
X385309523Y-285860747D02*
X385247619Y-285984557D01*
X385247619Y-285984557D02*
X385247619Y-286232176D01*
X385247619Y-286232176D02*
X385309523Y-286355985D01*
X385309523Y-286355985D02*
X385371428Y-286417890D01*
X385371428Y-286417890D02*
X385495238Y-286479795D01*
X385495238Y-286479795D02*
X385742857Y-286479795D01*
X385742857Y-286479795D02*
X385866666Y-286417890D01*
X385866666Y-286417890D02*
X385928571Y-286355985D01*
X385928571Y-286355985D02*
X385990476Y-286232176D01*
X385990476Y-286232176D02*
X385990476Y-285984557D01*
X385990476Y-285984557D02*
X385928571Y-285860747D01*
X385928571Y-285860747D02*
X385866666Y-285798842D01*
X385866666Y-285798842D02*
X385742857Y-285736938D01*
D10*
D11*
X10000000Y-60000000D02*
X12000000Y-60000000D01*
D10*
D11*
X10000000Y-110000000D02*
X12000000Y-110000000D01*
D10*
D11*
X10000000Y-160000000D02*
X12000000Y-160000000D01*
D10*
D11*
X10000000Y-210000000D02*
X12000000Y-210000000D01*
D10*
D11*
X10000000Y-260000000D02*
X12000000Y-260000000D01*
D10*
D11*
X10690476Y-35106166D02*
X11309523Y-35106166D01*
X10566666Y-35477595D02*
X10999999Y-34177595D01*
X10999999Y-34177595D02*
X11433333Y-35477595D01*
D10*
D11*
X11092857Y-84796642D02*
X11278571Y-84858547D01*
X11278571Y-84858547D02*
X11340476Y-84920452D01*
X11340476Y-84920452D02*
X11402380Y-85044261D01*
X11402380Y-85044261D02*
X11402380Y-85229976D01*
X11402380Y-85229976D02*
X11340476Y-85353785D01*
X11340476Y-85353785D02*
X11278571Y-85415690D01*
X11278571Y-85415690D02*
X11154761Y-85477595D01*
X11154761Y-85477595D02*
X10659523Y-85477595D01*
X10659523Y-85477595D02*
X10659523Y-84177595D01*
X10659523Y-84177595D02*
X11092857Y-84177595D01*
X11092857Y-84177595D02*
X11216666Y-84239500D01*
X11216666Y-84239500D02*
X11278571Y-84301404D01*
X11278571Y-84301404D02*
X11340476Y-84425214D01*
X11340476Y-84425214D02*
X11340476Y-84549023D01*
X11340476Y-84549023D02*
X11278571Y-84672833D01*
X11278571Y-84672833D02*
X11216666Y-84734738D01*
X11216666Y-84734738D02*
X11092857Y-84796642D01*
X11092857Y-84796642D02*
X10659523Y-84796642D01*
D10*
D11*
X11402380Y-135353785D02*
X11340476Y-135415690D01*
X11340476Y-135415690D02*
X11154761Y-135477595D01*
X11154761Y-135477595D02*
X11030952Y-135477595D01*
X11030952Y-135477595D02*
X10845238Y-135415690D01*
X10845238Y-135415690D02*
X10721428Y-135291880D01*
X10721428Y-135291880D02*
X10659523Y-135168071D01*
X10659523Y-135168071D02*
X10597619Y-134920452D01*
X10597619Y-134920452D02*
X10597619Y-134734738D01*
X10597619Y-134734738D02*
X10659523Y-134487119D01*
X10659523Y-134487119D02*
X10721428Y-134363309D01*
X10721428Y-134363309D02*
X10845238Y-134239500D01*
X10845238Y-134239500D02*
X11030952Y-134177595D01*
X11030952Y-134177595D02*
X11154761Y-134177595D01*
X11154761Y-134177595D02*
X11340476Y-134239500D01*
X11340476Y-134239500D02*
X11402380Y-134301404D01*
D10*
D11*
X10659523Y-185477595D02*
X10659523Y-184177595D01*
X10659523Y-184177595D02*
X10969047Y-184177595D01*
X10969047Y-184177595D02*
X11154761Y-184239500D01*
X11154761Y-184239500D02*
X11278571Y-184363309D01*
X11278571Y-184363309D02*
X11340476Y-184487119D01*
X11340476Y-184487119D02*
X11402380Y-184734738D01*
X11402380Y-184734738D02*
X11402380Y-184920452D01*
X11402380Y-184920452D02*
X11340476Y-185168071D01*
X11340476Y-185168071D02*
X11278571Y-185291880D01*
X11278571Y-185291880D02*
X11154761Y-185415690D01*
X11154761Y-185415690D02*
X10969047Y-185477595D01*
X10969047Y-185477595D02*
X10659523Y-185477595D01*
D10*
D11*
X10721428Y-234796642D02*
X11154762Y-234796642D01*
X11340476Y-235477595D02*
X10721428Y-235477595D01*
X10721428Y-235477595D02*
X10721428Y-234177595D01*
X10721428Y-234177595D02*
X11340476Y-234177595D01*
D10*
D11*
X11185714Y-284796642D02*
X10752380Y-284796642D01*
X10752380Y-285477595D02*
X10752380Y-284177595D01*
X10752380Y-284177595D02*
X11371428Y-284177595D01*
D10*
D11*
X409989000Y-60000000D02*
X407989000Y-60000000D01*
D10*
D11*
X409989000Y-110000000D02*
X407989000Y-110000000D01*
D10*
D11*
X409989000Y-160000000D02*
X407989000Y-160000000D01*
D10*
D11*
X409989000Y-210000000D02*
X407989000Y-210000000D01*
D10*
D11*
X409989000Y-260000000D02*
X407989000Y-260000000D01*
D10*
D11*
X408679476Y-35106166D02*
X409298523Y-35106166D01*
X408555666Y-35477595D02*
X408988999Y-34177595D01*
X408988999Y-34177595D02*
X409422333Y-35477595D01*
D10*
D11*
X409081857Y-84796642D02*
X409267571Y-84858547D01*
X409267571Y-84858547D02*
X409329476Y-84920452D01*
X409329476Y-84920452D02*
X409391380Y-85044261D01*
X409391380Y-85044261D02*
X409391380Y-85229976D01*
X409391380Y-85229976D02*
X409329476Y-85353785D01*
X409329476Y-85353785D02*
X409267571Y-85415690D01*
X409267571Y-85415690D02*
X409143761Y-85477595D01*
X409143761Y-85477595D02*
X408648523Y-85477595D01*
X408648523Y-85477595D02*
X408648523Y-84177595D01*
X408648523Y-84177595D02*
X409081857Y-84177595D01*
X409081857Y-84177595D02*
X409205666Y-84239500D01*
X409205666Y-84239500D02*
X409267571Y-84301404D01*
X409267571Y-84301404D02*
X409329476Y-84425214D01*
X409329476Y-84425214D02*
X409329476Y-84549023D01*
X409329476Y-84549023D02*
X409267571Y-84672833D01*
X409267571Y-84672833D02*
X409205666Y-84734738D01*
X409205666Y-84734738D02*
X409081857Y-84796642D01*
X409081857Y-84796642D02*
X408648523Y-84796642D01*
D10*
D11*
X409391380Y-135353785D02*
X409329476Y-135415690D01*
X409329476Y-135415690D02*
X409143761Y-135477595D01*
X409143761Y-135477595D02*
X409019952Y-135477595D01*
X409019952Y-135477595D02*
X408834238Y-135415690D01*
X408834238Y-135415690D02*
X408710428Y-135291880D01*
X408710428Y-135291880D02*
X408648523Y-135168071D01*
X408648523Y-135168071D02*
X408586619Y-134920452D01*
X408586619Y-134920452D02*
X408586619Y-134734738D01*
X408586619Y-134734738D02*
X408648523Y-134487119D01*
X408648523Y-134487119D02*
X408710428Y-134363309D01*
X408710428Y-134363309D02*
X408834238Y-134239500D01*
X408834238Y-134239500D02*
X409019952Y-134177595D01*
X409019952Y-134177595D02*
X409143761Y-134177595D01*
X409143761Y-134177595D02*
X409329476Y-134239500D01*
X409329476Y-134239500D02*
X409391380Y-134301404D01*
D10*
D11*
X408648523Y-185477595D02*
X408648523Y-184177595D01*
X408648523Y-184177595D02*
X408958047Y-184177595D01*
X408958047Y-184177595D02*
X409143761Y-184239500D01*
X409143761Y-184239500D02*
X409267571Y-184363309D01*
X409267571Y-184363309D02*
X409329476Y-184487119D01*
X409329476Y-184487119D02*
X409391380Y-184734738D01*
X409391380Y-184734738D02*
X409391380Y-184920452D01*
X409391380Y-184920452D02*
X409329476Y-185168071D01*
X409329476Y-185168071D02*
X409267571Y-185291880D01*
X409267571Y-185291880D02*
X409143761Y-185415690D01*
X409143761Y-185415690D02*
X408958047Y-185477595D01*
X408958047Y-185477595D02*
X408648523Y-185477595D01*
D10*
D11*
X408710428Y-234796642D02*
X409143762Y-234796642D01*
X409329476Y-235477595D02*
X408710428Y-235477595D01*
X408710428Y-235477595D02*
X408710428Y-234177595D01*
X408710428Y-234177595D02*
X409329476Y-234177595D01*
D10*
D11*
X409174714Y-284796642D02*
X408741380Y-284796642D01*
X408741380Y-285477595D02*
X408741380Y-284177595D01*
X408741380Y-284177595D02*
X409360428Y-284177595D01*
D10*
D11*
X323346142Y-280653271D02*
X323346142Y-279153271D01*
X323346142Y-279153271D02*
X323703285Y-279153271D01*
X323703285Y-279153271D02*
X323917571Y-279224700D01*
X323917571Y-279224700D02*
X324060428Y-279367557D01*
X324060428Y-279367557D02*
X324131857Y-279510414D01*
X324131857Y-279510414D02*
X324203285Y-279796128D01*
X324203285Y-279796128D02*
X324203285Y-280010414D01*
X324203285Y-280010414D02*
X324131857Y-280296128D01*
X324131857Y-280296128D02*
X324060428Y-280438985D01*
X324060428Y-280438985D02*
X323917571Y-280581842D01*
X323917571Y-280581842D02*
X323703285Y-280653271D01*
X323703285Y-280653271D02*
X323346142Y-280653271D01*
X325489000Y-280653271D02*
X325489000Y-279867557D01*
X325489000Y-279867557D02*
X325417571Y-279724700D01*
X325417571Y-279724700D02*
X325274714Y-279653271D01*
X325274714Y-279653271D02*
X324989000Y-279653271D01*
X324989000Y-279653271D02*
X324846142Y-279724700D01*
X325489000Y-280581842D02*
X325346142Y-280653271D01*
X325346142Y-280653271D02*
X324989000Y-280653271D01*
X324989000Y-280653271D02*
X324846142Y-280581842D01*
X324846142Y-280581842D02*
X324774714Y-280438985D01*
X324774714Y-280438985D02*
X324774714Y-280296128D01*
X324774714Y-280296128D02*
X324846142Y-280153271D01*
X324846142Y-280153271D02*
X324989000Y-280081842D01*
X324989000Y-280081842D02*
X325346142Y-280081842D01*
X325346142Y-280081842D02*
X325489000Y-280010414D01*
X325989000Y-279653271D02*
X326560428Y-279653271D01*
X326203285Y-279153271D02*
X326203285Y-280438985D01*
X326203285Y-280438985D02*
X326274714Y-280581842D01*
X326274714Y-280581842D02*
X326417571Y-280653271D01*
X326417571Y-280653271D02*
X326560428Y-280653271D01*
X327631857Y-280581842D02*
X327489000Y-280653271D01*
X327489000Y-280653271D02*
X327203286Y-280653271D01*
X327203286Y-280653271D02*
X327060428Y-280581842D01*
X327060428Y-280581842D02*
X326989000Y-280438985D01*
X326989000Y-280438985D02*
X326989000Y-279867557D01*
X326989000Y-279867557D02*
X327060428Y-279724700D01*
X327060428Y-279724700D02*
X327203286Y-279653271D01*
X327203286Y-279653271D02*
X327489000Y-279653271D01*
X327489000Y-279653271D02*
X327631857Y-279724700D01*
X327631857Y-279724700D02*
X327703286Y-279867557D01*
X327703286Y-279867557D02*
X327703286Y-280010414D01*
X327703286Y-280010414D02*
X326989000Y-280153271D01*
X328346142Y-280510414D02*
X328417571Y-280581842D01*
X328417571Y-280581842D02*
X328346142Y-280653271D01*
X328346142Y-280653271D02*
X328274714Y-280581842D01*
X328274714Y-280581842D02*
X328346142Y-280510414D01*
X328346142Y-280510414D02*
X328346142Y-280653271D01*
X328346142Y-279724700D02*
X328417571Y-279796128D01*
X328417571Y-279796128D02*
X328346142Y-279867557D01*
X328346142Y-279867557D02*
X328274714Y-279796128D01*
X328274714Y-279796128D02*
X328346142Y-279724700D01*
X328346142Y-279724700D02*
X328346142Y-279867557D01*
D10*
D11*
X299989000Y-281502200D02*
X407989000Y-281502200D01*
D10*
D11*
X301346142Y-283453271D02*
X301346142Y-281953271D01*
X302203285Y-283453271D02*
X301560428Y-282596128D01*
X302203285Y-281953271D02*
X301346142Y-282810414D01*
X302846142Y-283453271D02*
X302846142Y-282453271D01*
X302846142Y-281953271D02*
X302774714Y-282024700D01*
X302774714Y-282024700D02*
X302846142Y-282096128D01*
X302846142Y-282096128D02*
X302917571Y-282024700D01*
X302917571Y-282024700D02*
X302846142Y-281953271D01*
X302846142Y-281953271D02*
X302846142Y-282096128D01*
X304417571Y-283310414D02*
X304346143Y-283381842D01*
X304346143Y-283381842D02*
X304131857Y-283453271D01*
X304131857Y-283453271D02*
X303989000Y-283453271D01*
X303989000Y-283453271D02*
X303774714Y-283381842D01*
X303774714Y-283381842D02*
X303631857Y-283238985D01*
X303631857Y-283238985D02*
X303560428Y-283096128D01*
X303560428Y-283096128D02*
X303489000Y-282810414D01*
X303489000Y-282810414D02*
X303489000Y-282596128D01*
X303489000Y-282596128D02*
X303560428Y-282310414D01*
X303560428Y-282310414D02*
X303631857Y-282167557D01*
X303631857Y-282167557D02*
X303774714Y-282024700D01*
X303774714Y-282024700D02*
X303989000Y-281953271D01*
X303989000Y-281953271D02*
X304131857Y-281953271D01*
X304131857Y-281953271D02*
X304346143Y-282024700D01*
X304346143Y-282024700D02*
X304417571Y-282096128D01*
X305703286Y-283453271D02*
X305703286Y-282667557D01*
X305703286Y-282667557D02*
X305631857Y-282524700D01*
X305631857Y-282524700D02*
X305489000Y-282453271D01*
X305489000Y-282453271D02*
X305203286Y-282453271D01*
X305203286Y-282453271D02*
X305060428Y-282524700D01*
X305703286Y-283381842D02*
X305560428Y-283453271D01*
X305560428Y-283453271D02*
X305203286Y-283453271D01*
X305203286Y-283453271D02*
X305060428Y-283381842D01*
X305060428Y-283381842D02*
X304989000Y-283238985D01*
X304989000Y-283238985D02*
X304989000Y-283096128D01*
X304989000Y-283096128D02*
X305060428Y-282953271D01*
X305060428Y-282953271D02*
X305203286Y-282881842D01*
X305203286Y-282881842D02*
X305560428Y-282881842D01*
X305560428Y-282881842D02*
X305703286Y-282810414D01*
X307060429Y-283453271D02*
X307060429Y-281953271D01*
X307060429Y-283381842D02*
X306917571Y-283453271D01*
X306917571Y-283453271D02*
X306631857Y-283453271D01*
X306631857Y-283453271D02*
X306489000Y-283381842D01*
X306489000Y-283381842D02*
X306417571Y-283310414D01*
X306417571Y-283310414D02*
X306346143Y-283167557D01*
X306346143Y-283167557D02*
X306346143Y-282738985D01*
X306346143Y-282738985D02*
X306417571Y-282596128D01*
X306417571Y-282596128D02*
X306489000Y-282524700D01*
X306489000Y-282524700D02*
X306631857Y-282453271D01*
X306631857Y-282453271D02*
X306917571Y-282453271D01*
X306917571Y-282453271D02*
X307060429Y-282524700D01*
X308674714Y-282667557D02*
X309174714Y-282667557D01*
X309389000Y-283453271D02*
X308674714Y-283453271D01*
X308674714Y-283453271D02*
X308674714Y-281953271D01*
X308674714Y-281953271D02*
X309389000Y-281953271D01*
X310031857Y-283310414D02*
X310103286Y-283381842D01*
X310103286Y-283381842D02*
X310031857Y-283453271D01*
X310031857Y-283453271D02*
X309960429Y-283381842D01*
X309960429Y-283381842D02*
X310031857Y-283310414D01*
X310031857Y-283310414D02*
X310031857Y-283453271D01*
X310746143Y-283453271D02*
X310746143Y-281953271D01*
X310746143Y-281953271D02*
X311103286Y-281953271D01*
X311103286Y-281953271D02*
X311317572Y-282024700D01*
X311317572Y-282024700D02*
X311460429Y-282167557D01*
X311460429Y-282167557D02*
X311531858Y-282310414D01*
X311531858Y-282310414D02*
X311603286Y-282596128D01*
X311603286Y-282596128D02*
X311603286Y-282810414D01*
X311603286Y-282810414D02*
X311531858Y-283096128D01*
X311531858Y-283096128D02*
X311460429Y-283238985D01*
X311460429Y-283238985D02*
X311317572Y-283381842D01*
X311317572Y-283381842D02*
X311103286Y-283453271D01*
X311103286Y-283453271D02*
X310746143Y-283453271D01*
X312246143Y-283310414D02*
X312317572Y-283381842D01*
X312317572Y-283381842D02*
X312246143Y-283453271D01*
X312246143Y-283453271D02*
X312174715Y-283381842D01*
X312174715Y-283381842D02*
X312246143Y-283310414D01*
X312246143Y-283310414D02*
X312246143Y-283453271D01*
X312889001Y-283024700D02*
X313603287Y-283024700D01*
X312746144Y-283453271D02*
X313246144Y-281953271D01*
X313246144Y-281953271D02*
X313746144Y-283453271D01*
X314246143Y-283310414D02*
X314317572Y-283381842D01*
X314317572Y-283381842D02*
X314246143Y-283453271D01*
X314246143Y-283453271D02*
X314174715Y-283381842D01*
X314174715Y-283381842D02*
X314246143Y-283310414D01*
X314246143Y-283310414D02*
X314246143Y-283453271D01*
X316760429Y-283453271D02*
X316760429Y-281953271D01*
X316903287Y-282881842D02*
X317331858Y-283453271D01*
X317331858Y-282453271D02*
X316760429Y-283024700D01*
X317974715Y-283453271D02*
X317974715Y-282453271D01*
X317974715Y-281953271D02*
X317903287Y-282024700D01*
X317903287Y-282024700D02*
X317974715Y-282096128D01*
X317974715Y-282096128D02*
X318046144Y-282024700D01*
X318046144Y-282024700D02*
X317974715Y-281953271D01*
X317974715Y-281953271D02*
X317974715Y-282096128D01*
X319331859Y-283381842D02*
X319189001Y-283453271D01*
X319189001Y-283453271D02*
X318903287Y-283453271D01*
X318903287Y-283453271D02*
X318760430Y-283381842D01*
X318760430Y-283381842D02*
X318689001Y-283310414D01*
X318689001Y-283310414D02*
X318617573Y-283167557D01*
X318617573Y-283167557D02*
X318617573Y-282738985D01*
X318617573Y-282738985D02*
X318689001Y-282596128D01*
X318689001Y-282596128D02*
X318760430Y-282524700D01*
X318760430Y-282524700D02*
X318903287Y-282453271D01*
X318903287Y-282453271D02*
X319189001Y-282453271D01*
X319189001Y-282453271D02*
X319331859Y-282524700D01*
X320617573Y-283453271D02*
X320617573Y-282667557D01*
X320617573Y-282667557D02*
X320546144Y-282524700D01*
X320546144Y-282524700D02*
X320403287Y-282453271D01*
X320403287Y-282453271D02*
X320117573Y-282453271D01*
X320117573Y-282453271D02*
X319974715Y-282524700D01*
X320617573Y-283381842D02*
X320474715Y-283453271D01*
X320474715Y-283453271D02*
X320117573Y-283453271D01*
X320117573Y-283453271D02*
X319974715Y-283381842D01*
X319974715Y-283381842D02*
X319903287Y-283238985D01*
X319903287Y-283238985D02*
X319903287Y-283096128D01*
X319903287Y-283096128D02*
X319974715Y-282953271D01*
X319974715Y-282953271D02*
X320117573Y-282881842D01*
X320117573Y-282881842D02*
X320474715Y-282881842D01*
X320474715Y-282881842D02*
X320617573Y-282810414D01*
X321974716Y-283453271D02*
X321974716Y-281953271D01*
X321974716Y-283381842D02*
X321831858Y-283453271D01*
X321831858Y-283453271D02*
X321546144Y-283453271D01*
X321546144Y-283453271D02*
X321403287Y-283381842D01*
X321403287Y-283381842D02*
X321331858Y-283310414D01*
X321331858Y-283310414D02*
X321260430Y-283167557D01*
X321260430Y-283167557D02*
X321260430Y-282738985D01*
X321260430Y-282738985D02*
X321331858Y-282596128D01*
X321331858Y-282596128D02*
X321403287Y-282524700D01*
X321403287Y-282524700D02*
X321546144Y-282453271D01*
X321546144Y-282453271D02*
X321831858Y-282453271D01*
X321831858Y-282453271D02*
X321974716Y-282524700D01*
X324017573Y-284024700D02*
X323946144Y-283953271D01*
X323946144Y-283953271D02*
X323803287Y-283738985D01*
X323803287Y-283738985D02*
X323731859Y-283596128D01*
X323731859Y-283596128D02*
X323660430Y-283381842D01*
X323660430Y-283381842D02*
X323589001Y-283024700D01*
X323589001Y-283024700D02*
X323589001Y-282738985D01*
X323589001Y-282738985D02*
X323660430Y-282381842D01*
X323660430Y-282381842D02*
X323731859Y-282167557D01*
X323731859Y-282167557D02*
X323803287Y-282024700D01*
X323803287Y-282024700D02*
X323946144Y-281810414D01*
X323946144Y-281810414D02*
X324017573Y-281738985D01*
X324446144Y-281953271D02*
X325446144Y-281953271D01*
X325446144Y-281953271D02*
X324803287Y-283453271D01*
X326017572Y-283310414D02*
X326089001Y-283381842D01*
X326089001Y-283381842D02*
X326017572Y-283453271D01*
X326017572Y-283453271D02*
X325946144Y-283381842D01*
X325946144Y-283381842D02*
X326017572Y-283310414D01*
X326017572Y-283310414D02*
X326017572Y-283453271D01*
X327017573Y-281953271D02*
X327160430Y-281953271D01*
X327160430Y-281953271D02*
X327303287Y-282024700D01*
X327303287Y-282024700D02*
X327374716Y-282096128D01*
X327374716Y-282096128D02*
X327446144Y-282238985D01*
X327446144Y-282238985D02*
X327517573Y-282524700D01*
X327517573Y-282524700D02*
X327517573Y-282881842D01*
X327517573Y-282881842D02*
X327446144Y-283167557D01*
X327446144Y-283167557D02*
X327374716Y-283310414D01*
X327374716Y-283310414D02*
X327303287Y-283381842D01*
X327303287Y-283381842D02*
X327160430Y-283453271D01*
X327160430Y-283453271D02*
X327017573Y-283453271D01*
X327017573Y-283453271D02*
X326874716Y-283381842D01*
X326874716Y-283381842D02*
X326803287Y-283310414D01*
X326803287Y-283310414D02*
X326731858Y-283167557D01*
X326731858Y-283167557D02*
X326660430Y-282881842D01*
X326660430Y-282881842D02*
X326660430Y-282524700D01*
X326660430Y-282524700D02*
X326731858Y-282238985D01*
X326731858Y-282238985D02*
X326803287Y-282096128D01*
X326803287Y-282096128D02*
X326874716Y-282024700D01*
X326874716Y-282024700D02*
X327017573Y-281953271D01*
X328160429Y-283310414D02*
X328231858Y-283381842D01*
X328231858Y-283381842D02*
X328160429Y-283453271D01*
X328160429Y-283453271D02*
X328089001Y-283381842D01*
X328089001Y-283381842D02*
X328160429Y-283310414D01*
X328160429Y-283310414D02*
X328160429Y-283453271D01*
X329160430Y-281953271D02*
X329303287Y-281953271D01*
X329303287Y-281953271D02*
X329446144Y-282024700D01*
X329446144Y-282024700D02*
X329517573Y-282096128D01*
X329517573Y-282096128D02*
X329589001Y-282238985D01*
X329589001Y-282238985D02*
X329660430Y-282524700D01*
X329660430Y-282524700D02*
X329660430Y-282881842D01*
X329660430Y-282881842D02*
X329589001Y-283167557D01*
X329589001Y-283167557D02*
X329517573Y-283310414D01*
X329517573Y-283310414D02*
X329446144Y-283381842D01*
X329446144Y-283381842D02*
X329303287Y-283453271D01*
X329303287Y-283453271D02*
X329160430Y-283453271D01*
X329160430Y-283453271D02*
X329017573Y-283381842D01*
X329017573Y-283381842D02*
X328946144Y-283310414D01*
X328946144Y-283310414D02*
X328874715Y-283167557D01*
X328874715Y-283167557D02*
X328803287Y-282881842D01*
X328803287Y-282881842D02*
X328803287Y-282524700D01*
X328803287Y-282524700D02*
X328874715Y-282238985D01*
X328874715Y-282238985D02*
X328946144Y-282096128D01*
X328946144Y-282096128D02*
X329017573Y-282024700D01*
X329017573Y-282024700D02*
X329160430Y-281953271D01*
X330160429Y-284024700D02*
X330231858Y-283953271D01*
X330231858Y-283953271D02*
X330374715Y-283738985D01*
X330374715Y-283738985D02*
X330446144Y-283596128D01*
X330446144Y-283596128D02*
X330517572Y-283381842D01*
X330517572Y-283381842D02*
X330589001Y-283024700D01*
X330589001Y-283024700D02*
X330589001Y-282738985D01*
X330589001Y-282738985D02*
X330517572Y-282381842D01*
X330517572Y-282381842D02*
X330446144Y-282167557D01*
X330446144Y-282167557D02*
X330374715Y-282024700D01*
X330374715Y-282024700D02*
X330231858Y-281810414D01*
X330231858Y-281810414D02*
X330160429Y-281738985D01*
D10*
D11*
X299989000Y-278502200D02*
X407989000Y-278502200D01*
D10*
D12*
X387203285Y-280653271D02*
X386703285Y-279938985D01*
X386346142Y-280653271D02*
X386346142Y-279153271D01*
X386346142Y-279153271D02*
X386917571Y-279153271D01*
X386917571Y-279153271D02*
X387060428Y-279224700D01*
X387060428Y-279224700D02*
X387131857Y-279296128D01*
X387131857Y-279296128D02*
X387203285Y-279438985D01*
X387203285Y-279438985D02*
X387203285Y-279653271D01*
X387203285Y-279653271D02*
X387131857Y-279796128D01*
X387131857Y-279796128D02*
X387060428Y-279867557D01*
X387060428Y-279867557D02*
X386917571Y-279938985D01*
X386917571Y-279938985D02*
X386346142Y-279938985D01*
X388417571Y-280581842D02*
X388274714Y-280653271D01*
X388274714Y-280653271D02*
X387989000Y-280653271D01*
X387989000Y-280653271D02*
X387846142Y-280581842D01*
X387846142Y-280581842D02*
X387774714Y-280438985D01*
X387774714Y-280438985D02*
X387774714Y-279867557D01*
X387774714Y-279867557D02*
X387846142Y-279724700D01*
X387846142Y-279724700D02*
X387989000Y-279653271D01*
X387989000Y-279653271D02*
X388274714Y-279653271D01*
X388274714Y-279653271D02*
X388417571Y-279724700D01*
X388417571Y-279724700D02*
X388489000Y-279867557D01*
X388489000Y-279867557D02*
X388489000Y-280010414D01*
X388489000Y-280010414D02*
X387774714Y-280153271D01*
X388988999Y-279653271D02*
X389346142Y-280653271D01*
X389346142Y-280653271D02*
X389703285Y-279653271D01*
X390274713Y-280510414D02*
X390346142Y-280581842D01*
X390346142Y-280581842D02*
X390274713Y-280653271D01*
X390274713Y-280653271D02*
X390203285Y-280581842D01*
X390203285Y-280581842D02*
X390274713Y-280510414D01*
X390274713Y-280510414D02*
X390274713Y-280653271D01*
X390274713Y-279724700D02*
X390346142Y-279796128D01*
X390346142Y-279796128D02*
X390274713Y-279867557D01*
X390274713Y-279867557D02*
X390203285Y-279796128D01*
X390203285Y-279796128D02*
X390274713Y-279724700D01*
X390274713Y-279724700D02*
X390274713Y-279867557D01*
D10*
D11*
X301274714Y-280581842D02*
X301489000Y-280653271D01*
X301489000Y-280653271D02*
X301846142Y-280653271D01*
X301846142Y-280653271D02*
X301989000Y-280581842D01*
X301989000Y-280581842D02*
X302060428Y-280510414D01*
X302060428Y-280510414D02*
X302131857Y-280367557D01*
X302131857Y-280367557D02*
X302131857Y-280224700D01*
X302131857Y-280224700D02*
X302060428Y-280081842D01*
X302060428Y-280081842D02*
X301989000Y-280010414D01*
X301989000Y-280010414D02*
X301846142Y-279938985D01*
X301846142Y-279938985D02*
X301560428Y-279867557D01*
X301560428Y-279867557D02*
X301417571Y-279796128D01*
X301417571Y-279796128D02*
X301346142Y-279724700D01*
X301346142Y-279724700D02*
X301274714Y-279581842D01*
X301274714Y-279581842D02*
X301274714Y-279438985D01*
X301274714Y-279438985D02*
X301346142Y-279296128D01*
X301346142Y-279296128D02*
X301417571Y-279224700D01*
X301417571Y-279224700D02*
X301560428Y-279153271D01*
X301560428Y-279153271D02*
X301917571Y-279153271D01*
X301917571Y-279153271D02*
X302131857Y-279224700D01*
X302774713Y-280653271D02*
X302774713Y-279653271D01*
X302774713Y-279153271D02*
X302703285Y-279224700D01*
X302703285Y-279224700D02*
X302774713Y-279296128D01*
X302774713Y-279296128D02*
X302846142Y-279224700D01*
X302846142Y-279224700D02*
X302774713Y-279153271D01*
X302774713Y-279153271D02*
X302774713Y-279296128D01*
X303346142Y-279653271D02*
X304131857Y-279653271D01*
X304131857Y-279653271D02*
X303346142Y-280653271D01*
X303346142Y-280653271D02*
X304131857Y-280653271D01*
X305274714Y-280581842D02*
X305131857Y-280653271D01*
X305131857Y-280653271D02*
X304846143Y-280653271D01*
X304846143Y-280653271D02*
X304703285Y-280581842D01*
X304703285Y-280581842D02*
X304631857Y-280438985D01*
X304631857Y-280438985D02*
X304631857Y-279867557D01*
X304631857Y-279867557D02*
X304703285Y-279724700D01*
X304703285Y-279724700D02*
X304846143Y-279653271D01*
X304846143Y-279653271D02*
X305131857Y-279653271D01*
X305131857Y-279653271D02*
X305274714Y-279724700D01*
X305274714Y-279724700D02*
X305346143Y-279867557D01*
X305346143Y-279867557D02*
X305346143Y-280010414D01*
X305346143Y-280010414D02*
X304631857Y-280153271D01*
X305988999Y-280510414D02*
X306060428Y-280581842D01*
X306060428Y-280581842D02*
X305988999Y-280653271D01*
X305988999Y-280653271D02*
X305917571Y-280581842D01*
X305917571Y-280581842D02*
X305988999Y-280510414D01*
X305988999Y-280510414D02*
X305988999Y-280653271D01*
X305988999Y-279724700D02*
X306060428Y-279796128D01*
X306060428Y-279796128D02*
X305988999Y-279867557D01*
X305988999Y-279867557D02*
X305917571Y-279796128D01*
X305917571Y-279796128D02*
X305988999Y-279724700D01*
X305988999Y-279724700D02*
X305988999Y-279867557D01*
X307531857Y-280224700D02*
X308246143Y-280224700D01*
X307389000Y-280653271D02*
X307889000Y-279153271D01*
X307889000Y-279153271D02*
X308389000Y-280653271D01*
X308746142Y-279153271D02*
X309674714Y-279153271D01*
X309674714Y-279153271D02*
X309174714Y-279724700D01*
X309174714Y-279724700D02*
X309388999Y-279724700D01*
X309388999Y-279724700D02*
X309531857Y-279796128D01*
X309531857Y-279796128D02*
X309603285Y-279867557D01*
X309603285Y-279867557D02*
X309674714Y-280010414D01*
X309674714Y-280010414D02*
X309674714Y-280367557D01*
X309674714Y-280367557D02*
X309603285Y-280510414D01*
X309603285Y-280510414D02*
X309531857Y-280581842D01*
X309531857Y-280581842D02*
X309388999Y-280653271D01*
X309388999Y-280653271D02*
X308960428Y-280653271D01*
X308960428Y-280653271D02*
X308817571Y-280581842D01*
X308817571Y-280581842D02*
X308746142Y-280510414D01*
D10*
D11*
X386346142Y-283453271D02*
X386346142Y-281953271D01*
X387703286Y-283453271D02*
X387703286Y-281953271D01*
X387703286Y-283381842D02*
X387560428Y-283453271D01*
X387560428Y-283453271D02*
X387274714Y-283453271D01*
X387274714Y-283453271D02*
X387131857Y-283381842D01*
X387131857Y-283381842D02*
X387060428Y-283310414D01*
X387060428Y-283310414D02*
X386989000Y-283167557D01*
X386989000Y-283167557D02*
X386989000Y-282738985D01*
X386989000Y-282738985D02*
X387060428Y-282596128D01*
X387060428Y-282596128D02*
X387131857Y-282524700D01*
X387131857Y-282524700D02*
X387274714Y-282453271D01*
X387274714Y-282453271D02*
X387560428Y-282453271D01*
X387560428Y-282453271D02*
X387703286Y-282524700D01*
X388417571Y-283310414D02*
X388489000Y-283381842D01*
X388489000Y-283381842D02*
X388417571Y-283453271D01*
X388417571Y-283453271D02*
X388346143Y-283381842D01*
X388346143Y-283381842D02*
X388417571Y-283310414D01*
X388417571Y-283310414D02*
X388417571Y-283453271D01*
X388417571Y-282524700D02*
X388489000Y-282596128D01*
X388489000Y-282596128D02*
X388417571Y-282667557D01*
X388417571Y-282667557D02*
X388346143Y-282596128D01*
X388346143Y-282596128D02*
X388417571Y-282524700D01*
X388417571Y-282524700D02*
X388417571Y-282667557D01*
X390817572Y-283453271D02*
X389960429Y-283453271D01*
X390389000Y-283453271D02*
X390389000Y-281953271D01*
X390389000Y-281953271D02*
X390246143Y-282167557D01*
X390246143Y-282167557D02*
X390103286Y-282310414D01*
X390103286Y-282310414D02*
X389960429Y-282381842D01*
X392531857Y-281881842D02*
X391246143Y-283810414D01*
X393817572Y-283453271D02*
X392960429Y-283453271D01*
X393389000Y-283453271D02*
X393389000Y-281953271D01*
X393389000Y-281953271D02*
X393246143Y-282167557D01*
X393246143Y-282167557D02*
X393103286Y-282310414D01*
X393103286Y-282310414D02*
X392960429Y-282381842D01*
D10*
D11*
X299989000Y-274502200D02*
X407989000Y-274502200D01*
D10*
D13*
X301441380Y-275036961D02*
X302584238Y-275036961D01*
X301762809Y-277036961D02*
X302012809Y-275036961D01*
X303000905Y-277036961D02*
X303167571Y-275703628D01*
X303250905Y-275036961D02*
X303143762Y-275132200D01*
X303143762Y-275132200D02*
X303227095Y-275227438D01*
X303227095Y-275227438D02*
X303334238Y-275132200D01*
X303334238Y-275132200D02*
X303250905Y-275036961D01*
X303250905Y-275036961D02*
X303227095Y-275227438D01*
X303834238Y-275703628D02*
X304596143Y-275703628D01*
X304203286Y-275036961D02*
X303989000Y-276751247D01*
X303989000Y-276751247D02*
X304060429Y-276941723D01*
X304060429Y-276941723D02*
X304239000Y-277036961D01*
X304239000Y-277036961D02*
X304429476Y-277036961D01*
X305381857Y-277036961D02*
X305203286Y-276941723D01*
X305203286Y-276941723D02*
X305131857Y-276751247D01*
X305131857Y-276751247D02*
X305346143Y-275036961D01*
X306917571Y-276941723D02*
X306715190Y-277036961D01*
X306715190Y-277036961D02*
X306334238Y-277036961D01*
X306334238Y-277036961D02*
X306155667Y-276941723D01*
X306155667Y-276941723D02*
X306084238Y-276751247D01*
X306084238Y-276751247D02*
X306179476Y-275989342D01*
X306179476Y-275989342D02*
X306298524Y-275798866D01*
X306298524Y-275798866D02*
X306500905Y-275703628D01*
X306500905Y-275703628D02*
X306881857Y-275703628D01*
X306881857Y-275703628D02*
X307060428Y-275798866D01*
X307060428Y-275798866D02*
X307131857Y-275989342D01*
X307131857Y-275989342D02*
X307108047Y-276179819D01*
X307108047Y-276179819D02*
X306131857Y-276370295D01*
X307881857Y-276846485D02*
X307965191Y-276941723D01*
X307965191Y-276941723D02*
X307858048Y-277036961D01*
X307858048Y-277036961D02*
X307774714Y-276941723D01*
X307774714Y-276941723D02*
X307881857Y-276846485D01*
X307881857Y-276846485D02*
X307858048Y-277036961D01*
X308012810Y-275798866D02*
X308096143Y-275894104D01*
X308096143Y-275894104D02*
X307989000Y-275989342D01*
X307989000Y-275989342D02*
X307905667Y-275894104D01*
X307905667Y-275894104D02*
X308012810Y-275798866D01*
X308012810Y-275798866D02*
X307989000Y-275989342D01*
D10*
D11*
X301846142Y-272467557D02*
X301346142Y-272467557D01*
X301346142Y-273253271D02*
X301346142Y-271753271D01*
X301346142Y-271753271D02*
X302060428Y-271753271D01*
X302631856Y-273253271D02*
X302631856Y-272253271D01*
X302631856Y-271753271D02*
X302560428Y-271824700D01*
X302560428Y-271824700D02*
X302631856Y-271896128D01*
X302631856Y-271896128D02*
X302703285Y-271824700D01*
X302703285Y-271824700D02*
X302631856Y-271753271D01*
X302631856Y-271753271D02*
X302631856Y-271896128D01*
X303560428Y-273253271D02*
X303417571Y-273181842D01*
X303417571Y-273181842D02*
X303346142Y-273038985D01*
X303346142Y-273038985D02*
X303346142Y-271753271D01*
X304703285Y-273181842D02*
X304560428Y-273253271D01*
X304560428Y-273253271D02*
X304274714Y-273253271D01*
X304274714Y-273253271D02*
X304131856Y-273181842D01*
X304131856Y-273181842D02*
X304060428Y-273038985D01*
X304060428Y-273038985D02*
X304060428Y-272467557D01*
X304060428Y-272467557D02*
X304131856Y-272324700D01*
X304131856Y-272324700D02*
X304274714Y-272253271D01*
X304274714Y-272253271D02*
X304560428Y-272253271D01*
X304560428Y-272253271D02*
X304703285Y-272324700D01*
X304703285Y-272324700D02*
X304774714Y-272467557D01*
X304774714Y-272467557D02*
X304774714Y-272610414D01*
X304774714Y-272610414D02*
X304060428Y-272753271D01*
X305417570Y-273110414D02*
X305488999Y-273181842D01*
X305488999Y-273181842D02*
X305417570Y-273253271D01*
X305417570Y-273253271D02*
X305346142Y-273181842D01*
X305346142Y-273181842D02*
X305417570Y-273110414D01*
X305417570Y-273110414D02*
X305417570Y-273253271D01*
X305417570Y-272324700D02*
X305488999Y-272396128D01*
X305488999Y-272396128D02*
X305417570Y-272467557D01*
X305417570Y-272467557D02*
X305346142Y-272396128D01*
X305346142Y-272396128D02*
X305417570Y-272324700D01*
X305417570Y-272324700D02*
X305417570Y-272467557D01*
X308031856Y-273396128D02*
X307888999Y-273324700D01*
X307888999Y-273324700D02*
X307746142Y-273181842D01*
X307746142Y-273181842D02*
X307531856Y-272967557D01*
X307531856Y-272967557D02*
X307388999Y-272896128D01*
X307388999Y-272896128D02*
X307246142Y-272896128D01*
X307317571Y-273253271D02*
X307174714Y-273181842D01*
X307174714Y-273181842D02*
X307031856Y-273038985D01*
X307031856Y-273038985D02*
X306960428Y-272753271D01*
X306960428Y-272753271D02*
X306960428Y-272253271D01*
X306960428Y-272253271D02*
X307031856Y-271967557D01*
X307031856Y-271967557D02*
X307174714Y-271824700D01*
X307174714Y-271824700D02*
X307317571Y-271753271D01*
X307317571Y-271753271D02*
X307603285Y-271753271D01*
X307603285Y-271753271D02*
X307746142Y-271824700D01*
X307746142Y-271824700D02*
X307888999Y-271967557D01*
X307888999Y-271967557D02*
X307960428Y-272253271D01*
X307960428Y-272253271D02*
X307960428Y-272753271D01*
X307960428Y-272753271D02*
X307888999Y-273038985D01*
X307888999Y-273038985D02*
X307746142Y-273181842D01*
X307746142Y-273181842D02*
X307603285Y-273253271D01*
X307603285Y-273253271D02*
X307317571Y-273253271D01*
X309246143Y-272253271D02*
X309246143Y-273253271D01*
X308603285Y-272253271D02*
X308603285Y-273038985D01*
X308603285Y-273038985D02*
X308674714Y-273181842D01*
X308674714Y-273181842D02*
X308817571Y-273253271D01*
X308817571Y-273253271D02*
X309031857Y-273253271D01*
X309031857Y-273253271D02*
X309174714Y-273181842D01*
X309174714Y-273181842D02*
X309246143Y-273110414D01*
X310603286Y-273253271D02*
X310603286Y-272467557D01*
X310603286Y-272467557D02*
X310531857Y-272324700D01*
X310531857Y-272324700D02*
X310389000Y-272253271D01*
X310389000Y-272253271D02*
X310103286Y-272253271D01*
X310103286Y-272253271D02*
X309960428Y-272324700D01*
X310603286Y-273181842D02*
X310460428Y-273253271D01*
X310460428Y-273253271D02*
X310103286Y-273253271D01*
X310103286Y-273253271D02*
X309960428Y-273181842D01*
X309960428Y-273181842D02*
X309889000Y-273038985D01*
X309889000Y-273038985D02*
X309889000Y-272896128D01*
X309889000Y-272896128D02*
X309960428Y-272753271D01*
X309960428Y-272753271D02*
X310103286Y-272681842D01*
X310103286Y-272681842D02*
X310460428Y-272681842D01*
X310460428Y-272681842D02*
X310603286Y-272610414D01*
X311317571Y-273253271D02*
X311317571Y-272253271D01*
X311317571Y-272538985D02*
X311389000Y-272396128D01*
X311389000Y-272396128D02*
X311460429Y-272324700D01*
X311460429Y-272324700D02*
X311603286Y-272253271D01*
X311603286Y-272253271D02*
X311746143Y-272253271D01*
X312031857Y-272253271D02*
X312603285Y-272253271D01*
X312246142Y-271753271D02*
X312246142Y-273038985D01*
X312246142Y-273038985D02*
X312317571Y-273181842D01*
X312317571Y-273181842D02*
X312460428Y-273253271D01*
X312460428Y-273253271D02*
X312603285Y-273253271D01*
X312960428Y-272253271D02*
X313746143Y-272253271D01*
X313746143Y-272253271D02*
X312960428Y-273253271D01*
X312960428Y-273253271D02*
X313746143Y-273253271D01*
X314317571Y-273110414D02*
X314389000Y-273181842D01*
X314389000Y-273181842D02*
X314317571Y-273253271D01*
X314317571Y-273253271D02*
X314246143Y-273181842D01*
X314246143Y-273181842D02*
X314317571Y-273110414D01*
X314317571Y-273110414D02*
X314317571Y-273253271D01*
X315031857Y-273253271D02*
X315031857Y-271753271D01*
X315174715Y-272681842D02*
X315603286Y-273253271D01*
X315603286Y-272253271D02*
X315031857Y-272824700D01*
X316246143Y-273253271D02*
X316246143Y-272253271D01*
X316246143Y-271753271D02*
X316174715Y-271824700D01*
X316174715Y-271824700D02*
X316246143Y-271896128D01*
X316246143Y-271896128D02*
X316317572Y-271824700D01*
X316317572Y-271824700D02*
X316246143Y-271753271D01*
X316246143Y-271753271D02*
X316246143Y-271896128D01*
X317603287Y-273181842D02*
X317460429Y-273253271D01*
X317460429Y-273253271D02*
X317174715Y-273253271D01*
X317174715Y-273253271D02*
X317031858Y-273181842D01*
X317031858Y-273181842D02*
X316960429Y-273110414D01*
X316960429Y-273110414D02*
X316889001Y-272967557D01*
X316889001Y-272967557D02*
X316889001Y-272538985D01*
X316889001Y-272538985D02*
X316960429Y-272396128D01*
X316960429Y-272396128D02*
X317031858Y-272324700D01*
X317031858Y-272324700D02*
X317174715Y-272253271D01*
X317174715Y-272253271D02*
X317460429Y-272253271D01*
X317460429Y-272253271D02*
X317603287Y-272324700D01*
X318889001Y-273253271D02*
X318889001Y-272467557D01*
X318889001Y-272467557D02*
X318817572Y-272324700D01*
X318817572Y-272324700D02*
X318674715Y-272253271D01*
X318674715Y-272253271D02*
X318389001Y-272253271D01*
X318389001Y-272253271D02*
X318246143Y-272324700D01*
X318889001Y-273181842D02*
X318746143Y-273253271D01*
X318746143Y-273253271D02*
X318389001Y-273253271D01*
X318389001Y-273253271D02*
X318246143Y-273181842D01*
X318246143Y-273181842D02*
X318174715Y-273038985D01*
X318174715Y-273038985D02*
X318174715Y-272896128D01*
X318174715Y-272896128D02*
X318246143Y-272753271D01*
X318246143Y-272753271D02*
X318389001Y-272681842D01*
X318389001Y-272681842D02*
X318746143Y-272681842D01*
X318746143Y-272681842D02*
X318889001Y-272610414D01*
X320246144Y-273253271D02*
X320246144Y-271753271D01*
X320246144Y-273181842D02*
X320103286Y-273253271D01*
X320103286Y-273253271D02*
X319817572Y-273253271D01*
X319817572Y-273253271D02*
X319674715Y-273181842D01*
X319674715Y-273181842D02*
X319603286Y-273110414D01*
X319603286Y-273110414D02*
X319531858Y-272967557D01*
X319531858Y-272967557D02*
X319531858Y-272538985D01*
X319531858Y-272538985D02*
X319603286Y-272396128D01*
X319603286Y-272396128D02*
X319674715Y-272324700D01*
X319674715Y-272324700D02*
X319817572Y-272253271D01*
X319817572Y-272253271D02*
X320103286Y-272253271D01*
X320103286Y-272253271D02*
X320246144Y-272324700D01*
X320603287Y-273396128D02*
X321746144Y-273396128D01*
X322103286Y-272253271D02*
X322103286Y-273753271D01*
X322103286Y-272324700D02*
X322246144Y-272253271D01*
X322246144Y-272253271D02*
X322531858Y-272253271D01*
X322531858Y-272253271D02*
X322674715Y-272324700D01*
X322674715Y-272324700D02*
X322746144Y-272396128D01*
X322746144Y-272396128D02*
X322817572Y-272538985D01*
X322817572Y-272538985D02*
X322817572Y-272967557D01*
X322817572Y-272967557D02*
X322746144Y-273110414D01*
X322746144Y-273110414D02*
X322674715Y-273181842D01*
X322674715Y-273181842D02*
X322531858Y-273253271D01*
X322531858Y-273253271D02*
X322246144Y-273253271D01*
X322246144Y-273253271D02*
X322103286Y-273181842D01*
X324103287Y-273181842D02*
X323960429Y-273253271D01*
X323960429Y-273253271D02*
X323674715Y-273253271D01*
X323674715Y-273253271D02*
X323531858Y-273181842D01*
X323531858Y-273181842D02*
X323460429Y-273110414D01*
X323460429Y-273110414D02*
X323389001Y-272967557D01*
X323389001Y-272967557D02*
X323389001Y-272538985D01*
X323389001Y-272538985D02*
X323460429Y-272396128D01*
X323460429Y-272396128D02*
X323531858Y-272324700D01*
X323531858Y-272324700D02*
X323674715Y-272253271D01*
X323674715Y-272253271D02*
X323960429Y-272253271D01*
X323960429Y-272253271D02*
X324103287Y-272324700D01*
X324746143Y-273253271D02*
X324746143Y-271753271D01*
X324746143Y-272324700D02*
X324889001Y-272253271D01*
X324889001Y-272253271D02*
X325174715Y-272253271D01*
X325174715Y-272253271D02*
X325317572Y-272324700D01*
X325317572Y-272324700D02*
X325389001Y-272396128D01*
X325389001Y-272396128D02*
X325460429Y-272538985D01*
X325460429Y-272538985D02*
X325460429Y-272967557D01*
X325460429Y-272967557D02*
X325389001Y-273110414D01*
X325389001Y-273110414D02*
X325317572Y-273181842D01*
X325317572Y-273181842D02*
X325174715Y-273253271D01*
X325174715Y-273253271D02*
X324889001Y-273253271D01*
X324889001Y-273253271D02*
X324746143Y-273181842D01*
D10*
D11*
X299989000Y-268502200D02*
X407989000Y-268502200D01*
D10*
D11*
X301274714Y-270481842D02*
X301489000Y-270553271D01*
X301489000Y-270553271D02*
X301846142Y-270553271D01*
X301846142Y-270553271D02*
X301989000Y-270481842D01*
X301989000Y-270481842D02*
X302060428Y-270410414D01*
X302060428Y-270410414D02*
X302131857Y-270267557D01*
X302131857Y-270267557D02*
X302131857Y-270124700D01*
X302131857Y-270124700D02*
X302060428Y-269981842D01*
X302060428Y-269981842D02*
X301989000Y-269910414D01*
X301989000Y-269910414D02*
X301846142Y-269838985D01*
X301846142Y-269838985D02*
X301560428Y-269767557D01*
X301560428Y-269767557D02*
X301417571Y-269696128D01*
X301417571Y-269696128D02*
X301346142Y-269624700D01*
X301346142Y-269624700D02*
X301274714Y-269481842D01*
X301274714Y-269481842D02*
X301274714Y-269338985D01*
X301274714Y-269338985D02*
X301346142Y-269196128D01*
X301346142Y-269196128D02*
X301417571Y-269124700D01*
X301417571Y-269124700D02*
X301560428Y-269053271D01*
X301560428Y-269053271D02*
X301917571Y-269053271D01*
X301917571Y-269053271D02*
X302131857Y-269124700D01*
X302774713Y-270553271D02*
X302774713Y-269053271D01*
X303417571Y-270553271D02*
X303417571Y-269767557D01*
X303417571Y-269767557D02*
X303346142Y-269624700D01*
X303346142Y-269624700D02*
X303203285Y-269553271D01*
X303203285Y-269553271D02*
X302988999Y-269553271D01*
X302988999Y-269553271D02*
X302846142Y-269624700D01*
X302846142Y-269624700D02*
X302774713Y-269696128D01*
X304703285Y-270481842D02*
X304560428Y-270553271D01*
X304560428Y-270553271D02*
X304274714Y-270553271D01*
X304274714Y-270553271D02*
X304131856Y-270481842D01*
X304131856Y-270481842D02*
X304060428Y-270338985D01*
X304060428Y-270338985D02*
X304060428Y-269767557D01*
X304060428Y-269767557D02*
X304131856Y-269624700D01*
X304131856Y-269624700D02*
X304274714Y-269553271D01*
X304274714Y-269553271D02*
X304560428Y-269553271D01*
X304560428Y-269553271D02*
X304703285Y-269624700D01*
X304703285Y-269624700D02*
X304774714Y-269767557D01*
X304774714Y-269767557D02*
X304774714Y-269910414D01*
X304774714Y-269910414D02*
X304060428Y-270053271D01*
X305988999Y-270481842D02*
X305846142Y-270553271D01*
X305846142Y-270553271D02*
X305560428Y-270553271D01*
X305560428Y-270553271D02*
X305417570Y-270481842D01*
X305417570Y-270481842D02*
X305346142Y-270338985D01*
X305346142Y-270338985D02*
X305346142Y-269767557D01*
X305346142Y-269767557D02*
X305417570Y-269624700D01*
X305417570Y-269624700D02*
X305560428Y-269553271D01*
X305560428Y-269553271D02*
X305846142Y-269553271D01*
X305846142Y-269553271D02*
X305988999Y-269624700D01*
X305988999Y-269624700D02*
X306060428Y-269767557D01*
X306060428Y-269767557D02*
X306060428Y-269910414D01*
X306060428Y-269910414D02*
X305346142Y-270053271D01*
X306488999Y-269553271D02*
X307060427Y-269553271D01*
X306703284Y-269053271D02*
X306703284Y-270338985D01*
X306703284Y-270338985D02*
X306774713Y-270481842D01*
X306774713Y-270481842D02*
X306917570Y-270553271D01*
X306917570Y-270553271D02*
X307060427Y-270553271D01*
X307560427Y-270410414D02*
X307631856Y-270481842D01*
X307631856Y-270481842D02*
X307560427Y-270553271D01*
X307560427Y-270553271D02*
X307488999Y-270481842D01*
X307488999Y-270481842D02*
X307560427Y-270410414D01*
X307560427Y-270410414D02*
X307560427Y-270553271D01*
X307560427Y-269624700D02*
X307631856Y-269696128D01*
X307631856Y-269696128D02*
X307560427Y-269767557D01*
X307560427Y-269767557D02*
X307488999Y-269696128D01*
X307488999Y-269696128D02*
X307560427Y-269624700D01*
X307560427Y-269624700D02*
X307560427Y-269767557D01*
D10*
D12*
D10*
D11*
D10*
D11*
D10*
D11*
D10*
D11*
D10*
D11*
X319989000Y-278502200D02*
X319989000Y-281502200D01*
D10*
D11*
X383989000Y-278502200D02*
X383989000Y-285002200D01*
D14*
%TO.C,R1807*%
X229487000Y-180975000D03*
X230507000Y-180975000D03*
%TD*%
D15*
%TO.C,C303*%
X123091000Y-189103000D03*
X124051000Y-189103000D03*
%TD*%
%TO.C,C40*%
X186482000Y-148971000D03*
X187442000Y-148971000D03*
%TD*%
D16*
%TO.C,R2502*%
X277637000Y-189103000D03*
X276617000Y-189103000D03*
%TD*%
D17*
%TO.C,R1004*%
X164542000Y-187833000D03*
X166192000Y-187833000D03*
%TD*%
D14*
%TO.C,R2701*%
X310195000Y-189103000D03*
X311215000Y-189103000D03*
%TD*%
D18*
%TO.C,L1001*%
X171704000Y-183492000D03*
X171704000Y-182522000D03*
%TD*%
D16*
%TO.C,R2705*%
X310263000Y-186436000D03*
X309243000Y-186436000D03*
%TD*%
D19*
%TO.C,U1701*%
X214515000Y-185163500D03*
X215015000Y-185163500D03*
X215515000Y-185163500D03*
X216015000Y-185163500D03*
D20*
X216727500Y-184451000D03*
X216727500Y-183951000D03*
X216727500Y-183451000D03*
X216727500Y-182951000D03*
D19*
X216015000Y-182238500D03*
X215515000Y-182238500D03*
X215015000Y-182238500D03*
X214515000Y-182238500D03*
D20*
X213802500Y-182951000D03*
X213802500Y-183451000D03*
X213802500Y-183951000D03*
X213802500Y-184451000D03*
D21*
X215264999Y-183700999D03*
%TD*%
D22*
%TO.C,C302*%
X120904000Y-207785000D03*
X120904000Y-206235000D03*
%TD*%
D23*
%TO.C,C38*%
X185773000Y-153543000D03*
X184813000Y-153543000D03*
%TD*%
%TO.C,C1705*%
X215745000Y-188087000D03*
X214785000Y-188087000D03*
%TD*%
D24*
%TO.C,C310*%
X123444000Y-185392000D03*
X123444000Y-184432000D03*
%TD*%
D25*
%TO.C,R41*%
X328549000Y-120269000D03*
X328549000Y-119249000D03*
%TD*%
D16*
%TO.C,R1902*%
X246141000Y-189103000D03*
X245121000Y-189103000D03*
%TD*%
D18*
%TO.C,L2001*%
X266191999Y-183492000D03*
X266191999Y-182522000D03*
%TD*%
D22*
%TO.C,C2702*%
X309880000Y-207785000D03*
X309880000Y-206235000D03*
%TD*%
D17*
%TO.C,R904*%
X148794000Y-187833000D03*
X150444000Y-187833000D03*
%TD*%
D24*
%TO.C,C89*%
X320708000Y-139098000D03*
X320708000Y-138138000D03*
%TD*%
D23*
%TO.C,C307*%
X118209000Y-183388000D03*
X117249000Y-183388000D03*
%TD*%
D26*
%TO.C,C128*%
X215839000Y-114554000D03*
X217739000Y-114554000D03*
%TD*%
D16*
%TO.C,R1106*%
X185295000Y-180975000D03*
X184275000Y-180975000D03*
%TD*%
D23*
%TO.C,C905*%
X152753000Y-188087000D03*
X151793000Y-188087000D03*
%TD*%
%TO.C,C1707*%
X212697000Y-183388000D03*
X211737000Y-183388000D03*
%TD*%
D24*
%TO.C,C10*%
X148989000Y-142466000D03*
X148989000Y-141506000D03*
%TD*%
D15*
%TO.C,C46*%
X234615000Y-153162000D03*
X235575000Y-153162000D03*
%TD*%
D16*
%TO.C,R2005*%
X263018999Y-186436000D03*
X261998999Y-186436000D03*
%TD*%
D15*
%TO.C,C2009*%
X258980999Y-184404000D03*
X259940999Y-184404000D03*
%TD*%
D27*
%TO.C,D4*%
X145399999Y-117585999D03*
X146699999Y-117585999D03*
X146049999Y-115585999D03*
%TD*%
D14*
%TO.C,R2501*%
X278699000Y-189103000D03*
X279719000Y-189103000D03*
%TD*%
D23*
%TO.C,C1005*%
X168501000Y-188087000D03*
X167541000Y-188087000D03*
%TD*%
%TO.C,C907*%
X149705000Y-183388000D03*
X148745000Y-183388000D03*
%TD*%
D15*
%TO.C,C41*%
X186482000Y-147955000D03*
X187442000Y-147955000D03*
%TD*%
D28*
%TO.C,C414*%
X133858000Y-185448000D03*
X133858000Y-186408000D03*
%TD*%
D16*
%TO.C,R3*%
X279783000Y-143510000D03*
X278763000Y-143510000D03*
%TD*%
D24*
%TO.C,C906*%
X154940000Y-183487000D03*
X154940000Y-182527000D03*
%TD*%
D16*
%TO.C,R302*%
X120157000Y-189103000D03*
X119137000Y-189103000D03*
%TD*%
D15*
%TO.C,C1104*%
X180254000Y-189103000D03*
X181214000Y-189103000D03*
%TD*%
D26*
%TO.C,C156*%
X106315501Y-147210007D03*
X108215501Y-147210007D03*
%TD*%
D14*
%TO.C,R1801*%
X231455000Y-189103000D03*
X232475000Y-189103000D03*
%TD*%
D29*
%TO.C,R2703*%
X313245000Y-187833000D03*
X311595000Y-187833000D03*
%TD*%
D23*
%TO.C,C1107*%
X181201000Y-183388000D03*
X180241000Y-183388000D03*
%TD*%
D24*
%TO.C,C1010*%
X170688000Y-185392000D03*
X170688000Y-184432000D03*
%TD*%
D30*
%TO.C,K2601*%
X291630000Y-191135000D03*
X291630000Y-196215000D03*
X291630000Y-198755000D03*
X291630000Y-201295000D03*
X291630000Y-203835000D03*
X298920000Y-203835000D03*
X298920000Y-201295000D03*
X298920000Y-198755000D03*
X298920000Y-196215000D03*
X298920000Y-191135000D03*
%TD*%
D31*
%TO.C,L2*%
X217851500Y-112522000D03*
X215726500Y-112522000D03*
%TD*%
D24*
%TO.C,C910*%
X154940000Y-185392000D03*
X154940000Y-184432000D03*
%TD*%
D23*
%TO.C,C43*%
X190998000Y-148971000D03*
X190038000Y-148971000D03*
%TD*%
D22*
%TO.C,C401*%
X139446000Y-207785000D03*
X139446000Y-206235000D03*
%TD*%
D28*
%TO.C,C85*%
X298543000Y-147910000D03*
X298543000Y-148870000D03*
%TD*%
D23*
%TO.C,C1007*%
X165453000Y-183388000D03*
X164493000Y-183388000D03*
%TD*%
D15*
%TO.C,C58*%
X230424000Y-147955000D03*
X231384000Y-147955000D03*
%TD*%
%TO.C,C2803*%
X327815000Y-189103000D03*
X328775000Y-189103000D03*
%TD*%
D30*
%TO.C,K1001*%
X165646000Y-191135000D03*
X165646000Y-196215000D03*
X165646000Y-198755000D03*
X165646000Y-201295000D03*
X165646000Y-203835000D03*
X172936000Y-203835000D03*
X172936000Y-201295000D03*
X172936000Y-198755000D03*
X172936000Y-196215000D03*
X172936000Y-191135000D03*
%TD*%
D16*
%TO.C,R905*%
X152783000Y-186436000D03*
X151763000Y-186436000D03*
%TD*%
D32*
%TO.C,H4*%
X144324000Y-103488000D03*
%TD*%
D33*
%TO.C,R89*%
X104725500Y-145115007D03*
X104725500Y-146765007D03*
%TD*%
D24*
%TO.C,C2810*%
X328168000Y-185392000D03*
X328168000Y-184432000D03*
%TD*%
D14*
%TO.C,R1701*%
X215707000Y-189103000D03*
X216727000Y-189103000D03*
%TD*%
D19*
%TO.C,U1101*%
X183019000Y-185163500D03*
X183519000Y-185163500D03*
X184019000Y-185163500D03*
X184519000Y-185163500D03*
D20*
X185231500Y-184451000D03*
X185231500Y-183951000D03*
X185231500Y-183451000D03*
X185231500Y-182951000D03*
D19*
X184519000Y-182238500D03*
X184019000Y-182238500D03*
X183519000Y-182238500D03*
X183019000Y-182238500D03*
D20*
X182306500Y-182951000D03*
X182306500Y-183451000D03*
X182306500Y-183951000D03*
X182306500Y-184451000D03*
D21*
X183768999Y-183700999D03*
%TD*%
D34*
%TO.C,L402*%
X132992000Y-182372000D03*
X133962000Y-182372000D03*
%TD*%
D16*
%TO.C,R1*%
X191899000Y-143637000D03*
X190879000Y-143637000D03*
%TD*%
D19*
%TO.C,U301*%
X120027000Y-185163500D03*
X120527000Y-185163500D03*
X121027000Y-185163500D03*
X121527000Y-185163500D03*
D20*
X122239500Y-184451000D03*
X122239500Y-183951000D03*
X122239500Y-183451000D03*
X122239500Y-182951000D03*
D19*
X121527000Y-182238500D03*
X121027000Y-182238500D03*
X120527000Y-182238500D03*
X120027000Y-182238500D03*
D20*
X119314500Y-182951000D03*
X119314500Y-183451000D03*
X119314500Y-183951000D03*
X119314500Y-184451000D03*
D21*
X120776999Y-183700999D03*
%TD*%
D30*
%TO.C,K2501*%
X275882000Y-191135000D03*
X275882000Y-196215000D03*
X275882000Y-198755000D03*
X275882000Y-201295000D03*
X275882000Y-203835000D03*
X283172000Y-203835000D03*
X283172000Y-201295000D03*
X283172000Y-198755000D03*
X283172000Y-196215000D03*
X283172000Y-191135000D03*
%TD*%
D35*
%TO.C,U32*%
X142621000Y-115775500D03*
X143571000Y-117650500D03*
X141671000Y-117650500D03*
%TD*%
D19*
%TO.C,U2501*%
X277507000Y-185163500D03*
X278007000Y-185163500D03*
X278507000Y-185163500D03*
X279007000Y-185163500D03*
D20*
X279719500Y-184451000D03*
X279719500Y-183951000D03*
X279719500Y-183451000D03*
X279719500Y-182951000D03*
D19*
X279007000Y-182238500D03*
X278507000Y-182238500D03*
X278007000Y-182238500D03*
X277507000Y-182238500D03*
D20*
X276794500Y-182951000D03*
X276794500Y-183451000D03*
X276794500Y-183951000D03*
X276794500Y-184451000D03*
D21*
X278256999Y-183700999D03*
%TD*%
D16*
%TO.C,R2806*%
X327027000Y-180975000D03*
X326007000Y-180975000D03*
%TD*%
D28*
%TO.C,C5*%
X184549000Y-147348000D03*
X184549000Y-148308000D03*
%TD*%
%TO.C,C119*%
X86614000Y-185448000D03*
X86614000Y-186408000D03*
%TD*%
D34*
%TO.C,L2502*%
X274724000Y-182372000D03*
X275694000Y-182372000D03*
%TD*%
D18*
%TO.C,L103*%
X85598000Y-186413000D03*
X85598000Y-185443000D03*
%TD*%
D19*
%TO.C,U1901*%
X246011000Y-185163500D03*
X246511000Y-185163500D03*
X247011000Y-185163500D03*
X247511000Y-185163500D03*
D20*
X248223500Y-184451000D03*
X248223500Y-183951000D03*
X248223500Y-183451000D03*
X248223500Y-182951000D03*
D19*
X247511000Y-182238500D03*
X247011000Y-182238500D03*
X246511000Y-182238500D03*
X246011000Y-182238500D03*
D20*
X245298500Y-182951000D03*
X245298500Y-183451000D03*
X245298500Y-183951000D03*
X245298500Y-184451000D03*
D21*
X246760999Y-183700999D03*
%TD*%
D14*
%TO.C,R56*%
X180465000Y-120269000D03*
X181485000Y-120269000D03*
%TD*%
D36*
%TO.C,U6*%
X200519500Y-148424000D03*
X200519500Y-147474000D03*
X200519500Y-146524000D03*
X198244500Y-146524000D03*
X198244500Y-147474000D03*
X198244500Y-148424000D03*
%TD*%
D24*
%TO.C,C2510*%
X280924000Y-185392000D03*
X280924000Y-184432000D03*
%TD*%
D28*
%TO.C,C74*%
X202049000Y-146613000D03*
X202049000Y-147573000D03*
%TD*%
D18*
%TO.C,L303*%
X117094000Y-186413000D03*
X117094000Y-185443000D03*
%TD*%
D17*
%TO.C,R1104*%
X180290000Y-187833000D03*
X181940000Y-187833000D03*
%TD*%
D18*
%TO.C,L403*%
X132842000Y-186413000D03*
X132842000Y-185443000D03*
%TD*%
D36*
%TO.C,U9*%
X244461500Y-148424000D03*
X244461500Y-147474000D03*
X244461500Y-146524000D03*
X242186500Y-146524000D03*
X242186500Y-147474000D03*
X242186500Y-148424000D03*
%TD*%
D22*
%TO.C,C101*%
X92202000Y-207785000D03*
X92202000Y-206235000D03*
%TD*%
D33*
%TO.C,R30*%
X314579000Y-131763000D03*
X314579000Y-133413000D03*
%TD*%
D16*
%TO.C,R306*%
X122303000Y-180975000D03*
X121283000Y-180975000D03*
%TD*%
D17*
%TO.C,R1904*%
X243282000Y-187833000D03*
X244932000Y-187833000D03*
%TD*%
D19*
%TO.C,U401*%
X135775000Y-185163500D03*
X136275000Y-185163500D03*
X136775000Y-185163500D03*
X137275000Y-185163500D03*
D20*
X137987500Y-184451000D03*
X137987500Y-183951000D03*
X137987500Y-183451000D03*
X137987500Y-182951000D03*
D19*
X137275000Y-182238500D03*
X136775000Y-182238500D03*
X136275000Y-182238500D03*
X135775000Y-182238500D03*
D20*
X135062500Y-182951000D03*
X135062500Y-183451000D03*
X135062500Y-183951000D03*
X135062500Y-184451000D03*
D21*
X136524999Y-183700999D03*
%TD*%
D24*
%TO.C,C1906*%
X249428000Y-183487000D03*
X249428000Y-182527000D03*
%TD*%
D18*
%TO.C,L101*%
X92964000Y-183492000D03*
X92964000Y-182522000D03*
%TD*%
D28*
%TO.C,C3*%
X148001000Y-147348000D03*
X148001000Y-148308000D03*
%TD*%
D14*
%TO.C,R1901*%
X247203000Y-189103000D03*
X248223000Y-189103000D03*
%TD*%
D33*
%TO.C,R73*%
X136080000Y-113794000D03*
X136080000Y-115444000D03*
%TD*%
D15*
%TO.C,C1804*%
X227498000Y-189103000D03*
X228458000Y-189103000D03*
%TD*%
D17*
%TO.C,R2804*%
X322022000Y-187833000D03*
X323672000Y-187833000D03*
%TD*%
D28*
%TO.C,C23*%
X235885000Y-147348000D03*
X235885000Y-148308000D03*
%TD*%
D23*
%TO.C,C22*%
X147056000Y-148971000D03*
X146096000Y-148971000D03*
%TD*%
D17*
%TO.C,R2504*%
X274778000Y-187833000D03*
X276428000Y-187833000D03*
%TD*%
D24*
%TO.C,C75*%
X196715000Y-147446000D03*
X196715000Y-146486000D03*
%TD*%
D14*
%TO.C,R2001*%
X262950999Y-189103000D03*
X263970999Y-189103000D03*
%TD*%
D23*
%TO.C,C42*%
X191026000Y-147955000D03*
X190066000Y-147955000D03*
%TD*%
D28*
%TO.C,C87*%
X289933000Y-146613000D03*
X289933000Y-147573000D03*
%TD*%
D23*
%TO.C,C39*%
X185773000Y-152527000D03*
X184813000Y-152527000D03*
%TD*%
D15*
%TO.C,C1704*%
X211750000Y-189103000D03*
X212710000Y-189103000D03*
%TD*%
D24*
%TO.C,C59*%
X279799000Y-142466000D03*
X279799000Y-141506000D03*
%TD*%
D16*
%TO.C,R1005*%
X168531000Y-186436000D03*
X167511000Y-186436000D03*
%TD*%
D26*
%TO.C,C166*%
X101019699Y-147210007D03*
X102919699Y-147210007D03*
%TD*%
D22*
%TO.C,C1002*%
X168148000Y-207785000D03*
X168148000Y-206235000D03*
%TD*%
D16*
%TO.C,R1706*%
X216791000Y-180975000D03*
X215771000Y-180975000D03*
%TD*%
D28*
%TO.C,C1014*%
X165354000Y-185448000D03*
X165354000Y-186408000D03*
%TD*%
D24*
%TO.C,C306*%
X123444000Y-183487000D03*
X123444000Y-182527000D03*
%TD*%
%TO.C,C120*%
X226441000Y-120289800D03*
X226441000Y-119329800D03*
%TD*%
D14*
%TO.C,R2601*%
X294447000Y-189103000D03*
X295467000Y-189103000D03*
%TD*%
D19*
%TO.C,U901*%
X151523000Y-185163500D03*
X152023000Y-185163500D03*
X152523000Y-185163500D03*
X153023000Y-185163500D03*
D20*
X153735500Y-184451000D03*
X153735500Y-183951000D03*
X153735500Y-183451000D03*
X153735500Y-182951000D03*
D19*
X153023000Y-182238500D03*
X152523000Y-182238500D03*
X152023000Y-182238500D03*
X151523000Y-182238500D03*
D20*
X150810500Y-182951000D03*
X150810500Y-183451000D03*
X150810500Y-183951000D03*
X150810500Y-184451000D03*
D21*
X152272999Y-183700999D03*
%TD*%
D24*
%TO.C,C308*%
X118110000Y-181328000D03*
X118110000Y-180368000D03*
%TD*%
D28*
%TO.C,C1914*%
X244094000Y-185448000D03*
X244094000Y-186408000D03*
%TD*%
%TO.C,C16*%
X229507000Y-147348000D03*
X229507000Y-148308000D03*
%TD*%
D24*
%TO.C,C206*%
X107696000Y-183487000D03*
X107696000Y-182527000D03*
%TD*%
D14*
%TO.C,R1007*%
X166495000Y-180975000D03*
X167515000Y-180975000D03*
%TD*%
D15*
%TO.C,C19*%
X142540000Y-148971000D03*
X143500000Y-148971000D03*
%TD*%
D37*
%TO.C,L4*%
X136080000Y-116858500D03*
X136080000Y-118983500D03*
%TD*%
D22*
%TO.C,C1202*%
X199644000Y-207785000D03*
X199644000Y-206235000D03*
%TD*%
D28*
%TO.C,C2714*%
X307086000Y-185448000D03*
X307086000Y-186408000D03*
%TD*%
D16*
%TO.C,R1906*%
X248287000Y-180975000D03*
X247267000Y-180975000D03*
%TD*%
D24*
%TO.C,C1110*%
X186436000Y-185392000D03*
X186436000Y-184432000D03*
%TD*%
%TO.C,C1908*%
X244094000Y-181328000D03*
X244094000Y-180368000D03*
%TD*%
D15*
%TO.C,C8*%
X146731000Y-153162000D03*
X147691000Y-153162000D03*
%TD*%
D28*
%TO.C,C1714*%
X212598000Y-185448000D03*
X212598000Y-186408000D03*
%TD*%
D24*
%TO.C,C1710*%
X217932000Y-185392000D03*
X217932000Y-184432000D03*
%TD*%
D22*
%TO.C,C902*%
X152400000Y-207785000D03*
X152400000Y-206235000D03*
%TD*%
D23*
%TO.C,C107*%
X86713000Y-183388000D03*
X85753000Y-183388000D03*
%TD*%
D19*
%TO.C,U201*%
X104279000Y-185163500D03*
X104779000Y-185163500D03*
X105279000Y-185163500D03*
X105779000Y-185163500D03*
D20*
X106491500Y-184451000D03*
X106491500Y-183951000D03*
X106491500Y-183451000D03*
X106491500Y-182951000D03*
D19*
X105779000Y-182238500D03*
X105279000Y-182238500D03*
X104779000Y-182238500D03*
X104279000Y-182238500D03*
D20*
X103566500Y-182951000D03*
X103566500Y-183451000D03*
X103566500Y-183951000D03*
X103566500Y-184451000D03*
D21*
X105028999Y-183700999D03*
%TD*%
D34*
%TO.C,L1802*%
X227480000Y-182372000D03*
X228450000Y-182372000D03*
%TD*%
D28*
%TO.C,C28*%
X273449000Y-147348000D03*
X273449000Y-148308000D03*
%TD*%
D18*
%TO.C,L901*%
X155956000Y-183492000D03*
X155956000Y-182522000D03*
%TD*%
D16*
%TO.C,R206*%
X106555000Y-180975000D03*
X105535000Y-180975000D03*
%TD*%
D17*
%TO.C,R10*%
X151067000Y-114046000D03*
X152717000Y-114046000D03*
%TD*%
D38*
%TO.C,C161*%
X106715600Y-136956801D03*
X104815600Y-136956801D03*
%TD*%
D22*
%TO.C,C2802*%
X325628000Y-207785000D03*
X325628000Y-206235000D03*
%TD*%
%TO.C,C2801*%
X328422000Y-207785000D03*
X328422000Y-206235000D03*
%TD*%
D39*
%TO.C,C150*%
X131127000Y-121538000D03*
X131127000Y-119638000D03*
%TD*%
D15*
%TO.C,C2703*%
X312067000Y-189103000D03*
X313027000Y-189103000D03*
%TD*%
%TO.C,C2804*%
X321986000Y-189103000D03*
X322946000Y-189103000D03*
%TD*%
D28*
%TO.C,C2514*%
X275590000Y-185448000D03*
X275590000Y-186408000D03*
%TD*%
D29*
%TO.C,R2503*%
X281749000Y-187833000D03*
X280099000Y-187833000D03*
%TD*%
D35*
%TO.C,Q1*%
X266766000Y-114348500D03*
X268666000Y-114348500D03*
X267716000Y-112473500D03*
%TD*%
D28*
%TO.C,C15*%
X228491000Y-147348000D03*
X228491000Y-148308000D03*
%TD*%
D40*
%TO.C,C138*%
X139446000Y-115255000D03*
X139446000Y-117155000D03*
%TD*%
D24*
%TO.C,C88*%
X284599000Y-147446000D03*
X284599000Y-146486000D03*
%TD*%
D18*
%TO.C,L1903*%
X243078000Y-186413000D03*
X243078000Y-185443000D03*
%TD*%
D34*
%TO.C,L1902*%
X243228000Y-182372000D03*
X244198000Y-182372000D03*
%TD*%
D23*
%TO.C,C56*%
X229715000Y-152527000D03*
X228755000Y-152527000D03*
%TD*%
D24*
%TO.C,C2606*%
X296672000Y-183487000D03*
X296672000Y-182527000D03*
%TD*%
D17*
%TO.C,R204*%
X101550000Y-187833000D03*
X103200000Y-187833000D03*
%TD*%
D16*
%TO.C,R2505*%
X278767000Y-186436000D03*
X277747000Y-186436000D03*
%TD*%
D41*
%TO.C,P1*%
X148629000Y-104538000D03*
X203010000Y-101488000D03*
D42*
X200585000Y-98313000D03*
X199315000Y-98313000D03*
X198045000Y-98313000D03*
X196775000Y-98313000D03*
X195505000Y-98313000D03*
X194235000Y-98313000D03*
X192965000Y-98313000D03*
X191695000Y-98313000D03*
X190425000Y-98313000D03*
X189155000Y-98313000D03*
X187885000Y-98313000D03*
X186615000Y-98313000D03*
X185345000Y-98313000D03*
X184075000Y-98313000D03*
X182805000Y-98313000D03*
X181535000Y-98313000D03*
X180265000Y-98313000D03*
X178995000Y-98313000D03*
X177725000Y-98313000D03*
X176455000Y-98313000D03*
X175185000Y-98313000D03*
X173915000Y-98313000D03*
X172645000Y-98313000D03*
X171375000Y-98313000D03*
X170105000Y-98313000D03*
X168835000Y-98313000D03*
X167565000Y-98313000D03*
X166295000Y-98313000D03*
X165025000Y-98313000D03*
X163755000Y-98313000D03*
X162485000Y-98313000D03*
X161215000Y-98313000D03*
X159945000Y-98313000D03*
X158675000Y-98313000D03*
X157405000Y-98313000D03*
X156135000Y-98313000D03*
X154865000Y-98313000D03*
X153595000Y-98313000D03*
X152325000Y-98313000D03*
X151055000Y-98313000D03*
X200585000Y-99583000D03*
X199315000Y-99583000D03*
X198045000Y-99583000D03*
X196775000Y-99583000D03*
X195505000Y-99583000D03*
X194235000Y-99583000D03*
X192965000Y-99583000D03*
X191695000Y-99583000D03*
X190425000Y-99583000D03*
X189155000Y-99583000D03*
X187885000Y-99583000D03*
X186615000Y-99583000D03*
X185345000Y-99583000D03*
X184075000Y-99583000D03*
X182805000Y-99583000D03*
X181535000Y-99583000D03*
X180265000Y-99583000D03*
X178995000Y-99583000D03*
X177725000Y-99583000D03*
X176455000Y-99583000D03*
X175185000Y-99583000D03*
X173915000Y-99583000D03*
X172645000Y-99583000D03*
X171375000Y-99583000D03*
X170105000Y-99583000D03*
X168835000Y-99583000D03*
X167565000Y-99583000D03*
X166295000Y-99583000D03*
X165025000Y-99583000D03*
X163755000Y-99583000D03*
X162485000Y-99583000D03*
X161215000Y-99583000D03*
X159945000Y-99583000D03*
X158675000Y-99583000D03*
X157405000Y-99583000D03*
X156135000Y-99583000D03*
X154865000Y-99583000D03*
X153595000Y-99583000D03*
X152325000Y-99583000D03*
X151055000Y-99583000D03*
X200585000Y-103393000D03*
X199315000Y-103393000D03*
X198045000Y-103393000D03*
X196775000Y-103393000D03*
X195505000Y-103393000D03*
X194235000Y-103393000D03*
X192965000Y-103393000D03*
X191695000Y-103393000D03*
X190425000Y-103393000D03*
X189155000Y-103393000D03*
X187885000Y-103393000D03*
X186615000Y-103393000D03*
X185345000Y-103393000D03*
X184075000Y-103393000D03*
X182805000Y-103393000D03*
X181535000Y-103393000D03*
X180265000Y-103393000D03*
X178995000Y-103393000D03*
X177725000Y-103393000D03*
X176455000Y-103393000D03*
X175185000Y-103393000D03*
X173915000Y-103393000D03*
X172645000Y-103393000D03*
X171375000Y-103393000D03*
X170105000Y-103393000D03*
X168835000Y-103393000D03*
X167565000Y-103393000D03*
X166295000Y-103393000D03*
X165025000Y-103393000D03*
X163755000Y-103393000D03*
X162485000Y-103393000D03*
X161215000Y-103393000D03*
X159945000Y-103393000D03*
X158675000Y-103393000D03*
X157405000Y-103393000D03*
X156135000Y-103393000D03*
X154865000Y-103393000D03*
X153595000Y-103393000D03*
X152325000Y-103393000D03*
X151055000Y-103393000D03*
X200585000Y-104663000D03*
X199315000Y-104663000D03*
X198045000Y-104663000D03*
X196775000Y-104663000D03*
X195505000Y-104663000D03*
X194235000Y-104663000D03*
X192965000Y-104663000D03*
X191695000Y-104663000D03*
X190425000Y-104663000D03*
X189155000Y-104663000D03*
X187885000Y-104663000D03*
X186615000Y-104663000D03*
X185345000Y-104663000D03*
X184075000Y-104663000D03*
X182805000Y-104663000D03*
X181535000Y-104663000D03*
X180265000Y-104663000D03*
X178995000Y-104663000D03*
X177725000Y-104663000D03*
X176455000Y-104663000D03*
X175185000Y-104663000D03*
X173915000Y-104663000D03*
X172645000Y-104663000D03*
X171375000Y-104663000D03*
X170105000Y-104663000D03*
X168835000Y-104663000D03*
X167565000Y-104663000D03*
X166295000Y-104663000D03*
X165025000Y-104663000D03*
X163755000Y-104663000D03*
X162485000Y-104663000D03*
X161215000Y-104663000D03*
X159945000Y-104663000D03*
X158675000Y-104663000D03*
X157405000Y-104663000D03*
X156135000Y-104663000D03*
X154865000Y-104663000D03*
X153595000Y-104663000D03*
X152325000Y-104663000D03*
X151055000Y-104663000D03*
%TD*%
D18*
%TO.C,L2503*%
X274574000Y-186413000D03*
X274574000Y-185443000D03*
%TD*%
D24*
%TO.C,C47*%
X235857000Y-142466000D03*
X235857000Y-141506000D03*
%TD*%
D14*
%TO.C,R1907*%
X245235000Y-180975000D03*
X246255000Y-180975000D03*
%TD*%
D23*
%TO.C,C2705*%
X310233000Y-188087000D03*
X309273000Y-188087000D03*
%TD*%
D19*
%TO.C,U2601*%
X293255000Y-185163500D03*
X293755000Y-185163500D03*
X294255000Y-185163500D03*
X294755000Y-185163500D03*
D20*
X295467500Y-184451000D03*
X295467500Y-183951000D03*
X295467500Y-183451000D03*
X295467500Y-182951000D03*
D19*
X294755000Y-182238500D03*
X294255000Y-182238500D03*
X293755000Y-182238500D03*
X293255000Y-182238500D03*
D20*
X292542500Y-182951000D03*
X292542500Y-183451000D03*
X292542500Y-183951000D03*
X292542500Y-184451000D03*
D21*
X294004999Y-183700999D03*
%TD*%
D16*
%TO.C,R1002*%
X167401000Y-189103000D03*
X166381000Y-189103000D03*
%TD*%
D14*
%TO.C,R301*%
X121219000Y-189103000D03*
X122239000Y-189103000D03*
%TD*%
D28*
%TO.C,C34*%
X279827000Y-147348000D03*
X279827000Y-148308000D03*
%TD*%
D22*
%TO.C,C2502*%
X278384000Y-207785000D03*
X278384000Y-206235000D03*
%TD*%
D33*
%TO.C,R16*%
X316103000Y-136462000D03*
X316103000Y-138112000D03*
%TD*%
D24*
%TO.C,C100*%
X226413600Y-117749800D03*
X226413600Y-116789800D03*
%TD*%
D23*
%TO.C,C207*%
X102461000Y-183388000D03*
X101501000Y-183388000D03*
%TD*%
D15*
%TO.C,C53*%
X278557000Y-154178000D03*
X279517000Y-154178000D03*
%TD*%
D16*
%TO.C,R1905*%
X247271000Y-186436000D03*
X246251000Y-186436000D03*
%TD*%
D15*
%TO.C,C1809*%
X227485000Y-184404000D03*
X228445000Y-184404000D03*
%TD*%
D24*
%TO.C,C1706*%
X217932000Y-183487000D03*
X217932000Y-182527000D03*
%TD*%
D15*
%TO.C,C109*%
X85753000Y-184404000D03*
X86713000Y-184404000D03*
%TD*%
%TO.C,C904*%
X148758000Y-189103000D03*
X149718000Y-189103000D03*
%TD*%
D14*
%TO.C,R107*%
X87755000Y-180975000D03*
X88775000Y-180975000D03*
%TD*%
D15*
%TO.C,C54*%
X278557000Y-153162000D03*
X279517000Y-153162000D03*
%TD*%
D26*
%TO.C,C170*%
X101310400Y-136956801D03*
X103210400Y-136956801D03*
%TD*%
D15*
%TO.C,C1803*%
X233327000Y-189103000D03*
X234287000Y-189103000D03*
%TD*%
D16*
%TO.C,R2805*%
X326011000Y-186436000D03*
X324991000Y-186436000D03*
%TD*%
D23*
%TO.C,C1905*%
X247241000Y-188087000D03*
X246281000Y-188087000D03*
%TD*%
D18*
%TO.C,L1103*%
X180086000Y-186413000D03*
X180086000Y-185443000D03*
%TD*%
D30*
%TO.C,K1801*%
X228638000Y-191135000D03*
X228638000Y-196215000D03*
X228638000Y-198755000D03*
X228638000Y-201295000D03*
X228638000Y-203835000D03*
X235928000Y-203835000D03*
X235928000Y-201295000D03*
X235928000Y-198755000D03*
X235928000Y-196215000D03*
X235928000Y-191135000D03*
%TD*%
D17*
%TO.C,R77*%
X136334000Y-125668000D03*
X137984000Y-125668000D03*
%TD*%
D24*
%TO.C,C92*%
X223746600Y-115209800D03*
X223746600Y-114249800D03*
%TD*%
D22*
%TO.C,C1801*%
X233934000Y-207785000D03*
X233934000Y-206235000D03*
%TD*%
D29*
%TO.C,R2603*%
X297497000Y-187833000D03*
X295847000Y-187833000D03*
%TD*%
D16*
%TO.C,R1105*%
X184279000Y-186436000D03*
X183259000Y-186436000D03*
%TD*%
D28*
%TO.C,C26*%
X236901000Y-147348000D03*
X236901000Y-148308000D03*
%TD*%
D22*
%TO.C,C2501*%
X281178000Y-207785000D03*
X281178000Y-206235000D03*
%TD*%
D23*
%TO.C,C1807*%
X228445000Y-183388000D03*
X227485000Y-183388000D03*
%TD*%
D16*
%TO.C,R902*%
X151653000Y-189103000D03*
X150633000Y-189103000D03*
%TD*%
D24*
%TO.C,C91*%
X224762600Y-115209800D03*
X224762600Y-114249800D03*
%TD*%
D19*
%TO.C,U1201*%
X198767000Y-185163500D03*
X199267000Y-185163500D03*
X199767000Y-185163500D03*
X200267000Y-185163500D03*
D20*
X200979500Y-184451000D03*
X200979500Y-183951000D03*
X200979500Y-183451000D03*
X200979500Y-182951000D03*
D19*
X200267000Y-182238500D03*
X199767000Y-182238500D03*
X199267000Y-182238500D03*
X198767000Y-182238500D03*
D20*
X198054500Y-182951000D03*
X198054500Y-183451000D03*
X198054500Y-183951000D03*
X198054500Y-184451000D03*
D21*
X199516999Y-183700999D03*
%TD*%
D34*
%TO.C,L302*%
X117244000Y-182372000D03*
X118214000Y-182372000D03*
%TD*%
D24*
%TO.C,C2610*%
X296672000Y-185392000D03*
X296672000Y-184432000D03*
%TD*%
D18*
%TO.C,L2601*%
X297688000Y-183492000D03*
X297688000Y-182522000D03*
%TD*%
D29*
%TO.C,R1703*%
X218757000Y-187833000D03*
X217107000Y-187833000D03*
%TD*%
D15*
%TO.C,C24*%
X190673000Y-154178000D03*
X191633000Y-154178000D03*
%TD*%
D32*
%TO.C,H5*%
X207324000Y-103488000D03*
%TD*%
D24*
%TO.C,C106*%
X91948000Y-183487000D03*
X91948000Y-182527000D03*
%TD*%
D14*
%TO.C,R1107*%
X182243000Y-180975000D03*
X183263000Y-180975000D03*
%TD*%
D43*
%TO.C,U2*%
X164900000Y-149125000D03*
X164900000Y-147855000D03*
X164900000Y-146585000D03*
X164900000Y-145315000D03*
X159950000Y-145315000D03*
X159950000Y-146585000D03*
X159950000Y-147855000D03*
X159950000Y-149125000D03*
%TD*%
D23*
%TO.C,C1205*%
X199997000Y-188087000D03*
X199037000Y-188087000D03*
%TD*%
D28*
%TO.C,C76*%
X245991000Y-146613000D03*
X245991000Y-147573000D03*
%TD*%
D23*
%TO.C,C80*%
X278882000Y-148971000D03*
X277922000Y-148971000D03*
%TD*%
D15*
%TO.C,C2609*%
X290477000Y-184404000D03*
X291437000Y-184404000D03*
%TD*%
D19*
%TO.C,U1801*%
X230263000Y-185163500D03*
X230763000Y-185163500D03*
X231263000Y-185163500D03*
X231763000Y-185163500D03*
D20*
X232475500Y-184451000D03*
X232475500Y-183951000D03*
X232475500Y-183451000D03*
X232475500Y-182951000D03*
D19*
X231763000Y-182238500D03*
X231263000Y-182238500D03*
X230763000Y-182238500D03*
X230263000Y-182238500D03*
D20*
X229550500Y-182951000D03*
X229550500Y-183451000D03*
X229550500Y-183951000D03*
X229550500Y-184451000D03*
D21*
X231012999Y-183700999D03*
%TD*%
D16*
%TO.C,R205*%
X105539000Y-186436000D03*
X104519000Y-186436000D03*
%TD*%
D15*
%TO.C,C1103*%
X186083000Y-189103000D03*
X187043000Y-189103000D03*
%TD*%
D16*
%TO.C,R406*%
X138051000Y-180975000D03*
X137031000Y-180975000D03*
%TD*%
D18*
%TO.C,L401*%
X140208000Y-183492000D03*
X140208000Y-182522000D03*
%TD*%
D16*
%TO.C,R2605*%
X294515000Y-186436000D03*
X293495000Y-186436000D03*
%TD*%
%TO.C,R1205*%
X200027000Y-186436000D03*
X199007000Y-186436000D03*
%TD*%
D15*
%TO.C,C2003*%
X264822999Y-189103000D03*
X265782999Y-189103000D03*
%TD*%
D28*
%TO.C,C2014*%
X259841999Y-185448000D03*
X259841999Y-186408000D03*
%TD*%
D15*
%TO.C,C1204*%
X196002000Y-189103000D03*
X196962000Y-189103000D03*
%TD*%
%TO.C,C903*%
X154587000Y-189103000D03*
X155547000Y-189103000D03*
%TD*%
%TO.C,C1003*%
X170335000Y-189103000D03*
X171295000Y-189103000D03*
%TD*%
D18*
%TO.C,L1203*%
X195834000Y-186413000D03*
X195834000Y-185443000D03*
%TD*%
D28*
%TO.C,C6*%
X185565000Y-147348000D03*
X185565000Y-148308000D03*
%TD*%
D34*
%TO.C,L2002*%
X258975999Y-182372000D03*
X259945999Y-182372000D03*
%TD*%
D25*
%TO.C,R42*%
X327406000Y-120271000D03*
X327406000Y-119251000D03*
%TD*%
D24*
%TO.C,C60*%
X280815000Y-142466000D03*
X280815000Y-141506000D03*
%TD*%
%TO.C,C908*%
X149606000Y-181328000D03*
X149606000Y-180368000D03*
%TD*%
D22*
%TO.C,C2701*%
X312674000Y-207785000D03*
X312674000Y-206235000D03*
%TD*%
D29*
%TO.C,R118*%
X143573000Y-121539000D03*
X141923000Y-121539000D03*
%TD*%
D24*
%TO.C,C1206*%
X202184000Y-183487000D03*
X202184000Y-182527000D03*
%TD*%
D35*
%TO.C,Q2*%
X263083000Y-114348500D03*
X264983000Y-114348500D03*
X264033000Y-112473500D03*
%TD*%
D16*
%TO.C,R1806*%
X232539000Y-180975000D03*
X231519000Y-180975000D03*
%TD*%
D14*
%TO.C,R2507*%
X276731000Y-180975000D03*
X277751000Y-180975000D03*
%TD*%
D24*
%TO.C,C2008*%
X259841999Y-181328000D03*
X259841999Y-180368000D03*
%TD*%
D23*
%TO.C,C105*%
X89761000Y-188087000D03*
X88801000Y-188087000D03*
%TD*%
D18*
%TO.C,L1703*%
X211582000Y-186413000D03*
X211582000Y-185443000D03*
%TD*%
D22*
%TO.C,C201*%
X107950000Y-207785000D03*
X107950000Y-206235000D03*
%TD*%
D30*
%TO.C,K201*%
X102654000Y-191135000D03*
X102654000Y-196215000D03*
X102654000Y-198755000D03*
X102654000Y-201295000D03*
X102654000Y-203835000D03*
X109944000Y-203835000D03*
X109944000Y-201295000D03*
X109944000Y-198755000D03*
X109944000Y-196215000D03*
X109944000Y-191135000D03*
%TD*%
D16*
%TO.C,R106*%
X90807000Y-180975000D03*
X89787000Y-180975000D03*
%TD*%
D22*
%TO.C,C1701*%
X218186000Y-207785000D03*
X218186000Y-206235000D03*
%TD*%
D16*
%TO.C,R2606*%
X295531000Y-180975000D03*
X294511000Y-180975000D03*
%TD*%
D28*
%TO.C,C49*%
X210659000Y-147910000D03*
X210659000Y-148870000D03*
%TD*%
D30*
%TO.C,K2001*%
X260133999Y-191135000D03*
X260133999Y-196215000D03*
X260133999Y-198755000D03*
X260133999Y-201295000D03*
X260133999Y-203835000D03*
X267423999Y-203835000D03*
X267423999Y-201295000D03*
X267423999Y-198755000D03*
X267423999Y-196215000D03*
X267423999Y-191135000D03*
%TD*%
D17*
%TO.C,R22*%
X216218000Y-110744000D03*
X217868000Y-110744000D03*
%TD*%
D16*
%TO.C,R202*%
X104409000Y-189103000D03*
X103389000Y-189103000D03*
%TD*%
D23*
%TO.C,C1207*%
X196949000Y-183388000D03*
X195989000Y-183388000D03*
%TD*%
%TO.C,C2007*%
X259940999Y-183388000D03*
X258980999Y-183388000D03*
%TD*%
D15*
%TO.C,C203*%
X107343000Y-189103000D03*
X108303000Y-189103000D03*
%TD*%
%TO.C,C1203*%
X201831000Y-189103000D03*
X202791000Y-189103000D03*
%TD*%
D18*
%TO.C,L301*%
X124460000Y-183492000D03*
X124460000Y-182522000D03*
%TD*%
D24*
%TO.C,C2806*%
X328168000Y-183487000D03*
X328168000Y-182527000D03*
%TD*%
D16*
%TO.C,R305*%
X121287000Y-186436000D03*
X120267000Y-186436000D03*
%TD*%
D22*
%TO.C,C301*%
X123698000Y-207785000D03*
X123698000Y-206235000D03*
%TD*%
D23*
%TO.C,C63*%
X234968000Y-147955000D03*
X234008000Y-147955000D03*
%TD*%
D24*
%TO.C,C1210*%
X202184000Y-185392000D03*
X202184000Y-184432000D03*
%TD*%
D34*
%TO.C,L102*%
X85748000Y-182372000D03*
X86718000Y-182372000D03*
%TD*%
D18*
%TO.C,L2603*%
X290322000Y-186413000D03*
X290322000Y-185443000D03*
%TD*%
D44*
%TO.C,C165*%
X107848000Y-127259001D03*
X106298000Y-127259001D03*
%TD*%
D30*
%TO.C,K2701*%
X307378000Y-191135000D03*
X307378000Y-196215000D03*
X307378000Y-198755000D03*
X307378000Y-201295000D03*
X307378000Y-203835000D03*
X314668000Y-203835000D03*
X314668000Y-201295000D03*
X314668000Y-198755000D03*
X314668000Y-196215000D03*
X314668000Y-191135000D03*
%TD*%
D17*
%TO.C,R304*%
X117298000Y-187833000D03*
X118948000Y-187833000D03*
%TD*%
D23*
%TO.C,C17*%
X141831000Y-153543000D03*
X140871000Y-153543000D03*
%TD*%
D29*
%TO.C,R1903*%
X250253000Y-187833000D03*
X248603000Y-187833000D03*
%TD*%
D16*
%TO.C,R1102*%
X183149000Y-189103000D03*
X182129000Y-189103000D03*
%TD*%
D30*
%TO.C,K1701*%
X212890000Y-191135000D03*
X212890000Y-196215000D03*
X212890000Y-198755000D03*
X212890000Y-201295000D03*
X212890000Y-203835000D03*
X220180000Y-203835000D03*
X220180000Y-201295000D03*
X220180000Y-198755000D03*
X220180000Y-196215000D03*
X220180000Y-191135000D03*
%TD*%
D45*
%TO.C,U16*%
X224488600Y-116602300D03*
X223988600Y-116602300D03*
X223488600Y-116602300D03*
X222988600Y-116602300D03*
X222488600Y-116602300D03*
X221988600Y-116602300D03*
D46*
X221301100Y-117289800D03*
X221301100Y-117789800D03*
X221301100Y-118289800D03*
X221301100Y-118789800D03*
X221301100Y-119289800D03*
X221301100Y-119789800D03*
D45*
X221988600Y-120477300D03*
X222488600Y-120477300D03*
X222988600Y-120477300D03*
X223488600Y-120477300D03*
X223988600Y-120477300D03*
X224488600Y-120477300D03*
D46*
X225176100Y-119789800D03*
X225176100Y-119289800D03*
X225176100Y-118789800D03*
X225176100Y-118289800D03*
X225176100Y-117789800D03*
X225176100Y-117289800D03*
D47*
X223238599Y-118539799D03*
%TD*%
D23*
%TO.C,C1805*%
X231493000Y-188087000D03*
X230533000Y-188087000D03*
%TD*%
D22*
%TO.C,C1702*%
X215392000Y-207785000D03*
X215392000Y-206235000D03*
%TD*%
D28*
%TO.C,C81*%
X158107000Y-146613000D03*
X158107000Y-147573000D03*
%TD*%
D33*
%TO.C,R119*%
X140462000Y-121349000D03*
X140462000Y-122999000D03*
%TD*%
D24*
%TO.C,C406*%
X139192000Y-183487000D03*
X139192000Y-182527000D03*
%TD*%
%TO.C,C1910*%
X249428000Y-185392000D03*
X249428000Y-184432000D03*
%TD*%
D15*
%TO.C,C1004*%
X164506000Y-189103000D03*
X165466000Y-189103000D03*
%TD*%
D33*
%TO.C,R111*%
X102985700Y-143845007D03*
X102985700Y-145495007D03*
%TD*%
D16*
%TO.C,R2*%
X235714000Y-143510000D03*
X234694000Y-143510000D03*
%TD*%
%TO.C,R1206*%
X201043000Y-180975000D03*
X200023000Y-180975000D03*
%TD*%
D23*
%TO.C,C2507*%
X275689000Y-183388000D03*
X274729000Y-183388000D03*
%TD*%
D15*
%TO.C,C2809*%
X321973000Y-184404000D03*
X322933000Y-184404000D03*
%TD*%
D28*
%TO.C,C35*%
X280843000Y-147348000D03*
X280843000Y-148308000D03*
%TD*%
%TO.C,C1214*%
X196850000Y-185448000D03*
X196850000Y-186408000D03*
%TD*%
D17*
%TO.C,R2704*%
X306274000Y-187833000D03*
X307924000Y-187833000D03*
%TD*%
D30*
%TO.C,K1901*%
X244386000Y-191135000D03*
X244386000Y-196215000D03*
X244386000Y-198755000D03*
X244386000Y-201295000D03*
X244386000Y-203835000D03*
X251676000Y-203835000D03*
X251676000Y-201295000D03*
X251676000Y-198755000D03*
X251676000Y-196215000D03*
X251676000Y-191135000D03*
%TD*%
D24*
%TO.C,C1008*%
X165354000Y-181328000D03*
X165354000Y-180368000D03*
%TD*%
D15*
%TO.C,C37*%
X154325000Y-149760000D03*
X155285000Y-149760000D03*
%TD*%
D18*
%TO.C,L903*%
X148590000Y-186413000D03*
X148590000Y-185443000D03*
%TD*%
D33*
%TO.C,R29*%
X316103000Y-130366000D03*
X316103000Y-132016000D03*
%TD*%
D24*
%TO.C,C2708*%
X307086000Y-181328000D03*
X307086000Y-180368000D03*
%TD*%
D15*
%TO.C,C403*%
X138839000Y-189103000D03*
X139799000Y-189103000D03*
%TD*%
D30*
%TO.C,K101*%
X86906000Y-191135000D03*
X86906000Y-196215000D03*
X86906000Y-198755000D03*
X86906000Y-201295000D03*
X86906000Y-203835000D03*
X94196000Y-203835000D03*
X94196000Y-201295000D03*
X94196000Y-198755000D03*
X94196000Y-196215000D03*
X94196000Y-191135000D03*
%TD*%
D29*
%TO.C,R88*%
X111136000Y-125735001D03*
X109486000Y-125735001D03*
%TD*%
D15*
%TO.C,C1009*%
X164493000Y-184404000D03*
X165453000Y-184404000D03*
%TD*%
D22*
%TO.C,C1802*%
X231140000Y-207785000D03*
X231140000Y-206235000D03*
%TD*%
D34*
%TO.C,L202*%
X101496000Y-182372000D03*
X102466000Y-182372000D03*
%TD*%
D19*
%TO.C,U2801*%
X324751000Y-185163500D03*
X325251000Y-185163500D03*
X325751000Y-185163500D03*
X326251000Y-185163500D03*
D20*
X326963500Y-184451000D03*
X326963500Y-183951000D03*
X326963500Y-183451000D03*
X326963500Y-182951000D03*
D19*
X326251000Y-182238500D03*
X325751000Y-182238500D03*
X325251000Y-182238500D03*
X324751000Y-182238500D03*
D20*
X324038500Y-182951000D03*
X324038500Y-183451000D03*
X324038500Y-183951000D03*
X324038500Y-184451000D03*
D21*
X325500999Y-183700999D03*
%TD*%
D29*
%TO.C,R103*%
X92773000Y-187833000D03*
X91123000Y-187833000D03*
%TD*%
D15*
%TO.C,C909*%
X148745000Y-184404000D03*
X149705000Y-184404000D03*
%TD*%
D17*
%TO.C,R52*%
X199327000Y-110617000D03*
X200977000Y-110617000D03*
%TD*%
D23*
%TO.C,C18*%
X141831000Y-152527000D03*
X140871000Y-152527000D03*
%TD*%
D48*
%TO.C,R62*%
X142748000Y-110932500D03*
X142748000Y-113857500D03*
%TD*%
D40*
%TO.C,C162*%
X97905700Y-140300901D03*
X97905700Y-142200901D03*
%TD*%
D49*
%TO.C,U33*%
X136292999Y-122204999D03*
X135642999Y-122204999D03*
X134992999Y-122204999D03*
X134342999Y-122204999D03*
X134342999Y-124304999D03*
X134992999Y-124304999D03*
X135642999Y-124304999D03*
X136292999Y-124304999D03*
D50*
X136068000Y-123255000D03*
X135318000Y-123255000D03*
D51*
X135317999Y-123254999D03*
D50*
X134568000Y-123255000D03*
%TD*%
D18*
%TO.C,L2703*%
X306070000Y-186413000D03*
X306070000Y-185443000D03*
%TD*%
D23*
%TO.C,C71*%
X273657000Y-153543000D03*
X272697000Y-153543000D03*
%TD*%
D15*
%TO.C,C78*%
X274366000Y-147955000D03*
X275326000Y-147955000D03*
%TD*%
D18*
%TO.C,L2803*%
X321818000Y-186413000D03*
X321818000Y-185443000D03*
%TD*%
D15*
%TO.C,C2509*%
X274729000Y-184404000D03*
X275689000Y-184404000D03*
%TD*%
D16*
%TO.C,R1802*%
X230393000Y-189103000D03*
X229373000Y-189103000D03*
%TD*%
D33*
%TO.C,R28*%
X314579000Y-128715000D03*
X314579000Y-130365000D03*
%TD*%
D52*
%TO.C,U26*%
X284538500Y-118248000D03*
X284538500Y-118898000D03*
X284538500Y-119548000D03*
X284538500Y-120198000D03*
X284538500Y-120848000D03*
X284538500Y-121498000D03*
X284538500Y-122148000D03*
X284538500Y-122798000D03*
X290263500Y-122798000D03*
X290263500Y-122148000D03*
X290263500Y-121498000D03*
X290263500Y-120848000D03*
X290263500Y-120198000D03*
X290263500Y-119548000D03*
X290263500Y-118898000D03*
X290263500Y-118248000D03*
%TD*%
D14*
%TO.C,R57*%
X180465000Y-121539000D03*
X181485000Y-121539000D03*
%TD*%
D15*
%TO.C,C2604*%
X290490000Y-189103000D03*
X291450000Y-189103000D03*
%TD*%
D16*
%TO.C,R2602*%
X293385000Y-189103000D03*
X292365000Y-189103000D03*
%TD*%
D28*
%TO.C,C67*%
X254601000Y-147910000D03*
X254601000Y-148870000D03*
%TD*%
D23*
%TO.C,C2605*%
X294485000Y-188087000D03*
X293525000Y-188087000D03*
%TD*%
D22*
%TO.C,C1901*%
X249682000Y-207785000D03*
X249682000Y-206235000D03*
%TD*%
D14*
%TO.C,R2607*%
X292479000Y-180975000D03*
X293499000Y-180975000D03*
%TD*%
D53*
%TO.C,U34*%
X106717501Y-139107406D03*
X106217502Y-139107406D03*
X105717501Y-139107406D03*
X105217502Y-139107406D03*
X104717500Y-139107406D03*
X104217501Y-139107406D03*
X103717502Y-139107406D03*
X103217500Y-139107406D03*
X102717501Y-139107406D03*
X102217500Y-139107406D03*
X101717501Y-139107406D03*
X101717501Y-142104606D03*
X102217500Y-142104606D03*
X102717501Y-142104606D03*
X103217500Y-142104606D03*
X103717502Y-142104606D03*
X104217501Y-142104606D03*
X104717500Y-142104606D03*
X105217502Y-142104606D03*
X105717501Y-142104606D03*
X106217502Y-142104606D03*
X106717501Y-142104606D03*
D54*
X105687501Y-140606006D03*
X102747501Y-140606006D03*
%TD*%
D29*
%TO.C,R1003*%
X171513000Y-187833000D03*
X169863000Y-187833000D03*
%TD*%
D28*
%TO.C,C61*%
X166717000Y-147910000D03*
X166717000Y-148870000D03*
%TD*%
D23*
%TO.C,C405*%
X137005000Y-188087000D03*
X136045000Y-188087000D03*
%TD*%
D29*
%TO.C,R1803*%
X234505000Y-187833000D03*
X232855000Y-187833000D03*
%TD*%
D24*
%TO.C,C9*%
X147973000Y-142466000D03*
X147973000Y-141506000D03*
%TD*%
D18*
%TO.C,L2801*%
X329184000Y-183492000D03*
X329184000Y-182522000D03*
%TD*%
D22*
%TO.C,C2601*%
X296926000Y-207785000D03*
X296926000Y-206235000D03*
%TD*%
D30*
%TO.C,K901*%
X149898000Y-191135000D03*
X149898000Y-196215000D03*
X149898000Y-198755000D03*
X149898000Y-201295000D03*
X149898000Y-203835000D03*
X157188000Y-203835000D03*
X157188000Y-201295000D03*
X157188000Y-198755000D03*
X157188000Y-196215000D03*
X157188000Y-191135000D03*
%TD*%
D29*
%TO.C,R1103*%
X187261000Y-187833000D03*
X185611000Y-187833000D03*
%TD*%
D23*
%TO.C,C305*%
X121257000Y-188087000D03*
X120297000Y-188087000D03*
%TD*%
D14*
%TO.C,R407*%
X134999000Y-180975000D03*
X136019000Y-180975000D03*
%TD*%
D24*
%TO.C,C30*%
X192931000Y-142466000D03*
X192931000Y-141506000D03*
%TD*%
D22*
%TO.C,C102*%
X89408000Y-207785000D03*
X89408000Y-206235000D03*
%TD*%
D34*
%TO.C,L902*%
X148740000Y-182372000D03*
X149710000Y-182372000D03*
%TD*%
D15*
%TO.C,C25*%
X190673000Y-153162000D03*
X191633000Y-153162000D03*
%TD*%
D29*
%TO.C,R1203*%
X203009000Y-187833000D03*
X201359000Y-187833000D03*
%TD*%
D22*
%TO.C,C1902*%
X246888000Y-207785000D03*
X246888000Y-206235000D03*
%TD*%
D16*
%TO.C,R1006*%
X169547000Y-180975000D03*
X168527000Y-180975000D03*
%TD*%
D14*
%TO.C,R907*%
X150747000Y-180975000D03*
X151767000Y-180975000D03*
%TD*%
D16*
%TO.C,R1202*%
X198897000Y-189103000D03*
X197877000Y-189103000D03*
%TD*%
D14*
%TO.C,R101*%
X89723000Y-189103000D03*
X90743000Y-189103000D03*
%TD*%
D17*
%TO.C,R33*%
X328740000Y-123444000D03*
X330390000Y-123444000D03*
%TD*%
D24*
%TO.C,C1106*%
X186436000Y-183487000D03*
X186436000Y-182527000D03*
%TD*%
D29*
%TO.C,R74*%
X132714000Y-123255000D03*
X131064000Y-123255000D03*
%TD*%
D16*
%TO.C,R2506*%
X279783000Y-180975000D03*
X278763000Y-180975000D03*
%TD*%
D17*
%TO.C,R75*%
X133223000Y-125668000D03*
X134873000Y-125668000D03*
%TD*%
D14*
%TO.C,R201*%
X105471000Y-189103000D03*
X106491000Y-189103000D03*
%TD*%
D25*
%TO.C,R39*%
X331216000Y-120271000D03*
X331216000Y-119251000D03*
%TD*%
D23*
%TO.C,C79*%
X278910000Y-147955000D03*
X277950000Y-147955000D03*
%TD*%
D28*
%TO.C,C1114*%
X181102000Y-185448000D03*
X181102000Y-186408000D03*
%TD*%
D16*
%TO.C,R2006*%
X264034999Y-180975000D03*
X263014999Y-180975000D03*
%TD*%
D15*
%TO.C,C2504*%
X274742000Y-189103000D03*
X275702000Y-189103000D03*
%TD*%
D18*
%TO.C,L2003*%
X258825999Y-186413000D03*
X258825999Y-185443000D03*
%TD*%
D24*
%TO.C,C2710*%
X312420000Y-185392000D03*
X312420000Y-184432000D03*
%TD*%
D22*
%TO.C,C1102*%
X183896000Y-207785000D03*
X183896000Y-206235000D03*
%TD*%
D23*
%TO.C,C2805*%
X325981000Y-188087000D03*
X325021000Y-188087000D03*
%TD*%
D17*
%TO.C,R5*%
X151067000Y-110744000D03*
X152717000Y-110744000D03*
%TD*%
D14*
%TO.C,R1101*%
X184211000Y-189103000D03*
X185231000Y-189103000D03*
%TD*%
D18*
%TO.C,L1101*%
X187452000Y-183492000D03*
X187452000Y-182522000D03*
%TD*%
D16*
%TO.C,R1805*%
X231523000Y-186436000D03*
X230503000Y-186436000D03*
%TD*%
D18*
%TO.C,L1901*%
X250444000Y-183492000D03*
X250444000Y-182522000D03*
%TD*%
D16*
%TO.C,R405*%
X137035000Y-186436000D03*
X136015000Y-186436000D03*
%TD*%
D28*
%TO.C,C1814*%
X228346000Y-185448000D03*
X228346000Y-186408000D03*
%TD*%
D24*
%TO.C,C1806*%
X233680000Y-183487000D03*
X233680000Y-182527000D03*
%TD*%
D15*
%TO.C,C409*%
X132997000Y-184404000D03*
X133957000Y-184404000D03*
%TD*%
D24*
%TO.C,C210*%
X107696000Y-185392000D03*
X107696000Y-184432000D03*
%TD*%
%TO.C,C2608*%
X291338000Y-181328000D03*
X291338000Y-180368000D03*
%TD*%
D23*
%TO.C,C72*%
X273657000Y-152527000D03*
X272697000Y-152527000D03*
%TD*%
D24*
%TO.C,C110*%
X91948000Y-185392000D03*
X91948000Y-184432000D03*
%TD*%
D19*
%TO.C,U2701*%
X309003000Y-185163500D03*
X309503000Y-185163500D03*
X310003000Y-185163500D03*
X310503000Y-185163500D03*
D20*
X311215500Y-184451000D03*
X311215500Y-183951000D03*
X311215500Y-183451000D03*
X311215500Y-182951000D03*
D19*
X310503000Y-182238500D03*
X310003000Y-182238500D03*
X309503000Y-182238500D03*
X309003000Y-182238500D03*
D20*
X308290500Y-182951000D03*
X308290500Y-183451000D03*
X308290500Y-183951000D03*
X308290500Y-184451000D03*
D21*
X309752999Y-183700999D03*
%TD*%
D24*
%TO.C,C1808*%
X228346000Y-181328000D03*
X228346000Y-180368000D03*
%TD*%
D23*
%TO.C,C2707*%
X307185000Y-183388000D03*
X306225000Y-183388000D03*
%TD*%
D36*
%TO.C,U3*%
X156577500Y-148424000D03*
X156577500Y-147474000D03*
X156577500Y-146524000D03*
X154302500Y-146524000D03*
X154302500Y-147474000D03*
X154302500Y-148424000D03*
%TD*%
D15*
%TO.C,C57*%
X230424000Y-148971000D03*
X231384000Y-148971000D03*
%TD*%
D23*
%TO.C,C2607*%
X291437000Y-183388000D03*
X290477000Y-183388000D03*
%TD*%
D14*
%TO.C,R2007*%
X260982999Y-180975000D03*
X262002999Y-180975000D03*
%TD*%
D17*
%TO.C,R1804*%
X227534000Y-187833000D03*
X229184000Y-187833000D03*
%TD*%
D24*
%TO.C,C410*%
X139192000Y-185392000D03*
X139192000Y-184432000D03*
%TD*%
D43*
%TO.C,U8*%
X252784000Y-149125000D03*
X252784000Y-147855000D03*
X252784000Y-146585000D03*
X252784000Y-145315000D03*
X247834000Y-145315000D03*
X247834000Y-146585000D03*
X247834000Y-147855000D03*
X247834000Y-149125000D03*
%TD*%
D24*
%TO.C,C1208*%
X196850000Y-181328000D03*
X196850000Y-180368000D03*
%TD*%
D33*
%TO.C,R23*%
X314579000Y-125667000D03*
X314579000Y-127317000D03*
%TD*%
D34*
%TO.C,L1702*%
X211732000Y-182372000D03*
X212702000Y-182372000D03*
%TD*%
D17*
%TO.C,R2004*%
X259029999Y-187833000D03*
X260679999Y-187833000D03*
%TD*%
D14*
%TO.C,R2801*%
X325943000Y-189103000D03*
X326963000Y-189103000D03*
%TD*%
D15*
%TO.C,C104*%
X85766000Y-189103000D03*
X86726000Y-189103000D03*
%TD*%
D14*
%TO.C,R2707*%
X308227000Y-180975000D03*
X309247000Y-180975000D03*
%TD*%
D16*
%TO.C,R1705*%
X215775000Y-186436000D03*
X214755000Y-186436000D03*
%TD*%
D17*
%TO.C,R2604*%
X290526000Y-187833000D03*
X292176000Y-187833000D03*
%TD*%
D55*
%TO.C,C158*%
X109536000Y-127259002D03*
X111086000Y-127259002D03*
%TD*%
D15*
%TO.C,C20*%
X142540000Y-147955000D03*
X143500000Y-147955000D03*
%TD*%
D16*
%TO.C,R2706*%
X311279000Y-180975000D03*
X310259000Y-180975000D03*
%TD*%
D34*
%TO.C,L1202*%
X195984000Y-182372000D03*
X196954000Y-182372000D03*
%TD*%
D15*
%TO.C,C31*%
X234615000Y-154178000D03*
X235575000Y-154178000D03*
%TD*%
D22*
%TO.C,C2602*%
X294132000Y-207785000D03*
X294132000Y-206235000D03*
%TD*%
D29*
%TO.C,R203*%
X108521000Y-187833000D03*
X106871000Y-187833000D03*
%TD*%
D22*
%TO.C,C202*%
X105156000Y-207785000D03*
X105156000Y-206235000D03*
%TD*%
D14*
%TO.C,R401*%
X136967000Y-189103000D03*
X137987000Y-189103000D03*
%TD*%
D34*
%TO.C,L2602*%
X290472000Y-182372000D03*
X291442000Y-182372000D03*
%TD*%
D23*
%TO.C,C64*%
X234940000Y-148971000D03*
X233980000Y-148971000D03*
%TD*%
D18*
%TO.C,L1003*%
X164338000Y-186413000D03*
X164338000Y-185443000D03*
%TD*%
D17*
%TO.C,R1704*%
X211786000Y-187833000D03*
X213436000Y-187833000D03*
%TD*%
D24*
%TO.C,C1108*%
X181102000Y-181328000D03*
X181102000Y-180368000D03*
%TD*%
D30*
%TO.C,K1201*%
X197142000Y-191135000D03*
X197142000Y-196215000D03*
X197142000Y-198755000D03*
X197142000Y-201295000D03*
X197142000Y-203835000D03*
X204432000Y-203835000D03*
X204432000Y-201295000D03*
X204432000Y-198755000D03*
X204432000Y-196215000D03*
X204432000Y-191135000D03*
%TD*%
D23*
%TO.C,C1105*%
X184249000Y-188087000D03*
X183289000Y-188087000D03*
%TD*%
D14*
%TO.C,R35*%
X223744600Y-113205800D03*
X224764600Y-113205800D03*
%TD*%
D28*
%TO.C,C1*%
X140607000Y-147348000D03*
X140607000Y-148308000D03*
%TD*%
D15*
%TO.C,C1709*%
X211737000Y-184404000D03*
X212697000Y-184404000D03*
%TD*%
D16*
%TO.C,R402*%
X135905000Y-189103000D03*
X134885000Y-189103000D03*
%TD*%
D29*
%TO.C,R303*%
X124269000Y-187833000D03*
X122619000Y-187833000D03*
%TD*%
D33*
%TO.C,R81*%
X106249502Y-143845007D03*
X106249502Y-145495007D03*
%TD*%
D28*
%TO.C,C2614*%
X291338000Y-185448000D03*
X291338000Y-186408000D03*
%TD*%
D24*
%TO.C,C2808*%
X322834000Y-181328000D03*
X322834000Y-180368000D03*
%TD*%
D15*
%TO.C,C66*%
X242209000Y-149760000D03*
X243169000Y-149760000D03*
%TD*%
D40*
%TO.C,C125*%
X148590000Y-113604000D03*
X148590000Y-115504000D03*
%TD*%
D24*
%TO.C,C1708*%
X212598000Y-181328000D03*
X212598000Y-180368000D03*
%TD*%
D23*
%TO.C,C205*%
X105509000Y-188087000D03*
X104549000Y-188087000D03*
%TD*%
D52*
%TO.C,U29*%
X284538500Y-125076000D03*
X284538500Y-125726000D03*
X284538500Y-126376000D03*
X284538500Y-127026000D03*
X284538500Y-127676000D03*
X284538500Y-128326000D03*
X284538500Y-128976000D03*
X284538500Y-129626000D03*
X284538500Y-130276000D03*
X284538500Y-130926000D03*
X284538500Y-131576000D03*
X284538500Y-132226000D03*
X290263500Y-132226000D03*
X290263500Y-131576000D03*
X290263500Y-130926000D03*
X290263500Y-130276000D03*
X290263500Y-129626000D03*
X290263500Y-128976000D03*
X290263500Y-128326000D03*
X290263500Y-127676000D03*
X290263500Y-127026000D03*
X290263500Y-126376000D03*
X290263500Y-125726000D03*
X290263500Y-125076000D03*
%TD*%
D22*
%TO.C,C2002*%
X262635999Y-207785000D03*
X262635999Y-206235000D03*
%TD*%
D28*
%TO.C,C2*%
X141623000Y-147348000D03*
X141623000Y-148308000D03*
%TD*%
D32*
%TO.C,H7*%
X277324000Y-103188000D03*
%TD*%
D15*
%TO.C,C1903*%
X249075000Y-189103000D03*
X250035000Y-189103000D03*
%TD*%
D24*
%TO.C,C29*%
X191915000Y-142466000D03*
X191915000Y-141506000D03*
%TD*%
D15*
%TO.C,C209*%
X101501000Y-184404000D03*
X102461000Y-184404000D03*
%TD*%
D28*
%TO.C,C4*%
X149017000Y-147348000D03*
X149017000Y-148308000D03*
%TD*%
D38*
%TO.C,C149*%
X136014000Y-120715000D03*
X134114000Y-120715000D03*
%TD*%
D23*
%TO.C,C114*%
X222067600Y-115384800D03*
X221107600Y-115384800D03*
%TD*%
D14*
%TO.C,R1201*%
X199959000Y-189103000D03*
X200979000Y-189103000D03*
%TD*%
D15*
%TO.C,C204*%
X101514000Y-189103000D03*
X102474000Y-189103000D03*
%TD*%
D16*
%TO.C,R105*%
X89791000Y-186436000D03*
X88771000Y-186436000D03*
%TD*%
D15*
%TO.C,C2704*%
X306238000Y-189103000D03*
X307198000Y-189103000D03*
%TD*%
D24*
%TO.C,C108*%
X86614000Y-181328000D03*
X86614000Y-180368000D03*
%TD*%
D32*
%TO.C,H6*%
X214324000Y-103488000D03*
%TD*%
D30*
%TO.C,K2801*%
X323126000Y-191135000D03*
X323126000Y-196215000D03*
X323126000Y-198755000D03*
X323126000Y-201295000D03*
X323126000Y-203835000D03*
X330416000Y-203835000D03*
X330416000Y-201295000D03*
X330416000Y-198755000D03*
X330416000Y-196215000D03*
X330416000Y-191135000D03*
%TD*%
D19*
%TO.C,U1001*%
X167271000Y-185163500D03*
X167771000Y-185163500D03*
X168271000Y-185163500D03*
X168771000Y-185163500D03*
D20*
X169483500Y-184451000D03*
X169483500Y-183951000D03*
X169483500Y-183451000D03*
X169483500Y-182951000D03*
D19*
X168771000Y-182238500D03*
X168271000Y-182238500D03*
X167771000Y-182238500D03*
X167271000Y-182238500D03*
D20*
X166558500Y-182951000D03*
X166558500Y-183451000D03*
X166558500Y-183951000D03*
X166558500Y-184451000D03*
D21*
X168020999Y-183700999D03*
%TD*%
D43*
%TO.C,U11*%
X296726000Y-149125000D03*
X296726000Y-147855000D03*
X296726000Y-146585000D03*
X296726000Y-145315000D03*
X291776000Y-145315000D03*
X291776000Y-146585000D03*
X291776000Y-147855000D03*
X291776000Y-149125000D03*
%TD*%
D22*
%TO.C,C1201*%
X202438000Y-207785000D03*
X202438000Y-206235000D03*
%TD*%
D18*
%TO.C,L201*%
X108712000Y-183492000D03*
X108712000Y-182522000D03*
%TD*%
D15*
%TO.C,C309*%
X117249000Y-184404000D03*
X118209000Y-184404000D03*
%TD*%
D24*
%TO.C,C208*%
X102362000Y-181328000D03*
X102362000Y-180368000D03*
%TD*%
D23*
%TO.C,C21*%
X147084000Y-147955000D03*
X146124000Y-147955000D03*
%TD*%
D24*
%TO.C,C408*%
X133858000Y-181328000D03*
X133858000Y-180368000D03*
%TD*%
D33*
%TO.C,R92*%
X99683700Y-140552901D03*
X99683700Y-142202901D03*
%TD*%
D15*
%TO.C,C2709*%
X306225000Y-184404000D03*
X307185000Y-184404000D03*
%TD*%
%TO.C,C1703*%
X217579000Y-189103000D03*
X218539000Y-189103000D03*
%TD*%
D34*
%TO.C,L1102*%
X180236000Y-182372000D03*
X181206000Y-182372000D03*
%TD*%
D14*
%TO.C,R2807*%
X323975000Y-180975000D03*
X324995000Y-180975000D03*
%TD*%
D15*
%TO.C,C2004*%
X258993999Y-189103000D03*
X259953999Y-189103000D03*
%TD*%
%TO.C,C103*%
X91595000Y-189103000D03*
X92555000Y-189103000D03*
%TD*%
D18*
%TO.C,L2501*%
X281940000Y-183492000D03*
X281940000Y-182522000D03*
%TD*%
D16*
%TO.C,R2702*%
X309133000Y-189103000D03*
X308113000Y-189103000D03*
%TD*%
D17*
%TO.C,R97*%
X106248000Y-125735001D03*
X107898000Y-125735001D03*
%TD*%
D18*
%TO.C,L2701*%
X313436000Y-183492000D03*
X313436000Y-182522000D03*
%TD*%
D24*
%TO.C,C48*%
X236873000Y-142466000D03*
X236873000Y-141506000D03*
%TD*%
D22*
%TO.C,C1001*%
X170942000Y-207785000D03*
X170942000Y-206235000D03*
%TD*%
D34*
%TO.C,L2702*%
X306220000Y-182372000D03*
X307190000Y-182372000D03*
%TD*%
D55*
%TO.C,C160*%
X112521000Y-125735001D03*
X114071000Y-125735001D03*
%TD*%
D34*
%TO.C,L1002*%
X164488000Y-182372000D03*
X165458000Y-182372000D03*
%TD*%
D15*
%TO.C,C96*%
X322608000Y-129032000D03*
X323568000Y-129032000D03*
%TD*%
D14*
%TO.C,R1001*%
X168463000Y-189103000D03*
X169483000Y-189103000D03*
%TD*%
D24*
%TO.C,C2506*%
X280924000Y-183487000D03*
X280924000Y-182527000D03*
%TD*%
%TO.C,C172*%
X219964000Y-120368000D03*
X219964000Y-119408000D03*
%TD*%
D14*
%TO.C,R207*%
X103503000Y-180975000D03*
X104523000Y-180975000D03*
%TD*%
D34*
%TO.C,L2802*%
X321968000Y-182372000D03*
X322938000Y-182372000D03*
%TD*%
D29*
%TO.C,R403*%
X140017000Y-187833000D03*
X138367000Y-187833000D03*
%TD*%
D15*
%TO.C,C304*%
X117262000Y-189103000D03*
X118222000Y-189103000D03*
%TD*%
D14*
%TO.C,R307*%
X119251000Y-180975000D03*
X120271000Y-180975000D03*
%TD*%
D36*
%TO.C,U12*%
X288403500Y-148424000D03*
X288403500Y-147474000D03*
X288403500Y-146524000D03*
X286128500Y-146524000D03*
X286128500Y-147474000D03*
X286128500Y-148424000D03*
%TD*%
D33*
%TO.C,R31*%
X316103000Y-133414000D03*
X316103000Y-135064000D03*
%TD*%
D25*
%TO.C,R60*%
X282829000Y-125351000D03*
X282829000Y-124331000D03*
%TD*%
D15*
%TO.C,C73*%
X274366000Y-148971000D03*
X275326000Y-148971000D03*
%TD*%
D23*
%TO.C,C407*%
X133957000Y-183388000D03*
X132997000Y-183388000D03*
%TD*%
D16*
%TO.C,R906*%
X153799000Y-180975000D03*
X152779000Y-180975000D03*
%TD*%
D18*
%TO.C,L1201*%
X203200000Y-183492000D03*
X203200000Y-182522000D03*
%TD*%
D24*
%TO.C,C2706*%
X312420000Y-183487000D03*
X312420000Y-182527000D03*
%TD*%
D23*
%TO.C,C2505*%
X278737000Y-188087000D03*
X277777000Y-188087000D03*
%TD*%
D15*
%TO.C,C2503*%
X280571000Y-189103000D03*
X281531000Y-189103000D03*
%TD*%
D29*
%TO.C,R903*%
X155765000Y-187833000D03*
X154115000Y-187833000D03*
%TD*%
D28*
%TO.C,C14*%
X192959000Y-147348000D03*
X192959000Y-148308000D03*
%TD*%
D15*
%TO.C,C1209*%
X195989000Y-184404000D03*
X196949000Y-184404000D03*
%TD*%
D23*
%TO.C,C55*%
X229715000Y-153543000D03*
X228755000Y-153543000D03*
%TD*%
%TO.C,C2807*%
X322933000Y-183388000D03*
X321973000Y-183388000D03*
%TD*%
D15*
%TO.C,C7*%
X146731000Y-154178000D03*
X147691000Y-154178000D03*
%TD*%
D33*
%TO.C,R47*%
X314579000Y-122619000D03*
X314579000Y-124269000D03*
%TD*%
D18*
%TO.C,L1803*%
X227330000Y-186413000D03*
X227330000Y-185443000D03*
%TD*%
D30*
%TO.C,K401*%
X134150000Y-191135000D03*
X134150000Y-196215000D03*
X134150000Y-198755000D03*
X134150000Y-201295000D03*
X134150000Y-203835000D03*
X141440000Y-203835000D03*
X141440000Y-201295000D03*
X141440000Y-198755000D03*
X141440000Y-196215000D03*
X141440000Y-191135000D03*
%TD*%
D15*
%TO.C,C1909*%
X243233000Y-184404000D03*
X244193000Y-184404000D03*
%TD*%
D16*
%TO.C,R1702*%
X214645000Y-189103000D03*
X213625000Y-189103000D03*
%TD*%
D24*
%TO.C,C82*%
X152773000Y-147446000D03*
X152773000Y-146486000D03*
%TD*%
D43*
%TO.C,U5*%
X208842000Y-149125000D03*
X208842000Y-147855000D03*
X208842000Y-146585000D03*
X208842000Y-145315000D03*
X203892000Y-145315000D03*
X203892000Y-146585000D03*
X203892000Y-147855000D03*
X203892000Y-149125000D03*
%TD*%
D23*
%TO.C,C2005*%
X262988999Y-188087000D03*
X262028999Y-188087000D03*
%TD*%
D33*
%TO.C,R48*%
X316103000Y-124270000D03*
X316103000Y-125920000D03*
%TD*%
D22*
%TO.C,C1101*%
X186690000Y-207785000D03*
X186690000Y-206235000D03*
%TD*%
D15*
%TO.C,C2603*%
X296319000Y-189103000D03*
X297279000Y-189103000D03*
%TD*%
D30*
%TO.C,K301*%
X118402000Y-191135000D03*
X118402000Y-196215000D03*
X118402000Y-198755000D03*
X118402000Y-201295000D03*
X118402000Y-203835000D03*
X125692000Y-203835000D03*
X125692000Y-201295000D03*
X125692000Y-198755000D03*
X125692000Y-196215000D03*
X125692000Y-191135000D03*
%TD*%
D29*
%TO.C,R2803*%
X328993000Y-187833000D03*
X327343000Y-187833000D03*
%TD*%
D17*
%TO.C,R53*%
X269304000Y-110490000D03*
X270954000Y-110490000D03*
%TD*%
D16*
%TO.C,R2002*%
X261888999Y-189103000D03*
X260868999Y-189103000D03*
%TD*%
D29*
%TO.C,R17*%
X221043000Y-112522000D03*
X219393000Y-112522000D03*
%TD*%
D15*
%TO.C,C1904*%
X243246000Y-189103000D03*
X244206000Y-189103000D03*
%TD*%
D23*
%TO.C,C1907*%
X244193000Y-183388000D03*
X243233000Y-183388000D03*
%TD*%
D28*
%TO.C,C914*%
X149606000Y-185448000D03*
X149606000Y-186408000D03*
%TD*%
D33*
%TO.C,R34*%
X316103000Y-127318000D03*
X316103000Y-128968000D03*
%TD*%
D29*
%TO.C,R2003*%
X266000999Y-187833000D03*
X264350999Y-187833000D03*
%TD*%
D56*
%TO.C,R4*%
X291973000Y-118235000D03*
X291973000Y-119255000D03*
%TD*%
D15*
%TO.C,C1109*%
X180241000Y-184404000D03*
X181201000Y-184404000D03*
%TD*%
D25*
%TO.C,R40*%
X329946000Y-120271000D03*
X329946000Y-119251000D03*
%TD*%
D24*
%TO.C,C2508*%
X275590000Y-181328000D03*
X275590000Y-180368000D03*
%TD*%
D17*
%TO.C,R1204*%
X196038000Y-187833000D03*
X197688000Y-187833000D03*
%TD*%
D24*
%TO.C,C2010*%
X265175999Y-185392000D03*
X265175999Y-184432000D03*
%TD*%
%TO.C,C1006*%
X170688000Y-183487000D03*
X170688000Y-182527000D03*
%TD*%
D15*
%TO.C,C45*%
X198267000Y-149760000D03*
X199227000Y-149760000D03*
%TD*%
D22*
%TO.C,C151*%
X137731000Y-124157000D03*
X137731000Y-122607000D03*
%TD*%
%TO.C,C901*%
X155194000Y-207785000D03*
X155194000Y-206235000D03*
%TD*%
D24*
%TO.C,C2006*%
X265175999Y-183487000D03*
X265175999Y-182527000D03*
%TD*%
D22*
%TO.C,C2001*%
X265429999Y-207785000D03*
X265429999Y-206235000D03*
%TD*%
D28*
%TO.C,C214*%
X102362000Y-185448000D03*
X102362000Y-186408000D03*
%TD*%
D44*
%TO.C,C164*%
X104800000Y-125735001D03*
X103250000Y-125735001D03*
%TD*%
D18*
%TO.C,L1801*%
X234696000Y-183492000D03*
X234696000Y-182522000D03*
%TD*%
D57*
%TO.C,R69*%
X143533500Y-119634000D03*
X141708500Y-119634000D03*
%TD*%
D30*
%TO.C,K1101*%
X181394000Y-191135000D03*
X181394000Y-196215000D03*
X181394000Y-198755000D03*
X181394000Y-201295000D03*
X181394000Y-203835000D03*
X188684000Y-203835000D03*
X188684000Y-201295000D03*
X188684000Y-198755000D03*
X188684000Y-196215000D03*
X188684000Y-191135000D03*
%TD*%
D16*
%TO.C,R102*%
X88661000Y-189103000D03*
X87641000Y-189103000D03*
%TD*%
D17*
%TO.C,R85*%
X320264000Y-136558000D03*
X321914000Y-136558000D03*
%TD*%
D19*
%TO.C,U2001*%
X261758999Y-185163500D03*
X262258999Y-185163500D03*
X262758999Y-185163500D03*
X263258999Y-185163500D03*
D20*
X263971499Y-184451000D03*
X263971499Y-183951000D03*
X263971499Y-183451000D03*
X263971499Y-182951000D03*
D19*
X263258999Y-182238500D03*
X262758999Y-182238500D03*
X262258999Y-182238500D03*
X261758999Y-182238500D03*
D20*
X261046499Y-182951000D03*
X261046499Y-183451000D03*
X261046499Y-183951000D03*
X261046499Y-184451000D03*
D21*
X262508998Y-183700999D03*
%TD*%
D28*
%TO.C,C13*%
X191943000Y-147348000D03*
X191943000Y-148308000D03*
%TD*%
D24*
%TO.C,C77*%
X240657000Y-147446000D03*
X240657000Y-146486000D03*
%TD*%
D18*
%TO.C,L1701*%
X218948000Y-183492000D03*
X218948000Y-182522000D03*
%TD*%
D22*
%TO.C,C402*%
X136652000Y-207785000D03*
X136652000Y-206235000D03*
%TD*%
D15*
%TO.C,C84*%
X286151000Y-149760000D03*
X287111000Y-149760000D03*
%TD*%
D17*
%TO.C,R404*%
X133046000Y-187833000D03*
X134696000Y-187833000D03*
%TD*%
D31*
%TO.C,L1*%
X152700500Y-112395000D03*
X150575500Y-112395000D03*
%TD*%
D15*
%TO.C,C404*%
X133010000Y-189103000D03*
X133970000Y-189103000D03*
%TD*%
D14*
%TO.C,R901*%
X152715000Y-189103000D03*
X153735000Y-189103000D03*
%TD*%
D18*
%TO.C,L203*%
X101346000Y-186413000D03*
X101346000Y-185443000D03*
%TD*%
D14*
%TO.C,R1207*%
X197991000Y-180975000D03*
X199011000Y-180975000D03*
%TD*%
D28*
%TO.C,C27*%
X272433000Y-147348000D03*
X272433000Y-148308000D03*
%TD*%
D17*
%TO.C,R87*%
X321915000Y-135034000D03*
X323565000Y-135034000D03*
%TD*%
D24*
%TO.C,C1810*%
X233680000Y-185392000D03*
X233680000Y-184432000D03*
%TD*%
D16*
%TO.C,R2802*%
X324881000Y-189103000D03*
X323861000Y-189103000D03*
%TD*%
D19*
%TO.C,U101*%
X88531000Y-185163500D03*
X89031000Y-185163500D03*
X89531000Y-185163500D03*
X90031000Y-185163500D03*
D20*
X90743500Y-184451000D03*
X90743500Y-183951000D03*
X90743500Y-183451000D03*
X90743500Y-182951000D03*
D19*
X90031000Y-182238500D03*
X89531000Y-182238500D03*
X89031000Y-182238500D03*
X88531000Y-182238500D03*
D20*
X87818500Y-182951000D03*
X87818500Y-183451000D03*
X87818500Y-183951000D03*
X87818500Y-184451000D03*
D21*
X89280999Y-183700999D03*
%TD*%
D14*
%TO.C,R1707*%
X213739000Y-180975000D03*
X214759000Y-180975000D03*
%TD*%
D28*
%TO.C,C2814*%
X322834000Y-185448000D03*
X322834000Y-186408000D03*
%TD*%
%TO.C,C314*%
X118110000Y-185448000D03*
X118110000Y-186408000D03*
%TD*%
D17*
%TO.C,R104*%
X85802000Y-187833000D03*
X87452000Y-187833000D03*
%TD*%
D41*
%TO.C,P2*%
X218629000Y-104538000D03*
X273010000Y-101488000D03*
D42*
X270585000Y-98313000D03*
X269315000Y-98313000D03*
X268045000Y-98313000D03*
X266775000Y-98313000D03*
X265505000Y-98313000D03*
X264235000Y-98313000D03*
X262965000Y-98313000D03*
X261695000Y-98313000D03*
X260425000Y-98313000D03*
X259155000Y-98313000D03*
X257885000Y-98313000D03*
X256615000Y-98313000D03*
X255345000Y-98313000D03*
X254075000Y-98313000D03*
X252805000Y-98313000D03*
X251535000Y-98313000D03*
X250265000Y-98313000D03*
X248995000Y-98313000D03*
X247725000Y-98313000D03*
X246455000Y-98313000D03*
X245185000Y-98313000D03*
X243915000Y-98313000D03*
X242645000Y-98313000D03*
X241375000Y-98313000D03*
X240105000Y-98313000D03*
X238835000Y-98313000D03*
X237565000Y-98313000D03*
X236295000Y-98313000D03*
X235025000Y-98313000D03*
X233755000Y-98313000D03*
X232485000Y-98313000D03*
X231215000Y-98313000D03*
X229945000Y-98313000D03*
X228675000Y-98313000D03*
X227405000Y-98313000D03*
X226135000Y-98313000D03*
X224865000Y-98313000D03*
X223595000Y-98313000D03*
X222325000Y-98313000D03*
X221055000Y-98313000D03*
X270585000Y-99583000D03*
X269315000Y-99583000D03*
X268045000Y-99583000D03*
X266775000Y-99583000D03*
X265505000Y-99583000D03*
X264235000Y-99583000D03*
X262965000Y-99583000D03*
X261695000Y-99583000D03*
X260425000Y-99583000D03*
X259155000Y-99583000D03*
X257885000Y-99583000D03*
X256615000Y-99583000D03*
X255345000Y-99583000D03*
X254075000Y-99583000D03*
X252805000Y-99583000D03*
X251535000Y-99583000D03*
X250265000Y-99583000D03*
X248995000Y-99583000D03*
X247725000Y-99583000D03*
X246455000Y-99583000D03*
X245185000Y-99583000D03*
X243915000Y-99583000D03*
X242645000Y-99583000D03*
X241375000Y-99583000D03*
X240105000Y-99583000D03*
X238835000Y-99583000D03*
X237565000Y-99583000D03*
X236295000Y-99583000D03*
X235025000Y-99583000D03*
X233755000Y-99583000D03*
X232485000Y-99583000D03*
X231215000Y-99583000D03*
X229945000Y-99583000D03*
X228675000Y-99583000D03*
X227405000Y-99583000D03*
X226135000Y-99583000D03*
X224865000Y-99583000D03*
X223595000Y-99583000D03*
X222325000Y-99583000D03*
X221055000Y-99583000D03*
X270585000Y-103393000D03*
X269315000Y-103393000D03*
X268045000Y-103393000D03*
X266775000Y-103393000D03*
X265505000Y-103393000D03*
X264235000Y-103393000D03*
X262965000Y-103393000D03*
X261695000Y-103393000D03*
X260425000Y-103393000D03*
X259155000Y-103393000D03*
X257885000Y-103393000D03*
X256615000Y-103393000D03*
X255345000Y-103393000D03*
X254075000Y-103393000D03*
X252805000Y-103393000D03*
X251535000Y-103393000D03*
X250265000Y-103393000D03*
X248995000Y-103393000D03*
X247725000Y-103393000D03*
X246455000Y-103393000D03*
X245185000Y-103393000D03*
X243915000Y-103393000D03*
X242645000Y-103393000D03*
X241375000Y-103393000D03*
X240105000Y-103393000D03*
X238835000Y-103393000D03*
X237565000Y-103393000D03*
X236295000Y-103393000D03*
X235025000Y-103393000D03*
X233755000Y-103393000D03*
X232485000Y-103393000D03*
X231215000Y-103393000D03*
X229945000Y-103393000D03*
X228675000Y-103393000D03*
X227405000Y-103393000D03*
X226135000Y-103393000D03*
X224865000Y-103393000D03*
X223595000Y-103393000D03*
X222325000Y-103393000D03*
X221055000Y-103393000D03*
X270585000Y-104663000D03*
X269315000Y-104663000D03*
X268045000Y-104663000D03*
X266775000Y-104663000D03*
X265505000Y-104663000D03*
X264235000Y-104663000D03*
X262965000Y-104663000D03*
X261695000Y-104663000D03*
X260425000Y-104663000D03*
X259155000Y-104663000D03*
X257885000Y-104663000D03*
X256615000Y-104663000D03*
X255345000Y-104663000D03*
X254075000Y-104663000D03*
X252805000Y-104663000D03*
X251535000Y-104663000D03*
X250265000Y-104663000D03*
X248995000Y-104663000D03*
X247725000Y-104663000D03*
X246455000Y-104663000D03*
X245185000Y-104663000D03*
X243915000Y-104663000D03*
X242645000Y-104663000D03*
X241375000Y-104663000D03*
X240105000Y-104663000D03*
X238835000Y-104663000D03*
X237565000Y-104663000D03*
X236295000Y-104663000D03*
X235025000Y-104663000D03*
X233755000Y-104663000D03*
X232485000Y-104663000D03*
X231215000Y-104663000D03*
X229945000Y-104663000D03*
X228675000Y-104663000D03*
X227405000Y-104663000D03*
X226135000Y-104663000D03*
X224865000Y-104663000D03*
X223595000Y-104663000D03*
X222325000Y-104663000D03*
X221055000Y-104663000D03*
%TD*%
D33*
%TO.C,R11*%
X314579000Y-134811000D03*
X314579000Y-136461000D03*
%TD*%
D58*
%TO.C,J5*%
X307340000Y-119380000D03*
D59*
X309880000Y-121920000D03*
X309880000Y-116840000D03*
X304800000Y-121920000D03*
X304800000Y-116840000D03*
%TD*%
D60*
%TO.C,TP4*%
X318389000Y-115951000D03*
%TD*%
D61*
%TO.C,H3*%
X210820000Y-216154000D03*
%TD*%
D62*
%TO.C,J1*%
X129260600Y-213868000D03*
X132029200Y-213868000D03*
X134797800Y-213868000D03*
X137566400Y-213868000D03*
X140335000Y-213868000D03*
X143103600Y-213868000D03*
X145872200Y-213868000D03*
X148640800Y-213868000D03*
X151409400Y-213868000D03*
X154178000Y-213868000D03*
X156946600Y-213868000D03*
X159715200Y-213868000D03*
X162483800Y-213868000D03*
X165252400Y-213868000D03*
X168021000Y-213868000D03*
X170789600Y-213868000D03*
X173558200Y-213868000D03*
X176326800Y-213868000D03*
X179095400Y-213868000D03*
X130644900Y-216712800D03*
X133413500Y-216712800D03*
X136182100Y-216712800D03*
X138950700Y-216712800D03*
X141719300Y-216712800D03*
X144487900Y-216712800D03*
X147256500Y-216712800D03*
X150025100Y-216712800D03*
X152793700Y-216712800D03*
X155562300Y-216712800D03*
X158330900Y-216712800D03*
X161099500Y-216712800D03*
X163868100Y-216712800D03*
X166636700Y-216712800D03*
X169405300Y-216712800D03*
X172173900Y-216712800D03*
X174942500Y-216712800D03*
X177711100Y-216712800D03*
D63*
X122351800Y-215290400D03*
X185851800Y-215290400D03*
%TD*%
D60*
%TO.C,TP6*%
X108839000Y-151130000D03*
%TD*%
%TO.C,TP3*%
X128143000Y-123317000D03*
%TD*%
D61*
%TO.C,H2*%
X332740000Y-216154000D03*
%TD*%
D60*
%TO.C,TP5*%
X111748700Y-144044901D03*
%TD*%
D64*
%TO.C,J6*%
X176894999Y-126491999D03*
D65*
X174894999Y-126491999D03*
%TD*%
D60*
%TO.C,TP9*%
X115189000Y-151130000D03*
%TD*%
D61*
%TO.C,H1*%
X88900000Y-216154000D03*
%TD*%
D60*
%TO.C,TP1*%
X314579000Y-115951000D03*
%TD*%
%TO.C,TP8*%
X95504000Y-134519901D03*
%TD*%
%TO.C,TP10*%
X318389000Y-120015000D03*
%TD*%
%TO.C,TP11*%
X130937000Y-116078000D03*
%TD*%
%TO.C,TP7*%
X100457000Y-151130000D03*
%TD*%
D62*
%TO.C,J2*%
X239750600Y-213868000D03*
X242519200Y-213868000D03*
X245287800Y-213868000D03*
X248056400Y-213868000D03*
X250825000Y-213868000D03*
X253593600Y-213868000D03*
X256362200Y-213868000D03*
X259130800Y-213868000D03*
X261899400Y-213868000D03*
X264668000Y-213868000D03*
X267436600Y-213868000D03*
X270205200Y-213868000D03*
X272973800Y-213868000D03*
X275742400Y-213868000D03*
X278511000Y-213868000D03*
X281279600Y-213868000D03*
X284048200Y-213868000D03*
X286816800Y-213868000D03*
X289585400Y-213868000D03*
X241134900Y-216712800D03*
X243903500Y-216712800D03*
X246672100Y-216712800D03*
X249440700Y-216712800D03*
X252209300Y-216712800D03*
X254977900Y-216712800D03*
X257746500Y-216712800D03*
X260515100Y-216712800D03*
X263283700Y-216712800D03*
X266052300Y-216712800D03*
X268820900Y-216712800D03*
X271589500Y-216712800D03*
X274358100Y-216712800D03*
X277126700Y-216712800D03*
X279895300Y-216712800D03*
X282663900Y-216712800D03*
X285432500Y-216712800D03*
X288201100Y-216712800D03*
D63*
X232841800Y-215290400D03*
X296341800Y-215290400D03*
%TD*%
D60*
%TO.C,TP2*%
X314579000Y-119888000D03*
%TD*%
D66*
X280820000Y-91488000D02*
X280820000Y-112488000D01*
X83820000Y-112488000D02*
X83820000Y-221488000D01*
X83820000Y-221488000D02*
X337820000Y-221488000D01*
X280820000Y-91488000D02*
X140820000Y-91488000D01*
X280820000Y-112488000D02*
X337820000Y-112488000D01*
X337820000Y-112488000D02*
X337820000Y-221488000D01*
X140820000Y-112488000D02*
X83820000Y-112488000D01*
X140820000Y-91488000D02*
X140820000Y-112488000D01*
M02*
