%TF.GenerationSoftware,KiCad,Pcbnew,7.0.10*%
%TF.CreationDate,2024-02-23T14:23:56-08:00*%
%TF.ProjectId,Quartz_v1p2,51756172-747a-45f7-9631-70322e6b6963,rev?*%
%TF.SameCoordinates,Original*%
%TF.FileFunction,Soldermask,Bot*%
%TF.FilePolarity,Negative*%
%FSLAX46Y46*%
G04 Gerber Fmt 4.6, Leading zero omitted, Abs format (unit mm)*
G04 Created by KiCad (PCBNEW 7.0.10) date 2024-02-23 14:23:56*
%MOMM*%
%LPD*%
G01*
G04 APERTURE LIST*
G04 Aperture macros list*
%AMRoundRect*
0 Rectangle with rounded corners*
0 $1 Rounding radius*
0 $2 $3 $4 $5 $6 $7 $8 $9 X,Y pos of 4 corners*
0 Add a 4 corners polygon primitive as box body*
4,1,4,$2,$3,$4,$5,$6,$7,$8,$9,$2,$3,0*
0 Add four circle primitives for the rounded corners*
1,1,$1+$1,$2,$3*
1,1,$1+$1,$4,$5*
1,1,$1+$1,$6,$7*
1,1,$1+$1,$8,$9*
0 Add four rect primitives between the rounded corners*
20,1,$1+$1,$2,$3,$4,$5,0*
20,1,$1+$1,$4,$5,$6,$7,0*
20,1,$1+$1,$6,$7,$8,$9,0*
20,1,$1+$1,$8,$9,$2,$3,0*%
G04 Aperture macros list end*
%ADD10C,0.100000*%
%ADD11C,0.150000*%
%ADD12C,0.300000*%
%ADD13C,0.400000*%
%ADD14C,5.000000*%
%ADD15C,1.270000*%
%ADD16C,0.510000*%
%ADD17RoundRect,0.250000X-0.262500X-0.450000X0.262500X-0.450000X0.262500X0.450000X-0.262500X0.450000X0*%
%ADD18RoundRect,0.140000X0.140000X0.170000X-0.140000X0.170000X-0.140000X-0.170000X0.140000X-0.170000X0*%
%ADD19RoundRect,0.135000X0.035355X-0.226274X0.226274X-0.035355X-0.035355X0.226274X-0.226274X0.035355X0*%
%ADD20RoundRect,0.135000X-0.135000X-0.185000X0.135000X-0.185000X0.135000X0.185000X-0.135000X0.185000X0*%
%ADD21RoundRect,0.140000X-0.140000X-0.170000X0.140000X-0.170000X0.140000X0.170000X-0.140000X0.170000X0*%
%ADD22RoundRect,0.140000X-0.021213X0.219203X-0.219203X0.021213X0.021213X-0.219203X0.219203X-0.021213X0*%
%ADD23RoundRect,0.135000X0.135000X0.185000X-0.135000X0.185000X-0.135000X-0.185000X0.135000X-0.185000X0*%
%ADD24RoundRect,0.147500X0.172500X-0.147500X0.172500X0.147500X-0.172500X0.147500X-0.172500X-0.147500X0*%
%ADD25RoundRect,0.140000X0.170000X-0.140000X0.170000X0.140000X-0.170000X0.140000X-0.170000X-0.140000X0*%
%ADD26RoundRect,0.140000X-0.170000X0.140000X-0.170000X-0.140000X0.170000X-0.140000X0.170000X0.140000X0*%
%ADD27RoundRect,0.135000X0.226274X0.035355X0.035355X0.226274X-0.226274X-0.035355X-0.035355X-0.226274X0*%
%ADD28RoundRect,0.225000X0.250000X-0.225000X0.250000X0.225000X-0.250000X0.225000X-0.250000X-0.225000X0*%
%ADD29RoundRect,0.150000X-0.150000X0.512500X-0.150000X-0.512500X0.150000X-0.512500X0.150000X0.512500X0*%
%ADD30RoundRect,0.140000X0.219203X0.021213X0.021213X0.219203X-0.219203X-0.021213X-0.021213X-0.219203X0*%
%ADD31C,2.050000*%
%ADD32C,2.250000*%
%ADD33RoundRect,0.249750X1.250250X-0.305250X1.250250X0.305250X-1.250250X0.305250X-1.250250X-0.305250X0*%
%ADD34R,1.430000X5.500000*%
%ADD35RoundRect,0.135000X0.185000X-0.135000X0.185000X0.135000X-0.185000X0.135000X-0.185000X-0.135000X0*%
%ADD36RoundRect,0.200000X-0.200000X-0.275000X0.200000X-0.275000X0.200000X0.275000X-0.200000X0.275000X0*%
%ADD37RoundRect,0.200000X0.200000X0.275000X-0.200000X0.275000X-0.200000X-0.275000X0.200000X-0.275000X0*%
%ADD38RoundRect,0.075000X-0.075000X0.412500X-0.075000X-0.412500X0.075000X-0.412500X0.075000X0.412500X0*%
%ADD39RoundRect,0.075000X-0.412500X0.075000X-0.412500X-0.075000X0.412500X-0.075000X0.412500X0.075000X0*%
%ADD40R,3.100000X3.100000*%
%ADD41RoundRect,0.140000X0.021213X-0.219203X0.219203X-0.021213X-0.021213X0.219203X-0.219203X0.021213X0*%
%ADD42RoundRect,0.150000X-0.825000X-0.150000X0.825000X-0.150000X0.825000X0.150000X-0.825000X0.150000X0*%
%ADD43RoundRect,0.147500X0.147500X0.172500X-0.147500X0.172500X-0.147500X-0.172500X0.147500X-0.172500X0*%
%ADD44C,2.000000*%
%ADD45R,0.250000X0.700000*%
%ADD46R,6.440000X2.640000*%
%ADD47RoundRect,0.200000X0.275000X-0.200000X0.275000X0.200000X-0.275000X0.200000X-0.275000X-0.200000X0*%
%ADD48RoundRect,0.075000X-0.700000X-0.075000X0.700000X-0.075000X0.700000X0.075000X-0.700000X0.075000X0*%
%ADD49RoundRect,0.075000X-0.075000X-0.700000X0.075000X-0.700000X0.075000X0.700000X-0.075000X0.700000X0*%
%ADD50RoundRect,0.140000X-0.219203X-0.021213X-0.021213X-0.219203X0.219203X0.021213X0.021213X0.219203X0*%
%ADD51RoundRect,0.250000X0.262500X0.450000X-0.262500X0.450000X-0.262500X-0.450000X0.262500X-0.450000X0*%
%ADD52RoundRect,0.225000X-0.250000X0.225000X-0.250000X-0.225000X0.250000X-0.225000X0.250000X0.225000X0*%
%ADD53RoundRect,0.218750X-0.218750X-0.256250X0.218750X-0.256250X0.218750X0.256250X-0.218750X0.256250X0*%
%ADD54RoundRect,0.250000X-0.250000X-0.475000X0.250000X-0.475000X0.250000X0.475000X-0.250000X0.475000X0*%
%ADD55C,6.000000*%
%ADD56RoundRect,0.062500X-0.062500X0.325000X-0.062500X-0.325000X0.062500X-0.325000X0.062500X0.325000X0*%
%ADD57RoundRect,0.062500X-0.325000X0.062500X-0.325000X-0.062500X0.325000X-0.062500X0.325000X0.062500X0*%
%ADD58R,1.750000X1.750000*%
%ADD59R,0.740000X2.400000*%
%ADD60RoundRect,0.200000X-0.275000X0.200000X-0.275000X-0.200000X0.275000X-0.200000X0.275000X0.200000X0*%
%ADD61R,3.360000X4.860000*%
%ADD62R,1.390000X1.400000*%
%ADD63R,2.286000X1.800000*%
%ADD64R,0.355600X0.965200*%
%ADD65RoundRect,0.250000X0.475000X-0.250000X0.475000X0.250000X-0.475000X0.250000X-0.475000X-0.250000X0*%
%ADD66C,1.651000*%
%ADD67C,3.683000*%
%ADD68RoundRect,0.218750X0.218750X0.256250X-0.218750X0.256250X-0.218750X-0.256250X0.218750X-0.256250X0*%
%ADD69RoundRect,0.250000X-0.475000X0.250000X-0.475000X-0.250000X0.475000X-0.250000X0.475000X0.250000X0*%
%ADD70RoundRect,0.218750X0.256250X-0.218750X0.256250X0.218750X-0.256250X0.218750X-0.256250X-0.218750X0*%
%ADD71RoundRect,0.135000X-0.185000X0.135000X-0.185000X-0.135000X0.185000X-0.135000X0.185000X0.135000X0*%
%ADD72RoundRect,0.218750X-0.381250X0.218750X-0.381250X-0.218750X0.381250X-0.218750X0.381250X0.218750X0*%
%ADD73RoundRect,0.062500X0.062500X-0.350000X0.062500X0.350000X-0.062500X0.350000X-0.062500X-0.350000X0*%
%ADD74RoundRect,0.062500X0.350000X-0.062500X0.350000X0.062500X-0.350000X0.062500X-0.350000X-0.062500X0*%
%ADD75R,4.600000X4.600000*%
%ADD76RoundRect,0.218750X-0.218750X-0.381250X0.218750X-0.381250X0.218750X0.381250X-0.218750X0.381250X0*%
%ADD77R,1.350000X1.350000*%
%ADD78O,1.350000X1.350000*%
%ADD79RoundRect,0.275000X-0.725000X-0.275000X0.725000X-0.275000X0.725000X0.275000X-0.725000X0.275000X0*%
%ADD80RoundRect,0.125000X-0.125000X-0.275000X0.125000X-0.275000X0.125000X0.275000X-0.125000X0.275000X0*%
%ADD81R,4.000000X2.000000*%
%TA.AperFunction,Profile*%
%ADD82C,0.100000*%
%TD*%
G04 APERTURE END LIST*
D10*
D11*
X299989000Y-253002200D02*
X407989000Y-253002200D01*
X407989000Y-285002200D01*
X299989000Y-285002200D01*
X299989000Y-253002200D01*
D10*
D11*
X10000000Y-10000000D02*
X409989000Y-10000000D01*
X409989000Y-287002200D01*
X10000000Y-287002200D01*
X10000000Y-10000000D01*
D10*
D11*
X12000000Y-12000000D02*
X407989000Y-12000000D01*
X407989000Y-285002200D01*
X12000000Y-285002200D01*
X12000000Y-12000000D01*
D10*
D11*
X60000000Y-12000000D02*
X60000000Y-10000000D01*
D10*
D11*
X110000000Y-12000000D02*
X110000000Y-10000000D01*
D10*
D11*
X160000000Y-12000000D02*
X160000000Y-10000000D01*
D10*
D11*
X210000000Y-12000000D02*
X210000000Y-10000000D01*
D10*
D11*
X260000000Y-12000000D02*
X260000000Y-10000000D01*
D10*
D11*
X310000000Y-12000000D02*
X310000000Y-10000000D01*
D10*
D11*
X360000000Y-12000000D02*
X360000000Y-10000000D01*
D10*
D11*
X36089160Y-11593604D02*
X35346303Y-11593604D01*
X35717731Y-11593604D02*
X35717731Y-10293604D01*
X35717731Y-10293604D02*
X35593922Y-10479319D01*
X35593922Y-10479319D02*
X35470112Y-10603128D01*
X35470112Y-10603128D02*
X35346303Y-10665033D01*
D10*
D11*
X85346303Y-10417414D02*
X85408207Y-10355509D01*
X85408207Y-10355509D02*
X85532017Y-10293604D01*
X85532017Y-10293604D02*
X85841541Y-10293604D01*
X85841541Y-10293604D02*
X85965350Y-10355509D01*
X85965350Y-10355509D02*
X86027255Y-10417414D01*
X86027255Y-10417414D02*
X86089160Y-10541223D01*
X86089160Y-10541223D02*
X86089160Y-10665033D01*
X86089160Y-10665033D02*
X86027255Y-10850747D01*
X86027255Y-10850747D02*
X85284398Y-11593604D01*
X85284398Y-11593604D02*
X86089160Y-11593604D01*
D10*
D11*
X135284398Y-10293604D02*
X136089160Y-10293604D01*
X136089160Y-10293604D02*
X135655826Y-10788842D01*
X135655826Y-10788842D02*
X135841541Y-10788842D01*
X135841541Y-10788842D02*
X135965350Y-10850747D01*
X135965350Y-10850747D02*
X136027255Y-10912652D01*
X136027255Y-10912652D02*
X136089160Y-11036461D01*
X136089160Y-11036461D02*
X136089160Y-11345985D01*
X136089160Y-11345985D02*
X136027255Y-11469795D01*
X136027255Y-11469795D02*
X135965350Y-11531700D01*
X135965350Y-11531700D02*
X135841541Y-11593604D01*
X135841541Y-11593604D02*
X135470112Y-11593604D01*
X135470112Y-11593604D02*
X135346303Y-11531700D01*
X135346303Y-11531700D02*
X135284398Y-11469795D01*
D10*
D11*
X185965350Y-10726938D02*
X185965350Y-11593604D01*
X185655826Y-10231700D02*
X185346303Y-11160271D01*
X185346303Y-11160271D02*
X186151064Y-11160271D01*
D10*
D11*
X236027255Y-10293604D02*
X235408207Y-10293604D01*
X235408207Y-10293604D02*
X235346303Y-10912652D01*
X235346303Y-10912652D02*
X235408207Y-10850747D01*
X235408207Y-10850747D02*
X235532017Y-10788842D01*
X235532017Y-10788842D02*
X235841541Y-10788842D01*
X235841541Y-10788842D02*
X235965350Y-10850747D01*
X235965350Y-10850747D02*
X236027255Y-10912652D01*
X236027255Y-10912652D02*
X236089160Y-11036461D01*
X236089160Y-11036461D02*
X236089160Y-11345985D01*
X236089160Y-11345985D02*
X236027255Y-11469795D01*
X236027255Y-11469795D02*
X235965350Y-11531700D01*
X235965350Y-11531700D02*
X235841541Y-11593604D01*
X235841541Y-11593604D02*
X235532017Y-11593604D01*
X235532017Y-11593604D02*
X235408207Y-11531700D01*
X235408207Y-11531700D02*
X235346303Y-11469795D01*
D10*
D11*
X285965350Y-10293604D02*
X285717731Y-10293604D01*
X285717731Y-10293604D02*
X285593922Y-10355509D01*
X285593922Y-10355509D02*
X285532017Y-10417414D01*
X285532017Y-10417414D02*
X285408207Y-10603128D01*
X285408207Y-10603128D02*
X285346303Y-10850747D01*
X285346303Y-10850747D02*
X285346303Y-11345985D01*
X285346303Y-11345985D02*
X285408207Y-11469795D01*
X285408207Y-11469795D02*
X285470112Y-11531700D01*
X285470112Y-11531700D02*
X285593922Y-11593604D01*
X285593922Y-11593604D02*
X285841541Y-11593604D01*
X285841541Y-11593604D02*
X285965350Y-11531700D01*
X285965350Y-11531700D02*
X286027255Y-11469795D01*
X286027255Y-11469795D02*
X286089160Y-11345985D01*
X286089160Y-11345985D02*
X286089160Y-11036461D01*
X286089160Y-11036461D02*
X286027255Y-10912652D01*
X286027255Y-10912652D02*
X285965350Y-10850747D01*
X285965350Y-10850747D02*
X285841541Y-10788842D01*
X285841541Y-10788842D02*
X285593922Y-10788842D01*
X285593922Y-10788842D02*
X285470112Y-10850747D01*
X285470112Y-10850747D02*
X285408207Y-10912652D01*
X285408207Y-10912652D02*
X285346303Y-11036461D01*
D10*
D11*
X335284398Y-10293604D02*
X336151064Y-10293604D01*
X336151064Y-10293604D02*
X335593922Y-11593604D01*
D10*
D11*
X385593922Y-10850747D02*
X385470112Y-10788842D01*
X385470112Y-10788842D02*
X385408207Y-10726938D01*
X385408207Y-10726938D02*
X385346303Y-10603128D01*
X385346303Y-10603128D02*
X385346303Y-10541223D01*
X385346303Y-10541223D02*
X385408207Y-10417414D01*
X385408207Y-10417414D02*
X385470112Y-10355509D01*
X385470112Y-10355509D02*
X385593922Y-10293604D01*
X385593922Y-10293604D02*
X385841541Y-10293604D01*
X385841541Y-10293604D02*
X385965350Y-10355509D01*
X385965350Y-10355509D02*
X386027255Y-10417414D01*
X386027255Y-10417414D02*
X386089160Y-10541223D01*
X386089160Y-10541223D02*
X386089160Y-10603128D01*
X386089160Y-10603128D02*
X386027255Y-10726938D01*
X386027255Y-10726938D02*
X385965350Y-10788842D01*
X385965350Y-10788842D02*
X385841541Y-10850747D01*
X385841541Y-10850747D02*
X385593922Y-10850747D01*
X385593922Y-10850747D02*
X385470112Y-10912652D01*
X385470112Y-10912652D02*
X385408207Y-10974557D01*
X385408207Y-10974557D02*
X385346303Y-11098366D01*
X385346303Y-11098366D02*
X385346303Y-11345985D01*
X385346303Y-11345985D02*
X385408207Y-11469795D01*
X385408207Y-11469795D02*
X385470112Y-11531700D01*
X385470112Y-11531700D02*
X385593922Y-11593604D01*
X385593922Y-11593604D02*
X385841541Y-11593604D01*
X385841541Y-11593604D02*
X385965350Y-11531700D01*
X385965350Y-11531700D02*
X386027255Y-11469795D01*
X386027255Y-11469795D02*
X386089160Y-11345985D01*
X386089160Y-11345985D02*
X386089160Y-11098366D01*
X386089160Y-11098366D02*
X386027255Y-10974557D01*
X386027255Y-10974557D02*
X385965350Y-10912652D01*
X385965350Y-10912652D02*
X385841541Y-10850747D01*
D10*
D11*
X60000000Y-285002200D02*
X60000000Y-287002200D01*
D10*
D11*
X110000000Y-285002200D02*
X110000000Y-287002200D01*
D10*
D11*
X160000000Y-285002200D02*
X160000000Y-287002200D01*
D10*
D11*
X210000000Y-285002200D02*
X210000000Y-287002200D01*
D10*
D11*
X260000000Y-285002200D02*
X260000000Y-287002200D01*
D10*
D11*
X310000000Y-285002200D02*
X310000000Y-287002200D01*
D10*
D11*
X360000000Y-285002200D02*
X360000000Y-287002200D01*
D10*
D11*
X36089160Y-286595804D02*
X35346303Y-286595804D01*
X35717731Y-286595804D02*
X35717731Y-285295804D01*
X35717731Y-285295804D02*
X35593922Y-285481519D01*
X35593922Y-285481519D02*
X35470112Y-285605328D01*
X35470112Y-285605328D02*
X35346303Y-285667233D01*
D10*
D11*
X85346303Y-285419614D02*
X85408207Y-285357709D01*
X85408207Y-285357709D02*
X85532017Y-285295804D01*
X85532017Y-285295804D02*
X85841541Y-285295804D01*
X85841541Y-285295804D02*
X85965350Y-285357709D01*
X85965350Y-285357709D02*
X86027255Y-285419614D01*
X86027255Y-285419614D02*
X86089160Y-285543423D01*
X86089160Y-285543423D02*
X86089160Y-285667233D01*
X86089160Y-285667233D02*
X86027255Y-285852947D01*
X86027255Y-285852947D02*
X85284398Y-286595804D01*
X85284398Y-286595804D02*
X86089160Y-286595804D01*
D10*
D11*
X135284398Y-285295804D02*
X136089160Y-285295804D01*
X136089160Y-285295804D02*
X135655826Y-285791042D01*
X135655826Y-285791042D02*
X135841541Y-285791042D01*
X135841541Y-285791042D02*
X135965350Y-285852947D01*
X135965350Y-285852947D02*
X136027255Y-285914852D01*
X136027255Y-285914852D02*
X136089160Y-286038661D01*
X136089160Y-286038661D02*
X136089160Y-286348185D01*
X136089160Y-286348185D02*
X136027255Y-286471995D01*
X136027255Y-286471995D02*
X135965350Y-286533900D01*
X135965350Y-286533900D02*
X135841541Y-286595804D01*
X135841541Y-286595804D02*
X135470112Y-286595804D01*
X135470112Y-286595804D02*
X135346303Y-286533900D01*
X135346303Y-286533900D02*
X135284398Y-286471995D01*
D10*
D11*
X185965350Y-285729138D02*
X185965350Y-286595804D01*
X185655826Y-285233900D02*
X185346303Y-286162471D01*
X185346303Y-286162471D02*
X186151064Y-286162471D01*
D10*
D11*
X236027255Y-285295804D02*
X235408207Y-285295804D01*
X235408207Y-285295804D02*
X235346303Y-285914852D01*
X235346303Y-285914852D02*
X235408207Y-285852947D01*
X235408207Y-285852947D02*
X235532017Y-285791042D01*
X235532017Y-285791042D02*
X235841541Y-285791042D01*
X235841541Y-285791042D02*
X235965350Y-285852947D01*
X235965350Y-285852947D02*
X236027255Y-285914852D01*
X236027255Y-285914852D02*
X236089160Y-286038661D01*
X236089160Y-286038661D02*
X236089160Y-286348185D01*
X236089160Y-286348185D02*
X236027255Y-286471995D01*
X236027255Y-286471995D02*
X235965350Y-286533900D01*
X235965350Y-286533900D02*
X235841541Y-286595804D01*
X235841541Y-286595804D02*
X235532017Y-286595804D01*
X235532017Y-286595804D02*
X235408207Y-286533900D01*
X235408207Y-286533900D02*
X235346303Y-286471995D01*
D10*
D11*
X285965350Y-285295804D02*
X285717731Y-285295804D01*
X285717731Y-285295804D02*
X285593922Y-285357709D01*
X285593922Y-285357709D02*
X285532017Y-285419614D01*
X285532017Y-285419614D02*
X285408207Y-285605328D01*
X285408207Y-285605328D02*
X285346303Y-285852947D01*
X285346303Y-285852947D02*
X285346303Y-286348185D01*
X285346303Y-286348185D02*
X285408207Y-286471995D01*
X285408207Y-286471995D02*
X285470112Y-286533900D01*
X285470112Y-286533900D02*
X285593922Y-286595804D01*
X285593922Y-286595804D02*
X285841541Y-286595804D01*
X285841541Y-286595804D02*
X285965350Y-286533900D01*
X285965350Y-286533900D02*
X286027255Y-286471995D01*
X286027255Y-286471995D02*
X286089160Y-286348185D01*
X286089160Y-286348185D02*
X286089160Y-286038661D01*
X286089160Y-286038661D02*
X286027255Y-285914852D01*
X286027255Y-285914852D02*
X285965350Y-285852947D01*
X285965350Y-285852947D02*
X285841541Y-285791042D01*
X285841541Y-285791042D02*
X285593922Y-285791042D01*
X285593922Y-285791042D02*
X285470112Y-285852947D01*
X285470112Y-285852947D02*
X285408207Y-285914852D01*
X285408207Y-285914852D02*
X285346303Y-286038661D01*
D10*
D11*
X335284398Y-285295804D02*
X336151064Y-285295804D01*
X336151064Y-285295804D02*
X335593922Y-286595804D01*
D10*
D11*
X385593922Y-285852947D02*
X385470112Y-285791042D01*
X385470112Y-285791042D02*
X385408207Y-285729138D01*
X385408207Y-285729138D02*
X385346303Y-285605328D01*
X385346303Y-285605328D02*
X385346303Y-285543423D01*
X385346303Y-285543423D02*
X385408207Y-285419614D01*
X385408207Y-285419614D02*
X385470112Y-285357709D01*
X385470112Y-285357709D02*
X385593922Y-285295804D01*
X385593922Y-285295804D02*
X385841541Y-285295804D01*
X385841541Y-285295804D02*
X385965350Y-285357709D01*
X385965350Y-285357709D02*
X386027255Y-285419614D01*
X386027255Y-285419614D02*
X386089160Y-285543423D01*
X386089160Y-285543423D02*
X386089160Y-285605328D01*
X386089160Y-285605328D02*
X386027255Y-285729138D01*
X386027255Y-285729138D02*
X385965350Y-285791042D01*
X385965350Y-285791042D02*
X385841541Y-285852947D01*
X385841541Y-285852947D02*
X385593922Y-285852947D01*
X385593922Y-285852947D02*
X385470112Y-285914852D01*
X385470112Y-285914852D02*
X385408207Y-285976757D01*
X385408207Y-285976757D02*
X385346303Y-286100566D01*
X385346303Y-286100566D02*
X385346303Y-286348185D01*
X385346303Y-286348185D02*
X385408207Y-286471995D01*
X385408207Y-286471995D02*
X385470112Y-286533900D01*
X385470112Y-286533900D02*
X385593922Y-286595804D01*
X385593922Y-286595804D02*
X385841541Y-286595804D01*
X385841541Y-286595804D02*
X385965350Y-286533900D01*
X385965350Y-286533900D02*
X386027255Y-286471995D01*
X386027255Y-286471995D02*
X386089160Y-286348185D01*
X386089160Y-286348185D02*
X386089160Y-286100566D01*
X386089160Y-286100566D02*
X386027255Y-285976757D01*
X386027255Y-285976757D02*
X385965350Y-285914852D01*
X385965350Y-285914852D02*
X385841541Y-285852947D01*
D10*
D11*
X10000000Y-60000000D02*
X12000000Y-60000000D01*
D10*
D11*
X10000000Y-110000000D02*
X12000000Y-110000000D01*
D10*
D11*
X10000000Y-160000000D02*
X12000000Y-160000000D01*
D10*
D11*
X10000000Y-210000000D02*
X12000000Y-210000000D01*
D10*
D11*
X10000000Y-260000000D02*
X12000000Y-260000000D01*
D10*
D11*
X10690476Y-35222176D02*
X11309523Y-35222176D01*
X10566666Y-35593604D02*
X10999999Y-34293604D01*
X10999999Y-34293604D02*
X11433333Y-35593604D01*
D10*
D11*
X11092857Y-84912652D02*
X11278571Y-84974557D01*
X11278571Y-84974557D02*
X11340476Y-85036461D01*
X11340476Y-85036461D02*
X11402380Y-85160271D01*
X11402380Y-85160271D02*
X11402380Y-85345985D01*
X11402380Y-85345985D02*
X11340476Y-85469795D01*
X11340476Y-85469795D02*
X11278571Y-85531700D01*
X11278571Y-85531700D02*
X11154761Y-85593604D01*
X11154761Y-85593604D02*
X10659523Y-85593604D01*
X10659523Y-85593604D02*
X10659523Y-84293604D01*
X10659523Y-84293604D02*
X11092857Y-84293604D01*
X11092857Y-84293604D02*
X11216666Y-84355509D01*
X11216666Y-84355509D02*
X11278571Y-84417414D01*
X11278571Y-84417414D02*
X11340476Y-84541223D01*
X11340476Y-84541223D02*
X11340476Y-84665033D01*
X11340476Y-84665033D02*
X11278571Y-84788842D01*
X11278571Y-84788842D02*
X11216666Y-84850747D01*
X11216666Y-84850747D02*
X11092857Y-84912652D01*
X11092857Y-84912652D02*
X10659523Y-84912652D01*
D10*
D11*
X11402380Y-135469795D02*
X11340476Y-135531700D01*
X11340476Y-135531700D02*
X11154761Y-135593604D01*
X11154761Y-135593604D02*
X11030952Y-135593604D01*
X11030952Y-135593604D02*
X10845238Y-135531700D01*
X10845238Y-135531700D02*
X10721428Y-135407890D01*
X10721428Y-135407890D02*
X10659523Y-135284080D01*
X10659523Y-135284080D02*
X10597619Y-135036461D01*
X10597619Y-135036461D02*
X10597619Y-134850747D01*
X10597619Y-134850747D02*
X10659523Y-134603128D01*
X10659523Y-134603128D02*
X10721428Y-134479319D01*
X10721428Y-134479319D02*
X10845238Y-134355509D01*
X10845238Y-134355509D02*
X11030952Y-134293604D01*
X11030952Y-134293604D02*
X11154761Y-134293604D01*
X11154761Y-134293604D02*
X11340476Y-134355509D01*
X11340476Y-134355509D02*
X11402380Y-134417414D01*
D10*
D11*
X10659523Y-185593604D02*
X10659523Y-184293604D01*
X10659523Y-184293604D02*
X10969047Y-184293604D01*
X10969047Y-184293604D02*
X11154761Y-184355509D01*
X11154761Y-184355509D02*
X11278571Y-184479319D01*
X11278571Y-184479319D02*
X11340476Y-184603128D01*
X11340476Y-184603128D02*
X11402380Y-184850747D01*
X11402380Y-184850747D02*
X11402380Y-185036461D01*
X11402380Y-185036461D02*
X11340476Y-185284080D01*
X11340476Y-185284080D02*
X11278571Y-185407890D01*
X11278571Y-185407890D02*
X11154761Y-185531700D01*
X11154761Y-185531700D02*
X10969047Y-185593604D01*
X10969047Y-185593604D02*
X10659523Y-185593604D01*
D10*
D11*
X10721428Y-234912652D02*
X11154762Y-234912652D01*
X11340476Y-235593604D02*
X10721428Y-235593604D01*
X10721428Y-235593604D02*
X10721428Y-234293604D01*
X10721428Y-234293604D02*
X11340476Y-234293604D01*
D10*
D11*
X11185714Y-284912652D02*
X10752380Y-284912652D01*
X10752380Y-285593604D02*
X10752380Y-284293604D01*
X10752380Y-284293604D02*
X11371428Y-284293604D01*
D10*
D11*
X409989000Y-60000000D02*
X407989000Y-60000000D01*
D10*
D11*
X409989000Y-110000000D02*
X407989000Y-110000000D01*
D10*
D11*
X409989000Y-160000000D02*
X407989000Y-160000000D01*
D10*
D11*
X409989000Y-210000000D02*
X407989000Y-210000000D01*
D10*
D11*
X409989000Y-260000000D02*
X407989000Y-260000000D01*
D10*
D11*
X408679476Y-35222176D02*
X409298523Y-35222176D01*
X408555666Y-35593604D02*
X408988999Y-34293604D01*
X408988999Y-34293604D02*
X409422333Y-35593604D01*
D10*
D11*
X409081857Y-84912652D02*
X409267571Y-84974557D01*
X409267571Y-84974557D02*
X409329476Y-85036461D01*
X409329476Y-85036461D02*
X409391380Y-85160271D01*
X409391380Y-85160271D02*
X409391380Y-85345985D01*
X409391380Y-85345985D02*
X409329476Y-85469795D01*
X409329476Y-85469795D02*
X409267571Y-85531700D01*
X409267571Y-85531700D02*
X409143761Y-85593604D01*
X409143761Y-85593604D02*
X408648523Y-85593604D01*
X408648523Y-85593604D02*
X408648523Y-84293604D01*
X408648523Y-84293604D02*
X409081857Y-84293604D01*
X409081857Y-84293604D02*
X409205666Y-84355509D01*
X409205666Y-84355509D02*
X409267571Y-84417414D01*
X409267571Y-84417414D02*
X409329476Y-84541223D01*
X409329476Y-84541223D02*
X409329476Y-84665033D01*
X409329476Y-84665033D02*
X409267571Y-84788842D01*
X409267571Y-84788842D02*
X409205666Y-84850747D01*
X409205666Y-84850747D02*
X409081857Y-84912652D01*
X409081857Y-84912652D02*
X408648523Y-84912652D01*
D10*
D11*
X409391380Y-135469795D02*
X409329476Y-135531700D01*
X409329476Y-135531700D02*
X409143761Y-135593604D01*
X409143761Y-135593604D02*
X409019952Y-135593604D01*
X409019952Y-135593604D02*
X408834238Y-135531700D01*
X408834238Y-135531700D02*
X408710428Y-135407890D01*
X408710428Y-135407890D02*
X408648523Y-135284080D01*
X408648523Y-135284080D02*
X408586619Y-135036461D01*
X408586619Y-135036461D02*
X408586619Y-134850747D01*
X408586619Y-134850747D02*
X408648523Y-134603128D01*
X408648523Y-134603128D02*
X408710428Y-134479319D01*
X408710428Y-134479319D02*
X408834238Y-134355509D01*
X408834238Y-134355509D02*
X409019952Y-134293604D01*
X409019952Y-134293604D02*
X409143761Y-134293604D01*
X409143761Y-134293604D02*
X409329476Y-134355509D01*
X409329476Y-134355509D02*
X409391380Y-134417414D01*
D10*
D11*
X408648523Y-185593604D02*
X408648523Y-184293604D01*
X408648523Y-184293604D02*
X408958047Y-184293604D01*
X408958047Y-184293604D02*
X409143761Y-184355509D01*
X409143761Y-184355509D02*
X409267571Y-184479319D01*
X409267571Y-184479319D02*
X409329476Y-184603128D01*
X409329476Y-184603128D02*
X409391380Y-184850747D01*
X409391380Y-184850747D02*
X409391380Y-185036461D01*
X409391380Y-185036461D02*
X409329476Y-185284080D01*
X409329476Y-185284080D02*
X409267571Y-185407890D01*
X409267571Y-185407890D02*
X409143761Y-185531700D01*
X409143761Y-185531700D02*
X408958047Y-185593604D01*
X408958047Y-185593604D02*
X408648523Y-185593604D01*
D10*
D11*
X408710428Y-234912652D02*
X409143762Y-234912652D01*
X409329476Y-235593604D02*
X408710428Y-235593604D01*
X408710428Y-235593604D02*
X408710428Y-234293604D01*
X408710428Y-234293604D02*
X409329476Y-234293604D01*
D10*
D11*
X409174714Y-284912652D02*
X408741380Y-284912652D01*
X408741380Y-285593604D02*
X408741380Y-284293604D01*
X408741380Y-284293604D02*
X409360428Y-284293604D01*
D10*
D11*
X323444826Y-280788328D02*
X323444826Y-279288328D01*
X323444826Y-279288328D02*
X323801969Y-279288328D01*
X323801969Y-279288328D02*
X324016255Y-279359757D01*
X324016255Y-279359757D02*
X324159112Y-279502614D01*
X324159112Y-279502614D02*
X324230541Y-279645471D01*
X324230541Y-279645471D02*
X324301969Y-279931185D01*
X324301969Y-279931185D02*
X324301969Y-280145471D01*
X324301969Y-280145471D02*
X324230541Y-280431185D01*
X324230541Y-280431185D02*
X324159112Y-280574042D01*
X324159112Y-280574042D02*
X324016255Y-280716900D01*
X324016255Y-280716900D02*
X323801969Y-280788328D01*
X323801969Y-280788328D02*
X323444826Y-280788328D01*
X325587684Y-280788328D02*
X325587684Y-280002614D01*
X325587684Y-280002614D02*
X325516255Y-279859757D01*
X325516255Y-279859757D02*
X325373398Y-279788328D01*
X325373398Y-279788328D02*
X325087684Y-279788328D01*
X325087684Y-279788328D02*
X324944826Y-279859757D01*
X325587684Y-280716900D02*
X325444826Y-280788328D01*
X325444826Y-280788328D02*
X325087684Y-280788328D01*
X325087684Y-280788328D02*
X324944826Y-280716900D01*
X324944826Y-280716900D02*
X324873398Y-280574042D01*
X324873398Y-280574042D02*
X324873398Y-280431185D01*
X324873398Y-280431185D02*
X324944826Y-280288328D01*
X324944826Y-280288328D02*
X325087684Y-280216900D01*
X325087684Y-280216900D02*
X325444826Y-280216900D01*
X325444826Y-280216900D02*
X325587684Y-280145471D01*
X326087684Y-279788328D02*
X326659112Y-279788328D01*
X326301969Y-279288328D02*
X326301969Y-280574042D01*
X326301969Y-280574042D02*
X326373398Y-280716900D01*
X326373398Y-280716900D02*
X326516255Y-280788328D01*
X326516255Y-280788328D02*
X326659112Y-280788328D01*
X327730541Y-280716900D02*
X327587684Y-280788328D01*
X327587684Y-280788328D02*
X327301970Y-280788328D01*
X327301970Y-280788328D02*
X327159112Y-280716900D01*
X327159112Y-280716900D02*
X327087684Y-280574042D01*
X327087684Y-280574042D02*
X327087684Y-280002614D01*
X327087684Y-280002614D02*
X327159112Y-279859757D01*
X327159112Y-279859757D02*
X327301970Y-279788328D01*
X327301970Y-279788328D02*
X327587684Y-279788328D01*
X327587684Y-279788328D02*
X327730541Y-279859757D01*
X327730541Y-279859757D02*
X327801970Y-280002614D01*
X327801970Y-280002614D02*
X327801970Y-280145471D01*
X327801970Y-280145471D02*
X327087684Y-280288328D01*
X328444826Y-280645471D02*
X328516255Y-280716900D01*
X328516255Y-280716900D02*
X328444826Y-280788328D01*
X328444826Y-280788328D02*
X328373398Y-280716900D01*
X328373398Y-280716900D02*
X328444826Y-280645471D01*
X328444826Y-280645471D02*
X328444826Y-280788328D01*
X328444826Y-279859757D02*
X328516255Y-279931185D01*
X328516255Y-279931185D02*
X328444826Y-280002614D01*
X328444826Y-280002614D02*
X328373398Y-279931185D01*
X328373398Y-279931185D02*
X328444826Y-279859757D01*
X328444826Y-279859757D02*
X328444826Y-280002614D01*
D10*
D11*
X299989000Y-281502200D02*
X407989000Y-281502200D01*
D10*
D11*
X301444826Y-283588328D02*
X301444826Y-282088328D01*
X302301969Y-283588328D02*
X301659112Y-282731185D01*
X302301969Y-282088328D02*
X301444826Y-282945471D01*
X302944826Y-283588328D02*
X302944826Y-282588328D01*
X302944826Y-282088328D02*
X302873398Y-282159757D01*
X302873398Y-282159757D02*
X302944826Y-282231185D01*
X302944826Y-282231185D02*
X303016255Y-282159757D01*
X303016255Y-282159757D02*
X302944826Y-282088328D01*
X302944826Y-282088328D02*
X302944826Y-282231185D01*
X304516255Y-283445471D02*
X304444827Y-283516900D01*
X304444827Y-283516900D02*
X304230541Y-283588328D01*
X304230541Y-283588328D02*
X304087684Y-283588328D01*
X304087684Y-283588328D02*
X303873398Y-283516900D01*
X303873398Y-283516900D02*
X303730541Y-283374042D01*
X303730541Y-283374042D02*
X303659112Y-283231185D01*
X303659112Y-283231185D02*
X303587684Y-282945471D01*
X303587684Y-282945471D02*
X303587684Y-282731185D01*
X303587684Y-282731185D02*
X303659112Y-282445471D01*
X303659112Y-282445471D02*
X303730541Y-282302614D01*
X303730541Y-282302614D02*
X303873398Y-282159757D01*
X303873398Y-282159757D02*
X304087684Y-282088328D01*
X304087684Y-282088328D02*
X304230541Y-282088328D01*
X304230541Y-282088328D02*
X304444827Y-282159757D01*
X304444827Y-282159757D02*
X304516255Y-282231185D01*
X305801970Y-283588328D02*
X305801970Y-282802614D01*
X305801970Y-282802614D02*
X305730541Y-282659757D01*
X305730541Y-282659757D02*
X305587684Y-282588328D01*
X305587684Y-282588328D02*
X305301970Y-282588328D01*
X305301970Y-282588328D02*
X305159112Y-282659757D01*
X305801970Y-283516900D02*
X305659112Y-283588328D01*
X305659112Y-283588328D02*
X305301970Y-283588328D01*
X305301970Y-283588328D02*
X305159112Y-283516900D01*
X305159112Y-283516900D02*
X305087684Y-283374042D01*
X305087684Y-283374042D02*
X305087684Y-283231185D01*
X305087684Y-283231185D02*
X305159112Y-283088328D01*
X305159112Y-283088328D02*
X305301970Y-283016900D01*
X305301970Y-283016900D02*
X305659112Y-283016900D01*
X305659112Y-283016900D02*
X305801970Y-282945471D01*
X307159113Y-283588328D02*
X307159113Y-282088328D01*
X307159113Y-283516900D02*
X307016255Y-283588328D01*
X307016255Y-283588328D02*
X306730541Y-283588328D01*
X306730541Y-283588328D02*
X306587684Y-283516900D01*
X306587684Y-283516900D02*
X306516255Y-283445471D01*
X306516255Y-283445471D02*
X306444827Y-283302614D01*
X306444827Y-283302614D02*
X306444827Y-282874042D01*
X306444827Y-282874042D02*
X306516255Y-282731185D01*
X306516255Y-282731185D02*
X306587684Y-282659757D01*
X306587684Y-282659757D02*
X306730541Y-282588328D01*
X306730541Y-282588328D02*
X307016255Y-282588328D01*
X307016255Y-282588328D02*
X307159113Y-282659757D01*
X309016255Y-282802614D02*
X309516255Y-282802614D01*
X309730541Y-283588328D02*
X309016255Y-283588328D01*
X309016255Y-283588328D02*
X309016255Y-282088328D01*
X309016255Y-282088328D02*
X309730541Y-282088328D01*
X310373398Y-283445471D02*
X310444827Y-283516900D01*
X310444827Y-283516900D02*
X310373398Y-283588328D01*
X310373398Y-283588328D02*
X310301970Y-283516900D01*
X310301970Y-283516900D02*
X310373398Y-283445471D01*
X310373398Y-283445471D02*
X310373398Y-283588328D01*
X311087684Y-283588328D02*
X311087684Y-282088328D01*
X311087684Y-282088328D02*
X311444827Y-282088328D01*
X311444827Y-282088328D02*
X311659113Y-282159757D01*
X311659113Y-282159757D02*
X311801970Y-282302614D01*
X311801970Y-282302614D02*
X311873399Y-282445471D01*
X311873399Y-282445471D02*
X311944827Y-282731185D01*
X311944827Y-282731185D02*
X311944827Y-282945471D01*
X311944827Y-282945471D02*
X311873399Y-283231185D01*
X311873399Y-283231185D02*
X311801970Y-283374042D01*
X311801970Y-283374042D02*
X311659113Y-283516900D01*
X311659113Y-283516900D02*
X311444827Y-283588328D01*
X311444827Y-283588328D02*
X311087684Y-283588328D01*
X312587684Y-283445471D02*
X312659113Y-283516900D01*
X312659113Y-283516900D02*
X312587684Y-283588328D01*
X312587684Y-283588328D02*
X312516256Y-283516900D01*
X312516256Y-283516900D02*
X312587684Y-283445471D01*
X312587684Y-283445471D02*
X312587684Y-283588328D01*
X313230542Y-283159757D02*
X313944828Y-283159757D01*
X313087685Y-283588328D02*
X313587685Y-282088328D01*
X313587685Y-282088328D02*
X314087685Y-283588328D01*
X314587684Y-283445471D02*
X314659113Y-283516900D01*
X314659113Y-283516900D02*
X314587684Y-283588328D01*
X314587684Y-283588328D02*
X314516256Y-283516900D01*
X314516256Y-283516900D02*
X314587684Y-283445471D01*
X314587684Y-283445471D02*
X314587684Y-283588328D01*
X317587684Y-283588328D02*
X317587684Y-282088328D01*
X317730542Y-283016900D02*
X318159113Y-283588328D01*
X318159113Y-282588328D02*
X317587684Y-283159757D01*
X318801970Y-283588328D02*
X318801970Y-282588328D01*
X318801970Y-282088328D02*
X318730542Y-282159757D01*
X318730542Y-282159757D02*
X318801970Y-282231185D01*
X318801970Y-282231185D02*
X318873399Y-282159757D01*
X318873399Y-282159757D02*
X318801970Y-282088328D01*
X318801970Y-282088328D02*
X318801970Y-282231185D01*
X320159114Y-283516900D02*
X320016256Y-283588328D01*
X320016256Y-283588328D02*
X319730542Y-283588328D01*
X319730542Y-283588328D02*
X319587685Y-283516900D01*
X319587685Y-283516900D02*
X319516256Y-283445471D01*
X319516256Y-283445471D02*
X319444828Y-283302614D01*
X319444828Y-283302614D02*
X319444828Y-282874042D01*
X319444828Y-282874042D02*
X319516256Y-282731185D01*
X319516256Y-282731185D02*
X319587685Y-282659757D01*
X319587685Y-282659757D02*
X319730542Y-282588328D01*
X319730542Y-282588328D02*
X320016256Y-282588328D01*
X320016256Y-282588328D02*
X320159114Y-282659757D01*
X321444828Y-283588328D02*
X321444828Y-282802614D01*
X321444828Y-282802614D02*
X321373399Y-282659757D01*
X321373399Y-282659757D02*
X321230542Y-282588328D01*
X321230542Y-282588328D02*
X320944828Y-282588328D01*
X320944828Y-282588328D02*
X320801970Y-282659757D01*
X321444828Y-283516900D02*
X321301970Y-283588328D01*
X321301970Y-283588328D02*
X320944828Y-283588328D01*
X320944828Y-283588328D02*
X320801970Y-283516900D01*
X320801970Y-283516900D02*
X320730542Y-283374042D01*
X320730542Y-283374042D02*
X320730542Y-283231185D01*
X320730542Y-283231185D02*
X320801970Y-283088328D01*
X320801970Y-283088328D02*
X320944828Y-283016900D01*
X320944828Y-283016900D02*
X321301970Y-283016900D01*
X321301970Y-283016900D02*
X321444828Y-282945471D01*
X322801971Y-283588328D02*
X322801971Y-282088328D01*
X322801971Y-283516900D02*
X322659113Y-283588328D01*
X322659113Y-283588328D02*
X322373399Y-283588328D01*
X322373399Y-283588328D02*
X322230542Y-283516900D01*
X322230542Y-283516900D02*
X322159113Y-283445471D01*
X322159113Y-283445471D02*
X322087685Y-283302614D01*
X322087685Y-283302614D02*
X322087685Y-282874042D01*
X322087685Y-282874042D02*
X322159113Y-282731185D01*
X322159113Y-282731185D02*
X322230542Y-282659757D01*
X322230542Y-282659757D02*
X322373399Y-282588328D01*
X322373399Y-282588328D02*
X322659113Y-282588328D01*
X322659113Y-282588328D02*
X322801971Y-282659757D01*
X324516256Y-282088328D02*
X325516256Y-282088328D01*
X325516256Y-282088328D02*
X324873399Y-283588328D01*
X326087684Y-283445471D02*
X326159113Y-283516900D01*
X326159113Y-283516900D02*
X326087684Y-283588328D01*
X326087684Y-283588328D02*
X326016256Y-283516900D01*
X326016256Y-283516900D02*
X326087684Y-283445471D01*
X326087684Y-283445471D02*
X326087684Y-283588328D01*
X327087685Y-282088328D02*
X327230542Y-282088328D01*
X327230542Y-282088328D02*
X327373399Y-282159757D01*
X327373399Y-282159757D02*
X327444828Y-282231185D01*
X327444828Y-282231185D02*
X327516256Y-282374042D01*
X327516256Y-282374042D02*
X327587685Y-282659757D01*
X327587685Y-282659757D02*
X327587685Y-283016900D01*
X327587685Y-283016900D02*
X327516256Y-283302614D01*
X327516256Y-283302614D02*
X327444828Y-283445471D01*
X327444828Y-283445471D02*
X327373399Y-283516900D01*
X327373399Y-283516900D02*
X327230542Y-283588328D01*
X327230542Y-283588328D02*
X327087685Y-283588328D01*
X327087685Y-283588328D02*
X326944828Y-283516900D01*
X326944828Y-283516900D02*
X326873399Y-283445471D01*
X326873399Y-283445471D02*
X326801970Y-283302614D01*
X326801970Y-283302614D02*
X326730542Y-283016900D01*
X326730542Y-283016900D02*
X326730542Y-282659757D01*
X326730542Y-282659757D02*
X326801970Y-282374042D01*
X326801970Y-282374042D02*
X326873399Y-282231185D01*
X326873399Y-282231185D02*
X326944828Y-282159757D01*
X326944828Y-282159757D02*
X327087685Y-282088328D01*
X328230541Y-283445471D02*
X328301970Y-283516900D01*
X328301970Y-283516900D02*
X328230541Y-283588328D01*
X328230541Y-283588328D02*
X328159113Y-283516900D01*
X328159113Y-283516900D02*
X328230541Y-283445471D01*
X328230541Y-283445471D02*
X328230541Y-283588328D01*
X329730542Y-283588328D02*
X328873399Y-283588328D01*
X329301970Y-283588328D02*
X329301970Y-282088328D01*
X329301970Y-282088328D02*
X329159113Y-282302614D01*
X329159113Y-282302614D02*
X329016256Y-282445471D01*
X329016256Y-282445471D02*
X328873399Y-282516900D01*
X330659113Y-282088328D02*
X330801970Y-282088328D01*
X330801970Y-282088328D02*
X330944827Y-282159757D01*
X330944827Y-282159757D02*
X331016256Y-282231185D01*
X331016256Y-282231185D02*
X331087684Y-282374042D01*
X331087684Y-282374042D02*
X331159113Y-282659757D01*
X331159113Y-282659757D02*
X331159113Y-283016900D01*
X331159113Y-283016900D02*
X331087684Y-283302614D01*
X331087684Y-283302614D02*
X331016256Y-283445471D01*
X331016256Y-283445471D02*
X330944827Y-283516900D01*
X330944827Y-283516900D02*
X330801970Y-283588328D01*
X330801970Y-283588328D02*
X330659113Y-283588328D01*
X330659113Y-283588328D02*
X330516256Y-283516900D01*
X330516256Y-283516900D02*
X330444827Y-283445471D01*
X330444827Y-283445471D02*
X330373398Y-283302614D01*
X330373398Y-283302614D02*
X330301970Y-283016900D01*
X330301970Y-283016900D02*
X330301970Y-282659757D01*
X330301970Y-282659757D02*
X330373398Y-282374042D01*
X330373398Y-282374042D02*
X330444827Y-282231185D01*
X330444827Y-282231185D02*
X330516256Y-282159757D01*
X330516256Y-282159757D02*
X330659113Y-282088328D01*
D10*
D11*
X299989000Y-278502200D02*
X407989000Y-278502200D01*
D10*
D12*
X387400653Y-280780528D02*
X386900653Y-280066242D01*
X386543510Y-280780528D02*
X386543510Y-279280528D01*
X386543510Y-279280528D02*
X387114939Y-279280528D01*
X387114939Y-279280528D02*
X387257796Y-279351957D01*
X387257796Y-279351957D02*
X387329225Y-279423385D01*
X387329225Y-279423385D02*
X387400653Y-279566242D01*
X387400653Y-279566242D02*
X387400653Y-279780528D01*
X387400653Y-279780528D02*
X387329225Y-279923385D01*
X387329225Y-279923385D02*
X387257796Y-279994814D01*
X387257796Y-279994814D02*
X387114939Y-280066242D01*
X387114939Y-280066242D02*
X386543510Y-280066242D01*
X388614939Y-280709100D02*
X388472082Y-280780528D01*
X388472082Y-280780528D02*
X388186368Y-280780528D01*
X388186368Y-280780528D02*
X388043510Y-280709100D01*
X388043510Y-280709100D02*
X387972082Y-280566242D01*
X387972082Y-280566242D02*
X387972082Y-279994814D01*
X387972082Y-279994814D02*
X388043510Y-279851957D01*
X388043510Y-279851957D02*
X388186368Y-279780528D01*
X388186368Y-279780528D02*
X388472082Y-279780528D01*
X388472082Y-279780528D02*
X388614939Y-279851957D01*
X388614939Y-279851957D02*
X388686368Y-279994814D01*
X388686368Y-279994814D02*
X388686368Y-280137671D01*
X388686368Y-280137671D02*
X387972082Y-280280528D01*
X389186367Y-279780528D02*
X389543510Y-280780528D01*
X389543510Y-280780528D02*
X389900653Y-279780528D01*
X390472081Y-280637671D02*
X390543510Y-280709100D01*
X390543510Y-280709100D02*
X390472081Y-280780528D01*
X390472081Y-280780528D02*
X390400653Y-280709100D01*
X390400653Y-280709100D02*
X390472081Y-280637671D01*
X390472081Y-280637671D02*
X390472081Y-280780528D01*
X390472081Y-279851957D02*
X390543510Y-279923385D01*
X390543510Y-279923385D02*
X390472081Y-279994814D01*
X390472081Y-279994814D02*
X390400653Y-279923385D01*
X390400653Y-279923385D02*
X390472081Y-279851957D01*
X390472081Y-279851957D02*
X390472081Y-279994814D01*
D10*
D11*
X301373398Y-280716900D02*
X301587684Y-280788328D01*
X301587684Y-280788328D02*
X301944826Y-280788328D01*
X301944826Y-280788328D02*
X302087684Y-280716900D01*
X302087684Y-280716900D02*
X302159112Y-280645471D01*
X302159112Y-280645471D02*
X302230541Y-280502614D01*
X302230541Y-280502614D02*
X302230541Y-280359757D01*
X302230541Y-280359757D02*
X302159112Y-280216900D01*
X302159112Y-280216900D02*
X302087684Y-280145471D01*
X302087684Y-280145471D02*
X301944826Y-280074042D01*
X301944826Y-280074042D02*
X301659112Y-280002614D01*
X301659112Y-280002614D02*
X301516255Y-279931185D01*
X301516255Y-279931185D02*
X301444826Y-279859757D01*
X301444826Y-279859757D02*
X301373398Y-279716900D01*
X301373398Y-279716900D02*
X301373398Y-279574042D01*
X301373398Y-279574042D02*
X301444826Y-279431185D01*
X301444826Y-279431185D02*
X301516255Y-279359757D01*
X301516255Y-279359757D02*
X301659112Y-279288328D01*
X301659112Y-279288328D02*
X302016255Y-279288328D01*
X302016255Y-279288328D02*
X302230541Y-279359757D01*
X302873397Y-280788328D02*
X302873397Y-279788328D01*
X302873397Y-279288328D02*
X302801969Y-279359757D01*
X302801969Y-279359757D02*
X302873397Y-279431185D01*
X302873397Y-279431185D02*
X302944826Y-279359757D01*
X302944826Y-279359757D02*
X302873397Y-279288328D01*
X302873397Y-279288328D02*
X302873397Y-279431185D01*
X303444826Y-279788328D02*
X304230541Y-279788328D01*
X304230541Y-279788328D02*
X303444826Y-280788328D01*
X303444826Y-280788328D02*
X304230541Y-280788328D01*
X305373398Y-280716900D02*
X305230541Y-280788328D01*
X305230541Y-280788328D02*
X304944827Y-280788328D01*
X304944827Y-280788328D02*
X304801969Y-280716900D01*
X304801969Y-280716900D02*
X304730541Y-280574042D01*
X304730541Y-280574042D02*
X304730541Y-280002614D01*
X304730541Y-280002614D02*
X304801969Y-279859757D01*
X304801969Y-279859757D02*
X304944827Y-279788328D01*
X304944827Y-279788328D02*
X305230541Y-279788328D01*
X305230541Y-279788328D02*
X305373398Y-279859757D01*
X305373398Y-279859757D02*
X305444827Y-280002614D01*
X305444827Y-280002614D02*
X305444827Y-280145471D01*
X305444827Y-280145471D02*
X304730541Y-280288328D01*
X306087683Y-280645471D02*
X306159112Y-280716900D01*
X306159112Y-280716900D02*
X306087683Y-280788328D01*
X306087683Y-280788328D02*
X306016255Y-280716900D01*
X306016255Y-280716900D02*
X306087683Y-280645471D01*
X306087683Y-280645471D02*
X306087683Y-280788328D01*
X306087683Y-279859757D02*
X306159112Y-279931185D01*
X306159112Y-279931185D02*
X306087683Y-280002614D01*
X306087683Y-280002614D02*
X306016255Y-279931185D01*
X306016255Y-279931185D02*
X306087683Y-279859757D01*
X306087683Y-279859757D02*
X306087683Y-280002614D01*
X307873398Y-280359757D02*
X308587684Y-280359757D01*
X307730541Y-280788328D02*
X308230541Y-279288328D01*
X308230541Y-279288328D02*
X308730541Y-280788328D01*
X309087683Y-279288328D02*
X310016255Y-279288328D01*
X310016255Y-279288328D02*
X309516255Y-279859757D01*
X309516255Y-279859757D02*
X309730540Y-279859757D01*
X309730540Y-279859757D02*
X309873398Y-279931185D01*
X309873398Y-279931185D02*
X309944826Y-280002614D01*
X309944826Y-280002614D02*
X310016255Y-280145471D01*
X310016255Y-280145471D02*
X310016255Y-280502614D01*
X310016255Y-280502614D02*
X309944826Y-280645471D01*
X309944826Y-280645471D02*
X309873398Y-280716900D01*
X309873398Y-280716900D02*
X309730540Y-280788328D01*
X309730540Y-280788328D02*
X309301969Y-280788328D01*
X309301969Y-280788328D02*
X309159112Y-280716900D01*
X309159112Y-280716900D02*
X309087683Y-280645471D01*
D10*
D11*
X386444826Y-283588328D02*
X386444826Y-282088328D01*
X387801970Y-283588328D02*
X387801970Y-282088328D01*
X387801970Y-283516900D02*
X387659112Y-283588328D01*
X387659112Y-283588328D02*
X387373398Y-283588328D01*
X387373398Y-283588328D02*
X387230541Y-283516900D01*
X387230541Y-283516900D02*
X387159112Y-283445471D01*
X387159112Y-283445471D02*
X387087684Y-283302614D01*
X387087684Y-283302614D02*
X387087684Y-282874042D01*
X387087684Y-282874042D02*
X387159112Y-282731185D01*
X387159112Y-282731185D02*
X387230541Y-282659757D01*
X387230541Y-282659757D02*
X387373398Y-282588328D01*
X387373398Y-282588328D02*
X387659112Y-282588328D01*
X387659112Y-282588328D02*
X387801970Y-282659757D01*
X388516255Y-283445471D02*
X388587684Y-283516900D01*
X388587684Y-283516900D02*
X388516255Y-283588328D01*
X388516255Y-283588328D02*
X388444827Y-283516900D01*
X388444827Y-283516900D02*
X388516255Y-283445471D01*
X388516255Y-283445471D02*
X388516255Y-283588328D01*
X388516255Y-282659757D02*
X388587684Y-282731185D01*
X388587684Y-282731185D02*
X388516255Y-282802614D01*
X388516255Y-282802614D02*
X388444827Y-282731185D01*
X388444827Y-282731185D02*
X388516255Y-282659757D01*
X388516255Y-282659757D02*
X388516255Y-282802614D01*
X391159113Y-283588328D02*
X390301970Y-283588328D01*
X390730541Y-283588328D02*
X390730541Y-282088328D01*
X390730541Y-282088328D02*
X390587684Y-282302614D01*
X390587684Y-282302614D02*
X390444827Y-282445471D01*
X390444827Y-282445471D02*
X390301970Y-282516900D01*
X392873398Y-282016900D02*
X391587684Y-283945471D01*
X394159113Y-283588328D02*
X393301970Y-283588328D01*
X393730541Y-283588328D02*
X393730541Y-282088328D01*
X393730541Y-282088328D02*
X393587684Y-282302614D01*
X393587684Y-282302614D02*
X393444827Y-282445471D01*
X393444827Y-282445471D02*
X393301970Y-282516900D01*
D10*
D11*
X299989000Y-274502200D02*
X407989000Y-274502200D01*
D10*
D13*
X301680728Y-275206638D02*
X302823585Y-275206638D01*
X302002157Y-277206638D02*
X302252157Y-275206638D01*
X303240252Y-277206638D02*
X303406919Y-275873304D01*
X303490252Y-275206638D02*
X303383109Y-275301876D01*
X303383109Y-275301876D02*
X303466443Y-275397114D01*
X303466443Y-275397114D02*
X303573586Y-275301876D01*
X303573586Y-275301876D02*
X303490252Y-275206638D01*
X303490252Y-275206638D02*
X303466443Y-275397114D01*
X304073586Y-275873304D02*
X304835490Y-275873304D01*
X304442633Y-275206638D02*
X304228348Y-276920923D01*
X304228348Y-276920923D02*
X304299776Y-277111400D01*
X304299776Y-277111400D02*
X304478348Y-277206638D01*
X304478348Y-277206638D02*
X304668824Y-277206638D01*
X305621205Y-277206638D02*
X305442633Y-277111400D01*
X305442633Y-277111400D02*
X305371205Y-276920923D01*
X305371205Y-276920923D02*
X305585490Y-275206638D01*
X307156919Y-277111400D02*
X306954538Y-277206638D01*
X306954538Y-277206638D02*
X306573585Y-277206638D01*
X306573585Y-277206638D02*
X306395014Y-277111400D01*
X306395014Y-277111400D02*
X306323585Y-276920923D01*
X306323585Y-276920923D02*
X306418824Y-276159019D01*
X306418824Y-276159019D02*
X306537871Y-275968542D01*
X306537871Y-275968542D02*
X306740252Y-275873304D01*
X306740252Y-275873304D02*
X307121204Y-275873304D01*
X307121204Y-275873304D02*
X307299776Y-275968542D01*
X307299776Y-275968542D02*
X307371204Y-276159019D01*
X307371204Y-276159019D02*
X307347395Y-276349495D01*
X307347395Y-276349495D02*
X306371204Y-276539971D01*
X308121205Y-277016161D02*
X308204538Y-277111400D01*
X308204538Y-277111400D02*
X308097395Y-277206638D01*
X308097395Y-277206638D02*
X308014062Y-277111400D01*
X308014062Y-277111400D02*
X308121205Y-277016161D01*
X308121205Y-277016161D02*
X308097395Y-277206638D01*
X308252157Y-275968542D02*
X308335490Y-276063780D01*
X308335490Y-276063780D02*
X308228348Y-276159019D01*
X308228348Y-276159019D02*
X308145014Y-276063780D01*
X308145014Y-276063780D02*
X308252157Y-275968542D01*
X308252157Y-275968542D02*
X308228348Y-276159019D01*
D10*
D11*
X301944826Y-272602614D02*
X301444826Y-272602614D01*
X301444826Y-273388328D02*
X301444826Y-271888328D01*
X301444826Y-271888328D02*
X302159112Y-271888328D01*
X302730540Y-273388328D02*
X302730540Y-272388328D01*
X302730540Y-271888328D02*
X302659112Y-271959757D01*
X302659112Y-271959757D02*
X302730540Y-272031185D01*
X302730540Y-272031185D02*
X302801969Y-271959757D01*
X302801969Y-271959757D02*
X302730540Y-271888328D01*
X302730540Y-271888328D02*
X302730540Y-272031185D01*
X303659112Y-273388328D02*
X303516255Y-273316900D01*
X303516255Y-273316900D02*
X303444826Y-273174042D01*
X303444826Y-273174042D02*
X303444826Y-271888328D01*
X304801969Y-273316900D02*
X304659112Y-273388328D01*
X304659112Y-273388328D02*
X304373398Y-273388328D01*
X304373398Y-273388328D02*
X304230540Y-273316900D01*
X304230540Y-273316900D02*
X304159112Y-273174042D01*
X304159112Y-273174042D02*
X304159112Y-272602614D01*
X304159112Y-272602614D02*
X304230540Y-272459757D01*
X304230540Y-272459757D02*
X304373398Y-272388328D01*
X304373398Y-272388328D02*
X304659112Y-272388328D01*
X304659112Y-272388328D02*
X304801969Y-272459757D01*
X304801969Y-272459757D02*
X304873398Y-272602614D01*
X304873398Y-272602614D02*
X304873398Y-272745471D01*
X304873398Y-272745471D02*
X304159112Y-272888328D01*
X305516254Y-273245471D02*
X305587683Y-273316900D01*
X305587683Y-273316900D02*
X305516254Y-273388328D01*
X305516254Y-273388328D02*
X305444826Y-273316900D01*
X305444826Y-273316900D02*
X305516254Y-273245471D01*
X305516254Y-273245471D02*
X305516254Y-273388328D01*
X305516254Y-272459757D02*
X305587683Y-272531185D01*
X305587683Y-272531185D02*
X305516254Y-272602614D01*
X305516254Y-272602614D02*
X305444826Y-272531185D01*
X305444826Y-272531185D02*
X305516254Y-272459757D01*
X305516254Y-272459757D02*
X305516254Y-272602614D01*
X308373397Y-273531185D02*
X308230540Y-273459757D01*
X308230540Y-273459757D02*
X308087683Y-273316900D01*
X308087683Y-273316900D02*
X307873397Y-273102614D01*
X307873397Y-273102614D02*
X307730540Y-273031185D01*
X307730540Y-273031185D02*
X307587683Y-273031185D01*
X307659112Y-273388328D02*
X307516255Y-273316900D01*
X307516255Y-273316900D02*
X307373397Y-273174042D01*
X307373397Y-273174042D02*
X307301969Y-272888328D01*
X307301969Y-272888328D02*
X307301969Y-272388328D01*
X307301969Y-272388328D02*
X307373397Y-272102614D01*
X307373397Y-272102614D02*
X307516255Y-271959757D01*
X307516255Y-271959757D02*
X307659112Y-271888328D01*
X307659112Y-271888328D02*
X307944826Y-271888328D01*
X307944826Y-271888328D02*
X308087683Y-271959757D01*
X308087683Y-271959757D02*
X308230540Y-272102614D01*
X308230540Y-272102614D02*
X308301969Y-272388328D01*
X308301969Y-272388328D02*
X308301969Y-272888328D01*
X308301969Y-272888328D02*
X308230540Y-273174042D01*
X308230540Y-273174042D02*
X308087683Y-273316900D01*
X308087683Y-273316900D02*
X307944826Y-273388328D01*
X307944826Y-273388328D02*
X307659112Y-273388328D01*
X309587684Y-272388328D02*
X309587684Y-273388328D01*
X308944826Y-272388328D02*
X308944826Y-273174042D01*
X308944826Y-273174042D02*
X309016255Y-273316900D01*
X309016255Y-273316900D02*
X309159112Y-273388328D01*
X309159112Y-273388328D02*
X309373398Y-273388328D01*
X309373398Y-273388328D02*
X309516255Y-273316900D01*
X309516255Y-273316900D02*
X309587684Y-273245471D01*
X310944827Y-273388328D02*
X310944827Y-272602614D01*
X310944827Y-272602614D02*
X310873398Y-272459757D01*
X310873398Y-272459757D02*
X310730541Y-272388328D01*
X310730541Y-272388328D02*
X310444827Y-272388328D01*
X310444827Y-272388328D02*
X310301969Y-272459757D01*
X310944827Y-273316900D02*
X310801969Y-273388328D01*
X310801969Y-273388328D02*
X310444827Y-273388328D01*
X310444827Y-273388328D02*
X310301969Y-273316900D01*
X310301969Y-273316900D02*
X310230541Y-273174042D01*
X310230541Y-273174042D02*
X310230541Y-273031185D01*
X310230541Y-273031185D02*
X310301969Y-272888328D01*
X310301969Y-272888328D02*
X310444827Y-272816900D01*
X310444827Y-272816900D02*
X310801969Y-272816900D01*
X310801969Y-272816900D02*
X310944827Y-272745471D01*
X311659112Y-273388328D02*
X311659112Y-272388328D01*
X311659112Y-272674042D02*
X311730541Y-272531185D01*
X311730541Y-272531185D02*
X311801970Y-272459757D01*
X311801970Y-272459757D02*
X311944827Y-272388328D01*
X311944827Y-272388328D02*
X312087684Y-272388328D01*
X312373398Y-272388328D02*
X312944826Y-272388328D01*
X312587683Y-271888328D02*
X312587683Y-273174042D01*
X312587683Y-273174042D02*
X312659112Y-273316900D01*
X312659112Y-273316900D02*
X312801969Y-273388328D01*
X312801969Y-273388328D02*
X312944826Y-273388328D01*
X313301969Y-272388328D02*
X314087684Y-272388328D01*
X314087684Y-272388328D02*
X313301969Y-273388328D01*
X313301969Y-273388328D02*
X314087684Y-273388328D01*
X314301970Y-273531185D02*
X315444827Y-273531185D01*
X315659112Y-272388328D02*
X316016255Y-273388328D01*
X316016255Y-273388328D02*
X316373398Y-272388328D01*
X317730541Y-273388328D02*
X316873398Y-273388328D01*
X317301969Y-273388328D02*
X317301969Y-271888328D01*
X317301969Y-271888328D02*
X317159112Y-272102614D01*
X317159112Y-272102614D02*
X317016255Y-272245471D01*
X317016255Y-272245471D02*
X316873398Y-272316900D01*
X318373397Y-272388328D02*
X318373397Y-273888328D01*
X318373397Y-272459757D02*
X318516255Y-272388328D01*
X318516255Y-272388328D02*
X318801969Y-272388328D01*
X318801969Y-272388328D02*
X318944826Y-272459757D01*
X318944826Y-272459757D02*
X319016255Y-272531185D01*
X319016255Y-272531185D02*
X319087683Y-272674042D01*
X319087683Y-272674042D02*
X319087683Y-273102614D01*
X319087683Y-273102614D02*
X319016255Y-273245471D01*
X319016255Y-273245471D02*
X318944826Y-273316900D01*
X318944826Y-273316900D02*
X318801969Y-273388328D01*
X318801969Y-273388328D02*
X318516255Y-273388328D01*
X318516255Y-273388328D02*
X318373397Y-273316900D01*
X319659112Y-272031185D02*
X319730540Y-271959757D01*
X319730540Y-271959757D02*
X319873398Y-271888328D01*
X319873398Y-271888328D02*
X320230540Y-271888328D01*
X320230540Y-271888328D02*
X320373398Y-271959757D01*
X320373398Y-271959757D02*
X320444826Y-272031185D01*
X320444826Y-272031185D02*
X320516255Y-272174042D01*
X320516255Y-272174042D02*
X320516255Y-272316900D01*
X320516255Y-272316900D02*
X320444826Y-272531185D01*
X320444826Y-272531185D02*
X319587683Y-273388328D01*
X319587683Y-273388328D02*
X320516255Y-273388328D01*
X321159111Y-273245471D02*
X321230540Y-273316900D01*
X321230540Y-273316900D02*
X321159111Y-273388328D01*
X321159111Y-273388328D02*
X321087683Y-273316900D01*
X321087683Y-273316900D02*
X321159111Y-273245471D01*
X321159111Y-273245471D02*
X321159111Y-273388328D01*
X321873397Y-273388328D02*
X321873397Y-271888328D01*
X322016255Y-272816900D02*
X322444826Y-273388328D01*
X322444826Y-272388328D02*
X321873397Y-272959757D01*
X323087683Y-273388328D02*
X323087683Y-272388328D01*
X323087683Y-271888328D02*
X323016255Y-271959757D01*
X323016255Y-271959757D02*
X323087683Y-272031185D01*
X323087683Y-272031185D02*
X323159112Y-271959757D01*
X323159112Y-271959757D02*
X323087683Y-271888328D01*
X323087683Y-271888328D02*
X323087683Y-272031185D01*
X324444827Y-273316900D02*
X324301969Y-273388328D01*
X324301969Y-273388328D02*
X324016255Y-273388328D01*
X324016255Y-273388328D02*
X323873398Y-273316900D01*
X323873398Y-273316900D02*
X323801969Y-273245471D01*
X323801969Y-273245471D02*
X323730541Y-273102614D01*
X323730541Y-273102614D02*
X323730541Y-272674042D01*
X323730541Y-272674042D02*
X323801969Y-272531185D01*
X323801969Y-272531185D02*
X323873398Y-272459757D01*
X323873398Y-272459757D02*
X324016255Y-272388328D01*
X324016255Y-272388328D02*
X324301969Y-272388328D01*
X324301969Y-272388328D02*
X324444827Y-272459757D01*
X325730541Y-273388328D02*
X325730541Y-272602614D01*
X325730541Y-272602614D02*
X325659112Y-272459757D01*
X325659112Y-272459757D02*
X325516255Y-272388328D01*
X325516255Y-272388328D02*
X325230541Y-272388328D01*
X325230541Y-272388328D02*
X325087683Y-272459757D01*
X325730541Y-273316900D02*
X325587683Y-273388328D01*
X325587683Y-273388328D02*
X325230541Y-273388328D01*
X325230541Y-273388328D02*
X325087683Y-273316900D01*
X325087683Y-273316900D02*
X325016255Y-273174042D01*
X325016255Y-273174042D02*
X325016255Y-273031185D01*
X325016255Y-273031185D02*
X325087683Y-272888328D01*
X325087683Y-272888328D02*
X325230541Y-272816900D01*
X325230541Y-272816900D02*
X325587683Y-272816900D01*
X325587683Y-272816900D02*
X325730541Y-272745471D01*
X327087684Y-273388328D02*
X327087684Y-271888328D01*
X327087684Y-273316900D02*
X326944826Y-273388328D01*
X326944826Y-273388328D02*
X326659112Y-273388328D01*
X326659112Y-273388328D02*
X326516255Y-273316900D01*
X326516255Y-273316900D02*
X326444826Y-273245471D01*
X326444826Y-273245471D02*
X326373398Y-273102614D01*
X326373398Y-273102614D02*
X326373398Y-272674042D01*
X326373398Y-272674042D02*
X326444826Y-272531185D01*
X326444826Y-272531185D02*
X326516255Y-272459757D01*
X326516255Y-272459757D02*
X326659112Y-272388328D01*
X326659112Y-272388328D02*
X326944826Y-272388328D01*
X326944826Y-272388328D02*
X327087684Y-272459757D01*
X327444827Y-273531185D02*
X328587684Y-273531185D01*
X328944826Y-272388328D02*
X328944826Y-273888328D01*
X328944826Y-272459757D02*
X329087684Y-272388328D01*
X329087684Y-272388328D02*
X329373398Y-272388328D01*
X329373398Y-272388328D02*
X329516255Y-272459757D01*
X329516255Y-272459757D02*
X329587684Y-272531185D01*
X329587684Y-272531185D02*
X329659112Y-272674042D01*
X329659112Y-272674042D02*
X329659112Y-273102614D01*
X329659112Y-273102614D02*
X329587684Y-273245471D01*
X329587684Y-273245471D02*
X329516255Y-273316900D01*
X329516255Y-273316900D02*
X329373398Y-273388328D01*
X329373398Y-273388328D02*
X329087684Y-273388328D01*
X329087684Y-273388328D02*
X328944826Y-273316900D01*
X330944827Y-273316900D02*
X330801969Y-273388328D01*
X330801969Y-273388328D02*
X330516255Y-273388328D01*
X330516255Y-273388328D02*
X330373398Y-273316900D01*
X330373398Y-273316900D02*
X330301969Y-273245471D01*
X330301969Y-273245471D02*
X330230541Y-273102614D01*
X330230541Y-273102614D02*
X330230541Y-272674042D01*
X330230541Y-272674042D02*
X330301969Y-272531185D01*
X330301969Y-272531185D02*
X330373398Y-272459757D01*
X330373398Y-272459757D02*
X330516255Y-272388328D01*
X330516255Y-272388328D02*
X330801969Y-272388328D01*
X330801969Y-272388328D02*
X330944827Y-272459757D01*
X331587683Y-273388328D02*
X331587683Y-271888328D01*
X331587683Y-272459757D02*
X331730541Y-272388328D01*
X331730541Y-272388328D02*
X332016255Y-272388328D01*
X332016255Y-272388328D02*
X332159112Y-272459757D01*
X332159112Y-272459757D02*
X332230541Y-272531185D01*
X332230541Y-272531185D02*
X332301969Y-272674042D01*
X332301969Y-272674042D02*
X332301969Y-273102614D01*
X332301969Y-273102614D02*
X332230541Y-273245471D01*
X332230541Y-273245471D02*
X332159112Y-273316900D01*
X332159112Y-273316900D02*
X332016255Y-273388328D01*
X332016255Y-273388328D02*
X331730541Y-273388328D01*
X331730541Y-273388328D02*
X331587683Y-273316900D01*
D10*
D11*
X299989000Y-268502200D02*
X407989000Y-268502200D01*
D10*
D11*
X301373398Y-270616900D02*
X301587684Y-270688328D01*
X301587684Y-270688328D02*
X301944826Y-270688328D01*
X301944826Y-270688328D02*
X302087684Y-270616900D01*
X302087684Y-270616900D02*
X302159112Y-270545471D01*
X302159112Y-270545471D02*
X302230541Y-270402614D01*
X302230541Y-270402614D02*
X302230541Y-270259757D01*
X302230541Y-270259757D02*
X302159112Y-270116900D01*
X302159112Y-270116900D02*
X302087684Y-270045471D01*
X302087684Y-270045471D02*
X301944826Y-269974042D01*
X301944826Y-269974042D02*
X301659112Y-269902614D01*
X301659112Y-269902614D02*
X301516255Y-269831185D01*
X301516255Y-269831185D02*
X301444826Y-269759757D01*
X301444826Y-269759757D02*
X301373398Y-269616900D01*
X301373398Y-269616900D02*
X301373398Y-269474042D01*
X301373398Y-269474042D02*
X301444826Y-269331185D01*
X301444826Y-269331185D02*
X301516255Y-269259757D01*
X301516255Y-269259757D02*
X301659112Y-269188328D01*
X301659112Y-269188328D02*
X302016255Y-269188328D01*
X302016255Y-269188328D02*
X302230541Y-269259757D01*
X302873397Y-270688328D02*
X302873397Y-269188328D01*
X303516255Y-270688328D02*
X303516255Y-269902614D01*
X303516255Y-269902614D02*
X303444826Y-269759757D01*
X303444826Y-269759757D02*
X303301969Y-269688328D01*
X303301969Y-269688328D02*
X303087683Y-269688328D01*
X303087683Y-269688328D02*
X302944826Y-269759757D01*
X302944826Y-269759757D02*
X302873397Y-269831185D01*
X304801969Y-270616900D02*
X304659112Y-270688328D01*
X304659112Y-270688328D02*
X304373398Y-270688328D01*
X304373398Y-270688328D02*
X304230540Y-270616900D01*
X304230540Y-270616900D02*
X304159112Y-270474042D01*
X304159112Y-270474042D02*
X304159112Y-269902614D01*
X304159112Y-269902614D02*
X304230540Y-269759757D01*
X304230540Y-269759757D02*
X304373398Y-269688328D01*
X304373398Y-269688328D02*
X304659112Y-269688328D01*
X304659112Y-269688328D02*
X304801969Y-269759757D01*
X304801969Y-269759757D02*
X304873398Y-269902614D01*
X304873398Y-269902614D02*
X304873398Y-270045471D01*
X304873398Y-270045471D02*
X304159112Y-270188328D01*
X306087683Y-270616900D02*
X305944826Y-270688328D01*
X305944826Y-270688328D02*
X305659112Y-270688328D01*
X305659112Y-270688328D02*
X305516254Y-270616900D01*
X305516254Y-270616900D02*
X305444826Y-270474042D01*
X305444826Y-270474042D02*
X305444826Y-269902614D01*
X305444826Y-269902614D02*
X305516254Y-269759757D01*
X305516254Y-269759757D02*
X305659112Y-269688328D01*
X305659112Y-269688328D02*
X305944826Y-269688328D01*
X305944826Y-269688328D02*
X306087683Y-269759757D01*
X306087683Y-269759757D02*
X306159112Y-269902614D01*
X306159112Y-269902614D02*
X306159112Y-270045471D01*
X306159112Y-270045471D02*
X305444826Y-270188328D01*
X306587683Y-269688328D02*
X307159111Y-269688328D01*
X306801968Y-269188328D02*
X306801968Y-270474042D01*
X306801968Y-270474042D02*
X306873397Y-270616900D01*
X306873397Y-270616900D02*
X307016254Y-270688328D01*
X307016254Y-270688328D02*
X307159111Y-270688328D01*
X307659111Y-270545471D02*
X307730540Y-270616900D01*
X307730540Y-270616900D02*
X307659111Y-270688328D01*
X307659111Y-270688328D02*
X307587683Y-270616900D01*
X307587683Y-270616900D02*
X307659111Y-270545471D01*
X307659111Y-270545471D02*
X307659111Y-270688328D01*
X307659111Y-269759757D02*
X307730540Y-269831185D01*
X307730540Y-269831185D02*
X307659111Y-269902614D01*
X307659111Y-269902614D02*
X307587683Y-269831185D01*
X307587683Y-269831185D02*
X307659111Y-269759757D01*
X307659111Y-269759757D02*
X307659111Y-269902614D01*
D10*
D12*
D10*
D11*
D10*
D11*
D10*
D11*
D10*
D11*
D10*
D11*
X319989000Y-278502200D02*
X319989000Y-281502200D01*
D10*
D11*
X383989000Y-278502200D02*
X383989000Y-285002200D01*
%TO.C,Q3*%
G36*
X110844900Y-135365501D02*
G01*
X108533500Y-135365501D01*
X108533500Y-133562101D01*
X110844900Y-133562101D01*
X110844900Y-135365501D01*
G37*
%TD*%
D14*
%TO.C,H4*%
X144324000Y-103488000D03*
%TD*%
D15*
%TO.C,P1*%
X148629000Y-104538000D03*
X203010000Y-101488000D03*
%TD*%
D14*
%TO.C,H5*%
X207324000Y-103488000D03*
%TD*%
D16*
%TO.C,U33*%
X136068000Y-123255000D03*
X135318000Y-123255000D03*
X134568000Y-123255000D03*
%TD*%
D14*
%TO.C,H7*%
X277324000Y-103188000D03*
%TD*%
%TO.C,H6*%
X214324000Y-103488000D03*
%TD*%
D15*
%TO.C,P2*%
X218629000Y-104538000D03*
X273010000Y-101488000D03*
%TD*%
D17*
%TO.C,R117*%
X223877500Y-216916000D03*
X225702500Y-216916000D03*
%TD*%
D18*
%TO.C,C803*%
X141082000Y-189103000D03*
X140122000Y-189103000D03*
%TD*%
D19*
%TO.C,R96*%
X105823376Y-125333625D03*
X106544624Y-124612377D03*
%TD*%
D20*
%TO.C,R806*%
X141857000Y-181034000D03*
X142877000Y-181034000D03*
%TD*%
D21*
%TO.C,C3207*%
X335054000Y-183388000D03*
X336014000Y-183388000D03*
%TD*%
D22*
%TO.C,C513*%
X150580411Y-154346589D03*
X149901589Y-155025411D03*
%TD*%
D23*
%TO.C,R2409*%
X246686800Y-143538000D03*
X245666800Y-143538000D03*
%TD*%
%TO.C,R1401*%
X174450000Y-189103000D03*
X173430000Y-189103000D03*
%TD*%
D24*
%TO.C,L503*%
X99822000Y-186413000D03*
X99822000Y-185443000D03*
%TD*%
D25*
%TO.C,C506*%
X93472000Y-183360000D03*
X93472000Y-182400000D03*
%TD*%
%TO.C,C808*%
X146558000Y-181201000D03*
X146558000Y-180241000D03*
%TD*%
%TO.C,C706*%
X124968000Y-183360000D03*
X124968000Y-182400000D03*
%TD*%
%TO.C,C608*%
X115062000Y-181201000D03*
X115062000Y-180241000D03*
%TD*%
D23*
%TO.C,R3109*%
X288469800Y-146459000D03*
X287449800Y-146459000D03*
%TD*%
D26*
%TO.C,C913*%
X176235866Y-144680293D03*
X176235866Y-145640293D03*
%TD*%
D18*
%TO.C,C603*%
X109586000Y-189103000D03*
X108626000Y-189103000D03*
%TD*%
D27*
%TO.C,R608*%
X157434810Y-154036382D03*
X156713562Y-153315134D03*
%TD*%
D19*
%TO.C,R209*%
X132989375Y-149454885D03*
X133710623Y-148733637D03*
%TD*%
D24*
%TO.C,L3001*%
X297180000Y-183365000D03*
X297180000Y-182395000D03*
%TD*%
D28*
%TO.C,C2201*%
X234315000Y-207785000D03*
X234315000Y-206235000D03*
%TD*%
D23*
%TO.C,R3007*%
X302389000Y-181034000D03*
X301369000Y-181034000D03*
%TD*%
D25*
%TO.C,C12*%
X152037000Y-141958000D03*
X152037000Y-140998000D03*
%TD*%
D29*
%TO.C,U36*%
X322298000Y-135166500D03*
X323248000Y-135166500D03*
X324198000Y-135166500D03*
X324198000Y-137441500D03*
X322298000Y-137441500D03*
%TD*%
D26*
%TO.C,C1613*%
X199644000Y-143030000D03*
X199644000Y-143990000D03*
%TD*%
D20*
%TO.C,R802*%
X144016000Y-189103000D03*
X145036000Y-189103000D03*
%TD*%
D25*
%TO.C,C185*%
X280670000Y-136878000D03*
X280670000Y-135918000D03*
%TD*%
D30*
%TO.C,C1911*%
X223185277Y-150833704D03*
X222506455Y-150154882D03*
%TD*%
D25*
%TO.C,C1306*%
X156464000Y-183360000D03*
X156464000Y-182400000D03*
%TD*%
%TO.C,C1506*%
X187960000Y-183360000D03*
X187960000Y-182400000D03*
%TD*%
D31*
%TO.C,J5*%
X307340000Y-119380000D03*
D32*
X309880000Y-121920000D03*
X309880000Y-116840000D03*
X304800000Y-121920000D03*
X304800000Y-116840000D03*
%TD*%
D24*
%TO.C,L2101*%
X218440000Y-183365000D03*
X218440000Y-182395000D03*
%TD*%
D18*
%TO.C,C1609*%
X210030000Y-184404000D03*
X209070000Y-184404000D03*
%TD*%
D33*
%TO.C,K3001*%
X302222000Y-191135000D03*
X302222000Y-196215000D03*
X302222000Y-198755000D03*
X302222000Y-201295000D03*
X302222000Y-203835000D03*
X294932000Y-203835000D03*
X294932000Y-201295000D03*
X294932000Y-198755000D03*
X294932000Y-196215000D03*
X294932000Y-191135000D03*
%TD*%
D34*
%TO.C,L7*%
X119350650Y-121426001D03*
X115310650Y-121426001D03*
%TD*%
D20*
%TO.C,R505*%
X95629000Y-186368000D03*
X96649000Y-186368000D03*
%TD*%
D24*
%TO.C,L603*%
X115570000Y-186413000D03*
X115570000Y-185443000D03*
%TD*%
D18*
%TO.C,C3009*%
X304518000Y-184404000D03*
X303558000Y-184404000D03*
%TD*%
D30*
%TO.C,C2712*%
X267929118Y-152016545D03*
X267250296Y-151337723D03*
%TD*%
D28*
%TO.C,C2302*%
X252984000Y-207785000D03*
X252984000Y-206235000D03*
%TD*%
D35*
%TO.C,R13*%
X189484000Y-154053000D03*
X189484000Y-153033000D03*
%TD*%
D36*
%TO.C,R1303*%
X155652000Y-187833000D03*
X157302000Y-187833000D03*
%TD*%
%TO.C,R45*%
X162243000Y-101473000D03*
X163893000Y-101473000D03*
%TD*%
D37*
%TO.C,R2204*%
X241363000Y-187833000D03*
X239713000Y-187833000D03*
%TD*%
D38*
%TO.C,U15*%
X228697000Y-162483500D03*
X229347000Y-162483500D03*
X229997000Y-162483500D03*
X230647000Y-162483500D03*
X231297000Y-162483500D03*
D39*
X232359500Y-163546000D03*
X232359500Y-164196000D03*
X232359500Y-164846000D03*
X232359500Y-165496000D03*
X232359500Y-166146000D03*
D38*
X231297000Y-167208500D03*
X230647000Y-167208500D03*
X229997000Y-167208500D03*
X229347000Y-167208500D03*
X228697000Y-167208500D03*
D39*
X227634500Y-166146000D03*
X227634500Y-165496000D03*
X227634500Y-164846000D03*
X227634500Y-164196000D03*
X227634500Y-163546000D03*
D40*
X229997000Y-164846000D03*
%TD*%
D28*
%TO.C,C1301*%
X155575000Y-207785000D03*
X155575000Y-206235000D03*
%TD*%
D41*
%TO.C,C512*%
X149917711Y-156517972D03*
X150596533Y-155839150D03*
%TD*%
D33*
%TO.C,K701*%
X128994000Y-191135000D03*
X128994000Y-196215000D03*
X128994000Y-198755000D03*
X128994000Y-201295000D03*
X128994000Y-203835000D03*
X121704000Y-203835000D03*
X121704000Y-201295000D03*
X121704000Y-198755000D03*
X121704000Y-196215000D03*
X121704000Y-191135000D03*
%TD*%
D23*
%TO.C,R3209*%
X292025800Y-143792000D03*
X291005800Y-143792000D03*
%TD*%
D42*
%TO.C,U27*%
X175960000Y-124079000D03*
X175960000Y-122809000D03*
X175960000Y-121539000D03*
X175960000Y-120269000D03*
X180910000Y-120269000D03*
X180910000Y-121539000D03*
X180910000Y-122809000D03*
X180910000Y-124079000D03*
%TD*%
D17*
%TO.C,R72*%
X114761000Y-217043000D03*
X116586000Y-217043000D03*
%TD*%
D43*
%TO.C,L2202*%
X241531000Y-182372000D03*
X240561000Y-182372000D03*
%TD*%
D18*
%TO.C,C2103*%
X219822000Y-189103000D03*
X218862000Y-189103000D03*
%TD*%
D25*
%TO.C,C159*%
X108966001Y-117701001D03*
X108966001Y-116741001D03*
%TD*%
D28*
%TO.C,C501*%
X92583000Y-207785000D03*
X92583000Y-206235000D03*
%TD*%
D26*
%TO.C,C3214*%
X335026000Y-185448000D03*
X335026000Y-186408000D03*
%TD*%
D44*
%TO.C,TP4*%
X318389000Y-115951000D03*
%TD*%
D17*
%TO.C,R70*%
X219202000Y-217932000D03*
X221027000Y-217932000D03*
%TD*%
D21*
%TO.C,C1605*%
X205908000Y-188087000D03*
X206868000Y-188087000D03*
%TD*%
D17*
%TO.C,R38*%
X110339500Y-214884000D03*
X112164500Y-214884000D03*
%TD*%
D20*
%TO.C,R49*%
X173099000Y-122809000D03*
X174119000Y-122809000D03*
%TD*%
D25*
%TO.C,C2408*%
X272542000Y-181201000D03*
X272542000Y-180241000D03*
%TD*%
D45*
%TO.C,U35*%
X111462000Y-123312001D03*
X110962000Y-123312001D03*
X110462000Y-123312001D03*
X109962000Y-123312001D03*
X109462000Y-123312001D03*
X108962000Y-123312001D03*
X108462000Y-123312001D03*
X107962000Y-123312001D03*
X107462000Y-123312001D03*
X106962000Y-123312001D03*
X106462000Y-123312001D03*
X105962000Y-123312001D03*
X105962000Y-119512001D03*
X106462000Y-119512001D03*
X106962000Y-119512001D03*
X107462000Y-119512001D03*
X107962000Y-119512001D03*
X108462000Y-119512001D03*
X108962000Y-119512001D03*
X109462000Y-119512001D03*
X109962000Y-119512001D03*
X110462000Y-119512001D03*
X110962000Y-119512001D03*
X111462000Y-119512001D03*
D46*
X108712000Y-121412001D03*
%TD*%
D20*
%TO.C,R44*%
X173099000Y-124079000D03*
X174119000Y-124079000D03*
%TD*%
D24*
%TO.C,L2203*%
X241554000Y-186413000D03*
X241554000Y-185443000D03*
%TD*%
D19*
%TO.C,R1009*%
X176384241Y-149581178D03*
X177105489Y-148859930D03*
%TD*%
D26*
%TO.C,C714*%
X130302000Y-185448000D03*
X130302000Y-186408000D03*
%TD*%
D23*
%TO.C,R807*%
X144909000Y-181034000D03*
X143889000Y-181034000D03*
%TD*%
D24*
%TO.C,L2301*%
X249936000Y-183365000D03*
X249936000Y-182395000D03*
%TD*%
D18*
%TO.C,C609*%
X115542000Y-184404000D03*
X114582000Y-184404000D03*
%TD*%
D30*
%TO.C,C2011*%
X226526412Y-154902150D03*
X225847590Y-154223328D03*
%TD*%
D20*
%TO.C,R1306*%
X157605000Y-181034000D03*
X158625000Y-181034000D03*
%TD*%
%TO.C,R2106*%
X220597000Y-181034000D03*
X221617000Y-181034000D03*
%TD*%
D19*
%TO.C,R409*%
X136886534Y-158090885D03*
X137607782Y-157369637D03*
%TD*%
D23*
%TO.C,R2207*%
X239397000Y-181034000D03*
X238377000Y-181034000D03*
%TD*%
D25*
%TO.C,C1308*%
X162306000Y-181201000D03*
X162306000Y-180241000D03*
%TD*%
%TO.C,C137*%
X288290000Y-126083000D03*
X288290000Y-125123000D03*
%TD*%
D26*
%TO.C,C713*%
X154305000Y-145316000D03*
X154305000Y-146276000D03*
%TD*%
D28*
%TO.C,C702*%
X127000000Y-207785000D03*
X127000000Y-206235000D03*
%TD*%
D24*
%TO.C,L1401*%
X171196000Y-183365000D03*
X171196000Y-182395000D03*
%TD*%
D20*
%TO.C,R2509*%
X261237999Y-145541999D03*
X262257999Y-145541999D03*
%TD*%
D17*
%TO.C,R50*%
X110339500Y-218186000D03*
X112164500Y-218186000D03*
%TD*%
D41*
%TO.C,C611*%
X155926552Y-152668131D03*
X156605374Y-151989309D03*
%TD*%
D37*
%TO.C,R3204*%
X335851000Y-187833000D03*
X334201000Y-187833000D03*
%TD*%
D19*
%TO.C,R308*%
X133501115Y-152252624D03*
X134222363Y-151531376D03*
%TD*%
D33*
%TO.C,K501*%
X97498000Y-191135000D03*
X97498000Y-196215000D03*
X97498000Y-198755000D03*
X97498000Y-201295000D03*
X97498000Y-203835000D03*
X90208000Y-203835000D03*
X90208000Y-201295000D03*
X90208000Y-198755000D03*
X90208000Y-196215000D03*
X90208000Y-191135000D03*
%TD*%
D25*
%TO.C,C70*%
X283863000Y-141958000D03*
X283863000Y-140998000D03*
%TD*%
D24*
%TO.C,L1501*%
X186944000Y-183365000D03*
X186944000Y-182395000D03*
%TD*%
D28*
%TO.C,C601*%
X108331000Y-207785000D03*
X108331000Y-206235000D03*
%TD*%
D21*
%TO.C,C2307*%
X256314000Y-183388000D03*
X257274000Y-183388000D03*
%TD*%
D36*
%TO.C,R703*%
X124156000Y-187833000D03*
X125806000Y-187833000D03*
%TD*%
D30*
%TO.C,C2611*%
X265095277Y-147277704D03*
X264416455Y-146598882D03*
%TD*%
D25*
%TO.C,C68*%
X225044000Y-147546000D03*
X225044000Y-146586000D03*
%TD*%
D24*
%TO.C,L701*%
X123952000Y-183365000D03*
X123952000Y-182395000D03*
%TD*%
D23*
%TO.C,R1501*%
X190198000Y-189103000D03*
X189178000Y-189103000D03*
%TD*%
D33*
%TO.C,K2901*%
X286474000Y-191135000D03*
X286474000Y-196215000D03*
X286474000Y-198755000D03*
X286474000Y-201295000D03*
X286474000Y-203835000D03*
X279184000Y-203835000D03*
X279184000Y-201295000D03*
X279184000Y-198755000D03*
X279184000Y-196215000D03*
X279184000Y-191135000D03*
%TD*%
D20*
%TO.C,R3205*%
X331849000Y-186368000D03*
X332869000Y-186368000D03*
%TD*%
D18*
%TO.C,C2404*%
X272894999Y-189103000D03*
X271934999Y-189103000D03*
%TD*%
D41*
%TO.C,C2111*%
X239238552Y-154065131D03*
X239917374Y-153386309D03*
%TD*%
D18*
%TO.C,C709*%
X131290000Y-184404000D03*
X130330000Y-184404000D03*
%TD*%
D20*
%TO.C,R2902*%
X285748000Y-189103000D03*
X286768000Y-189103000D03*
%TD*%
D47*
%TO.C,R36*%
X328930000Y-135572000D03*
X328930000Y-133922000D03*
%TD*%
D25*
%TO.C,C3111*%
X286435800Y-145288000D03*
X286435800Y-144328000D03*
%TD*%
D28*
%TO.C,C602*%
X111252000Y-207785000D03*
X111252000Y-206235000D03*
%TD*%
D25*
%TO.C,C112*%
X131844750Y-146321750D03*
X131844750Y-145361750D03*
%TD*%
D48*
%TO.C,U10*%
X270931000Y-149038000D03*
X270931000Y-148538000D03*
X270931000Y-148038000D03*
X270931000Y-147538000D03*
X270931000Y-147038000D03*
X270931000Y-146538000D03*
X270931000Y-146038000D03*
X270931000Y-145538000D03*
X270931000Y-145038000D03*
X270931000Y-144538000D03*
X270931000Y-144038000D03*
X270931000Y-143538000D03*
X270931000Y-143038000D03*
X270931000Y-142538000D03*
X270931000Y-142038000D03*
X270931000Y-141538000D03*
D49*
X272856000Y-139613000D03*
X273356000Y-139613000D03*
X273856000Y-139613000D03*
X274356000Y-139613000D03*
X274856000Y-139613000D03*
X275356000Y-139613000D03*
X275856000Y-139613000D03*
X276356000Y-139613000D03*
X276856000Y-139613000D03*
X277356000Y-139613000D03*
X277856000Y-139613000D03*
X278356000Y-139613000D03*
X278856000Y-139613000D03*
X279356000Y-139613000D03*
X279856000Y-139613000D03*
X280356000Y-139613000D03*
D48*
X282281000Y-141538000D03*
X282281000Y-142038000D03*
X282281000Y-142538000D03*
X282281000Y-143038000D03*
X282281000Y-143538000D03*
X282281000Y-144038000D03*
X282281000Y-144538000D03*
X282281000Y-145038000D03*
X282281000Y-145538000D03*
X282281000Y-146038000D03*
X282281000Y-146538000D03*
X282281000Y-147038000D03*
X282281000Y-147538000D03*
X282281000Y-148038000D03*
X282281000Y-148538000D03*
X282281000Y-149038000D03*
D49*
X280356000Y-150963000D03*
X279856000Y-150963000D03*
X279356000Y-150963000D03*
X278856000Y-150963000D03*
X278356000Y-150963000D03*
X277856000Y-150963000D03*
X277356000Y-150963000D03*
X276856000Y-150963000D03*
X276356000Y-150963000D03*
X275856000Y-150963000D03*
X275356000Y-150963000D03*
X274856000Y-150963000D03*
X274356000Y-150963000D03*
X273856000Y-150963000D03*
X273356000Y-150963000D03*
X272856000Y-150963000D03*
%TD*%
D25*
%TO.C,C2308*%
X256794000Y-181201000D03*
X256794000Y-180241000D03*
%TD*%
D50*
%TO.C,C1813*%
X222456723Y-146727296D03*
X223135545Y-147406118D03*
%TD*%
D41*
%TO.C,C2911*%
X282672552Y-153303131D03*
X283351374Y-152624309D03*
%TD*%
D18*
%TO.C,C809*%
X147038000Y-184404000D03*
X146078000Y-184404000D03*
%TD*%
D25*
%TO.C,C2110*%
X219468000Y-185265000D03*
X219468000Y-184305000D03*
%TD*%
D17*
%TO.C,R116*%
X223877500Y-219456000D03*
X225702500Y-219456000D03*
%TD*%
D28*
%TO.C,C1601*%
X202819000Y-207785000D03*
X202819000Y-206235000D03*
%TD*%
D23*
%TO.C,R809*%
X158752000Y-143129000D03*
X157732000Y-143129000D03*
%TD*%
D24*
%TO.C,L601*%
X108204000Y-183365000D03*
X108204000Y-182395000D03*
%TD*%
D20*
%TO.C,R3002*%
X301496000Y-189103000D03*
X302516000Y-189103000D03*
%TD*%
D21*
%TO.C,C3107*%
X319306000Y-183388000D03*
X320266000Y-183388000D03*
%TD*%
D23*
%TO.C,R601*%
X111458000Y-189103000D03*
X110438000Y-189103000D03*
%TD*%
D19*
%TO.C,R208*%
X132270956Y-148736465D03*
X132992204Y-148015217D03*
%TD*%
D47*
%TO.C,R95*%
X324264000Y-140812000D03*
X324264000Y-139162000D03*
%TD*%
D24*
%TO.C,L2303*%
X257302000Y-186413000D03*
X257302000Y-185443000D03*
%TD*%
D20*
%TO.C,R108*%
X129810750Y-144272000D03*
X130830750Y-144272000D03*
%TD*%
D35*
%TO.C,R25*%
X277368000Y-154053000D03*
X277368000Y-153033000D03*
%TD*%
D24*
%TO.C,L2401*%
X265683999Y-183365000D03*
X265683999Y-182395000D03*
%TD*%
D33*
%TO.C,K1501*%
X191986000Y-191135000D03*
X191986000Y-196215000D03*
X191986000Y-198755000D03*
X191986000Y-201295000D03*
X191986000Y-203835000D03*
X184696000Y-203835000D03*
X184696000Y-201295000D03*
X184696000Y-198755000D03*
X184696000Y-196215000D03*
X184696000Y-191135000D03*
%TD*%
D37*
%TO.C,R2104*%
X225615000Y-187833000D03*
X223965000Y-187833000D03*
%TD*%
D18*
%TO.C,C2204*%
X241399000Y-189103000D03*
X240439000Y-189103000D03*
%TD*%
D30*
%TO.C,C312*%
X136356411Y-152231411D03*
X135677589Y-151552589D03*
%TD*%
D51*
%TO.C,R66*%
X308506500Y-215392000D03*
X306681500Y-215392000D03*
%TD*%
D35*
%TO.C,R24*%
X275328000Y-153572000D03*
X275328000Y-152552000D03*
%TD*%
D41*
%TO.C,C2112*%
X237801711Y-155501972D03*
X238480533Y-154823150D03*
%TD*%
D26*
%TO.C,C1514*%
X193294000Y-185448000D03*
X193294000Y-186408000D03*
%TD*%
D20*
%TO.C,R27*%
X279670000Y-137922000D03*
X280690000Y-137922000D03*
%TD*%
%TO.C,R43*%
X289685000Y-120904000D03*
X290705000Y-120904000D03*
%TD*%
D43*
%TO.C,L3202*%
X336019000Y-182372000D03*
X335049000Y-182372000D03*
%TD*%
D25*
%TO.C,C3206*%
X329692000Y-183360000D03*
X329692000Y-182400000D03*
%TD*%
D52*
%TO.C,C131*%
X183007000Y-124193000D03*
X183007000Y-125743000D03*
%TD*%
D21*
%TO.C,C3105*%
X316144000Y-188087000D03*
X317104000Y-188087000D03*
%TD*%
D26*
%TO.C,C1414*%
X177546000Y-185448000D03*
X177546000Y-186408000D03*
%TD*%
D25*
%TO.C,C2106*%
X219456000Y-183360000D03*
X219456000Y-182400000D03*
%TD*%
D18*
%TO.C,C3004*%
X304391000Y-189103000D03*
X303431000Y-189103000D03*
%TD*%
D29*
%TO.C,U37*%
X300167000Y-119385500D03*
X301117000Y-119385500D03*
X302067000Y-119385500D03*
X302067000Y-121660500D03*
X301117000Y-121660500D03*
X300167000Y-121660500D03*
%TD*%
D18*
%TO.C,C2904*%
X288643000Y-189103000D03*
X287683000Y-189103000D03*
%TD*%
D26*
%TO.C,C1314*%
X161798000Y-185448000D03*
X161798000Y-186408000D03*
%TD*%
D28*
%TO.C,C1501*%
X187071000Y-207785000D03*
X187071000Y-206235000D03*
%TD*%
D43*
%TO.C,L2102*%
X225783000Y-182372000D03*
X224813000Y-182372000D03*
%TD*%
D25*
%TO.C,C181*%
X279654000Y-136878000D03*
X279654000Y-135918000D03*
%TD*%
D24*
%TO.C,L2903*%
X288798000Y-186413000D03*
X288798000Y-185443000D03*
%TD*%
D25*
%TO.C,C606*%
X109220000Y-183360000D03*
X109220000Y-182400000D03*
%TD*%
%TO.C,C3210*%
X329704000Y-185265000D03*
X329704000Y-184305000D03*
%TD*%
D53*
%TO.C,D1*%
X332714500Y-134620000D03*
X334289500Y-134620000D03*
%TD*%
D25*
%TO.C,C2411*%
X244652800Y-142367000D03*
X244652800Y-141407000D03*
%TD*%
%TO.C,C811*%
X156718000Y-141958000D03*
X156718000Y-140998000D03*
%TD*%
D26*
%TO.C,C1513*%
X198374000Y-146078000D03*
X198374000Y-147038000D03*
%TD*%
D50*
%TO.C,C213*%
X134446723Y-146600296D03*
X135125545Y-147279118D03*
%TD*%
D37*
%TO.C,R3004*%
X304355000Y-187833000D03*
X302705000Y-187833000D03*
%TD*%
D54*
%TO.C,C157*%
X106315501Y-144289007D03*
X108215501Y-144289007D03*
%TD*%
D17*
%TO.C,R71*%
X114761000Y-219329000D03*
X116586000Y-219329000D03*
%TD*%
D27*
%TO.C,R3008*%
X287680847Y-153091662D03*
X286959599Y-152370414D03*
%TD*%
D55*
%TO.C,H3*%
X210820000Y-216154000D03*
%TD*%
D20*
%TO.C,R1709*%
X217802999Y-145541999D03*
X218822999Y-145541999D03*
%TD*%
D23*
%TO.C,R2301*%
X253190000Y-189103000D03*
X252170000Y-189103000D03*
%TD*%
D56*
%TO.C,U2401*%
X270116999Y-185163500D03*
X269616999Y-185163500D03*
X269116999Y-185163500D03*
X268616999Y-185163500D03*
D57*
X267904499Y-184451000D03*
X267904499Y-183951000D03*
X267904499Y-183451000D03*
X267904499Y-182951000D03*
D56*
X268616999Y-182238500D03*
X269116999Y-182238500D03*
X269616999Y-182238500D03*
X270116999Y-182238500D03*
D57*
X270829499Y-182951000D03*
X270829499Y-183451000D03*
X270829499Y-183951000D03*
X270829499Y-184451000D03*
D58*
X269366999Y-183701000D03*
%TD*%
D20*
%TO.C,R1605*%
X205865000Y-186368000D03*
X206885000Y-186368000D03*
%TD*%
D24*
%TO.C,L1603*%
X210058000Y-186413000D03*
X210058000Y-185443000D03*
%TD*%
D25*
%TO.C,C52*%
X239921000Y-141958000D03*
X239921000Y-140998000D03*
%TD*%
%TO.C,C1711*%
X219837000Y-144498000D03*
X219837000Y-143538000D03*
%TD*%
D18*
%TO.C,C2209*%
X241526000Y-184404000D03*
X240566000Y-184404000D03*
%TD*%
D20*
%TO.C,R3105*%
X316101000Y-186368000D03*
X317121000Y-186368000D03*
%TD*%
D25*
%TO.C,C812*%
X156718000Y-143990000D03*
X156718000Y-143030000D03*
%TD*%
D59*
%TO.C,J4*%
X332994000Y-119888000D03*
X332994000Y-115988000D03*
X331724000Y-119888000D03*
X331724000Y-115988000D03*
X330454000Y-119888000D03*
X330454000Y-115988000D03*
X329184000Y-119888000D03*
X329184000Y-115988000D03*
X327914000Y-119888000D03*
X327914000Y-115988000D03*
X326644000Y-119888000D03*
X326644000Y-115988000D03*
X325374000Y-119888000D03*
X325374000Y-115988000D03*
X324104000Y-119888000D03*
X324104000Y-115988000D03*
X322834000Y-119888000D03*
X322834000Y-115988000D03*
X321564000Y-119888000D03*
X321564000Y-115988000D03*
%TD*%
D18*
%TO.C,C1603*%
X204074000Y-189103000D03*
X203114000Y-189103000D03*
%TD*%
D50*
%TO.C,C1213*%
X183556589Y-154346589D03*
X184235411Y-155025411D03*
%TD*%
D26*
%TO.C,C1713*%
X220852000Y-144554000D03*
X220852000Y-145514000D03*
%TD*%
D30*
%TO.C,C311*%
X134919570Y-150794570D03*
X134240748Y-150115748D03*
%TD*%
D19*
%TO.C,R2708*%
X265073822Y-152037758D03*
X265795070Y-151316510D03*
%TD*%
D21*
%TO.C,C807*%
X146078000Y-183388000D03*
X147038000Y-183388000D03*
%TD*%
D18*
%TO.C,C504*%
X99667000Y-189103000D03*
X98707000Y-189103000D03*
%TD*%
D60*
%TO.C,R79*%
X126933400Y-117654399D03*
X126933400Y-119304399D03*
%TD*%
D26*
%TO.C,C3113*%
X285369000Y-145316000D03*
X285369000Y-146276000D03*
%TD*%
D61*
%TO.C,D7*%
X117360000Y-130665001D03*
D62*
X116440000Y-126683001D03*
X118280000Y-126683001D03*
%TD*%
D26*
%TO.C,C1614*%
X209042000Y-185448000D03*
X209042000Y-186408000D03*
%TD*%
D25*
%TO.C,C33*%
X195979000Y-141958000D03*
X195979000Y-140998000D03*
%TD*%
D36*
%TO.C,R2103*%
X218644000Y-187833000D03*
X220294000Y-187833000D03*
%TD*%
D25*
%TO.C,C3008*%
X304038000Y-181201000D03*
X304038000Y-180241000D03*
%TD*%
D26*
%TO.C,C614*%
X114554000Y-185448000D03*
X114554000Y-186408000D03*
%TD*%
D20*
%TO.C,R2305*%
X253109000Y-186368000D03*
X254129000Y-186368000D03*
%TD*%
D25*
%TO.C,C3112*%
X286435800Y-147320000D03*
X286435800Y-146360000D03*
%TD*%
%TO.C,C912*%
X175220866Y-146656293D03*
X175220866Y-145696293D03*
%TD*%
D28*
%TO.C,C3002*%
X300228000Y-207785000D03*
X300228000Y-206235000D03*
%TD*%
D20*
%TO.C,R2306*%
X252093000Y-181034000D03*
X253113000Y-181034000D03*
%TD*%
D47*
%TO.C,R94*%
X322740000Y-140812000D03*
X322740000Y-139162000D03*
%TD*%
D37*
%TO.C,R1604*%
X209867000Y-187833000D03*
X208217000Y-187833000D03*
%TD*%
D23*
%TO.C,R2307*%
X255145000Y-181034000D03*
X254125000Y-181034000D03*
%TD*%
D25*
%TO.C,C1408*%
X178054000Y-181201000D03*
X178054000Y-180241000D03*
%TD*%
D20*
%TO.C,R2402*%
X269999999Y-189103000D03*
X271019999Y-189103000D03*
%TD*%
D56*
%TO.C,U2201*%
X238621000Y-185163500D03*
X238121000Y-185163500D03*
X237621000Y-185163500D03*
X237121000Y-185163500D03*
D57*
X236408500Y-184451000D03*
X236408500Y-183951000D03*
X236408500Y-183451000D03*
X236408500Y-182951000D03*
D56*
X237121000Y-182238500D03*
X237621000Y-182238500D03*
X238121000Y-182238500D03*
X238621000Y-182238500D03*
D57*
X239333500Y-182951000D03*
X239333500Y-183451000D03*
X239333500Y-183951000D03*
X239333500Y-184451000D03*
D58*
X237871000Y-183701000D03*
%TD*%
D60*
%TO.C,R82*%
X108597001Y-126302001D03*
X108597001Y-127952001D03*
%TD*%
D36*
%TO.C,R3103*%
X313132000Y-187833000D03*
X314782000Y-187833000D03*
%TD*%
D30*
%TO.C,C1812*%
X223136252Y-148842252D03*
X222457430Y-148163430D03*
%TD*%
D21*
%TO.C,C1405*%
X174412000Y-188087000D03*
X175372000Y-188087000D03*
%TD*%
D48*
%TO.C,U7*%
X226989000Y-149038000D03*
X226989000Y-148538000D03*
X226989000Y-148038000D03*
X226989000Y-147538000D03*
X226989000Y-147038000D03*
X226989000Y-146538000D03*
X226989000Y-146038000D03*
X226989000Y-145538000D03*
X226989000Y-145038000D03*
X226989000Y-144538000D03*
X226989000Y-144038000D03*
X226989000Y-143538000D03*
X226989000Y-143038000D03*
X226989000Y-142538000D03*
X226989000Y-142038000D03*
X226989000Y-141538000D03*
D49*
X228914000Y-139613000D03*
X229414000Y-139613000D03*
X229914000Y-139613000D03*
X230414000Y-139613000D03*
X230914000Y-139613000D03*
X231414000Y-139613000D03*
X231914000Y-139613000D03*
X232414000Y-139613000D03*
X232914000Y-139613000D03*
X233414000Y-139613000D03*
X233914000Y-139613000D03*
X234414000Y-139613000D03*
X234914000Y-139613000D03*
X235414000Y-139613000D03*
X235914000Y-139613000D03*
X236414000Y-139613000D03*
D48*
X238339000Y-141538000D03*
X238339000Y-142038000D03*
X238339000Y-142538000D03*
X238339000Y-143038000D03*
X238339000Y-143538000D03*
X238339000Y-144038000D03*
X238339000Y-144538000D03*
X238339000Y-145038000D03*
X238339000Y-145538000D03*
X238339000Y-146038000D03*
X238339000Y-146538000D03*
X238339000Y-147038000D03*
X238339000Y-147538000D03*
X238339000Y-148038000D03*
X238339000Y-148538000D03*
X238339000Y-149038000D03*
D49*
X236414000Y-150963000D03*
X235914000Y-150963000D03*
X235414000Y-150963000D03*
X234914000Y-150963000D03*
X234414000Y-150963000D03*
X233914000Y-150963000D03*
X233414000Y-150963000D03*
X232914000Y-150963000D03*
X232414000Y-150963000D03*
X231914000Y-150963000D03*
X231414000Y-150963000D03*
X230914000Y-150963000D03*
X230414000Y-150963000D03*
X229914000Y-150963000D03*
X229414000Y-150963000D03*
X228914000Y-150963000D03*
%TD*%
D26*
%TO.C,C2413*%
X243586000Y-142395000D03*
X243586000Y-143355000D03*
%TD*%
D20*
%TO.C,R1506*%
X189101000Y-181034000D03*
X190121000Y-181034000D03*
%TD*%
D18*
%TO.C,C2409*%
X273021999Y-184404000D03*
X272061999Y-184404000D03*
%TD*%
D30*
%TO.C,C1811*%
X221699411Y-147405411D03*
X221020589Y-146726589D03*
%TD*%
D33*
%TO.C,K2301*%
X254978000Y-191135000D03*
X254978000Y-196215000D03*
X254978000Y-198755000D03*
X254978000Y-201295000D03*
X254978000Y-203835000D03*
X247688000Y-203835000D03*
X247688000Y-201295000D03*
X247688000Y-198755000D03*
X247688000Y-196215000D03*
X247688000Y-191135000D03*
%TD*%
D50*
%TO.C,C2813*%
X271694589Y-154600589D03*
X272373411Y-155279411D03*
%TD*%
D56*
%TO.C,U2101*%
X222873000Y-185163500D03*
X222373000Y-185163500D03*
X221873000Y-185163500D03*
X221373000Y-185163500D03*
D57*
X220660500Y-184451000D03*
X220660500Y-183951000D03*
X220660500Y-183451000D03*
X220660500Y-182951000D03*
D56*
X221373000Y-182238500D03*
X221873000Y-182238500D03*
X222373000Y-182238500D03*
X222873000Y-182238500D03*
D57*
X223585500Y-182951000D03*
X223585500Y-183451000D03*
X223585500Y-183951000D03*
X223585500Y-184451000D03*
D58*
X222123000Y-183701000D03*
%TD*%
D20*
%TO.C,R2905*%
X284605000Y-186368000D03*
X285625000Y-186368000D03*
%TD*%
D21*
%TO.C,C3205*%
X331892000Y-188087000D03*
X332852000Y-188087000D03*
%TD*%
%TO.C,C123*%
X299113000Y-123190000D03*
X300073000Y-123190000D03*
%TD*%
D35*
%TO.C,R6*%
X143502000Y-153572000D03*
X143502000Y-152552000D03*
%TD*%
D28*
%TO.C,C2101*%
X218567000Y-207785000D03*
X218567000Y-206235000D03*
%TD*%
D25*
%TO.C,C2910*%
X282460000Y-185265000D03*
X282460000Y-184305000D03*
%TD*%
D33*
%TO.C,K2101*%
X223482000Y-191135000D03*
X223482000Y-196215000D03*
X223482000Y-198755000D03*
X223482000Y-201295000D03*
X223482000Y-203835000D03*
X216192000Y-203835000D03*
X216192000Y-201295000D03*
X216192000Y-198755000D03*
X216192000Y-196215000D03*
X216192000Y-191135000D03*
%TD*%
D19*
%TO.C,R2808*%
X269518822Y-156736758D03*
X270240070Y-156015510D03*
%TD*%
D23*
%TO.C,R808*%
X158752000Y-141859000D03*
X157732000Y-141859000D03*
%TD*%
D28*
%TO.C,C701*%
X124079000Y-207785000D03*
X124079000Y-206235000D03*
%TD*%
%TO.C,C801*%
X139827000Y-207785000D03*
X139827000Y-206235000D03*
%TD*%
D27*
%TO.C,R2908*%
X284180810Y-154671382D03*
X283459562Y-153950134D03*
%TD*%
D28*
%TO.C,C1502*%
X189992000Y-207785000D03*
X189992000Y-206235000D03*
%TD*%
D24*
%TO.C,L3101*%
X312928000Y-183365000D03*
X312928000Y-182395000D03*
%TD*%
D28*
%TO.C,C502*%
X95504000Y-207785000D03*
X95504000Y-206235000D03*
%TD*%
D18*
%TO.C,C1404*%
X178407000Y-189103000D03*
X177447000Y-189103000D03*
%TD*%
D63*
%TO.C,Q3*%
X109689200Y-134472601D03*
D64*
X110664199Y-135514001D03*
X110014201Y-135514001D03*
X109364199Y-135514001D03*
X108714201Y-135514001D03*
X110664199Y-132313601D03*
X110014201Y-132313601D03*
X109364199Y-132313601D03*
X108714201Y-132313601D03*
%TD*%
D24*
%TO.C,L1503*%
X194310000Y-186413000D03*
X194310000Y-185443000D03*
%TD*%
D36*
%TO.C,R46*%
X232220000Y-101473000D03*
X233870000Y-101473000D03*
%TD*%
D19*
%TO.C,R1909*%
X222485241Y-153010178D03*
X223206489Y-152288930D03*
%TD*%
D56*
%TO.C,U2301*%
X254369000Y-185163500D03*
X253869000Y-185163500D03*
X253369000Y-185163500D03*
X252869000Y-185163500D03*
D57*
X252156500Y-184451000D03*
X252156500Y-183951000D03*
X252156500Y-183451000D03*
X252156500Y-182951000D03*
D56*
X252869000Y-182238500D03*
X253369000Y-182238500D03*
X253869000Y-182238500D03*
X254369000Y-182238500D03*
D57*
X255081500Y-182951000D03*
X255081500Y-183451000D03*
X255081500Y-183951000D03*
X255081500Y-184451000D03*
D58*
X253619000Y-183701000D03*
%TD*%
D30*
%TO.C,C1212*%
X184236118Y-156461545D03*
X183557296Y-155782723D03*
%TD*%
D20*
%TO.C,R2105*%
X221613000Y-186368000D03*
X222633000Y-186368000D03*
%TD*%
D26*
%TO.C,C2313*%
X242189000Y-145570000D03*
X242189000Y-146530000D03*
%TD*%
D43*
%TO.C,L3002*%
X304523000Y-182372000D03*
X303553000Y-182372000D03*
%TD*%
D35*
%TO.C,R18*%
X231386000Y-153572000D03*
X231386000Y-152552000D03*
%TD*%
D23*
%TO.C,R2309*%
X245289800Y-146713000D03*
X244269800Y-146713000D03*
%TD*%
D18*
%TO.C,C1303*%
X156830000Y-189103000D03*
X155870000Y-189103000D03*
%TD*%
D26*
%TO.C,C2314*%
X256286000Y-185448000D03*
X256286000Y-186408000D03*
%TD*%
D23*
%TO.C,R707*%
X129161000Y-181034000D03*
X128141000Y-181034000D03*
%TD*%
D41*
%TO.C,C3012*%
X284735748Y-153160252D03*
X285414570Y-152481430D03*
%TD*%
D24*
%TO.C,L2403*%
X273049999Y-186413000D03*
X273049999Y-185443000D03*
%TD*%
D18*
%TO.C,C1309*%
X162786000Y-184404000D03*
X161826000Y-184404000D03*
%TD*%
D37*
%TO.C,R604*%
X115379000Y-187833000D03*
X113729000Y-187833000D03*
%TD*%
D25*
%TO.C,C2406*%
X266699999Y-183360000D03*
X266699999Y-182400000D03*
%TD*%
D28*
%TO.C,C1401*%
X171323000Y-207785000D03*
X171323000Y-206235000D03*
%TD*%
%TO.C,C1602*%
X205740000Y-207785000D03*
X205740000Y-206235000D03*
%TD*%
D27*
%TO.C,R1409*%
X199335784Y-154553408D03*
X198614536Y-153832160D03*
%TD*%
D36*
%TO.C,R55*%
X272606000Y-108839000D03*
X274256000Y-108839000D03*
%TD*%
D41*
%TO.C,C3011*%
X286172589Y-151723411D03*
X286851411Y-151044589D03*
%TD*%
D17*
%TO.C,R68*%
X219305500Y-215138000D03*
X221130500Y-215138000D03*
%TD*%
D23*
%TO.C,R1407*%
X176405000Y-181034000D03*
X175385000Y-181034000D03*
%TD*%
D25*
%TO.C,C62*%
X137160000Y-147546000D03*
X137160000Y-146586000D03*
%TD*%
D65*
%TO.C,C11*%
X153561000Y-141666000D03*
X153561000Y-139766000D03*
%TD*%
D28*
%TO.C,C3101*%
X313055000Y-207785000D03*
X313055000Y-206235000D03*
%TD*%
D25*
%TO.C,C2311*%
X243255800Y-145542000D03*
X243255800Y-144582000D03*
%TD*%
D66*
%TO.C,J1*%
X129260600Y-213868000D03*
X132029200Y-213868000D03*
X134797800Y-213868000D03*
X137566400Y-213868000D03*
X140335000Y-213868000D03*
X143103600Y-213868000D03*
X145872200Y-213868000D03*
X148640800Y-213868000D03*
X151409400Y-213868000D03*
X154178000Y-213868000D03*
X156946600Y-213868000D03*
X159715200Y-213868000D03*
X162483800Y-213868000D03*
X165252400Y-213868000D03*
X168021000Y-213868000D03*
X170789600Y-213868000D03*
X173558200Y-213868000D03*
X176326800Y-213868000D03*
X179095400Y-213868000D03*
X130644900Y-216712800D03*
X133413500Y-216712800D03*
X136182100Y-216712800D03*
X138950700Y-216712800D03*
X141719300Y-216712800D03*
X144487900Y-216712800D03*
X147256500Y-216712800D03*
X150025100Y-216712800D03*
X152793700Y-216712800D03*
X155562300Y-216712800D03*
X158330900Y-216712800D03*
X161099500Y-216712800D03*
X163868100Y-216712800D03*
X166636700Y-216712800D03*
X169405300Y-216712800D03*
X172173900Y-216712800D03*
X174942500Y-216712800D03*
X177711100Y-216712800D03*
D67*
X122351800Y-215290400D03*
X185851800Y-215290400D03*
%TD*%
D68*
%TO.C,D6*%
X270662500Y-113030000D03*
X269087500Y-113030000D03*
%TD*%
D30*
%TO.C,C2812*%
X272374118Y-156715545D03*
X271695296Y-156036723D03*
%TD*%
D24*
%TO.C,L1303*%
X162814000Y-186413000D03*
X162814000Y-185443000D03*
%TD*%
D36*
%TO.C,R2903*%
X281636000Y-187833000D03*
X283286000Y-187833000D03*
%TD*%
D18*
%TO.C,C703*%
X125334000Y-189103000D03*
X124374000Y-189103000D03*
%TD*%
D37*
%TO.C,R704*%
X131127000Y-187833000D03*
X129477000Y-187833000D03*
%TD*%
D36*
%TO.C,R58*%
X272606000Y-107188000D03*
X274256000Y-107188000D03*
%TD*%
D23*
%TO.C,R3201*%
X331930000Y-189103000D03*
X330910000Y-189103000D03*
%TD*%
D18*
%TO.C,C2104*%
X225651000Y-189103000D03*
X224691000Y-189103000D03*
%TD*%
D25*
%TO.C,C3010*%
X298208000Y-185265000D03*
X298208000Y-184305000D03*
%TD*%
%TO.C,C86*%
X268986000Y-147546000D03*
X268986000Y-146586000D03*
%TD*%
D30*
%TO.C,C1211*%
X182799277Y-155024704D03*
X182120455Y-154345882D03*
%TD*%
D18*
%TO.C,C804*%
X146911000Y-189103000D03*
X145951000Y-189103000D03*
%TD*%
D30*
%TO.C,C2012*%
X227963253Y-156338991D03*
X227284431Y-155660169D03*
%TD*%
D25*
%TO.C,C1510*%
X187972000Y-185265000D03*
X187972000Y-184305000D03*
%TD*%
D35*
%TO.C,R114*%
X232410000Y-154053000D03*
X232410000Y-153033000D03*
%TD*%
D24*
%TO.C,L2201*%
X234188000Y-183365000D03*
X234188000Y-182395000D03*
%TD*%
D28*
%TO.C,C3001*%
X297307000Y-207785000D03*
X297307000Y-206235000D03*
%TD*%
D44*
%TO.C,TP6*%
X108839000Y-151130000D03*
%TD*%
D28*
%TO.C,C3202*%
X331724000Y-207785000D03*
X331724000Y-206235000D03*
%TD*%
D30*
%TO.C,C1912*%
X224622118Y-152270545D03*
X223943296Y-151591723D03*
%TD*%
D28*
%TO.C,C2301*%
X250063000Y-207785000D03*
X250063000Y-206235000D03*
%TD*%
%TO.C,C117*%
X252222000Y-163970000D03*
X252222000Y-162420000D03*
%TD*%
D18*
%TO.C,C2903*%
X282814000Y-189103000D03*
X281854000Y-189103000D03*
%TD*%
D25*
%TO.C,C610*%
X109232000Y-185265000D03*
X109232000Y-184305000D03*
%TD*%
D20*
%TO.C,R706*%
X126109000Y-181034000D03*
X127129000Y-181034000D03*
%TD*%
D25*
%TO.C,C2108*%
X225298000Y-181201000D03*
X225298000Y-180241000D03*
%TD*%
D38*
%TO.C,U17*%
X140813000Y-162483500D03*
X141463000Y-162483500D03*
X142113000Y-162483500D03*
X142763000Y-162483500D03*
X143413000Y-162483500D03*
D39*
X144475500Y-163546000D03*
X144475500Y-164196000D03*
X144475500Y-164846000D03*
X144475500Y-165496000D03*
X144475500Y-166146000D03*
D38*
X143413000Y-167208500D03*
X142763000Y-167208500D03*
X142113000Y-167208500D03*
X141463000Y-167208500D03*
X140813000Y-167208500D03*
D39*
X139750500Y-166146000D03*
X139750500Y-165496000D03*
X139750500Y-164846000D03*
X139750500Y-164196000D03*
X139750500Y-163546000D03*
D40*
X142113000Y-164846000D03*
%TD*%
D60*
%TO.C,R37*%
X332740000Y-131382000D03*
X332740000Y-133032000D03*
%TD*%
D20*
%TO.C,R3006*%
X299337000Y-181034000D03*
X300357000Y-181034000D03*
%TD*%
D51*
%TO.C,R63*%
X194587500Y-218088000D03*
X192762500Y-218088000D03*
%TD*%
D33*
%TO.C,K2401*%
X270725999Y-191135000D03*
X270725999Y-196215000D03*
X270725999Y-198755000D03*
X270725999Y-201295000D03*
X270725999Y-203835000D03*
X263435999Y-203835000D03*
X263435999Y-201295000D03*
X263435999Y-198755000D03*
X263435999Y-196215000D03*
X263435999Y-191135000D03*
%TD*%
D25*
%TO.C,C50*%
X181102000Y-147546000D03*
X181102000Y-146586000D03*
%TD*%
D37*
%TO.C,R1404*%
X178371000Y-187833000D03*
X176721000Y-187833000D03*
%TD*%
D25*
%TO.C,C2906*%
X282448000Y-183360000D03*
X282448000Y-182400000D03*
%TD*%
D18*
%TO.C,C1509*%
X194282000Y-184404000D03*
X193322000Y-184404000D03*
%TD*%
D27*
%TO.C,R2208*%
X244048810Y-153020382D03*
X243327562Y-152299134D03*
%TD*%
D25*
%TO.C,C2310*%
X250964000Y-185265000D03*
X250964000Y-184305000D03*
%TD*%
D60*
%TO.C,R90*%
X325787999Y-139162000D03*
X325787999Y-140812000D03*
%TD*%
D20*
%TO.C,R2906*%
X283589000Y-181034000D03*
X284609000Y-181034000D03*
%TD*%
D60*
%TO.C,R32*%
X330962000Y-133541000D03*
X330962000Y-135191000D03*
%TD*%
D22*
%TO.C,C3013*%
X285398448Y-150988869D03*
X284719626Y-151667691D03*
%TD*%
D56*
%TO.C,U501*%
X96889000Y-185163500D03*
X96389000Y-185163500D03*
X95889000Y-185163500D03*
X95389000Y-185163500D03*
D57*
X94676500Y-184451000D03*
X94676500Y-183951000D03*
X94676500Y-183451000D03*
X94676500Y-182951000D03*
D56*
X95389000Y-182238500D03*
X95889000Y-182238500D03*
X96389000Y-182238500D03*
X96889000Y-182238500D03*
D57*
X97601500Y-182951000D03*
X97601500Y-183451000D03*
X97601500Y-183951000D03*
X97601500Y-184451000D03*
D58*
X96139000Y-183701000D03*
%TD*%
D21*
%TO.C,C507*%
X98834000Y-183388000D03*
X99794000Y-183388000D03*
%TD*%
D20*
%TO.C,R1402*%
X175512000Y-189103000D03*
X176532000Y-189103000D03*
%TD*%
%TO.C,R2405*%
X268856999Y-186368000D03*
X269876999Y-186368000D03*
%TD*%
D48*
%TO.C,U4*%
X183047000Y-149038000D03*
X183047000Y-148538000D03*
X183047000Y-148038000D03*
X183047000Y-147538000D03*
X183047000Y-147038000D03*
X183047000Y-146538000D03*
X183047000Y-146038000D03*
X183047000Y-145538000D03*
X183047000Y-145038000D03*
X183047000Y-144538000D03*
X183047000Y-144038000D03*
X183047000Y-143538000D03*
X183047000Y-143038000D03*
X183047000Y-142538000D03*
X183047000Y-142038000D03*
X183047000Y-141538000D03*
D49*
X184972000Y-139613000D03*
X185472000Y-139613000D03*
X185972000Y-139613000D03*
X186472000Y-139613000D03*
X186972000Y-139613000D03*
X187472000Y-139613000D03*
X187972000Y-139613000D03*
X188472000Y-139613000D03*
X188972000Y-139613000D03*
X189472000Y-139613000D03*
X189972000Y-139613000D03*
X190472000Y-139613000D03*
X190972000Y-139613000D03*
X191472000Y-139613000D03*
X191972000Y-139613000D03*
X192472000Y-139613000D03*
D48*
X194397000Y-141538000D03*
X194397000Y-142038000D03*
X194397000Y-142538000D03*
X194397000Y-143038000D03*
X194397000Y-143538000D03*
X194397000Y-144038000D03*
X194397000Y-144538000D03*
X194397000Y-145038000D03*
X194397000Y-145538000D03*
X194397000Y-146038000D03*
X194397000Y-146538000D03*
X194397000Y-147038000D03*
X194397000Y-147538000D03*
X194397000Y-148038000D03*
X194397000Y-148538000D03*
X194397000Y-149038000D03*
D49*
X192472000Y-150963000D03*
X191972000Y-150963000D03*
X191472000Y-150963000D03*
X190972000Y-150963000D03*
X190472000Y-150963000D03*
X189972000Y-150963000D03*
X189472000Y-150963000D03*
X188972000Y-150963000D03*
X188472000Y-150963000D03*
X187972000Y-150963000D03*
X187472000Y-150963000D03*
X186972000Y-150963000D03*
X186472000Y-150963000D03*
X185972000Y-150963000D03*
X185472000Y-150963000D03*
X184972000Y-150963000D03*
%TD*%
D20*
%TO.C,R1502*%
X191260000Y-189103000D03*
X192280000Y-189103000D03*
%TD*%
D18*
%TO.C,C1409*%
X178534000Y-184404000D03*
X177574000Y-184404000D03*
%TD*%
D19*
%TO.C,R1808*%
X220280956Y-148863465D03*
X221002204Y-148142217D03*
%TD*%
D18*
%TO.C,C83*%
X275358800Y-154559000D03*
X274398800Y-154559000D03*
%TD*%
%TO.C,C2304*%
X257147000Y-189103000D03*
X256187000Y-189103000D03*
%TD*%
D30*
%TO.C,C1011*%
X177084277Y-147404704D03*
X176405455Y-146725882D03*
%TD*%
D43*
%TO.C,L2902*%
X288775000Y-182372000D03*
X287805000Y-182372000D03*
%TD*%
D23*
%TO.C,R3107*%
X318137000Y-181034000D03*
X317117000Y-181034000D03*
%TD*%
D18*
%TO.C,C1403*%
X172578000Y-189103000D03*
X171618000Y-189103000D03*
%TD*%
D25*
%TO.C,C183*%
X192786000Y-136878000D03*
X192786000Y-135918000D03*
%TD*%
D21*
%TO.C,C2205*%
X237404000Y-188087000D03*
X238364000Y-188087000D03*
%TD*%
D43*
%TO.C,L802*%
X147043000Y-182372000D03*
X146073000Y-182372000D03*
%TD*%
D25*
%TO.C,C1611*%
X200710800Y-143002000D03*
X200710800Y-142042000D03*
%TD*%
D19*
%TO.C,R1209*%
X182099241Y-157201178D03*
X182820489Y-156479930D03*
%TD*%
D24*
%TO.C,L501*%
X92456000Y-183365000D03*
X92456000Y-182395000D03*
%TD*%
D30*
%TO.C,C2811*%
X270937277Y-155278704D03*
X270258455Y-154599882D03*
%TD*%
D22*
%TO.C,C613*%
X155152411Y-151933589D03*
X154473589Y-152612411D03*
%TD*%
D26*
%TO.C,C514*%
X98806000Y-185448000D03*
X98806000Y-186408000D03*
%TD*%
D21*
%TO.C,C1307*%
X161826000Y-183388000D03*
X162786000Y-183388000D03*
%TD*%
D20*
%TO.C,R3206*%
X330833000Y-181034000D03*
X331853000Y-181034000D03*
%TD*%
D24*
%TO.C,L1601*%
X202692000Y-183365000D03*
X202692000Y-182395000D03*
%TD*%
%TO.C,L801*%
X139700000Y-183365000D03*
X139700000Y-182395000D03*
%TD*%
D20*
%TO.C,R908*%
X173186866Y-144652293D03*
X174206866Y-144652293D03*
%TD*%
D25*
%TO.C,C1512*%
X199440800Y-148082000D03*
X199440800Y-147122000D03*
%TD*%
D56*
%TO.C,U3201*%
X333109000Y-185163500D03*
X332609000Y-185163500D03*
X332109000Y-185163500D03*
X331609000Y-185163500D03*
D57*
X330896500Y-184451000D03*
X330896500Y-183951000D03*
X330896500Y-183451000D03*
X330896500Y-182951000D03*
D56*
X331609000Y-182238500D03*
X332109000Y-182238500D03*
X332609000Y-182238500D03*
X333109000Y-182238500D03*
D57*
X333821500Y-182951000D03*
X333821500Y-183451000D03*
X333821500Y-183951000D03*
X333821500Y-184451000D03*
D58*
X332359000Y-183701000D03*
%TD*%
D23*
%TO.C,R3101*%
X316182000Y-189103000D03*
X315162000Y-189103000D03*
%TD*%
D69*
%TO.C,C169*%
X88150000Y-123565801D03*
X88150000Y-125465801D03*
%TD*%
D36*
%TO.C,R3003*%
X297384000Y-187833000D03*
X299034000Y-187833000D03*
%TD*%
D19*
%TO.C,R1908*%
X221766822Y-152291758D03*
X222488070Y-151570510D03*
%TD*%
D25*
%TO.C,C508*%
X99314000Y-181201000D03*
X99314000Y-180241000D03*
%TD*%
D48*
%TO.C,U1*%
X139105000Y-149038000D03*
X139105000Y-148538000D03*
X139105000Y-148038000D03*
X139105000Y-147538000D03*
X139105000Y-147038000D03*
X139105000Y-146538000D03*
X139105000Y-146038000D03*
X139105000Y-145538000D03*
X139105000Y-145038000D03*
X139105000Y-144538000D03*
X139105000Y-144038000D03*
X139105000Y-143538000D03*
X139105000Y-143038000D03*
X139105000Y-142538000D03*
X139105000Y-142038000D03*
X139105000Y-141538000D03*
D49*
X141030000Y-139613000D03*
X141530000Y-139613000D03*
X142030000Y-139613000D03*
X142530000Y-139613000D03*
X143030000Y-139613000D03*
X143530000Y-139613000D03*
X144030000Y-139613000D03*
X144530000Y-139613000D03*
X145030000Y-139613000D03*
X145530000Y-139613000D03*
X146030000Y-139613000D03*
X146530000Y-139613000D03*
X147030000Y-139613000D03*
X147530000Y-139613000D03*
X148030000Y-139613000D03*
X148530000Y-139613000D03*
D48*
X150455000Y-141538000D03*
X150455000Y-142038000D03*
X150455000Y-142538000D03*
X150455000Y-143038000D03*
X150455000Y-143538000D03*
X150455000Y-144038000D03*
X150455000Y-144538000D03*
X150455000Y-145038000D03*
X150455000Y-145538000D03*
X150455000Y-146038000D03*
X150455000Y-146538000D03*
X150455000Y-147038000D03*
X150455000Y-147538000D03*
X150455000Y-148038000D03*
X150455000Y-148538000D03*
X150455000Y-149038000D03*
D49*
X148530000Y-150963000D03*
X148030000Y-150963000D03*
X147530000Y-150963000D03*
X147030000Y-150963000D03*
X146530000Y-150963000D03*
X146030000Y-150963000D03*
X145530000Y-150963000D03*
X145030000Y-150963000D03*
X144530000Y-150963000D03*
X144030000Y-150963000D03*
X143530000Y-150963000D03*
X143030000Y-150963000D03*
X142530000Y-150963000D03*
X142030000Y-150963000D03*
X141530000Y-150963000D03*
X141030000Y-150963000D03*
%TD*%
D24*
%TO.C,L1301*%
X155448000Y-183365000D03*
X155448000Y-182395000D03*
%TD*%
D50*
%TO.C,C313*%
X135676882Y-150116455D03*
X136355704Y-150795277D03*
%TD*%
D20*
%TO.C,R602*%
X112520000Y-189103000D03*
X113540000Y-189103000D03*
%TD*%
%TO.C,R1708*%
X217803000Y-144526000D03*
X218823000Y-144526000D03*
%TD*%
D56*
%TO.C,U2901*%
X285865000Y-185163500D03*
X285365000Y-185163500D03*
X284865000Y-185163500D03*
X284365000Y-185163500D03*
D57*
X283652500Y-184451000D03*
X283652500Y-183951000D03*
X283652500Y-183451000D03*
X283652500Y-182951000D03*
D56*
X284365000Y-182238500D03*
X284865000Y-182238500D03*
X285365000Y-182238500D03*
X285865000Y-182238500D03*
D57*
X286577500Y-182951000D03*
X286577500Y-183451000D03*
X286577500Y-183951000D03*
X286577500Y-184451000D03*
D58*
X285115000Y-183701000D03*
%TD*%
D23*
%TO.C,R3208*%
X292025800Y-142522000D03*
X291005800Y-142522000D03*
%TD*%
D28*
%TO.C,C121*%
X164211000Y-163970000D03*
X164211000Y-162420000D03*
%TD*%
%TO.C,C122*%
X276733000Y-163970000D03*
X276733000Y-162420000D03*
%TD*%
D43*
%TO.C,L502*%
X99799000Y-182372000D03*
X98829000Y-182372000D03*
%TD*%
D23*
%TO.C,R2401*%
X268937999Y-189103000D03*
X267917999Y-189103000D03*
%TD*%
D26*
%TO.C,C90*%
X323977000Y-132743000D03*
X323977000Y-133703000D03*
%TD*%
D65*
%TO.C,C32*%
X197503000Y-141666000D03*
X197503000Y-139766000D03*
%TD*%
D41*
%TO.C,C1312*%
X193986711Y-155247972D03*
X194665533Y-154569150D03*
%TD*%
D50*
%TO.C,C2013*%
X227283724Y-154224035D03*
X227962546Y-154902857D03*
%TD*%
D30*
%TO.C,C412*%
X139023411Y-157351252D03*
X138344589Y-156672430D03*
%TD*%
D25*
%TO.C,C3212*%
X289991800Y-144653000D03*
X289991800Y-143693000D03*
%TD*%
D30*
%TO.C,C1111*%
X178481277Y-150579704D03*
X177802455Y-149900882D03*
%TD*%
D27*
%TO.C,R2909*%
X283282784Y-155569408D03*
X282561536Y-154848160D03*
%TD*%
D25*
%TO.C,C3106*%
X313944000Y-183360000D03*
X313944000Y-182400000D03*
%TD*%
D41*
%TO.C,C1311*%
X195423552Y-153811131D03*
X196102374Y-153132309D03*
%TD*%
D44*
%TO.C,TP3*%
X128143000Y-123317000D03*
%TD*%
D22*
%TO.C,C2113*%
X238464411Y-153330589D03*
X237785589Y-154009411D03*
%TD*%
D25*
%TO.C,C171*%
X223774000Y-124051000D03*
X223774000Y-123091000D03*
%TD*%
%TO.C,C3211*%
X289991800Y-142621000D03*
X289991800Y-141661000D03*
%TD*%
D36*
%TO.C,R803*%
X139904000Y-187833000D03*
X141554000Y-187833000D03*
%TD*%
D33*
%TO.C,K1601*%
X207734000Y-191135000D03*
X207734000Y-196215000D03*
X207734000Y-198755000D03*
X207734000Y-201295000D03*
X207734000Y-203835000D03*
X200444000Y-203835000D03*
X200444000Y-201295000D03*
X200444000Y-198755000D03*
X200444000Y-196215000D03*
X200444000Y-191135000D03*
%TD*%
D24*
%TO.C,L3203*%
X336042000Y-186413000D03*
X336042000Y-185443000D03*
%TD*%
D37*
%TO.C,R1504*%
X194119000Y-187833000D03*
X192469000Y-187833000D03*
%TD*%
D36*
%TO.C,R1403*%
X171400000Y-187833000D03*
X173050000Y-187833000D03*
%TD*%
D27*
%TO.C,R2209*%
X243150784Y-153918408D03*
X242429536Y-153197160D03*
%TD*%
%TO.C,R509*%
X151964784Y-157347408D03*
X151243536Y-156626160D03*
%TD*%
D24*
%TO.C,L1403*%
X178562000Y-186413000D03*
X178562000Y-185443000D03*
%TD*%
D28*
%TO.C,C127*%
X313436000Y-163970000D03*
X313436000Y-162420000D03*
%TD*%
D18*
%TO.C,C2109*%
X225778000Y-184404000D03*
X224818000Y-184404000D03*
%TD*%
D28*
%TO.C,C126*%
X186944000Y-163970000D03*
X186944000Y-162420000D03*
%TD*%
D25*
%TO.C,C135*%
X286512000Y-126083000D03*
X286512000Y-125123000D03*
%TD*%
D70*
%TO.C,D5*%
X133858000Y-118516500D03*
X133858000Y-116941500D03*
%TD*%
D53*
%TO.C,D10*%
X212725000Y-110744000D03*
X214300000Y-110744000D03*
%TD*%
D23*
%TO.C,R1301*%
X158702000Y-189103000D03*
X157682000Y-189103000D03*
%TD*%
D71*
%TO.C,R91*%
X109982000Y-116711001D03*
X109982000Y-117731001D03*
%TD*%
D18*
%TO.C,C509*%
X99794000Y-184404000D03*
X98834000Y-184404000D03*
%TD*%
D20*
%TO.C,R502*%
X96772000Y-189103000D03*
X97792000Y-189103000D03*
%TD*%
%TO.C,R3102*%
X317244000Y-189103000D03*
X318264000Y-189103000D03*
%TD*%
D50*
%TO.C,C413*%
X138343882Y-155236296D03*
X139022704Y-155915118D03*
%TD*%
D33*
%TO.C,K801*%
X144742000Y-191135000D03*
X144742000Y-196215000D03*
X144742000Y-198755000D03*
X144742000Y-201295000D03*
X144742000Y-203835000D03*
X137452000Y-203835000D03*
X137452000Y-201295000D03*
X137452000Y-198755000D03*
X137452000Y-196215000D03*
X137452000Y-191135000D03*
%TD*%
D72*
%TO.C,L6*%
X125257000Y-119296500D03*
X125257000Y-121421500D03*
%TD*%
D21*
%TO.C,C2105*%
X221656000Y-188087000D03*
X222616000Y-188087000D03*
%TD*%
D23*
%TO.C,R2907*%
X286641000Y-181034000D03*
X285621000Y-181034000D03*
%TD*%
D37*
%TO.C,R804*%
X146875000Y-187833000D03*
X145225000Y-187833000D03*
%TD*%
D22*
%TO.C,C1413*%
X197951411Y-151552589D03*
X197272589Y-152231411D03*
%TD*%
D43*
%TO.C,L2302*%
X257279000Y-182372000D03*
X256309000Y-182372000D03*
%TD*%
D21*
%TO.C,C2907*%
X287810000Y-183388000D03*
X288770000Y-183388000D03*
%TD*%
D41*
%TO.C,C612*%
X154489711Y-154104972D03*
X155168533Y-153426150D03*
%TD*%
D19*
%TO.C,R1008*%
X175665822Y-148862758D03*
X176387070Y-148141510D03*
%TD*%
D36*
%TO.C,R3203*%
X328880000Y-187833000D03*
X330530000Y-187833000D03*
%TD*%
D23*
%TO.C,R2407*%
X270892999Y-181034000D03*
X269872999Y-181034000D03*
%TD*%
D18*
%TO.C,C2309*%
X257274000Y-184404000D03*
X256314000Y-184404000D03*
%TD*%
D19*
%TO.C,R1809*%
X220999375Y-149581885D03*
X221720623Y-148860637D03*
%TD*%
D60*
%TO.C,R84*%
X109638400Y-137406801D03*
X109638400Y-139056801D03*
%TD*%
D56*
%TO.C,U701*%
X128385000Y-185163500D03*
X127885000Y-185163500D03*
X127385000Y-185163500D03*
X126885000Y-185163500D03*
D57*
X126172500Y-184451000D03*
X126172500Y-183951000D03*
X126172500Y-183451000D03*
X126172500Y-182951000D03*
D56*
X126885000Y-182238500D03*
X127385000Y-182238500D03*
X127885000Y-182238500D03*
X128385000Y-182238500D03*
D57*
X129097500Y-182951000D03*
X129097500Y-183451000D03*
X129097500Y-183951000D03*
X129097500Y-184451000D03*
D58*
X127635000Y-183701000D03*
%TD*%
D38*
%TO.C,U23*%
X316327000Y-162483500D03*
X316977000Y-162483500D03*
X317627000Y-162483500D03*
X318277000Y-162483500D03*
X318927000Y-162483500D03*
D39*
X319989500Y-163546000D03*
X319989500Y-164196000D03*
X319989500Y-164846000D03*
X319989500Y-165496000D03*
X319989500Y-166146000D03*
D38*
X318927000Y-167208500D03*
X318277000Y-167208500D03*
X317627000Y-167208500D03*
X316977000Y-167208500D03*
X316327000Y-167208500D03*
D39*
X315264500Y-166146000D03*
X315264500Y-165496000D03*
X315264500Y-164846000D03*
X315264500Y-164196000D03*
X315264500Y-163546000D03*
D40*
X317627000Y-164846000D03*
%TD*%
D26*
%TO.C,C3014*%
X303530000Y-185448000D03*
X303530000Y-186408000D03*
%TD*%
D25*
%TO.C,C1610*%
X203720000Y-185265000D03*
X203720000Y-184305000D03*
%TD*%
D53*
%TO.C,D2*%
X269468500Y-108839000D03*
X271043500Y-108839000D03*
%TD*%
D23*
%TO.C,R1608*%
X202744800Y-142903000D03*
X201724800Y-142903000D03*
%TD*%
D30*
%TO.C,C2612*%
X266532118Y-148714545D03*
X265853296Y-148035723D03*
%TD*%
D35*
%TO.C,R115*%
X276352000Y-154053000D03*
X276352000Y-153033000D03*
%TD*%
D43*
%TO.C,L602*%
X115547000Y-182372000D03*
X114577000Y-182372000D03*
%TD*%
D37*
%TO.C,R504*%
X99631000Y-187833000D03*
X97981000Y-187833000D03*
%TD*%
D24*
%TO.C,L3103*%
X320294000Y-186413000D03*
X320294000Y-185443000D03*
%TD*%
D19*
%TO.C,R2609*%
X264395241Y-149454178D03*
X265116489Y-148732930D03*
%TD*%
D28*
%TO.C,C802*%
X142748000Y-207785000D03*
X142748000Y-206235000D03*
%TD*%
D50*
%TO.C,C2613*%
X265852589Y-146599589D03*
X266531411Y-147278411D03*
%TD*%
D25*
%TO.C,C184*%
X236728000Y-136878000D03*
X236728000Y-135918000D03*
%TD*%
D22*
%TO.C,C2213*%
X241766411Y-150917589D03*
X241087589Y-151596411D03*
%TD*%
D65*
%TO.C,C153*%
X123317000Y-121473000D03*
X123317000Y-119573000D03*
%TD*%
D21*
%TO.C,C124*%
X299113000Y-117856000D03*
X300073000Y-117856000D03*
%TD*%
D27*
%TO.C,R3009*%
X286782821Y-153989688D03*
X286061573Y-153268440D03*
%TD*%
D20*
%TO.C,R3106*%
X315085000Y-181034000D03*
X316105000Y-181034000D03*
%TD*%
D28*
%TO.C,C1402*%
X174244000Y-207785000D03*
X174244000Y-206235000D03*
%TD*%
D23*
%TO.C,R501*%
X95710000Y-189103000D03*
X94690000Y-189103000D03*
%TD*%
D20*
%TO.C,R606*%
X110361000Y-181034000D03*
X111381000Y-181034000D03*
%TD*%
D25*
%TO.C,C2412*%
X244652800Y-144399000D03*
X244652800Y-143439000D03*
%TD*%
D65*
%TO.C,C152*%
X276479000Y-115123000D03*
X276479000Y-113223000D03*
%TD*%
D73*
%TO.C,U13*%
X330471000Y-132073500D03*
X329971000Y-132073500D03*
X329471000Y-132073500D03*
X328971000Y-132073500D03*
X328471000Y-132073500D03*
X327971000Y-132073500D03*
X327471000Y-132073500D03*
X326971000Y-132073500D03*
X326471000Y-132073500D03*
X325971000Y-132073500D03*
D74*
X325283500Y-131386000D03*
X325283500Y-130886000D03*
X325283500Y-130386000D03*
X325283500Y-129886000D03*
X325283500Y-129386000D03*
X325283500Y-128886000D03*
X325283500Y-128386000D03*
X325283500Y-127886000D03*
X325283500Y-127386000D03*
X325283500Y-126886000D03*
D73*
X325971000Y-126198500D03*
X326471000Y-126198500D03*
X326971000Y-126198500D03*
X327471000Y-126198500D03*
X327971000Y-126198500D03*
X328471000Y-126198500D03*
X328971000Y-126198500D03*
X329471000Y-126198500D03*
X329971000Y-126198500D03*
X330471000Y-126198500D03*
D74*
X331158500Y-126886000D03*
X331158500Y-127386000D03*
X331158500Y-127886000D03*
X331158500Y-128386000D03*
X331158500Y-128886000D03*
X331158500Y-129386000D03*
X331158500Y-129886000D03*
X331158500Y-130386000D03*
X331158500Y-130886000D03*
X331158500Y-131386000D03*
D75*
X328221000Y-129136000D03*
%TD*%
D23*
%TO.C,R801*%
X142954000Y-189103000D03*
X141934000Y-189103000D03*
%TD*%
%TO.C,R1509*%
X201474800Y-147221000D03*
X200454800Y-147221000D03*
%TD*%
D55*
%TO.C,H2*%
X332740000Y-216154000D03*
%TD*%
D23*
%TO.C,R507*%
X97665000Y-181034000D03*
X96645000Y-181034000D03*
%TD*%
D26*
%TO.C,C814*%
X146050000Y-185448000D03*
X146050000Y-186408000D03*
%TD*%
D28*
%TO.C,C3201*%
X328803000Y-207785000D03*
X328803000Y-206235000D03*
%TD*%
D21*
%TO.C,C3005*%
X300396000Y-188087000D03*
X301356000Y-188087000D03*
%TD*%
D23*
%TO.C,R1307*%
X160657000Y-181034000D03*
X159637000Y-181034000D03*
%TD*%
D41*
%TO.C,C1411*%
X198725552Y-152287131D03*
X199404374Y-151608309D03*
%TD*%
D25*
%TO.C,C2511*%
X263272000Y-144498000D03*
X263272000Y-143538000D03*
%TD*%
D23*
%TO.C,R708*%
X157405800Y-145189000D03*
X156385800Y-145189000D03*
%TD*%
D38*
%TO.C,U21*%
X189708000Y-162483500D03*
X190358000Y-162483500D03*
X191008000Y-162483500D03*
X191658000Y-162483500D03*
X192308000Y-162483500D03*
D39*
X193370500Y-163546000D03*
X193370500Y-164196000D03*
X193370500Y-164846000D03*
X193370500Y-165496000D03*
X193370500Y-166146000D03*
D38*
X192308000Y-167208500D03*
X191658000Y-167208500D03*
X191008000Y-167208500D03*
X190358000Y-167208500D03*
X189708000Y-167208500D03*
D39*
X188645500Y-166146000D03*
X188645500Y-165496000D03*
X188645500Y-164846000D03*
X188645500Y-164196000D03*
X188645500Y-163546000D03*
D40*
X191008000Y-164846000D03*
%TD*%
D18*
%TO.C,C2403*%
X267065999Y-189103000D03*
X266105999Y-189103000D03*
%TD*%
D23*
%TO.C,R2901*%
X284686000Y-189103000D03*
X283666000Y-189103000D03*
%TD*%
D56*
%TO.C,U1501*%
X191377000Y-185163500D03*
X190877000Y-185163500D03*
X190377000Y-185163500D03*
X189877000Y-185163500D03*
D57*
X189164500Y-184451000D03*
X189164500Y-183951000D03*
X189164500Y-183451000D03*
X189164500Y-182951000D03*
D56*
X189877000Y-182238500D03*
X190377000Y-182238500D03*
X190877000Y-182238500D03*
X191377000Y-182238500D03*
D57*
X192089500Y-182951000D03*
X192089500Y-183451000D03*
X192089500Y-183951000D03*
X192089500Y-184451000D03*
D58*
X190627000Y-183701000D03*
%TD*%
D25*
%TO.C,C3208*%
X335534000Y-181201000D03*
X335534000Y-180241000D03*
%TD*%
D41*
%TO.C,C1412*%
X197288711Y-153723972D03*
X197967533Y-153045150D03*
%TD*%
D23*
%TO.C,R2201*%
X237442000Y-189103000D03*
X236422000Y-189103000D03*
%TD*%
D18*
%TO.C,C503*%
X93838000Y-189103000D03*
X92878000Y-189103000D03*
%TD*%
D33*
%TO.C,K3201*%
X333718000Y-191135000D03*
X333718000Y-196215000D03*
X333718000Y-198755000D03*
X333718000Y-201295000D03*
X333718000Y-203835000D03*
X326428000Y-203835000D03*
X326428000Y-201295000D03*
X326428000Y-198755000D03*
X326428000Y-196215000D03*
X326428000Y-191135000D03*
%TD*%
D18*
%TO.C,C3103*%
X314310000Y-189103000D03*
X313350000Y-189103000D03*
%TD*%
D25*
%TO.C,C3006*%
X298196000Y-183360000D03*
X298196000Y-182400000D03*
%TD*%
D26*
%TO.C,C2414*%
X272033999Y-185448000D03*
X272033999Y-186408000D03*
%TD*%
D25*
%TO.C,C1511*%
X199440800Y-146050000D03*
X199440800Y-145090000D03*
%TD*%
%TO.C,C712*%
X155371800Y-147320000D03*
X155371800Y-146360000D03*
%TD*%
D65*
%TO.C,C51*%
X241445000Y-141666000D03*
X241445000Y-139766000D03*
%TD*%
D24*
%TO.C,L3201*%
X328676000Y-183365000D03*
X328676000Y-182395000D03*
%TD*%
D28*
%TO.C,C3102*%
X315976000Y-207785000D03*
X315976000Y-206235000D03*
%TD*%
D54*
%TO.C,C168*%
X97872700Y-130264601D03*
X99772700Y-130264601D03*
%TD*%
D26*
%TO.C,C813*%
X155651200Y-141986000D03*
X155651200Y-142946000D03*
%TD*%
D23*
%TO.C,R3108*%
X288469800Y-145189000D03*
X287449800Y-145189000D03*
%TD*%
D25*
%TO.C,C1606*%
X203708000Y-183360000D03*
X203708000Y-182400000D03*
%TD*%
D27*
%TO.C,R508*%
X152862810Y-156449382D03*
X152141562Y-155728134D03*
%TD*%
D23*
%TO.C,R26*%
X269242000Y-143891000D03*
X268222000Y-143891000D03*
%TD*%
D20*
%TO.C,R2508*%
X261238000Y-144526000D03*
X262258000Y-144526000D03*
%TD*%
D71*
%TO.C,R98*%
X105918000Y-116711001D03*
X105918000Y-117731001D03*
%TD*%
D28*
%TO.C,C116*%
X137922000Y-163970000D03*
X137922000Y-162420000D03*
%TD*%
D37*
%TO.C,R2904*%
X288607000Y-187833000D03*
X286957000Y-187833000D03*
%TD*%
D47*
%TO.C,R100*%
X320708000Y-136875000D03*
X320708000Y-135225000D03*
%TD*%
D18*
%TO.C,C1503*%
X188326000Y-189103000D03*
X187366000Y-189103000D03*
%TD*%
D20*
%TO.C,R15*%
X191786000Y-137922000D03*
X192806000Y-137922000D03*
%TD*%
D36*
%TO.C,R2303*%
X250140000Y-187833000D03*
X251790000Y-187833000D03*
%TD*%
D21*
%TO.C,C1505*%
X190160000Y-188087000D03*
X191120000Y-188087000D03*
%TD*%
D20*
%TO.C,R1406*%
X173353000Y-181034000D03*
X174373000Y-181034000D03*
%TD*%
D50*
%TO.C,C2713*%
X267249589Y-149901589D03*
X267928411Y-150580411D03*
%TD*%
D56*
%TO.C,U1601*%
X207125000Y-185163500D03*
X206625000Y-185163500D03*
X206125000Y-185163500D03*
X205625000Y-185163500D03*
D57*
X204912500Y-184451000D03*
X204912500Y-183951000D03*
X204912500Y-183451000D03*
X204912500Y-182951000D03*
D56*
X205625000Y-182238500D03*
X206125000Y-182238500D03*
X206625000Y-182238500D03*
X207125000Y-182238500D03*
D57*
X207837500Y-182951000D03*
X207837500Y-183451000D03*
X207837500Y-183951000D03*
X207837500Y-184451000D03*
D58*
X206375000Y-183701000D03*
%TD*%
D20*
%TO.C,R506*%
X94613000Y-181034000D03*
X95633000Y-181034000D03*
%TD*%
D25*
%TO.C,C179*%
X191770000Y-136878000D03*
X191770000Y-135918000D03*
%TD*%
D43*
%TO.C,L1402*%
X178539000Y-182372000D03*
X177569000Y-182372000D03*
%TD*%
D21*
%TO.C,C2405*%
X268899999Y-188087000D03*
X269859999Y-188087000D03*
%TD*%
D24*
%TO.C,L3003*%
X304546000Y-186413000D03*
X304546000Y-185443000D03*
%TD*%
D25*
%TO.C,C1612*%
X200710800Y-145034000D03*
X200710800Y-144074000D03*
%TD*%
%TO.C,C810*%
X140728000Y-185265000D03*
X140728000Y-184305000D03*
%TD*%
D44*
%TO.C,TP5*%
X111748700Y-144044901D03*
%TD*%
D20*
%TO.C,R2102*%
X222756000Y-189103000D03*
X223776000Y-189103000D03*
%TD*%
%TO.C,R705*%
X127125000Y-186368000D03*
X128145000Y-186368000D03*
%TD*%
D30*
%TO.C,C1112*%
X179918118Y-152016545D03*
X179239296Y-151337723D03*
%TD*%
D25*
%TO.C,C1608*%
X209550000Y-181201000D03*
X209550000Y-180241000D03*
%TD*%
D76*
%TO.C,L5*%
X272495500Y-115062000D03*
X274620500Y-115062000D03*
%TD*%
D25*
%TO.C,C1310*%
X156476000Y-185265000D03*
X156476000Y-184305000D03*
%TD*%
%TO.C,C711*%
X155371800Y-145288000D03*
X155371800Y-144328000D03*
%TD*%
D23*
%TO.C,R1607*%
X207901000Y-181034000D03*
X206881000Y-181034000D03*
%TD*%
D51*
%TO.C,R59*%
X194587500Y-215138000D03*
X192762500Y-215138000D03*
%TD*%
D23*
%TO.C,R1609*%
X202744800Y-144173000D03*
X201724800Y-144173000D03*
%TD*%
D41*
%TO.C,C2912*%
X281235711Y-154739972D03*
X281914533Y-154061150D03*
%TD*%
D22*
%TO.C,C2913*%
X281898411Y-152568589D03*
X281219589Y-153247411D03*
%TD*%
D77*
%TO.C,J6*%
X176895000Y-126492000D03*
D78*
X174895000Y-126492000D03*
%TD*%
D41*
%TO.C,C2211*%
X242540552Y-151652131D03*
X243219374Y-150973309D03*
%TD*%
D25*
%TO.C,C182*%
X148844000Y-136878000D03*
X148844000Y-135918000D03*
%TD*%
D18*
%TO.C,C3203*%
X330058000Y-189103000D03*
X329098000Y-189103000D03*
%TD*%
D51*
%TO.C,R65*%
X226083500Y-95123000D03*
X224258500Y-95123000D03*
%TD*%
D19*
%TO.C,R408*%
X136168115Y-157372465D03*
X136889363Y-156651217D03*
%TD*%
D21*
%TO.C,C2305*%
X253152000Y-188087000D03*
X254112000Y-188087000D03*
%TD*%
D20*
%TO.C,R2302*%
X254252000Y-189103000D03*
X255272000Y-189103000D03*
%TD*%
D56*
%TO.C,U801*%
X144133000Y-185163500D03*
X143633000Y-185163500D03*
X143133000Y-185163500D03*
X142633000Y-185163500D03*
D57*
X141920500Y-184451000D03*
X141920500Y-183951000D03*
X141920500Y-183451000D03*
X141920500Y-182951000D03*
D56*
X142633000Y-182238500D03*
X143133000Y-182238500D03*
X143633000Y-182238500D03*
X144133000Y-182238500D03*
D57*
X144845500Y-182951000D03*
X144845500Y-183451000D03*
X144845500Y-183951000D03*
X144845500Y-184451000D03*
D58*
X143383000Y-183701000D03*
%TD*%
D27*
%TO.C,R2109*%
X239848784Y-156331408D03*
X239127536Y-155610160D03*
%TD*%
D35*
%TO.C,R12*%
X187444000Y-153572000D03*
X187444000Y-152552000D03*
%TD*%
D21*
%TO.C,C2407*%
X272061999Y-183388000D03*
X273021999Y-183388000D03*
%TD*%
%TO.C,C2107*%
X224818000Y-183388000D03*
X225778000Y-183388000D03*
%TD*%
D27*
%TO.C,R86*%
X111751624Y-125714625D03*
X111030376Y-124993377D03*
%TD*%
D44*
%TO.C,TP9*%
X115189000Y-151130000D03*
%TD*%
D20*
%TO.C,R605*%
X111377000Y-186368000D03*
X112397000Y-186368000D03*
%TD*%
D37*
%TO.C,R76*%
X274256000Y-113030000D03*
X272606000Y-113030000D03*
%TD*%
D25*
%TO.C,C178*%
X147828000Y-136878000D03*
X147828000Y-135918000D03*
%TD*%
D21*
%TO.C,C707*%
X130330000Y-183388000D03*
X131290000Y-183388000D03*
%TD*%
D37*
%TO.C,R2404*%
X272858999Y-187833000D03*
X271208999Y-187833000D03*
%TD*%
D56*
%TO.C,U3101*%
X317361000Y-185163500D03*
X316861000Y-185163500D03*
X316361000Y-185163500D03*
X315861000Y-185163500D03*
D57*
X315148500Y-184451000D03*
X315148500Y-183951000D03*
X315148500Y-183451000D03*
X315148500Y-182951000D03*
D56*
X315861000Y-182238500D03*
X316361000Y-182238500D03*
X316861000Y-182238500D03*
X317361000Y-182238500D03*
D57*
X318073500Y-182951000D03*
X318073500Y-183451000D03*
X318073500Y-183951000D03*
X318073500Y-184451000D03*
D58*
X316611000Y-183701000D03*
%TD*%
D27*
%TO.C,R1309*%
X196033784Y-156077408D03*
X195312536Y-155356160D03*
%TD*%
D21*
%TO.C,C705*%
X127168000Y-188087000D03*
X128128000Y-188087000D03*
%TD*%
D55*
%TO.C,H1*%
X88900000Y-216154000D03*
%TD*%
D18*
%TO.C,C97*%
X335379001Y-130936999D03*
X334419001Y-130936999D03*
%TD*%
D65*
%TO.C,C69*%
X285387000Y-141666000D03*
X285387000Y-139766000D03*
%TD*%
D36*
%TO.C,R1603*%
X202896000Y-187833000D03*
X204546000Y-187833000D03*
%TD*%
D25*
%TO.C,C2512*%
X263272000Y-146530000D03*
X263272000Y-145570000D03*
%TD*%
D38*
%TO.C,U20*%
X279497000Y-162483500D03*
X280147000Y-162483500D03*
X280797000Y-162483500D03*
X281447000Y-162483500D03*
X282097000Y-162483500D03*
D39*
X283159500Y-163546000D03*
X283159500Y-164196000D03*
X283159500Y-164846000D03*
X283159500Y-165496000D03*
X283159500Y-166146000D03*
D38*
X282097000Y-167208500D03*
X281447000Y-167208500D03*
X280797000Y-167208500D03*
X280147000Y-167208500D03*
X279497000Y-167208500D03*
D39*
X278434500Y-166146000D03*
X278434500Y-165496000D03*
X278434500Y-164846000D03*
X278434500Y-164196000D03*
X278434500Y-163546000D03*
D40*
X280797000Y-164846000D03*
%TD*%
D21*
%TO.C,C805*%
X142916000Y-188087000D03*
X143876000Y-188087000D03*
%TD*%
D44*
%TO.C,TP1*%
X314579000Y-115951000D03*
%TD*%
D25*
%TO.C,C708*%
X130810000Y-181201000D03*
X130810000Y-180241000D03*
%TD*%
D26*
%TO.C,C163*%
X107950000Y-116741001D03*
X107950000Y-117701001D03*
%TD*%
D25*
%TO.C,C2306*%
X250952000Y-183360000D03*
X250952000Y-182400000D03*
%TD*%
D51*
%TO.C,R61*%
X156106500Y-95123000D03*
X154281500Y-95123000D03*
%TD*%
D35*
%TO.C,R113*%
X188468000Y-154053000D03*
X188468000Y-153033000D03*
%TD*%
D23*
%TO.C,R2101*%
X221694000Y-189103000D03*
X220674000Y-189103000D03*
%TD*%
D27*
%TO.C,R1408*%
X200233810Y-153655382D03*
X199512562Y-152934134D03*
%TD*%
D20*
%TO.C,R3005*%
X300353000Y-186368000D03*
X301373000Y-186368000D03*
%TD*%
D21*
%TO.C,C1305*%
X158664000Y-188087000D03*
X159624000Y-188087000D03*
%TD*%
D35*
%TO.C,R7*%
X145542000Y-154053000D03*
X145542000Y-153033000D03*
%TD*%
D18*
%TO.C,C98*%
X335379000Y-129921000D03*
X334419000Y-129921000D03*
%TD*%
D53*
%TO.C,D3*%
X269468500Y-107188000D03*
X271043500Y-107188000D03*
%TD*%
D22*
%TO.C,C1313*%
X194649411Y-153076589D03*
X193970589Y-153755411D03*
%TD*%
D38*
%TO.C,U14*%
X126589000Y-162356500D03*
X127239000Y-162356500D03*
X127889000Y-162356500D03*
X128539000Y-162356500D03*
X129189000Y-162356500D03*
D39*
X130251500Y-163419000D03*
X130251500Y-164069000D03*
X130251500Y-164719000D03*
X130251500Y-165369000D03*
X130251500Y-166019000D03*
D38*
X129189000Y-167081500D03*
X128539000Y-167081500D03*
X127889000Y-167081500D03*
X127239000Y-167081500D03*
X126589000Y-167081500D03*
D39*
X125526500Y-166019000D03*
X125526500Y-165369000D03*
X125526500Y-164719000D03*
X125526500Y-164069000D03*
X125526500Y-163419000D03*
D40*
X127889000Y-164719000D03*
%TD*%
D30*
%TO.C,C2711*%
X266492277Y-150579704D03*
X265813455Y-149900882D03*
%TD*%
D20*
%TO.C,R9*%
X147844000Y-137922000D03*
X148864000Y-137922000D03*
%TD*%
D18*
%TO.C,C2203*%
X235570000Y-189103000D03*
X234610000Y-189103000D03*
%TD*%
D25*
%TO.C,C2210*%
X235216000Y-185265000D03*
X235216000Y-184305000D03*
%TD*%
%TO.C,C1712*%
X219837000Y-146530000D03*
X219837000Y-145570000D03*
%TD*%
D43*
%TO.C,L1302*%
X162791000Y-182372000D03*
X161821000Y-182372000D03*
%TD*%
D20*
%TO.C,R1606*%
X204849000Y-181034000D03*
X205869000Y-181034000D03*
%TD*%
D23*
%TO.C,R54*%
X183644000Y-122809000D03*
X182624000Y-122809000D03*
%TD*%
D27*
%TO.C,R609*%
X156536784Y-154934408D03*
X155815536Y-154213160D03*
%TD*%
D23*
%TO.C,R607*%
X113413000Y-181034000D03*
X112393000Y-181034000D03*
%TD*%
D24*
%TO.C,L2901*%
X281432000Y-183365000D03*
X281432000Y-182395000D03*
%TD*%
%TO.C,L2103*%
X225806000Y-186413000D03*
X225806000Y-185443000D03*
%TD*%
D36*
%TO.C,R2203*%
X234392000Y-187833000D03*
X236042000Y-187833000D03*
%TD*%
D41*
%TO.C,C511*%
X151354552Y-155081131D03*
X152033374Y-154402309D03*
%TD*%
D60*
%TO.C,R110*%
X107073000Y-126302001D03*
X107073000Y-127952001D03*
%TD*%
D38*
%TO.C,U19*%
X166975000Y-162483500D03*
X167625000Y-162483500D03*
X168275000Y-162483500D03*
X168925000Y-162483500D03*
X169575000Y-162483500D03*
D39*
X170637500Y-163546000D03*
X170637500Y-164196000D03*
X170637500Y-164846000D03*
X170637500Y-165496000D03*
X170637500Y-166146000D03*
D38*
X169575000Y-167208500D03*
X168925000Y-167208500D03*
X168275000Y-167208500D03*
X167625000Y-167208500D03*
X166975000Y-167208500D03*
D39*
X165912500Y-166146000D03*
X165912500Y-165496000D03*
X165912500Y-164846000D03*
X165912500Y-164196000D03*
X165912500Y-163546000D03*
D40*
X168275000Y-164846000D03*
%TD*%
D36*
%TO.C,R603*%
X108408000Y-187833000D03*
X110058000Y-187833000D03*
%TD*%
D20*
%TO.C,R909*%
X173186865Y-145668292D03*
X174206865Y-145668292D03*
%TD*%
%TO.C,R2406*%
X267840999Y-181034000D03*
X268860999Y-181034000D03*
%TD*%
D21*
%TO.C,C2207*%
X240566000Y-183388000D03*
X241526000Y-183388000D03*
%TD*%
D25*
%TO.C,C1406*%
X172212000Y-183360000D03*
X172212000Y-182400000D03*
%TD*%
D30*
%TO.C,C1012*%
X178521118Y-148841545D03*
X177842296Y-148162723D03*
%TD*%
D23*
%TO.C,R20*%
X225300000Y-143891000D03*
X224280000Y-143891000D03*
%TD*%
%TO.C,R709*%
X157405800Y-146459000D03*
X156385800Y-146459000D03*
%TD*%
D28*
%TO.C,C2901*%
X281559000Y-207785000D03*
X281559000Y-206235000D03*
%TD*%
D25*
%TO.C,C911*%
X175220866Y-144624293D03*
X175220866Y-143664293D03*
%TD*%
%TO.C,C1410*%
X172224000Y-185265000D03*
X172224000Y-184305000D03*
%TD*%
D23*
%TO.C,R701*%
X127206000Y-189103000D03*
X126186000Y-189103000D03*
%TD*%
D35*
%TO.C,R19*%
X233426000Y-154053000D03*
X233426000Y-153033000D03*
%TD*%
D44*
%TO.C,TP8*%
X95504000Y-134519901D03*
%TD*%
D18*
%TO.C,C3104*%
X320139000Y-189103000D03*
X319179000Y-189103000D03*
%TD*%
%TO.C,C1304*%
X162659000Y-189103000D03*
X161699000Y-189103000D03*
%TD*%
D20*
%TO.C,R805*%
X142873000Y-186368000D03*
X143893000Y-186368000D03*
%TD*%
%TO.C,R109*%
X129810750Y-145415000D03*
X130830750Y-145415000D03*
%TD*%
D37*
%TO.C,R1304*%
X162623000Y-187833000D03*
X160973000Y-187833000D03*
%TD*%
D23*
%TO.C,R2107*%
X223649000Y-181034000D03*
X222629000Y-181034000D03*
%TD*%
D20*
%TO.C,R1505*%
X190117000Y-186368000D03*
X191137000Y-186368000D03*
%TD*%
%TO.C,R51*%
X173099000Y-121539000D03*
X174119000Y-121539000D03*
%TD*%
D43*
%TO.C,L1602*%
X210035000Y-182372000D03*
X209065000Y-182372000D03*
%TD*%
D20*
%TO.C,R1302*%
X159764000Y-189103000D03*
X160784000Y-189103000D03*
%TD*%
D18*
%TO.C,C65*%
X231416800Y-154559000D03*
X230456800Y-154559000D03*
%TD*%
D26*
%TO.C,C2513*%
X264287000Y-144554000D03*
X264287000Y-145514000D03*
%TD*%
D70*
%TO.C,D9*%
X148844000Y-115722500D03*
X148844000Y-114147500D03*
%TD*%
D43*
%TO.C,L702*%
X131295000Y-182372000D03*
X130325000Y-182372000D03*
%TD*%
%TO.C,L3102*%
X320271000Y-182372000D03*
X319301000Y-182372000D03*
%TD*%
D23*
%TO.C,R3001*%
X300434000Y-189103000D03*
X299414000Y-189103000D03*
%TD*%
D25*
%TO.C,C3110*%
X313956000Y-185265000D03*
X313956000Y-184305000D03*
%TD*%
D56*
%TO.C,U601*%
X112637000Y-185163500D03*
X112137000Y-185163500D03*
X111637000Y-185163500D03*
X111137000Y-185163500D03*
D57*
X110424500Y-184451000D03*
X110424500Y-183951000D03*
X110424500Y-183451000D03*
X110424500Y-182951000D03*
D56*
X111137000Y-182238500D03*
X111637000Y-182238500D03*
X112137000Y-182238500D03*
X112637000Y-182238500D03*
D57*
X113349500Y-182951000D03*
X113349500Y-183451000D03*
X113349500Y-183951000D03*
X113349500Y-184451000D03*
D58*
X111887000Y-183701000D03*
%TD*%
D21*
%TO.C,C1407*%
X177574000Y-183388000D03*
X178534000Y-183388000D03*
%TD*%
D69*
%TO.C,C154*%
X113959001Y-130630001D03*
X113959001Y-132530001D03*
%TD*%
D25*
%TO.C,C2206*%
X235204000Y-183360000D03*
X235204000Y-182400000D03*
%TD*%
D38*
%TO.C,U18*%
X254859000Y-162483500D03*
X255509000Y-162483500D03*
X256159000Y-162483500D03*
X256809000Y-162483500D03*
X257459000Y-162483500D03*
D39*
X258521500Y-163546000D03*
X258521500Y-164196000D03*
X258521500Y-164846000D03*
X258521500Y-165496000D03*
X258521500Y-166146000D03*
D38*
X257459000Y-167208500D03*
X256809000Y-167208500D03*
X256159000Y-167208500D03*
X255509000Y-167208500D03*
X254859000Y-167208500D03*
D39*
X253796500Y-166146000D03*
X253796500Y-165496000D03*
X253796500Y-164846000D03*
X253796500Y-164196000D03*
X253796500Y-163546000D03*
D40*
X256159000Y-164846000D03*
%TD*%
D25*
%TO.C,C510*%
X93484000Y-185265000D03*
X93484000Y-184305000D03*
%TD*%
D71*
%TO.C,R93*%
X106934001Y-116711001D03*
X106934001Y-117731001D03*
%TD*%
D19*
%TO.C,R1208*%
X181380822Y-156482758D03*
X182102070Y-155761510D03*
%TD*%
D23*
%TO.C,R8*%
X137416000Y-143891000D03*
X136396000Y-143891000D03*
%TD*%
D56*
%TO.C,U1301*%
X159881000Y-185163500D03*
X159381000Y-185163500D03*
X158881000Y-185163500D03*
X158381000Y-185163500D03*
D57*
X157668500Y-184451000D03*
X157668500Y-183951000D03*
X157668500Y-183451000D03*
X157668500Y-182951000D03*
D56*
X158381000Y-182238500D03*
X158881000Y-182238500D03*
X159381000Y-182238500D03*
X159881000Y-182238500D03*
D57*
X160593500Y-182951000D03*
X160593500Y-183451000D03*
X160593500Y-183951000D03*
X160593500Y-184451000D03*
D58*
X159131000Y-183701000D03*
%TD*%
D43*
%TO.C,L1502*%
X194287000Y-182372000D03*
X193317000Y-182372000D03*
%TD*%
D36*
%TO.C,R503*%
X92660000Y-187833000D03*
X94310000Y-187833000D03*
%TD*%
D33*
%TO.C,K1401*%
X176238000Y-191135000D03*
X176238000Y-196215000D03*
X176238000Y-198755000D03*
X176238000Y-201295000D03*
X176238000Y-203835000D03*
X168948000Y-203835000D03*
X168948000Y-201295000D03*
X168948000Y-198755000D03*
X168948000Y-196215000D03*
X168948000Y-191135000D03*
%TD*%
D50*
%TO.C,C1013*%
X177841589Y-146726589D03*
X178520411Y-147405411D03*
%TD*%
D79*
%TO.C,D8*%
X103432800Y-130154601D03*
D80*
X101782800Y-130154601D03*
%TD*%
D18*
%TO.C,C2303*%
X251318000Y-189103000D03*
X250358000Y-189103000D03*
%TD*%
D54*
%TO.C,C155*%
X109653600Y-140771206D03*
X111553600Y-140771206D03*
%TD*%
D23*
%TO.C,R2308*%
X245289800Y-145443000D03*
X244269800Y-145443000D03*
%TD*%
D18*
%TO.C,C3209*%
X336014000Y-184404000D03*
X335054000Y-184404000D03*
%TD*%
D20*
%TO.C,R1405*%
X174369000Y-186368000D03*
X175389000Y-186368000D03*
%TD*%
D24*
%TO.C,L703*%
X131318000Y-186413000D03*
X131318000Y-185443000D03*
%TD*%
D25*
%TO.C,C806*%
X140716000Y-183360000D03*
X140716000Y-182400000D03*
%TD*%
D35*
%TO.C,R112*%
X144526000Y-154053000D03*
X144526000Y-153033000D03*
%TD*%
D60*
%TO.C,R80*%
X110121000Y-126302001D03*
X110121000Y-127952001D03*
%TD*%
D50*
%TO.C,C1113*%
X179238589Y-149901589D03*
X179917411Y-150580411D03*
%TD*%
D28*
%TO.C,C1302*%
X158496000Y-207785000D03*
X158496000Y-206235000D03*
%TD*%
D21*
%TO.C,C505*%
X95672000Y-188087000D03*
X96632000Y-188087000D03*
%TD*%
D19*
%TO.C,R1109*%
X177781241Y-152756178D03*
X178502489Y-152034930D03*
%TD*%
D33*
%TO.C,K1301*%
X160490000Y-191135000D03*
X160490000Y-196215000D03*
X160490000Y-198755000D03*
X160490000Y-201295000D03*
X160490000Y-203835000D03*
X153200000Y-203835000D03*
X153200000Y-201295000D03*
X153200000Y-198755000D03*
X153200000Y-196215000D03*
X153200000Y-191135000D03*
%TD*%
D30*
%TO.C,C211*%
X133689411Y-147278411D03*
X133010589Y-146599589D03*
%TD*%
D27*
%TO.C,R1308*%
X196931810Y-155179382D03*
X196210562Y-154458134D03*
%TD*%
D25*
%TO.C,C1508*%
X193802000Y-181201000D03*
X193802000Y-180241000D03*
%TD*%
%TO.C,C2908*%
X288290000Y-181201000D03*
X288290000Y-180241000D03*
%TD*%
D19*
%TO.C,R2009*%
X225826376Y-157078624D03*
X226547624Y-156357376D03*
%TD*%
D44*
%TO.C,TP10*%
X318389000Y-120015000D03*
%TD*%
D20*
%TO.C,R21*%
X235728000Y-137922000D03*
X236748000Y-137922000D03*
%TD*%
D23*
%TO.C,R1507*%
X192153000Y-181034000D03*
X191133000Y-181034000D03*
%TD*%
D18*
%TO.C,C1504*%
X194155000Y-189103000D03*
X193195000Y-189103000D03*
%TD*%
D26*
%TO.C,C2914*%
X287782000Y-185448000D03*
X287782000Y-186408000D03*
%TD*%
D25*
%TO.C,C111*%
X131844750Y-144289750D03*
X131844750Y-143329750D03*
%TD*%
D44*
%TO.C,TP11*%
X130937000Y-116078000D03*
%TD*%
D20*
%TO.C,R2202*%
X238504000Y-189103000D03*
X239524000Y-189103000D03*
%TD*%
D19*
%TO.C,R2809*%
X270237241Y-157455178D03*
X270958489Y-156733930D03*
%TD*%
D33*
%TO.C,K3101*%
X317970000Y-191135000D03*
X317970000Y-196215000D03*
X317970000Y-198755000D03*
X317970000Y-201295000D03*
X317970000Y-203835000D03*
X310680000Y-203835000D03*
X310680000Y-201295000D03*
X310680000Y-198755000D03*
X310680000Y-196215000D03*
X310680000Y-191135000D03*
%TD*%
D44*
%TO.C,TP7*%
X100457000Y-151130000D03*
%TD*%
D33*
%TO.C,K2201*%
X239230000Y-191135000D03*
X239230000Y-196215000D03*
X239230000Y-198755000D03*
X239230000Y-201295000D03*
X239230000Y-203835000D03*
X231940000Y-203835000D03*
X231940000Y-201295000D03*
X231940000Y-198755000D03*
X231940000Y-196215000D03*
X231940000Y-191135000D03*
%TD*%
D30*
%TO.C,C212*%
X135126252Y-148715252D03*
X134447430Y-148036430D03*
%TD*%
D28*
%TO.C,C2401*%
X265810999Y-207785000D03*
X265810999Y-206235000D03*
%TD*%
D19*
%TO.C,R2608*%
X263676822Y-148735758D03*
X264398070Y-148014510D03*
%TD*%
D36*
%TO.C,R78*%
X269050000Y-115062000D03*
X270700000Y-115062000D03*
%TD*%
D25*
%TO.C,C130*%
X285750000Y-119225000D03*
X285750000Y-118265000D03*
%TD*%
D18*
%TO.C,C604*%
X115415000Y-189103000D03*
X114455000Y-189103000D03*
%TD*%
D20*
%TO.C,R1602*%
X207008000Y-189103000D03*
X208028000Y-189103000D03*
%TD*%
D23*
%TO.C,R3207*%
X333885000Y-181034000D03*
X332865000Y-181034000D03*
%TD*%
D56*
%TO.C,U1401*%
X175629000Y-185163500D03*
X175129000Y-185163500D03*
X174629000Y-185163500D03*
X174129000Y-185163500D03*
D57*
X173416500Y-184451000D03*
X173416500Y-183951000D03*
X173416500Y-183451000D03*
X173416500Y-182951000D03*
D56*
X174129000Y-182238500D03*
X174629000Y-182238500D03*
X175129000Y-182238500D03*
X175629000Y-182238500D03*
D57*
X176341500Y-182951000D03*
X176341500Y-183451000D03*
X176341500Y-183951000D03*
X176341500Y-184451000D03*
D58*
X174879000Y-183701000D03*
%TD*%
D26*
%TO.C,C2214*%
X240538000Y-185448000D03*
X240538000Y-186408000D03*
%TD*%
D50*
%TO.C,C1913*%
X223942589Y-150155589D03*
X224621411Y-150834411D03*
%TD*%
D28*
%TO.C,C2202*%
X237236000Y-207785000D03*
X237236000Y-206235000D03*
%TD*%
D21*
%TO.C,C605*%
X111420000Y-188087000D03*
X112380000Y-188087000D03*
%TD*%
%TO.C,C133*%
X288064000Y-117221000D03*
X289024000Y-117221000D03*
%TD*%
D41*
%TO.C,C2212*%
X241103711Y-153088972D03*
X241782533Y-152410150D03*
%TD*%
D18*
%TO.C,C2909*%
X288770000Y-184404000D03*
X287810000Y-184404000D03*
%TD*%
%TO.C,C3109*%
X320266000Y-184404000D03*
X319306000Y-184404000D03*
%TD*%
D51*
%TO.C,R64*%
X308506500Y-218186000D03*
X306681500Y-218186000D03*
%TD*%
D25*
%TO.C,C180*%
X235712000Y-136878000D03*
X235712000Y-135918000D03*
%TD*%
D28*
%TO.C,C2902*%
X284480000Y-207785000D03*
X284480000Y-206235000D03*
%TD*%
%TO.C,C2402*%
X268731999Y-207785000D03*
X268731999Y-206235000D03*
%TD*%
D24*
%TO.C,L803*%
X147066000Y-186413000D03*
X147066000Y-185443000D03*
%TD*%
D18*
%TO.C,C3204*%
X335887000Y-189103000D03*
X334927000Y-189103000D03*
%TD*%
D23*
%TO.C,R1601*%
X205946000Y-189103000D03*
X204926000Y-189103000D03*
%TD*%
D18*
%TO.C,C704*%
X131163000Y-189103000D03*
X130203000Y-189103000D03*
%TD*%
D43*
%TO.C,L2402*%
X273026999Y-182372000D03*
X272056999Y-182372000D03*
%TD*%
D25*
%TO.C,C3108*%
X319786000Y-181201000D03*
X319786000Y-180241000D03*
%TD*%
%TO.C,C2410*%
X266711999Y-185265000D03*
X266711999Y-184305000D03*
%TD*%
D23*
%TO.C,R2408*%
X246686800Y-142268000D03*
X245666800Y-142268000D03*
%TD*%
D20*
%TO.C,R3202*%
X332992000Y-189103000D03*
X334012000Y-189103000D03*
%TD*%
D26*
%TO.C,C2114*%
X224790000Y-185448000D03*
X224790000Y-186408000D03*
%TD*%
D21*
%TO.C,C607*%
X114582000Y-183388000D03*
X115542000Y-183388000D03*
%TD*%
D26*
%TO.C,C113*%
X132859750Y-144345750D03*
X132859750Y-145305750D03*
%TD*%
D54*
%TO.C,C167*%
X99341200Y-136199800D03*
X101241200Y-136199800D03*
%TD*%
D18*
%TO.C,C44*%
X187474800Y-154559000D03*
X186514800Y-154559000D03*
%TD*%
D25*
%TO.C,C2312*%
X243255800Y-147574000D03*
X243255800Y-146614000D03*
%TD*%
D28*
%TO.C,C94*%
X123825000Y-163843000D03*
X123825000Y-162293000D03*
%TD*%
D18*
%TO.C,C99*%
X335379000Y-128905001D03*
X334419000Y-128905001D03*
%TD*%
D20*
%TO.C,R2205*%
X237361000Y-186368000D03*
X238381000Y-186368000D03*
%TD*%
D23*
%TO.C,R14*%
X181358000Y-143891000D03*
X180338000Y-143891000D03*
%TD*%
D19*
%TO.C,R2709*%
X265792241Y-152756178D03*
X266513489Y-152034930D03*
%TD*%
D36*
%TO.C,R2403*%
X265887999Y-187833000D03*
X267537999Y-187833000D03*
%TD*%
D60*
%TO.C,R99*%
X101256400Y-132834801D03*
X101256400Y-134484801D03*
%TD*%
D36*
%TO.C,R1503*%
X187148000Y-187833000D03*
X188798000Y-187833000D03*
%TD*%
D25*
%TO.C,C2208*%
X241046000Y-181201000D03*
X241046000Y-180241000D03*
%TD*%
D18*
%TO.C,C1604*%
X209903000Y-189103000D03*
X208943000Y-189103000D03*
%TD*%
D21*
%TO.C,C2905*%
X284648000Y-188087000D03*
X285608000Y-188087000D03*
%TD*%
D71*
%TO.C,R83*%
X110998001Y-116711001D03*
X110998001Y-117731001D03*
%TD*%
D28*
%TO.C,C95*%
X225933000Y-163970000D03*
X225933000Y-162420000D03*
%TD*%
D26*
%TO.C,C3213*%
X288925000Y-142649000D03*
X288925000Y-143609000D03*
%TD*%
D30*
%TO.C,C411*%
X137586570Y-155914411D03*
X136907748Y-155235589D03*
%TD*%
D81*
%TO.C,L8*%
X93115000Y-123573401D03*
X93115000Y-120073401D03*
X101615000Y-120073401D03*
X101615000Y-123573401D03*
%TD*%
D27*
%TO.C,R2108*%
X240746810Y-155433382D03*
X240025562Y-154712134D03*
%TD*%
D56*
%TO.C,U3001*%
X301613000Y-185163500D03*
X301113000Y-185163500D03*
X300613000Y-185163500D03*
X300113000Y-185163500D03*
D57*
X299400500Y-184451000D03*
X299400500Y-183951000D03*
X299400500Y-183451000D03*
X299400500Y-182951000D03*
D56*
X300113000Y-182238500D03*
X300613000Y-182238500D03*
X301113000Y-182238500D03*
X301613000Y-182238500D03*
D57*
X302325500Y-182951000D03*
X302325500Y-183451000D03*
X302325500Y-183951000D03*
X302325500Y-184451000D03*
D58*
X300863000Y-183701000D03*
%TD*%
D19*
%TO.C,R1108*%
X177062822Y-152037758D03*
X177784070Y-151316510D03*
%TD*%
D66*
%TO.C,J2*%
X239750600Y-213868000D03*
X242519200Y-213868000D03*
X245287800Y-213868000D03*
X248056400Y-213868000D03*
X250825000Y-213868000D03*
X253593600Y-213868000D03*
X256362200Y-213868000D03*
X259130800Y-213868000D03*
X261899400Y-213868000D03*
X264668000Y-213868000D03*
X267436600Y-213868000D03*
X270205200Y-213868000D03*
X272973800Y-213868000D03*
X275742400Y-213868000D03*
X278511000Y-213868000D03*
X281279600Y-213868000D03*
X284048200Y-213868000D03*
X286816800Y-213868000D03*
X289585400Y-213868000D03*
X241134900Y-216712800D03*
X243903500Y-216712800D03*
X246672100Y-216712800D03*
X249440700Y-216712800D03*
X252209300Y-216712800D03*
X254977900Y-216712800D03*
X257746500Y-216712800D03*
X260515100Y-216712800D03*
X263283700Y-216712800D03*
X266052300Y-216712800D03*
X268820900Y-216712800D03*
X271589500Y-216712800D03*
X274358100Y-216712800D03*
X277126700Y-216712800D03*
X279895300Y-216712800D03*
X282663900Y-216712800D03*
X285432500Y-216712800D03*
X288201100Y-216712800D03*
D67*
X232841800Y-215290400D03*
X296341800Y-215290400D03*
%TD*%
D21*
%TO.C,C3007*%
X303558000Y-183388000D03*
X304518000Y-183388000D03*
%TD*%
D20*
%TO.C,R2206*%
X236345000Y-181034000D03*
X237365000Y-181034000D03*
%TD*%
D21*
%TO.C,C1607*%
X209070000Y-183388000D03*
X210030000Y-183388000D03*
%TD*%
D25*
%TO.C,C173*%
X222603600Y-124051000D03*
X222603600Y-123091000D03*
%TD*%
D20*
%TO.C,R702*%
X128268000Y-189103000D03*
X129288000Y-189103000D03*
%TD*%
D23*
%TO.C,R1508*%
X201474800Y-145951000D03*
X200454800Y-145951000D03*
%TD*%
D21*
%TO.C,C1507*%
X193322000Y-183388000D03*
X194282000Y-183388000D03*
%TD*%
D19*
%TO.C,R2008*%
X225107957Y-156360204D03*
X225829205Y-155638956D03*
%TD*%
D26*
%TO.C,C3114*%
X319278000Y-185448000D03*
X319278000Y-186408000D03*
%TD*%
D33*
%TO.C,K601*%
X113246000Y-191135000D03*
X113246000Y-196215000D03*
X113246000Y-198755000D03*
X113246000Y-201295000D03*
X113246000Y-203835000D03*
X105956000Y-203835000D03*
X105956000Y-201295000D03*
X105956000Y-198755000D03*
X105956000Y-196215000D03*
X105956000Y-191135000D03*
%TD*%
D37*
%TO.C,R2304*%
X257111000Y-187833000D03*
X255461000Y-187833000D03*
%TD*%
D19*
%TO.C,R309*%
X134219534Y-152971044D03*
X134940782Y-152249796D03*
%TD*%
D25*
%TO.C,C710*%
X124980000Y-185265000D03*
X124980000Y-184305000D03*
%TD*%
D18*
%TO.C,C3003*%
X298562000Y-189103000D03*
X297602000Y-189103000D03*
%TD*%
D47*
%TO.C,R67*%
X133858000Y-115506000D03*
X133858000Y-113856000D03*
%TD*%
D37*
%TO.C,R3104*%
X320103000Y-187833000D03*
X318453000Y-187833000D03*
%TD*%
D28*
%TO.C,C2102*%
X221488000Y-207785000D03*
X221488000Y-206235000D03*
%TD*%
D44*
%TO.C,TP2*%
X314579000Y-119888000D03*
%TD*%
D18*
%TO.C,C36*%
X143532800Y-154559000D03*
X142572800Y-154559000D03*
%TD*%
D20*
%TO.C,R1305*%
X158621000Y-186368000D03*
X159641000Y-186368000D03*
%TD*%
D82*
X280820000Y-91488000D02*
X280820000Y-112488000D01*
X83820000Y-112488000D02*
X83820000Y-221488000D01*
X83820000Y-221488000D02*
X337820000Y-221488000D01*
X280820000Y-91488000D02*
X140820000Y-91488000D01*
X280820000Y-112488000D02*
X337820000Y-112488000D01*
X337820000Y-112488000D02*
X337820000Y-221488000D01*
X140820000Y-112488000D02*
X83820000Y-112488000D01*
X140820000Y-91488000D02*
X140820000Y-112488000D01*
M02*
