%TF.GenerationSoftware,KiCad,Pcbnew,(7.0.0)*%
%TF.CreationDate,2024-03-28T13:36:05-07:00*%
%TF.ProjectId,Quartz,51756172-747a-42e6-9b69-6361645f7063,rev?*%
%TF.SameCoordinates,Original*%
%TF.FileFunction,Copper,L4,Inr*%
%TF.FilePolarity,Positive*%
%FSLAX46Y46*%
G04 Gerber Fmt 4.6, Leading zero omitted, Abs format (unit mm)*
G04 Created by KiCad (PCBNEW (7.0.0)) date 2024-03-28 13:36:05*
%MOMM*%
%LPD*%
G01*
G04 APERTURE LIST*
%ADD10C,0.100000*%
%ADD11C,0.150000*%
%ADD12C,0.300000*%
%ADD13C,0.400000*%
%TA.AperFunction,ComponentPad*%
%ADD14C,0.520000*%
%TD*%
%TA.AperFunction,ComponentPad*%
%ADD15C,5.000000*%
%TD*%
%TA.AperFunction,ComponentPad*%
%ADD16C,0.510000*%
%TD*%
%TA.AperFunction,ComponentPad*%
%ADD17C,2.050000*%
%TD*%
%TA.AperFunction,ComponentPad*%
%ADD18C,2.250000*%
%TD*%
%TA.AperFunction,ComponentPad*%
%ADD19C,2.000000*%
%TD*%
%TA.AperFunction,ComponentPad*%
%ADD20C,6.000000*%
%TD*%
%TA.AperFunction,ComponentPad*%
%ADD21C,1.651000*%
%TD*%
%TA.AperFunction,ComponentPad*%
%ADD22C,3.683000*%
%TD*%
%TA.AperFunction,ComponentPad*%
%ADD23R,1.350000X1.350000*%
%TD*%
%TA.AperFunction,ComponentPad*%
%ADD24O,1.350000X1.350000*%
%TD*%
%TA.AperFunction,ViaPad*%
%ADD25C,0.508000*%
%TD*%
%TA.AperFunction,ViaPad*%
%ADD26C,0.558800*%
%TD*%
%TA.AperFunction,ViaPad*%
%ADD27C,0.800000*%
%TD*%
%TA.AperFunction,Conductor*%
%ADD28C,0.254000*%
%TD*%
%TA.AperFunction,Conductor*%
%ADD29C,0.457200*%
%TD*%
%TA.AperFunction,Conductor*%
%ADD30C,0.152400*%
%TD*%
%TA.AperFunction,Profile*%
%ADD31C,0.100000*%
%TD*%
G04 APERTURE END LIST*
D10*
D11*
X299989000Y-253002200D02*
X407989000Y-253002200D01*
X407989000Y-285002200D01*
X299989000Y-285002200D01*
X299989000Y-253002200D01*
D10*
D11*
X10000000Y-10000000D02*
X409989000Y-10000000D01*
X409989000Y-287002200D01*
X10000000Y-287002200D01*
X10000000Y-10000000D01*
D10*
D11*
X12000000Y-12000000D02*
X407989000Y-12000000D01*
X407989000Y-285002200D01*
X12000000Y-285002200D01*
X12000000Y-12000000D01*
D10*
D11*
X60000000Y-12000000D02*
X60000000Y-10000000D01*
D10*
D11*
X110000000Y-12000000D02*
X110000000Y-10000000D01*
D10*
D11*
X160000000Y-12000000D02*
X160000000Y-10000000D01*
D10*
D11*
X210000000Y-12000000D02*
X210000000Y-10000000D01*
D10*
D11*
X260000000Y-12000000D02*
X260000000Y-10000000D01*
D10*
D11*
X310000000Y-12000000D02*
X310000000Y-10000000D01*
D10*
D11*
X360000000Y-12000000D02*
X360000000Y-10000000D01*
D10*
D11*
X35990476Y-11477595D02*
X35247619Y-11477595D01*
X35619047Y-11477595D02*
X35619047Y-10177595D01*
X35619047Y-10177595D02*
X35495238Y-10363309D01*
X35495238Y-10363309D02*
X35371428Y-10487119D01*
X35371428Y-10487119D02*
X35247619Y-10549023D01*
D10*
D11*
X85247619Y-10301404D02*
X85309523Y-10239500D01*
X85309523Y-10239500D02*
X85433333Y-10177595D01*
X85433333Y-10177595D02*
X85742857Y-10177595D01*
X85742857Y-10177595D02*
X85866666Y-10239500D01*
X85866666Y-10239500D02*
X85928571Y-10301404D01*
X85928571Y-10301404D02*
X85990476Y-10425214D01*
X85990476Y-10425214D02*
X85990476Y-10549023D01*
X85990476Y-10549023D02*
X85928571Y-10734738D01*
X85928571Y-10734738D02*
X85185714Y-11477595D01*
X85185714Y-11477595D02*
X85990476Y-11477595D01*
D10*
D11*
X135185714Y-10177595D02*
X135990476Y-10177595D01*
X135990476Y-10177595D02*
X135557142Y-10672833D01*
X135557142Y-10672833D02*
X135742857Y-10672833D01*
X135742857Y-10672833D02*
X135866666Y-10734738D01*
X135866666Y-10734738D02*
X135928571Y-10796642D01*
X135928571Y-10796642D02*
X135990476Y-10920452D01*
X135990476Y-10920452D02*
X135990476Y-11229976D01*
X135990476Y-11229976D02*
X135928571Y-11353785D01*
X135928571Y-11353785D02*
X135866666Y-11415690D01*
X135866666Y-11415690D02*
X135742857Y-11477595D01*
X135742857Y-11477595D02*
X135371428Y-11477595D01*
X135371428Y-11477595D02*
X135247619Y-11415690D01*
X135247619Y-11415690D02*
X135185714Y-11353785D01*
D10*
D11*
X185866666Y-10610928D02*
X185866666Y-11477595D01*
X185557142Y-10115690D02*
X185247619Y-11044261D01*
X185247619Y-11044261D02*
X186052380Y-11044261D01*
D10*
D11*
X235928571Y-10177595D02*
X235309523Y-10177595D01*
X235309523Y-10177595D02*
X235247619Y-10796642D01*
X235247619Y-10796642D02*
X235309523Y-10734738D01*
X235309523Y-10734738D02*
X235433333Y-10672833D01*
X235433333Y-10672833D02*
X235742857Y-10672833D01*
X235742857Y-10672833D02*
X235866666Y-10734738D01*
X235866666Y-10734738D02*
X235928571Y-10796642D01*
X235928571Y-10796642D02*
X235990476Y-10920452D01*
X235990476Y-10920452D02*
X235990476Y-11229976D01*
X235990476Y-11229976D02*
X235928571Y-11353785D01*
X235928571Y-11353785D02*
X235866666Y-11415690D01*
X235866666Y-11415690D02*
X235742857Y-11477595D01*
X235742857Y-11477595D02*
X235433333Y-11477595D01*
X235433333Y-11477595D02*
X235309523Y-11415690D01*
X235309523Y-11415690D02*
X235247619Y-11353785D01*
D10*
D11*
X285866666Y-10177595D02*
X285619047Y-10177595D01*
X285619047Y-10177595D02*
X285495238Y-10239500D01*
X285495238Y-10239500D02*
X285433333Y-10301404D01*
X285433333Y-10301404D02*
X285309523Y-10487119D01*
X285309523Y-10487119D02*
X285247619Y-10734738D01*
X285247619Y-10734738D02*
X285247619Y-11229976D01*
X285247619Y-11229976D02*
X285309523Y-11353785D01*
X285309523Y-11353785D02*
X285371428Y-11415690D01*
X285371428Y-11415690D02*
X285495238Y-11477595D01*
X285495238Y-11477595D02*
X285742857Y-11477595D01*
X285742857Y-11477595D02*
X285866666Y-11415690D01*
X285866666Y-11415690D02*
X285928571Y-11353785D01*
X285928571Y-11353785D02*
X285990476Y-11229976D01*
X285990476Y-11229976D02*
X285990476Y-10920452D01*
X285990476Y-10920452D02*
X285928571Y-10796642D01*
X285928571Y-10796642D02*
X285866666Y-10734738D01*
X285866666Y-10734738D02*
X285742857Y-10672833D01*
X285742857Y-10672833D02*
X285495238Y-10672833D01*
X285495238Y-10672833D02*
X285371428Y-10734738D01*
X285371428Y-10734738D02*
X285309523Y-10796642D01*
X285309523Y-10796642D02*
X285247619Y-10920452D01*
D10*
D11*
X335185714Y-10177595D02*
X336052380Y-10177595D01*
X336052380Y-10177595D02*
X335495238Y-11477595D01*
D10*
D11*
X385495238Y-10734738D02*
X385371428Y-10672833D01*
X385371428Y-10672833D02*
X385309523Y-10610928D01*
X385309523Y-10610928D02*
X385247619Y-10487119D01*
X385247619Y-10487119D02*
X385247619Y-10425214D01*
X385247619Y-10425214D02*
X385309523Y-10301404D01*
X385309523Y-10301404D02*
X385371428Y-10239500D01*
X385371428Y-10239500D02*
X385495238Y-10177595D01*
X385495238Y-10177595D02*
X385742857Y-10177595D01*
X385742857Y-10177595D02*
X385866666Y-10239500D01*
X385866666Y-10239500D02*
X385928571Y-10301404D01*
X385928571Y-10301404D02*
X385990476Y-10425214D01*
X385990476Y-10425214D02*
X385990476Y-10487119D01*
X385990476Y-10487119D02*
X385928571Y-10610928D01*
X385928571Y-10610928D02*
X385866666Y-10672833D01*
X385866666Y-10672833D02*
X385742857Y-10734738D01*
X385742857Y-10734738D02*
X385495238Y-10734738D01*
X385495238Y-10734738D02*
X385371428Y-10796642D01*
X385371428Y-10796642D02*
X385309523Y-10858547D01*
X385309523Y-10858547D02*
X385247619Y-10982357D01*
X385247619Y-10982357D02*
X385247619Y-11229976D01*
X385247619Y-11229976D02*
X385309523Y-11353785D01*
X385309523Y-11353785D02*
X385371428Y-11415690D01*
X385371428Y-11415690D02*
X385495238Y-11477595D01*
X385495238Y-11477595D02*
X385742857Y-11477595D01*
X385742857Y-11477595D02*
X385866666Y-11415690D01*
X385866666Y-11415690D02*
X385928571Y-11353785D01*
X385928571Y-11353785D02*
X385990476Y-11229976D01*
X385990476Y-11229976D02*
X385990476Y-10982357D01*
X385990476Y-10982357D02*
X385928571Y-10858547D01*
X385928571Y-10858547D02*
X385866666Y-10796642D01*
X385866666Y-10796642D02*
X385742857Y-10734738D01*
D10*
D11*
X60000000Y-285002200D02*
X60000000Y-287002200D01*
D10*
D11*
X110000000Y-285002200D02*
X110000000Y-287002200D01*
D10*
D11*
X160000000Y-285002200D02*
X160000000Y-287002200D01*
D10*
D11*
X210000000Y-285002200D02*
X210000000Y-287002200D01*
D10*
D11*
X260000000Y-285002200D02*
X260000000Y-287002200D01*
D10*
D11*
X310000000Y-285002200D02*
X310000000Y-287002200D01*
D10*
D11*
X360000000Y-285002200D02*
X360000000Y-287002200D01*
D10*
D11*
X35990476Y-286479795D02*
X35247619Y-286479795D01*
X35619047Y-286479795D02*
X35619047Y-285179795D01*
X35619047Y-285179795D02*
X35495238Y-285365509D01*
X35495238Y-285365509D02*
X35371428Y-285489319D01*
X35371428Y-285489319D02*
X35247619Y-285551223D01*
D10*
D11*
X85247619Y-285303604D02*
X85309523Y-285241700D01*
X85309523Y-285241700D02*
X85433333Y-285179795D01*
X85433333Y-285179795D02*
X85742857Y-285179795D01*
X85742857Y-285179795D02*
X85866666Y-285241700D01*
X85866666Y-285241700D02*
X85928571Y-285303604D01*
X85928571Y-285303604D02*
X85990476Y-285427414D01*
X85990476Y-285427414D02*
X85990476Y-285551223D01*
X85990476Y-285551223D02*
X85928571Y-285736938D01*
X85928571Y-285736938D02*
X85185714Y-286479795D01*
X85185714Y-286479795D02*
X85990476Y-286479795D01*
D10*
D11*
X135185714Y-285179795D02*
X135990476Y-285179795D01*
X135990476Y-285179795D02*
X135557142Y-285675033D01*
X135557142Y-285675033D02*
X135742857Y-285675033D01*
X135742857Y-285675033D02*
X135866666Y-285736938D01*
X135866666Y-285736938D02*
X135928571Y-285798842D01*
X135928571Y-285798842D02*
X135990476Y-285922652D01*
X135990476Y-285922652D02*
X135990476Y-286232176D01*
X135990476Y-286232176D02*
X135928571Y-286355985D01*
X135928571Y-286355985D02*
X135866666Y-286417890D01*
X135866666Y-286417890D02*
X135742857Y-286479795D01*
X135742857Y-286479795D02*
X135371428Y-286479795D01*
X135371428Y-286479795D02*
X135247619Y-286417890D01*
X135247619Y-286417890D02*
X135185714Y-286355985D01*
D10*
D11*
X185866666Y-285613128D02*
X185866666Y-286479795D01*
X185557142Y-285117890D02*
X185247619Y-286046461D01*
X185247619Y-286046461D02*
X186052380Y-286046461D01*
D10*
D11*
X235928571Y-285179795D02*
X235309523Y-285179795D01*
X235309523Y-285179795D02*
X235247619Y-285798842D01*
X235247619Y-285798842D02*
X235309523Y-285736938D01*
X235309523Y-285736938D02*
X235433333Y-285675033D01*
X235433333Y-285675033D02*
X235742857Y-285675033D01*
X235742857Y-285675033D02*
X235866666Y-285736938D01*
X235866666Y-285736938D02*
X235928571Y-285798842D01*
X235928571Y-285798842D02*
X235990476Y-285922652D01*
X235990476Y-285922652D02*
X235990476Y-286232176D01*
X235990476Y-286232176D02*
X235928571Y-286355985D01*
X235928571Y-286355985D02*
X235866666Y-286417890D01*
X235866666Y-286417890D02*
X235742857Y-286479795D01*
X235742857Y-286479795D02*
X235433333Y-286479795D01*
X235433333Y-286479795D02*
X235309523Y-286417890D01*
X235309523Y-286417890D02*
X235247619Y-286355985D01*
D10*
D11*
X285866666Y-285179795D02*
X285619047Y-285179795D01*
X285619047Y-285179795D02*
X285495238Y-285241700D01*
X285495238Y-285241700D02*
X285433333Y-285303604D01*
X285433333Y-285303604D02*
X285309523Y-285489319D01*
X285309523Y-285489319D02*
X285247619Y-285736938D01*
X285247619Y-285736938D02*
X285247619Y-286232176D01*
X285247619Y-286232176D02*
X285309523Y-286355985D01*
X285309523Y-286355985D02*
X285371428Y-286417890D01*
X285371428Y-286417890D02*
X285495238Y-286479795D01*
X285495238Y-286479795D02*
X285742857Y-286479795D01*
X285742857Y-286479795D02*
X285866666Y-286417890D01*
X285866666Y-286417890D02*
X285928571Y-286355985D01*
X285928571Y-286355985D02*
X285990476Y-286232176D01*
X285990476Y-286232176D02*
X285990476Y-285922652D01*
X285990476Y-285922652D02*
X285928571Y-285798842D01*
X285928571Y-285798842D02*
X285866666Y-285736938D01*
X285866666Y-285736938D02*
X285742857Y-285675033D01*
X285742857Y-285675033D02*
X285495238Y-285675033D01*
X285495238Y-285675033D02*
X285371428Y-285736938D01*
X285371428Y-285736938D02*
X285309523Y-285798842D01*
X285309523Y-285798842D02*
X285247619Y-285922652D01*
D10*
D11*
X335185714Y-285179795D02*
X336052380Y-285179795D01*
X336052380Y-285179795D02*
X335495238Y-286479795D01*
D10*
D11*
X385495238Y-285736938D02*
X385371428Y-285675033D01*
X385371428Y-285675033D02*
X385309523Y-285613128D01*
X385309523Y-285613128D02*
X385247619Y-285489319D01*
X385247619Y-285489319D02*
X385247619Y-285427414D01*
X385247619Y-285427414D02*
X385309523Y-285303604D01*
X385309523Y-285303604D02*
X385371428Y-285241700D01*
X385371428Y-285241700D02*
X385495238Y-285179795D01*
X385495238Y-285179795D02*
X385742857Y-285179795D01*
X385742857Y-285179795D02*
X385866666Y-285241700D01*
X385866666Y-285241700D02*
X385928571Y-285303604D01*
X385928571Y-285303604D02*
X385990476Y-285427414D01*
X385990476Y-285427414D02*
X385990476Y-285489319D01*
X385990476Y-285489319D02*
X385928571Y-285613128D01*
X385928571Y-285613128D02*
X385866666Y-285675033D01*
X385866666Y-285675033D02*
X385742857Y-285736938D01*
X385742857Y-285736938D02*
X385495238Y-285736938D01*
X385495238Y-285736938D02*
X385371428Y-285798842D01*
X385371428Y-285798842D02*
X385309523Y-285860747D01*
X385309523Y-285860747D02*
X385247619Y-285984557D01*
X385247619Y-285984557D02*
X385247619Y-286232176D01*
X385247619Y-286232176D02*
X385309523Y-286355985D01*
X385309523Y-286355985D02*
X385371428Y-286417890D01*
X385371428Y-286417890D02*
X385495238Y-286479795D01*
X385495238Y-286479795D02*
X385742857Y-286479795D01*
X385742857Y-286479795D02*
X385866666Y-286417890D01*
X385866666Y-286417890D02*
X385928571Y-286355985D01*
X385928571Y-286355985D02*
X385990476Y-286232176D01*
X385990476Y-286232176D02*
X385990476Y-285984557D01*
X385990476Y-285984557D02*
X385928571Y-285860747D01*
X385928571Y-285860747D02*
X385866666Y-285798842D01*
X385866666Y-285798842D02*
X385742857Y-285736938D01*
D10*
D11*
X10000000Y-60000000D02*
X12000000Y-60000000D01*
D10*
D11*
X10000000Y-110000000D02*
X12000000Y-110000000D01*
D10*
D11*
X10000000Y-160000000D02*
X12000000Y-160000000D01*
D10*
D11*
X10000000Y-210000000D02*
X12000000Y-210000000D01*
D10*
D11*
X10000000Y-260000000D02*
X12000000Y-260000000D01*
D10*
D11*
X10690476Y-35106166D02*
X11309523Y-35106166D01*
X10566666Y-35477595D02*
X10999999Y-34177595D01*
X10999999Y-34177595D02*
X11433333Y-35477595D01*
D10*
D11*
X11092857Y-84796642D02*
X11278571Y-84858547D01*
X11278571Y-84858547D02*
X11340476Y-84920452D01*
X11340476Y-84920452D02*
X11402380Y-85044261D01*
X11402380Y-85044261D02*
X11402380Y-85229976D01*
X11402380Y-85229976D02*
X11340476Y-85353785D01*
X11340476Y-85353785D02*
X11278571Y-85415690D01*
X11278571Y-85415690D02*
X11154761Y-85477595D01*
X11154761Y-85477595D02*
X10659523Y-85477595D01*
X10659523Y-85477595D02*
X10659523Y-84177595D01*
X10659523Y-84177595D02*
X11092857Y-84177595D01*
X11092857Y-84177595D02*
X11216666Y-84239500D01*
X11216666Y-84239500D02*
X11278571Y-84301404D01*
X11278571Y-84301404D02*
X11340476Y-84425214D01*
X11340476Y-84425214D02*
X11340476Y-84549023D01*
X11340476Y-84549023D02*
X11278571Y-84672833D01*
X11278571Y-84672833D02*
X11216666Y-84734738D01*
X11216666Y-84734738D02*
X11092857Y-84796642D01*
X11092857Y-84796642D02*
X10659523Y-84796642D01*
D10*
D11*
X11402380Y-135353785D02*
X11340476Y-135415690D01*
X11340476Y-135415690D02*
X11154761Y-135477595D01*
X11154761Y-135477595D02*
X11030952Y-135477595D01*
X11030952Y-135477595D02*
X10845238Y-135415690D01*
X10845238Y-135415690D02*
X10721428Y-135291880D01*
X10721428Y-135291880D02*
X10659523Y-135168071D01*
X10659523Y-135168071D02*
X10597619Y-134920452D01*
X10597619Y-134920452D02*
X10597619Y-134734738D01*
X10597619Y-134734738D02*
X10659523Y-134487119D01*
X10659523Y-134487119D02*
X10721428Y-134363309D01*
X10721428Y-134363309D02*
X10845238Y-134239500D01*
X10845238Y-134239500D02*
X11030952Y-134177595D01*
X11030952Y-134177595D02*
X11154761Y-134177595D01*
X11154761Y-134177595D02*
X11340476Y-134239500D01*
X11340476Y-134239500D02*
X11402380Y-134301404D01*
D10*
D11*
X10659523Y-185477595D02*
X10659523Y-184177595D01*
X10659523Y-184177595D02*
X10969047Y-184177595D01*
X10969047Y-184177595D02*
X11154761Y-184239500D01*
X11154761Y-184239500D02*
X11278571Y-184363309D01*
X11278571Y-184363309D02*
X11340476Y-184487119D01*
X11340476Y-184487119D02*
X11402380Y-184734738D01*
X11402380Y-184734738D02*
X11402380Y-184920452D01*
X11402380Y-184920452D02*
X11340476Y-185168071D01*
X11340476Y-185168071D02*
X11278571Y-185291880D01*
X11278571Y-185291880D02*
X11154761Y-185415690D01*
X11154761Y-185415690D02*
X10969047Y-185477595D01*
X10969047Y-185477595D02*
X10659523Y-185477595D01*
D10*
D11*
X10721428Y-234796642D02*
X11154762Y-234796642D01*
X11340476Y-235477595D02*
X10721428Y-235477595D01*
X10721428Y-235477595D02*
X10721428Y-234177595D01*
X10721428Y-234177595D02*
X11340476Y-234177595D01*
D10*
D11*
X11185714Y-284796642D02*
X10752380Y-284796642D01*
X10752380Y-285477595D02*
X10752380Y-284177595D01*
X10752380Y-284177595D02*
X11371428Y-284177595D01*
D10*
D11*
X409989000Y-60000000D02*
X407989000Y-60000000D01*
D10*
D11*
X409989000Y-110000000D02*
X407989000Y-110000000D01*
D10*
D11*
X409989000Y-160000000D02*
X407989000Y-160000000D01*
D10*
D11*
X409989000Y-210000000D02*
X407989000Y-210000000D01*
D10*
D11*
X409989000Y-260000000D02*
X407989000Y-260000000D01*
D10*
D11*
X408679476Y-35106166D02*
X409298523Y-35106166D01*
X408555666Y-35477595D02*
X408988999Y-34177595D01*
X408988999Y-34177595D02*
X409422333Y-35477595D01*
D10*
D11*
X409081857Y-84796642D02*
X409267571Y-84858547D01*
X409267571Y-84858547D02*
X409329476Y-84920452D01*
X409329476Y-84920452D02*
X409391380Y-85044261D01*
X409391380Y-85044261D02*
X409391380Y-85229976D01*
X409391380Y-85229976D02*
X409329476Y-85353785D01*
X409329476Y-85353785D02*
X409267571Y-85415690D01*
X409267571Y-85415690D02*
X409143761Y-85477595D01*
X409143761Y-85477595D02*
X408648523Y-85477595D01*
X408648523Y-85477595D02*
X408648523Y-84177595D01*
X408648523Y-84177595D02*
X409081857Y-84177595D01*
X409081857Y-84177595D02*
X409205666Y-84239500D01*
X409205666Y-84239500D02*
X409267571Y-84301404D01*
X409267571Y-84301404D02*
X409329476Y-84425214D01*
X409329476Y-84425214D02*
X409329476Y-84549023D01*
X409329476Y-84549023D02*
X409267571Y-84672833D01*
X409267571Y-84672833D02*
X409205666Y-84734738D01*
X409205666Y-84734738D02*
X409081857Y-84796642D01*
X409081857Y-84796642D02*
X408648523Y-84796642D01*
D10*
D11*
X409391380Y-135353785D02*
X409329476Y-135415690D01*
X409329476Y-135415690D02*
X409143761Y-135477595D01*
X409143761Y-135477595D02*
X409019952Y-135477595D01*
X409019952Y-135477595D02*
X408834238Y-135415690D01*
X408834238Y-135415690D02*
X408710428Y-135291880D01*
X408710428Y-135291880D02*
X408648523Y-135168071D01*
X408648523Y-135168071D02*
X408586619Y-134920452D01*
X408586619Y-134920452D02*
X408586619Y-134734738D01*
X408586619Y-134734738D02*
X408648523Y-134487119D01*
X408648523Y-134487119D02*
X408710428Y-134363309D01*
X408710428Y-134363309D02*
X408834238Y-134239500D01*
X408834238Y-134239500D02*
X409019952Y-134177595D01*
X409019952Y-134177595D02*
X409143761Y-134177595D01*
X409143761Y-134177595D02*
X409329476Y-134239500D01*
X409329476Y-134239500D02*
X409391380Y-134301404D01*
D10*
D11*
X408648523Y-185477595D02*
X408648523Y-184177595D01*
X408648523Y-184177595D02*
X408958047Y-184177595D01*
X408958047Y-184177595D02*
X409143761Y-184239500D01*
X409143761Y-184239500D02*
X409267571Y-184363309D01*
X409267571Y-184363309D02*
X409329476Y-184487119D01*
X409329476Y-184487119D02*
X409391380Y-184734738D01*
X409391380Y-184734738D02*
X409391380Y-184920452D01*
X409391380Y-184920452D02*
X409329476Y-185168071D01*
X409329476Y-185168071D02*
X409267571Y-185291880D01*
X409267571Y-185291880D02*
X409143761Y-185415690D01*
X409143761Y-185415690D02*
X408958047Y-185477595D01*
X408958047Y-185477595D02*
X408648523Y-185477595D01*
D10*
D11*
X408710428Y-234796642D02*
X409143762Y-234796642D01*
X409329476Y-235477595D02*
X408710428Y-235477595D01*
X408710428Y-235477595D02*
X408710428Y-234177595D01*
X408710428Y-234177595D02*
X409329476Y-234177595D01*
D10*
D11*
X409174714Y-284796642D02*
X408741380Y-284796642D01*
X408741380Y-285477595D02*
X408741380Y-284177595D01*
X408741380Y-284177595D02*
X409360428Y-284177595D01*
D10*
D11*
X323346142Y-280653271D02*
X323346142Y-279153271D01*
X323346142Y-279153271D02*
X323703285Y-279153271D01*
X323703285Y-279153271D02*
X323917571Y-279224700D01*
X323917571Y-279224700D02*
X324060428Y-279367557D01*
X324060428Y-279367557D02*
X324131857Y-279510414D01*
X324131857Y-279510414D02*
X324203285Y-279796128D01*
X324203285Y-279796128D02*
X324203285Y-280010414D01*
X324203285Y-280010414D02*
X324131857Y-280296128D01*
X324131857Y-280296128D02*
X324060428Y-280438985D01*
X324060428Y-280438985D02*
X323917571Y-280581842D01*
X323917571Y-280581842D02*
X323703285Y-280653271D01*
X323703285Y-280653271D02*
X323346142Y-280653271D01*
X325489000Y-280653271D02*
X325489000Y-279867557D01*
X325489000Y-279867557D02*
X325417571Y-279724700D01*
X325417571Y-279724700D02*
X325274714Y-279653271D01*
X325274714Y-279653271D02*
X324989000Y-279653271D01*
X324989000Y-279653271D02*
X324846142Y-279724700D01*
X325489000Y-280581842D02*
X325346142Y-280653271D01*
X325346142Y-280653271D02*
X324989000Y-280653271D01*
X324989000Y-280653271D02*
X324846142Y-280581842D01*
X324846142Y-280581842D02*
X324774714Y-280438985D01*
X324774714Y-280438985D02*
X324774714Y-280296128D01*
X324774714Y-280296128D02*
X324846142Y-280153271D01*
X324846142Y-280153271D02*
X324989000Y-280081842D01*
X324989000Y-280081842D02*
X325346142Y-280081842D01*
X325346142Y-280081842D02*
X325489000Y-280010414D01*
X325989000Y-279653271D02*
X326560428Y-279653271D01*
X326203285Y-279153271D02*
X326203285Y-280438985D01*
X326203285Y-280438985D02*
X326274714Y-280581842D01*
X326274714Y-280581842D02*
X326417571Y-280653271D01*
X326417571Y-280653271D02*
X326560428Y-280653271D01*
X327631857Y-280581842D02*
X327489000Y-280653271D01*
X327489000Y-280653271D02*
X327203286Y-280653271D01*
X327203286Y-280653271D02*
X327060428Y-280581842D01*
X327060428Y-280581842D02*
X326989000Y-280438985D01*
X326989000Y-280438985D02*
X326989000Y-279867557D01*
X326989000Y-279867557D02*
X327060428Y-279724700D01*
X327060428Y-279724700D02*
X327203286Y-279653271D01*
X327203286Y-279653271D02*
X327489000Y-279653271D01*
X327489000Y-279653271D02*
X327631857Y-279724700D01*
X327631857Y-279724700D02*
X327703286Y-279867557D01*
X327703286Y-279867557D02*
X327703286Y-280010414D01*
X327703286Y-280010414D02*
X326989000Y-280153271D01*
X328346142Y-280510414D02*
X328417571Y-280581842D01*
X328417571Y-280581842D02*
X328346142Y-280653271D01*
X328346142Y-280653271D02*
X328274714Y-280581842D01*
X328274714Y-280581842D02*
X328346142Y-280510414D01*
X328346142Y-280510414D02*
X328346142Y-280653271D01*
X328346142Y-279724700D02*
X328417571Y-279796128D01*
X328417571Y-279796128D02*
X328346142Y-279867557D01*
X328346142Y-279867557D02*
X328274714Y-279796128D01*
X328274714Y-279796128D02*
X328346142Y-279724700D01*
X328346142Y-279724700D02*
X328346142Y-279867557D01*
D10*
D11*
X299989000Y-281502200D02*
X407989000Y-281502200D01*
D10*
D11*
X301346142Y-283453271D02*
X301346142Y-281953271D01*
X302203285Y-283453271D02*
X301560428Y-282596128D01*
X302203285Y-281953271D02*
X301346142Y-282810414D01*
X302846142Y-283453271D02*
X302846142Y-282453271D01*
X302846142Y-281953271D02*
X302774714Y-282024700D01*
X302774714Y-282024700D02*
X302846142Y-282096128D01*
X302846142Y-282096128D02*
X302917571Y-282024700D01*
X302917571Y-282024700D02*
X302846142Y-281953271D01*
X302846142Y-281953271D02*
X302846142Y-282096128D01*
X304417571Y-283310414D02*
X304346143Y-283381842D01*
X304346143Y-283381842D02*
X304131857Y-283453271D01*
X304131857Y-283453271D02*
X303989000Y-283453271D01*
X303989000Y-283453271D02*
X303774714Y-283381842D01*
X303774714Y-283381842D02*
X303631857Y-283238985D01*
X303631857Y-283238985D02*
X303560428Y-283096128D01*
X303560428Y-283096128D02*
X303489000Y-282810414D01*
X303489000Y-282810414D02*
X303489000Y-282596128D01*
X303489000Y-282596128D02*
X303560428Y-282310414D01*
X303560428Y-282310414D02*
X303631857Y-282167557D01*
X303631857Y-282167557D02*
X303774714Y-282024700D01*
X303774714Y-282024700D02*
X303989000Y-281953271D01*
X303989000Y-281953271D02*
X304131857Y-281953271D01*
X304131857Y-281953271D02*
X304346143Y-282024700D01*
X304346143Y-282024700D02*
X304417571Y-282096128D01*
X305703286Y-283453271D02*
X305703286Y-282667557D01*
X305703286Y-282667557D02*
X305631857Y-282524700D01*
X305631857Y-282524700D02*
X305489000Y-282453271D01*
X305489000Y-282453271D02*
X305203286Y-282453271D01*
X305203286Y-282453271D02*
X305060428Y-282524700D01*
X305703286Y-283381842D02*
X305560428Y-283453271D01*
X305560428Y-283453271D02*
X305203286Y-283453271D01*
X305203286Y-283453271D02*
X305060428Y-283381842D01*
X305060428Y-283381842D02*
X304989000Y-283238985D01*
X304989000Y-283238985D02*
X304989000Y-283096128D01*
X304989000Y-283096128D02*
X305060428Y-282953271D01*
X305060428Y-282953271D02*
X305203286Y-282881842D01*
X305203286Y-282881842D02*
X305560428Y-282881842D01*
X305560428Y-282881842D02*
X305703286Y-282810414D01*
X307060429Y-283453271D02*
X307060429Y-281953271D01*
X307060429Y-283381842D02*
X306917571Y-283453271D01*
X306917571Y-283453271D02*
X306631857Y-283453271D01*
X306631857Y-283453271D02*
X306489000Y-283381842D01*
X306489000Y-283381842D02*
X306417571Y-283310414D01*
X306417571Y-283310414D02*
X306346143Y-283167557D01*
X306346143Y-283167557D02*
X306346143Y-282738985D01*
X306346143Y-282738985D02*
X306417571Y-282596128D01*
X306417571Y-282596128D02*
X306489000Y-282524700D01*
X306489000Y-282524700D02*
X306631857Y-282453271D01*
X306631857Y-282453271D02*
X306917571Y-282453271D01*
X306917571Y-282453271D02*
X307060429Y-282524700D01*
X308674714Y-282667557D02*
X309174714Y-282667557D01*
X309389000Y-283453271D02*
X308674714Y-283453271D01*
X308674714Y-283453271D02*
X308674714Y-281953271D01*
X308674714Y-281953271D02*
X309389000Y-281953271D01*
X310031857Y-283310414D02*
X310103286Y-283381842D01*
X310103286Y-283381842D02*
X310031857Y-283453271D01*
X310031857Y-283453271D02*
X309960429Y-283381842D01*
X309960429Y-283381842D02*
X310031857Y-283310414D01*
X310031857Y-283310414D02*
X310031857Y-283453271D01*
X310746143Y-283453271D02*
X310746143Y-281953271D01*
X310746143Y-281953271D02*
X311103286Y-281953271D01*
X311103286Y-281953271D02*
X311317572Y-282024700D01*
X311317572Y-282024700D02*
X311460429Y-282167557D01*
X311460429Y-282167557D02*
X311531858Y-282310414D01*
X311531858Y-282310414D02*
X311603286Y-282596128D01*
X311603286Y-282596128D02*
X311603286Y-282810414D01*
X311603286Y-282810414D02*
X311531858Y-283096128D01*
X311531858Y-283096128D02*
X311460429Y-283238985D01*
X311460429Y-283238985D02*
X311317572Y-283381842D01*
X311317572Y-283381842D02*
X311103286Y-283453271D01*
X311103286Y-283453271D02*
X310746143Y-283453271D01*
X312246143Y-283310414D02*
X312317572Y-283381842D01*
X312317572Y-283381842D02*
X312246143Y-283453271D01*
X312246143Y-283453271D02*
X312174715Y-283381842D01*
X312174715Y-283381842D02*
X312246143Y-283310414D01*
X312246143Y-283310414D02*
X312246143Y-283453271D01*
X312889001Y-283024700D02*
X313603287Y-283024700D01*
X312746144Y-283453271D02*
X313246144Y-281953271D01*
X313246144Y-281953271D02*
X313746144Y-283453271D01*
X314246143Y-283310414D02*
X314317572Y-283381842D01*
X314317572Y-283381842D02*
X314246143Y-283453271D01*
X314246143Y-283453271D02*
X314174715Y-283381842D01*
X314174715Y-283381842D02*
X314246143Y-283310414D01*
X314246143Y-283310414D02*
X314246143Y-283453271D01*
X316760429Y-283453271D02*
X316760429Y-281953271D01*
X316903287Y-282881842D02*
X317331858Y-283453271D01*
X317331858Y-282453271D02*
X316760429Y-283024700D01*
X317974715Y-283453271D02*
X317974715Y-282453271D01*
X317974715Y-281953271D02*
X317903287Y-282024700D01*
X317903287Y-282024700D02*
X317974715Y-282096128D01*
X317974715Y-282096128D02*
X318046144Y-282024700D01*
X318046144Y-282024700D02*
X317974715Y-281953271D01*
X317974715Y-281953271D02*
X317974715Y-282096128D01*
X319331859Y-283381842D02*
X319189001Y-283453271D01*
X319189001Y-283453271D02*
X318903287Y-283453271D01*
X318903287Y-283453271D02*
X318760430Y-283381842D01*
X318760430Y-283381842D02*
X318689001Y-283310414D01*
X318689001Y-283310414D02*
X318617573Y-283167557D01*
X318617573Y-283167557D02*
X318617573Y-282738985D01*
X318617573Y-282738985D02*
X318689001Y-282596128D01*
X318689001Y-282596128D02*
X318760430Y-282524700D01*
X318760430Y-282524700D02*
X318903287Y-282453271D01*
X318903287Y-282453271D02*
X319189001Y-282453271D01*
X319189001Y-282453271D02*
X319331859Y-282524700D01*
X320617573Y-283453271D02*
X320617573Y-282667557D01*
X320617573Y-282667557D02*
X320546144Y-282524700D01*
X320546144Y-282524700D02*
X320403287Y-282453271D01*
X320403287Y-282453271D02*
X320117573Y-282453271D01*
X320117573Y-282453271D02*
X319974715Y-282524700D01*
X320617573Y-283381842D02*
X320474715Y-283453271D01*
X320474715Y-283453271D02*
X320117573Y-283453271D01*
X320117573Y-283453271D02*
X319974715Y-283381842D01*
X319974715Y-283381842D02*
X319903287Y-283238985D01*
X319903287Y-283238985D02*
X319903287Y-283096128D01*
X319903287Y-283096128D02*
X319974715Y-282953271D01*
X319974715Y-282953271D02*
X320117573Y-282881842D01*
X320117573Y-282881842D02*
X320474715Y-282881842D01*
X320474715Y-282881842D02*
X320617573Y-282810414D01*
X321974716Y-283453271D02*
X321974716Y-281953271D01*
X321974716Y-283381842D02*
X321831858Y-283453271D01*
X321831858Y-283453271D02*
X321546144Y-283453271D01*
X321546144Y-283453271D02*
X321403287Y-283381842D01*
X321403287Y-283381842D02*
X321331858Y-283310414D01*
X321331858Y-283310414D02*
X321260430Y-283167557D01*
X321260430Y-283167557D02*
X321260430Y-282738985D01*
X321260430Y-282738985D02*
X321331858Y-282596128D01*
X321331858Y-282596128D02*
X321403287Y-282524700D01*
X321403287Y-282524700D02*
X321546144Y-282453271D01*
X321546144Y-282453271D02*
X321831858Y-282453271D01*
X321831858Y-282453271D02*
X321974716Y-282524700D01*
X324017573Y-284024700D02*
X323946144Y-283953271D01*
X323946144Y-283953271D02*
X323803287Y-283738985D01*
X323803287Y-283738985D02*
X323731859Y-283596128D01*
X323731859Y-283596128D02*
X323660430Y-283381842D01*
X323660430Y-283381842D02*
X323589001Y-283024700D01*
X323589001Y-283024700D02*
X323589001Y-282738985D01*
X323589001Y-282738985D02*
X323660430Y-282381842D01*
X323660430Y-282381842D02*
X323731859Y-282167557D01*
X323731859Y-282167557D02*
X323803287Y-282024700D01*
X323803287Y-282024700D02*
X323946144Y-281810414D01*
X323946144Y-281810414D02*
X324017573Y-281738985D01*
X324446144Y-281953271D02*
X325446144Y-281953271D01*
X325446144Y-281953271D02*
X324803287Y-283453271D01*
X326017572Y-283310414D02*
X326089001Y-283381842D01*
X326089001Y-283381842D02*
X326017572Y-283453271D01*
X326017572Y-283453271D02*
X325946144Y-283381842D01*
X325946144Y-283381842D02*
X326017572Y-283310414D01*
X326017572Y-283310414D02*
X326017572Y-283453271D01*
X327017573Y-281953271D02*
X327160430Y-281953271D01*
X327160430Y-281953271D02*
X327303287Y-282024700D01*
X327303287Y-282024700D02*
X327374716Y-282096128D01*
X327374716Y-282096128D02*
X327446144Y-282238985D01*
X327446144Y-282238985D02*
X327517573Y-282524700D01*
X327517573Y-282524700D02*
X327517573Y-282881842D01*
X327517573Y-282881842D02*
X327446144Y-283167557D01*
X327446144Y-283167557D02*
X327374716Y-283310414D01*
X327374716Y-283310414D02*
X327303287Y-283381842D01*
X327303287Y-283381842D02*
X327160430Y-283453271D01*
X327160430Y-283453271D02*
X327017573Y-283453271D01*
X327017573Y-283453271D02*
X326874716Y-283381842D01*
X326874716Y-283381842D02*
X326803287Y-283310414D01*
X326803287Y-283310414D02*
X326731858Y-283167557D01*
X326731858Y-283167557D02*
X326660430Y-282881842D01*
X326660430Y-282881842D02*
X326660430Y-282524700D01*
X326660430Y-282524700D02*
X326731858Y-282238985D01*
X326731858Y-282238985D02*
X326803287Y-282096128D01*
X326803287Y-282096128D02*
X326874716Y-282024700D01*
X326874716Y-282024700D02*
X327017573Y-281953271D01*
X328160429Y-283310414D02*
X328231858Y-283381842D01*
X328231858Y-283381842D02*
X328160429Y-283453271D01*
X328160429Y-283453271D02*
X328089001Y-283381842D01*
X328089001Y-283381842D02*
X328160429Y-283310414D01*
X328160429Y-283310414D02*
X328160429Y-283453271D01*
X329160430Y-281953271D02*
X329303287Y-281953271D01*
X329303287Y-281953271D02*
X329446144Y-282024700D01*
X329446144Y-282024700D02*
X329517573Y-282096128D01*
X329517573Y-282096128D02*
X329589001Y-282238985D01*
X329589001Y-282238985D02*
X329660430Y-282524700D01*
X329660430Y-282524700D02*
X329660430Y-282881842D01*
X329660430Y-282881842D02*
X329589001Y-283167557D01*
X329589001Y-283167557D02*
X329517573Y-283310414D01*
X329517573Y-283310414D02*
X329446144Y-283381842D01*
X329446144Y-283381842D02*
X329303287Y-283453271D01*
X329303287Y-283453271D02*
X329160430Y-283453271D01*
X329160430Y-283453271D02*
X329017573Y-283381842D01*
X329017573Y-283381842D02*
X328946144Y-283310414D01*
X328946144Y-283310414D02*
X328874715Y-283167557D01*
X328874715Y-283167557D02*
X328803287Y-282881842D01*
X328803287Y-282881842D02*
X328803287Y-282524700D01*
X328803287Y-282524700D02*
X328874715Y-282238985D01*
X328874715Y-282238985D02*
X328946144Y-282096128D01*
X328946144Y-282096128D02*
X329017573Y-282024700D01*
X329017573Y-282024700D02*
X329160430Y-281953271D01*
X330160429Y-284024700D02*
X330231858Y-283953271D01*
X330231858Y-283953271D02*
X330374715Y-283738985D01*
X330374715Y-283738985D02*
X330446144Y-283596128D01*
X330446144Y-283596128D02*
X330517572Y-283381842D01*
X330517572Y-283381842D02*
X330589001Y-283024700D01*
X330589001Y-283024700D02*
X330589001Y-282738985D01*
X330589001Y-282738985D02*
X330517572Y-282381842D01*
X330517572Y-282381842D02*
X330446144Y-282167557D01*
X330446144Y-282167557D02*
X330374715Y-282024700D01*
X330374715Y-282024700D02*
X330231858Y-281810414D01*
X330231858Y-281810414D02*
X330160429Y-281738985D01*
D10*
D11*
X299989000Y-278502200D02*
X407989000Y-278502200D01*
D10*
D12*
X387203285Y-280653271D02*
X386703285Y-279938985D01*
X386346142Y-280653271D02*
X386346142Y-279153271D01*
X386346142Y-279153271D02*
X386917571Y-279153271D01*
X386917571Y-279153271D02*
X387060428Y-279224700D01*
X387060428Y-279224700D02*
X387131857Y-279296128D01*
X387131857Y-279296128D02*
X387203285Y-279438985D01*
X387203285Y-279438985D02*
X387203285Y-279653271D01*
X387203285Y-279653271D02*
X387131857Y-279796128D01*
X387131857Y-279796128D02*
X387060428Y-279867557D01*
X387060428Y-279867557D02*
X386917571Y-279938985D01*
X386917571Y-279938985D02*
X386346142Y-279938985D01*
X388417571Y-280581842D02*
X388274714Y-280653271D01*
X388274714Y-280653271D02*
X387989000Y-280653271D01*
X387989000Y-280653271D02*
X387846142Y-280581842D01*
X387846142Y-280581842D02*
X387774714Y-280438985D01*
X387774714Y-280438985D02*
X387774714Y-279867557D01*
X387774714Y-279867557D02*
X387846142Y-279724700D01*
X387846142Y-279724700D02*
X387989000Y-279653271D01*
X387989000Y-279653271D02*
X388274714Y-279653271D01*
X388274714Y-279653271D02*
X388417571Y-279724700D01*
X388417571Y-279724700D02*
X388489000Y-279867557D01*
X388489000Y-279867557D02*
X388489000Y-280010414D01*
X388489000Y-280010414D02*
X387774714Y-280153271D01*
X388988999Y-279653271D02*
X389346142Y-280653271D01*
X389346142Y-280653271D02*
X389703285Y-279653271D01*
X390274713Y-280510414D02*
X390346142Y-280581842D01*
X390346142Y-280581842D02*
X390274713Y-280653271D01*
X390274713Y-280653271D02*
X390203285Y-280581842D01*
X390203285Y-280581842D02*
X390274713Y-280510414D01*
X390274713Y-280510414D02*
X390274713Y-280653271D01*
X390274713Y-279724700D02*
X390346142Y-279796128D01*
X390346142Y-279796128D02*
X390274713Y-279867557D01*
X390274713Y-279867557D02*
X390203285Y-279796128D01*
X390203285Y-279796128D02*
X390274713Y-279724700D01*
X390274713Y-279724700D02*
X390274713Y-279867557D01*
D10*
D11*
X301274714Y-280581842D02*
X301489000Y-280653271D01*
X301489000Y-280653271D02*
X301846142Y-280653271D01*
X301846142Y-280653271D02*
X301989000Y-280581842D01*
X301989000Y-280581842D02*
X302060428Y-280510414D01*
X302060428Y-280510414D02*
X302131857Y-280367557D01*
X302131857Y-280367557D02*
X302131857Y-280224700D01*
X302131857Y-280224700D02*
X302060428Y-280081842D01*
X302060428Y-280081842D02*
X301989000Y-280010414D01*
X301989000Y-280010414D02*
X301846142Y-279938985D01*
X301846142Y-279938985D02*
X301560428Y-279867557D01*
X301560428Y-279867557D02*
X301417571Y-279796128D01*
X301417571Y-279796128D02*
X301346142Y-279724700D01*
X301346142Y-279724700D02*
X301274714Y-279581842D01*
X301274714Y-279581842D02*
X301274714Y-279438985D01*
X301274714Y-279438985D02*
X301346142Y-279296128D01*
X301346142Y-279296128D02*
X301417571Y-279224700D01*
X301417571Y-279224700D02*
X301560428Y-279153271D01*
X301560428Y-279153271D02*
X301917571Y-279153271D01*
X301917571Y-279153271D02*
X302131857Y-279224700D01*
X302774713Y-280653271D02*
X302774713Y-279653271D01*
X302774713Y-279153271D02*
X302703285Y-279224700D01*
X302703285Y-279224700D02*
X302774713Y-279296128D01*
X302774713Y-279296128D02*
X302846142Y-279224700D01*
X302846142Y-279224700D02*
X302774713Y-279153271D01*
X302774713Y-279153271D02*
X302774713Y-279296128D01*
X303346142Y-279653271D02*
X304131857Y-279653271D01*
X304131857Y-279653271D02*
X303346142Y-280653271D01*
X303346142Y-280653271D02*
X304131857Y-280653271D01*
X305274714Y-280581842D02*
X305131857Y-280653271D01*
X305131857Y-280653271D02*
X304846143Y-280653271D01*
X304846143Y-280653271D02*
X304703285Y-280581842D01*
X304703285Y-280581842D02*
X304631857Y-280438985D01*
X304631857Y-280438985D02*
X304631857Y-279867557D01*
X304631857Y-279867557D02*
X304703285Y-279724700D01*
X304703285Y-279724700D02*
X304846143Y-279653271D01*
X304846143Y-279653271D02*
X305131857Y-279653271D01*
X305131857Y-279653271D02*
X305274714Y-279724700D01*
X305274714Y-279724700D02*
X305346143Y-279867557D01*
X305346143Y-279867557D02*
X305346143Y-280010414D01*
X305346143Y-280010414D02*
X304631857Y-280153271D01*
X305988999Y-280510414D02*
X306060428Y-280581842D01*
X306060428Y-280581842D02*
X305988999Y-280653271D01*
X305988999Y-280653271D02*
X305917571Y-280581842D01*
X305917571Y-280581842D02*
X305988999Y-280510414D01*
X305988999Y-280510414D02*
X305988999Y-280653271D01*
X305988999Y-279724700D02*
X306060428Y-279796128D01*
X306060428Y-279796128D02*
X305988999Y-279867557D01*
X305988999Y-279867557D02*
X305917571Y-279796128D01*
X305917571Y-279796128D02*
X305988999Y-279724700D01*
X305988999Y-279724700D02*
X305988999Y-279867557D01*
X307531857Y-280224700D02*
X308246143Y-280224700D01*
X307389000Y-280653271D02*
X307889000Y-279153271D01*
X307889000Y-279153271D02*
X308389000Y-280653271D01*
X308746142Y-279153271D02*
X309674714Y-279153271D01*
X309674714Y-279153271D02*
X309174714Y-279724700D01*
X309174714Y-279724700D02*
X309388999Y-279724700D01*
X309388999Y-279724700D02*
X309531857Y-279796128D01*
X309531857Y-279796128D02*
X309603285Y-279867557D01*
X309603285Y-279867557D02*
X309674714Y-280010414D01*
X309674714Y-280010414D02*
X309674714Y-280367557D01*
X309674714Y-280367557D02*
X309603285Y-280510414D01*
X309603285Y-280510414D02*
X309531857Y-280581842D01*
X309531857Y-280581842D02*
X309388999Y-280653271D01*
X309388999Y-280653271D02*
X308960428Y-280653271D01*
X308960428Y-280653271D02*
X308817571Y-280581842D01*
X308817571Y-280581842D02*
X308746142Y-280510414D01*
D10*
D11*
X386346142Y-283453271D02*
X386346142Y-281953271D01*
X387703286Y-283453271D02*
X387703286Y-281953271D01*
X387703286Y-283381842D02*
X387560428Y-283453271D01*
X387560428Y-283453271D02*
X387274714Y-283453271D01*
X387274714Y-283453271D02*
X387131857Y-283381842D01*
X387131857Y-283381842D02*
X387060428Y-283310414D01*
X387060428Y-283310414D02*
X386989000Y-283167557D01*
X386989000Y-283167557D02*
X386989000Y-282738985D01*
X386989000Y-282738985D02*
X387060428Y-282596128D01*
X387060428Y-282596128D02*
X387131857Y-282524700D01*
X387131857Y-282524700D02*
X387274714Y-282453271D01*
X387274714Y-282453271D02*
X387560428Y-282453271D01*
X387560428Y-282453271D02*
X387703286Y-282524700D01*
X388417571Y-283310414D02*
X388489000Y-283381842D01*
X388489000Y-283381842D02*
X388417571Y-283453271D01*
X388417571Y-283453271D02*
X388346143Y-283381842D01*
X388346143Y-283381842D02*
X388417571Y-283310414D01*
X388417571Y-283310414D02*
X388417571Y-283453271D01*
X388417571Y-282524700D02*
X388489000Y-282596128D01*
X388489000Y-282596128D02*
X388417571Y-282667557D01*
X388417571Y-282667557D02*
X388346143Y-282596128D01*
X388346143Y-282596128D02*
X388417571Y-282524700D01*
X388417571Y-282524700D02*
X388417571Y-282667557D01*
X390817572Y-283453271D02*
X389960429Y-283453271D01*
X390389000Y-283453271D02*
X390389000Y-281953271D01*
X390389000Y-281953271D02*
X390246143Y-282167557D01*
X390246143Y-282167557D02*
X390103286Y-282310414D01*
X390103286Y-282310414D02*
X389960429Y-282381842D01*
X392531857Y-281881842D02*
X391246143Y-283810414D01*
X393817572Y-283453271D02*
X392960429Y-283453271D01*
X393389000Y-283453271D02*
X393389000Y-281953271D01*
X393389000Y-281953271D02*
X393246143Y-282167557D01*
X393246143Y-282167557D02*
X393103286Y-282310414D01*
X393103286Y-282310414D02*
X392960429Y-282381842D01*
D10*
D11*
X299989000Y-274502200D02*
X407989000Y-274502200D01*
D10*
D13*
X301441380Y-275036961D02*
X302584238Y-275036961D01*
X301762809Y-277036961D02*
X302012809Y-275036961D01*
X303000905Y-277036961D02*
X303167571Y-275703628D01*
X303250905Y-275036961D02*
X303143762Y-275132200D01*
X303143762Y-275132200D02*
X303227095Y-275227438D01*
X303227095Y-275227438D02*
X303334238Y-275132200D01*
X303334238Y-275132200D02*
X303250905Y-275036961D01*
X303250905Y-275036961D02*
X303227095Y-275227438D01*
X303834238Y-275703628D02*
X304596143Y-275703628D01*
X304203286Y-275036961D02*
X303989000Y-276751247D01*
X303989000Y-276751247D02*
X304060429Y-276941723D01*
X304060429Y-276941723D02*
X304239000Y-277036961D01*
X304239000Y-277036961D02*
X304429476Y-277036961D01*
X305381857Y-277036961D02*
X305203286Y-276941723D01*
X305203286Y-276941723D02*
X305131857Y-276751247D01*
X305131857Y-276751247D02*
X305346143Y-275036961D01*
X306917571Y-276941723D02*
X306715190Y-277036961D01*
X306715190Y-277036961D02*
X306334238Y-277036961D01*
X306334238Y-277036961D02*
X306155667Y-276941723D01*
X306155667Y-276941723D02*
X306084238Y-276751247D01*
X306084238Y-276751247D02*
X306179476Y-275989342D01*
X306179476Y-275989342D02*
X306298524Y-275798866D01*
X306298524Y-275798866D02*
X306500905Y-275703628D01*
X306500905Y-275703628D02*
X306881857Y-275703628D01*
X306881857Y-275703628D02*
X307060428Y-275798866D01*
X307060428Y-275798866D02*
X307131857Y-275989342D01*
X307131857Y-275989342D02*
X307108047Y-276179819D01*
X307108047Y-276179819D02*
X306131857Y-276370295D01*
X307881857Y-276846485D02*
X307965191Y-276941723D01*
X307965191Y-276941723D02*
X307858048Y-277036961D01*
X307858048Y-277036961D02*
X307774714Y-276941723D01*
X307774714Y-276941723D02*
X307881857Y-276846485D01*
X307881857Y-276846485D02*
X307858048Y-277036961D01*
X308012810Y-275798866D02*
X308096143Y-275894104D01*
X308096143Y-275894104D02*
X307989000Y-275989342D01*
X307989000Y-275989342D02*
X307905667Y-275894104D01*
X307905667Y-275894104D02*
X308012810Y-275798866D01*
X308012810Y-275798866D02*
X307989000Y-275989342D01*
D10*
D11*
X301846142Y-272467557D02*
X301346142Y-272467557D01*
X301346142Y-273253271D02*
X301346142Y-271753271D01*
X301346142Y-271753271D02*
X302060428Y-271753271D01*
X302631856Y-273253271D02*
X302631856Y-272253271D01*
X302631856Y-271753271D02*
X302560428Y-271824700D01*
X302560428Y-271824700D02*
X302631856Y-271896128D01*
X302631856Y-271896128D02*
X302703285Y-271824700D01*
X302703285Y-271824700D02*
X302631856Y-271753271D01*
X302631856Y-271753271D02*
X302631856Y-271896128D01*
X303560428Y-273253271D02*
X303417571Y-273181842D01*
X303417571Y-273181842D02*
X303346142Y-273038985D01*
X303346142Y-273038985D02*
X303346142Y-271753271D01*
X304703285Y-273181842D02*
X304560428Y-273253271D01*
X304560428Y-273253271D02*
X304274714Y-273253271D01*
X304274714Y-273253271D02*
X304131856Y-273181842D01*
X304131856Y-273181842D02*
X304060428Y-273038985D01*
X304060428Y-273038985D02*
X304060428Y-272467557D01*
X304060428Y-272467557D02*
X304131856Y-272324700D01*
X304131856Y-272324700D02*
X304274714Y-272253271D01*
X304274714Y-272253271D02*
X304560428Y-272253271D01*
X304560428Y-272253271D02*
X304703285Y-272324700D01*
X304703285Y-272324700D02*
X304774714Y-272467557D01*
X304774714Y-272467557D02*
X304774714Y-272610414D01*
X304774714Y-272610414D02*
X304060428Y-272753271D01*
X305417570Y-273110414D02*
X305488999Y-273181842D01*
X305488999Y-273181842D02*
X305417570Y-273253271D01*
X305417570Y-273253271D02*
X305346142Y-273181842D01*
X305346142Y-273181842D02*
X305417570Y-273110414D01*
X305417570Y-273110414D02*
X305417570Y-273253271D01*
X305417570Y-272324700D02*
X305488999Y-272396128D01*
X305488999Y-272396128D02*
X305417570Y-272467557D01*
X305417570Y-272467557D02*
X305346142Y-272396128D01*
X305346142Y-272396128D02*
X305417570Y-272324700D01*
X305417570Y-272324700D02*
X305417570Y-272467557D01*
X308031856Y-273396128D02*
X307888999Y-273324700D01*
X307888999Y-273324700D02*
X307746142Y-273181842D01*
X307746142Y-273181842D02*
X307531856Y-272967557D01*
X307531856Y-272967557D02*
X307388999Y-272896128D01*
X307388999Y-272896128D02*
X307246142Y-272896128D01*
X307317571Y-273253271D02*
X307174714Y-273181842D01*
X307174714Y-273181842D02*
X307031856Y-273038985D01*
X307031856Y-273038985D02*
X306960428Y-272753271D01*
X306960428Y-272753271D02*
X306960428Y-272253271D01*
X306960428Y-272253271D02*
X307031856Y-271967557D01*
X307031856Y-271967557D02*
X307174714Y-271824700D01*
X307174714Y-271824700D02*
X307317571Y-271753271D01*
X307317571Y-271753271D02*
X307603285Y-271753271D01*
X307603285Y-271753271D02*
X307746142Y-271824700D01*
X307746142Y-271824700D02*
X307888999Y-271967557D01*
X307888999Y-271967557D02*
X307960428Y-272253271D01*
X307960428Y-272253271D02*
X307960428Y-272753271D01*
X307960428Y-272753271D02*
X307888999Y-273038985D01*
X307888999Y-273038985D02*
X307746142Y-273181842D01*
X307746142Y-273181842D02*
X307603285Y-273253271D01*
X307603285Y-273253271D02*
X307317571Y-273253271D01*
X309246143Y-272253271D02*
X309246143Y-273253271D01*
X308603285Y-272253271D02*
X308603285Y-273038985D01*
X308603285Y-273038985D02*
X308674714Y-273181842D01*
X308674714Y-273181842D02*
X308817571Y-273253271D01*
X308817571Y-273253271D02*
X309031857Y-273253271D01*
X309031857Y-273253271D02*
X309174714Y-273181842D01*
X309174714Y-273181842D02*
X309246143Y-273110414D01*
X310603286Y-273253271D02*
X310603286Y-272467557D01*
X310603286Y-272467557D02*
X310531857Y-272324700D01*
X310531857Y-272324700D02*
X310389000Y-272253271D01*
X310389000Y-272253271D02*
X310103286Y-272253271D01*
X310103286Y-272253271D02*
X309960428Y-272324700D01*
X310603286Y-273181842D02*
X310460428Y-273253271D01*
X310460428Y-273253271D02*
X310103286Y-273253271D01*
X310103286Y-273253271D02*
X309960428Y-273181842D01*
X309960428Y-273181842D02*
X309889000Y-273038985D01*
X309889000Y-273038985D02*
X309889000Y-272896128D01*
X309889000Y-272896128D02*
X309960428Y-272753271D01*
X309960428Y-272753271D02*
X310103286Y-272681842D01*
X310103286Y-272681842D02*
X310460428Y-272681842D01*
X310460428Y-272681842D02*
X310603286Y-272610414D01*
X311317571Y-273253271D02*
X311317571Y-272253271D01*
X311317571Y-272538985D02*
X311389000Y-272396128D01*
X311389000Y-272396128D02*
X311460429Y-272324700D01*
X311460429Y-272324700D02*
X311603286Y-272253271D01*
X311603286Y-272253271D02*
X311746143Y-272253271D01*
X312031857Y-272253271D02*
X312603285Y-272253271D01*
X312246142Y-271753271D02*
X312246142Y-273038985D01*
X312246142Y-273038985D02*
X312317571Y-273181842D01*
X312317571Y-273181842D02*
X312460428Y-273253271D01*
X312460428Y-273253271D02*
X312603285Y-273253271D01*
X312960428Y-272253271D02*
X313746143Y-272253271D01*
X313746143Y-272253271D02*
X312960428Y-273253271D01*
X312960428Y-273253271D02*
X313746143Y-273253271D01*
X314317571Y-273110414D02*
X314389000Y-273181842D01*
X314389000Y-273181842D02*
X314317571Y-273253271D01*
X314317571Y-273253271D02*
X314246143Y-273181842D01*
X314246143Y-273181842D02*
X314317571Y-273110414D01*
X314317571Y-273110414D02*
X314317571Y-273253271D01*
X315031857Y-273253271D02*
X315031857Y-271753271D01*
X315174715Y-272681842D02*
X315603286Y-273253271D01*
X315603286Y-272253271D02*
X315031857Y-272824700D01*
X316246143Y-273253271D02*
X316246143Y-272253271D01*
X316246143Y-271753271D02*
X316174715Y-271824700D01*
X316174715Y-271824700D02*
X316246143Y-271896128D01*
X316246143Y-271896128D02*
X316317572Y-271824700D01*
X316317572Y-271824700D02*
X316246143Y-271753271D01*
X316246143Y-271753271D02*
X316246143Y-271896128D01*
X317603287Y-273181842D02*
X317460429Y-273253271D01*
X317460429Y-273253271D02*
X317174715Y-273253271D01*
X317174715Y-273253271D02*
X317031858Y-273181842D01*
X317031858Y-273181842D02*
X316960429Y-273110414D01*
X316960429Y-273110414D02*
X316889001Y-272967557D01*
X316889001Y-272967557D02*
X316889001Y-272538985D01*
X316889001Y-272538985D02*
X316960429Y-272396128D01*
X316960429Y-272396128D02*
X317031858Y-272324700D01*
X317031858Y-272324700D02*
X317174715Y-272253271D01*
X317174715Y-272253271D02*
X317460429Y-272253271D01*
X317460429Y-272253271D02*
X317603287Y-272324700D01*
X318889001Y-273253271D02*
X318889001Y-272467557D01*
X318889001Y-272467557D02*
X318817572Y-272324700D01*
X318817572Y-272324700D02*
X318674715Y-272253271D01*
X318674715Y-272253271D02*
X318389001Y-272253271D01*
X318389001Y-272253271D02*
X318246143Y-272324700D01*
X318889001Y-273181842D02*
X318746143Y-273253271D01*
X318746143Y-273253271D02*
X318389001Y-273253271D01*
X318389001Y-273253271D02*
X318246143Y-273181842D01*
X318246143Y-273181842D02*
X318174715Y-273038985D01*
X318174715Y-273038985D02*
X318174715Y-272896128D01*
X318174715Y-272896128D02*
X318246143Y-272753271D01*
X318246143Y-272753271D02*
X318389001Y-272681842D01*
X318389001Y-272681842D02*
X318746143Y-272681842D01*
X318746143Y-272681842D02*
X318889001Y-272610414D01*
X320246144Y-273253271D02*
X320246144Y-271753271D01*
X320246144Y-273181842D02*
X320103286Y-273253271D01*
X320103286Y-273253271D02*
X319817572Y-273253271D01*
X319817572Y-273253271D02*
X319674715Y-273181842D01*
X319674715Y-273181842D02*
X319603286Y-273110414D01*
X319603286Y-273110414D02*
X319531858Y-272967557D01*
X319531858Y-272967557D02*
X319531858Y-272538985D01*
X319531858Y-272538985D02*
X319603286Y-272396128D01*
X319603286Y-272396128D02*
X319674715Y-272324700D01*
X319674715Y-272324700D02*
X319817572Y-272253271D01*
X319817572Y-272253271D02*
X320103286Y-272253271D01*
X320103286Y-272253271D02*
X320246144Y-272324700D01*
X320603287Y-273396128D02*
X321746144Y-273396128D01*
X322103286Y-272253271D02*
X322103286Y-273753271D01*
X322103286Y-272324700D02*
X322246144Y-272253271D01*
X322246144Y-272253271D02*
X322531858Y-272253271D01*
X322531858Y-272253271D02*
X322674715Y-272324700D01*
X322674715Y-272324700D02*
X322746144Y-272396128D01*
X322746144Y-272396128D02*
X322817572Y-272538985D01*
X322817572Y-272538985D02*
X322817572Y-272967557D01*
X322817572Y-272967557D02*
X322746144Y-273110414D01*
X322746144Y-273110414D02*
X322674715Y-273181842D01*
X322674715Y-273181842D02*
X322531858Y-273253271D01*
X322531858Y-273253271D02*
X322246144Y-273253271D01*
X322246144Y-273253271D02*
X322103286Y-273181842D01*
X324103287Y-273181842D02*
X323960429Y-273253271D01*
X323960429Y-273253271D02*
X323674715Y-273253271D01*
X323674715Y-273253271D02*
X323531858Y-273181842D01*
X323531858Y-273181842D02*
X323460429Y-273110414D01*
X323460429Y-273110414D02*
X323389001Y-272967557D01*
X323389001Y-272967557D02*
X323389001Y-272538985D01*
X323389001Y-272538985D02*
X323460429Y-272396128D01*
X323460429Y-272396128D02*
X323531858Y-272324700D01*
X323531858Y-272324700D02*
X323674715Y-272253271D01*
X323674715Y-272253271D02*
X323960429Y-272253271D01*
X323960429Y-272253271D02*
X324103287Y-272324700D01*
X324746143Y-273253271D02*
X324746143Y-271753271D01*
X324746143Y-272324700D02*
X324889001Y-272253271D01*
X324889001Y-272253271D02*
X325174715Y-272253271D01*
X325174715Y-272253271D02*
X325317572Y-272324700D01*
X325317572Y-272324700D02*
X325389001Y-272396128D01*
X325389001Y-272396128D02*
X325460429Y-272538985D01*
X325460429Y-272538985D02*
X325460429Y-272967557D01*
X325460429Y-272967557D02*
X325389001Y-273110414D01*
X325389001Y-273110414D02*
X325317572Y-273181842D01*
X325317572Y-273181842D02*
X325174715Y-273253271D01*
X325174715Y-273253271D02*
X324889001Y-273253271D01*
X324889001Y-273253271D02*
X324746143Y-273181842D01*
D10*
D11*
X299989000Y-268502200D02*
X407989000Y-268502200D01*
D10*
D11*
X301274714Y-270481842D02*
X301489000Y-270553271D01*
X301489000Y-270553271D02*
X301846142Y-270553271D01*
X301846142Y-270553271D02*
X301989000Y-270481842D01*
X301989000Y-270481842D02*
X302060428Y-270410414D01*
X302060428Y-270410414D02*
X302131857Y-270267557D01*
X302131857Y-270267557D02*
X302131857Y-270124700D01*
X302131857Y-270124700D02*
X302060428Y-269981842D01*
X302060428Y-269981842D02*
X301989000Y-269910414D01*
X301989000Y-269910414D02*
X301846142Y-269838985D01*
X301846142Y-269838985D02*
X301560428Y-269767557D01*
X301560428Y-269767557D02*
X301417571Y-269696128D01*
X301417571Y-269696128D02*
X301346142Y-269624700D01*
X301346142Y-269624700D02*
X301274714Y-269481842D01*
X301274714Y-269481842D02*
X301274714Y-269338985D01*
X301274714Y-269338985D02*
X301346142Y-269196128D01*
X301346142Y-269196128D02*
X301417571Y-269124700D01*
X301417571Y-269124700D02*
X301560428Y-269053271D01*
X301560428Y-269053271D02*
X301917571Y-269053271D01*
X301917571Y-269053271D02*
X302131857Y-269124700D01*
X302774713Y-270553271D02*
X302774713Y-269053271D01*
X303417571Y-270553271D02*
X303417571Y-269767557D01*
X303417571Y-269767557D02*
X303346142Y-269624700D01*
X303346142Y-269624700D02*
X303203285Y-269553271D01*
X303203285Y-269553271D02*
X302988999Y-269553271D01*
X302988999Y-269553271D02*
X302846142Y-269624700D01*
X302846142Y-269624700D02*
X302774713Y-269696128D01*
X304703285Y-270481842D02*
X304560428Y-270553271D01*
X304560428Y-270553271D02*
X304274714Y-270553271D01*
X304274714Y-270553271D02*
X304131856Y-270481842D01*
X304131856Y-270481842D02*
X304060428Y-270338985D01*
X304060428Y-270338985D02*
X304060428Y-269767557D01*
X304060428Y-269767557D02*
X304131856Y-269624700D01*
X304131856Y-269624700D02*
X304274714Y-269553271D01*
X304274714Y-269553271D02*
X304560428Y-269553271D01*
X304560428Y-269553271D02*
X304703285Y-269624700D01*
X304703285Y-269624700D02*
X304774714Y-269767557D01*
X304774714Y-269767557D02*
X304774714Y-269910414D01*
X304774714Y-269910414D02*
X304060428Y-270053271D01*
X305988999Y-270481842D02*
X305846142Y-270553271D01*
X305846142Y-270553271D02*
X305560428Y-270553271D01*
X305560428Y-270553271D02*
X305417570Y-270481842D01*
X305417570Y-270481842D02*
X305346142Y-270338985D01*
X305346142Y-270338985D02*
X305346142Y-269767557D01*
X305346142Y-269767557D02*
X305417570Y-269624700D01*
X305417570Y-269624700D02*
X305560428Y-269553271D01*
X305560428Y-269553271D02*
X305846142Y-269553271D01*
X305846142Y-269553271D02*
X305988999Y-269624700D01*
X305988999Y-269624700D02*
X306060428Y-269767557D01*
X306060428Y-269767557D02*
X306060428Y-269910414D01*
X306060428Y-269910414D02*
X305346142Y-270053271D01*
X306488999Y-269553271D02*
X307060427Y-269553271D01*
X306703284Y-269053271D02*
X306703284Y-270338985D01*
X306703284Y-270338985D02*
X306774713Y-270481842D01*
X306774713Y-270481842D02*
X306917570Y-270553271D01*
X306917570Y-270553271D02*
X307060427Y-270553271D01*
X307560427Y-270410414D02*
X307631856Y-270481842D01*
X307631856Y-270481842D02*
X307560427Y-270553271D01*
X307560427Y-270553271D02*
X307488999Y-270481842D01*
X307488999Y-270481842D02*
X307560427Y-270410414D01*
X307560427Y-270410414D02*
X307560427Y-270553271D01*
X307560427Y-269624700D02*
X307631856Y-269696128D01*
X307631856Y-269696128D02*
X307560427Y-269767557D01*
X307560427Y-269767557D02*
X307488999Y-269696128D01*
X307488999Y-269696128D02*
X307560427Y-269624700D01*
X307560427Y-269624700D02*
X307560427Y-269767557D01*
D10*
D12*
D10*
D11*
D10*
D11*
D10*
D11*
D10*
D11*
D10*
D11*
X319989000Y-278502200D02*
X319989000Y-281502200D01*
D10*
D11*
X383989000Y-278502200D02*
X383989000Y-285002200D01*
D14*
%TO.N,Net-(U1701-Vs-)*%
%TO.C,U1701*%
X214645000Y-184321000D03*
X215885000Y-184321000D03*
X214645000Y-183081000D03*
X215885000Y-183081000D03*
%TD*%
D15*
%TO.N,GND*%
%TO.C,H4*%
X144324000Y-103488000D03*
%TD*%
D14*
%TO.N,Net-(U1101-Vs-)*%
%TO.C,U1101*%
X183149000Y-184321000D03*
X184389000Y-184321000D03*
X183149000Y-183081000D03*
X184389000Y-183081000D03*
%TD*%
%TO.N,Net-(U301-Vs-)*%
%TO.C,U301*%
X120157000Y-184321000D03*
X121397000Y-184321000D03*
X120157000Y-183081000D03*
X121397000Y-183081000D03*
%TD*%
%TO.N,Net-(U2501-Vs-)*%
%TO.C,U2501*%
X277637000Y-184321000D03*
X278877000Y-184321000D03*
X277637000Y-183081000D03*
X278877000Y-183081000D03*
%TD*%
%TO.N,Net-(U1901-Vs-)*%
%TO.C,U1901*%
X246141000Y-184321000D03*
X247381000Y-184321000D03*
X246141000Y-183081000D03*
X247381000Y-183081000D03*
%TD*%
%TO.N,Net-(U401-Vs-)*%
%TO.C,U401*%
X135905000Y-184321000D03*
X137145000Y-184321000D03*
X135905000Y-183081000D03*
X137145000Y-183081000D03*
%TD*%
%TO.N,Net-(U901-Vs-)*%
%TO.C,U901*%
X151653000Y-184321000D03*
X152893000Y-184321000D03*
X151653000Y-183081000D03*
X152893000Y-183081000D03*
%TD*%
%TO.N,Net-(U201-Vs-)*%
%TO.C,U201*%
X104409000Y-184321000D03*
X105649000Y-184321000D03*
X104409000Y-183081000D03*
X105649000Y-183081000D03*
%TD*%
%TO.N,Net-(U2601-Vs-)*%
%TO.C,U2601*%
X293385000Y-184321000D03*
X294625000Y-184321000D03*
X293385000Y-183081000D03*
X294625000Y-183081000D03*
%TD*%
%TO.N,Net-(U1201-Vs-)*%
%TO.C,U1201*%
X198897000Y-184321000D03*
X200137000Y-184321000D03*
X198897000Y-183081000D03*
X200137000Y-183081000D03*
%TD*%
D15*
%TO.N,GND*%
%TO.C,H5*%
X207324000Y-103488000D03*
%TD*%
D14*
%TO.N,Net-(U1801-Vs-)*%
%TO.C,U1801*%
X230393000Y-184321000D03*
X231633000Y-184321000D03*
X230393000Y-183081000D03*
X231633000Y-183081000D03*
%TD*%
%TO.N,Net-(U2801-Vs-)*%
%TO.C,U2801*%
X324881000Y-184321000D03*
X326121000Y-184321000D03*
X324881000Y-183081000D03*
X326121000Y-183081000D03*
%TD*%
D16*
%TO.N,GND*%
%TO.C,U33*%
X136068000Y-123255000D03*
X135318000Y-123255000D03*
X134568000Y-123255000D03*
%TD*%
D14*
%TO.N,Net-(U2701-Vs-)*%
%TO.C,U2701*%
X309133000Y-184321000D03*
X310373000Y-184321000D03*
X309133000Y-183081000D03*
X310373000Y-183081000D03*
%TD*%
D15*
%TO.N,GND*%
%TO.C,H7*%
X277324000Y-103188000D03*
%TD*%
%TO.N,GND*%
%TO.C,H6*%
X214324000Y-103488000D03*
%TD*%
D14*
%TO.N,Net-(U1001-Vs-)*%
%TO.C,U1001*%
X167401000Y-184321000D03*
X168641000Y-184321000D03*
X167401000Y-183081000D03*
X168641000Y-183081000D03*
%TD*%
%TO.N,Net-(U2001-Vs-)*%
%TO.C,U2001*%
X261888999Y-184321000D03*
X263128999Y-184321000D03*
X261888999Y-183081000D03*
X263128999Y-183081000D03*
%TD*%
%TO.N,Net-(U101-Vs-)*%
%TO.C,U101*%
X88661000Y-184321000D03*
X89901000Y-184321000D03*
X88661000Y-183081000D03*
X89901000Y-183081000D03*
%TD*%
D17*
%TO.N,Net-(J5-In)*%
%TO.C,J5*%
X307340000Y-119380000D03*
D18*
%TO.N,GND*%
X309880000Y-121920000D03*
X309880000Y-116840000D03*
X304800000Y-121920000D03*
X304800000Y-116840000D03*
%TD*%
D19*
%TO.N,VDD3P3V*%
%TO.C,TP4*%
X318389000Y-115951000D03*
%TD*%
D20*
%TO.N,Earth*%
%TO.C,H3*%
X210820000Y-216154000D03*
%TD*%
D14*
%TO.N,Net-(U2401-Vs-)*%
%TO.C,U2401*%
X268746999Y-184321000D03*
X269986999Y-184321000D03*
X268746999Y-183081000D03*
X269986999Y-183081000D03*
%TD*%
%TO.N,Net-(U2201-Vs-)*%
%TO.C,U2201*%
X237251000Y-184321000D03*
X238491000Y-184321000D03*
X237251000Y-183081000D03*
X238491000Y-183081000D03*
%TD*%
%TO.N,Net-(U2101-Vs-)*%
%TO.C,U2101*%
X221503000Y-184321000D03*
X222743000Y-184321000D03*
X221503000Y-183081000D03*
X222743000Y-183081000D03*
%TD*%
%TO.N,Net-(U2301-Vs-)*%
%TO.C,U2301*%
X252999000Y-184321000D03*
X254239000Y-184321000D03*
X252999000Y-183081000D03*
X254239000Y-183081000D03*
%TD*%
D21*
%TO.N,/AIN1-*%
%TO.C,J1*%
X129260600Y-213868000D03*
%TO.N,/AIN2-*%
X132029200Y-213868000D03*
%TO.N,/AIN3-*%
X134797800Y-213868000D03*
%TO.N,/AIN4-*%
X137566400Y-213868000D03*
%TO.N,/AIN5-*%
X140335000Y-213868000D03*
%TO.N,/AIN6-*%
X143103600Y-213868000D03*
%TO.N,/AIN7-*%
X145872200Y-213868000D03*
%TO.N,/AIN8-*%
X148640800Y-213868000D03*
%TO.N,Net-(J1-Pad10)*%
X151409400Y-213868000D03*
X154178000Y-213868000D03*
X156946600Y-213868000D03*
%TO.N,/AIN9-*%
X159715200Y-213868000D03*
%TO.N,/AIN10-*%
X162483800Y-213868000D03*
%TO.N,/AIN11-*%
X165252400Y-213868000D03*
%TO.N,/AIN12-*%
X168021000Y-213868000D03*
%TO.N,/AIN13-*%
X170789600Y-213868000D03*
%TO.N,/AIN14-*%
X173558200Y-213868000D03*
%TO.N,/AIN15-*%
X176326800Y-213868000D03*
%TO.N,/AIN16-*%
X179095400Y-213868000D03*
%TO.N,/AIN1+*%
X130644900Y-216712800D03*
%TO.N,/AIN2+*%
X133413500Y-216712800D03*
%TO.N,/AIN3+*%
X136182100Y-216712800D03*
%TO.N,/AIN4+*%
X138950700Y-216712800D03*
%TO.N,/AIN5+*%
X141719300Y-216712800D03*
%TO.N,/AIN6+*%
X144487900Y-216712800D03*
%TO.N,/AIN7+*%
X147256500Y-216712800D03*
%TO.N,/AIN8+*%
X150025100Y-216712800D03*
%TO.N,Net-(J1-Pad10)*%
X152793700Y-216712800D03*
X155562300Y-216712800D03*
%TO.N,/AIN9+*%
X158330900Y-216712800D03*
%TO.N,/AIN10+*%
X161099500Y-216712800D03*
%TO.N,/AIN11+*%
X163868100Y-216712800D03*
%TO.N,/AIN12+*%
X166636700Y-216712800D03*
%TO.N,/AIN13+*%
X169405300Y-216712800D03*
%TO.N,/AIN14+*%
X172173900Y-216712800D03*
%TO.N,/AIN15+*%
X174942500Y-216712800D03*
%TO.N,/AIN16+*%
X177711100Y-216712800D03*
D22*
%TO.N,Net-(J1-Pad38)*%
X122351800Y-215290400D03*
%TO.N,Net-(J1-Pad39)*%
X185851800Y-215290400D03*
%TD*%
D19*
%TO.N,15V+*%
%TO.C,TP6*%
X108839000Y-151130000D03*
%TD*%
D14*
%TO.N,Net-(U501-Vs-)*%
%TO.C,U501*%
X95519000Y-184321000D03*
X96759000Y-184321000D03*
X95519000Y-183081000D03*
X96759000Y-183081000D03*
%TD*%
%TO.N,Net-(U3201-Vs-)*%
%TO.C,U3201*%
X331739000Y-184321000D03*
X332979000Y-184321000D03*
X331739000Y-183081000D03*
X332979000Y-183081000D03*
%TD*%
%TO.N,Net-(U2901-Vs-)*%
%TO.C,U2901*%
X284495000Y-184321000D03*
X285735000Y-184321000D03*
X284495000Y-183081000D03*
X285735000Y-183081000D03*
%TD*%
D19*
%TO.N,+5V*%
%TO.C,TP3*%
X128143000Y-123317000D03*
%TD*%
D14*
%TO.N,Net-(U701-Vs-)*%
%TO.C,U701*%
X127015000Y-184321000D03*
X128255000Y-184321000D03*
X127015000Y-183081000D03*
X128255000Y-183081000D03*
%TD*%
D20*
%TO.N,Earth*%
%TO.C,H2*%
X332740000Y-216154000D03*
%TD*%
D14*
%TO.N,Net-(U1501-Vs-)*%
%TO.C,U1501*%
X190007000Y-184321000D03*
X191247000Y-184321000D03*
X190007000Y-183081000D03*
X191247000Y-183081000D03*
%TD*%
%TO.N,Net-(U1601-Vs-)*%
%TO.C,U1601*%
X205755000Y-184321000D03*
X206995000Y-184321000D03*
X205755000Y-183081000D03*
X206995000Y-183081000D03*
%TD*%
D19*
%TO.N,/Power/16V*%
%TO.C,TP5*%
X111748700Y-144044901D03*
%TD*%
D23*
%TO.N,Net-(J6-Pin_1)*%
%TO.C,J6*%
X176894999Y-126491999D03*
D24*
%TO.N,GND*%
X174894999Y-126491999D03*
%TD*%
D14*
%TO.N,Net-(U801-Vs-)*%
%TO.C,U801*%
X142763000Y-184321000D03*
X144003000Y-184321000D03*
X142763000Y-183081000D03*
X144003000Y-183081000D03*
%TD*%
D19*
%TO.N,GND*%
%TO.C,TP9*%
X115189000Y-151130000D03*
%TD*%
D14*
%TO.N,Net-(U3101-Vs-)*%
%TO.C,U3101*%
X315991000Y-184321000D03*
X317231000Y-184321000D03*
X315991000Y-183081000D03*
X317231000Y-183081000D03*
%TD*%
D20*
%TO.N,Earth*%
%TO.C,H1*%
X88900000Y-216154000D03*
%TD*%
D19*
%TO.N,P1_2P5V*%
%TO.C,TP1*%
X314579000Y-115951000D03*
%TD*%
%TO.N,/Power/-16V*%
%TO.C,TP8*%
X95504000Y-134519901D03*
%TD*%
D14*
%TO.N,Net-(U601-Vs-)*%
%TO.C,U601*%
X111267000Y-184321000D03*
X112507000Y-184321000D03*
X111267000Y-183081000D03*
X112507000Y-183081000D03*
%TD*%
%TO.N,Net-(U1301-Vs-)*%
%TO.C,U1301*%
X158511000Y-184321000D03*
X159751000Y-184321000D03*
X158511000Y-183081000D03*
X159751000Y-183081000D03*
%TD*%
D19*
%TO.N,GND*%
%TO.C,TP10*%
X318389000Y-120015000D03*
%TD*%
%TO.N,+12V*%
%TO.C,TP11*%
X130937000Y-116078000D03*
%TD*%
%TO.N,15V-*%
%TO.C,TP7*%
X100457000Y-151130000D03*
%TD*%
D14*
%TO.N,Net-(U1401-Vs-)*%
%TO.C,U1401*%
X174259000Y-184321000D03*
X175499000Y-184321000D03*
X174259000Y-183081000D03*
X175499000Y-183081000D03*
%TD*%
%TO.N,Net-(U3001-Vs-)*%
%TO.C,U3001*%
X300243000Y-184321000D03*
X301483000Y-184321000D03*
X300243000Y-183081000D03*
X301483000Y-183081000D03*
%TD*%
D21*
%TO.N,/AIN17-*%
%TO.C,J2*%
X239750600Y-213868000D03*
%TO.N,/AIN18-*%
X242519200Y-213868000D03*
%TO.N,/AIN19-*%
X245287800Y-213868000D03*
%TO.N,/AIN20-*%
X248056400Y-213868000D03*
%TO.N,/AIN21-*%
X250825000Y-213868000D03*
%TO.N,/AIN22-*%
X253593600Y-213868000D03*
%TO.N,/AIN23-*%
X256362200Y-213868000D03*
%TO.N,/AIN24-*%
X259130800Y-213868000D03*
%TO.N,Net-(J2-Pad10)*%
X261899400Y-213868000D03*
X264668000Y-213868000D03*
X267436600Y-213868000D03*
%TO.N,/AIN25-*%
X270205200Y-213868000D03*
%TO.N,/AIN26-*%
X272973800Y-213868000D03*
%TO.N,/AIN27-*%
X275742400Y-213868000D03*
%TO.N,/AIN28-*%
X278511000Y-213868000D03*
%TO.N,/AIN29-*%
X281279600Y-213868000D03*
%TO.N,/AIN30-*%
X284048200Y-213868000D03*
%TO.N,/AIN31-*%
X286816800Y-213868000D03*
%TO.N,/AIN32-*%
X289585400Y-213868000D03*
%TO.N,/AIN17+*%
X241134900Y-216712800D03*
%TO.N,/AIN18+*%
X243903500Y-216712800D03*
%TO.N,/AIN19+*%
X246672100Y-216712800D03*
%TO.N,/AIN20+*%
X249440700Y-216712800D03*
%TO.N,/AIN21+*%
X252209300Y-216712800D03*
%TO.N,/AIN22+*%
X254977900Y-216712800D03*
%TO.N,/AIN23+*%
X257746500Y-216712800D03*
%TO.N,/AIN24+*%
X260515100Y-216712800D03*
%TO.N,Net-(J2-Pad10)*%
X263283700Y-216712800D03*
X266052300Y-216712800D03*
%TO.N,/AIN25+*%
X268820900Y-216712800D03*
%TO.N,/AIN26+*%
X271589500Y-216712800D03*
%TO.N,/AIN27+*%
X274358100Y-216712800D03*
%TO.N,/AIN28+*%
X277126700Y-216712800D03*
%TO.N,/AIN29+*%
X279895300Y-216712800D03*
%TO.N,/AIN30+*%
X282663900Y-216712800D03*
%TO.N,/AIN31+*%
X285432500Y-216712800D03*
%TO.N,/AIN32+*%
X288201100Y-216712800D03*
D22*
%TO.N,Net-(J2-Pad38)*%
X232841800Y-215290400D03*
%TO.N,Net-(J2-Pad39)*%
X296341800Y-215290400D03*
%TD*%
D19*
%TO.N,P2_2P5V*%
%TO.C,TP2*%
X314579000Y-119888000D03*
%TD*%
D25*
%TO.N,+5V*%
X197485000Y-149733000D03*
X163068000Y-191008000D03*
D26*
X336804000Y-186459000D03*
X210843000Y-186436000D03*
X147851000Y-186436000D03*
D25*
X191943000Y-146685000D03*
X304800000Y-191008000D03*
X147320000Y-191008000D03*
X274447000Y-152400000D03*
X141605000Y-146685000D03*
X285369000Y-149733000D03*
D26*
X289583000Y-186436000D03*
D27*
X206375000Y-150876000D03*
D25*
X142621000Y-152400000D03*
D26*
X242339000Y-186436000D03*
X278511000Y-154940000D03*
D25*
X313499500Y-134811000D03*
D26*
X132103000Y-186436000D03*
D25*
X226060000Y-191008000D03*
D27*
X162433000Y-150876000D03*
D26*
X305331000Y-186436000D03*
D25*
X241427000Y-149733000D03*
X153543000Y-149733000D03*
X186563000Y-153416000D03*
X190500000Y-152400000D03*
D26*
X321079000Y-186436000D03*
D25*
X142621000Y-153416000D03*
X185547000Y-146685000D03*
X278384000Y-152400000D03*
D27*
X250190000Y-150876000D03*
D25*
X229489000Y-146685000D03*
X320548000Y-191008000D03*
X190627000Y-154940000D03*
D27*
X133032000Y-129097000D03*
D25*
X279827000Y-146685000D03*
D26*
X195095000Y-186436000D03*
X258087000Y-186436000D03*
D25*
X100076000Y-191008000D03*
D26*
X116332000Y-186436000D03*
D25*
X210312000Y-191008000D03*
X178816000Y-191008000D03*
X234442000Y-152400000D03*
D26*
X163599000Y-186436000D03*
D25*
X273431000Y-146685000D03*
X241808000Y-191008000D03*
X273304000Y-191008000D03*
D27*
X294132000Y-150876000D03*
D25*
X289052000Y-191008000D03*
D26*
X84836000Y-186436000D03*
D25*
X186563000Y-152400000D03*
X230505000Y-152400000D03*
X146558000Y-152400000D03*
D27*
X131127000Y-127192000D03*
D26*
X226591000Y-186436000D03*
D27*
X132016000Y-128081000D03*
D25*
X235885000Y-146685000D03*
X274447000Y-153416000D03*
X146685000Y-154940000D03*
X147955000Y-146685000D03*
X131572000Y-191008000D03*
D26*
X100584000Y-186436000D03*
X179347000Y-186436000D03*
D25*
X234569000Y-154940000D03*
X115824000Y-191008000D03*
X194564000Y-191008000D03*
D26*
X273835000Y-186436000D03*
D25*
X257556000Y-191008000D03*
X230505000Y-153416000D03*
D26*
%TO.N,GND*%
X109474000Y-181207285D03*
D25*
X283210000Y-167259000D03*
D26*
X122428000Y-185420000D03*
X233578400Y-187085222D03*
X155448000Y-189992000D03*
D25*
X271780000Y-152146000D03*
X186615000Y-97424000D03*
D26*
X202692000Y-189992000D03*
X118110000Y-179578000D03*
D25*
X283845000Y-140208000D03*
D26*
X218948000Y-143510000D03*
D25*
X272034000Y-110490000D03*
D26*
X237363000Y-140462000D03*
X138176000Y-185420000D03*
X188214000Y-181207285D03*
X195580000Y-152527000D03*
X186055000Y-181610000D03*
X112383700Y-122200901D03*
D25*
X220726000Y-185064400D03*
X167767000Y-148844000D03*
D26*
X305511200Y-183388000D03*
D25*
X232029000Y-147955000D03*
X250265000Y-102504000D03*
X223801400Y-124714000D03*
X255345000Y-100472000D03*
X192965000Y-100472000D03*
X319735200Y-189890400D03*
X319278000Y-187096400D03*
X298323000Y-123190000D03*
D26*
X311404000Y-185420000D03*
D25*
X298323000Y-117856000D03*
D26*
X216916000Y-185420000D03*
X123342400Y-187085222D03*
X225171000Y-152781000D03*
D25*
X253619000Y-167259000D03*
D26*
X202082400Y-187085222D03*
X139700000Y-189992000D03*
D25*
X107442000Y-139971007D03*
X178003200Y-189890400D03*
X322834000Y-117602000D03*
X250265000Y-97424000D03*
D26*
X100279200Y-139141201D03*
D25*
X152325000Y-105552000D03*
X261695000Y-97424000D03*
D26*
X272033999Y-179451000D03*
D25*
X225933000Y-161417000D03*
D26*
X242189000Y-144653000D03*
X193294000Y-179451000D03*
D25*
X136906000Y-152781000D03*
X222095600Y-114602800D03*
X181535000Y-97424000D03*
X98806000Y-187096400D03*
D26*
X219075000Y-146558000D03*
X116535200Y-183388000D03*
D25*
X149479000Y-157099000D03*
X200025000Y-149733000D03*
X111391000Y-128275002D03*
X202184000Y-110617000D03*
X222325000Y-105552000D03*
D26*
X262509000Y-146558000D03*
D25*
X108815500Y-214884000D03*
X232029000Y-148971000D03*
D26*
X112737200Y-140771206D03*
D25*
X151055000Y-102504000D03*
X219202000Y-120396000D03*
D26*
X285242000Y-153797000D03*
D25*
X324104000Y-117602000D03*
X335407000Y-131699000D03*
X288290000Y-126873000D03*
X192405000Y-153162000D03*
X275971000Y-148971000D03*
X288671000Y-120015000D03*
X183896000Y-152146000D03*
X136398000Y-154686000D03*
D26*
X289763200Y-183388000D03*
D25*
X161215000Y-97424000D03*
X247725000Y-100472000D03*
X170688000Y-167259000D03*
X108154501Y-148607006D03*
X335407000Y-128143000D03*
D26*
X123063000Y-181610000D03*
D25*
X166295000Y-97424000D03*
D26*
X149479000Y-140462000D03*
X321564000Y-189865000D03*
D25*
X275971000Y-147955000D03*
X277241000Y-148971000D03*
D26*
X276352000Y-186436000D03*
D27*
X105410000Y-130302000D03*
D26*
X289179000Y-144526000D03*
D25*
X256159000Y-168148000D03*
X191695000Y-97424000D03*
D26*
X125222000Y-181207285D03*
D25*
X268097000Y-115824000D03*
X163755000Y-105552000D03*
D26*
X281305000Y-140462000D03*
D25*
X320040000Y-167259000D03*
X264235000Y-105552000D03*
X165025000Y-102504000D03*
D26*
X186334400Y-187085222D03*
X98056000Y-136199800D03*
D25*
X227457000Y-167259000D03*
D26*
X156718000Y-181207285D03*
D25*
X227175600Y-117785800D03*
X222325000Y-100472000D03*
X196723000Y-148209000D03*
X321597000Y-139098000D03*
X198045000Y-100472000D03*
X273558000Y-154559000D03*
D26*
X185420000Y-185420000D03*
X281432000Y-189992000D03*
D25*
X272415000Y-149098000D03*
D26*
X184785000Y-156972000D03*
X87376000Y-186436000D03*
D25*
X188087000Y-148971000D03*
X236474000Y-185064400D03*
X192913000Y-149098000D03*
X154865000Y-100472000D03*
D26*
X91567000Y-181610000D03*
D25*
X194235000Y-100472000D03*
D26*
X211023200Y-183388000D03*
X314198000Y-181207285D03*
D25*
X124587000Y-161290000D03*
X196775000Y-97424000D03*
D26*
X241681000Y-153797000D03*
D25*
X283083000Y-131572000D03*
D26*
X98794700Y-137567901D03*
X225298000Y-153670000D03*
D25*
X109297501Y-147210007D03*
X177725000Y-100472000D03*
X130759200Y-189890400D03*
X315214000Y-185064400D03*
X164211000Y-161417000D03*
D26*
X181102000Y-179578000D03*
D25*
X166295000Y-100472000D03*
X141986000Y-185064400D03*
X186944000Y-161417000D03*
X107442000Y-141241007D03*
X198045000Y-105552000D03*
X182805000Y-105552000D03*
D26*
X132588000Y-189865000D03*
D25*
X170105000Y-100472000D03*
D26*
X146050000Y-179451000D03*
D25*
X176455000Y-102504000D03*
D26*
X327787000Y-181610000D03*
D25*
X225247200Y-189890400D03*
X237565000Y-105552000D03*
X191695000Y-102504000D03*
X101677500Y-143781007D03*
D26*
X209042000Y-179451000D03*
X266954000Y-181207285D03*
D25*
X258572000Y-167259000D03*
X173915000Y-100472000D03*
D26*
X179527200Y-183388000D03*
X177546000Y-179451000D03*
X303530000Y-179451000D03*
D25*
X240105000Y-97424000D03*
X252222000Y-185064400D03*
X139573000Y-153035000D03*
X156135000Y-105552000D03*
X193421000Y-167259000D03*
X108966000Y-115953001D03*
X267970000Y-185064400D03*
D26*
X112383700Y-120676901D03*
X201803000Y-181610000D03*
D25*
X227203000Y-120269000D03*
X137922000Y-161544000D03*
X141732000Y-154559000D03*
X273431000Y-149098000D03*
D26*
X154838400Y-187085222D03*
X267335000Y-152654000D03*
D25*
X180265000Y-102504000D03*
X259155000Y-100472000D03*
D26*
X112383700Y-121438901D03*
D25*
X291719000Y-122936000D03*
D26*
X305816000Y-189865000D03*
X163779200Y-183388000D03*
D25*
X266775000Y-97424000D03*
X222857600Y-115618800D03*
X195961000Y-140208000D03*
X222504000Y-216916000D03*
X236295000Y-100472000D03*
X256743200Y-189890400D03*
X211709000Y-148844000D03*
D26*
X243967000Y-144145000D03*
D25*
X272033999Y-187096400D03*
D26*
X197612000Y-186436000D03*
X232664000Y-185420000D03*
D25*
X236295000Y-97424000D03*
D26*
X281813000Y-155321000D03*
D25*
X157734000Y-185064400D03*
X242645000Y-102504000D03*
X165735000Y-167259000D03*
D26*
X278892000Y-141506000D03*
D25*
X280797000Y-168148000D03*
D26*
X279908000Y-185420000D03*
D25*
X181535000Y-100472000D03*
D26*
X148336000Y-189865000D03*
D25*
X156718000Y-140081000D03*
X196064500Y-215138000D03*
D26*
X264159999Y-185420000D03*
X180340000Y-147574000D03*
D25*
X288239200Y-189890400D03*
X192405000Y-154178000D03*
D26*
X268224000Y-147574000D03*
D25*
X177546000Y-187096400D03*
X184531000Y-149098000D03*
X270585000Y-102504000D03*
D26*
X262382000Y-143510000D03*
X319278000Y-179451000D03*
X196850000Y-179578000D03*
D25*
X254381000Y-145288000D03*
X255345000Y-97424000D03*
X188087000Y-147955000D03*
X287274000Y-117221000D03*
X185345000Y-97424000D03*
X191897000Y-149098000D03*
D26*
X287909000Y-152019000D03*
D25*
X229945000Y-97424000D03*
X148463000Y-154178000D03*
X125349000Y-167132000D03*
X271399000Y-153035000D03*
X170105000Y-97424000D03*
X236347000Y-153162000D03*
X299466000Y-185064400D03*
D26*
X280822400Y-187085222D03*
X287147000Y-144272000D03*
D25*
X299593000Y-148844000D03*
X211734500Y-110744000D03*
X286512000Y-126873000D03*
D26*
X193421000Y-140462000D03*
D25*
X280289000Y-153162000D03*
X156083000Y-149733000D03*
D26*
X296291000Y-181610000D03*
D25*
X264922000Y-115824000D03*
X155829000Y-143764000D03*
D26*
X274320000Y-189865000D03*
D25*
X222504000Y-124714000D03*
D26*
X200660000Y-141351000D03*
D25*
X321564000Y-117602000D03*
D26*
X249047000Y-181610000D03*
X111568800Y-139348806D03*
X267462000Y-143891000D03*
D25*
X325374000Y-117602000D03*
X245999000Y-148463000D03*
X336677000Y-183388000D03*
X100953700Y-148607007D03*
X109297501Y-144289007D03*
X146050000Y-187096400D03*
D26*
X244856000Y-186436000D03*
X290068000Y-189865000D03*
X233299000Y-181610000D03*
X322834000Y-179578000D03*
D25*
X240105000Y-100472000D03*
X260425000Y-105552000D03*
X168275000Y-168275000D03*
D26*
X148031200Y-183388000D03*
X263652000Y-152019000D03*
X307848000Y-186436000D03*
D25*
X224790000Y-187096400D03*
X264235000Y-100472000D03*
X127889000Y-168148000D03*
X298323000Y-145288000D03*
X278257000Y-167259000D03*
X175185000Y-105552000D03*
X130302000Y-187096400D03*
X289941000Y-148463000D03*
X229616000Y-154559000D03*
X159945000Y-97424000D03*
X158115000Y-148463000D03*
D26*
X179578000Y-143891000D03*
X154559000Y-181610000D03*
D25*
X335483200Y-189890400D03*
X185674000Y-154559000D03*
X332994000Y-117602000D03*
D26*
X132283200Y-183388000D03*
X282702000Y-152019000D03*
D25*
X140589000Y-149098000D03*
D26*
X98806000Y-179451000D03*
X217830400Y-187085222D03*
D25*
X238835000Y-102504000D03*
D26*
X229108000Y-186436000D03*
X166116000Y-186436000D03*
X108204000Y-189992000D03*
D25*
X260425000Y-97424000D03*
D26*
X106680000Y-185420000D03*
D25*
X218948000Y-114554000D03*
X126238000Y-185064400D03*
X317627000Y-168148000D03*
X148590000Y-116713000D03*
X233755000Y-105552000D03*
D26*
X321259200Y-183388000D03*
X107315000Y-181610000D03*
D25*
X330962000Y-185064400D03*
X252222000Y-161417000D03*
X270637000Y-111887000D03*
X131826000Y-142621000D03*
X268045000Y-105552000D03*
D26*
X133858000Y-179578000D03*
X139096500Y-125668000D03*
D25*
X137160000Y-148209000D03*
D26*
X169672000Y-185420000D03*
D25*
X245185000Y-105552000D03*
D26*
X258572000Y-189865000D03*
X193421000Y-155829000D03*
D25*
X183515000Y-153035000D03*
X228473000Y-149098000D03*
D26*
X85039200Y-183388000D03*
D25*
X255651000Y-148844000D03*
D26*
X223774000Y-148209000D03*
D25*
X176455000Y-97424000D03*
X204978000Y-185064400D03*
X317182500Y-132016000D03*
X282829000Y-118364000D03*
D26*
X201549000Y-145034000D03*
D25*
X241375000Y-97424000D03*
X189230000Y-185064400D03*
X202057000Y-148463000D03*
X139954000Y-152146000D03*
D26*
X312928000Y-189992000D03*
X224282000Y-147574000D03*
X265049000Y-146177000D03*
X123328000Y-118349999D03*
D25*
X226135000Y-105552000D03*
X324993000Y-135128000D03*
D26*
X172466000Y-181207285D03*
X258267200Y-183388000D03*
X259841999Y-179578000D03*
X181483000Y-153797000D03*
D25*
X148971000Y-149098000D03*
D26*
X137731000Y-121229499D03*
D25*
X108535501Y-142892007D03*
X284607000Y-148209000D03*
X240995200Y-189890400D03*
X157405000Y-102504000D03*
D26*
X134620000Y-186436000D03*
D25*
X133477000Y-146050000D03*
X303987200Y-189890400D03*
D26*
X272923000Y-156083000D03*
D25*
X187885000Y-102504000D03*
X330962000Y-136144000D03*
D26*
X298450000Y-181207285D03*
D25*
X284480000Y-123571000D03*
D26*
X291338000Y-179578000D03*
X260603999Y-186436000D03*
X186944000Y-189992000D03*
D25*
X185345000Y-100472000D03*
X146507200Y-189890400D03*
D26*
X289179000Y-141605000D03*
D25*
X144145000Y-148971000D03*
D26*
X92456000Y-189992000D03*
D25*
X147955000Y-149098000D03*
D26*
X181864000Y-186436000D03*
D25*
X107950001Y-115951001D03*
X167565000Y-105552000D03*
X155448000Y-148971000D03*
X144526000Y-167005000D03*
D26*
X174371000Y-146558000D03*
D25*
X152325000Y-100472000D03*
X195505000Y-102504000D03*
X266775000Y-102504000D03*
D26*
X104800400Y-135686801D03*
D25*
X152654000Y-153924000D03*
D26*
X240538000Y-179451000D03*
D25*
X162255200Y-189890400D03*
X186615000Y-105552000D03*
D26*
X239268000Y-152781000D03*
D25*
X243967000Y-149733000D03*
D26*
X234188000Y-189992000D03*
D25*
X226441000Y-121031000D03*
X243915000Y-100472000D03*
X130302000Y-167132000D03*
D26*
X280543000Y-181610000D03*
D25*
X233299000Y-148971000D03*
X210439000Y-145288000D03*
X257885000Y-102504000D03*
X157226000Y-152527000D03*
D26*
X292100000Y-186436000D03*
X179324000Y-152654000D03*
D25*
X235025000Y-102504000D03*
X99810699Y-147210007D03*
X115011200Y-189890400D03*
X317182500Y-125920000D03*
X229945000Y-105552000D03*
D26*
X248412000Y-185420000D03*
D25*
X94742000Y-185064400D03*
X180265000Y-97424000D03*
D26*
X264794999Y-181610000D03*
D25*
X262965000Y-100472000D03*
X240665000Y-148209000D03*
D26*
X161798000Y-179451000D03*
X195580000Y-189865000D03*
D25*
X229489000Y-149098000D03*
D26*
X100787200Y-183388000D03*
X179832000Y-189865000D03*
D25*
X152019000Y-140208000D03*
X301117000Y-117856000D03*
X233299000Y-147955000D03*
X159945000Y-105552000D03*
D26*
X150368000Y-186436000D03*
X91846400Y-187085222D03*
D25*
X309880000Y-215392000D03*
X317182500Y-128968000D03*
D26*
X211328000Y-189865000D03*
X295656000Y-185420000D03*
X275590000Y-179578000D03*
X242824000Y-189865000D03*
D25*
X194235000Y-105552000D03*
X199315000Y-100472000D03*
D26*
X212598000Y-179578000D03*
D25*
X166497000Y-145288000D03*
X139700000Y-167005000D03*
X326644000Y-117602000D03*
X200585000Y-102504000D03*
X193294000Y-187096400D03*
D26*
X195275200Y-183388000D03*
D25*
X270585000Y-97424000D03*
X229997000Y-168148000D03*
X235839000Y-149098000D03*
X144145000Y-147955000D03*
D26*
X237236000Y-156083000D03*
D25*
X153924000Y-154686000D03*
D26*
X201168000Y-185420000D03*
X282702000Y-181207285D03*
D25*
X141605000Y-149098000D03*
X331724000Y-117602000D03*
D26*
X175641000Y-152019000D03*
D25*
X231215000Y-102504000D03*
X326009000Y-133223000D03*
D26*
X139090400Y-187085222D03*
X85344000Y-189865000D03*
D25*
X335026000Y-187096400D03*
X251535000Y-100472000D03*
D26*
X191135000Y-141506000D03*
D25*
X156135000Y-97424000D03*
X261695000Y-102504000D03*
X178308000Y-121158000D03*
X280289000Y-154178000D03*
X291719000Y-122174000D03*
D26*
X244094000Y-179578000D03*
D25*
X268045000Y-100472000D03*
X139827000Y-118237000D03*
X241375000Y-105552000D03*
X256615000Y-105552000D03*
D26*
X138811000Y-181610000D03*
X177038000Y-146177000D03*
D25*
X195505000Y-97424000D03*
D26*
X164084000Y-189865000D03*
D25*
X221055000Y-102504000D03*
X168835000Y-102504000D03*
D26*
X297180000Y-189992000D03*
X153543000Y-138557000D03*
D25*
X317182500Y-138112000D03*
X252805000Y-105552000D03*
X329184000Y-117602000D03*
X140589000Y-119126000D03*
D26*
X102362000Y-179578000D03*
D25*
X282575000Y-119253000D03*
D26*
X329946000Y-181207285D03*
D25*
X285750000Y-120142000D03*
X99263200Y-189890400D03*
D26*
X219710000Y-181207285D03*
D25*
X321818000Y-129032000D03*
D26*
X323596000Y-186436000D03*
D25*
X189155000Y-100472000D03*
D26*
X101092000Y-189865000D03*
D25*
X327914000Y-117602000D03*
D26*
X195961000Y-139446000D03*
X171196000Y-189992000D03*
X132778000Y-119572000D03*
X249936000Y-189992000D03*
D25*
X172645000Y-102504000D03*
D26*
X130302000Y-179451000D03*
D25*
X161215000Y-102504000D03*
D26*
X118872000Y-186436000D03*
X226771200Y-183388000D03*
X235458000Y-181207285D03*
X227076000Y-189865000D03*
D25*
X196775000Y-102504000D03*
X227838000Y-152146000D03*
X140462000Y-123952000D03*
X147193000Y-141605000D03*
X236347000Y-154178000D03*
D26*
X114554000Y-179451000D03*
X312039000Y-181610000D03*
D25*
X235025000Y-97424000D03*
D26*
X218440000Y-189992000D03*
D25*
X256286000Y-187096400D03*
D26*
X153924000Y-185420000D03*
D25*
X131826000Y-147066000D03*
X110490000Y-185064400D03*
X217932000Y-215138000D03*
X317182500Y-135064000D03*
D26*
X86233000Y-179578000D03*
D25*
X200585000Y-97424000D03*
D26*
X223139000Y-149733000D03*
D25*
X287782000Y-187096400D03*
X193751200Y-189890400D03*
X139573000Y-157861000D03*
D26*
X90932000Y-185420000D03*
X223520000Y-143891000D03*
D25*
X145415000Y-148971000D03*
D26*
X165354000Y-179578000D03*
D25*
X236855000Y-149098000D03*
D26*
X307086000Y-179578000D03*
D25*
X251535000Y-97424000D03*
X135636000Y-148209000D03*
X227405000Y-102504000D03*
X315087000Y-167259000D03*
D26*
X113956400Y-133862406D03*
X270764000Y-154051000D03*
X274015200Y-183388000D03*
D25*
X265505000Y-97424000D03*
X276733000Y-161417000D03*
D26*
X251206000Y-181207285D03*
X140970000Y-181207285D03*
X239903000Y-139446000D03*
D25*
X132842000Y-118491000D03*
D26*
X244475000Y-152019000D03*
D25*
X231215000Y-97424000D03*
D26*
X213360000Y-186436000D03*
X267208000Y-148082000D03*
X217551000Y-181610000D03*
X328066400Y-187085222D03*
D25*
X189357000Y-148971000D03*
X165025000Y-97424000D03*
D26*
X256286000Y-179451000D03*
X203962000Y-181207285D03*
X228346000Y-179578000D03*
X287782000Y-179451000D03*
D25*
X103262999Y-126878001D03*
D26*
X224790000Y-179451000D03*
D25*
X219964000Y-121158000D03*
X106934000Y-115951002D03*
X105168000Y-127259002D03*
D26*
X243713000Y-141478000D03*
D25*
X209499200Y-189890400D03*
D26*
X123952000Y-189992000D03*
D25*
X256615000Y-97424000D03*
X188468000Y-167259000D03*
X330454000Y-117602000D03*
D26*
X170586400Y-187085222D03*
X149606000Y-179578000D03*
D25*
X139065000Y-118237000D03*
X239903000Y-140208000D03*
X190425000Y-105552000D03*
X276181000Y-112078000D03*
D26*
X228473000Y-156845000D03*
D25*
X149860000Y-115443000D03*
D26*
X249326400Y-187085222D03*
D25*
X209042000Y-187096400D03*
D26*
X179197000Y-148209000D03*
D25*
X152781000Y-148209000D03*
X279781000Y-149098000D03*
X171375000Y-97424000D03*
X189357000Y-147955000D03*
X175185000Y-97424000D03*
X227457000Y-153035000D03*
X313436000Y-161417000D03*
X145415000Y-147955000D03*
X280797000Y-149098000D03*
X147701000Y-154940000D03*
D26*
X132778000Y-120715000D03*
D25*
X287909000Y-149733000D03*
D26*
X265074400Y-187085222D03*
D25*
X140589000Y-120015000D03*
X303530000Y-187096400D03*
X142113000Y-168148000D03*
X246455000Y-102504000D03*
X277241000Y-147955000D03*
X223595000Y-102504000D03*
X153595000Y-97424000D03*
D26*
X234970585Y-141532954D03*
D25*
X183007000Y-126873000D03*
D26*
X112584800Y-132541606D03*
D25*
X276943000Y-112078000D03*
X223595000Y-97424000D03*
X157480000Y-144018000D03*
X114045000Y-127018001D03*
D26*
X103124000Y-186436000D03*
X174498000Y-143637000D03*
D25*
X171375000Y-105552000D03*
X135636000Y-143891000D03*
D26*
X221615000Y-146177000D03*
D25*
X173482000Y-185064400D03*
X324739000Y-132842000D03*
X286004000Y-128270000D03*
X248995000Y-105552000D03*
X97905700Y-139091901D03*
X232410000Y-167259000D03*
X107797600Y-140614400D03*
X288671000Y-119126000D03*
D26*
X328676000Y-189992000D03*
D25*
X133731000Y-150622000D03*
D26*
X242519200Y-183388000D03*
D25*
X285877000Y-132207000D03*
X185547000Y-149098000D03*
X109982001Y-115953001D03*
X272491199Y-189890400D03*
D26*
X312318400Y-187085222D03*
D25*
X113641500Y-217043000D03*
D26*
X100177600Y-137464801D03*
D25*
X151055000Y-97424000D03*
X283718000Y-185064400D03*
D26*
X93726000Y-181207285D03*
D25*
X269315000Y-100472000D03*
D26*
X170307000Y-181610000D03*
X99175700Y-139218901D03*
X107594400Y-187085222D03*
D25*
X246455000Y-97424000D03*
X114554000Y-187096400D03*
D26*
X197739000Y-154305000D03*
X86727600Y-125430201D03*
X200025000Y-152146000D03*
D25*
X221055000Y-97424000D03*
D26*
X327152000Y-185420000D03*
X335026000Y-179451000D03*
D25*
X292989000Y-125222000D03*
D26*
X285369000Y-138557000D03*
D25*
X191008000Y-168148000D03*
X254075000Y-102504000D03*
X178995000Y-105552000D03*
D26*
X265683999Y-189992000D03*
D25*
X190425000Y-97424000D03*
X184075000Y-102504000D03*
X104725500Y-147972007D03*
X245185000Y-97424000D03*
D26*
X116840000Y-189865000D03*
D25*
X265505000Y-102504000D03*
D26*
X296570400Y-187085222D03*
D25*
X161798000Y-187096400D03*
X240538000Y-187096400D03*
D26*
X88150000Y-126700201D03*
D25*
X153595000Y-102504000D03*
X288671000Y-132207000D03*
%TO.N,Net-(U1-REF1+)*%
X152019000Y-146685000D03*
%TO.N,Net-(U4-REF1+)*%
X196088000Y-146685000D03*
%TO.N,Net-(U7-REF1+)*%
X240030000Y-146685000D03*
%TO.N,Net-(U10-REF1+)*%
X283972000Y-146685000D03*
%TO.N,VDD3P3V*%
X282448000Y-113665000D03*
D26*
X275590000Y-163957000D03*
X163068000Y-163957000D03*
X312293000Y-163957000D03*
D25*
X336423000Y-134620000D03*
D26*
X251079000Y-163957000D03*
D25*
X289052000Y-118237000D03*
D26*
X122682000Y-163843000D03*
D25*
X336423000Y-137287000D03*
D26*
X185801000Y-163957000D03*
D25*
X336423000Y-120269000D03*
X281686000Y-113665000D03*
X336423000Y-123444000D03*
X289052000Y-125095000D03*
X324231000Y-129032000D03*
X313499500Y-128715000D03*
D26*
X136779000Y-163957000D03*
X224790000Y-163957000D03*
D25*
X336423000Y-132969000D03*
X280924000Y-113665000D03*
%TO.N,/Housekeeping/AD3*%
X317182500Y-133414000D03*
%TO.N,/Housekeeping/AD2*%
X317182500Y-136462000D03*
%TO.N,/Housekeeping/AD1*%
X321945000Y-131699000D03*
%TO.N,P2_VADJ*%
X264033000Y-114300000D03*
X222325000Y-102504000D03*
%TO.N,P1_3P3VAUX*%
X172339000Y-121539000D03*
X161215000Y-100472000D03*
X184150000Y-124206000D03*
D27*
%TO.N,+12V*%
X260095999Y-205232000D03*
X149860000Y-192532000D03*
X134112000Y-205232000D03*
X192405000Y-205232000D03*
X307340000Y-192532000D03*
X149860000Y-205232000D03*
X97917000Y-205232000D03*
X176276000Y-192659000D03*
X138811000Y-113792000D03*
X134112000Y-192532000D03*
X286512000Y-192659000D03*
X192024000Y-192659000D03*
X176657000Y-205232000D03*
X260095999Y-192532000D03*
X286893000Y-205232000D03*
X302641000Y-205232000D03*
X197104000Y-205232000D03*
X102616000Y-205232000D03*
X212852000Y-192532000D03*
X307340000Y-205232000D03*
X212852000Y-205232000D03*
X140843000Y-113792000D03*
X244348000Y-205232000D03*
X137668000Y-113792000D03*
X118364000Y-205232000D03*
X181356000Y-205232000D03*
X160528000Y-192659000D03*
X223520000Y-192659000D03*
X302260000Y-192659000D03*
X208153000Y-205232000D03*
X145161000Y-205232000D03*
X318008000Y-192659000D03*
X270763999Y-192659000D03*
X255016000Y-192659000D03*
X86868000Y-205232000D03*
X197104000Y-192532000D03*
X239649000Y-205232000D03*
X181356000Y-192532000D03*
X323088000Y-192532000D03*
X271144999Y-205232000D03*
X318389000Y-205232000D03*
X165608000Y-192532000D03*
X97536000Y-192659000D03*
X113665000Y-205232000D03*
X102616000Y-192532000D03*
X291592000Y-192532000D03*
X255397000Y-205232000D03*
X334137000Y-205232000D03*
X165608000Y-205232000D03*
X291592000Y-205232000D03*
X86868000Y-192532000D03*
X160909000Y-205232000D03*
X239268000Y-192659000D03*
X129032000Y-192659000D03*
X244348000Y-192532000D03*
X228600000Y-205232000D03*
X323088000Y-205232000D03*
X207772000Y-192659000D03*
X223901000Y-205232000D03*
X113284000Y-192659000D03*
X144780000Y-192659000D03*
X228600000Y-192532000D03*
X275844000Y-192532000D03*
X129413000Y-205232000D03*
X139827000Y-113792000D03*
X118364000Y-192532000D03*
X333756000Y-192659000D03*
X275844000Y-205232000D03*
%TO.N,/Relay_ResetCoil1*%
X95758000Y-202565000D03*
D25*
X126365000Y-168148000D03*
D27*
%TO.N,/Relay_SetCoil1*%
X94107000Y-192786000D03*
D25*
X127127000Y-168656000D03*
%TO.N,/Relay_ResetCoil2*%
X131318000Y-165481000D03*
D27*
X111506000Y-202565000D03*
%TO.N,/Relay_SetCoil2*%
X109855000Y-192786000D03*
D25*
X131318000Y-164592000D03*
%TO.N,/Relay_ResetCoil3*%
X140589000Y-168275000D03*
D27*
X127254000Y-202565000D03*
D25*
%TO.N,/Relay_SetCoil3*%
X141351000Y-168656000D03*
D27*
X125603000Y-192786000D03*
%TO.N,/Relay_ResetCoil4*%
X143002000Y-202565000D03*
D25*
X145542000Y-165608000D03*
D27*
%TO.N,/Relay_SetCoil4*%
X141351000Y-192786000D03*
D25*
X145542000Y-164719000D03*
D27*
%TO.N,/Relay_ResetCoil5*%
X88900000Y-202565000D03*
D25*
X123952000Y-164846000D03*
%TO.N,/Relay_SetCoil5*%
X124333000Y-165735000D03*
D27*
X91313000Y-192659000D03*
%TO.N,/Relay_ResetCoil6*%
X104648000Y-202565000D03*
D25*
X128524000Y-168656000D03*
D27*
%TO.N,/Relay_SetCoil6*%
X107061000Y-192659000D03*
D25*
X129413000Y-168148000D03*
%TO.N,/Relay_ResetCoil7*%
X137922000Y-164973000D03*
D27*
X120396000Y-202565000D03*
%TO.N,/Relay_SetCoil7*%
X122809000Y-192659000D03*
D25*
X138557000Y-165989000D03*
D27*
%TO.N,/Relay_ResetCoil8*%
X136144000Y-202565000D03*
D25*
X142748000Y-168656000D03*
D27*
%TO.N,/Relay_SetCoil8*%
X138557000Y-192659000D03*
D25*
X143637000Y-168275000D03*
%TO.N,/Relay_ResetCoil9*%
X166751000Y-168275000D03*
D27*
X158750000Y-202565000D03*
D25*
%TO.N,/Relay_SetCoil9*%
X167767000Y-168910000D03*
D27*
X157099000Y-192786000D03*
%TO.N,/Relay_ResetCoil10*%
X174498000Y-202565000D03*
D25*
X171704000Y-165608000D03*
D27*
%TO.N,/Relay_SetCoil10*%
X172847000Y-192786000D03*
D25*
X171704000Y-164719000D03*
D27*
%TO.N,/Relay_ResetCoil11*%
X190246000Y-202565000D03*
D25*
X189484000Y-168275000D03*
%TO.N,/Relay_SetCoil11*%
X190500000Y-168910000D03*
D27*
X188595000Y-192786000D03*
D25*
%TO.N,/Relay_ResetCoil12*%
X194437000Y-165608000D03*
D27*
X205994000Y-202565000D03*
D25*
%TO.N,/Relay_SetCoil12*%
X194437000Y-164719000D03*
D27*
X204343000Y-192786000D03*
D25*
%TO.N,/Relay_ResetCoil13*%
X164211000Y-164973000D03*
D27*
X151892000Y-202565000D03*
D25*
%TO.N,/Relay_SetCoil13*%
X164846000Y-165862000D03*
D27*
X154305000Y-192659000D03*
%TO.N,/Relay_ResetCoil14*%
X167640000Y-202565000D03*
D25*
X168910000Y-168910000D03*
D27*
%TO.N,/Relay_SetCoil14*%
X170053000Y-192659000D03*
D25*
X169799000Y-168275000D03*
%TO.N,/Relay_ResetCoil15*%
X186563000Y-165100000D03*
D27*
X183388000Y-202565000D03*
D25*
%TO.N,/Relay_SetCoil15*%
X187579000Y-165862000D03*
D27*
X185801000Y-192659000D03*
D25*
%TO.N,/Relay_ResetCoil16*%
X191643000Y-168910000D03*
D27*
X199136000Y-202565000D03*
D25*
%TO.N,/Relay_SetCoil16*%
X192532000Y-168275000D03*
D27*
X201549000Y-192659000D03*
D25*
%TO.N,/Relay_SetCoil17*%
X229489000Y-168910000D03*
D27*
X220091000Y-192786000D03*
D26*
%TO.N,/ADC2/ADC_~{Start}*%
X192913000Y-143637000D03*
%TO.N,/ADC3/ADC_~{Start}*%
X236982000Y-143383000D03*
%TO.N,/ADC4/ADC_~{Start}*%
X280924000Y-143510000D03*
D25*
%TO.N,ADC1_MCLK-*%
X149373789Y-133371789D03*
X217656876Y-118075637D03*
%TO.N,ADC1_MCLK+*%
X217656876Y-119091637D03*
X150092211Y-134090211D03*
%TO.N,ADC2_MCLK-*%
X191770000Y-134112000D03*
X220747789Y-122449789D03*
%TO.N,ADC2_MCLK+*%
X192786000Y-134112000D03*
X221466211Y-123168211D03*
%TO.N,ADC3_MCLK-*%
X224687386Y-122586608D03*
X235712000Y-134112000D03*
%TO.N,ADC3_MCLK+*%
X225405808Y-121868186D03*
X236728000Y-134112000D03*
%TO.N,ADC4_MCLK-*%
X279654000Y-133774758D03*
X228014739Y-119047800D03*
%TO.N,ADC4_MCLK+*%
X280670000Y-133774758D03*
X228014739Y-118031800D03*
%TO.N,/Housekeeping/AD5*%
X317182500Y-127318000D03*
%TO.N,/Housekeeping/GPIO3*%
X331216000Y-118237000D03*
%TO.N,/Housekeeping/GPIO2*%
X329946000Y-118237000D03*
%TO.N,/Housekeeping/GPIO1*%
X328549000Y-118237000D03*
%TO.N,/Housekeeping/GPIO0*%
X327406000Y-118237000D03*
%TO.N,P1_TDO*%
X162485000Y-100472000D03*
%TO.N,P1_TDI*%
X163755000Y-100472000D03*
%TO.N,P2_TDO*%
X232485000Y-100472000D03*
%TO.N,P2_TDI*%
X233755000Y-100472000D03*
%TO.N,P2_3P3V*%
X224028000Y-101346000D03*
X274320000Y-111887000D03*
X224917000Y-101346000D03*
X274320000Y-110363000D03*
X274320000Y-111125000D03*
X225806000Y-101346000D03*
%TO.N,/Channel01/Channel01_INA_Out+*%
X128643997Y-144335500D03*
D26*
%TO.N,/Channel01/Channel01_INA_Out-*%
X91948000Y-186182000D03*
D25*
X128643997Y-145351500D03*
D26*
X90932000Y-180086000D03*
D25*
%TO.N,/Channel02/Channel02_INA_Out+*%
X131296209Y-149711210D03*
D26*
%TO.N,/Channel02/Channel02_INA_Out-*%
X107696000Y-186182000D03*
D25*
X132014631Y-150429632D03*
D26*
X106680000Y-180136800D03*
D25*
%TO.N,ADC1_~{CS}*%
X153595000Y-109743000D03*
%TO.N,AD7768_SCLK*%
X154865000Y-109743000D03*
X228092000Y-137541000D03*
X140208000Y-137541000D03*
X272034000Y-137541000D03*
X184150000Y-137541000D03*
%TO.N,AD7768_SDI*%
X157405000Y-109743000D03*
X228854000Y-137287000D03*
X140970000Y-137287000D03*
X184912000Y-137287000D03*
X272796000Y-137287000D03*
%TO.N,ADC1_SDO*%
X158675000Y-109743000D03*
%TO.N,ADC1_DCLK*%
X155702000Y-110617000D03*
X154865000Y-102504000D03*
X147383500Y-132778500D03*
%TO.N,ADC1_~{DRDY}*%
X156591000Y-110617000D03*
X147447000Y-133985000D03*
X156135000Y-102504000D03*
%TO.N,AD7768_~{RESET}*%
X158675000Y-102504000D03*
D26*
X278638000Y-136906000D03*
D25*
X146812000Y-140948100D03*
X159512000Y-110617000D03*
D26*
X234696000Y-136906000D03*
X153726000Y-135001000D03*
X190754000Y-136906000D03*
D25*
%TO.N,ADC2_~{CS}*%
X176455000Y-109743000D03*
%TO.N,ADC2_SDO*%
X177725000Y-109743000D03*
%TO.N,ADC2_DCLK*%
X189992000Y-110617000D03*
X189357000Y-141224000D03*
X192965000Y-102504000D03*
%TO.N,ADC2_~{DRDY}*%
X190881000Y-110617000D03*
X189992000Y-141732000D03*
X194235000Y-102504000D03*
%TO.N,ADC3_~{CS}*%
X227405000Y-109743000D03*
%TO.N,ADC3_SDO*%
X228675000Y-109743000D03*
%TO.N,ADC3_DCLK*%
X233299000Y-110871000D03*
X233299000Y-141097000D03*
X232485000Y-102504000D03*
%TO.N,ADC3_~{DRDY}*%
X234315000Y-110871000D03*
X233755000Y-102504000D03*
X233934000Y-141732000D03*
%TO.N,ADC4_~{CS}*%
X246455000Y-109743000D03*
%TO.N,ADC4_SDO*%
X247725000Y-109743000D03*
%TO.N,ADC4_DCLK*%
X240919000Y-110871000D03*
X240105000Y-102504000D03*
X277241000Y-141097000D03*
%TO.N,ADC4_~{DRDY}*%
X277876000Y-141732000D03*
X241375000Y-102504000D03*
X241935000Y-110871000D03*
%TO.N,P2_Timing_Input*%
X302006000Y-123444000D03*
%TO.N,P1_SDA*%
X182499000Y-120269000D03*
X162485000Y-97424000D03*
%TO.N,P1_SCL*%
X163755000Y-97424000D03*
X182499000Y-121539000D03*
%TO.N,P2_AMC7823_SPI_SS*%
X251535000Y-102504000D03*
X252349000Y-110871000D03*
%TO.N,P2_AMC7823_SPI_SCLK*%
X255345000Y-102504000D03*
X256159000Y-110871000D03*
%TO.N,P2_AMC7823_SPI_MOSI*%
X252805000Y-102504000D03*
X253365000Y-110871000D03*
%TO.N,P2_MAX4896_~{Reset}*%
X245745000Y-110871000D03*
X245185000Y-102504000D03*
%TO.N,P2_MAX4896_SCLK*%
X248995000Y-102504000D03*
X249555000Y-110871000D03*
%TO.N,P2_MAX4896_~{CS}*%
X248539000Y-110871000D03*
X247725000Y-102504000D03*
%TO.N,P2_Relay_ShiftData*%
X244729000Y-110871000D03*
X243915000Y-102504000D03*
%TO.N,/Channel03/Channel03_INA_Out+*%
X132004784Y-153035000D03*
D26*
%TO.N,/Channel03/Channel03_INA_Out-*%
X122428000Y-180086000D03*
X123444000Y-186182000D03*
D25*
X132004784Y-154051000D03*
%TO.N,/Channel04/Channel04_INA_Out+*%
X135395471Y-158145107D03*
D26*
%TO.N,/Channel04/Channel04_INA_Out-*%
X138176000Y-180035200D03*
D25*
X136113893Y-158863529D03*
D26*
X139192000Y-186182000D03*
%TO.N,/Channel05/Channel05_INA_Out-*%
X93726000Y-186182000D03*
X95250000Y-180086000D03*
D25*
%TO.N,ADC1_DO1*%
X173915000Y-109743000D03*
%TO.N,ADC1_DO2*%
X172645000Y-109743000D03*
%TO.N,ADC1_DO3*%
X170105000Y-109743000D03*
%TO.N,ADC1_DO4*%
X168835000Y-109743000D03*
%TO.N,ADC1_DO5*%
X166295000Y-109743000D03*
%TO.N,ADC1_DO6*%
X165025000Y-109743000D03*
%TO.N,ADC1_DO7*%
X162485000Y-109743000D03*
%TO.N,ADC1_DO8*%
X161215000Y-109743000D03*
%TO.N,P1_GA0*%
X158675000Y-97424000D03*
X172339000Y-122809000D03*
%TO.N,P1_12P0V*%
X155194000Y-96520000D03*
X156083000Y-96520000D03*
X156972000Y-96520000D03*
%TO.N,ADC2_DO1*%
X192965000Y-109743000D03*
%TO.N,ADC2_DO2*%
X191695000Y-109743000D03*
%TO.N,ADC2_DO3*%
X189155000Y-109743000D03*
%TO.N,ADC2_DO4*%
X187885000Y-109743000D03*
%TO.N,ADC2_DO5*%
X185345000Y-109743000D03*
%TO.N,ADC2_DO6*%
X184075000Y-109743000D03*
%TO.N,ADC2_DO7*%
X181535000Y-109743000D03*
%TO.N,ADC2_DO8*%
X180265000Y-109743000D03*
%TO.N,P1_GA1*%
X157405000Y-100472000D03*
X172339000Y-124079000D03*
%TO.N,ADC3_DO1*%
X243915000Y-109743000D03*
%TO.N,ADC3_DO2*%
X242645000Y-109743000D03*
%TO.N,ADC3_DO3*%
X240105000Y-109743000D03*
%TO.N,ADC3_DO4*%
X238835000Y-109743000D03*
%TO.N,ADC3_DO5*%
X236295000Y-109743000D03*
%TO.N,ADC3_DO6*%
X235025000Y-109743000D03*
%TO.N,ADC3_DO7*%
X232485000Y-109743000D03*
%TO.N,ADC3_DO8*%
X231215000Y-109743000D03*
%TO.N,P2_12P0V*%
X226949000Y-96520000D03*
X225171000Y-96520000D03*
X226060000Y-96520000D03*
%TO.N,P2_PG_C2M*%
X266700000Y-111633000D03*
X270585000Y-100472000D03*
%TO.N,ADC4_DO1*%
X262965000Y-109743000D03*
%TO.N,ADC4_DO2*%
X261695000Y-109743000D03*
%TO.N,ADC4_DO3*%
X259155000Y-109743000D03*
%TO.N,ADC4_DO4*%
X257885000Y-109743000D03*
%TO.N,ADC4_DO5*%
X255345000Y-109743000D03*
%TO.N,ADC4_DO6*%
X254075000Y-109743000D03*
%TO.N,ADC4_DO7*%
X251535000Y-109743000D03*
%TO.N,ADC4_DO8*%
X250265000Y-109743000D03*
%TO.N,P2_Relay_ShiftData_DOUT*%
X256615000Y-102504000D03*
X257175000Y-110871000D03*
%TO.N,P2_AMC7823_SPI_MISO*%
X260425000Y-102504000D03*
X260985000Y-110871000D03*
%TO.N,P2_ValidCLK*%
X220091000Y-117348000D03*
X260425000Y-100472000D03*
D26*
%TO.N,15V+*%
X305511200Y-182372000D03*
X163779200Y-182372000D03*
X211023200Y-182372000D03*
D25*
X321469999Y-137955000D03*
D26*
X258267200Y-182372000D03*
X85471000Y-181229000D03*
X148031200Y-182372000D03*
X100787200Y-182372000D03*
X116535200Y-182372000D03*
X132283200Y-182372000D03*
D25*
X336550000Y-181737000D03*
D26*
X242519200Y-182372000D03*
X289763200Y-182372000D03*
X179527200Y-182372000D03*
X321259200Y-182372000D03*
X226771200Y-182372000D03*
X274015200Y-182372000D03*
D25*
X101600000Y-163703000D03*
D26*
X195275200Y-182372000D03*
%TO.N,15V-*%
X233680000Y-180340000D03*
X170688000Y-180340000D03*
X139192000Y-180340000D03*
X202184000Y-180340000D03*
X107696000Y-180340000D03*
X312420000Y-180340000D03*
X186436000Y-180340000D03*
X280924000Y-180340000D03*
X296672000Y-180340000D03*
X217932000Y-180340000D03*
D25*
X327406000Y-150876000D03*
D26*
X265175999Y-180340000D03*
X328168000Y-180340000D03*
X154940000Y-180340000D03*
X123444000Y-180340000D03*
X249428000Y-180340000D03*
D25*
X102997000Y-157861000D03*
D26*
X91948000Y-180340000D03*
D25*
%TO.N,AMC7823_SPI_SCLK*%
X332994000Y-126873000D03*
X291592000Y-127000000D03*
%TO.N,AMC7823_SPI_MOSI*%
X333375000Y-127635000D03*
X292354000Y-127762000D03*
%TO.N,AMC7823_SPI_MISO*%
X291592000Y-120242100D03*
X333375000Y-128524000D03*
%TO.N,AMC7823_SPI_SS*%
X291592000Y-128397000D03*
X332613000Y-129032000D03*
%TO.N,Net-(D4-K)*%
X152400000Y-95123000D03*
X151511000Y-95123000D03*
X223139000Y-95123000D03*
X222250000Y-95123000D03*
X146177000Y-108839000D03*
X153289000Y-95123000D03*
X144653000Y-108839000D03*
X145415000Y-108839000D03*
X221361000Y-95123000D03*
%TO.N,Net-(D2-K)*%
X268605000Y-111760000D03*
%TO.N,Net-(D3-K)*%
X268097000Y-107188000D03*
%TO.N,MAX4896_~{Reset}*%
X316405500Y-159814500D03*
X279575500Y-159814500D03*
X140843000Y-159766000D03*
X189786500Y-159814500D03*
X167053500Y-159814500D03*
X228775500Y-159814500D03*
X254937500Y-159814500D03*
%TO.N,MAX4896_~{CS}*%
X280289000Y-160401000D03*
X190500000Y-160401000D03*
X127381000Y-160274000D03*
X317119000Y-160401000D03*
X167767000Y-160401000D03*
X255651000Y-160401000D03*
X141605000Y-160401000D03*
X229489000Y-160401000D03*
%TO.N,Relay_ShiftData*%
X292227000Y-131953000D03*
X128016000Y-160782000D03*
%TO.N,MAX4896_SCLK*%
X191706500Y-161480500D03*
X256857500Y-161480500D03*
X142811500Y-161480500D03*
X230695500Y-161480500D03*
X128587500Y-161353500D03*
X168973500Y-161480500D03*
X318325500Y-161480500D03*
X281495500Y-161480500D03*
%TO.N,Net-(U19-DOUT)*%
X191135000Y-160909000D03*
X171831000Y-162306000D03*
%TO.N,/Relay_SetCoil24*%
X257683000Y-168275000D03*
D27*
X264540999Y-192659000D03*
D25*
%TO.N,/Relay_SetCoil23*%
X252730000Y-165989000D03*
D27*
X248793000Y-192659000D03*
%TO.N,/Relay_SetCoil22*%
X233045000Y-192659000D03*
D25*
X231521000Y-168275000D03*
D27*
%TO.N,/Relay_SetCoil21*%
X217297000Y-192659000D03*
D25*
X226568000Y-165989000D03*
%TO.N,/Relay_SetCoil20*%
X259588000Y-164719000D03*
D27*
X267334999Y-192786000D03*
D25*
%TO.N,/Relay_SetCoil19*%
X255651000Y-168910000D03*
D27*
X251587000Y-192786000D03*
%TO.N,/Relay_SetCoil18*%
X235839000Y-192786000D03*
D25*
X233426000Y-164719000D03*
%TO.N,Net-(U20-DOUT)*%
X284353000Y-162306000D03*
X317754000Y-160909000D03*
%TO.N,/Relay_ResetCoil24*%
X256921000Y-168910000D03*
D27*
X262127999Y-202565000D03*
%TO.N,/Relay_ResetCoil23*%
X246380000Y-202565000D03*
D25*
X252222000Y-165100000D03*
D27*
%TO.N,/Relay_ResetCoil22*%
X230632000Y-202565000D03*
D25*
X230632000Y-168910000D03*
D27*
%TO.N,/Relay_ResetCoil21*%
X214884000Y-202565000D03*
D25*
X225933000Y-165100000D03*
%TO.N,/Relay_ResetCoil20*%
X259588000Y-165608000D03*
D27*
X268986000Y-202565000D03*
%TO.N,/Relay_ResetCoil19*%
X253238000Y-202565000D03*
D25*
X254635000Y-168275000D03*
%TO.N,/Relay_ResetCoil18*%
X233426000Y-165608000D03*
D27*
X237490000Y-202565000D03*
D25*
%TO.N,/Relay_ResetCoil17*%
X228473000Y-168275000D03*
D27*
X221742000Y-202565000D03*
D25*
%TO.N,/Relay_SetCoil32*%
X319151000Y-168275000D03*
D27*
X327533000Y-192659000D03*
D25*
%TO.N,/Relay_SetCoil31*%
X314198000Y-165862000D03*
D27*
X311785000Y-192659000D03*
%TO.N,/Relay_SetCoil30*%
X296037000Y-192659000D03*
D25*
X282321000Y-168275000D03*
D27*
%TO.N,/Relay_SetCoil29*%
X280289000Y-192659000D03*
D25*
X277368000Y-165862000D03*
%TO.N,/Relay_SetCoil28*%
X321056000Y-164719000D03*
D27*
X330327000Y-192786000D03*
D25*
%TO.N,/Relay_SetCoil27*%
X317119000Y-168910000D03*
D27*
X314579000Y-192786000D03*
%TO.N,/Relay_SetCoil26*%
X298831000Y-192786000D03*
D25*
X284353000Y-164719000D03*
D27*
%TO.N,/Relay_SetCoil25*%
X283083000Y-192786000D03*
D25*
X280289000Y-168910000D03*
%TO.N,Relay_ShiftData_DOUT*%
X319532000Y-161417000D03*
%TO.N,/Relay_ResetCoil32*%
X318262000Y-168910000D03*
D27*
X325120000Y-202565000D03*
D25*
%TO.N,/Relay_ResetCoil31*%
X313309000Y-165227000D03*
D27*
X309372000Y-202565000D03*
D25*
%TO.N,/Relay_ResetCoil30*%
X281432000Y-168910000D03*
D27*
X293624000Y-202565000D03*
D25*
%TO.N,/Relay_ResetCoil29*%
X276542500Y-165036500D03*
D27*
X277876000Y-202565000D03*
%TO.N,/Relay_ResetCoil28*%
X331978000Y-202565000D03*
D25*
X321056000Y-165608000D03*
%TO.N,/Relay_ResetCoil27*%
X316103000Y-168275000D03*
D27*
X316230000Y-202565000D03*
D25*
%TO.N,/Relay_ResetCoil26*%
X284099000Y-165481000D03*
D27*
X300482000Y-202565000D03*
%TO.N,/Relay_ResetCoil25*%
X284734000Y-202565000D03*
D25*
X279273000Y-168275000D03*
%TO.N,AD7768_~{Start}*%
X159945000Y-102504000D03*
X152146000Y-143538000D03*
X160528000Y-110617000D03*
%TO.N,Net-(Q3-G)*%
X111760000Y-131826000D03*
D26*
X112076800Y-127259001D03*
%TO.N,/Power/16V*%
X103747700Y-144679901D03*
X107848400Y-136956801D03*
%TO.N,/Power/-16V*%
X103225600Y-135788401D03*
D25*
%TO.N,P2_MAX4896_~{Flag}*%
X259155000Y-102504000D03*
X259969000Y-110871000D03*
%TO.N,MAX4896_~{Flag}*%
X278384000Y-162687000D03*
X292100000Y-120848000D03*
X227584000Y-162687000D03*
X139700000Y-162687000D03*
X125476000Y-162560000D03*
X188595000Y-162687000D03*
X253746000Y-162687000D03*
X165862000Y-162687000D03*
X315214000Y-162687000D03*
D26*
%TO.N,/Power/LT8582_VIN*%
X123709000Y-122921999D03*
X88646000Y-122301000D03*
X87630000Y-122301000D03*
X105017700Y-116739901D03*
X111748700Y-116739901D03*
X122947000Y-122921999D03*
X112129700Y-124486901D03*
X105144700Y-124486901D03*
D25*
%TO.N,/Housekeeping/AD4*%
X317182500Y-130366000D03*
%TO.N,/ADC_VCM1*%
X114300000Y-181483000D03*
X148463000Y-168402000D03*
D26*
X88392000Y-176784000D03*
D25*
X116713000Y-181356000D03*
D26*
X85471000Y-180340000D03*
D25*
X130048000Y-181483000D03*
X145796000Y-181483000D03*
X98552000Y-181483000D03*
X132461000Y-181356000D03*
D26*
X92456000Y-178562000D03*
D25*
X100965000Y-181356000D03*
%TO.N,/ADC_VCM2*%
X163957000Y-181356000D03*
X177292000Y-181483000D03*
X179705000Y-181356000D03*
X195453000Y-181356000D03*
X193040000Y-181483000D03*
X187452000Y-156464000D03*
X161544000Y-181483000D03*
X208788000Y-181483000D03*
X148209000Y-181356000D03*
%TO.N,/ADC_VCM4*%
X321437000Y-181356000D03*
X319024000Y-181483000D03*
X289941000Y-181356000D03*
X303276000Y-181483000D03*
X287528000Y-181483000D03*
X334772000Y-181483000D03*
X274193000Y-181356000D03*
X273685000Y-178435000D03*
X305689000Y-181356000D03*
%TO.N,/ADC_VCM3*%
X271780000Y-181483000D03*
X242697000Y-181356000D03*
X211201000Y-181356000D03*
X240284000Y-181483000D03*
X224536000Y-181483000D03*
X256032000Y-181483000D03*
X231394000Y-156591000D03*
X226949000Y-181356000D03*
X258445000Y-181356000D03*
%TO.N,Net-(U17-DOUT)*%
X145669000Y-162306000D03*
X168402000Y-160909000D03*
%TO.N,P1_2P5V*%
X189484000Y-154813000D03*
X147828000Y-112395000D03*
X194564000Y-140462000D03*
X222631000Y-122326400D03*
X205613000Y-134620000D03*
X144526000Y-154813000D03*
D26*
X146812000Y-142494000D03*
D25*
X188468000Y-154813000D03*
X313499500Y-125667000D03*
X149352000Y-112395000D03*
X148589999Y-112395000D03*
X145542000Y-154813000D03*
X218948000Y-119507000D03*
X191008000Y-142621000D03*
%TO.N,/ADC1/REGCAPA_CAP*%
X142494000Y-149606000D03*
%TO.N,/ADC1/REGCAPB_CAP*%
X146812000Y-149606000D03*
%TO.N,/ADC2/REGCAPA_CAP*%
X186436000Y-149606000D03*
%TO.N,/ADC2/REGCAPB_CAP*%
X190754000Y-149606000D03*
%TO.N,/ADC3/REGCAPA_CAP*%
X230378000Y-149606000D03*
%TO.N,/ADC3/REGCAPB_CAP*%
X234696000Y-149606000D03*
%TO.N,/ADC4/REGCAPA_CAP*%
X274320000Y-149606000D03*
%TO.N,/ADC4/REGCAPB_CAP*%
X278638000Y-149606000D03*
D26*
%TO.N,P2_2P5V*%
X276352000Y-154813000D03*
D25*
X215773000Y-115951000D03*
X285750000Y-125095000D03*
D26*
X278638000Y-142494000D03*
D25*
X233426000Y-154813000D03*
X232410000Y-154813000D03*
D26*
X234696000Y-142494000D03*
D25*
X223774000Y-122021600D03*
D26*
X277368000Y-154813000D03*
D25*
X298698500Y-121671500D03*
X215773000Y-117729000D03*
X313499500Y-122619000D03*
X220345000Y-115443000D03*
X227203000Y-119380000D03*
X227203000Y-116713000D03*
X215773000Y-116840000D03*
X286639000Y-118237000D03*
%TO.N,Net-(D9-A)*%
X149987000Y-114046000D03*
%TO.N,Net-(D10-A)*%
X215138000Y-110744000D03*
D26*
%TO.N,Net-(U35-Vc2)*%
X107606400Y-124211001D03*
D25*
%TO.N,Net-(U35-Vc1)*%
X109486000Y-124846001D03*
%TO.N,Net-(U35-CLKOUT1)*%
X108585000Y-118491002D03*
X111379000Y-118491000D03*
%TO.N,Net-(U34-SETP)*%
X104725500Y-144226007D03*
%TO.N,Net-(U18-DOUT)*%
X280924000Y-160909000D03*
X259715000Y-162306000D03*
%TO.N,Net-(U15-DOUT)*%
X233553000Y-162306000D03*
X256286000Y-160909000D03*
%TO.N,Net-(U15-DIN)*%
X194564000Y-162306000D03*
X230124000Y-160909000D03*
%TO.N,Net-(U14-DOUT)*%
X131445000Y-162179000D03*
X142240000Y-160909000D03*
%TO.N,Net-(U13-~{RESET})*%
X328650600Y-124434600D03*
D26*
%TO.N,AD7768_SYNC*%
X283718000Y-143383000D03*
X239903000Y-143383000D03*
X148717000Y-143510000D03*
X196215000Y-143383000D03*
D25*
%TO.N,/Housekeeping/AD6*%
X317182500Y-124270000D03*
%TO.N,Earth*%
X217424000Y-219456000D03*
X196572500Y-219456000D03*
X107799500Y-219456000D03*
X113514500Y-219456000D03*
X310388000Y-219456000D03*
X222631000Y-219456000D03*
D26*
%TO.N,/Channel06/Channel06_INA_Out-*%
X110998000Y-180086000D03*
X109474000Y-186182000D03*
%TO.N,/Channel07/Channel07_INA_Out-*%
X125222000Y-186182000D03*
X126746000Y-180086000D03*
%TO.N,/Channel08/Channel08_INA_Out-*%
X140970000Y-186182000D03*
X142494000Y-180086000D03*
D25*
%TO.N,/Channel09/Channel09_INA_Out+*%
X170963789Y-145182789D03*
D26*
%TO.N,/Channel09/Channel09_INA_Out-*%
X154940000Y-186182000D03*
X153924000Y-180136800D03*
D25*
X171682211Y-145901211D03*
%TO.N,/Channel10/Channel10_INA_Out+*%
X172339000Y-152781000D03*
D26*
%TO.N,/Channel10/Channel10_INA_Out-*%
X169672000Y-180086000D03*
X170688000Y-186182000D03*
D25*
X173355000Y-152781000D03*
%TO.N,/Channel11/Channel11_INA_Out+*%
X176149000Y-153924000D03*
%TO.N,/Channel11/Channel11_INA_Out-*%
X177165000Y-153924000D03*
D26*
X185420000Y-180086000D03*
X186436000Y-186182000D03*
D25*
%TO.N,/Channel12/Channel12_INA_Out+*%
X179705000Y-160528000D03*
D26*
%TO.N,/Channel12/Channel12_INA_Out-*%
X201168000Y-180086000D03*
X202184000Y-186182000D03*
D25*
X180721000Y-160528000D03*
D26*
%TO.N,/Channel13/Channel13_INA_Out-*%
X156718000Y-186182000D03*
X158242000Y-180086000D03*
%TO.N,/Channel14/Channel14_INA_Out-*%
X172466000Y-186182000D03*
X173990000Y-180086000D03*
%TO.N,/Channel15/Channel15_INA_Out-*%
X189738000Y-180086000D03*
X188214000Y-186182000D03*
%TO.N,/Channel16/Channel16_INA_Out-*%
X205486000Y-180086000D03*
X203962000Y-186182000D03*
D25*
%TO.N,/Channel17/Channel17_INA_Out+*%
X215413789Y-145817789D03*
%TO.N,/Channel17/Channel17_INA_Out-*%
X216132211Y-146536211D03*
D26*
X217932000Y-186182000D03*
X216916000Y-180136800D03*
D25*
%TO.N,/Channel18/Channel18_INA_Out+*%
X218059000Y-152527000D03*
%TO.N,/Channel18/Channel18_INA_Out-*%
X219075000Y-152527000D03*
D26*
X232664000Y-180086000D03*
X233680000Y-186182000D03*
D25*
%TO.N,/Channel19/Channel19_INA_Out+*%
X220599000Y-155194000D03*
D26*
%TO.N,/Channel19/Channel19_INA_Out-*%
X248412000Y-180086000D03*
X249428000Y-186182000D03*
D25*
X221615000Y-155194000D03*
D26*
%TO.N,/Channel20/Channel20_INA_Out+*%
X223113600Y-159370263D03*
%TO.N,/Channel20/Channel20_INA_Out-*%
X264160000Y-180136800D03*
X265175999Y-186182000D03*
X224180400Y-159370263D03*
%TO.N,/Channel21/Channel21_INA_Out-*%
X221234000Y-180086000D03*
X219710000Y-186182000D03*
%TO.N,/Channel22/Channel22_INA_Out-*%
X235458000Y-186182000D03*
X236982000Y-180086000D03*
%TO.N,/Channel23/Channel23_INA_Out-*%
X252730000Y-180086000D03*
X251206000Y-186182000D03*
%TO.N,/Channel24/Channel24_INA_Out-*%
X266953999Y-186182000D03*
X268477999Y-180086000D03*
D25*
%TO.N,/Channel25/Channel25_INA_Out+*%
X259101789Y-145944789D03*
D26*
%TO.N,/Channel25/Channel25_INA_Out-*%
X280924000Y-186182000D03*
X279908000Y-180136800D03*
D25*
X259820211Y-146663211D03*
%TO.N,/Channel26/Channel26_INA_Out+*%
X260858000Y-152654000D03*
D26*
%TO.N,/Channel26/Channel26_INA_Out-*%
X296672000Y-186182000D03*
D25*
X261874000Y-152654000D03*
D26*
X295656000Y-180136800D03*
D25*
%TO.N,/Channel27/Channel27_INA_Out+*%
X263906000Y-154305000D03*
%TO.N,/Channel27/Channel27_INA_Out-*%
X264922000Y-154305000D03*
D26*
X312420000Y-186182000D03*
X311404000Y-180136800D03*
D25*
%TO.N,/Channel28/Channel28_INA_Out+*%
X267716000Y-159258000D03*
D26*
%TO.N,/Channel28/Channel28_INA_Out-*%
X327152000Y-180136800D03*
X328168000Y-186182000D03*
D25*
X268732000Y-159258000D03*
D26*
%TO.N,/Channel29/Channel29_INA_Out-*%
X284226000Y-180086000D03*
X282702000Y-186182000D03*
%TO.N,/Channel30/Channel30_INA_Out-*%
X299974000Y-180086000D03*
X298450000Y-186182000D03*
%TO.N,/Channel31/Channel31_INA_Out-*%
X315722000Y-180086000D03*
X314198000Y-186182000D03*
%TO.N,/Channel32/Channel32_INA_Out-*%
X329946000Y-186182000D03*
X331470000Y-180086000D03*
D25*
%TO.N,/Housekeeping/AD7*%
X141986000Y-122682000D03*
X323596000Y-125857000D03*
X318389000Y-131191000D03*
%TD*%
D28*
%TO.N,P1_3P3VAUX*%
X167005000Y-117983000D02*
X170561000Y-121539000D01*
X166243000Y-101854000D02*
X166243000Y-107823000D01*
X166243000Y-107823000D02*
X167005000Y-108585000D01*
X184150000Y-124206000D02*
X179197000Y-124206000D01*
X170561000Y-121539000D02*
X172339000Y-121539000D01*
X161215000Y-100472000D02*
X161215000Y-99897000D01*
X164338000Y-99949000D02*
X164401500Y-100012500D01*
X179197000Y-124206000D02*
X176530000Y-121539000D01*
X164401500Y-100012500D02*
X166243000Y-101854000D01*
X163957000Y-99568000D02*
X164338000Y-99949000D01*
X161544000Y-99568000D02*
X163957000Y-99568000D01*
X161215000Y-99897000D02*
X161544000Y-99568000D01*
X167005000Y-108585000D02*
X167005000Y-117983000D01*
X176530000Y-121539000D02*
X172339000Y-121539000D01*
D29*
%TO.N,/Relay_ResetCoil1*%
X114427000Y-172466000D02*
X118745000Y-168148000D01*
X95758000Y-202565000D02*
X93091000Y-199898000D01*
X93091000Y-191262000D02*
X97790000Y-186563000D01*
X97790000Y-186563000D02*
X97790000Y-175641000D01*
X97790000Y-175641000D02*
X100965000Y-172466000D01*
X100965000Y-172466000D02*
X114427000Y-172466000D01*
X118745000Y-168148000D02*
X126365000Y-168148000D01*
X93091000Y-199898000D02*
X93091000Y-191262000D01*
%TO.N,/Relay_SetCoil1*%
X102870000Y-173736000D02*
X99695000Y-176911000D01*
X98298000Y-188595000D02*
X94107000Y-192786000D01*
X99695000Y-176911000D02*
X99695000Y-187960000D01*
X115443000Y-173736000D02*
X102870000Y-173736000D01*
X99695000Y-187960000D02*
X99060000Y-188595000D01*
X119888000Y-169291000D02*
X115443000Y-173736000D01*
X99060000Y-188595000D02*
X98298000Y-188595000D01*
X126492000Y-169291000D02*
X119888000Y-169291000D01*
X127127000Y-168656000D02*
X126492000Y-169291000D01*
%TO.N,/Relay_ResetCoil2*%
X114173000Y-177800000D02*
X117221000Y-177800000D01*
X108839000Y-191262000D02*
X113538000Y-186563000D01*
X113538000Y-186563000D02*
X113538000Y-178435000D01*
X127508000Y-173228000D02*
X131318000Y-169418000D01*
X117221000Y-177800000D02*
X121793000Y-173228000D01*
X111506000Y-202565000D02*
X108839000Y-199898000D01*
X113538000Y-178435000D02*
X114173000Y-177800000D01*
X121793000Y-173228000D02*
X127508000Y-173228000D01*
X108839000Y-199898000D02*
X108839000Y-191262000D01*
X131318000Y-169418000D02*
X131318000Y-165481000D01*
%TO.N,/Relay_SetCoil2*%
X114808000Y-188595000D02*
X115443000Y-187960000D01*
X122174000Y-174244000D02*
X128143000Y-174244000D01*
X132207000Y-164592000D02*
X131318000Y-164592000D01*
X115443000Y-180975000D02*
X122174000Y-174244000D01*
X128143000Y-174244000D02*
X132715000Y-169672000D01*
X115443000Y-187960000D02*
X115443000Y-180975000D01*
X114046000Y-188595000D02*
X114808000Y-188595000D01*
X109855000Y-192786000D02*
X114046000Y-188595000D01*
X132715000Y-169672000D02*
X132715000Y-165100000D01*
X132715000Y-165100000D02*
X132207000Y-164592000D01*
%TO.N,/Relay_ResetCoil3*%
X129286000Y-186563000D02*
X129286000Y-178689000D01*
X127254000Y-202565000D02*
X124587000Y-199898000D01*
X124587000Y-199898000D02*
X124587000Y-191262000D01*
X139700000Y-168275000D02*
X140589000Y-168275000D01*
X129286000Y-178689000D02*
X139700000Y-168275000D01*
X124587000Y-191262000D02*
X129286000Y-186563000D01*
%TO.N,/Relay_SetCoil3*%
X140208000Y-169291000D02*
X131191000Y-178308000D01*
X131191000Y-187960000D02*
X130556000Y-188595000D01*
X129794000Y-188595000D02*
X125603000Y-192786000D01*
X130556000Y-188595000D02*
X129794000Y-188595000D01*
X141351000Y-168656000D02*
X140716000Y-169291000D01*
X131191000Y-178308000D02*
X131191000Y-187960000D01*
X140716000Y-169291000D02*
X140208000Y-169291000D01*
%TO.N,/Relay_ResetCoil4*%
X145034000Y-186563000D02*
X145034000Y-168783000D01*
X145542000Y-168275000D02*
X145542000Y-165608000D01*
X140335000Y-199898000D02*
X140335000Y-191262000D01*
X140335000Y-191262000D02*
X145034000Y-186563000D01*
X145034000Y-168783000D02*
X145542000Y-168275000D01*
X143002000Y-202565000D02*
X140335000Y-199898000D01*
%TO.N,/Relay_SetCoil4*%
X145542000Y-188595000D02*
X146304000Y-188595000D01*
X146177000Y-164719000D02*
X145542000Y-164719000D01*
X146939000Y-187960000D02*
X146939000Y-165481000D01*
X146304000Y-188595000D02*
X146939000Y-187960000D01*
X146939000Y-165481000D02*
X146177000Y-164719000D01*
X141351000Y-192786000D02*
X145542000Y-188595000D01*
%TO.N,/Relay_ResetCoil5*%
X86233000Y-188087000D02*
X88900000Y-190754000D01*
X118618000Y-164846000D02*
X113182400Y-170281600D01*
X88900000Y-190754000D02*
X88900000Y-202565000D01*
X123952000Y-164846000D02*
X118618000Y-164846000D01*
X97815400Y-170281600D02*
X86233000Y-181864000D01*
X86233000Y-181864000D02*
X86233000Y-188087000D01*
X113182400Y-170281600D02*
X97815400Y-170281600D01*
%TO.N,/Relay_SetCoil5*%
X98450400Y-171297600D02*
X87376000Y-182372000D01*
X119126000Y-165735000D02*
X113563400Y-171297600D01*
X91313000Y-188722000D02*
X91313000Y-192659000D01*
X124333000Y-165735000D02*
X119126000Y-165735000D01*
X87376000Y-184785000D02*
X91313000Y-188722000D01*
X113563400Y-171297600D02*
X98450400Y-171297600D01*
X87376000Y-182372000D02*
X87376000Y-184785000D01*
%TO.N,/Relay_ResetCoil6*%
X128524000Y-168656000D02*
X128524000Y-169291000D01*
X108585000Y-175260000D02*
X101981000Y-181864000D01*
X101981000Y-188087000D02*
X104648000Y-190754000D01*
X101981000Y-181864000D02*
X101981000Y-188087000D01*
X104648000Y-190754000D02*
X104648000Y-202565000D01*
X128524000Y-169291000D02*
X127000000Y-170815000D01*
X127000000Y-170815000D02*
X120142000Y-170815000D01*
X115697000Y-175260000D02*
X108585000Y-175260000D01*
X120142000Y-170815000D02*
X115697000Y-175260000D01*
%TO.N,/Relay_SetCoil6*%
X103124000Y-184785000D02*
X103124000Y-182626000D01*
X107061000Y-192659000D02*
X107061000Y-188722000D01*
X129667000Y-168402000D02*
X129413000Y-168148000D01*
X127254000Y-171958000D02*
X129667000Y-169545000D01*
X129667000Y-169545000D02*
X129667000Y-168402000D01*
X116586000Y-176530000D02*
X121158000Y-171958000D01*
X121158000Y-171958000D02*
X127254000Y-171958000D01*
X109220000Y-176530000D02*
X116586000Y-176530000D01*
X103124000Y-182626000D02*
X109220000Y-176530000D01*
X107061000Y-188722000D02*
X103124000Y-184785000D01*
%TO.N,/Relay_ResetCoil7*%
X126365000Y-177673000D02*
X136398000Y-167640000D01*
X121920000Y-177673000D02*
X126365000Y-177673000D01*
X136398000Y-165862000D02*
X137287000Y-164973000D01*
X120396000Y-202565000D02*
X120396000Y-190754000D01*
X137287000Y-164973000D02*
X137922000Y-164973000D01*
X117729000Y-188087000D02*
X117729000Y-181864000D01*
X117729000Y-181864000D02*
X121920000Y-177673000D01*
X120396000Y-190754000D02*
X117729000Y-188087000D01*
X136398000Y-167640000D02*
X136398000Y-165862000D01*
%TO.N,/Relay_SetCoil7*%
X118872000Y-182626000D02*
X118872000Y-184785000D01*
X122532800Y-178965200D02*
X118872000Y-182626000D01*
X122809000Y-188722000D02*
X122809000Y-192659000D01*
X138557000Y-167259000D02*
X126850800Y-178965200D01*
X126850800Y-178965200D02*
X122532800Y-178965200D01*
X118872000Y-184785000D02*
X122809000Y-188722000D01*
X138557000Y-165989000D02*
X138557000Y-167259000D01*
%TO.N,/Relay_ResetCoil8*%
X135001000Y-180340000D02*
X133477000Y-181864000D01*
X136144000Y-190754000D02*
X136144000Y-202565000D01*
X142748000Y-169418000D02*
X135001000Y-177165000D01*
X133477000Y-188087000D02*
X136144000Y-190754000D01*
X133477000Y-181864000D02*
X133477000Y-188087000D01*
X135001000Y-177165000D02*
X135001000Y-180340000D01*
X142748000Y-168656000D02*
X142748000Y-169418000D01*
%TO.N,/Relay_SetCoil8*%
X143764000Y-169799000D02*
X143764000Y-168402000D01*
X143764000Y-168402000D02*
X143637000Y-168275000D01*
X135890000Y-177673000D02*
X143764000Y-169799000D01*
X134620000Y-182626000D02*
X135890000Y-181356000D01*
X134620000Y-184785000D02*
X134620000Y-182626000D01*
X138557000Y-192659000D02*
X138557000Y-188722000D01*
X135890000Y-181356000D02*
X135890000Y-177673000D01*
X138557000Y-188722000D02*
X134620000Y-184785000D01*
%TO.N,/Relay_ResetCoil9*%
X160782000Y-186563000D02*
X160782000Y-174244000D01*
X158750000Y-202565000D02*
X156083000Y-199898000D01*
X156083000Y-199898000D02*
X156083000Y-191262000D01*
X156083000Y-191262000D02*
X160782000Y-186563000D01*
X160782000Y-174244000D02*
X166751000Y-168275000D01*
%TO.N,/Relay_SetCoil9*%
X161290000Y-188595000D02*
X157099000Y-192786000D01*
X167767000Y-168910000D02*
X167767000Y-169672000D01*
X167767000Y-169672000D02*
X162687000Y-174752000D01*
X162687000Y-187960000D02*
X162052000Y-188595000D01*
X162687000Y-174752000D02*
X162687000Y-187960000D01*
X162052000Y-188595000D02*
X161290000Y-188595000D01*
%TO.N,/Relay_ResetCoil10*%
X171831000Y-191262000D02*
X176530000Y-186563000D01*
X171831000Y-199898000D02*
X171831000Y-191262000D01*
X174498000Y-202565000D02*
X171831000Y-199898000D01*
X176530000Y-186563000D02*
X176530000Y-170434000D01*
X176530000Y-170434000D02*
X171704000Y-165608000D01*
%TO.N,/Relay_SetCoil10*%
X178435000Y-187960000D02*
X178435000Y-170561000D01*
X177800000Y-188595000D02*
X178435000Y-187960000D01*
X172847000Y-192786000D02*
X177038000Y-188595000D01*
X172593000Y-164719000D02*
X171704000Y-164719000D01*
X178435000Y-170561000D02*
X172593000Y-164719000D01*
X177038000Y-188595000D02*
X177800000Y-188595000D01*
%TO.N,/Relay_ResetCoil11*%
X187579000Y-191262000D02*
X192278000Y-186563000D01*
X187579000Y-199898000D02*
X187579000Y-191262000D01*
X189484000Y-176149000D02*
X189484000Y-168275000D01*
X192278000Y-186563000D02*
X192278000Y-178943000D01*
X190246000Y-202565000D02*
X187579000Y-199898000D01*
X192278000Y-178943000D02*
X189484000Y-176149000D01*
%TO.N,/Relay_SetCoil11*%
X190500000Y-168910000D02*
X190500000Y-174117000D01*
X194183000Y-177800000D02*
X194183000Y-187960000D01*
X193548000Y-188595000D02*
X192786000Y-188595000D01*
X194183000Y-187960000D02*
X193548000Y-188595000D01*
X190500000Y-174117000D02*
X194183000Y-177800000D01*
X192786000Y-188595000D02*
X188595000Y-192786000D01*
%TO.N,/Relay_ResetCoil12*%
X205994000Y-202565000D02*
X203327000Y-199898000D01*
X197993000Y-165608000D02*
X194437000Y-165608000D01*
X203327000Y-199898000D02*
X203327000Y-191262000D01*
X208026000Y-175641000D02*
X197993000Y-165608000D01*
X208026000Y-186563000D02*
X208026000Y-175641000D01*
X203327000Y-191262000D02*
X208026000Y-186563000D01*
%TO.N,/Relay_SetCoil12*%
X209931000Y-175895000D02*
X198755000Y-164719000D01*
X209296000Y-188595000D02*
X209931000Y-187960000D01*
X198755000Y-164719000D02*
X194437000Y-164719000D01*
X208534000Y-188595000D02*
X209296000Y-188595000D01*
X209931000Y-187960000D02*
X209931000Y-175895000D01*
X204343000Y-192786000D02*
X208534000Y-188595000D01*
%TO.N,/Relay_ResetCoil13*%
X151892000Y-190754000D02*
X149225000Y-188087000D01*
X151892000Y-202565000D02*
X151892000Y-190754000D01*
X149225000Y-181864000D02*
X163322000Y-167767000D01*
X163322000Y-167767000D02*
X163322000Y-165862000D01*
X149225000Y-188087000D02*
X149225000Y-181864000D01*
X163322000Y-165862000D02*
X164211000Y-164973000D01*
%TO.N,/Relay_SetCoil13*%
X150368000Y-182118000D02*
X150368000Y-184785000D01*
X154305000Y-188722000D02*
X154305000Y-192659000D01*
X164846000Y-165862000D02*
X164846000Y-167640000D01*
X164846000Y-167640000D02*
X150368000Y-182118000D01*
X150368000Y-184785000D02*
X154305000Y-188722000D01*
%TO.N,/Relay_ResetCoil14*%
X164973000Y-181864000D02*
X164973000Y-188087000D01*
X167640000Y-190754000D02*
X167640000Y-202565000D01*
X168910000Y-177927000D02*
X164973000Y-181864000D01*
X168910000Y-168910000D02*
X168910000Y-177927000D01*
X164973000Y-188087000D02*
X167640000Y-190754000D01*
%TO.N,/Relay_SetCoil14*%
X170053000Y-192659000D02*
X170053000Y-188722000D01*
X169799000Y-178943000D02*
X169799000Y-168275000D01*
X166116000Y-184785000D02*
X166116000Y-182626000D01*
X166116000Y-182626000D02*
X169799000Y-178943000D01*
X170053000Y-188722000D02*
X166116000Y-184785000D01*
%TO.N,/Relay_ResetCoil15*%
X180721000Y-181864000D02*
X180721000Y-188087000D01*
X180721000Y-188087000D02*
X183388000Y-190754000D01*
X182880000Y-179705000D02*
X180721000Y-181864000D01*
X182880000Y-168783000D02*
X182880000Y-179705000D01*
X186563000Y-165100000D02*
X182880000Y-168783000D01*
X183388000Y-190754000D02*
X183388000Y-202565000D01*
%TO.N,/Relay_SetCoil15*%
X187579000Y-165862000D02*
X184658000Y-168783000D01*
X185801000Y-188722000D02*
X185801000Y-192659000D01*
X181864000Y-184785000D02*
X185801000Y-188722000D01*
X184658000Y-168783000D02*
X184658000Y-179832000D01*
X181864000Y-182626000D02*
X181864000Y-184785000D01*
X184658000Y-179832000D02*
X181864000Y-182626000D01*
%TO.N,/Relay_ResetCoil16*%
X199136000Y-190754000D02*
X199136000Y-202565000D01*
X191643000Y-168910000D02*
X191643000Y-173355000D01*
X196469000Y-180594000D02*
X196469000Y-188087000D01*
X191643000Y-173355000D02*
X195453000Y-177165000D01*
X195453000Y-177165000D02*
X195453000Y-179578000D01*
X195453000Y-179578000D02*
X196469000Y-180594000D01*
X196469000Y-188087000D02*
X199136000Y-190754000D01*
%TO.N,/Relay_SetCoil16*%
X197612000Y-184785000D02*
X197612000Y-177038000D01*
X201549000Y-192659000D02*
X201549000Y-188722000D01*
X197612000Y-177038000D02*
X192532000Y-171958000D01*
X201549000Y-188722000D02*
X197612000Y-184785000D01*
X192532000Y-171958000D02*
X192532000Y-168275000D01*
%TO.N,/Relay_SetCoil17*%
X229489000Y-169164000D02*
X225679000Y-172974000D01*
X225679000Y-172974000D02*
X225679000Y-187960000D01*
X225044000Y-188595000D02*
X224282000Y-188595000D01*
X225679000Y-187960000D02*
X225044000Y-188595000D01*
X229489000Y-168910000D02*
X229489000Y-169164000D01*
X224282000Y-188595000D02*
X220091000Y-192786000D01*
D30*
%TO.N,ADC1_MCLK-*%
X149373789Y-133371789D02*
X149822803Y-133371789D01*
X153591092Y-129603500D02*
X191437092Y-129603500D01*
X149822803Y-133371789D02*
X153591092Y-129603500D01*
X217656876Y-118075637D02*
X217339376Y-118393137D01*
X202647455Y-118393137D02*
X217339376Y-118393137D01*
X191437092Y-129603500D02*
X202647455Y-118393137D01*
%TO.N,ADC1_MCLK+*%
X150092211Y-133641197D02*
X153748908Y-129984500D01*
X150092211Y-134090211D02*
X150092211Y-133641197D01*
X153748908Y-129984500D02*
X191594908Y-129984500D01*
X202805271Y-118774137D02*
X217339376Y-118774137D01*
X217656876Y-119091637D02*
X217339376Y-118774137D01*
X191594908Y-129984500D02*
X202805271Y-118774137D01*
%TO.N,ADC2_MCLK-*%
X220747789Y-122449789D02*
X220747789Y-122898803D01*
X192087500Y-132001092D02*
X192087500Y-133794500D01*
X220747789Y-122898803D02*
X216329092Y-127317500D01*
X196771092Y-127317500D02*
X192087500Y-132001092D01*
X216329092Y-127317500D02*
X196771092Y-127317500D01*
X192087500Y-133794500D02*
X191770000Y-134112000D01*
%TO.N,ADC2_MCLK+*%
X192468500Y-133794500D02*
X192786000Y-134112000D01*
X196928908Y-127698500D02*
X192468500Y-132158908D01*
X221466211Y-123168211D02*
X221017197Y-123168211D01*
X192468500Y-132158908D02*
X192468500Y-133794500D01*
X221017197Y-123168211D02*
X216486908Y-127698500D01*
X216486908Y-127698500D02*
X196928908Y-127698500D01*
%TO.N,ADC3_MCLK-*%
X235712000Y-134112000D02*
X236029500Y-133794500D01*
X236029500Y-133794500D02*
X236029500Y-132285908D01*
X236029500Y-132285908D02*
X233093092Y-129349500D01*
X233093092Y-129349500D02*
X231899292Y-129349500D01*
X231899292Y-129349500D02*
X225136400Y-122586608D01*
X225136400Y-122586608D02*
X224687386Y-122586608D01*
%TO.N,ADC3_MCLK+*%
X232057108Y-128968500D02*
X225405808Y-122317200D01*
X236410500Y-133794500D02*
X236410500Y-132128092D01*
X236728000Y-134112000D02*
X236410500Y-133794500D01*
X233250908Y-128968500D02*
X232057108Y-128968500D01*
X225405808Y-122317200D02*
X225405808Y-121868186D01*
X236410500Y-132128092D02*
X233250908Y-128968500D01*
%TO.N,ADC4_MCLK-*%
X228014739Y-119047800D02*
X228332239Y-118730300D01*
X279971500Y-133457258D02*
X279971500Y-132031908D01*
X228332239Y-118730300D02*
X229331892Y-118730300D01*
X229331892Y-118730300D02*
X239443092Y-128841500D01*
X279654000Y-133774758D02*
X279971500Y-133457258D01*
X239443092Y-128841500D02*
X276781092Y-128841500D01*
X276781092Y-128841500D02*
X279971500Y-132031908D01*
%TO.N,ADC4_MCLK+*%
X229489708Y-118349300D02*
X239600908Y-128460500D01*
X228014739Y-118031800D02*
X228332239Y-118349300D01*
X280352500Y-133457258D02*
X280352500Y-131874092D01*
X228332239Y-118349300D02*
X229489708Y-118349300D01*
X276938908Y-128460500D02*
X280352500Y-131874092D01*
X239600908Y-128460500D02*
X276938908Y-128460500D01*
X280670000Y-133774758D02*
X280352500Y-133457258D01*
D28*
%TO.N,AD7768_SCLK*%
X140208000Y-137541000D02*
X142240000Y-139573000D01*
X225806000Y-138557000D02*
X226822000Y-137541000D01*
X142240000Y-139573000D02*
X150368000Y-139573000D01*
X183642000Y-137033000D02*
X184150000Y-137541000D01*
X271018000Y-138557000D02*
X272034000Y-137541000D01*
X152908000Y-137033000D02*
X183642000Y-137033000D01*
X150368000Y-139573000D02*
X152908000Y-137033000D01*
X229108000Y-138557000D02*
X271018000Y-138557000D01*
X226822000Y-137541000D02*
X228092000Y-137541000D01*
X185166000Y-138557000D02*
X225806000Y-138557000D01*
X228092000Y-137541000D02*
X229108000Y-138557000D01*
X184150000Y-137541000D02*
X185166000Y-138557000D01*
%TO.N,AD7768_SDI*%
X185420000Y-137795000D02*
X225552000Y-137795000D01*
X225552000Y-137795000D02*
X226695000Y-136652000D01*
X152527000Y-136525000D02*
X184277000Y-136525000D01*
X271526000Y-136779000D02*
X270510000Y-137795000D01*
X184912000Y-137287000D02*
X185420000Y-137795000D01*
X142621000Y-138938000D02*
X150114000Y-138938000D01*
X272796000Y-137287000D02*
X272288000Y-136779000D01*
X270510000Y-137795000D02*
X229362000Y-137795000D01*
X150114000Y-138938000D02*
X152527000Y-136525000D01*
X229362000Y-137795000D02*
X228854000Y-137287000D01*
X140970000Y-137287000D02*
X142621000Y-138938000D01*
X184912000Y-137160000D02*
X184912000Y-137287000D01*
X228219000Y-136652000D02*
X228854000Y-137287000D01*
X184277000Y-136525000D02*
X184912000Y-137160000D01*
X272288000Y-136779000D02*
X271526000Y-136779000D01*
X226695000Y-136652000D02*
X228219000Y-136652000D01*
%TO.N,AD7768_~{RESET}*%
X190754000Y-136906000D02*
X224917000Y-136906000D01*
X224917000Y-136906000D02*
X226187000Y-135636000D01*
X228473000Y-135636000D02*
X229743000Y-136906000D01*
X229743000Y-136906000D02*
X234696000Y-136906000D01*
X154615000Y-135890000D02*
X153726000Y-135001000D01*
X269875000Y-136906000D02*
X270891000Y-135890000D01*
X226187000Y-135636000D02*
X228473000Y-135636000D01*
X273685000Y-136906000D02*
X278638000Y-136906000D01*
X234696000Y-136906000D02*
X269875000Y-136906000D01*
X270891000Y-135890000D02*
X272669000Y-135890000D01*
X185801000Y-136906000D02*
X184785000Y-135890000D01*
X272669000Y-135890000D02*
X273685000Y-136906000D01*
X190754000Y-136906000D02*
X185801000Y-136906000D01*
X184785000Y-135890000D02*
X154615000Y-135890000D01*
%TO.N,P1_SDA*%
X162485000Y-98604000D02*
X162814000Y-98933000D01*
X167386000Y-104140000D02*
X170942000Y-107696000D01*
X182499000Y-120269000D02*
X173990000Y-120269000D01*
X167386000Y-99568000D02*
X167386000Y-104140000D01*
X162814000Y-98933000D02*
X166751000Y-98933000D01*
X170942000Y-107696000D02*
X170942000Y-117221000D01*
X170942000Y-117221000D02*
X173990000Y-120269000D01*
X166751000Y-98933000D02*
X167386000Y-99568000D01*
X162485000Y-97424000D02*
X162485000Y-98604000D01*
%TO.N,P1_SCL*%
X167132000Y-98298000D02*
X164084000Y-98298000D01*
X163755000Y-97969000D02*
X163755000Y-97424000D01*
X183388000Y-119634000D02*
X183007000Y-119253000D01*
X164084000Y-98298000D02*
X163755000Y-97969000D01*
X174498000Y-119253000D02*
X171831000Y-116586000D01*
X168148000Y-103759000D02*
X168148000Y-99314000D01*
X171831000Y-116586000D02*
X171831000Y-107442000D01*
X182499000Y-121539000D02*
X183007000Y-121539000D01*
X171831000Y-107442000D02*
X168148000Y-103759000D01*
X183007000Y-119253000D02*
X174498000Y-119253000D01*
X168148000Y-99314000D02*
X167132000Y-98298000D01*
X183007000Y-121539000D02*
X183388000Y-121158000D01*
X183388000Y-121158000D02*
X183388000Y-119634000D01*
%TO.N,P1_GA0*%
X162941000Y-101981000D02*
X162179000Y-101219000D01*
X172339000Y-122809000D02*
X169164000Y-122809000D01*
X162941000Y-106553000D02*
X162941000Y-101981000D01*
X164211000Y-117856000D02*
X164211000Y-107823000D01*
X169164000Y-122809000D02*
X164211000Y-117856000D01*
X158675000Y-100636000D02*
X158675000Y-97424000D01*
X159258000Y-101219000D02*
X158675000Y-100636000D01*
X162179000Y-101219000D02*
X159258000Y-101219000D01*
X164211000Y-107823000D02*
X162941000Y-106553000D01*
%TO.N,P1_GA1*%
X172339000Y-124079000D02*
X168910000Y-124079000D01*
X163322000Y-108204000D02*
X162306000Y-107188000D01*
X162306000Y-107188000D02*
X162306000Y-102235000D01*
X168910000Y-124079000D02*
X163322000Y-118491000D01*
X161798000Y-101727000D02*
X157861000Y-101727000D01*
X162306000Y-102235000D02*
X161798000Y-101727000D01*
X163322000Y-118491000D02*
X163322000Y-108204000D01*
X157861000Y-101727000D02*
X157405000Y-101271000D01*
X157405000Y-101271000D02*
X157405000Y-100472000D01*
%TO.N,P2_PG_C2M*%
X266700000Y-104775000D02*
X270585000Y-100890000D01*
X270585000Y-100890000D02*
X270585000Y-100472000D01*
X266700000Y-111633000D02*
X266700000Y-104775000D01*
%TO.N,AMC7823_SPI_SCLK*%
X291592000Y-127000000D02*
X314579000Y-127000000D01*
X318389000Y-126619000D02*
X314960000Y-126619000D01*
X314579000Y-127000000D02*
X314960000Y-126619000D01*
X318643000Y-126873000D02*
X318389000Y-126619000D01*
X332994000Y-126873000D02*
X318643000Y-126873000D01*
%TO.N,AMC7823_SPI_MOSI*%
X315087000Y-128143000D02*
X314706000Y-127762000D01*
X318135000Y-128143000D02*
X315087000Y-128143000D01*
X318643000Y-127635000D02*
X318135000Y-128143000D01*
X333375000Y-127635000D02*
X318643000Y-127635000D01*
X314706000Y-127762000D02*
X292354000Y-127762000D01*
%TO.N,AMC7823_SPI_MISO*%
X334264000Y-126746000D02*
X334010000Y-126492000D01*
X291618900Y-120242100D02*
X291973000Y-119888000D01*
X316103000Y-124968000D02*
X298323000Y-124968000D01*
X292735000Y-119888000D02*
X297815000Y-124968000D01*
X325755000Y-125222000D02*
X316357000Y-125222000D01*
X331978000Y-126111000D02*
X326644000Y-126111000D01*
X333375000Y-128524000D02*
X333756000Y-128524000D01*
X326644000Y-126111000D02*
X325755000Y-125222000D01*
X297815000Y-124968000D02*
X298323000Y-124968000D01*
X334010000Y-126492000D02*
X333629000Y-126111000D01*
X334264000Y-128016000D02*
X334264000Y-126746000D01*
X333756000Y-128524000D02*
X334264000Y-128016000D01*
X316357000Y-125222000D02*
X316103000Y-124968000D01*
X291592000Y-120242100D02*
X291618900Y-120242100D01*
X291973000Y-119888000D02*
X292735000Y-119888000D01*
X333629000Y-126111000D02*
X331978000Y-126111000D01*
%TO.N,AMC7823_SPI_SS*%
X303657000Y-128397000D02*
X304927000Y-129667000D01*
X304927000Y-129667000D02*
X331978000Y-129667000D01*
X291592000Y-128397000D02*
X303657000Y-128397000D01*
X331978000Y-129667000D02*
X332613000Y-129032000D01*
%TO.N,MAX4896_~{Reset}*%
X315595000Y-159512000D02*
X315897500Y-159814500D01*
X279908000Y-159512000D02*
X315595000Y-159512000D01*
X270207500Y-159814500D02*
X279575500Y-159814500D01*
X228570000Y-160020000D02*
X228775500Y-159814500D01*
X315897500Y-159814500D02*
X316405500Y-159814500D01*
X229078000Y-159512000D02*
X253111000Y-159512000D01*
X190119000Y-159512000D02*
X221996000Y-159512000D01*
X265811000Y-159512000D02*
X266573000Y-160274000D01*
X221996000Y-159512000D02*
X222504000Y-160020000D01*
X140843000Y-159766000D02*
X167005000Y-159766000D01*
X279605500Y-159814500D02*
X279908000Y-159512000D01*
X253413500Y-159814500D02*
X254937500Y-159814500D01*
X228775500Y-159814500D02*
X229078000Y-159512000D01*
X266573000Y-160274000D02*
X269748000Y-160274000D01*
X189786500Y-159814500D02*
X189816500Y-159814500D01*
X222504000Y-160020000D02*
X228570000Y-160020000D01*
X167767000Y-159131000D02*
X181356000Y-159131000D01*
X255240000Y-159512000D02*
X265811000Y-159512000D01*
X254937500Y-159814500D02*
X255240000Y-159512000D01*
X167005000Y-159766000D02*
X167053500Y-159814500D01*
X167083500Y-159814500D02*
X167767000Y-159131000D01*
X182039500Y-159814500D02*
X189786500Y-159814500D01*
X269748000Y-160274000D02*
X270207500Y-159814500D01*
X189816500Y-159814500D02*
X190119000Y-159512000D01*
X167053500Y-159814500D02*
X167083500Y-159814500D01*
X181356000Y-159131000D02*
X182039500Y-159814500D01*
X279575500Y-159814500D02*
X279605500Y-159814500D01*
X253111000Y-159512000D02*
X253413500Y-159814500D01*
%TO.N,MAX4896_~{CS}*%
X315468000Y-160147000D02*
X315976000Y-160655000D01*
X167767000Y-160401000D02*
X167894000Y-160274000D01*
X280289000Y-160401000D02*
X280543000Y-160147000D01*
X141605000Y-160401000D02*
X141732000Y-160274000D01*
X229108000Y-160782000D02*
X229489000Y-160401000D01*
X167640000Y-160528000D02*
X167767000Y-160401000D01*
X270129000Y-160909000D02*
X270383000Y-160655000D01*
X222250000Y-160782000D02*
X229108000Y-160782000D01*
X265684000Y-160274000D02*
X266319000Y-160909000D01*
X229489000Y-160401000D02*
X229616000Y-160274000D01*
X252730000Y-160274000D02*
X253238000Y-160782000D01*
X165989000Y-160274000D02*
X166243000Y-160528000D01*
X315976000Y-160655000D02*
X316865000Y-160655000D01*
X280543000Y-160147000D02*
X315468000Y-160147000D01*
X229616000Y-160274000D02*
X252730000Y-160274000D01*
X141224000Y-160782000D02*
X141605000Y-160401000D01*
X127381000Y-160274000D02*
X127508000Y-160147000D01*
X127508000Y-160147000D02*
X129032000Y-160147000D01*
X178943000Y-160274000D02*
X179451000Y-159766000D01*
X166243000Y-160528000D02*
X167640000Y-160528000D01*
X190373000Y-160528000D02*
X190500000Y-160401000D01*
X255778000Y-160274000D02*
X265684000Y-160274000D01*
X129032000Y-160147000D02*
X129667000Y-160782000D01*
X253238000Y-160782000D02*
X255270000Y-160782000D01*
X270383000Y-160655000D02*
X280035000Y-160655000D01*
X190500000Y-160401000D02*
X190627000Y-160274000D01*
X181864000Y-160528000D02*
X190373000Y-160528000D01*
X129667000Y-160782000D02*
X141224000Y-160782000D01*
X181102000Y-159766000D02*
X181864000Y-160528000D01*
X141732000Y-160274000D02*
X165989000Y-160274000D01*
X266319000Y-160909000D02*
X270129000Y-160909000D01*
X316865000Y-160655000D02*
X317119000Y-160401000D01*
X221742000Y-160274000D02*
X222250000Y-160782000D01*
X179451000Y-159766000D02*
X181102000Y-159766000D01*
X190627000Y-160274000D02*
X221742000Y-160274000D01*
X167894000Y-160274000D02*
X178943000Y-160274000D01*
X255651000Y-160401000D02*
X255778000Y-160274000D01*
X280035000Y-160655000D02*
X280289000Y-160401000D01*
X255270000Y-160782000D02*
X255651000Y-160401000D01*
%TO.N,Relay_ShiftData*%
X182499000Y-159131000D02*
X181864000Y-158496000D01*
X300863000Y-137541000D02*
X300863000Y-153797000D01*
X129159000Y-159258000D02*
X127000000Y-159258000D01*
X300863000Y-153797000D02*
X295783000Y-158877000D01*
X222631000Y-158496000D02*
X222250000Y-158877000D01*
X189230000Y-158877000D02*
X188976000Y-159131000D01*
X222250000Y-158877000D02*
X189230000Y-158877000D01*
X127508000Y-161290000D02*
X128016000Y-160782000D01*
X295783000Y-158877000D02*
X269875000Y-158877000D01*
X269494000Y-158496000D02*
X266573000Y-158496000D01*
X166624000Y-159131000D02*
X139954000Y-159131000D01*
X139954000Y-159131000D02*
X138938000Y-160147000D01*
X224663000Y-158496000D02*
X222631000Y-158496000D01*
X127000000Y-159258000D02*
X126238000Y-160020000D01*
X266573000Y-158496000D02*
X266192000Y-158877000D01*
X295275000Y-131953000D02*
X300863000Y-137541000D01*
X292227000Y-131953000D02*
X295275000Y-131953000D01*
X269875000Y-158877000D02*
X269494000Y-158496000D01*
X130048000Y-160147000D02*
X129159000Y-159258000D01*
X138938000Y-160147000D02*
X130048000Y-160147000D01*
X188976000Y-159131000D02*
X182499000Y-159131000D01*
X266192000Y-158877000D02*
X225044000Y-158877000D01*
X181864000Y-158496000D02*
X167259000Y-158496000D01*
X126238000Y-160655000D02*
X126873000Y-161290000D01*
X225044000Y-158877000D02*
X224663000Y-158496000D01*
X126238000Y-160020000D02*
X126238000Y-160655000D01*
X167259000Y-158496000D02*
X166624000Y-159131000D01*
X126873000Y-161290000D02*
X127508000Y-161290000D01*
%TO.N,Net-(U19-DOUT)*%
X171831000Y-162306000D02*
X187579000Y-162306000D01*
X187579000Y-162306000D02*
X187960000Y-161925000D01*
X187960000Y-161925000D02*
X190119000Y-161925000D01*
X190119000Y-161925000D02*
X191135000Y-160909000D01*
D29*
%TO.N,/Relay_SetCoil24*%
X260604000Y-171196000D02*
X257683000Y-168275000D01*
X264541000Y-192659000D02*
X264541000Y-188722000D01*
X264541000Y-188722000D02*
X260604000Y-184785000D01*
X260604000Y-184785000D02*
X260604000Y-171196000D01*
%TO.N,/Relay_SetCoil23*%
X252730000Y-165989000D02*
X252349000Y-166370000D01*
X244856000Y-182118000D02*
X244856000Y-184785000D01*
X244856000Y-184785000D02*
X248793000Y-188722000D01*
X252349000Y-166370000D02*
X252349000Y-174625000D01*
X248793000Y-188722000D02*
X248793000Y-192659000D01*
X252349000Y-174625000D02*
X244856000Y-182118000D01*
%TO.N,/Relay_SetCoil22*%
X229108000Y-184785000D02*
X229108000Y-182626000D01*
X233045000Y-188722000D02*
X229108000Y-184785000D01*
X231521000Y-180213000D02*
X231521000Y-168275000D01*
X229108000Y-182626000D02*
X231521000Y-180213000D01*
X233045000Y-192659000D02*
X233045000Y-188722000D01*
%TO.N,/Relay_SetCoil21*%
X221361000Y-171196000D02*
X221361000Y-173990000D01*
X213360000Y-181991000D02*
X213360000Y-184785000D01*
X221361000Y-173990000D02*
X213360000Y-181991000D01*
X226568000Y-165989000D02*
X221361000Y-171196000D01*
X217297000Y-188722000D02*
X217297000Y-192659000D01*
X213360000Y-184785000D02*
X217297000Y-188722000D01*
%TO.N,/Relay_SetCoil20*%
X272288000Y-188595000D02*
X271526000Y-188595000D01*
X260604000Y-164719000D02*
X272923000Y-177038000D01*
X272923000Y-177038000D02*
X272923000Y-187960000D01*
X272923000Y-187960000D02*
X272288000Y-188595000D01*
X259588000Y-164719000D02*
X260604000Y-164719000D01*
X271526000Y-188595000D02*
X267335000Y-192786000D01*
%TO.N,/Relay_SetCoil19*%
X256540000Y-188595000D02*
X255778000Y-188595000D01*
X255651000Y-168910000D02*
X255651000Y-170688000D01*
X255651000Y-170688000D02*
X257175000Y-172212000D01*
X255778000Y-188595000D02*
X251587000Y-192786000D01*
X257175000Y-187960000D02*
X256540000Y-188595000D01*
X257175000Y-172212000D02*
X257175000Y-187960000D01*
%TO.N,/Relay_SetCoil18*%
X240030000Y-188595000D02*
X240792000Y-188595000D01*
X241427000Y-171958000D02*
X234188000Y-164719000D01*
X235839000Y-192786000D02*
X240030000Y-188595000D01*
X241427000Y-187960000D02*
X241427000Y-171958000D01*
X240792000Y-188595000D02*
X241427000Y-187960000D01*
X234188000Y-164719000D02*
X233426000Y-164719000D01*
D28*
%TO.N,Net-(U20-DOUT)*%
X314706000Y-161925000D02*
X316738000Y-161925000D01*
X316738000Y-161925000D02*
X317754000Y-160909000D01*
X314325000Y-162306000D02*
X314706000Y-161925000D01*
X284353000Y-162306000D02*
X314325000Y-162306000D01*
D29*
%TO.N,/Relay_ResetCoil24*%
X259461000Y-188087000D02*
X262128000Y-190754000D01*
X259461000Y-180594000D02*
X259461000Y-188087000D01*
X258445000Y-179578000D02*
X259461000Y-180594000D01*
X262128000Y-190754000D02*
X262128000Y-202565000D01*
X256921000Y-168910000D02*
X258445000Y-170434000D01*
X258445000Y-170434000D02*
X258445000Y-179578000D01*
%TO.N,/Relay_ResetCoil23*%
X243713000Y-188087000D02*
X246380000Y-190754000D01*
X252222000Y-165100000D02*
X250571000Y-166751000D01*
X246380000Y-190754000D02*
X246380000Y-202565000D01*
X243713000Y-181864000D02*
X243713000Y-188087000D01*
X250571000Y-175006000D02*
X243713000Y-181864000D01*
X250571000Y-166751000D02*
X250571000Y-175006000D01*
%TO.N,/Relay_ResetCoil22*%
X230632000Y-168910000D02*
X230632000Y-179197000D01*
X230632000Y-190754000D02*
X230632000Y-202565000D01*
X230632000Y-179197000D02*
X227965000Y-181864000D01*
X227965000Y-188087000D02*
X230632000Y-190754000D01*
X227965000Y-181864000D02*
X227965000Y-188087000D01*
%TO.N,/Relay_ResetCoil21*%
X212217000Y-181483000D02*
X212217000Y-188087000D01*
X212217000Y-188087000D02*
X214884000Y-190754000D01*
X214884000Y-190754000D02*
X214884000Y-202565000D01*
X220091000Y-170942000D02*
X220091000Y-173609000D01*
X220091000Y-173609000D02*
X212217000Y-181483000D01*
X225933000Y-165100000D02*
X220091000Y-170942000D01*
%TO.N,/Relay_ResetCoil20*%
X259588000Y-165608000D02*
X271018000Y-177038000D01*
X266319000Y-191262000D02*
X266319000Y-199898000D01*
X266319000Y-199898000D02*
X268986000Y-202565000D01*
X271018000Y-177038000D02*
X271018000Y-186563000D01*
X271018000Y-186563000D02*
X266319000Y-191262000D01*
%TO.N,/Relay_ResetCoil19*%
X250571000Y-191262000D02*
X255270000Y-186563000D01*
X255270000Y-186563000D02*
X255270000Y-172085000D01*
X250571000Y-199898000D02*
X250571000Y-191262000D01*
X253238000Y-202565000D02*
X250571000Y-199898000D01*
X255270000Y-172085000D02*
X254635000Y-171450000D01*
X254635000Y-171450000D02*
X254635000Y-168275000D01*
%TO.N,/Relay_ResetCoil18*%
X239522000Y-171704000D02*
X233426000Y-165608000D01*
X234823000Y-199898000D02*
X234823000Y-191262000D01*
X237490000Y-202565000D02*
X234823000Y-199898000D01*
X234823000Y-191262000D02*
X239522000Y-186563000D01*
X239522000Y-186563000D02*
X239522000Y-171704000D01*
%TO.N,/Relay_ResetCoil17*%
X223774000Y-186563000D02*
X223774000Y-172974000D01*
X219075000Y-199898000D02*
X219075000Y-191262000D01*
X219075000Y-191262000D02*
X223774000Y-186563000D01*
X223774000Y-172974000D02*
X228473000Y-168275000D01*
X221742000Y-202565000D02*
X219075000Y-199898000D01*
%TO.N,/Relay_SetCoil32*%
X327533000Y-188722000D02*
X323596000Y-184785000D01*
X327533000Y-192659000D02*
X327533000Y-188722000D01*
X323596000Y-184785000D02*
X323596000Y-172720000D01*
X323596000Y-172720000D02*
X319151000Y-168275000D01*
%TO.N,/Relay_SetCoil31*%
X314198000Y-165862000D02*
X307848000Y-172212000D01*
X307848000Y-184785000D02*
X311785000Y-188722000D01*
X311785000Y-188722000D02*
X311785000Y-192659000D01*
X307848000Y-172212000D02*
X307848000Y-184785000D01*
%TO.N,/Relay_SetCoil30*%
X296037000Y-192659000D02*
X296037000Y-188722000D01*
X292100000Y-184785000D02*
X292100000Y-178054000D01*
X292100000Y-178054000D02*
X282321000Y-168275000D01*
X296037000Y-188722000D02*
X292100000Y-184785000D01*
%TO.N,/Relay_SetCoil29*%
X277368000Y-165862000D02*
X276987000Y-166243000D01*
X276987000Y-181991000D02*
X276352000Y-182626000D01*
X280289000Y-188722000D02*
X280289000Y-192659000D01*
X276352000Y-184785000D02*
X280289000Y-188722000D01*
X276987000Y-166243000D02*
X276987000Y-181991000D01*
X276352000Y-182626000D02*
X276352000Y-184785000D01*
%TO.N,/Relay_SetCoil28*%
X325120000Y-164719000D02*
X321056000Y-164719000D01*
X335026000Y-180340000D02*
X334645000Y-180340000D01*
X330327000Y-192786000D02*
X334518000Y-188595000D01*
X333883000Y-179451000D02*
X333883000Y-173482000D01*
X335915000Y-187960000D02*
X335915000Y-184150000D01*
X335661000Y-183896000D02*
X335661000Y-180975000D01*
X333883000Y-173482000D02*
X325120000Y-164719000D01*
X335661000Y-180975000D02*
X335026000Y-180340000D01*
X334518000Y-188595000D02*
X335280000Y-188595000D01*
X333883000Y-179578000D02*
X333883000Y-179451000D01*
X334645000Y-180340000D02*
X333883000Y-179578000D01*
X335280000Y-188595000D02*
X335915000Y-187960000D01*
X335915000Y-184150000D02*
X335661000Y-183896000D01*
%TO.N,/Relay_SetCoil27*%
X320167000Y-175895000D02*
X320167000Y-187960000D01*
X317119000Y-168910000D02*
X317119000Y-172847000D01*
X317119000Y-172847000D02*
X320167000Y-175895000D01*
X319532000Y-188595000D02*
X318770000Y-188595000D01*
X318770000Y-188595000D02*
X314579000Y-192786000D01*
X320167000Y-187960000D02*
X319532000Y-188595000D01*
%TO.N,/Relay_SetCoil26*%
X304419000Y-178943000D02*
X290195000Y-164719000D01*
X303784000Y-188595000D02*
X304419000Y-187960000D01*
X290195000Y-164719000D02*
X284353000Y-164719000D01*
X304419000Y-187960000D02*
X304419000Y-178943000D01*
X303022000Y-188595000D02*
X303784000Y-188595000D01*
X298831000Y-192786000D02*
X303022000Y-188595000D01*
%TO.N,/Relay_SetCoil25*%
X280289000Y-168910000D02*
X280289000Y-170434000D01*
X287274000Y-188595000D02*
X283083000Y-192786000D01*
X288671000Y-187960000D02*
X288036000Y-188595000D01*
X280289000Y-170434000D02*
X288671000Y-178816000D01*
X288671000Y-178816000D02*
X288671000Y-187960000D01*
X288036000Y-188595000D02*
X287274000Y-188595000D01*
%TO.N,/Relay_ResetCoil32*%
X318262000Y-171577000D02*
X321437000Y-174752000D01*
X322453000Y-180594000D02*
X322453000Y-188087000D01*
X325120000Y-190754000D02*
X325120000Y-202565000D01*
X318262000Y-168910000D02*
X318262000Y-171577000D01*
X321437000Y-174752000D02*
X321437000Y-179578000D01*
X321437000Y-179578000D02*
X322453000Y-180594000D01*
X322453000Y-188087000D02*
X325120000Y-190754000D01*
%TO.N,/Relay_ResetCoil31*%
X309372000Y-190754000D02*
X309372000Y-202565000D01*
X313309000Y-165227000D02*
X305943000Y-172593000D01*
X306705000Y-180975000D02*
X306705000Y-188087000D01*
X305943000Y-180213000D02*
X306705000Y-180975000D01*
X305943000Y-172593000D02*
X305943000Y-180213000D01*
X306705000Y-188087000D02*
X309372000Y-190754000D01*
%TO.N,/Relay_ResetCoil30*%
X290068000Y-177927000D02*
X290068000Y-179832000D01*
X290957000Y-180721000D02*
X290957000Y-188087000D01*
X281432000Y-168910000D02*
X281432000Y-169291000D01*
X293624000Y-190754000D02*
X293624000Y-202565000D01*
X281432000Y-169291000D02*
X290068000Y-177927000D01*
X290957000Y-188087000D02*
X293624000Y-190754000D01*
X290068000Y-179832000D02*
X290957000Y-180721000D01*
%TO.N,/Relay_ResetCoil29*%
X276542500Y-165036500D02*
X274574000Y-167005000D01*
X275209000Y-188087000D02*
X277876000Y-190754000D01*
X277876000Y-190754000D02*
X277876000Y-202565000D01*
X274574000Y-180213000D02*
X275209000Y-180848000D01*
X274574000Y-167005000D02*
X274574000Y-180213000D01*
X275209000Y-180848000D02*
X275209000Y-188087000D01*
%TO.N,/Relay_ResetCoil28*%
X329311000Y-191262000D02*
X334010000Y-186563000D01*
X323977000Y-165608000D02*
X321056000Y-165608000D01*
X334010000Y-182372000D02*
X332740000Y-181102000D01*
X329311000Y-199898000D02*
X329311000Y-191262000D01*
X332740000Y-181102000D02*
X332740000Y-174371000D01*
X334010000Y-186563000D02*
X334010000Y-182372000D01*
X332740000Y-174371000D02*
X323977000Y-165608000D01*
X331978000Y-202565000D02*
X329311000Y-199898000D01*
%TO.N,/Relay_ResetCoil27*%
X318262000Y-186563000D02*
X318262000Y-175641000D01*
X313563000Y-191262000D02*
X318262000Y-186563000D01*
X316103000Y-173482000D02*
X316103000Y-168275000D01*
X318262000Y-175641000D02*
X316103000Y-173482000D01*
X316230000Y-202565000D02*
X313563000Y-199898000D01*
X313563000Y-199898000D02*
X313563000Y-191262000D01*
%TO.N,/Relay_ResetCoil26*%
X300482000Y-202565000D02*
X297815000Y-199898000D01*
X297815000Y-191262000D02*
X302514000Y-186563000D01*
X302514000Y-179578000D02*
X288417000Y-165481000D01*
X297815000Y-199898000D02*
X297815000Y-191262000D01*
X288417000Y-165481000D02*
X284099000Y-165481000D01*
X302514000Y-186563000D02*
X302514000Y-179578000D01*
%TO.N,/Relay_ResetCoil25*%
X279273000Y-173482000D02*
X279273000Y-168275000D01*
X284734000Y-202565000D02*
X282067000Y-199898000D01*
X286766000Y-186563000D02*
X286766000Y-180975000D01*
X282067000Y-199898000D02*
X282067000Y-191262000D01*
X279273000Y-173482000D02*
X286766000Y-180975000D01*
X282067000Y-191262000D02*
X286766000Y-186563000D01*
D28*
%TO.N,MAX4896_~{Flag}*%
X129159000Y-162560000D02*
X129413000Y-162814000D01*
X145034000Y-162941000D02*
X165608000Y-162941000D01*
X314833000Y-163068000D02*
X315214000Y-162687000D01*
X139700000Y-162687000D02*
X144780000Y-162687000D01*
X170688000Y-162687000D02*
X171069000Y-163068000D01*
X171069000Y-163068000D02*
X188214000Y-163068000D01*
X283464000Y-162687000D02*
X283845000Y-163068000D01*
X283845000Y-163068000D02*
X314833000Y-163068000D01*
X193421000Y-162687000D02*
X193802000Y-163068000D01*
X278003000Y-163068000D02*
X278384000Y-162687000D01*
X165608000Y-162941000D02*
X165862000Y-162687000D01*
X188595000Y-162687000D02*
X193421000Y-162687000D01*
X129413000Y-162814000D02*
X139573000Y-162814000D01*
X232410000Y-162687000D02*
X232791000Y-163068000D01*
X193802000Y-163068000D02*
X227203000Y-163068000D01*
X253746000Y-162687000D02*
X258572000Y-162687000D01*
X144780000Y-162687000D02*
X145034000Y-162941000D01*
X227584000Y-162687000D02*
X232410000Y-162687000D01*
X125476000Y-162560000D02*
X129159000Y-162560000D01*
X258572000Y-162687000D02*
X258953000Y-163068000D01*
X165862000Y-162687000D02*
X170688000Y-162687000D01*
X253365000Y-163068000D02*
X253746000Y-162687000D01*
X232791000Y-163068000D02*
X253365000Y-163068000D01*
X278384000Y-162687000D02*
X283464000Y-162687000D01*
X258953000Y-163068000D02*
X278003000Y-163068000D01*
X139573000Y-162814000D02*
X139700000Y-162687000D01*
X227203000Y-163068000D02*
X227584000Y-162687000D01*
X188214000Y-163068000D02*
X188595000Y-162687000D01*
%TO.N,/ADC_VCM1*%
X87757000Y-176784000D02*
X88392000Y-176784000D01*
X85471000Y-180340000D02*
X85471000Y-179070000D01*
X85471000Y-179070000D02*
X87757000Y-176784000D01*
%TO.N,Net-(U17-DOUT)*%
X145669000Y-162306000D02*
X164719000Y-162306000D01*
X164719000Y-162306000D02*
X165227000Y-161798000D01*
X165227000Y-161798000D02*
X167513000Y-161798000D01*
X167513000Y-161798000D02*
X168402000Y-160909000D01*
D29*
%TO.N,P1_2P5V*%
X313182500Y-125984000D02*
X313499500Y-125667000D01*
X289433000Y-127381000D02*
X290830000Y-125984000D01*
X229489000Y-133477000D02*
X231013000Y-135001000D01*
X287909000Y-134747000D02*
X289433000Y-133223000D01*
X224790000Y-133477000D02*
X229489000Y-133477000D01*
X290830000Y-125984000D02*
X313182500Y-125984000D01*
X223647000Y-134620000D02*
X224790000Y-133477000D01*
X289433000Y-133223000D02*
X289433000Y-127381000D01*
X238379000Y-134747000D02*
X268732000Y-134747000D01*
X269621000Y-133858000D02*
X273558000Y-133858000D01*
X238125000Y-135001000D02*
X238379000Y-134747000D01*
X231013000Y-135001000D02*
X238125000Y-135001000D01*
X205613000Y-134620000D02*
X223647000Y-134620000D01*
X268732000Y-134747000D02*
X269621000Y-133858000D01*
X274447000Y-134747000D02*
X287909000Y-134747000D01*
X273558000Y-133858000D02*
X274447000Y-134747000D01*
D28*
%TO.N,Net-(U18-DOUT)*%
X277876000Y-161671000D02*
X280162000Y-161671000D01*
X280162000Y-161671000D02*
X280924000Y-160909000D01*
X259715000Y-162306000D02*
X277241000Y-162306000D01*
X277241000Y-162306000D02*
X277876000Y-161671000D01*
%TO.N,Net-(U15-DOUT)*%
X253365000Y-161671000D02*
X255524000Y-161671000D01*
X233553000Y-162306000D02*
X252730000Y-162306000D01*
X255524000Y-161671000D02*
X256286000Y-160909000D01*
X252730000Y-162306000D02*
X253365000Y-161671000D01*
%TO.N,Net-(U15-DIN)*%
X226949000Y-161798000D02*
X229235000Y-161798000D01*
X229235000Y-161798000D02*
X230124000Y-160909000D01*
X194564000Y-162306000D02*
X226441000Y-162306000D01*
X226441000Y-162306000D02*
X226949000Y-161798000D01*
%TO.N,Net-(U14-DOUT)*%
X141351000Y-161798000D02*
X142240000Y-160909000D01*
X138684000Y-162306000D02*
X139192000Y-161798000D01*
X131572000Y-162306000D02*
X138684000Y-162306000D01*
X139192000Y-161798000D02*
X141351000Y-161798000D01*
X131445000Y-162179000D02*
X131572000Y-162306000D01*
%TO.N,AD7768_SYNC*%
X149987000Y-142240000D02*
X188595000Y-142240000D01*
X196215000Y-143383000D02*
X196977000Y-142621000D01*
X283718000Y-143383000D02*
X282575000Y-144526000D01*
X233299000Y-142621000D02*
X235204000Y-144526000D01*
X148717000Y-143510000D02*
X149987000Y-142240000D01*
X240665000Y-142621000D02*
X239903000Y-143383000D01*
X194945000Y-144653000D02*
X196215000Y-143383000D01*
X191008000Y-144653000D02*
X194945000Y-144653000D01*
X282575000Y-144526000D02*
X278765000Y-144526000D01*
X188595000Y-142240000D02*
X191008000Y-144653000D01*
X235204000Y-144526000D02*
X238760000Y-144526000D01*
X276860000Y-142621000D02*
X240665000Y-142621000D01*
X196977000Y-142621000D02*
X233299000Y-142621000D01*
X278765000Y-144526000D02*
X276860000Y-142621000D01*
X238760000Y-144526000D02*
X239903000Y-143383000D01*
D29*
%TO.N,/Housekeeping/AD7*%
X144780000Y-136271000D02*
X144780000Y-125730000D01*
X270256000Y-134747000D02*
X269240000Y-135763000D01*
X224409000Y-135763000D02*
X186055000Y-135763000D01*
X230251000Y-135763000D02*
X229108000Y-134620000D01*
X141986000Y-122936000D02*
X141986000Y-122682000D01*
X288417000Y-135763000D02*
X274066000Y-135763000D01*
X155575000Y-135001000D02*
X154559000Y-133985000D01*
X269240000Y-135763000D02*
X230251000Y-135763000D01*
X149225000Y-137922000D02*
X146431000Y-137922000D01*
X186055000Y-135763000D02*
X185293000Y-135001000D01*
X146431000Y-137922000D02*
X144780000Y-136271000D01*
X291465000Y-130302000D02*
X290322000Y-131445000D01*
X290322000Y-133858000D02*
X288417000Y-135763000D01*
X153162000Y-133985000D02*
X149225000Y-137922000D01*
X185293000Y-135001000D02*
X155575000Y-135001000D01*
X274066000Y-135763000D02*
X273050000Y-134747000D01*
X154559000Y-133985000D02*
X153162000Y-133985000D01*
X303657000Y-130302000D02*
X291465000Y-130302000D01*
X225552000Y-134620000D02*
X224409000Y-135763000D01*
X290322000Y-131445000D02*
X290322000Y-133858000D01*
X273050000Y-134747000D02*
X270256000Y-134747000D01*
X318389000Y-131191000D02*
X304546000Y-131191000D01*
X144780000Y-125730000D02*
X141986000Y-122936000D01*
X229108000Y-134620000D02*
X225552000Y-134620000D01*
X304546000Y-131191000D02*
X303657000Y-130302000D01*
%TD*%
D31*
X280820000Y-91488000D02*
X280820000Y-112488000D01*
X83820000Y-112488000D02*
X83820000Y-221488000D01*
X83820000Y-221488000D02*
X337820000Y-221488000D01*
X280820000Y-91488000D02*
X140820000Y-91488000D01*
X280820000Y-112488000D02*
X337820000Y-112488000D01*
X337820000Y-112488000D02*
X337820000Y-221488000D01*
X140820000Y-112488000D02*
X83820000Y-112488000D01*
X140820000Y-91488000D02*
X140820000Y-112488000D01*
M02*
