%TF.GenerationSoftware,KiCad,Pcbnew,7.0.10*%
%TF.CreationDate,2024-02-23T14:23:56-08:00*%
%TF.ProjectId,Quartz_v1p2,51756172-747a-45f7-9631-70322e6b6963,rev?*%
%TF.SameCoordinates,Original*%
%TF.FileFunction,Soldermask,Top*%
%TF.FilePolarity,Negative*%
%FSLAX46Y46*%
G04 Gerber Fmt 4.6, Leading zero omitted, Abs format (unit mm)*
G04 Created by KiCad (PCBNEW 7.0.10) date 2024-02-23 14:23:56*
%MOMM*%
%LPD*%
G01*
G04 APERTURE LIST*
G04 Aperture macros list*
%AMRoundRect*
0 Rectangle with rounded corners*
0 $1 Rounding radius*
0 $2 $3 $4 $5 $6 $7 $8 $9 X,Y pos of 4 corners*
0 Add a 4 corners polygon primitive as box body*
4,1,4,$2,$3,$4,$5,$6,$7,$8,$9,$2,$3,0*
0 Add four circle primitives for the rounded corners*
1,1,$1+$1,$2,$3*
1,1,$1+$1,$4,$5*
1,1,$1+$1,$6,$7*
1,1,$1+$1,$8,$9*
0 Add four rect primitives between the rounded corners*
20,1,$1+$1,$2,$3,$4,$5,0*
20,1,$1+$1,$4,$5,$6,$7,0*
20,1,$1+$1,$6,$7,$8,$9,0*
20,1,$1+$1,$8,$9,$2,$3,0*%
G04 Aperture macros list end*
%ADD10C,0.100000*%
%ADD11C,0.150000*%
%ADD12C,0.300000*%
%ADD13C,0.400000*%
%ADD14RoundRect,0.135000X-0.135000X-0.185000X0.135000X-0.185000X0.135000X0.185000X-0.135000X0.185000X0*%
%ADD15RoundRect,0.140000X-0.140000X-0.170000X0.140000X-0.170000X0.140000X0.170000X-0.140000X0.170000X0*%
%ADD16RoundRect,0.135000X0.135000X0.185000X-0.135000X0.185000X-0.135000X-0.185000X0.135000X-0.185000X0*%
%ADD17RoundRect,0.200000X-0.200000X-0.275000X0.200000X-0.275000X0.200000X0.275000X-0.200000X0.275000X0*%
%ADD18RoundRect,0.147500X0.172500X-0.147500X0.172500X0.147500X-0.172500X0.147500X-0.172500X-0.147500X0*%
%ADD19RoundRect,0.062500X-0.062500X0.325000X-0.062500X-0.325000X0.062500X-0.325000X0.062500X0.325000X0*%
%ADD20RoundRect,0.062500X-0.325000X0.062500X-0.325000X-0.062500X0.325000X-0.062500X0.325000X0.062500X0*%
%ADD21R,1.750000X1.750000*%
%ADD22RoundRect,0.225000X0.250000X-0.225000X0.250000X0.225000X-0.250000X0.225000X-0.250000X-0.225000X0*%
%ADD23RoundRect,0.140000X0.140000X0.170000X-0.140000X0.170000X-0.140000X-0.170000X0.140000X-0.170000X0*%
%ADD24RoundRect,0.140000X0.170000X-0.140000X0.170000X0.140000X-0.170000X0.140000X-0.170000X-0.140000X0*%
%ADD25RoundRect,0.135000X0.185000X-0.135000X0.185000X0.135000X-0.185000X0.135000X-0.185000X-0.135000X0*%
%ADD26RoundRect,0.250000X-0.250000X-0.475000X0.250000X-0.475000X0.250000X0.475000X-0.250000X0.475000X0*%
%ADD27R,0.450000X0.700000*%
%ADD28RoundRect,0.140000X-0.170000X0.140000X-0.170000X-0.140000X0.170000X-0.140000X0.170000X0.140000X0*%
%ADD29RoundRect,0.200000X0.200000X0.275000X-0.200000X0.275000X-0.200000X-0.275000X0.200000X-0.275000X0*%
%ADD30RoundRect,0.249750X1.250250X-0.305250X1.250250X0.305250X-1.250250X0.305250X-1.250250X-0.305250X0*%
%ADD31RoundRect,0.218750X0.218750X0.381250X-0.218750X0.381250X-0.218750X-0.381250X0.218750X-0.381250X0*%
%ADD32C,5.000000*%
%ADD33RoundRect,0.200000X-0.275000X0.200000X-0.275000X-0.200000X0.275000X-0.200000X0.275000X0.200000X0*%
%ADD34RoundRect,0.147500X-0.147500X-0.172500X0.147500X-0.172500X0.147500X0.172500X-0.147500X0.172500X0*%
%ADD35RoundRect,0.150000X0.150000X-0.587500X0.150000X0.587500X-0.150000X0.587500X-0.150000X-0.587500X0*%
%ADD36RoundRect,0.150000X0.512500X0.150000X-0.512500X0.150000X-0.512500X-0.150000X0.512500X-0.150000X0*%
%ADD37RoundRect,0.218750X-0.381250X0.218750X-0.381250X-0.218750X0.381250X-0.218750X0.381250X0.218750X0*%
%ADD38RoundRect,0.250000X0.250000X0.475000X-0.250000X0.475000X-0.250000X-0.475000X0.250000X-0.475000X0*%
%ADD39RoundRect,0.250000X0.475000X-0.250000X0.475000X0.250000X-0.475000X0.250000X-0.475000X-0.250000X0*%
%ADD40RoundRect,0.250000X-0.475000X0.250000X-0.475000X-0.250000X0.475000X-0.250000X0.475000X0.250000X0*%
%ADD41C,1.270000*%
%ADD42C,0.844000*%
%ADD43RoundRect,0.150000X0.825000X0.150000X-0.825000X0.150000X-0.825000X-0.150000X0.825000X-0.150000X0*%
%ADD44RoundRect,0.225000X0.225000X0.250000X-0.225000X0.250000X-0.225000X-0.250000X0.225000X-0.250000X0*%
%ADD45RoundRect,0.062500X-0.062500X0.350000X-0.062500X-0.350000X0.062500X-0.350000X0.062500X0.350000X0*%
%ADD46RoundRect,0.062500X-0.350000X0.062500X-0.350000X-0.062500X0.350000X-0.062500X0.350000X0.062500X0*%
%ADD47R,2.600000X2.600000*%
%ADD48RoundRect,0.250000X-0.625000X0.312500X-0.625000X-0.312500X0.625000X-0.312500X0.625000X0.312500X0*%
%ADD49R,0.450000X0.550000*%
%ADD50C,0.510000*%
%ADD51R,1.900000X1.100000*%
%ADD52RoundRect,0.100000X-0.637500X-0.100000X0.637500X-0.100000X0.637500X0.100000X-0.637500X0.100000X0*%
%ADD53R,0.254000X0.914400*%
%ADD54R,2.463800X1.701800*%
%ADD55RoundRect,0.225000X-0.225000X-0.250000X0.225000X-0.250000X0.225000X0.250000X-0.225000X0.250000X0*%
%ADD56RoundRect,0.135000X-0.185000X0.135000X-0.185000X-0.135000X0.185000X-0.135000X0.185000X0.135000X0*%
%ADD57RoundRect,0.250000X0.262500X0.450000X-0.262500X0.450000X-0.262500X-0.450000X0.262500X-0.450000X0*%
%ADD58C,2.050000*%
%ADD59C,2.250000*%
%ADD60C,2.000000*%
%ADD61C,6.000000*%
%ADD62C,1.651000*%
%ADD63C,3.683000*%
%ADD64R,1.350000X1.350000*%
%ADD65O,1.350000X1.350000*%
%TA.AperFunction,Profile*%
%ADD66C,0.100000*%
%TD*%
G04 APERTURE END LIST*
D10*
D11*
X299989000Y-253002200D02*
X407989000Y-253002200D01*
X407989000Y-285002200D01*
X299989000Y-285002200D01*
X299989000Y-253002200D01*
D10*
D11*
X10000000Y-10000000D02*
X409989000Y-10000000D01*
X409989000Y-287002200D01*
X10000000Y-287002200D01*
X10000000Y-10000000D01*
D10*
D11*
X12000000Y-12000000D02*
X407989000Y-12000000D01*
X407989000Y-285002200D01*
X12000000Y-285002200D01*
X12000000Y-12000000D01*
D10*
D11*
X60000000Y-12000000D02*
X60000000Y-10000000D01*
D10*
D11*
X110000000Y-12000000D02*
X110000000Y-10000000D01*
D10*
D11*
X160000000Y-12000000D02*
X160000000Y-10000000D01*
D10*
D11*
X210000000Y-12000000D02*
X210000000Y-10000000D01*
D10*
D11*
X260000000Y-12000000D02*
X260000000Y-10000000D01*
D10*
D11*
X310000000Y-12000000D02*
X310000000Y-10000000D01*
D10*
D11*
X360000000Y-12000000D02*
X360000000Y-10000000D01*
D10*
D11*
X36089160Y-11593604D02*
X35346303Y-11593604D01*
X35717731Y-11593604D02*
X35717731Y-10293604D01*
X35717731Y-10293604D02*
X35593922Y-10479319D01*
X35593922Y-10479319D02*
X35470112Y-10603128D01*
X35470112Y-10603128D02*
X35346303Y-10665033D01*
D10*
D11*
X85346303Y-10417414D02*
X85408207Y-10355509D01*
X85408207Y-10355509D02*
X85532017Y-10293604D01*
X85532017Y-10293604D02*
X85841541Y-10293604D01*
X85841541Y-10293604D02*
X85965350Y-10355509D01*
X85965350Y-10355509D02*
X86027255Y-10417414D01*
X86027255Y-10417414D02*
X86089160Y-10541223D01*
X86089160Y-10541223D02*
X86089160Y-10665033D01*
X86089160Y-10665033D02*
X86027255Y-10850747D01*
X86027255Y-10850747D02*
X85284398Y-11593604D01*
X85284398Y-11593604D02*
X86089160Y-11593604D01*
D10*
D11*
X135284398Y-10293604D02*
X136089160Y-10293604D01*
X136089160Y-10293604D02*
X135655826Y-10788842D01*
X135655826Y-10788842D02*
X135841541Y-10788842D01*
X135841541Y-10788842D02*
X135965350Y-10850747D01*
X135965350Y-10850747D02*
X136027255Y-10912652D01*
X136027255Y-10912652D02*
X136089160Y-11036461D01*
X136089160Y-11036461D02*
X136089160Y-11345985D01*
X136089160Y-11345985D02*
X136027255Y-11469795D01*
X136027255Y-11469795D02*
X135965350Y-11531700D01*
X135965350Y-11531700D02*
X135841541Y-11593604D01*
X135841541Y-11593604D02*
X135470112Y-11593604D01*
X135470112Y-11593604D02*
X135346303Y-11531700D01*
X135346303Y-11531700D02*
X135284398Y-11469795D01*
D10*
D11*
X185965350Y-10726938D02*
X185965350Y-11593604D01*
X185655826Y-10231700D02*
X185346303Y-11160271D01*
X185346303Y-11160271D02*
X186151064Y-11160271D01*
D10*
D11*
X236027255Y-10293604D02*
X235408207Y-10293604D01*
X235408207Y-10293604D02*
X235346303Y-10912652D01*
X235346303Y-10912652D02*
X235408207Y-10850747D01*
X235408207Y-10850747D02*
X235532017Y-10788842D01*
X235532017Y-10788842D02*
X235841541Y-10788842D01*
X235841541Y-10788842D02*
X235965350Y-10850747D01*
X235965350Y-10850747D02*
X236027255Y-10912652D01*
X236027255Y-10912652D02*
X236089160Y-11036461D01*
X236089160Y-11036461D02*
X236089160Y-11345985D01*
X236089160Y-11345985D02*
X236027255Y-11469795D01*
X236027255Y-11469795D02*
X235965350Y-11531700D01*
X235965350Y-11531700D02*
X235841541Y-11593604D01*
X235841541Y-11593604D02*
X235532017Y-11593604D01*
X235532017Y-11593604D02*
X235408207Y-11531700D01*
X235408207Y-11531700D02*
X235346303Y-11469795D01*
D10*
D11*
X285965350Y-10293604D02*
X285717731Y-10293604D01*
X285717731Y-10293604D02*
X285593922Y-10355509D01*
X285593922Y-10355509D02*
X285532017Y-10417414D01*
X285532017Y-10417414D02*
X285408207Y-10603128D01*
X285408207Y-10603128D02*
X285346303Y-10850747D01*
X285346303Y-10850747D02*
X285346303Y-11345985D01*
X285346303Y-11345985D02*
X285408207Y-11469795D01*
X285408207Y-11469795D02*
X285470112Y-11531700D01*
X285470112Y-11531700D02*
X285593922Y-11593604D01*
X285593922Y-11593604D02*
X285841541Y-11593604D01*
X285841541Y-11593604D02*
X285965350Y-11531700D01*
X285965350Y-11531700D02*
X286027255Y-11469795D01*
X286027255Y-11469795D02*
X286089160Y-11345985D01*
X286089160Y-11345985D02*
X286089160Y-11036461D01*
X286089160Y-11036461D02*
X286027255Y-10912652D01*
X286027255Y-10912652D02*
X285965350Y-10850747D01*
X285965350Y-10850747D02*
X285841541Y-10788842D01*
X285841541Y-10788842D02*
X285593922Y-10788842D01*
X285593922Y-10788842D02*
X285470112Y-10850747D01*
X285470112Y-10850747D02*
X285408207Y-10912652D01*
X285408207Y-10912652D02*
X285346303Y-11036461D01*
D10*
D11*
X335284398Y-10293604D02*
X336151064Y-10293604D01*
X336151064Y-10293604D02*
X335593922Y-11593604D01*
D10*
D11*
X385593922Y-10850747D02*
X385470112Y-10788842D01*
X385470112Y-10788842D02*
X385408207Y-10726938D01*
X385408207Y-10726938D02*
X385346303Y-10603128D01*
X385346303Y-10603128D02*
X385346303Y-10541223D01*
X385346303Y-10541223D02*
X385408207Y-10417414D01*
X385408207Y-10417414D02*
X385470112Y-10355509D01*
X385470112Y-10355509D02*
X385593922Y-10293604D01*
X385593922Y-10293604D02*
X385841541Y-10293604D01*
X385841541Y-10293604D02*
X385965350Y-10355509D01*
X385965350Y-10355509D02*
X386027255Y-10417414D01*
X386027255Y-10417414D02*
X386089160Y-10541223D01*
X386089160Y-10541223D02*
X386089160Y-10603128D01*
X386089160Y-10603128D02*
X386027255Y-10726938D01*
X386027255Y-10726938D02*
X385965350Y-10788842D01*
X385965350Y-10788842D02*
X385841541Y-10850747D01*
X385841541Y-10850747D02*
X385593922Y-10850747D01*
X385593922Y-10850747D02*
X385470112Y-10912652D01*
X385470112Y-10912652D02*
X385408207Y-10974557D01*
X385408207Y-10974557D02*
X385346303Y-11098366D01*
X385346303Y-11098366D02*
X385346303Y-11345985D01*
X385346303Y-11345985D02*
X385408207Y-11469795D01*
X385408207Y-11469795D02*
X385470112Y-11531700D01*
X385470112Y-11531700D02*
X385593922Y-11593604D01*
X385593922Y-11593604D02*
X385841541Y-11593604D01*
X385841541Y-11593604D02*
X385965350Y-11531700D01*
X385965350Y-11531700D02*
X386027255Y-11469795D01*
X386027255Y-11469795D02*
X386089160Y-11345985D01*
X386089160Y-11345985D02*
X386089160Y-11098366D01*
X386089160Y-11098366D02*
X386027255Y-10974557D01*
X386027255Y-10974557D02*
X385965350Y-10912652D01*
X385965350Y-10912652D02*
X385841541Y-10850747D01*
D10*
D11*
X60000000Y-285002200D02*
X60000000Y-287002200D01*
D10*
D11*
X110000000Y-285002200D02*
X110000000Y-287002200D01*
D10*
D11*
X160000000Y-285002200D02*
X160000000Y-287002200D01*
D10*
D11*
X210000000Y-285002200D02*
X210000000Y-287002200D01*
D10*
D11*
X260000000Y-285002200D02*
X260000000Y-287002200D01*
D10*
D11*
X310000000Y-285002200D02*
X310000000Y-287002200D01*
D10*
D11*
X360000000Y-285002200D02*
X360000000Y-287002200D01*
D10*
D11*
X36089160Y-286595804D02*
X35346303Y-286595804D01*
X35717731Y-286595804D02*
X35717731Y-285295804D01*
X35717731Y-285295804D02*
X35593922Y-285481519D01*
X35593922Y-285481519D02*
X35470112Y-285605328D01*
X35470112Y-285605328D02*
X35346303Y-285667233D01*
D10*
D11*
X85346303Y-285419614D02*
X85408207Y-285357709D01*
X85408207Y-285357709D02*
X85532017Y-285295804D01*
X85532017Y-285295804D02*
X85841541Y-285295804D01*
X85841541Y-285295804D02*
X85965350Y-285357709D01*
X85965350Y-285357709D02*
X86027255Y-285419614D01*
X86027255Y-285419614D02*
X86089160Y-285543423D01*
X86089160Y-285543423D02*
X86089160Y-285667233D01*
X86089160Y-285667233D02*
X86027255Y-285852947D01*
X86027255Y-285852947D02*
X85284398Y-286595804D01*
X85284398Y-286595804D02*
X86089160Y-286595804D01*
D10*
D11*
X135284398Y-285295804D02*
X136089160Y-285295804D01*
X136089160Y-285295804D02*
X135655826Y-285791042D01*
X135655826Y-285791042D02*
X135841541Y-285791042D01*
X135841541Y-285791042D02*
X135965350Y-285852947D01*
X135965350Y-285852947D02*
X136027255Y-285914852D01*
X136027255Y-285914852D02*
X136089160Y-286038661D01*
X136089160Y-286038661D02*
X136089160Y-286348185D01*
X136089160Y-286348185D02*
X136027255Y-286471995D01*
X136027255Y-286471995D02*
X135965350Y-286533900D01*
X135965350Y-286533900D02*
X135841541Y-286595804D01*
X135841541Y-286595804D02*
X135470112Y-286595804D01*
X135470112Y-286595804D02*
X135346303Y-286533900D01*
X135346303Y-286533900D02*
X135284398Y-286471995D01*
D10*
D11*
X185965350Y-285729138D02*
X185965350Y-286595804D01*
X185655826Y-285233900D02*
X185346303Y-286162471D01*
X185346303Y-286162471D02*
X186151064Y-286162471D01*
D10*
D11*
X236027255Y-285295804D02*
X235408207Y-285295804D01*
X235408207Y-285295804D02*
X235346303Y-285914852D01*
X235346303Y-285914852D02*
X235408207Y-285852947D01*
X235408207Y-285852947D02*
X235532017Y-285791042D01*
X235532017Y-285791042D02*
X235841541Y-285791042D01*
X235841541Y-285791042D02*
X235965350Y-285852947D01*
X235965350Y-285852947D02*
X236027255Y-285914852D01*
X236027255Y-285914852D02*
X236089160Y-286038661D01*
X236089160Y-286038661D02*
X236089160Y-286348185D01*
X236089160Y-286348185D02*
X236027255Y-286471995D01*
X236027255Y-286471995D02*
X235965350Y-286533900D01*
X235965350Y-286533900D02*
X235841541Y-286595804D01*
X235841541Y-286595804D02*
X235532017Y-286595804D01*
X235532017Y-286595804D02*
X235408207Y-286533900D01*
X235408207Y-286533900D02*
X235346303Y-286471995D01*
D10*
D11*
X285965350Y-285295804D02*
X285717731Y-285295804D01*
X285717731Y-285295804D02*
X285593922Y-285357709D01*
X285593922Y-285357709D02*
X285532017Y-285419614D01*
X285532017Y-285419614D02*
X285408207Y-285605328D01*
X285408207Y-285605328D02*
X285346303Y-285852947D01*
X285346303Y-285852947D02*
X285346303Y-286348185D01*
X285346303Y-286348185D02*
X285408207Y-286471995D01*
X285408207Y-286471995D02*
X285470112Y-286533900D01*
X285470112Y-286533900D02*
X285593922Y-286595804D01*
X285593922Y-286595804D02*
X285841541Y-286595804D01*
X285841541Y-286595804D02*
X285965350Y-286533900D01*
X285965350Y-286533900D02*
X286027255Y-286471995D01*
X286027255Y-286471995D02*
X286089160Y-286348185D01*
X286089160Y-286348185D02*
X286089160Y-286038661D01*
X286089160Y-286038661D02*
X286027255Y-285914852D01*
X286027255Y-285914852D02*
X285965350Y-285852947D01*
X285965350Y-285852947D02*
X285841541Y-285791042D01*
X285841541Y-285791042D02*
X285593922Y-285791042D01*
X285593922Y-285791042D02*
X285470112Y-285852947D01*
X285470112Y-285852947D02*
X285408207Y-285914852D01*
X285408207Y-285914852D02*
X285346303Y-286038661D01*
D10*
D11*
X335284398Y-285295804D02*
X336151064Y-285295804D01*
X336151064Y-285295804D02*
X335593922Y-286595804D01*
D10*
D11*
X385593922Y-285852947D02*
X385470112Y-285791042D01*
X385470112Y-285791042D02*
X385408207Y-285729138D01*
X385408207Y-285729138D02*
X385346303Y-285605328D01*
X385346303Y-285605328D02*
X385346303Y-285543423D01*
X385346303Y-285543423D02*
X385408207Y-285419614D01*
X385408207Y-285419614D02*
X385470112Y-285357709D01*
X385470112Y-285357709D02*
X385593922Y-285295804D01*
X385593922Y-285295804D02*
X385841541Y-285295804D01*
X385841541Y-285295804D02*
X385965350Y-285357709D01*
X385965350Y-285357709D02*
X386027255Y-285419614D01*
X386027255Y-285419614D02*
X386089160Y-285543423D01*
X386089160Y-285543423D02*
X386089160Y-285605328D01*
X386089160Y-285605328D02*
X386027255Y-285729138D01*
X386027255Y-285729138D02*
X385965350Y-285791042D01*
X385965350Y-285791042D02*
X385841541Y-285852947D01*
X385841541Y-285852947D02*
X385593922Y-285852947D01*
X385593922Y-285852947D02*
X385470112Y-285914852D01*
X385470112Y-285914852D02*
X385408207Y-285976757D01*
X385408207Y-285976757D02*
X385346303Y-286100566D01*
X385346303Y-286100566D02*
X385346303Y-286348185D01*
X385346303Y-286348185D02*
X385408207Y-286471995D01*
X385408207Y-286471995D02*
X385470112Y-286533900D01*
X385470112Y-286533900D02*
X385593922Y-286595804D01*
X385593922Y-286595804D02*
X385841541Y-286595804D01*
X385841541Y-286595804D02*
X385965350Y-286533900D01*
X385965350Y-286533900D02*
X386027255Y-286471995D01*
X386027255Y-286471995D02*
X386089160Y-286348185D01*
X386089160Y-286348185D02*
X386089160Y-286100566D01*
X386089160Y-286100566D02*
X386027255Y-285976757D01*
X386027255Y-285976757D02*
X385965350Y-285914852D01*
X385965350Y-285914852D02*
X385841541Y-285852947D01*
D10*
D11*
X10000000Y-60000000D02*
X12000000Y-60000000D01*
D10*
D11*
X10000000Y-110000000D02*
X12000000Y-110000000D01*
D10*
D11*
X10000000Y-160000000D02*
X12000000Y-160000000D01*
D10*
D11*
X10000000Y-210000000D02*
X12000000Y-210000000D01*
D10*
D11*
X10000000Y-260000000D02*
X12000000Y-260000000D01*
D10*
D11*
X10690476Y-35222176D02*
X11309523Y-35222176D01*
X10566666Y-35593604D02*
X10999999Y-34293604D01*
X10999999Y-34293604D02*
X11433333Y-35593604D01*
D10*
D11*
X11092857Y-84912652D02*
X11278571Y-84974557D01*
X11278571Y-84974557D02*
X11340476Y-85036461D01*
X11340476Y-85036461D02*
X11402380Y-85160271D01*
X11402380Y-85160271D02*
X11402380Y-85345985D01*
X11402380Y-85345985D02*
X11340476Y-85469795D01*
X11340476Y-85469795D02*
X11278571Y-85531700D01*
X11278571Y-85531700D02*
X11154761Y-85593604D01*
X11154761Y-85593604D02*
X10659523Y-85593604D01*
X10659523Y-85593604D02*
X10659523Y-84293604D01*
X10659523Y-84293604D02*
X11092857Y-84293604D01*
X11092857Y-84293604D02*
X11216666Y-84355509D01*
X11216666Y-84355509D02*
X11278571Y-84417414D01*
X11278571Y-84417414D02*
X11340476Y-84541223D01*
X11340476Y-84541223D02*
X11340476Y-84665033D01*
X11340476Y-84665033D02*
X11278571Y-84788842D01*
X11278571Y-84788842D02*
X11216666Y-84850747D01*
X11216666Y-84850747D02*
X11092857Y-84912652D01*
X11092857Y-84912652D02*
X10659523Y-84912652D01*
D10*
D11*
X11402380Y-135469795D02*
X11340476Y-135531700D01*
X11340476Y-135531700D02*
X11154761Y-135593604D01*
X11154761Y-135593604D02*
X11030952Y-135593604D01*
X11030952Y-135593604D02*
X10845238Y-135531700D01*
X10845238Y-135531700D02*
X10721428Y-135407890D01*
X10721428Y-135407890D02*
X10659523Y-135284080D01*
X10659523Y-135284080D02*
X10597619Y-135036461D01*
X10597619Y-135036461D02*
X10597619Y-134850747D01*
X10597619Y-134850747D02*
X10659523Y-134603128D01*
X10659523Y-134603128D02*
X10721428Y-134479319D01*
X10721428Y-134479319D02*
X10845238Y-134355509D01*
X10845238Y-134355509D02*
X11030952Y-134293604D01*
X11030952Y-134293604D02*
X11154761Y-134293604D01*
X11154761Y-134293604D02*
X11340476Y-134355509D01*
X11340476Y-134355509D02*
X11402380Y-134417414D01*
D10*
D11*
X10659523Y-185593604D02*
X10659523Y-184293604D01*
X10659523Y-184293604D02*
X10969047Y-184293604D01*
X10969047Y-184293604D02*
X11154761Y-184355509D01*
X11154761Y-184355509D02*
X11278571Y-184479319D01*
X11278571Y-184479319D02*
X11340476Y-184603128D01*
X11340476Y-184603128D02*
X11402380Y-184850747D01*
X11402380Y-184850747D02*
X11402380Y-185036461D01*
X11402380Y-185036461D02*
X11340476Y-185284080D01*
X11340476Y-185284080D02*
X11278571Y-185407890D01*
X11278571Y-185407890D02*
X11154761Y-185531700D01*
X11154761Y-185531700D02*
X10969047Y-185593604D01*
X10969047Y-185593604D02*
X10659523Y-185593604D01*
D10*
D11*
X10721428Y-234912652D02*
X11154762Y-234912652D01*
X11340476Y-235593604D02*
X10721428Y-235593604D01*
X10721428Y-235593604D02*
X10721428Y-234293604D01*
X10721428Y-234293604D02*
X11340476Y-234293604D01*
D10*
D11*
X11185714Y-284912652D02*
X10752380Y-284912652D01*
X10752380Y-285593604D02*
X10752380Y-284293604D01*
X10752380Y-284293604D02*
X11371428Y-284293604D01*
D10*
D11*
X409989000Y-60000000D02*
X407989000Y-60000000D01*
D10*
D11*
X409989000Y-110000000D02*
X407989000Y-110000000D01*
D10*
D11*
X409989000Y-160000000D02*
X407989000Y-160000000D01*
D10*
D11*
X409989000Y-210000000D02*
X407989000Y-210000000D01*
D10*
D11*
X409989000Y-260000000D02*
X407989000Y-260000000D01*
D10*
D11*
X408679476Y-35222176D02*
X409298523Y-35222176D01*
X408555666Y-35593604D02*
X408988999Y-34293604D01*
X408988999Y-34293604D02*
X409422333Y-35593604D01*
D10*
D11*
X409081857Y-84912652D02*
X409267571Y-84974557D01*
X409267571Y-84974557D02*
X409329476Y-85036461D01*
X409329476Y-85036461D02*
X409391380Y-85160271D01*
X409391380Y-85160271D02*
X409391380Y-85345985D01*
X409391380Y-85345985D02*
X409329476Y-85469795D01*
X409329476Y-85469795D02*
X409267571Y-85531700D01*
X409267571Y-85531700D02*
X409143761Y-85593604D01*
X409143761Y-85593604D02*
X408648523Y-85593604D01*
X408648523Y-85593604D02*
X408648523Y-84293604D01*
X408648523Y-84293604D02*
X409081857Y-84293604D01*
X409081857Y-84293604D02*
X409205666Y-84355509D01*
X409205666Y-84355509D02*
X409267571Y-84417414D01*
X409267571Y-84417414D02*
X409329476Y-84541223D01*
X409329476Y-84541223D02*
X409329476Y-84665033D01*
X409329476Y-84665033D02*
X409267571Y-84788842D01*
X409267571Y-84788842D02*
X409205666Y-84850747D01*
X409205666Y-84850747D02*
X409081857Y-84912652D01*
X409081857Y-84912652D02*
X408648523Y-84912652D01*
D10*
D11*
X409391380Y-135469795D02*
X409329476Y-135531700D01*
X409329476Y-135531700D02*
X409143761Y-135593604D01*
X409143761Y-135593604D02*
X409019952Y-135593604D01*
X409019952Y-135593604D02*
X408834238Y-135531700D01*
X408834238Y-135531700D02*
X408710428Y-135407890D01*
X408710428Y-135407890D02*
X408648523Y-135284080D01*
X408648523Y-135284080D02*
X408586619Y-135036461D01*
X408586619Y-135036461D02*
X408586619Y-134850747D01*
X408586619Y-134850747D02*
X408648523Y-134603128D01*
X408648523Y-134603128D02*
X408710428Y-134479319D01*
X408710428Y-134479319D02*
X408834238Y-134355509D01*
X408834238Y-134355509D02*
X409019952Y-134293604D01*
X409019952Y-134293604D02*
X409143761Y-134293604D01*
X409143761Y-134293604D02*
X409329476Y-134355509D01*
X409329476Y-134355509D02*
X409391380Y-134417414D01*
D10*
D11*
X408648523Y-185593604D02*
X408648523Y-184293604D01*
X408648523Y-184293604D02*
X408958047Y-184293604D01*
X408958047Y-184293604D02*
X409143761Y-184355509D01*
X409143761Y-184355509D02*
X409267571Y-184479319D01*
X409267571Y-184479319D02*
X409329476Y-184603128D01*
X409329476Y-184603128D02*
X409391380Y-184850747D01*
X409391380Y-184850747D02*
X409391380Y-185036461D01*
X409391380Y-185036461D02*
X409329476Y-185284080D01*
X409329476Y-185284080D02*
X409267571Y-185407890D01*
X409267571Y-185407890D02*
X409143761Y-185531700D01*
X409143761Y-185531700D02*
X408958047Y-185593604D01*
X408958047Y-185593604D02*
X408648523Y-185593604D01*
D10*
D11*
X408710428Y-234912652D02*
X409143762Y-234912652D01*
X409329476Y-235593604D02*
X408710428Y-235593604D01*
X408710428Y-235593604D02*
X408710428Y-234293604D01*
X408710428Y-234293604D02*
X409329476Y-234293604D01*
D10*
D11*
X409174714Y-284912652D02*
X408741380Y-284912652D01*
X408741380Y-285593604D02*
X408741380Y-284293604D01*
X408741380Y-284293604D02*
X409360428Y-284293604D01*
D10*
D11*
X323444826Y-280788328D02*
X323444826Y-279288328D01*
X323444826Y-279288328D02*
X323801969Y-279288328D01*
X323801969Y-279288328D02*
X324016255Y-279359757D01*
X324016255Y-279359757D02*
X324159112Y-279502614D01*
X324159112Y-279502614D02*
X324230541Y-279645471D01*
X324230541Y-279645471D02*
X324301969Y-279931185D01*
X324301969Y-279931185D02*
X324301969Y-280145471D01*
X324301969Y-280145471D02*
X324230541Y-280431185D01*
X324230541Y-280431185D02*
X324159112Y-280574042D01*
X324159112Y-280574042D02*
X324016255Y-280716900D01*
X324016255Y-280716900D02*
X323801969Y-280788328D01*
X323801969Y-280788328D02*
X323444826Y-280788328D01*
X325587684Y-280788328D02*
X325587684Y-280002614D01*
X325587684Y-280002614D02*
X325516255Y-279859757D01*
X325516255Y-279859757D02*
X325373398Y-279788328D01*
X325373398Y-279788328D02*
X325087684Y-279788328D01*
X325087684Y-279788328D02*
X324944826Y-279859757D01*
X325587684Y-280716900D02*
X325444826Y-280788328D01*
X325444826Y-280788328D02*
X325087684Y-280788328D01*
X325087684Y-280788328D02*
X324944826Y-280716900D01*
X324944826Y-280716900D02*
X324873398Y-280574042D01*
X324873398Y-280574042D02*
X324873398Y-280431185D01*
X324873398Y-280431185D02*
X324944826Y-280288328D01*
X324944826Y-280288328D02*
X325087684Y-280216900D01*
X325087684Y-280216900D02*
X325444826Y-280216900D01*
X325444826Y-280216900D02*
X325587684Y-280145471D01*
X326087684Y-279788328D02*
X326659112Y-279788328D01*
X326301969Y-279288328D02*
X326301969Y-280574042D01*
X326301969Y-280574042D02*
X326373398Y-280716900D01*
X326373398Y-280716900D02*
X326516255Y-280788328D01*
X326516255Y-280788328D02*
X326659112Y-280788328D01*
X327730541Y-280716900D02*
X327587684Y-280788328D01*
X327587684Y-280788328D02*
X327301970Y-280788328D01*
X327301970Y-280788328D02*
X327159112Y-280716900D01*
X327159112Y-280716900D02*
X327087684Y-280574042D01*
X327087684Y-280574042D02*
X327087684Y-280002614D01*
X327087684Y-280002614D02*
X327159112Y-279859757D01*
X327159112Y-279859757D02*
X327301970Y-279788328D01*
X327301970Y-279788328D02*
X327587684Y-279788328D01*
X327587684Y-279788328D02*
X327730541Y-279859757D01*
X327730541Y-279859757D02*
X327801970Y-280002614D01*
X327801970Y-280002614D02*
X327801970Y-280145471D01*
X327801970Y-280145471D02*
X327087684Y-280288328D01*
X328444826Y-280645471D02*
X328516255Y-280716900D01*
X328516255Y-280716900D02*
X328444826Y-280788328D01*
X328444826Y-280788328D02*
X328373398Y-280716900D01*
X328373398Y-280716900D02*
X328444826Y-280645471D01*
X328444826Y-280645471D02*
X328444826Y-280788328D01*
X328444826Y-279859757D02*
X328516255Y-279931185D01*
X328516255Y-279931185D02*
X328444826Y-280002614D01*
X328444826Y-280002614D02*
X328373398Y-279931185D01*
X328373398Y-279931185D02*
X328444826Y-279859757D01*
X328444826Y-279859757D02*
X328444826Y-280002614D01*
D10*
D11*
X299989000Y-281502200D02*
X407989000Y-281502200D01*
D10*
D11*
X301444826Y-283588328D02*
X301444826Y-282088328D01*
X302301969Y-283588328D02*
X301659112Y-282731185D01*
X302301969Y-282088328D02*
X301444826Y-282945471D01*
X302944826Y-283588328D02*
X302944826Y-282588328D01*
X302944826Y-282088328D02*
X302873398Y-282159757D01*
X302873398Y-282159757D02*
X302944826Y-282231185D01*
X302944826Y-282231185D02*
X303016255Y-282159757D01*
X303016255Y-282159757D02*
X302944826Y-282088328D01*
X302944826Y-282088328D02*
X302944826Y-282231185D01*
X304516255Y-283445471D02*
X304444827Y-283516900D01*
X304444827Y-283516900D02*
X304230541Y-283588328D01*
X304230541Y-283588328D02*
X304087684Y-283588328D01*
X304087684Y-283588328D02*
X303873398Y-283516900D01*
X303873398Y-283516900D02*
X303730541Y-283374042D01*
X303730541Y-283374042D02*
X303659112Y-283231185D01*
X303659112Y-283231185D02*
X303587684Y-282945471D01*
X303587684Y-282945471D02*
X303587684Y-282731185D01*
X303587684Y-282731185D02*
X303659112Y-282445471D01*
X303659112Y-282445471D02*
X303730541Y-282302614D01*
X303730541Y-282302614D02*
X303873398Y-282159757D01*
X303873398Y-282159757D02*
X304087684Y-282088328D01*
X304087684Y-282088328D02*
X304230541Y-282088328D01*
X304230541Y-282088328D02*
X304444827Y-282159757D01*
X304444827Y-282159757D02*
X304516255Y-282231185D01*
X305801970Y-283588328D02*
X305801970Y-282802614D01*
X305801970Y-282802614D02*
X305730541Y-282659757D01*
X305730541Y-282659757D02*
X305587684Y-282588328D01*
X305587684Y-282588328D02*
X305301970Y-282588328D01*
X305301970Y-282588328D02*
X305159112Y-282659757D01*
X305801970Y-283516900D02*
X305659112Y-283588328D01*
X305659112Y-283588328D02*
X305301970Y-283588328D01*
X305301970Y-283588328D02*
X305159112Y-283516900D01*
X305159112Y-283516900D02*
X305087684Y-283374042D01*
X305087684Y-283374042D02*
X305087684Y-283231185D01*
X305087684Y-283231185D02*
X305159112Y-283088328D01*
X305159112Y-283088328D02*
X305301970Y-283016900D01*
X305301970Y-283016900D02*
X305659112Y-283016900D01*
X305659112Y-283016900D02*
X305801970Y-282945471D01*
X307159113Y-283588328D02*
X307159113Y-282088328D01*
X307159113Y-283516900D02*
X307016255Y-283588328D01*
X307016255Y-283588328D02*
X306730541Y-283588328D01*
X306730541Y-283588328D02*
X306587684Y-283516900D01*
X306587684Y-283516900D02*
X306516255Y-283445471D01*
X306516255Y-283445471D02*
X306444827Y-283302614D01*
X306444827Y-283302614D02*
X306444827Y-282874042D01*
X306444827Y-282874042D02*
X306516255Y-282731185D01*
X306516255Y-282731185D02*
X306587684Y-282659757D01*
X306587684Y-282659757D02*
X306730541Y-282588328D01*
X306730541Y-282588328D02*
X307016255Y-282588328D01*
X307016255Y-282588328D02*
X307159113Y-282659757D01*
X309016255Y-282802614D02*
X309516255Y-282802614D01*
X309730541Y-283588328D02*
X309016255Y-283588328D01*
X309016255Y-283588328D02*
X309016255Y-282088328D01*
X309016255Y-282088328D02*
X309730541Y-282088328D01*
X310373398Y-283445471D02*
X310444827Y-283516900D01*
X310444827Y-283516900D02*
X310373398Y-283588328D01*
X310373398Y-283588328D02*
X310301970Y-283516900D01*
X310301970Y-283516900D02*
X310373398Y-283445471D01*
X310373398Y-283445471D02*
X310373398Y-283588328D01*
X311087684Y-283588328D02*
X311087684Y-282088328D01*
X311087684Y-282088328D02*
X311444827Y-282088328D01*
X311444827Y-282088328D02*
X311659113Y-282159757D01*
X311659113Y-282159757D02*
X311801970Y-282302614D01*
X311801970Y-282302614D02*
X311873399Y-282445471D01*
X311873399Y-282445471D02*
X311944827Y-282731185D01*
X311944827Y-282731185D02*
X311944827Y-282945471D01*
X311944827Y-282945471D02*
X311873399Y-283231185D01*
X311873399Y-283231185D02*
X311801970Y-283374042D01*
X311801970Y-283374042D02*
X311659113Y-283516900D01*
X311659113Y-283516900D02*
X311444827Y-283588328D01*
X311444827Y-283588328D02*
X311087684Y-283588328D01*
X312587684Y-283445471D02*
X312659113Y-283516900D01*
X312659113Y-283516900D02*
X312587684Y-283588328D01*
X312587684Y-283588328D02*
X312516256Y-283516900D01*
X312516256Y-283516900D02*
X312587684Y-283445471D01*
X312587684Y-283445471D02*
X312587684Y-283588328D01*
X313230542Y-283159757D02*
X313944828Y-283159757D01*
X313087685Y-283588328D02*
X313587685Y-282088328D01*
X313587685Y-282088328D02*
X314087685Y-283588328D01*
X314587684Y-283445471D02*
X314659113Y-283516900D01*
X314659113Y-283516900D02*
X314587684Y-283588328D01*
X314587684Y-283588328D02*
X314516256Y-283516900D01*
X314516256Y-283516900D02*
X314587684Y-283445471D01*
X314587684Y-283445471D02*
X314587684Y-283588328D01*
X317587684Y-283588328D02*
X317587684Y-282088328D01*
X317730542Y-283016900D02*
X318159113Y-283588328D01*
X318159113Y-282588328D02*
X317587684Y-283159757D01*
X318801970Y-283588328D02*
X318801970Y-282588328D01*
X318801970Y-282088328D02*
X318730542Y-282159757D01*
X318730542Y-282159757D02*
X318801970Y-282231185D01*
X318801970Y-282231185D02*
X318873399Y-282159757D01*
X318873399Y-282159757D02*
X318801970Y-282088328D01*
X318801970Y-282088328D02*
X318801970Y-282231185D01*
X320159114Y-283516900D02*
X320016256Y-283588328D01*
X320016256Y-283588328D02*
X319730542Y-283588328D01*
X319730542Y-283588328D02*
X319587685Y-283516900D01*
X319587685Y-283516900D02*
X319516256Y-283445471D01*
X319516256Y-283445471D02*
X319444828Y-283302614D01*
X319444828Y-283302614D02*
X319444828Y-282874042D01*
X319444828Y-282874042D02*
X319516256Y-282731185D01*
X319516256Y-282731185D02*
X319587685Y-282659757D01*
X319587685Y-282659757D02*
X319730542Y-282588328D01*
X319730542Y-282588328D02*
X320016256Y-282588328D01*
X320016256Y-282588328D02*
X320159114Y-282659757D01*
X321444828Y-283588328D02*
X321444828Y-282802614D01*
X321444828Y-282802614D02*
X321373399Y-282659757D01*
X321373399Y-282659757D02*
X321230542Y-282588328D01*
X321230542Y-282588328D02*
X320944828Y-282588328D01*
X320944828Y-282588328D02*
X320801970Y-282659757D01*
X321444828Y-283516900D02*
X321301970Y-283588328D01*
X321301970Y-283588328D02*
X320944828Y-283588328D01*
X320944828Y-283588328D02*
X320801970Y-283516900D01*
X320801970Y-283516900D02*
X320730542Y-283374042D01*
X320730542Y-283374042D02*
X320730542Y-283231185D01*
X320730542Y-283231185D02*
X320801970Y-283088328D01*
X320801970Y-283088328D02*
X320944828Y-283016900D01*
X320944828Y-283016900D02*
X321301970Y-283016900D01*
X321301970Y-283016900D02*
X321444828Y-282945471D01*
X322801971Y-283588328D02*
X322801971Y-282088328D01*
X322801971Y-283516900D02*
X322659113Y-283588328D01*
X322659113Y-283588328D02*
X322373399Y-283588328D01*
X322373399Y-283588328D02*
X322230542Y-283516900D01*
X322230542Y-283516900D02*
X322159113Y-283445471D01*
X322159113Y-283445471D02*
X322087685Y-283302614D01*
X322087685Y-283302614D02*
X322087685Y-282874042D01*
X322087685Y-282874042D02*
X322159113Y-282731185D01*
X322159113Y-282731185D02*
X322230542Y-282659757D01*
X322230542Y-282659757D02*
X322373399Y-282588328D01*
X322373399Y-282588328D02*
X322659113Y-282588328D01*
X322659113Y-282588328D02*
X322801971Y-282659757D01*
X324516256Y-282088328D02*
X325516256Y-282088328D01*
X325516256Y-282088328D02*
X324873399Y-283588328D01*
X326087684Y-283445471D02*
X326159113Y-283516900D01*
X326159113Y-283516900D02*
X326087684Y-283588328D01*
X326087684Y-283588328D02*
X326016256Y-283516900D01*
X326016256Y-283516900D02*
X326087684Y-283445471D01*
X326087684Y-283445471D02*
X326087684Y-283588328D01*
X327087685Y-282088328D02*
X327230542Y-282088328D01*
X327230542Y-282088328D02*
X327373399Y-282159757D01*
X327373399Y-282159757D02*
X327444828Y-282231185D01*
X327444828Y-282231185D02*
X327516256Y-282374042D01*
X327516256Y-282374042D02*
X327587685Y-282659757D01*
X327587685Y-282659757D02*
X327587685Y-283016900D01*
X327587685Y-283016900D02*
X327516256Y-283302614D01*
X327516256Y-283302614D02*
X327444828Y-283445471D01*
X327444828Y-283445471D02*
X327373399Y-283516900D01*
X327373399Y-283516900D02*
X327230542Y-283588328D01*
X327230542Y-283588328D02*
X327087685Y-283588328D01*
X327087685Y-283588328D02*
X326944828Y-283516900D01*
X326944828Y-283516900D02*
X326873399Y-283445471D01*
X326873399Y-283445471D02*
X326801970Y-283302614D01*
X326801970Y-283302614D02*
X326730542Y-283016900D01*
X326730542Y-283016900D02*
X326730542Y-282659757D01*
X326730542Y-282659757D02*
X326801970Y-282374042D01*
X326801970Y-282374042D02*
X326873399Y-282231185D01*
X326873399Y-282231185D02*
X326944828Y-282159757D01*
X326944828Y-282159757D02*
X327087685Y-282088328D01*
X328230541Y-283445471D02*
X328301970Y-283516900D01*
X328301970Y-283516900D02*
X328230541Y-283588328D01*
X328230541Y-283588328D02*
X328159113Y-283516900D01*
X328159113Y-283516900D02*
X328230541Y-283445471D01*
X328230541Y-283445471D02*
X328230541Y-283588328D01*
X329730542Y-283588328D02*
X328873399Y-283588328D01*
X329301970Y-283588328D02*
X329301970Y-282088328D01*
X329301970Y-282088328D02*
X329159113Y-282302614D01*
X329159113Y-282302614D02*
X329016256Y-282445471D01*
X329016256Y-282445471D02*
X328873399Y-282516900D01*
X330659113Y-282088328D02*
X330801970Y-282088328D01*
X330801970Y-282088328D02*
X330944827Y-282159757D01*
X330944827Y-282159757D02*
X331016256Y-282231185D01*
X331016256Y-282231185D02*
X331087684Y-282374042D01*
X331087684Y-282374042D02*
X331159113Y-282659757D01*
X331159113Y-282659757D02*
X331159113Y-283016900D01*
X331159113Y-283016900D02*
X331087684Y-283302614D01*
X331087684Y-283302614D02*
X331016256Y-283445471D01*
X331016256Y-283445471D02*
X330944827Y-283516900D01*
X330944827Y-283516900D02*
X330801970Y-283588328D01*
X330801970Y-283588328D02*
X330659113Y-283588328D01*
X330659113Y-283588328D02*
X330516256Y-283516900D01*
X330516256Y-283516900D02*
X330444827Y-283445471D01*
X330444827Y-283445471D02*
X330373398Y-283302614D01*
X330373398Y-283302614D02*
X330301970Y-283016900D01*
X330301970Y-283016900D02*
X330301970Y-282659757D01*
X330301970Y-282659757D02*
X330373398Y-282374042D01*
X330373398Y-282374042D02*
X330444827Y-282231185D01*
X330444827Y-282231185D02*
X330516256Y-282159757D01*
X330516256Y-282159757D02*
X330659113Y-282088328D01*
D10*
D11*
X299989000Y-278502200D02*
X407989000Y-278502200D01*
D10*
D12*
X387400653Y-280780528D02*
X386900653Y-280066242D01*
X386543510Y-280780528D02*
X386543510Y-279280528D01*
X386543510Y-279280528D02*
X387114939Y-279280528D01*
X387114939Y-279280528D02*
X387257796Y-279351957D01*
X387257796Y-279351957D02*
X387329225Y-279423385D01*
X387329225Y-279423385D02*
X387400653Y-279566242D01*
X387400653Y-279566242D02*
X387400653Y-279780528D01*
X387400653Y-279780528D02*
X387329225Y-279923385D01*
X387329225Y-279923385D02*
X387257796Y-279994814D01*
X387257796Y-279994814D02*
X387114939Y-280066242D01*
X387114939Y-280066242D02*
X386543510Y-280066242D01*
X388614939Y-280709100D02*
X388472082Y-280780528D01*
X388472082Y-280780528D02*
X388186368Y-280780528D01*
X388186368Y-280780528D02*
X388043510Y-280709100D01*
X388043510Y-280709100D02*
X387972082Y-280566242D01*
X387972082Y-280566242D02*
X387972082Y-279994814D01*
X387972082Y-279994814D02*
X388043510Y-279851957D01*
X388043510Y-279851957D02*
X388186368Y-279780528D01*
X388186368Y-279780528D02*
X388472082Y-279780528D01*
X388472082Y-279780528D02*
X388614939Y-279851957D01*
X388614939Y-279851957D02*
X388686368Y-279994814D01*
X388686368Y-279994814D02*
X388686368Y-280137671D01*
X388686368Y-280137671D02*
X387972082Y-280280528D01*
X389186367Y-279780528D02*
X389543510Y-280780528D01*
X389543510Y-280780528D02*
X389900653Y-279780528D01*
X390472081Y-280637671D02*
X390543510Y-280709100D01*
X390543510Y-280709100D02*
X390472081Y-280780528D01*
X390472081Y-280780528D02*
X390400653Y-280709100D01*
X390400653Y-280709100D02*
X390472081Y-280637671D01*
X390472081Y-280637671D02*
X390472081Y-280780528D01*
X390472081Y-279851957D02*
X390543510Y-279923385D01*
X390543510Y-279923385D02*
X390472081Y-279994814D01*
X390472081Y-279994814D02*
X390400653Y-279923385D01*
X390400653Y-279923385D02*
X390472081Y-279851957D01*
X390472081Y-279851957D02*
X390472081Y-279994814D01*
D10*
D11*
X301373398Y-280716900D02*
X301587684Y-280788328D01*
X301587684Y-280788328D02*
X301944826Y-280788328D01*
X301944826Y-280788328D02*
X302087684Y-280716900D01*
X302087684Y-280716900D02*
X302159112Y-280645471D01*
X302159112Y-280645471D02*
X302230541Y-280502614D01*
X302230541Y-280502614D02*
X302230541Y-280359757D01*
X302230541Y-280359757D02*
X302159112Y-280216900D01*
X302159112Y-280216900D02*
X302087684Y-280145471D01*
X302087684Y-280145471D02*
X301944826Y-280074042D01*
X301944826Y-280074042D02*
X301659112Y-280002614D01*
X301659112Y-280002614D02*
X301516255Y-279931185D01*
X301516255Y-279931185D02*
X301444826Y-279859757D01*
X301444826Y-279859757D02*
X301373398Y-279716900D01*
X301373398Y-279716900D02*
X301373398Y-279574042D01*
X301373398Y-279574042D02*
X301444826Y-279431185D01*
X301444826Y-279431185D02*
X301516255Y-279359757D01*
X301516255Y-279359757D02*
X301659112Y-279288328D01*
X301659112Y-279288328D02*
X302016255Y-279288328D01*
X302016255Y-279288328D02*
X302230541Y-279359757D01*
X302873397Y-280788328D02*
X302873397Y-279788328D01*
X302873397Y-279288328D02*
X302801969Y-279359757D01*
X302801969Y-279359757D02*
X302873397Y-279431185D01*
X302873397Y-279431185D02*
X302944826Y-279359757D01*
X302944826Y-279359757D02*
X302873397Y-279288328D01*
X302873397Y-279288328D02*
X302873397Y-279431185D01*
X303444826Y-279788328D02*
X304230541Y-279788328D01*
X304230541Y-279788328D02*
X303444826Y-280788328D01*
X303444826Y-280788328D02*
X304230541Y-280788328D01*
X305373398Y-280716900D02*
X305230541Y-280788328D01*
X305230541Y-280788328D02*
X304944827Y-280788328D01*
X304944827Y-280788328D02*
X304801969Y-280716900D01*
X304801969Y-280716900D02*
X304730541Y-280574042D01*
X304730541Y-280574042D02*
X304730541Y-280002614D01*
X304730541Y-280002614D02*
X304801969Y-279859757D01*
X304801969Y-279859757D02*
X304944827Y-279788328D01*
X304944827Y-279788328D02*
X305230541Y-279788328D01*
X305230541Y-279788328D02*
X305373398Y-279859757D01*
X305373398Y-279859757D02*
X305444827Y-280002614D01*
X305444827Y-280002614D02*
X305444827Y-280145471D01*
X305444827Y-280145471D02*
X304730541Y-280288328D01*
X306087683Y-280645471D02*
X306159112Y-280716900D01*
X306159112Y-280716900D02*
X306087683Y-280788328D01*
X306087683Y-280788328D02*
X306016255Y-280716900D01*
X306016255Y-280716900D02*
X306087683Y-280645471D01*
X306087683Y-280645471D02*
X306087683Y-280788328D01*
X306087683Y-279859757D02*
X306159112Y-279931185D01*
X306159112Y-279931185D02*
X306087683Y-280002614D01*
X306087683Y-280002614D02*
X306016255Y-279931185D01*
X306016255Y-279931185D02*
X306087683Y-279859757D01*
X306087683Y-279859757D02*
X306087683Y-280002614D01*
X307873398Y-280359757D02*
X308587684Y-280359757D01*
X307730541Y-280788328D02*
X308230541Y-279288328D01*
X308230541Y-279288328D02*
X308730541Y-280788328D01*
X309087683Y-279288328D02*
X310016255Y-279288328D01*
X310016255Y-279288328D02*
X309516255Y-279859757D01*
X309516255Y-279859757D02*
X309730540Y-279859757D01*
X309730540Y-279859757D02*
X309873398Y-279931185D01*
X309873398Y-279931185D02*
X309944826Y-280002614D01*
X309944826Y-280002614D02*
X310016255Y-280145471D01*
X310016255Y-280145471D02*
X310016255Y-280502614D01*
X310016255Y-280502614D02*
X309944826Y-280645471D01*
X309944826Y-280645471D02*
X309873398Y-280716900D01*
X309873398Y-280716900D02*
X309730540Y-280788328D01*
X309730540Y-280788328D02*
X309301969Y-280788328D01*
X309301969Y-280788328D02*
X309159112Y-280716900D01*
X309159112Y-280716900D02*
X309087683Y-280645471D01*
D10*
D11*
X386444826Y-283588328D02*
X386444826Y-282088328D01*
X387801970Y-283588328D02*
X387801970Y-282088328D01*
X387801970Y-283516900D02*
X387659112Y-283588328D01*
X387659112Y-283588328D02*
X387373398Y-283588328D01*
X387373398Y-283588328D02*
X387230541Y-283516900D01*
X387230541Y-283516900D02*
X387159112Y-283445471D01*
X387159112Y-283445471D02*
X387087684Y-283302614D01*
X387087684Y-283302614D02*
X387087684Y-282874042D01*
X387087684Y-282874042D02*
X387159112Y-282731185D01*
X387159112Y-282731185D02*
X387230541Y-282659757D01*
X387230541Y-282659757D02*
X387373398Y-282588328D01*
X387373398Y-282588328D02*
X387659112Y-282588328D01*
X387659112Y-282588328D02*
X387801970Y-282659757D01*
X388516255Y-283445471D02*
X388587684Y-283516900D01*
X388587684Y-283516900D02*
X388516255Y-283588328D01*
X388516255Y-283588328D02*
X388444827Y-283516900D01*
X388444827Y-283516900D02*
X388516255Y-283445471D01*
X388516255Y-283445471D02*
X388516255Y-283588328D01*
X388516255Y-282659757D02*
X388587684Y-282731185D01*
X388587684Y-282731185D02*
X388516255Y-282802614D01*
X388516255Y-282802614D02*
X388444827Y-282731185D01*
X388444827Y-282731185D02*
X388516255Y-282659757D01*
X388516255Y-282659757D02*
X388516255Y-282802614D01*
X391159113Y-283588328D02*
X390301970Y-283588328D01*
X390730541Y-283588328D02*
X390730541Y-282088328D01*
X390730541Y-282088328D02*
X390587684Y-282302614D01*
X390587684Y-282302614D02*
X390444827Y-282445471D01*
X390444827Y-282445471D02*
X390301970Y-282516900D01*
X392873398Y-282016900D02*
X391587684Y-283945471D01*
X394159113Y-283588328D02*
X393301970Y-283588328D01*
X393730541Y-283588328D02*
X393730541Y-282088328D01*
X393730541Y-282088328D02*
X393587684Y-282302614D01*
X393587684Y-282302614D02*
X393444827Y-282445471D01*
X393444827Y-282445471D02*
X393301970Y-282516900D01*
D10*
D11*
X299989000Y-274502200D02*
X407989000Y-274502200D01*
D10*
D13*
X301680728Y-275206638D02*
X302823585Y-275206638D01*
X302002157Y-277206638D02*
X302252157Y-275206638D01*
X303240252Y-277206638D02*
X303406919Y-275873304D01*
X303490252Y-275206638D02*
X303383109Y-275301876D01*
X303383109Y-275301876D02*
X303466443Y-275397114D01*
X303466443Y-275397114D02*
X303573586Y-275301876D01*
X303573586Y-275301876D02*
X303490252Y-275206638D01*
X303490252Y-275206638D02*
X303466443Y-275397114D01*
X304073586Y-275873304D02*
X304835490Y-275873304D01*
X304442633Y-275206638D02*
X304228348Y-276920923D01*
X304228348Y-276920923D02*
X304299776Y-277111400D01*
X304299776Y-277111400D02*
X304478348Y-277206638D01*
X304478348Y-277206638D02*
X304668824Y-277206638D01*
X305621205Y-277206638D02*
X305442633Y-277111400D01*
X305442633Y-277111400D02*
X305371205Y-276920923D01*
X305371205Y-276920923D02*
X305585490Y-275206638D01*
X307156919Y-277111400D02*
X306954538Y-277206638D01*
X306954538Y-277206638D02*
X306573585Y-277206638D01*
X306573585Y-277206638D02*
X306395014Y-277111400D01*
X306395014Y-277111400D02*
X306323585Y-276920923D01*
X306323585Y-276920923D02*
X306418824Y-276159019D01*
X306418824Y-276159019D02*
X306537871Y-275968542D01*
X306537871Y-275968542D02*
X306740252Y-275873304D01*
X306740252Y-275873304D02*
X307121204Y-275873304D01*
X307121204Y-275873304D02*
X307299776Y-275968542D01*
X307299776Y-275968542D02*
X307371204Y-276159019D01*
X307371204Y-276159019D02*
X307347395Y-276349495D01*
X307347395Y-276349495D02*
X306371204Y-276539971D01*
X308121205Y-277016161D02*
X308204538Y-277111400D01*
X308204538Y-277111400D02*
X308097395Y-277206638D01*
X308097395Y-277206638D02*
X308014062Y-277111400D01*
X308014062Y-277111400D02*
X308121205Y-277016161D01*
X308121205Y-277016161D02*
X308097395Y-277206638D01*
X308252157Y-275968542D02*
X308335490Y-276063780D01*
X308335490Y-276063780D02*
X308228348Y-276159019D01*
X308228348Y-276159019D02*
X308145014Y-276063780D01*
X308145014Y-276063780D02*
X308252157Y-275968542D01*
X308252157Y-275968542D02*
X308228348Y-276159019D01*
D10*
D11*
X301944826Y-272602614D02*
X301444826Y-272602614D01*
X301444826Y-273388328D02*
X301444826Y-271888328D01*
X301444826Y-271888328D02*
X302159112Y-271888328D01*
X302730540Y-273388328D02*
X302730540Y-272388328D01*
X302730540Y-271888328D02*
X302659112Y-271959757D01*
X302659112Y-271959757D02*
X302730540Y-272031185D01*
X302730540Y-272031185D02*
X302801969Y-271959757D01*
X302801969Y-271959757D02*
X302730540Y-271888328D01*
X302730540Y-271888328D02*
X302730540Y-272031185D01*
X303659112Y-273388328D02*
X303516255Y-273316900D01*
X303516255Y-273316900D02*
X303444826Y-273174042D01*
X303444826Y-273174042D02*
X303444826Y-271888328D01*
X304801969Y-273316900D02*
X304659112Y-273388328D01*
X304659112Y-273388328D02*
X304373398Y-273388328D01*
X304373398Y-273388328D02*
X304230540Y-273316900D01*
X304230540Y-273316900D02*
X304159112Y-273174042D01*
X304159112Y-273174042D02*
X304159112Y-272602614D01*
X304159112Y-272602614D02*
X304230540Y-272459757D01*
X304230540Y-272459757D02*
X304373398Y-272388328D01*
X304373398Y-272388328D02*
X304659112Y-272388328D01*
X304659112Y-272388328D02*
X304801969Y-272459757D01*
X304801969Y-272459757D02*
X304873398Y-272602614D01*
X304873398Y-272602614D02*
X304873398Y-272745471D01*
X304873398Y-272745471D02*
X304159112Y-272888328D01*
X305516254Y-273245471D02*
X305587683Y-273316900D01*
X305587683Y-273316900D02*
X305516254Y-273388328D01*
X305516254Y-273388328D02*
X305444826Y-273316900D01*
X305444826Y-273316900D02*
X305516254Y-273245471D01*
X305516254Y-273245471D02*
X305516254Y-273388328D01*
X305516254Y-272459757D02*
X305587683Y-272531185D01*
X305587683Y-272531185D02*
X305516254Y-272602614D01*
X305516254Y-272602614D02*
X305444826Y-272531185D01*
X305444826Y-272531185D02*
X305516254Y-272459757D01*
X305516254Y-272459757D02*
X305516254Y-272602614D01*
X308373397Y-273531185D02*
X308230540Y-273459757D01*
X308230540Y-273459757D02*
X308087683Y-273316900D01*
X308087683Y-273316900D02*
X307873397Y-273102614D01*
X307873397Y-273102614D02*
X307730540Y-273031185D01*
X307730540Y-273031185D02*
X307587683Y-273031185D01*
X307659112Y-273388328D02*
X307516255Y-273316900D01*
X307516255Y-273316900D02*
X307373397Y-273174042D01*
X307373397Y-273174042D02*
X307301969Y-272888328D01*
X307301969Y-272888328D02*
X307301969Y-272388328D01*
X307301969Y-272388328D02*
X307373397Y-272102614D01*
X307373397Y-272102614D02*
X307516255Y-271959757D01*
X307516255Y-271959757D02*
X307659112Y-271888328D01*
X307659112Y-271888328D02*
X307944826Y-271888328D01*
X307944826Y-271888328D02*
X308087683Y-271959757D01*
X308087683Y-271959757D02*
X308230540Y-272102614D01*
X308230540Y-272102614D02*
X308301969Y-272388328D01*
X308301969Y-272388328D02*
X308301969Y-272888328D01*
X308301969Y-272888328D02*
X308230540Y-273174042D01*
X308230540Y-273174042D02*
X308087683Y-273316900D01*
X308087683Y-273316900D02*
X307944826Y-273388328D01*
X307944826Y-273388328D02*
X307659112Y-273388328D01*
X309587684Y-272388328D02*
X309587684Y-273388328D01*
X308944826Y-272388328D02*
X308944826Y-273174042D01*
X308944826Y-273174042D02*
X309016255Y-273316900D01*
X309016255Y-273316900D02*
X309159112Y-273388328D01*
X309159112Y-273388328D02*
X309373398Y-273388328D01*
X309373398Y-273388328D02*
X309516255Y-273316900D01*
X309516255Y-273316900D02*
X309587684Y-273245471D01*
X310944827Y-273388328D02*
X310944827Y-272602614D01*
X310944827Y-272602614D02*
X310873398Y-272459757D01*
X310873398Y-272459757D02*
X310730541Y-272388328D01*
X310730541Y-272388328D02*
X310444827Y-272388328D01*
X310444827Y-272388328D02*
X310301969Y-272459757D01*
X310944827Y-273316900D02*
X310801969Y-273388328D01*
X310801969Y-273388328D02*
X310444827Y-273388328D01*
X310444827Y-273388328D02*
X310301969Y-273316900D01*
X310301969Y-273316900D02*
X310230541Y-273174042D01*
X310230541Y-273174042D02*
X310230541Y-273031185D01*
X310230541Y-273031185D02*
X310301969Y-272888328D01*
X310301969Y-272888328D02*
X310444827Y-272816900D01*
X310444827Y-272816900D02*
X310801969Y-272816900D01*
X310801969Y-272816900D02*
X310944827Y-272745471D01*
X311659112Y-273388328D02*
X311659112Y-272388328D01*
X311659112Y-272674042D02*
X311730541Y-272531185D01*
X311730541Y-272531185D02*
X311801970Y-272459757D01*
X311801970Y-272459757D02*
X311944827Y-272388328D01*
X311944827Y-272388328D02*
X312087684Y-272388328D01*
X312373398Y-272388328D02*
X312944826Y-272388328D01*
X312587683Y-271888328D02*
X312587683Y-273174042D01*
X312587683Y-273174042D02*
X312659112Y-273316900D01*
X312659112Y-273316900D02*
X312801969Y-273388328D01*
X312801969Y-273388328D02*
X312944826Y-273388328D01*
X313301969Y-272388328D02*
X314087684Y-272388328D01*
X314087684Y-272388328D02*
X313301969Y-273388328D01*
X313301969Y-273388328D02*
X314087684Y-273388328D01*
X314301970Y-273531185D02*
X315444827Y-273531185D01*
X315659112Y-272388328D02*
X316016255Y-273388328D01*
X316016255Y-273388328D02*
X316373398Y-272388328D01*
X317730541Y-273388328D02*
X316873398Y-273388328D01*
X317301969Y-273388328D02*
X317301969Y-271888328D01*
X317301969Y-271888328D02*
X317159112Y-272102614D01*
X317159112Y-272102614D02*
X317016255Y-272245471D01*
X317016255Y-272245471D02*
X316873398Y-272316900D01*
X318373397Y-272388328D02*
X318373397Y-273888328D01*
X318373397Y-272459757D02*
X318516255Y-272388328D01*
X318516255Y-272388328D02*
X318801969Y-272388328D01*
X318801969Y-272388328D02*
X318944826Y-272459757D01*
X318944826Y-272459757D02*
X319016255Y-272531185D01*
X319016255Y-272531185D02*
X319087683Y-272674042D01*
X319087683Y-272674042D02*
X319087683Y-273102614D01*
X319087683Y-273102614D02*
X319016255Y-273245471D01*
X319016255Y-273245471D02*
X318944826Y-273316900D01*
X318944826Y-273316900D02*
X318801969Y-273388328D01*
X318801969Y-273388328D02*
X318516255Y-273388328D01*
X318516255Y-273388328D02*
X318373397Y-273316900D01*
X319659112Y-272031185D02*
X319730540Y-271959757D01*
X319730540Y-271959757D02*
X319873398Y-271888328D01*
X319873398Y-271888328D02*
X320230540Y-271888328D01*
X320230540Y-271888328D02*
X320373398Y-271959757D01*
X320373398Y-271959757D02*
X320444826Y-272031185D01*
X320444826Y-272031185D02*
X320516255Y-272174042D01*
X320516255Y-272174042D02*
X320516255Y-272316900D01*
X320516255Y-272316900D02*
X320444826Y-272531185D01*
X320444826Y-272531185D02*
X319587683Y-273388328D01*
X319587683Y-273388328D02*
X320516255Y-273388328D01*
X321159111Y-273245471D02*
X321230540Y-273316900D01*
X321230540Y-273316900D02*
X321159111Y-273388328D01*
X321159111Y-273388328D02*
X321087683Y-273316900D01*
X321087683Y-273316900D02*
X321159111Y-273245471D01*
X321159111Y-273245471D02*
X321159111Y-273388328D01*
X321873397Y-273388328D02*
X321873397Y-271888328D01*
X322016255Y-272816900D02*
X322444826Y-273388328D01*
X322444826Y-272388328D02*
X321873397Y-272959757D01*
X323087683Y-273388328D02*
X323087683Y-272388328D01*
X323087683Y-271888328D02*
X323016255Y-271959757D01*
X323016255Y-271959757D02*
X323087683Y-272031185D01*
X323087683Y-272031185D02*
X323159112Y-271959757D01*
X323159112Y-271959757D02*
X323087683Y-271888328D01*
X323087683Y-271888328D02*
X323087683Y-272031185D01*
X324444827Y-273316900D02*
X324301969Y-273388328D01*
X324301969Y-273388328D02*
X324016255Y-273388328D01*
X324016255Y-273388328D02*
X323873398Y-273316900D01*
X323873398Y-273316900D02*
X323801969Y-273245471D01*
X323801969Y-273245471D02*
X323730541Y-273102614D01*
X323730541Y-273102614D02*
X323730541Y-272674042D01*
X323730541Y-272674042D02*
X323801969Y-272531185D01*
X323801969Y-272531185D02*
X323873398Y-272459757D01*
X323873398Y-272459757D02*
X324016255Y-272388328D01*
X324016255Y-272388328D02*
X324301969Y-272388328D01*
X324301969Y-272388328D02*
X324444827Y-272459757D01*
X325730541Y-273388328D02*
X325730541Y-272602614D01*
X325730541Y-272602614D02*
X325659112Y-272459757D01*
X325659112Y-272459757D02*
X325516255Y-272388328D01*
X325516255Y-272388328D02*
X325230541Y-272388328D01*
X325230541Y-272388328D02*
X325087683Y-272459757D01*
X325730541Y-273316900D02*
X325587683Y-273388328D01*
X325587683Y-273388328D02*
X325230541Y-273388328D01*
X325230541Y-273388328D02*
X325087683Y-273316900D01*
X325087683Y-273316900D02*
X325016255Y-273174042D01*
X325016255Y-273174042D02*
X325016255Y-273031185D01*
X325016255Y-273031185D02*
X325087683Y-272888328D01*
X325087683Y-272888328D02*
X325230541Y-272816900D01*
X325230541Y-272816900D02*
X325587683Y-272816900D01*
X325587683Y-272816900D02*
X325730541Y-272745471D01*
X327087684Y-273388328D02*
X327087684Y-271888328D01*
X327087684Y-273316900D02*
X326944826Y-273388328D01*
X326944826Y-273388328D02*
X326659112Y-273388328D01*
X326659112Y-273388328D02*
X326516255Y-273316900D01*
X326516255Y-273316900D02*
X326444826Y-273245471D01*
X326444826Y-273245471D02*
X326373398Y-273102614D01*
X326373398Y-273102614D02*
X326373398Y-272674042D01*
X326373398Y-272674042D02*
X326444826Y-272531185D01*
X326444826Y-272531185D02*
X326516255Y-272459757D01*
X326516255Y-272459757D02*
X326659112Y-272388328D01*
X326659112Y-272388328D02*
X326944826Y-272388328D01*
X326944826Y-272388328D02*
X327087684Y-272459757D01*
X327444827Y-273531185D02*
X328587684Y-273531185D01*
X328944826Y-272388328D02*
X328944826Y-273888328D01*
X328944826Y-272459757D02*
X329087684Y-272388328D01*
X329087684Y-272388328D02*
X329373398Y-272388328D01*
X329373398Y-272388328D02*
X329516255Y-272459757D01*
X329516255Y-272459757D02*
X329587684Y-272531185D01*
X329587684Y-272531185D02*
X329659112Y-272674042D01*
X329659112Y-272674042D02*
X329659112Y-273102614D01*
X329659112Y-273102614D02*
X329587684Y-273245471D01*
X329587684Y-273245471D02*
X329516255Y-273316900D01*
X329516255Y-273316900D02*
X329373398Y-273388328D01*
X329373398Y-273388328D02*
X329087684Y-273388328D01*
X329087684Y-273388328D02*
X328944826Y-273316900D01*
X330944827Y-273316900D02*
X330801969Y-273388328D01*
X330801969Y-273388328D02*
X330516255Y-273388328D01*
X330516255Y-273388328D02*
X330373398Y-273316900D01*
X330373398Y-273316900D02*
X330301969Y-273245471D01*
X330301969Y-273245471D02*
X330230541Y-273102614D01*
X330230541Y-273102614D02*
X330230541Y-272674042D01*
X330230541Y-272674042D02*
X330301969Y-272531185D01*
X330301969Y-272531185D02*
X330373398Y-272459757D01*
X330373398Y-272459757D02*
X330516255Y-272388328D01*
X330516255Y-272388328D02*
X330801969Y-272388328D01*
X330801969Y-272388328D02*
X330944827Y-272459757D01*
X331587683Y-273388328D02*
X331587683Y-271888328D01*
X331587683Y-272459757D02*
X331730541Y-272388328D01*
X331730541Y-272388328D02*
X332016255Y-272388328D01*
X332016255Y-272388328D02*
X332159112Y-272459757D01*
X332159112Y-272459757D02*
X332230541Y-272531185D01*
X332230541Y-272531185D02*
X332301969Y-272674042D01*
X332301969Y-272674042D02*
X332301969Y-273102614D01*
X332301969Y-273102614D02*
X332230541Y-273245471D01*
X332230541Y-273245471D02*
X332159112Y-273316900D01*
X332159112Y-273316900D02*
X332016255Y-273388328D01*
X332016255Y-273388328D02*
X331730541Y-273388328D01*
X331730541Y-273388328D02*
X331587683Y-273316900D01*
D10*
D11*
X299989000Y-268502200D02*
X407989000Y-268502200D01*
D10*
D11*
X301373398Y-270616900D02*
X301587684Y-270688328D01*
X301587684Y-270688328D02*
X301944826Y-270688328D01*
X301944826Y-270688328D02*
X302087684Y-270616900D01*
X302087684Y-270616900D02*
X302159112Y-270545471D01*
X302159112Y-270545471D02*
X302230541Y-270402614D01*
X302230541Y-270402614D02*
X302230541Y-270259757D01*
X302230541Y-270259757D02*
X302159112Y-270116900D01*
X302159112Y-270116900D02*
X302087684Y-270045471D01*
X302087684Y-270045471D02*
X301944826Y-269974042D01*
X301944826Y-269974042D02*
X301659112Y-269902614D01*
X301659112Y-269902614D02*
X301516255Y-269831185D01*
X301516255Y-269831185D02*
X301444826Y-269759757D01*
X301444826Y-269759757D02*
X301373398Y-269616900D01*
X301373398Y-269616900D02*
X301373398Y-269474042D01*
X301373398Y-269474042D02*
X301444826Y-269331185D01*
X301444826Y-269331185D02*
X301516255Y-269259757D01*
X301516255Y-269259757D02*
X301659112Y-269188328D01*
X301659112Y-269188328D02*
X302016255Y-269188328D01*
X302016255Y-269188328D02*
X302230541Y-269259757D01*
X302873397Y-270688328D02*
X302873397Y-269188328D01*
X303516255Y-270688328D02*
X303516255Y-269902614D01*
X303516255Y-269902614D02*
X303444826Y-269759757D01*
X303444826Y-269759757D02*
X303301969Y-269688328D01*
X303301969Y-269688328D02*
X303087683Y-269688328D01*
X303087683Y-269688328D02*
X302944826Y-269759757D01*
X302944826Y-269759757D02*
X302873397Y-269831185D01*
X304801969Y-270616900D02*
X304659112Y-270688328D01*
X304659112Y-270688328D02*
X304373398Y-270688328D01*
X304373398Y-270688328D02*
X304230540Y-270616900D01*
X304230540Y-270616900D02*
X304159112Y-270474042D01*
X304159112Y-270474042D02*
X304159112Y-269902614D01*
X304159112Y-269902614D02*
X304230540Y-269759757D01*
X304230540Y-269759757D02*
X304373398Y-269688328D01*
X304373398Y-269688328D02*
X304659112Y-269688328D01*
X304659112Y-269688328D02*
X304801969Y-269759757D01*
X304801969Y-269759757D02*
X304873398Y-269902614D01*
X304873398Y-269902614D02*
X304873398Y-270045471D01*
X304873398Y-270045471D02*
X304159112Y-270188328D01*
X306087683Y-270616900D02*
X305944826Y-270688328D01*
X305944826Y-270688328D02*
X305659112Y-270688328D01*
X305659112Y-270688328D02*
X305516254Y-270616900D01*
X305516254Y-270616900D02*
X305444826Y-270474042D01*
X305444826Y-270474042D02*
X305444826Y-269902614D01*
X305444826Y-269902614D02*
X305516254Y-269759757D01*
X305516254Y-269759757D02*
X305659112Y-269688328D01*
X305659112Y-269688328D02*
X305944826Y-269688328D01*
X305944826Y-269688328D02*
X306087683Y-269759757D01*
X306087683Y-269759757D02*
X306159112Y-269902614D01*
X306159112Y-269902614D02*
X306159112Y-270045471D01*
X306159112Y-270045471D02*
X305444826Y-270188328D01*
X306587683Y-269688328D02*
X307159111Y-269688328D01*
X306801968Y-269188328D02*
X306801968Y-270474042D01*
X306801968Y-270474042D02*
X306873397Y-270616900D01*
X306873397Y-270616900D02*
X307016254Y-270688328D01*
X307016254Y-270688328D02*
X307159111Y-270688328D01*
X307659111Y-270545471D02*
X307730540Y-270616900D01*
X307730540Y-270616900D02*
X307659111Y-270688328D01*
X307659111Y-270688328D02*
X307587683Y-270616900D01*
X307587683Y-270616900D02*
X307659111Y-270545471D01*
X307659111Y-270545471D02*
X307659111Y-270688328D01*
X307659111Y-269759757D02*
X307730540Y-269831185D01*
X307730540Y-269831185D02*
X307659111Y-269902614D01*
X307659111Y-269902614D02*
X307587683Y-269831185D01*
X307587683Y-269831185D02*
X307659111Y-269759757D01*
X307659111Y-269759757D02*
X307659111Y-269902614D01*
D10*
D12*
D10*
D11*
D10*
D11*
D10*
D11*
D10*
D11*
D10*
D11*
X319989000Y-278502200D02*
X319989000Y-281502200D01*
D10*
D11*
X383989000Y-278502200D02*
X383989000Y-285002200D01*
D14*
%TO.C,R1807*%
X229487000Y-180975000D03*
X230507000Y-180975000D03*
%TD*%
D15*
%TO.C,C303*%
X123091000Y-189103000D03*
X124051000Y-189103000D03*
%TD*%
%TO.C,C40*%
X186482000Y-148971000D03*
X187442000Y-148971000D03*
%TD*%
D16*
%TO.C,R2502*%
X277637000Y-189103000D03*
X276617000Y-189103000D03*
%TD*%
D17*
%TO.C,R1004*%
X164542000Y-187833000D03*
X166192000Y-187833000D03*
%TD*%
D14*
%TO.C,R2701*%
X310195000Y-189103000D03*
X311215000Y-189103000D03*
%TD*%
D18*
%TO.C,L1001*%
X171704000Y-183492000D03*
X171704000Y-182522000D03*
%TD*%
D16*
%TO.C,R2705*%
X310263000Y-186436000D03*
X309243000Y-186436000D03*
%TD*%
D19*
%TO.C,U1701*%
X214515000Y-185163500D03*
X215015000Y-185163500D03*
X215515000Y-185163500D03*
X216015000Y-185163500D03*
D20*
X216727500Y-184451000D03*
X216727500Y-183951000D03*
X216727500Y-183451000D03*
X216727500Y-182951000D03*
D19*
X216015000Y-182238500D03*
X215515000Y-182238500D03*
X215015000Y-182238500D03*
X214515000Y-182238500D03*
D20*
X213802500Y-182951000D03*
X213802500Y-183451000D03*
X213802500Y-183951000D03*
X213802500Y-184451000D03*
D21*
X215265000Y-183701000D03*
%TD*%
D22*
%TO.C,C302*%
X120904000Y-207785000D03*
X120904000Y-206235000D03*
%TD*%
D23*
%TO.C,C38*%
X185773000Y-153543000D03*
X184813000Y-153543000D03*
%TD*%
%TO.C,C1705*%
X215745000Y-188087000D03*
X214785000Y-188087000D03*
%TD*%
D24*
%TO.C,C310*%
X123444000Y-185392000D03*
X123444000Y-184432000D03*
%TD*%
D25*
%TO.C,R41*%
X328549000Y-120269000D03*
X328549000Y-119249000D03*
%TD*%
D16*
%TO.C,R1902*%
X246141000Y-189103000D03*
X245121000Y-189103000D03*
%TD*%
D18*
%TO.C,L2001*%
X266191999Y-183492000D03*
X266191999Y-182522000D03*
%TD*%
D22*
%TO.C,C2702*%
X309880000Y-207785000D03*
X309880000Y-206235000D03*
%TD*%
D17*
%TO.C,R904*%
X148794000Y-187833000D03*
X150444000Y-187833000D03*
%TD*%
D24*
%TO.C,C89*%
X320708000Y-139098000D03*
X320708000Y-138138000D03*
%TD*%
D23*
%TO.C,C307*%
X118209000Y-183388000D03*
X117249000Y-183388000D03*
%TD*%
D26*
%TO.C,C128*%
X215839000Y-114554000D03*
X217739000Y-114554000D03*
%TD*%
D16*
%TO.C,R1106*%
X185295000Y-180975000D03*
X184275000Y-180975000D03*
%TD*%
D23*
%TO.C,C905*%
X152753000Y-188087000D03*
X151793000Y-188087000D03*
%TD*%
%TO.C,C1707*%
X212697000Y-183388000D03*
X211737000Y-183388000D03*
%TD*%
D24*
%TO.C,C10*%
X148989000Y-142466000D03*
X148989000Y-141506000D03*
%TD*%
D15*
%TO.C,C46*%
X234615000Y-153162000D03*
X235575000Y-153162000D03*
%TD*%
D16*
%TO.C,R2005*%
X263018999Y-186436000D03*
X261998999Y-186436000D03*
%TD*%
D15*
%TO.C,C2009*%
X258980999Y-184404000D03*
X259940999Y-184404000D03*
%TD*%
D27*
%TO.C,D4*%
X145400000Y-117586000D03*
X146700000Y-117586000D03*
X146050000Y-115586000D03*
%TD*%
D14*
%TO.C,R2501*%
X278699000Y-189103000D03*
X279719000Y-189103000D03*
%TD*%
D23*
%TO.C,C1005*%
X168501000Y-188087000D03*
X167541000Y-188087000D03*
%TD*%
%TO.C,C907*%
X149705000Y-183388000D03*
X148745000Y-183388000D03*
%TD*%
D15*
%TO.C,C41*%
X186482000Y-147955000D03*
X187442000Y-147955000D03*
%TD*%
D28*
%TO.C,C414*%
X133858000Y-185448000D03*
X133858000Y-186408000D03*
%TD*%
D16*
%TO.C,R3*%
X279783000Y-143510000D03*
X278763000Y-143510000D03*
%TD*%
D24*
%TO.C,C906*%
X154940000Y-183487000D03*
X154940000Y-182527000D03*
%TD*%
D16*
%TO.C,R302*%
X120157000Y-189103000D03*
X119137000Y-189103000D03*
%TD*%
D15*
%TO.C,C1104*%
X180254000Y-189103000D03*
X181214000Y-189103000D03*
%TD*%
D26*
%TO.C,C156*%
X106315501Y-147210007D03*
X108215501Y-147210007D03*
%TD*%
D14*
%TO.C,R1801*%
X231455000Y-189103000D03*
X232475000Y-189103000D03*
%TD*%
D29*
%TO.C,R2703*%
X313245000Y-187833000D03*
X311595000Y-187833000D03*
%TD*%
D23*
%TO.C,C1107*%
X181201000Y-183388000D03*
X180241000Y-183388000D03*
%TD*%
D24*
%TO.C,C1010*%
X170688000Y-185392000D03*
X170688000Y-184432000D03*
%TD*%
D30*
%TO.C,K2601*%
X291630000Y-191135000D03*
X291630000Y-196215000D03*
X291630000Y-198755000D03*
X291630000Y-201295000D03*
X291630000Y-203835000D03*
X298920000Y-203835000D03*
X298920000Y-201295000D03*
X298920000Y-198755000D03*
X298920000Y-196215000D03*
X298920000Y-191135000D03*
%TD*%
D31*
%TO.C,L2*%
X217851500Y-112522000D03*
X215726500Y-112522000D03*
%TD*%
D24*
%TO.C,C910*%
X154940000Y-185392000D03*
X154940000Y-184432000D03*
%TD*%
D23*
%TO.C,C43*%
X190998000Y-148971000D03*
X190038000Y-148971000D03*
%TD*%
D22*
%TO.C,C401*%
X139446000Y-207785000D03*
X139446000Y-206235000D03*
%TD*%
D28*
%TO.C,C85*%
X298543000Y-147910000D03*
X298543000Y-148870000D03*
%TD*%
D23*
%TO.C,C1007*%
X165453000Y-183388000D03*
X164493000Y-183388000D03*
%TD*%
D15*
%TO.C,C58*%
X230424000Y-147955000D03*
X231384000Y-147955000D03*
%TD*%
%TO.C,C2803*%
X327815000Y-189103000D03*
X328775000Y-189103000D03*
%TD*%
D30*
%TO.C,K1001*%
X165646000Y-191135000D03*
X165646000Y-196215000D03*
X165646000Y-198755000D03*
X165646000Y-201295000D03*
X165646000Y-203835000D03*
X172936000Y-203835000D03*
X172936000Y-201295000D03*
X172936000Y-198755000D03*
X172936000Y-196215000D03*
X172936000Y-191135000D03*
%TD*%
D16*
%TO.C,R905*%
X152783000Y-186436000D03*
X151763000Y-186436000D03*
%TD*%
D32*
%TO.C,H4*%
X144324000Y-103488000D03*
%TD*%
D33*
%TO.C,R89*%
X104725500Y-145115007D03*
X104725500Y-146765007D03*
%TD*%
D24*
%TO.C,C2810*%
X328168000Y-185392000D03*
X328168000Y-184432000D03*
%TD*%
D14*
%TO.C,R1701*%
X215707000Y-189103000D03*
X216727000Y-189103000D03*
%TD*%
D19*
%TO.C,U1101*%
X183019000Y-185163500D03*
X183519000Y-185163500D03*
X184019000Y-185163500D03*
X184519000Y-185163500D03*
D20*
X185231500Y-184451000D03*
X185231500Y-183951000D03*
X185231500Y-183451000D03*
X185231500Y-182951000D03*
D19*
X184519000Y-182238500D03*
X184019000Y-182238500D03*
X183519000Y-182238500D03*
X183019000Y-182238500D03*
D20*
X182306500Y-182951000D03*
X182306500Y-183451000D03*
X182306500Y-183951000D03*
X182306500Y-184451000D03*
D21*
X183769000Y-183701000D03*
%TD*%
D34*
%TO.C,L402*%
X132992000Y-182372000D03*
X133962000Y-182372000D03*
%TD*%
D16*
%TO.C,R1*%
X191899000Y-143637000D03*
X190879000Y-143637000D03*
%TD*%
D19*
%TO.C,U301*%
X120027000Y-185163500D03*
X120527000Y-185163500D03*
X121027000Y-185163500D03*
X121527000Y-185163500D03*
D20*
X122239500Y-184451000D03*
X122239500Y-183951000D03*
X122239500Y-183451000D03*
X122239500Y-182951000D03*
D19*
X121527000Y-182238500D03*
X121027000Y-182238500D03*
X120527000Y-182238500D03*
X120027000Y-182238500D03*
D20*
X119314500Y-182951000D03*
X119314500Y-183451000D03*
X119314500Y-183951000D03*
X119314500Y-184451000D03*
D21*
X120777000Y-183701000D03*
%TD*%
D30*
%TO.C,K2501*%
X275882000Y-191135000D03*
X275882000Y-196215000D03*
X275882000Y-198755000D03*
X275882000Y-201295000D03*
X275882000Y-203835000D03*
X283172000Y-203835000D03*
X283172000Y-201295000D03*
X283172000Y-198755000D03*
X283172000Y-196215000D03*
X283172000Y-191135000D03*
%TD*%
D35*
%TO.C,U32*%
X142621000Y-115775500D03*
X143571000Y-117650500D03*
X141671000Y-117650500D03*
%TD*%
D19*
%TO.C,U2501*%
X277507000Y-185163500D03*
X278007000Y-185163500D03*
X278507000Y-185163500D03*
X279007000Y-185163500D03*
D20*
X279719500Y-184451000D03*
X279719500Y-183951000D03*
X279719500Y-183451000D03*
X279719500Y-182951000D03*
D19*
X279007000Y-182238500D03*
X278507000Y-182238500D03*
X278007000Y-182238500D03*
X277507000Y-182238500D03*
D20*
X276794500Y-182951000D03*
X276794500Y-183451000D03*
X276794500Y-183951000D03*
X276794500Y-184451000D03*
D21*
X278257000Y-183701000D03*
%TD*%
D16*
%TO.C,R2806*%
X327027000Y-180975000D03*
X326007000Y-180975000D03*
%TD*%
D28*
%TO.C,C5*%
X184549000Y-147348000D03*
X184549000Y-148308000D03*
%TD*%
%TO.C,C119*%
X86614000Y-185448000D03*
X86614000Y-186408000D03*
%TD*%
D34*
%TO.C,L2502*%
X274724000Y-182372000D03*
X275694000Y-182372000D03*
%TD*%
D18*
%TO.C,L103*%
X85598000Y-186413000D03*
X85598000Y-185443000D03*
%TD*%
D19*
%TO.C,U1901*%
X246011000Y-185163500D03*
X246511000Y-185163500D03*
X247011000Y-185163500D03*
X247511000Y-185163500D03*
D20*
X248223500Y-184451000D03*
X248223500Y-183951000D03*
X248223500Y-183451000D03*
X248223500Y-182951000D03*
D19*
X247511000Y-182238500D03*
X247011000Y-182238500D03*
X246511000Y-182238500D03*
X246011000Y-182238500D03*
D20*
X245298500Y-182951000D03*
X245298500Y-183451000D03*
X245298500Y-183951000D03*
X245298500Y-184451000D03*
D21*
X246761000Y-183701000D03*
%TD*%
D14*
%TO.C,R56*%
X180465000Y-120269000D03*
X181485000Y-120269000D03*
%TD*%
D36*
%TO.C,U6*%
X200519500Y-148424000D03*
X200519500Y-147474000D03*
X200519500Y-146524000D03*
X198244500Y-146524000D03*
X198244500Y-147474000D03*
X198244500Y-148424000D03*
%TD*%
D24*
%TO.C,C2510*%
X280924000Y-185392000D03*
X280924000Y-184432000D03*
%TD*%
D28*
%TO.C,C74*%
X202049000Y-146613000D03*
X202049000Y-147573000D03*
%TD*%
D18*
%TO.C,L303*%
X117094000Y-186413000D03*
X117094000Y-185443000D03*
%TD*%
D17*
%TO.C,R1104*%
X180290000Y-187833000D03*
X181940000Y-187833000D03*
%TD*%
D18*
%TO.C,L403*%
X132842000Y-186413000D03*
X132842000Y-185443000D03*
%TD*%
D36*
%TO.C,U9*%
X244461500Y-148424000D03*
X244461500Y-147474000D03*
X244461500Y-146524000D03*
X242186500Y-146524000D03*
X242186500Y-147474000D03*
X242186500Y-148424000D03*
%TD*%
D22*
%TO.C,C101*%
X92202000Y-207785000D03*
X92202000Y-206235000D03*
%TD*%
D33*
%TO.C,R30*%
X314579000Y-131763000D03*
X314579000Y-133413000D03*
%TD*%
D16*
%TO.C,R306*%
X122303000Y-180975000D03*
X121283000Y-180975000D03*
%TD*%
D17*
%TO.C,R1904*%
X243282000Y-187833000D03*
X244932000Y-187833000D03*
%TD*%
D19*
%TO.C,U401*%
X135775000Y-185163500D03*
X136275000Y-185163500D03*
X136775000Y-185163500D03*
X137275000Y-185163500D03*
D20*
X137987500Y-184451000D03*
X137987500Y-183951000D03*
X137987500Y-183451000D03*
X137987500Y-182951000D03*
D19*
X137275000Y-182238500D03*
X136775000Y-182238500D03*
X136275000Y-182238500D03*
X135775000Y-182238500D03*
D20*
X135062500Y-182951000D03*
X135062500Y-183451000D03*
X135062500Y-183951000D03*
X135062500Y-184451000D03*
D21*
X136525000Y-183701000D03*
%TD*%
D24*
%TO.C,C1906*%
X249428000Y-183487000D03*
X249428000Y-182527000D03*
%TD*%
D18*
%TO.C,L101*%
X92964000Y-183492000D03*
X92964000Y-182522000D03*
%TD*%
D28*
%TO.C,C3*%
X148001000Y-147348000D03*
X148001000Y-148308000D03*
%TD*%
D14*
%TO.C,R1901*%
X247203000Y-189103000D03*
X248223000Y-189103000D03*
%TD*%
D33*
%TO.C,R73*%
X136080000Y-113794000D03*
X136080000Y-115444000D03*
%TD*%
D15*
%TO.C,C1804*%
X227498000Y-189103000D03*
X228458000Y-189103000D03*
%TD*%
D17*
%TO.C,R2804*%
X322022000Y-187833000D03*
X323672000Y-187833000D03*
%TD*%
D28*
%TO.C,C23*%
X235885000Y-147348000D03*
X235885000Y-148308000D03*
%TD*%
D23*
%TO.C,C22*%
X147056000Y-148971000D03*
X146096000Y-148971000D03*
%TD*%
D17*
%TO.C,R2504*%
X274778000Y-187833000D03*
X276428000Y-187833000D03*
%TD*%
D24*
%TO.C,C75*%
X196715000Y-147446000D03*
X196715000Y-146486000D03*
%TD*%
D14*
%TO.C,R2001*%
X262950999Y-189103000D03*
X263970999Y-189103000D03*
%TD*%
D23*
%TO.C,C42*%
X191026000Y-147955000D03*
X190066000Y-147955000D03*
%TD*%
D28*
%TO.C,C87*%
X289933000Y-146613000D03*
X289933000Y-147573000D03*
%TD*%
D23*
%TO.C,C39*%
X185773000Y-152527000D03*
X184813000Y-152527000D03*
%TD*%
D15*
%TO.C,C1704*%
X211750000Y-189103000D03*
X212710000Y-189103000D03*
%TD*%
D24*
%TO.C,C59*%
X279799000Y-142466000D03*
X279799000Y-141506000D03*
%TD*%
D16*
%TO.C,R1005*%
X168531000Y-186436000D03*
X167511000Y-186436000D03*
%TD*%
D26*
%TO.C,C166*%
X101019699Y-147210007D03*
X102919699Y-147210007D03*
%TD*%
D22*
%TO.C,C1002*%
X168148000Y-207785000D03*
X168148000Y-206235000D03*
%TD*%
D16*
%TO.C,R1706*%
X216791000Y-180975000D03*
X215771000Y-180975000D03*
%TD*%
D28*
%TO.C,C1014*%
X165354000Y-185448000D03*
X165354000Y-186408000D03*
%TD*%
D24*
%TO.C,C306*%
X123444000Y-183487000D03*
X123444000Y-182527000D03*
%TD*%
%TO.C,C120*%
X226441000Y-120289800D03*
X226441000Y-119329800D03*
%TD*%
D14*
%TO.C,R2601*%
X294447000Y-189103000D03*
X295467000Y-189103000D03*
%TD*%
D19*
%TO.C,U901*%
X151523000Y-185163500D03*
X152023000Y-185163500D03*
X152523000Y-185163500D03*
X153023000Y-185163500D03*
D20*
X153735500Y-184451000D03*
X153735500Y-183951000D03*
X153735500Y-183451000D03*
X153735500Y-182951000D03*
D19*
X153023000Y-182238500D03*
X152523000Y-182238500D03*
X152023000Y-182238500D03*
X151523000Y-182238500D03*
D20*
X150810500Y-182951000D03*
X150810500Y-183451000D03*
X150810500Y-183951000D03*
X150810500Y-184451000D03*
D21*
X152273000Y-183701000D03*
%TD*%
D24*
%TO.C,C308*%
X118110000Y-181328000D03*
X118110000Y-180368000D03*
%TD*%
D28*
%TO.C,C1914*%
X244094000Y-185448000D03*
X244094000Y-186408000D03*
%TD*%
%TO.C,C16*%
X229507000Y-147348000D03*
X229507000Y-148308000D03*
%TD*%
D24*
%TO.C,C206*%
X107696000Y-183487000D03*
X107696000Y-182527000D03*
%TD*%
D14*
%TO.C,R1007*%
X166495000Y-180975000D03*
X167515000Y-180975000D03*
%TD*%
D15*
%TO.C,C19*%
X142540000Y-148971000D03*
X143500000Y-148971000D03*
%TD*%
D37*
%TO.C,L4*%
X136080000Y-116858500D03*
X136080000Y-118983500D03*
%TD*%
D22*
%TO.C,C1202*%
X199644000Y-207785000D03*
X199644000Y-206235000D03*
%TD*%
D28*
%TO.C,C2714*%
X307086000Y-185448000D03*
X307086000Y-186408000D03*
%TD*%
D16*
%TO.C,R1906*%
X248287000Y-180975000D03*
X247267000Y-180975000D03*
%TD*%
D24*
%TO.C,C1110*%
X186436000Y-185392000D03*
X186436000Y-184432000D03*
%TD*%
%TO.C,C1908*%
X244094000Y-181328000D03*
X244094000Y-180368000D03*
%TD*%
D15*
%TO.C,C8*%
X146731000Y-153162000D03*
X147691000Y-153162000D03*
%TD*%
D28*
%TO.C,C1714*%
X212598000Y-185448000D03*
X212598000Y-186408000D03*
%TD*%
D24*
%TO.C,C1710*%
X217932000Y-185392000D03*
X217932000Y-184432000D03*
%TD*%
D22*
%TO.C,C902*%
X152400000Y-207785000D03*
X152400000Y-206235000D03*
%TD*%
D23*
%TO.C,C107*%
X86713000Y-183388000D03*
X85753000Y-183388000D03*
%TD*%
D19*
%TO.C,U201*%
X104279000Y-185163500D03*
X104779000Y-185163500D03*
X105279000Y-185163500D03*
X105779000Y-185163500D03*
D20*
X106491500Y-184451000D03*
X106491500Y-183951000D03*
X106491500Y-183451000D03*
X106491500Y-182951000D03*
D19*
X105779000Y-182238500D03*
X105279000Y-182238500D03*
X104779000Y-182238500D03*
X104279000Y-182238500D03*
D20*
X103566500Y-182951000D03*
X103566500Y-183451000D03*
X103566500Y-183951000D03*
X103566500Y-184451000D03*
D21*
X105029000Y-183701000D03*
%TD*%
D34*
%TO.C,L1802*%
X227480000Y-182372000D03*
X228450000Y-182372000D03*
%TD*%
D28*
%TO.C,C28*%
X273449000Y-147348000D03*
X273449000Y-148308000D03*
%TD*%
D18*
%TO.C,L901*%
X155956000Y-183492000D03*
X155956000Y-182522000D03*
%TD*%
D16*
%TO.C,R206*%
X106555000Y-180975000D03*
X105535000Y-180975000D03*
%TD*%
D17*
%TO.C,R10*%
X151067000Y-114046000D03*
X152717000Y-114046000D03*
%TD*%
D38*
%TO.C,C161*%
X106715600Y-136956801D03*
X104815600Y-136956801D03*
%TD*%
D22*
%TO.C,C2802*%
X325628000Y-207785000D03*
X325628000Y-206235000D03*
%TD*%
%TO.C,C2801*%
X328422000Y-207785000D03*
X328422000Y-206235000D03*
%TD*%
D39*
%TO.C,C150*%
X131127000Y-121538000D03*
X131127000Y-119638000D03*
%TD*%
D15*
%TO.C,C2703*%
X312067000Y-189103000D03*
X313027000Y-189103000D03*
%TD*%
%TO.C,C2804*%
X321986000Y-189103000D03*
X322946000Y-189103000D03*
%TD*%
D28*
%TO.C,C2514*%
X275590000Y-185448000D03*
X275590000Y-186408000D03*
%TD*%
D29*
%TO.C,R2503*%
X281749000Y-187833000D03*
X280099000Y-187833000D03*
%TD*%
D35*
%TO.C,Q1*%
X266766000Y-114348500D03*
X268666000Y-114348500D03*
X267716000Y-112473500D03*
%TD*%
D28*
%TO.C,C15*%
X228491000Y-147348000D03*
X228491000Y-148308000D03*
%TD*%
D40*
%TO.C,C138*%
X139446000Y-115255000D03*
X139446000Y-117155000D03*
%TD*%
D24*
%TO.C,C88*%
X284599000Y-147446000D03*
X284599000Y-146486000D03*
%TD*%
D18*
%TO.C,L1903*%
X243078000Y-186413000D03*
X243078000Y-185443000D03*
%TD*%
D34*
%TO.C,L1902*%
X243228000Y-182372000D03*
X244198000Y-182372000D03*
%TD*%
D23*
%TO.C,C56*%
X229715000Y-152527000D03*
X228755000Y-152527000D03*
%TD*%
D24*
%TO.C,C2606*%
X296672000Y-183487000D03*
X296672000Y-182527000D03*
%TD*%
D17*
%TO.C,R204*%
X101550000Y-187833000D03*
X103200000Y-187833000D03*
%TD*%
D16*
%TO.C,R2505*%
X278767000Y-186436000D03*
X277747000Y-186436000D03*
%TD*%
D41*
%TO.C,P1*%
X148629000Y-104538000D03*
X203010000Y-101488000D03*
D42*
X200585000Y-98313000D03*
X199315000Y-98313000D03*
X198045000Y-98313000D03*
X196775000Y-98313000D03*
X195505000Y-98313000D03*
X194235000Y-98313000D03*
X192965000Y-98313000D03*
X191695000Y-98313000D03*
X190425000Y-98313000D03*
X189155000Y-98313000D03*
X187885000Y-98313000D03*
X186615000Y-98313000D03*
X185345000Y-98313000D03*
X184075000Y-98313000D03*
X182805000Y-98313000D03*
X181535000Y-98313000D03*
X180265000Y-98313000D03*
X178995000Y-98313000D03*
X177725000Y-98313000D03*
X176455000Y-98313000D03*
X175185000Y-98313000D03*
X173915000Y-98313000D03*
X172645000Y-98313000D03*
X171375000Y-98313000D03*
X170105000Y-98313000D03*
X168835000Y-98313000D03*
X167565000Y-98313000D03*
X166295000Y-98313000D03*
X165025000Y-98313000D03*
X163755000Y-98313000D03*
X162485000Y-98313000D03*
X161215000Y-98313000D03*
X159945000Y-98313000D03*
X158675000Y-98313000D03*
X157405000Y-98313000D03*
X156135000Y-98313000D03*
X154865000Y-98313000D03*
X153595000Y-98313000D03*
X152325000Y-98313000D03*
X151055000Y-98313000D03*
X200585000Y-99583000D03*
X199315000Y-99583000D03*
X198045000Y-99583000D03*
X196775000Y-99583000D03*
X195505000Y-99583000D03*
X194235000Y-99583000D03*
X192965000Y-99583000D03*
X191695000Y-99583000D03*
X190425000Y-99583000D03*
X189155000Y-99583000D03*
X187885000Y-99583000D03*
X186615000Y-99583000D03*
X185345000Y-99583000D03*
X184075000Y-99583000D03*
X182805000Y-99583000D03*
X181535000Y-99583000D03*
X180265000Y-99583000D03*
X178995000Y-99583000D03*
X177725000Y-99583000D03*
X176455000Y-99583000D03*
X175185000Y-99583000D03*
X173915000Y-99583000D03*
X172645000Y-99583000D03*
X171375000Y-99583000D03*
X170105000Y-99583000D03*
X168835000Y-99583000D03*
X167565000Y-99583000D03*
X166295000Y-99583000D03*
X165025000Y-99583000D03*
X163755000Y-99583000D03*
X162485000Y-99583000D03*
X161215000Y-99583000D03*
X159945000Y-99583000D03*
X158675000Y-99583000D03*
X157405000Y-99583000D03*
X156135000Y-99583000D03*
X154865000Y-99583000D03*
X153595000Y-99583000D03*
X152325000Y-99583000D03*
X151055000Y-99583000D03*
X200585000Y-103393000D03*
X199315000Y-103393000D03*
X198045000Y-103393000D03*
X196775000Y-103393000D03*
X195505000Y-103393000D03*
X194235000Y-103393000D03*
X192965000Y-103393000D03*
X191695000Y-103393000D03*
X190425000Y-103393000D03*
X189155000Y-103393000D03*
X187885000Y-103393000D03*
X186615000Y-103393000D03*
X185345000Y-103393000D03*
X184075000Y-103393000D03*
X182805000Y-103393000D03*
X181535000Y-103393000D03*
X180265000Y-103393000D03*
X178995000Y-103393000D03*
X177725000Y-103393000D03*
X176455000Y-103393000D03*
X175185000Y-103393000D03*
X173915000Y-103393000D03*
X172645000Y-103393000D03*
X171375000Y-103393000D03*
X170105000Y-103393000D03*
X168835000Y-103393000D03*
X167565000Y-103393000D03*
X166295000Y-103393000D03*
X165025000Y-103393000D03*
X163755000Y-103393000D03*
X162485000Y-103393000D03*
X161215000Y-103393000D03*
X159945000Y-103393000D03*
X158675000Y-103393000D03*
X157405000Y-103393000D03*
X156135000Y-103393000D03*
X154865000Y-103393000D03*
X153595000Y-103393000D03*
X152325000Y-103393000D03*
X151055000Y-103393000D03*
X200585000Y-104663000D03*
X199315000Y-104663000D03*
X198045000Y-104663000D03*
X196775000Y-104663000D03*
X195505000Y-104663000D03*
X194235000Y-104663000D03*
X192965000Y-104663000D03*
X191695000Y-104663000D03*
X190425000Y-104663000D03*
X189155000Y-104663000D03*
X187885000Y-104663000D03*
X186615000Y-104663000D03*
X185345000Y-104663000D03*
X184075000Y-104663000D03*
X182805000Y-104663000D03*
X181535000Y-104663000D03*
X180265000Y-104663000D03*
X178995000Y-104663000D03*
X177725000Y-104663000D03*
X176455000Y-104663000D03*
X175185000Y-104663000D03*
X173915000Y-104663000D03*
X172645000Y-104663000D03*
X171375000Y-104663000D03*
X170105000Y-104663000D03*
X168835000Y-104663000D03*
X167565000Y-104663000D03*
X166295000Y-104663000D03*
X165025000Y-104663000D03*
X163755000Y-104663000D03*
X162485000Y-104663000D03*
X161215000Y-104663000D03*
X159945000Y-104663000D03*
X158675000Y-104663000D03*
X157405000Y-104663000D03*
X156135000Y-104663000D03*
X154865000Y-104663000D03*
X153595000Y-104663000D03*
X152325000Y-104663000D03*
X151055000Y-104663000D03*
%TD*%
D18*
%TO.C,L2503*%
X274574000Y-186413000D03*
X274574000Y-185443000D03*
%TD*%
D24*
%TO.C,C47*%
X235857000Y-142466000D03*
X235857000Y-141506000D03*
%TD*%
D14*
%TO.C,R1907*%
X245235000Y-180975000D03*
X246255000Y-180975000D03*
%TD*%
D23*
%TO.C,C2705*%
X310233000Y-188087000D03*
X309273000Y-188087000D03*
%TD*%
D19*
%TO.C,U2601*%
X293255000Y-185163500D03*
X293755000Y-185163500D03*
X294255000Y-185163500D03*
X294755000Y-185163500D03*
D20*
X295467500Y-184451000D03*
X295467500Y-183951000D03*
X295467500Y-183451000D03*
X295467500Y-182951000D03*
D19*
X294755000Y-182238500D03*
X294255000Y-182238500D03*
X293755000Y-182238500D03*
X293255000Y-182238500D03*
D20*
X292542500Y-182951000D03*
X292542500Y-183451000D03*
X292542500Y-183951000D03*
X292542500Y-184451000D03*
D21*
X294005000Y-183701000D03*
%TD*%
D16*
%TO.C,R1002*%
X167401000Y-189103000D03*
X166381000Y-189103000D03*
%TD*%
D14*
%TO.C,R301*%
X121219000Y-189103000D03*
X122239000Y-189103000D03*
%TD*%
D28*
%TO.C,C34*%
X279827000Y-147348000D03*
X279827000Y-148308000D03*
%TD*%
D22*
%TO.C,C2502*%
X278384000Y-207785000D03*
X278384000Y-206235000D03*
%TD*%
D33*
%TO.C,R16*%
X316103000Y-136462000D03*
X316103000Y-138112000D03*
%TD*%
D24*
%TO.C,C100*%
X226413600Y-117749800D03*
X226413600Y-116789800D03*
%TD*%
D23*
%TO.C,C207*%
X102461000Y-183388000D03*
X101501000Y-183388000D03*
%TD*%
D15*
%TO.C,C53*%
X278557000Y-154178000D03*
X279517000Y-154178000D03*
%TD*%
D16*
%TO.C,R1905*%
X247271000Y-186436000D03*
X246251000Y-186436000D03*
%TD*%
D15*
%TO.C,C1809*%
X227485000Y-184404000D03*
X228445000Y-184404000D03*
%TD*%
D24*
%TO.C,C1706*%
X217932000Y-183487000D03*
X217932000Y-182527000D03*
%TD*%
D15*
%TO.C,C109*%
X85753000Y-184404000D03*
X86713000Y-184404000D03*
%TD*%
%TO.C,C904*%
X148758000Y-189103000D03*
X149718000Y-189103000D03*
%TD*%
D14*
%TO.C,R107*%
X87755000Y-180975000D03*
X88775000Y-180975000D03*
%TD*%
D15*
%TO.C,C54*%
X278557000Y-153162000D03*
X279517000Y-153162000D03*
%TD*%
D26*
%TO.C,C170*%
X101310400Y-136956801D03*
X103210400Y-136956801D03*
%TD*%
D15*
%TO.C,C1803*%
X233327000Y-189103000D03*
X234287000Y-189103000D03*
%TD*%
D16*
%TO.C,R2805*%
X326011000Y-186436000D03*
X324991000Y-186436000D03*
%TD*%
D23*
%TO.C,C1905*%
X247241000Y-188087000D03*
X246281000Y-188087000D03*
%TD*%
D18*
%TO.C,L1103*%
X180086000Y-186413000D03*
X180086000Y-185443000D03*
%TD*%
D30*
%TO.C,K1801*%
X228638000Y-191135000D03*
X228638000Y-196215000D03*
X228638000Y-198755000D03*
X228638000Y-201295000D03*
X228638000Y-203835000D03*
X235928000Y-203835000D03*
X235928000Y-201295000D03*
X235928000Y-198755000D03*
X235928000Y-196215000D03*
X235928000Y-191135000D03*
%TD*%
D17*
%TO.C,R77*%
X136334000Y-125668000D03*
X137984000Y-125668000D03*
%TD*%
D24*
%TO.C,C92*%
X223746600Y-115209800D03*
X223746600Y-114249800D03*
%TD*%
D22*
%TO.C,C1801*%
X233934000Y-207785000D03*
X233934000Y-206235000D03*
%TD*%
D29*
%TO.C,R2603*%
X297497000Y-187833000D03*
X295847000Y-187833000D03*
%TD*%
D16*
%TO.C,R1105*%
X184279000Y-186436000D03*
X183259000Y-186436000D03*
%TD*%
D28*
%TO.C,C26*%
X236901000Y-147348000D03*
X236901000Y-148308000D03*
%TD*%
D22*
%TO.C,C2501*%
X281178000Y-207785000D03*
X281178000Y-206235000D03*
%TD*%
D23*
%TO.C,C1807*%
X228445000Y-183388000D03*
X227485000Y-183388000D03*
%TD*%
D16*
%TO.C,R902*%
X151653000Y-189103000D03*
X150633000Y-189103000D03*
%TD*%
D24*
%TO.C,C91*%
X224762600Y-115209800D03*
X224762600Y-114249800D03*
%TD*%
D19*
%TO.C,U1201*%
X198767000Y-185163500D03*
X199267000Y-185163500D03*
X199767000Y-185163500D03*
X200267000Y-185163500D03*
D20*
X200979500Y-184451000D03*
X200979500Y-183951000D03*
X200979500Y-183451000D03*
X200979500Y-182951000D03*
D19*
X200267000Y-182238500D03*
X199767000Y-182238500D03*
X199267000Y-182238500D03*
X198767000Y-182238500D03*
D20*
X198054500Y-182951000D03*
X198054500Y-183451000D03*
X198054500Y-183951000D03*
X198054500Y-184451000D03*
D21*
X199517000Y-183701000D03*
%TD*%
D34*
%TO.C,L302*%
X117244000Y-182372000D03*
X118214000Y-182372000D03*
%TD*%
D24*
%TO.C,C2610*%
X296672000Y-185392000D03*
X296672000Y-184432000D03*
%TD*%
D18*
%TO.C,L2601*%
X297688000Y-183492000D03*
X297688000Y-182522000D03*
%TD*%
D29*
%TO.C,R1703*%
X218757000Y-187833000D03*
X217107000Y-187833000D03*
%TD*%
D15*
%TO.C,C24*%
X190673000Y-154178000D03*
X191633000Y-154178000D03*
%TD*%
D32*
%TO.C,H5*%
X207324000Y-103488000D03*
%TD*%
D24*
%TO.C,C106*%
X91948000Y-183487000D03*
X91948000Y-182527000D03*
%TD*%
D14*
%TO.C,R1107*%
X182243000Y-180975000D03*
X183263000Y-180975000D03*
%TD*%
D43*
%TO.C,U2*%
X164900000Y-149125000D03*
X164900000Y-147855000D03*
X164900000Y-146585000D03*
X164900000Y-145315000D03*
X159950000Y-145315000D03*
X159950000Y-146585000D03*
X159950000Y-147855000D03*
X159950000Y-149125000D03*
%TD*%
D23*
%TO.C,C1205*%
X199997000Y-188087000D03*
X199037000Y-188087000D03*
%TD*%
D28*
%TO.C,C76*%
X245991000Y-146613000D03*
X245991000Y-147573000D03*
%TD*%
D23*
%TO.C,C80*%
X278882000Y-148971000D03*
X277922000Y-148971000D03*
%TD*%
D15*
%TO.C,C2609*%
X290477000Y-184404000D03*
X291437000Y-184404000D03*
%TD*%
D19*
%TO.C,U1801*%
X230263000Y-185163500D03*
X230763000Y-185163500D03*
X231263000Y-185163500D03*
X231763000Y-185163500D03*
D20*
X232475500Y-184451000D03*
X232475500Y-183951000D03*
X232475500Y-183451000D03*
X232475500Y-182951000D03*
D19*
X231763000Y-182238500D03*
X231263000Y-182238500D03*
X230763000Y-182238500D03*
X230263000Y-182238500D03*
D20*
X229550500Y-182951000D03*
X229550500Y-183451000D03*
X229550500Y-183951000D03*
X229550500Y-184451000D03*
D21*
X231013000Y-183701000D03*
%TD*%
D16*
%TO.C,R205*%
X105539000Y-186436000D03*
X104519000Y-186436000D03*
%TD*%
D15*
%TO.C,C1103*%
X186083000Y-189103000D03*
X187043000Y-189103000D03*
%TD*%
D16*
%TO.C,R406*%
X138051000Y-180975000D03*
X137031000Y-180975000D03*
%TD*%
D18*
%TO.C,L401*%
X140208000Y-183492000D03*
X140208000Y-182522000D03*
%TD*%
D16*
%TO.C,R2605*%
X294515000Y-186436000D03*
X293495000Y-186436000D03*
%TD*%
%TO.C,R1205*%
X200027000Y-186436000D03*
X199007000Y-186436000D03*
%TD*%
D15*
%TO.C,C2003*%
X264822999Y-189103000D03*
X265782999Y-189103000D03*
%TD*%
D28*
%TO.C,C2014*%
X259841999Y-185448000D03*
X259841999Y-186408000D03*
%TD*%
D15*
%TO.C,C1204*%
X196002000Y-189103000D03*
X196962000Y-189103000D03*
%TD*%
%TO.C,C903*%
X154587000Y-189103000D03*
X155547000Y-189103000D03*
%TD*%
%TO.C,C1003*%
X170335000Y-189103000D03*
X171295000Y-189103000D03*
%TD*%
D18*
%TO.C,L1203*%
X195834000Y-186413000D03*
X195834000Y-185443000D03*
%TD*%
D28*
%TO.C,C6*%
X185565000Y-147348000D03*
X185565000Y-148308000D03*
%TD*%
D34*
%TO.C,L2002*%
X258975999Y-182372000D03*
X259945999Y-182372000D03*
%TD*%
D25*
%TO.C,R42*%
X327406000Y-120271000D03*
X327406000Y-119251000D03*
%TD*%
D24*
%TO.C,C60*%
X280815000Y-142466000D03*
X280815000Y-141506000D03*
%TD*%
%TO.C,C908*%
X149606000Y-181328000D03*
X149606000Y-180368000D03*
%TD*%
D22*
%TO.C,C2701*%
X312674000Y-207785000D03*
X312674000Y-206235000D03*
%TD*%
D29*
%TO.C,R118*%
X143573000Y-121539000D03*
X141923000Y-121539000D03*
%TD*%
D24*
%TO.C,C1206*%
X202184000Y-183487000D03*
X202184000Y-182527000D03*
%TD*%
D35*
%TO.C,Q2*%
X263083000Y-114348500D03*
X264983000Y-114348500D03*
X264033000Y-112473500D03*
%TD*%
D16*
%TO.C,R1806*%
X232539000Y-180975000D03*
X231519000Y-180975000D03*
%TD*%
D14*
%TO.C,R2507*%
X276731000Y-180975000D03*
X277751000Y-180975000D03*
%TD*%
D24*
%TO.C,C2008*%
X259841999Y-181328000D03*
X259841999Y-180368000D03*
%TD*%
D23*
%TO.C,C105*%
X89761000Y-188087000D03*
X88801000Y-188087000D03*
%TD*%
D18*
%TO.C,L1703*%
X211582000Y-186413000D03*
X211582000Y-185443000D03*
%TD*%
D22*
%TO.C,C201*%
X107950000Y-207785000D03*
X107950000Y-206235000D03*
%TD*%
D30*
%TO.C,K201*%
X102654000Y-191135000D03*
X102654000Y-196215000D03*
X102654000Y-198755000D03*
X102654000Y-201295000D03*
X102654000Y-203835000D03*
X109944000Y-203835000D03*
X109944000Y-201295000D03*
X109944000Y-198755000D03*
X109944000Y-196215000D03*
X109944000Y-191135000D03*
%TD*%
D16*
%TO.C,R106*%
X90807000Y-180975000D03*
X89787000Y-180975000D03*
%TD*%
D22*
%TO.C,C1701*%
X218186000Y-207785000D03*
X218186000Y-206235000D03*
%TD*%
D16*
%TO.C,R2606*%
X295531000Y-180975000D03*
X294511000Y-180975000D03*
%TD*%
D28*
%TO.C,C49*%
X210659000Y-147910000D03*
X210659000Y-148870000D03*
%TD*%
D30*
%TO.C,K2001*%
X260133999Y-191135000D03*
X260133999Y-196215000D03*
X260133999Y-198755000D03*
X260133999Y-201295000D03*
X260133999Y-203835000D03*
X267423999Y-203835000D03*
X267423999Y-201295000D03*
X267423999Y-198755000D03*
X267423999Y-196215000D03*
X267423999Y-191135000D03*
%TD*%
D17*
%TO.C,R22*%
X216218000Y-110744000D03*
X217868000Y-110744000D03*
%TD*%
D16*
%TO.C,R202*%
X104409000Y-189103000D03*
X103389000Y-189103000D03*
%TD*%
D23*
%TO.C,C1207*%
X196949000Y-183388000D03*
X195989000Y-183388000D03*
%TD*%
%TO.C,C2007*%
X259940999Y-183388000D03*
X258980999Y-183388000D03*
%TD*%
D15*
%TO.C,C203*%
X107343000Y-189103000D03*
X108303000Y-189103000D03*
%TD*%
%TO.C,C1203*%
X201831000Y-189103000D03*
X202791000Y-189103000D03*
%TD*%
D18*
%TO.C,L301*%
X124460000Y-183492000D03*
X124460000Y-182522000D03*
%TD*%
D24*
%TO.C,C2806*%
X328168000Y-183487000D03*
X328168000Y-182527000D03*
%TD*%
D16*
%TO.C,R305*%
X121287000Y-186436000D03*
X120267000Y-186436000D03*
%TD*%
D22*
%TO.C,C301*%
X123698000Y-207785000D03*
X123698000Y-206235000D03*
%TD*%
D23*
%TO.C,C63*%
X234968000Y-147955000D03*
X234008000Y-147955000D03*
%TD*%
D24*
%TO.C,C1210*%
X202184000Y-185392000D03*
X202184000Y-184432000D03*
%TD*%
D34*
%TO.C,L102*%
X85748000Y-182372000D03*
X86718000Y-182372000D03*
%TD*%
D18*
%TO.C,L2603*%
X290322000Y-186413000D03*
X290322000Y-185443000D03*
%TD*%
D44*
%TO.C,C165*%
X107848000Y-127259001D03*
X106298000Y-127259001D03*
%TD*%
D30*
%TO.C,K2701*%
X307378000Y-191135000D03*
X307378000Y-196215000D03*
X307378000Y-198755000D03*
X307378000Y-201295000D03*
X307378000Y-203835000D03*
X314668000Y-203835000D03*
X314668000Y-201295000D03*
X314668000Y-198755000D03*
X314668000Y-196215000D03*
X314668000Y-191135000D03*
%TD*%
D17*
%TO.C,R304*%
X117298000Y-187833000D03*
X118948000Y-187833000D03*
%TD*%
D23*
%TO.C,C17*%
X141831000Y-153543000D03*
X140871000Y-153543000D03*
%TD*%
D29*
%TO.C,R1903*%
X250253000Y-187833000D03*
X248603000Y-187833000D03*
%TD*%
D16*
%TO.C,R1102*%
X183149000Y-189103000D03*
X182129000Y-189103000D03*
%TD*%
D30*
%TO.C,K1701*%
X212890000Y-191135000D03*
X212890000Y-196215000D03*
X212890000Y-198755000D03*
X212890000Y-201295000D03*
X212890000Y-203835000D03*
X220180000Y-203835000D03*
X220180000Y-201295000D03*
X220180000Y-198755000D03*
X220180000Y-196215000D03*
X220180000Y-191135000D03*
%TD*%
D45*
%TO.C,U16*%
X224488600Y-116602300D03*
X223988600Y-116602300D03*
X223488600Y-116602300D03*
X222988600Y-116602300D03*
X222488600Y-116602300D03*
X221988600Y-116602300D03*
D46*
X221301100Y-117289800D03*
X221301100Y-117789800D03*
X221301100Y-118289800D03*
X221301100Y-118789800D03*
X221301100Y-119289800D03*
X221301100Y-119789800D03*
D45*
X221988600Y-120477300D03*
X222488600Y-120477300D03*
X222988600Y-120477300D03*
X223488600Y-120477300D03*
X223988600Y-120477300D03*
X224488600Y-120477300D03*
D46*
X225176100Y-119789800D03*
X225176100Y-119289800D03*
X225176100Y-118789800D03*
X225176100Y-118289800D03*
X225176100Y-117789800D03*
X225176100Y-117289800D03*
D47*
X223238600Y-118539800D03*
%TD*%
D23*
%TO.C,C1805*%
X231493000Y-188087000D03*
X230533000Y-188087000D03*
%TD*%
D22*
%TO.C,C1702*%
X215392000Y-207785000D03*
X215392000Y-206235000D03*
%TD*%
D28*
%TO.C,C81*%
X158107000Y-146613000D03*
X158107000Y-147573000D03*
%TD*%
D33*
%TO.C,R119*%
X140462000Y-121349000D03*
X140462000Y-122999000D03*
%TD*%
D24*
%TO.C,C406*%
X139192000Y-183487000D03*
X139192000Y-182527000D03*
%TD*%
%TO.C,C1910*%
X249428000Y-185392000D03*
X249428000Y-184432000D03*
%TD*%
D15*
%TO.C,C1004*%
X164506000Y-189103000D03*
X165466000Y-189103000D03*
%TD*%
D33*
%TO.C,R111*%
X102985700Y-143845007D03*
X102985700Y-145495007D03*
%TD*%
D16*
%TO.C,R2*%
X235714000Y-143510000D03*
X234694000Y-143510000D03*
%TD*%
%TO.C,R1206*%
X201043000Y-180975000D03*
X200023000Y-180975000D03*
%TD*%
D23*
%TO.C,C2507*%
X275689000Y-183388000D03*
X274729000Y-183388000D03*
%TD*%
D15*
%TO.C,C2809*%
X321973000Y-184404000D03*
X322933000Y-184404000D03*
%TD*%
D28*
%TO.C,C35*%
X280843000Y-147348000D03*
X280843000Y-148308000D03*
%TD*%
%TO.C,C1214*%
X196850000Y-185448000D03*
X196850000Y-186408000D03*
%TD*%
D17*
%TO.C,R2704*%
X306274000Y-187833000D03*
X307924000Y-187833000D03*
%TD*%
D30*
%TO.C,K1901*%
X244386000Y-191135000D03*
X244386000Y-196215000D03*
X244386000Y-198755000D03*
X244386000Y-201295000D03*
X244386000Y-203835000D03*
X251676000Y-203835000D03*
X251676000Y-201295000D03*
X251676000Y-198755000D03*
X251676000Y-196215000D03*
X251676000Y-191135000D03*
%TD*%
D24*
%TO.C,C1008*%
X165354000Y-181328000D03*
X165354000Y-180368000D03*
%TD*%
D15*
%TO.C,C37*%
X154325000Y-149760000D03*
X155285000Y-149760000D03*
%TD*%
D18*
%TO.C,L903*%
X148590000Y-186413000D03*
X148590000Y-185443000D03*
%TD*%
D33*
%TO.C,R29*%
X316103000Y-130366000D03*
X316103000Y-132016000D03*
%TD*%
D24*
%TO.C,C2708*%
X307086000Y-181328000D03*
X307086000Y-180368000D03*
%TD*%
D15*
%TO.C,C403*%
X138839000Y-189103000D03*
X139799000Y-189103000D03*
%TD*%
D30*
%TO.C,K101*%
X86906000Y-191135000D03*
X86906000Y-196215000D03*
X86906000Y-198755000D03*
X86906000Y-201295000D03*
X86906000Y-203835000D03*
X94196000Y-203835000D03*
X94196000Y-201295000D03*
X94196000Y-198755000D03*
X94196000Y-196215000D03*
X94196000Y-191135000D03*
%TD*%
D29*
%TO.C,R88*%
X111136000Y-125735001D03*
X109486000Y-125735001D03*
%TD*%
D15*
%TO.C,C1009*%
X164493000Y-184404000D03*
X165453000Y-184404000D03*
%TD*%
D22*
%TO.C,C1802*%
X231140000Y-207785000D03*
X231140000Y-206235000D03*
%TD*%
D34*
%TO.C,L202*%
X101496000Y-182372000D03*
X102466000Y-182372000D03*
%TD*%
D19*
%TO.C,U2801*%
X324751000Y-185163500D03*
X325251000Y-185163500D03*
X325751000Y-185163500D03*
X326251000Y-185163500D03*
D20*
X326963500Y-184451000D03*
X326963500Y-183951000D03*
X326963500Y-183451000D03*
X326963500Y-182951000D03*
D19*
X326251000Y-182238500D03*
X325751000Y-182238500D03*
X325251000Y-182238500D03*
X324751000Y-182238500D03*
D20*
X324038500Y-182951000D03*
X324038500Y-183451000D03*
X324038500Y-183951000D03*
X324038500Y-184451000D03*
D21*
X325501000Y-183701000D03*
%TD*%
D29*
%TO.C,R103*%
X92773000Y-187833000D03*
X91123000Y-187833000D03*
%TD*%
D15*
%TO.C,C909*%
X148745000Y-184404000D03*
X149705000Y-184404000D03*
%TD*%
D17*
%TO.C,R52*%
X199327000Y-110617000D03*
X200977000Y-110617000D03*
%TD*%
D23*
%TO.C,C18*%
X141831000Y-152527000D03*
X140871000Y-152527000D03*
%TD*%
D48*
%TO.C,R62*%
X142748000Y-110932500D03*
X142748000Y-113857500D03*
%TD*%
D40*
%TO.C,C162*%
X97905700Y-140300901D03*
X97905700Y-142200901D03*
%TD*%
D49*
%TO.C,U33*%
X136293000Y-122205000D03*
X135643000Y-122205000D03*
X134993000Y-122205000D03*
X134343000Y-122205000D03*
X134343000Y-124305000D03*
X134993000Y-124305000D03*
X135643000Y-124305000D03*
X136293000Y-124305000D03*
D50*
X136068000Y-123255000D03*
X135318000Y-123255000D03*
D51*
X135318000Y-123255000D03*
D50*
X134568000Y-123255000D03*
%TD*%
D18*
%TO.C,L2703*%
X306070000Y-186413000D03*
X306070000Y-185443000D03*
%TD*%
D23*
%TO.C,C71*%
X273657000Y-153543000D03*
X272697000Y-153543000D03*
%TD*%
D15*
%TO.C,C78*%
X274366000Y-147955000D03*
X275326000Y-147955000D03*
%TD*%
D18*
%TO.C,L2803*%
X321818000Y-186413000D03*
X321818000Y-185443000D03*
%TD*%
D15*
%TO.C,C2509*%
X274729000Y-184404000D03*
X275689000Y-184404000D03*
%TD*%
D16*
%TO.C,R1802*%
X230393000Y-189103000D03*
X229373000Y-189103000D03*
%TD*%
D33*
%TO.C,R28*%
X314579000Y-128715000D03*
X314579000Y-130365000D03*
%TD*%
D52*
%TO.C,U26*%
X284538500Y-118248000D03*
X284538500Y-118898000D03*
X284538500Y-119548000D03*
X284538500Y-120198000D03*
X284538500Y-120848000D03*
X284538500Y-121498000D03*
X284538500Y-122148000D03*
X284538500Y-122798000D03*
X290263500Y-122798000D03*
X290263500Y-122148000D03*
X290263500Y-121498000D03*
X290263500Y-120848000D03*
X290263500Y-120198000D03*
X290263500Y-119548000D03*
X290263500Y-118898000D03*
X290263500Y-118248000D03*
%TD*%
D14*
%TO.C,R57*%
X180465000Y-121539000D03*
X181485000Y-121539000D03*
%TD*%
D15*
%TO.C,C2604*%
X290490000Y-189103000D03*
X291450000Y-189103000D03*
%TD*%
D16*
%TO.C,R2602*%
X293385000Y-189103000D03*
X292365000Y-189103000D03*
%TD*%
D28*
%TO.C,C67*%
X254601000Y-147910000D03*
X254601000Y-148870000D03*
%TD*%
D23*
%TO.C,C2605*%
X294485000Y-188087000D03*
X293525000Y-188087000D03*
%TD*%
D22*
%TO.C,C1901*%
X249682000Y-207785000D03*
X249682000Y-206235000D03*
%TD*%
D14*
%TO.C,R2607*%
X292479000Y-180975000D03*
X293499000Y-180975000D03*
%TD*%
D53*
%TO.C,U34*%
X106717502Y-139107407D03*
X106217503Y-139107407D03*
X105717502Y-139107407D03*
X105217503Y-139107407D03*
X104717501Y-139107407D03*
X104217502Y-139107407D03*
X103717503Y-139107407D03*
X103217501Y-139107407D03*
X102717502Y-139107407D03*
X102217501Y-139107407D03*
X101717502Y-139107407D03*
X101717502Y-142104607D03*
X102217501Y-142104607D03*
X102717502Y-142104607D03*
X103217501Y-142104607D03*
X103717503Y-142104607D03*
X104217502Y-142104607D03*
X104717501Y-142104607D03*
X105217503Y-142104607D03*
X105717502Y-142104607D03*
X106217503Y-142104607D03*
X106717502Y-142104607D03*
D54*
X105687502Y-140606007D03*
X102747502Y-140606007D03*
%TD*%
D29*
%TO.C,R1003*%
X171513000Y-187833000D03*
X169863000Y-187833000D03*
%TD*%
D28*
%TO.C,C61*%
X166717000Y-147910000D03*
X166717000Y-148870000D03*
%TD*%
D23*
%TO.C,C405*%
X137005000Y-188087000D03*
X136045000Y-188087000D03*
%TD*%
D29*
%TO.C,R1803*%
X234505000Y-187833000D03*
X232855000Y-187833000D03*
%TD*%
D24*
%TO.C,C9*%
X147973000Y-142466000D03*
X147973000Y-141506000D03*
%TD*%
D18*
%TO.C,L2801*%
X329184000Y-183492000D03*
X329184000Y-182522000D03*
%TD*%
D22*
%TO.C,C2601*%
X296926000Y-207785000D03*
X296926000Y-206235000D03*
%TD*%
D30*
%TO.C,K901*%
X149898000Y-191135000D03*
X149898000Y-196215000D03*
X149898000Y-198755000D03*
X149898000Y-201295000D03*
X149898000Y-203835000D03*
X157188000Y-203835000D03*
X157188000Y-201295000D03*
X157188000Y-198755000D03*
X157188000Y-196215000D03*
X157188000Y-191135000D03*
%TD*%
D29*
%TO.C,R1103*%
X187261000Y-187833000D03*
X185611000Y-187833000D03*
%TD*%
D23*
%TO.C,C305*%
X121257000Y-188087000D03*
X120297000Y-188087000D03*
%TD*%
D14*
%TO.C,R407*%
X134999000Y-180975000D03*
X136019000Y-180975000D03*
%TD*%
D24*
%TO.C,C30*%
X192931000Y-142466000D03*
X192931000Y-141506000D03*
%TD*%
D22*
%TO.C,C102*%
X89408000Y-207785000D03*
X89408000Y-206235000D03*
%TD*%
D34*
%TO.C,L902*%
X148740000Y-182372000D03*
X149710000Y-182372000D03*
%TD*%
D15*
%TO.C,C25*%
X190673000Y-153162000D03*
X191633000Y-153162000D03*
%TD*%
D29*
%TO.C,R1203*%
X203009000Y-187833000D03*
X201359000Y-187833000D03*
%TD*%
D22*
%TO.C,C1902*%
X246888000Y-207785000D03*
X246888000Y-206235000D03*
%TD*%
D16*
%TO.C,R1006*%
X169547000Y-180975000D03*
X168527000Y-180975000D03*
%TD*%
D14*
%TO.C,R907*%
X150747000Y-180975000D03*
X151767000Y-180975000D03*
%TD*%
D16*
%TO.C,R1202*%
X198897000Y-189103000D03*
X197877000Y-189103000D03*
%TD*%
D14*
%TO.C,R101*%
X89723000Y-189103000D03*
X90743000Y-189103000D03*
%TD*%
D17*
%TO.C,R33*%
X328740000Y-123444000D03*
X330390000Y-123444000D03*
%TD*%
D24*
%TO.C,C1106*%
X186436000Y-183487000D03*
X186436000Y-182527000D03*
%TD*%
D29*
%TO.C,R74*%
X132714000Y-123255000D03*
X131064000Y-123255000D03*
%TD*%
D16*
%TO.C,R2506*%
X279783000Y-180975000D03*
X278763000Y-180975000D03*
%TD*%
D17*
%TO.C,R75*%
X133223000Y-125668000D03*
X134873000Y-125668000D03*
%TD*%
D14*
%TO.C,R201*%
X105471000Y-189103000D03*
X106491000Y-189103000D03*
%TD*%
D25*
%TO.C,R39*%
X331216000Y-120271000D03*
X331216000Y-119251000D03*
%TD*%
D23*
%TO.C,C79*%
X278910000Y-147955000D03*
X277950000Y-147955000D03*
%TD*%
D28*
%TO.C,C1114*%
X181102000Y-185448000D03*
X181102000Y-186408000D03*
%TD*%
D16*
%TO.C,R2006*%
X264034999Y-180975000D03*
X263014999Y-180975000D03*
%TD*%
D15*
%TO.C,C2504*%
X274742000Y-189103000D03*
X275702000Y-189103000D03*
%TD*%
D18*
%TO.C,L2003*%
X258825999Y-186413000D03*
X258825999Y-185443000D03*
%TD*%
D24*
%TO.C,C2710*%
X312420000Y-185392000D03*
X312420000Y-184432000D03*
%TD*%
D22*
%TO.C,C1102*%
X183896000Y-207785000D03*
X183896000Y-206235000D03*
%TD*%
D23*
%TO.C,C2805*%
X325981000Y-188087000D03*
X325021000Y-188087000D03*
%TD*%
D17*
%TO.C,R5*%
X151067000Y-110744000D03*
X152717000Y-110744000D03*
%TD*%
D14*
%TO.C,R1101*%
X184211000Y-189103000D03*
X185231000Y-189103000D03*
%TD*%
D18*
%TO.C,L1101*%
X187452000Y-183492000D03*
X187452000Y-182522000D03*
%TD*%
D16*
%TO.C,R1805*%
X231523000Y-186436000D03*
X230503000Y-186436000D03*
%TD*%
D18*
%TO.C,L1901*%
X250444000Y-183492000D03*
X250444000Y-182522000D03*
%TD*%
D16*
%TO.C,R405*%
X137035000Y-186436000D03*
X136015000Y-186436000D03*
%TD*%
D28*
%TO.C,C1814*%
X228346000Y-185448000D03*
X228346000Y-186408000D03*
%TD*%
D24*
%TO.C,C1806*%
X233680000Y-183487000D03*
X233680000Y-182527000D03*
%TD*%
D15*
%TO.C,C409*%
X132997000Y-184404000D03*
X133957000Y-184404000D03*
%TD*%
D24*
%TO.C,C210*%
X107696000Y-185392000D03*
X107696000Y-184432000D03*
%TD*%
%TO.C,C2608*%
X291338000Y-181328000D03*
X291338000Y-180368000D03*
%TD*%
D23*
%TO.C,C72*%
X273657000Y-152527000D03*
X272697000Y-152527000D03*
%TD*%
D24*
%TO.C,C110*%
X91948000Y-185392000D03*
X91948000Y-184432000D03*
%TD*%
D19*
%TO.C,U2701*%
X309003000Y-185163500D03*
X309503000Y-185163500D03*
X310003000Y-185163500D03*
X310503000Y-185163500D03*
D20*
X311215500Y-184451000D03*
X311215500Y-183951000D03*
X311215500Y-183451000D03*
X311215500Y-182951000D03*
D19*
X310503000Y-182238500D03*
X310003000Y-182238500D03*
X309503000Y-182238500D03*
X309003000Y-182238500D03*
D20*
X308290500Y-182951000D03*
X308290500Y-183451000D03*
X308290500Y-183951000D03*
X308290500Y-184451000D03*
D21*
X309753000Y-183701000D03*
%TD*%
D24*
%TO.C,C1808*%
X228346000Y-181328000D03*
X228346000Y-180368000D03*
%TD*%
D23*
%TO.C,C2707*%
X307185000Y-183388000D03*
X306225000Y-183388000D03*
%TD*%
D36*
%TO.C,U3*%
X156577500Y-148424000D03*
X156577500Y-147474000D03*
X156577500Y-146524000D03*
X154302500Y-146524000D03*
X154302500Y-147474000D03*
X154302500Y-148424000D03*
%TD*%
D15*
%TO.C,C57*%
X230424000Y-148971000D03*
X231384000Y-148971000D03*
%TD*%
D23*
%TO.C,C2607*%
X291437000Y-183388000D03*
X290477000Y-183388000D03*
%TD*%
D14*
%TO.C,R2007*%
X260982999Y-180975000D03*
X262002999Y-180975000D03*
%TD*%
D17*
%TO.C,R1804*%
X227534000Y-187833000D03*
X229184000Y-187833000D03*
%TD*%
D24*
%TO.C,C410*%
X139192000Y-185392000D03*
X139192000Y-184432000D03*
%TD*%
D43*
%TO.C,U8*%
X252784000Y-149125000D03*
X252784000Y-147855000D03*
X252784000Y-146585000D03*
X252784000Y-145315000D03*
X247834000Y-145315000D03*
X247834000Y-146585000D03*
X247834000Y-147855000D03*
X247834000Y-149125000D03*
%TD*%
D24*
%TO.C,C1208*%
X196850000Y-181328000D03*
X196850000Y-180368000D03*
%TD*%
D33*
%TO.C,R23*%
X314579000Y-125667000D03*
X314579000Y-127317000D03*
%TD*%
D34*
%TO.C,L1702*%
X211732000Y-182372000D03*
X212702000Y-182372000D03*
%TD*%
D17*
%TO.C,R2004*%
X259029999Y-187833000D03*
X260679999Y-187833000D03*
%TD*%
D14*
%TO.C,R2801*%
X325943000Y-189103000D03*
X326963000Y-189103000D03*
%TD*%
D15*
%TO.C,C104*%
X85766000Y-189103000D03*
X86726000Y-189103000D03*
%TD*%
D14*
%TO.C,R2707*%
X308227000Y-180975000D03*
X309247000Y-180975000D03*
%TD*%
D16*
%TO.C,R1705*%
X215775000Y-186436000D03*
X214755000Y-186436000D03*
%TD*%
D17*
%TO.C,R2604*%
X290526000Y-187833000D03*
X292176000Y-187833000D03*
%TD*%
D55*
%TO.C,C158*%
X109536000Y-127259002D03*
X111086000Y-127259002D03*
%TD*%
D15*
%TO.C,C20*%
X142540000Y-147955000D03*
X143500000Y-147955000D03*
%TD*%
D16*
%TO.C,R2706*%
X311279000Y-180975000D03*
X310259000Y-180975000D03*
%TD*%
D34*
%TO.C,L1202*%
X195984000Y-182372000D03*
X196954000Y-182372000D03*
%TD*%
D15*
%TO.C,C31*%
X234615000Y-154178000D03*
X235575000Y-154178000D03*
%TD*%
D22*
%TO.C,C2602*%
X294132000Y-207785000D03*
X294132000Y-206235000D03*
%TD*%
D29*
%TO.C,R203*%
X108521000Y-187833000D03*
X106871000Y-187833000D03*
%TD*%
D22*
%TO.C,C202*%
X105156000Y-207785000D03*
X105156000Y-206235000D03*
%TD*%
D14*
%TO.C,R401*%
X136967000Y-189103000D03*
X137987000Y-189103000D03*
%TD*%
D34*
%TO.C,L2602*%
X290472000Y-182372000D03*
X291442000Y-182372000D03*
%TD*%
D23*
%TO.C,C64*%
X234940000Y-148971000D03*
X233980000Y-148971000D03*
%TD*%
D18*
%TO.C,L1003*%
X164338000Y-186413000D03*
X164338000Y-185443000D03*
%TD*%
D17*
%TO.C,R1704*%
X211786000Y-187833000D03*
X213436000Y-187833000D03*
%TD*%
D24*
%TO.C,C1108*%
X181102000Y-181328000D03*
X181102000Y-180368000D03*
%TD*%
D30*
%TO.C,K1201*%
X197142000Y-191135000D03*
X197142000Y-196215000D03*
X197142000Y-198755000D03*
X197142000Y-201295000D03*
X197142000Y-203835000D03*
X204432000Y-203835000D03*
X204432000Y-201295000D03*
X204432000Y-198755000D03*
X204432000Y-196215000D03*
X204432000Y-191135000D03*
%TD*%
D23*
%TO.C,C1105*%
X184249000Y-188087000D03*
X183289000Y-188087000D03*
%TD*%
D14*
%TO.C,R35*%
X223744600Y-113205800D03*
X224764600Y-113205800D03*
%TD*%
D28*
%TO.C,C1*%
X140607000Y-147348000D03*
X140607000Y-148308000D03*
%TD*%
D15*
%TO.C,C1709*%
X211737000Y-184404000D03*
X212697000Y-184404000D03*
%TD*%
D16*
%TO.C,R402*%
X135905000Y-189103000D03*
X134885000Y-189103000D03*
%TD*%
D29*
%TO.C,R303*%
X124269000Y-187833000D03*
X122619000Y-187833000D03*
%TD*%
D33*
%TO.C,R81*%
X106249502Y-143845007D03*
X106249502Y-145495007D03*
%TD*%
D28*
%TO.C,C2614*%
X291338000Y-185448000D03*
X291338000Y-186408000D03*
%TD*%
D24*
%TO.C,C2808*%
X322834000Y-181328000D03*
X322834000Y-180368000D03*
%TD*%
D15*
%TO.C,C66*%
X242209000Y-149760000D03*
X243169000Y-149760000D03*
%TD*%
D40*
%TO.C,C125*%
X148590000Y-113604000D03*
X148590000Y-115504000D03*
%TD*%
D24*
%TO.C,C1708*%
X212598000Y-181328000D03*
X212598000Y-180368000D03*
%TD*%
D23*
%TO.C,C205*%
X105509000Y-188087000D03*
X104549000Y-188087000D03*
%TD*%
D52*
%TO.C,U29*%
X284538500Y-125076000D03*
X284538500Y-125726000D03*
X284538500Y-126376000D03*
X284538500Y-127026000D03*
X284538500Y-127676000D03*
X284538500Y-128326000D03*
X284538500Y-128976000D03*
X284538500Y-129626000D03*
X284538500Y-130276000D03*
X284538500Y-130926000D03*
X284538500Y-131576000D03*
X284538500Y-132226000D03*
X290263500Y-132226000D03*
X290263500Y-131576000D03*
X290263500Y-130926000D03*
X290263500Y-130276000D03*
X290263500Y-129626000D03*
X290263500Y-128976000D03*
X290263500Y-128326000D03*
X290263500Y-127676000D03*
X290263500Y-127026000D03*
X290263500Y-126376000D03*
X290263500Y-125726000D03*
X290263500Y-125076000D03*
%TD*%
D22*
%TO.C,C2002*%
X262635999Y-207785000D03*
X262635999Y-206235000D03*
%TD*%
D28*
%TO.C,C2*%
X141623000Y-147348000D03*
X141623000Y-148308000D03*
%TD*%
D32*
%TO.C,H7*%
X277324000Y-103188000D03*
%TD*%
D15*
%TO.C,C1903*%
X249075000Y-189103000D03*
X250035000Y-189103000D03*
%TD*%
D24*
%TO.C,C29*%
X191915000Y-142466000D03*
X191915000Y-141506000D03*
%TD*%
D15*
%TO.C,C209*%
X101501000Y-184404000D03*
X102461000Y-184404000D03*
%TD*%
D28*
%TO.C,C4*%
X149017000Y-147348000D03*
X149017000Y-148308000D03*
%TD*%
D38*
%TO.C,C149*%
X136014000Y-120715000D03*
X134114000Y-120715000D03*
%TD*%
D23*
%TO.C,C114*%
X222067600Y-115384800D03*
X221107600Y-115384800D03*
%TD*%
D14*
%TO.C,R1201*%
X199959000Y-189103000D03*
X200979000Y-189103000D03*
%TD*%
D15*
%TO.C,C204*%
X101514000Y-189103000D03*
X102474000Y-189103000D03*
%TD*%
D16*
%TO.C,R105*%
X89791000Y-186436000D03*
X88771000Y-186436000D03*
%TD*%
D15*
%TO.C,C2704*%
X306238000Y-189103000D03*
X307198000Y-189103000D03*
%TD*%
D24*
%TO.C,C108*%
X86614000Y-181328000D03*
X86614000Y-180368000D03*
%TD*%
D32*
%TO.C,H6*%
X214324000Y-103488000D03*
%TD*%
D30*
%TO.C,K2801*%
X323126000Y-191135000D03*
X323126000Y-196215000D03*
X323126000Y-198755000D03*
X323126000Y-201295000D03*
X323126000Y-203835000D03*
X330416000Y-203835000D03*
X330416000Y-201295000D03*
X330416000Y-198755000D03*
X330416000Y-196215000D03*
X330416000Y-191135000D03*
%TD*%
D19*
%TO.C,U1001*%
X167271000Y-185163500D03*
X167771000Y-185163500D03*
X168271000Y-185163500D03*
X168771000Y-185163500D03*
D20*
X169483500Y-184451000D03*
X169483500Y-183951000D03*
X169483500Y-183451000D03*
X169483500Y-182951000D03*
D19*
X168771000Y-182238500D03*
X168271000Y-182238500D03*
X167771000Y-182238500D03*
X167271000Y-182238500D03*
D20*
X166558500Y-182951000D03*
X166558500Y-183451000D03*
X166558500Y-183951000D03*
X166558500Y-184451000D03*
D21*
X168021000Y-183701000D03*
%TD*%
D43*
%TO.C,U11*%
X296726000Y-149125000D03*
X296726000Y-147855000D03*
X296726000Y-146585000D03*
X296726000Y-145315000D03*
X291776000Y-145315000D03*
X291776000Y-146585000D03*
X291776000Y-147855000D03*
X291776000Y-149125000D03*
%TD*%
D22*
%TO.C,C1201*%
X202438000Y-207785000D03*
X202438000Y-206235000D03*
%TD*%
D18*
%TO.C,L201*%
X108712000Y-183492000D03*
X108712000Y-182522000D03*
%TD*%
D15*
%TO.C,C309*%
X117249000Y-184404000D03*
X118209000Y-184404000D03*
%TD*%
D24*
%TO.C,C208*%
X102362000Y-181328000D03*
X102362000Y-180368000D03*
%TD*%
D23*
%TO.C,C21*%
X147084000Y-147955000D03*
X146124000Y-147955000D03*
%TD*%
D24*
%TO.C,C408*%
X133858000Y-181328000D03*
X133858000Y-180368000D03*
%TD*%
D33*
%TO.C,R92*%
X99683700Y-140552901D03*
X99683700Y-142202901D03*
%TD*%
D15*
%TO.C,C2709*%
X306225000Y-184404000D03*
X307185000Y-184404000D03*
%TD*%
%TO.C,C1703*%
X217579000Y-189103000D03*
X218539000Y-189103000D03*
%TD*%
D34*
%TO.C,L1102*%
X180236000Y-182372000D03*
X181206000Y-182372000D03*
%TD*%
D14*
%TO.C,R2807*%
X323975000Y-180975000D03*
X324995000Y-180975000D03*
%TD*%
D15*
%TO.C,C2004*%
X258993999Y-189103000D03*
X259953999Y-189103000D03*
%TD*%
%TO.C,C103*%
X91595000Y-189103000D03*
X92555000Y-189103000D03*
%TD*%
D18*
%TO.C,L2501*%
X281940000Y-183492000D03*
X281940000Y-182522000D03*
%TD*%
D16*
%TO.C,R2702*%
X309133000Y-189103000D03*
X308113000Y-189103000D03*
%TD*%
D17*
%TO.C,R97*%
X106248000Y-125735001D03*
X107898000Y-125735001D03*
%TD*%
D18*
%TO.C,L2701*%
X313436000Y-183492000D03*
X313436000Y-182522000D03*
%TD*%
D24*
%TO.C,C48*%
X236873000Y-142466000D03*
X236873000Y-141506000D03*
%TD*%
D22*
%TO.C,C1001*%
X170942000Y-207785000D03*
X170942000Y-206235000D03*
%TD*%
D34*
%TO.C,L2702*%
X306220000Y-182372000D03*
X307190000Y-182372000D03*
%TD*%
D55*
%TO.C,C160*%
X112521000Y-125735001D03*
X114071000Y-125735001D03*
%TD*%
D34*
%TO.C,L1002*%
X164488000Y-182372000D03*
X165458000Y-182372000D03*
%TD*%
D15*
%TO.C,C96*%
X322608000Y-129032000D03*
X323568000Y-129032000D03*
%TD*%
D14*
%TO.C,R1001*%
X168463000Y-189103000D03*
X169483000Y-189103000D03*
%TD*%
D24*
%TO.C,C2506*%
X280924000Y-183487000D03*
X280924000Y-182527000D03*
%TD*%
%TO.C,C172*%
X219964000Y-120368000D03*
X219964000Y-119408000D03*
%TD*%
D14*
%TO.C,R207*%
X103503000Y-180975000D03*
X104523000Y-180975000D03*
%TD*%
D34*
%TO.C,L2802*%
X321968000Y-182372000D03*
X322938000Y-182372000D03*
%TD*%
D29*
%TO.C,R403*%
X140017000Y-187833000D03*
X138367000Y-187833000D03*
%TD*%
D15*
%TO.C,C304*%
X117262000Y-189103000D03*
X118222000Y-189103000D03*
%TD*%
D14*
%TO.C,R307*%
X119251000Y-180975000D03*
X120271000Y-180975000D03*
%TD*%
D36*
%TO.C,U12*%
X288403500Y-148424000D03*
X288403500Y-147474000D03*
X288403500Y-146524000D03*
X286128500Y-146524000D03*
X286128500Y-147474000D03*
X286128500Y-148424000D03*
%TD*%
D33*
%TO.C,R31*%
X316103000Y-133414000D03*
X316103000Y-135064000D03*
%TD*%
D25*
%TO.C,R60*%
X282829000Y-125351000D03*
X282829000Y-124331000D03*
%TD*%
D15*
%TO.C,C73*%
X274366000Y-148971000D03*
X275326000Y-148971000D03*
%TD*%
D23*
%TO.C,C407*%
X133957000Y-183388000D03*
X132997000Y-183388000D03*
%TD*%
D16*
%TO.C,R906*%
X153799000Y-180975000D03*
X152779000Y-180975000D03*
%TD*%
D18*
%TO.C,L1201*%
X203200000Y-183492000D03*
X203200000Y-182522000D03*
%TD*%
D24*
%TO.C,C2706*%
X312420000Y-183487000D03*
X312420000Y-182527000D03*
%TD*%
D23*
%TO.C,C2505*%
X278737000Y-188087000D03*
X277777000Y-188087000D03*
%TD*%
D15*
%TO.C,C2503*%
X280571000Y-189103000D03*
X281531000Y-189103000D03*
%TD*%
D29*
%TO.C,R903*%
X155765000Y-187833000D03*
X154115000Y-187833000D03*
%TD*%
D28*
%TO.C,C14*%
X192959000Y-147348000D03*
X192959000Y-148308000D03*
%TD*%
D15*
%TO.C,C1209*%
X195989000Y-184404000D03*
X196949000Y-184404000D03*
%TD*%
D23*
%TO.C,C55*%
X229715000Y-153543000D03*
X228755000Y-153543000D03*
%TD*%
%TO.C,C2807*%
X322933000Y-183388000D03*
X321973000Y-183388000D03*
%TD*%
D15*
%TO.C,C7*%
X146731000Y-154178000D03*
X147691000Y-154178000D03*
%TD*%
D33*
%TO.C,R47*%
X314579000Y-122619000D03*
X314579000Y-124269000D03*
%TD*%
D18*
%TO.C,L1803*%
X227330000Y-186413000D03*
X227330000Y-185443000D03*
%TD*%
D30*
%TO.C,K401*%
X134150000Y-191135000D03*
X134150000Y-196215000D03*
X134150000Y-198755000D03*
X134150000Y-201295000D03*
X134150000Y-203835000D03*
X141440000Y-203835000D03*
X141440000Y-201295000D03*
X141440000Y-198755000D03*
X141440000Y-196215000D03*
X141440000Y-191135000D03*
%TD*%
D15*
%TO.C,C1909*%
X243233000Y-184404000D03*
X244193000Y-184404000D03*
%TD*%
D16*
%TO.C,R1702*%
X214645000Y-189103000D03*
X213625000Y-189103000D03*
%TD*%
D24*
%TO.C,C82*%
X152773000Y-147446000D03*
X152773000Y-146486000D03*
%TD*%
D43*
%TO.C,U5*%
X208842000Y-149125000D03*
X208842000Y-147855000D03*
X208842000Y-146585000D03*
X208842000Y-145315000D03*
X203892000Y-145315000D03*
X203892000Y-146585000D03*
X203892000Y-147855000D03*
X203892000Y-149125000D03*
%TD*%
D23*
%TO.C,C2005*%
X262988999Y-188087000D03*
X262028999Y-188087000D03*
%TD*%
D33*
%TO.C,R48*%
X316103000Y-124270000D03*
X316103000Y-125920000D03*
%TD*%
D22*
%TO.C,C1101*%
X186690000Y-207785000D03*
X186690000Y-206235000D03*
%TD*%
D15*
%TO.C,C2603*%
X296319000Y-189103000D03*
X297279000Y-189103000D03*
%TD*%
D30*
%TO.C,K301*%
X118402000Y-191135000D03*
X118402000Y-196215000D03*
X118402000Y-198755000D03*
X118402000Y-201295000D03*
X118402000Y-203835000D03*
X125692000Y-203835000D03*
X125692000Y-201295000D03*
X125692000Y-198755000D03*
X125692000Y-196215000D03*
X125692000Y-191135000D03*
%TD*%
D29*
%TO.C,R2803*%
X328993000Y-187833000D03*
X327343000Y-187833000D03*
%TD*%
D17*
%TO.C,R53*%
X269304000Y-110490000D03*
X270954000Y-110490000D03*
%TD*%
D16*
%TO.C,R2002*%
X261888999Y-189103000D03*
X260868999Y-189103000D03*
%TD*%
D29*
%TO.C,R17*%
X221043000Y-112522000D03*
X219393000Y-112522000D03*
%TD*%
D15*
%TO.C,C1904*%
X243246000Y-189103000D03*
X244206000Y-189103000D03*
%TD*%
D23*
%TO.C,C1907*%
X244193000Y-183388000D03*
X243233000Y-183388000D03*
%TD*%
D28*
%TO.C,C914*%
X149606000Y-185448000D03*
X149606000Y-186408000D03*
%TD*%
D33*
%TO.C,R34*%
X316103000Y-127318000D03*
X316103000Y-128968000D03*
%TD*%
D29*
%TO.C,R2003*%
X266000999Y-187833000D03*
X264350999Y-187833000D03*
%TD*%
D56*
%TO.C,R4*%
X291973000Y-118235000D03*
X291973000Y-119255000D03*
%TD*%
D15*
%TO.C,C1109*%
X180241000Y-184404000D03*
X181201000Y-184404000D03*
%TD*%
D25*
%TO.C,R40*%
X329946000Y-120271000D03*
X329946000Y-119251000D03*
%TD*%
D24*
%TO.C,C2508*%
X275590000Y-181328000D03*
X275590000Y-180368000D03*
%TD*%
D17*
%TO.C,R1204*%
X196038000Y-187833000D03*
X197688000Y-187833000D03*
%TD*%
D24*
%TO.C,C2010*%
X265175999Y-185392000D03*
X265175999Y-184432000D03*
%TD*%
%TO.C,C1006*%
X170688000Y-183487000D03*
X170688000Y-182527000D03*
%TD*%
D15*
%TO.C,C45*%
X198267000Y-149760000D03*
X199227000Y-149760000D03*
%TD*%
D22*
%TO.C,C151*%
X137731000Y-124157000D03*
X137731000Y-122607000D03*
%TD*%
%TO.C,C901*%
X155194000Y-207785000D03*
X155194000Y-206235000D03*
%TD*%
D24*
%TO.C,C2006*%
X265175999Y-183487000D03*
X265175999Y-182527000D03*
%TD*%
D22*
%TO.C,C2001*%
X265429999Y-207785000D03*
X265429999Y-206235000D03*
%TD*%
D28*
%TO.C,C214*%
X102362000Y-185448000D03*
X102362000Y-186408000D03*
%TD*%
D44*
%TO.C,C164*%
X104800000Y-125735001D03*
X103250000Y-125735001D03*
%TD*%
D18*
%TO.C,L1801*%
X234696000Y-183492000D03*
X234696000Y-182522000D03*
%TD*%
D57*
%TO.C,R69*%
X143533500Y-119634000D03*
X141708500Y-119634000D03*
%TD*%
D30*
%TO.C,K1101*%
X181394000Y-191135000D03*
X181394000Y-196215000D03*
X181394000Y-198755000D03*
X181394000Y-201295000D03*
X181394000Y-203835000D03*
X188684000Y-203835000D03*
X188684000Y-201295000D03*
X188684000Y-198755000D03*
X188684000Y-196215000D03*
X188684000Y-191135000D03*
%TD*%
D16*
%TO.C,R102*%
X88661000Y-189103000D03*
X87641000Y-189103000D03*
%TD*%
D17*
%TO.C,R85*%
X320264000Y-136558000D03*
X321914000Y-136558000D03*
%TD*%
D19*
%TO.C,U2001*%
X261758999Y-185163500D03*
X262258999Y-185163500D03*
X262758999Y-185163500D03*
X263258999Y-185163500D03*
D20*
X263971499Y-184451000D03*
X263971499Y-183951000D03*
X263971499Y-183451000D03*
X263971499Y-182951000D03*
D19*
X263258999Y-182238500D03*
X262758999Y-182238500D03*
X262258999Y-182238500D03*
X261758999Y-182238500D03*
D20*
X261046499Y-182951000D03*
X261046499Y-183451000D03*
X261046499Y-183951000D03*
X261046499Y-184451000D03*
D21*
X262508999Y-183701000D03*
%TD*%
D28*
%TO.C,C13*%
X191943000Y-147348000D03*
X191943000Y-148308000D03*
%TD*%
D24*
%TO.C,C77*%
X240657000Y-147446000D03*
X240657000Y-146486000D03*
%TD*%
D18*
%TO.C,L1701*%
X218948000Y-183492000D03*
X218948000Y-182522000D03*
%TD*%
D22*
%TO.C,C402*%
X136652000Y-207785000D03*
X136652000Y-206235000D03*
%TD*%
D15*
%TO.C,C84*%
X286151000Y-149760000D03*
X287111000Y-149760000D03*
%TD*%
D17*
%TO.C,R404*%
X133046000Y-187833000D03*
X134696000Y-187833000D03*
%TD*%
D31*
%TO.C,L1*%
X152700500Y-112395000D03*
X150575500Y-112395000D03*
%TD*%
D15*
%TO.C,C404*%
X133010000Y-189103000D03*
X133970000Y-189103000D03*
%TD*%
D14*
%TO.C,R901*%
X152715000Y-189103000D03*
X153735000Y-189103000D03*
%TD*%
D18*
%TO.C,L203*%
X101346000Y-186413000D03*
X101346000Y-185443000D03*
%TD*%
D14*
%TO.C,R1207*%
X197991000Y-180975000D03*
X199011000Y-180975000D03*
%TD*%
D28*
%TO.C,C27*%
X272433000Y-147348000D03*
X272433000Y-148308000D03*
%TD*%
D17*
%TO.C,R87*%
X321915000Y-135034000D03*
X323565000Y-135034000D03*
%TD*%
D24*
%TO.C,C1810*%
X233680000Y-185392000D03*
X233680000Y-184432000D03*
%TD*%
D16*
%TO.C,R2802*%
X324881000Y-189103000D03*
X323861000Y-189103000D03*
%TD*%
D19*
%TO.C,U101*%
X88531000Y-185163500D03*
X89031000Y-185163500D03*
X89531000Y-185163500D03*
X90031000Y-185163500D03*
D20*
X90743500Y-184451000D03*
X90743500Y-183951000D03*
X90743500Y-183451000D03*
X90743500Y-182951000D03*
D19*
X90031000Y-182238500D03*
X89531000Y-182238500D03*
X89031000Y-182238500D03*
X88531000Y-182238500D03*
D20*
X87818500Y-182951000D03*
X87818500Y-183451000D03*
X87818500Y-183951000D03*
X87818500Y-184451000D03*
D21*
X89281000Y-183701000D03*
%TD*%
D14*
%TO.C,R1707*%
X213739000Y-180975000D03*
X214759000Y-180975000D03*
%TD*%
D28*
%TO.C,C2814*%
X322834000Y-185448000D03*
X322834000Y-186408000D03*
%TD*%
%TO.C,C314*%
X118110000Y-185448000D03*
X118110000Y-186408000D03*
%TD*%
D17*
%TO.C,R104*%
X85802000Y-187833000D03*
X87452000Y-187833000D03*
%TD*%
D41*
%TO.C,P2*%
X218629000Y-104538000D03*
X273010000Y-101488000D03*
D42*
X270585000Y-98313000D03*
X269315000Y-98313000D03*
X268045000Y-98313000D03*
X266775000Y-98313000D03*
X265505000Y-98313000D03*
X264235000Y-98313000D03*
X262965000Y-98313000D03*
X261695000Y-98313000D03*
X260425000Y-98313000D03*
X259155000Y-98313000D03*
X257885000Y-98313000D03*
X256615000Y-98313000D03*
X255345000Y-98313000D03*
X254075000Y-98313000D03*
X252805000Y-98313000D03*
X251535000Y-98313000D03*
X250265000Y-98313000D03*
X248995000Y-98313000D03*
X247725000Y-98313000D03*
X246455000Y-98313000D03*
X245185000Y-98313000D03*
X243915000Y-98313000D03*
X242645000Y-98313000D03*
X241375000Y-98313000D03*
X240105000Y-98313000D03*
X238835000Y-98313000D03*
X237565000Y-98313000D03*
X236295000Y-98313000D03*
X235025000Y-98313000D03*
X233755000Y-98313000D03*
X232485000Y-98313000D03*
X231215000Y-98313000D03*
X229945000Y-98313000D03*
X228675000Y-98313000D03*
X227405000Y-98313000D03*
X226135000Y-98313000D03*
X224865000Y-98313000D03*
X223595000Y-98313000D03*
X222325000Y-98313000D03*
X221055000Y-98313000D03*
X270585000Y-99583000D03*
X269315000Y-99583000D03*
X268045000Y-99583000D03*
X266775000Y-99583000D03*
X265505000Y-99583000D03*
X264235000Y-99583000D03*
X262965000Y-99583000D03*
X261695000Y-99583000D03*
X260425000Y-99583000D03*
X259155000Y-99583000D03*
X257885000Y-99583000D03*
X256615000Y-99583000D03*
X255345000Y-99583000D03*
X254075000Y-99583000D03*
X252805000Y-99583000D03*
X251535000Y-99583000D03*
X250265000Y-99583000D03*
X248995000Y-99583000D03*
X247725000Y-99583000D03*
X246455000Y-99583000D03*
X245185000Y-99583000D03*
X243915000Y-99583000D03*
X242645000Y-99583000D03*
X241375000Y-99583000D03*
X240105000Y-99583000D03*
X238835000Y-99583000D03*
X237565000Y-99583000D03*
X236295000Y-99583000D03*
X235025000Y-99583000D03*
X233755000Y-99583000D03*
X232485000Y-99583000D03*
X231215000Y-99583000D03*
X229945000Y-99583000D03*
X228675000Y-99583000D03*
X227405000Y-99583000D03*
X226135000Y-99583000D03*
X224865000Y-99583000D03*
X223595000Y-99583000D03*
X222325000Y-99583000D03*
X221055000Y-99583000D03*
X270585000Y-103393000D03*
X269315000Y-103393000D03*
X268045000Y-103393000D03*
X266775000Y-103393000D03*
X265505000Y-103393000D03*
X264235000Y-103393000D03*
X262965000Y-103393000D03*
X261695000Y-103393000D03*
X260425000Y-103393000D03*
X259155000Y-103393000D03*
X257885000Y-103393000D03*
X256615000Y-103393000D03*
X255345000Y-103393000D03*
X254075000Y-103393000D03*
X252805000Y-103393000D03*
X251535000Y-103393000D03*
X250265000Y-103393000D03*
X248995000Y-103393000D03*
X247725000Y-103393000D03*
X246455000Y-103393000D03*
X245185000Y-103393000D03*
X243915000Y-103393000D03*
X242645000Y-103393000D03*
X241375000Y-103393000D03*
X240105000Y-103393000D03*
X238835000Y-103393000D03*
X237565000Y-103393000D03*
X236295000Y-103393000D03*
X235025000Y-103393000D03*
X233755000Y-103393000D03*
X232485000Y-103393000D03*
X231215000Y-103393000D03*
X229945000Y-103393000D03*
X228675000Y-103393000D03*
X227405000Y-103393000D03*
X226135000Y-103393000D03*
X224865000Y-103393000D03*
X223595000Y-103393000D03*
X222325000Y-103393000D03*
X221055000Y-103393000D03*
X270585000Y-104663000D03*
X269315000Y-104663000D03*
X268045000Y-104663000D03*
X266775000Y-104663000D03*
X265505000Y-104663000D03*
X264235000Y-104663000D03*
X262965000Y-104663000D03*
X261695000Y-104663000D03*
X260425000Y-104663000D03*
X259155000Y-104663000D03*
X257885000Y-104663000D03*
X256615000Y-104663000D03*
X255345000Y-104663000D03*
X254075000Y-104663000D03*
X252805000Y-104663000D03*
X251535000Y-104663000D03*
X250265000Y-104663000D03*
X248995000Y-104663000D03*
X247725000Y-104663000D03*
X246455000Y-104663000D03*
X245185000Y-104663000D03*
X243915000Y-104663000D03*
X242645000Y-104663000D03*
X241375000Y-104663000D03*
X240105000Y-104663000D03*
X238835000Y-104663000D03*
X237565000Y-104663000D03*
X236295000Y-104663000D03*
X235025000Y-104663000D03*
X233755000Y-104663000D03*
X232485000Y-104663000D03*
X231215000Y-104663000D03*
X229945000Y-104663000D03*
X228675000Y-104663000D03*
X227405000Y-104663000D03*
X226135000Y-104663000D03*
X224865000Y-104663000D03*
X223595000Y-104663000D03*
X222325000Y-104663000D03*
X221055000Y-104663000D03*
%TD*%
D33*
%TO.C,R11*%
X314579000Y-134811000D03*
X314579000Y-136461000D03*
%TD*%
D58*
%TO.C,J5*%
X307340000Y-119380000D03*
D59*
X309880000Y-121920000D03*
X309880000Y-116840000D03*
X304800000Y-121920000D03*
X304800000Y-116840000D03*
%TD*%
D60*
%TO.C,TP4*%
X318389000Y-115951000D03*
%TD*%
D61*
%TO.C,H3*%
X210820000Y-216154000D03*
%TD*%
D62*
%TO.C,J1*%
X129260600Y-213868000D03*
X132029200Y-213868000D03*
X134797800Y-213868000D03*
X137566400Y-213868000D03*
X140335000Y-213868000D03*
X143103600Y-213868000D03*
X145872200Y-213868000D03*
X148640800Y-213868000D03*
X151409400Y-213868000D03*
X154178000Y-213868000D03*
X156946600Y-213868000D03*
X159715200Y-213868000D03*
X162483800Y-213868000D03*
X165252400Y-213868000D03*
X168021000Y-213868000D03*
X170789600Y-213868000D03*
X173558200Y-213868000D03*
X176326800Y-213868000D03*
X179095400Y-213868000D03*
X130644900Y-216712800D03*
X133413500Y-216712800D03*
X136182100Y-216712800D03*
X138950700Y-216712800D03*
X141719300Y-216712800D03*
X144487900Y-216712800D03*
X147256500Y-216712800D03*
X150025100Y-216712800D03*
X152793700Y-216712800D03*
X155562300Y-216712800D03*
X158330900Y-216712800D03*
X161099500Y-216712800D03*
X163868100Y-216712800D03*
X166636700Y-216712800D03*
X169405300Y-216712800D03*
X172173900Y-216712800D03*
X174942500Y-216712800D03*
X177711100Y-216712800D03*
D63*
X122351800Y-215290400D03*
X185851800Y-215290400D03*
%TD*%
D60*
%TO.C,TP6*%
X108839000Y-151130000D03*
%TD*%
%TO.C,TP3*%
X128143000Y-123317000D03*
%TD*%
D61*
%TO.C,H2*%
X332740000Y-216154000D03*
%TD*%
D60*
%TO.C,TP5*%
X111748700Y-144044901D03*
%TD*%
D64*
%TO.C,J6*%
X176895000Y-126492000D03*
D65*
X174895000Y-126492000D03*
%TD*%
D60*
%TO.C,TP9*%
X115189000Y-151130000D03*
%TD*%
D61*
%TO.C,H1*%
X88900000Y-216154000D03*
%TD*%
D60*
%TO.C,TP1*%
X314579000Y-115951000D03*
%TD*%
%TO.C,TP8*%
X95504000Y-134519901D03*
%TD*%
%TO.C,TP10*%
X318389000Y-120015000D03*
%TD*%
%TO.C,TP11*%
X130937000Y-116078000D03*
%TD*%
%TO.C,TP7*%
X100457000Y-151130000D03*
%TD*%
D62*
%TO.C,J2*%
X239750600Y-213868000D03*
X242519200Y-213868000D03*
X245287800Y-213868000D03*
X248056400Y-213868000D03*
X250825000Y-213868000D03*
X253593600Y-213868000D03*
X256362200Y-213868000D03*
X259130800Y-213868000D03*
X261899400Y-213868000D03*
X264668000Y-213868000D03*
X267436600Y-213868000D03*
X270205200Y-213868000D03*
X272973800Y-213868000D03*
X275742400Y-213868000D03*
X278511000Y-213868000D03*
X281279600Y-213868000D03*
X284048200Y-213868000D03*
X286816800Y-213868000D03*
X289585400Y-213868000D03*
X241134900Y-216712800D03*
X243903500Y-216712800D03*
X246672100Y-216712800D03*
X249440700Y-216712800D03*
X252209300Y-216712800D03*
X254977900Y-216712800D03*
X257746500Y-216712800D03*
X260515100Y-216712800D03*
X263283700Y-216712800D03*
X266052300Y-216712800D03*
X268820900Y-216712800D03*
X271589500Y-216712800D03*
X274358100Y-216712800D03*
X277126700Y-216712800D03*
X279895300Y-216712800D03*
X282663900Y-216712800D03*
X285432500Y-216712800D03*
X288201100Y-216712800D03*
D63*
X232841800Y-215290400D03*
X296341800Y-215290400D03*
%TD*%
D60*
%TO.C,TP2*%
X314579000Y-119888000D03*
%TD*%
D66*
X280820000Y-91488000D02*
X280820000Y-112488000D01*
X83820000Y-112488000D02*
X83820000Y-221488000D01*
X83820000Y-221488000D02*
X337820000Y-221488000D01*
X280820000Y-91488000D02*
X140820000Y-91488000D01*
X280820000Y-112488000D02*
X337820000Y-112488000D01*
X337820000Y-112488000D02*
X337820000Y-221488000D01*
X140820000Y-112488000D02*
X83820000Y-112488000D01*
X140820000Y-91488000D02*
X140820000Y-112488000D01*
M02*
