M48
; DRILL file {KiCad 8.0.5} date 2025-02-25T16:56:46-0800
; FORMAT={-:-/ absolute / inch / decimal}
; #@! TF.CreationDate,2025-02-25T16:56:46-08:00
; #@! TF.GenerationSoftware,Kicad,Pcbnew,8.0.5
; #@! TF.FileFunction,Plated,1,6,PTH
FMAT,2
INCH
; #@! TA.AperFunction,Plated,PTH,ComponentDrill
T1C0.0079
; #@! TA.AperFunction,Plated,PTH,ViaDrill
T2C0.0080
; #@! TA.AperFunction,Plated,PTH,ViaDrill
T3C0.0100
; #@! TA.AperFunction,Plated,PTH,ViaDrill
T4C0.0157
; #@! TA.AperFunction,Plated,PTH,ComponentDrill
T5C0.0315
; #@! TA.AperFunction,Plated,PTH,ComponentDrill
T6C0.0394
; #@! TA.AperFunction,Plated,PTH,ComponentDrill
T7C0.0450
; #@! TA.AperFunction,Plated,PTH,ComponentDrill
T8C0.0591
; #@! TA.AperFunction,Plated,PTH,ComponentDrill
T9C0.0669
; #@! TA.AperFunction,Plated,PTH,ComponentDrill
T10C0.1181
; #@! TA.AperFunction,Plated,PTH,ComponentDrill
T11C0.1300
%
G90
G05
T1
X3.4906Y-7.2079
X3.4906Y-7.2567
X3.5394Y-7.2079
X3.5394Y-7.2567
X3.7606Y-7.2079
X3.7606Y-7.2567
X3.8094Y-7.2079
X3.8094Y-7.2567
X4.1106Y-7.2079
X4.1106Y-7.2567
X4.1594Y-7.2079
X4.1594Y-7.2567
X4.3806Y-7.2079
X4.3806Y-7.2567
X4.4294Y-7.2079
X4.4294Y-7.2567
X4.7306Y-7.2079
X4.7306Y-7.2567
X4.7794Y-7.2079
X4.7794Y-7.2567
X5.0006Y-7.2079
X5.0006Y-7.2567
X5.0494Y-7.2079
X5.0494Y-7.2567
X5.298Y-4.8526
X5.3275Y-4.8526
X5.3506Y-7.2079
X5.3506Y-7.2567
X5.357Y-4.8526
X5.3994Y-7.2079
X5.3994Y-7.2567
X5.6206Y-7.2079
X5.6206Y-7.2567
X5.6694Y-7.2079
X5.6694Y-7.2567
X5.9706Y-7.2079
X5.9706Y-7.2567
X6.0194Y-7.2079
X6.0194Y-7.2567
X6.2406Y-7.2079
X6.2406Y-7.2567
X6.2894Y-7.2079
X6.2894Y-7.2567
X6.5906Y-7.2079
X6.5906Y-7.2567
X6.6394Y-7.2079
X6.6394Y-7.2567
X6.8606Y-7.2079
X6.8606Y-7.2567
X6.9094Y-7.2079
X6.9094Y-7.2567
X7.2106Y-7.2079
X7.2106Y-7.2567
X7.2594Y-7.2079
X7.2594Y-7.2567
X7.4806Y-7.2079
X7.4806Y-7.2567
X7.5294Y-7.2079
X7.5294Y-7.2567
X7.8306Y-7.2079
X7.8306Y-7.2567
X7.8794Y-7.2079
X7.8794Y-7.2567
X8.1006Y-7.2079
X8.1006Y-7.2567
X8.1494Y-7.2079
X8.1494Y-7.2567
X8.4506Y-7.2079
X8.4506Y-7.2567
X8.4994Y-7.2079
X8.4994Y-7.2567
X8.7206Y-7.2079
X8.7206Y-7.2567
X8.7694Y-7.2079
X8.7694Y-7.2567
X9.0706Y-7.2079
X9.0706Y-7.2567
X9.1194Y-7.2079
X9.1194Y-7.2567
X9.3406Y-7.2079
X9.3406Y-7.2567
X9.3894Y-7.2079
X9.3894Y-7.2567
X9.6906Y-7.2079
X9.6906Y-7.2567
X9.7394Y-7.2079
X9.7394Y-7.2567
X9.9606Y-7.2079
X9.9606Y-7.2567
X10.0094Y-7.2079
X10.0094Y-7.2567
X10.3106Y-7.2079
X10.3106Y-7.2567
X10.3594Y-7.2079
X10.3594Y-7.2567
X10.5806Y-7.2079
X10.5806Y-7.2567
X10.6294Y-7.2079
X10.6294Y-7.2567
X10.9306Y-7.2079
X10.9306Y-7.2567
X10.9794Y-7.2079
X10.9794Y-7.2567
X11.2006Y-7.2079
X11.2006Y-7.2567
X11.2494Y-7.2079
X11.2494Y-7.2567
X11.5506Y-7.2079
X11.5506Y-7.2567
X11.5994Y-7.2079
X11.5994Y-7.2567
X11.8206Y-7.2079
X11.8206Y-7.2567
X11.8694Y-7.2079
X11.8694Y-7.2567
X12.1706Y-7.2079
X12.1706Y-7.2567
X12.2194Y-7.2079
X12.2194Y-7.2567
X12.4406Y-7.2079
X12.4406Y-7.2567
X12.4894Y-7.2079
X12.4894Y-7.2567
X12.7906Y-7.2079
X12.7906Y-7.2567
X12.8394Y-7.2079
X12.8394Y-7.2567
X13.0606Y-7.2079
X13.0606Y-7.2567
X13.1094Y-7.2079
X13.1094Y-7.2567
T2
X3.73Y-7.286
X3.8546Y-5.4761
X3.88Y-7.145
X3.89Y-7.366
X3.908Y-7.476
X3.9296Y-5.7957
X3.94Y-7.52
X3.9746Y-5.8507
X3.975Y-7.14
X4.0Y-6.445
X4.0031Y-5.6607
X4.055Y-6.215
X4.0655Y-4.9952
X4.1231Y-5.6782
X4.1231Y-5.8257
X4.1405Y-5.0102
X4.21Y-4.565
X4.23Y-5.5107
X4.23Y-5.5607
X4.244Y-5.536
X4.2441Y-8.64
X4.25Y-4.565
X4.2581Y-5.8507
X4.2731Y-5.6257
X4.275Y-4.665
X4.2841Y-8.46
X4.29Y-4.5651
X4.3031Y-5.6807
X4.3031Y-5.7957
X4.3105Y-4.9152
X4.33Y-4.5651
X4.35Y-7.286
X4.385Y-4.665
X4.3855Y-5.0502
X4.4Y-5.19
X4.4691Y-8.64
X4.4741Y-8.545
X4.49Y-5.0007
X4.5Y-7.145
X4.51Y-7.366
X4.528Y-7.476
X4.56Y-7.52
X4.595Y-7.14
X4.88Y-6.49
X4.895Y-6.525
X4.905Y-6.35
X4.935Y-6.58
X4.94Y-6.4
X4.97Y-7.286
X4.975Y-6.62
X5.005Y-6.64
X5.015Y-6.31
X5.035Y-6.62
X5.04Y-6.33
X5.06Y-6.64
X5.0625Y-6.3525
X5.0647Y-5.6825
X5.0647Y-5.7225
X5.095Y-6.62
X5.12Y-7.145
X5.13Y-6.58
X5.13Y-7.366
X5.148Y-7.476
X5.1691Y-5.8941
X5.17Y-6.48
X5.17Y-6.515
X5.175Y-6.385
X5.18Y-7.52
X5.19Y-5.615
X5.19Y-5.79
X5.197Y-6.025
X5.197Y-6.065
X5.1974Y-5.9224
X5.215Y-7.14
X5.23Y-4.665
X5.255Y-5.75
X5.265Y-5.93
X5.3305Y-6.2262
X5.34Y-5.665
X5.34Y-5.835
X5.3588Y-6.2545
X5.37Y-6.09
X5.39Y-6.015
X5.4Y-5.835
X5.43Y-6.36
X5.43Y-6.495
X5.455Y-6.535
X5.475Y-4.655
X5.495Y-6.025
X5.495Y-6.215
X5.5Y-6.405
X5.5Y-6.575
X5.505Y-4.655
X5.51Y-5.99
X5.52Y-5.415
X5.53Y-4.88
X5.535Y-4.69
X5.535Y-4.725
X5.535Y-5.87
X5.535Y-6.625
X5.545Y-6.29
X5.55Y-5.405
X5.565Y-6.64
X5.575Y-5.775
X5.575Y-5.87
X5.575Y-6.315
X5.58Y-6.085
X5.59Y-4.83
X5.59Y-7.286
X5.595Y-6.62
X5.6Y-6.335
X5.61Y-5.89
X5.615Y-6.0
X5.615Y-6.04
X5.62Y-6.64
X5.6225Y-6.3575
X5.655Y-6.625
X5.675Y-5.825
X5.675Y-5.865
X5.69Y-6.095
X5.69Y-6.575
X5.695Y-4.285
X5.725Y-4.285
X5.725Y-5.825
X5.725Y-5.865
X5.73Y-6.095
X5.73Y-6.485
X5.73Y-6.52
X5.735Y-6.39
X5.74Y-7.145
X5.75Y-7.366
X5.755Y-4.285
X5.768Y-7.476
X5.77Y-6.0
X5.775Y-6.1
X5.78Y-5.5491
X5.78Y-5.89
X5.795Y-5.575
X5.8Y-7.52
X5.8025Y-5.2275
X5.805Y-5.275
X5.815Y-6.1
X5.82Y-4.425
X5.825Y-5.775
X5.825Y-5.87
X5.835Y-7.14
X5.845Y-6.07
X5.845Y-6.63
X5.85Y-4.425
X5.85Y-4.595
X5.865Y-5.87
X5.88Y-4.425
X5.8809Y-5.2509
X5.885Y-6.185
X5.9Y-4.545
X5.905Y-4.49
X5.9091Y-5.2791
X5.947Y-3.8356
X5.947Y-4.0356
X5.965Y-3.745
X5.985Y-5.52
X5.985Y-5.775
X5.99Y-5.6511
X5.997Y-3.9556
X5.997Y-4.1556
X6.0Y-3.745
X6.01Y-6.06
X6.015Y-5.835
X6.035Y-3.745
X6.045Y-5.895
X6.047Y-3.8356
X6.047Y-4.0356
X6.047Y-4.3206
X6.06Y-6.09
X6.097Y-3.9556
X6.097Y-4.0356
X6.097Y-4.3206
X6.11Y-3.8
X6.12Y-5.865
X6.13Y-4.355
X6.135Y-5.66
X6.145Y-3.8
X6.145Y-5.895
X6.147Y-3.8356
X6.147Y-4.0356
X6.147Y-4.1556
X6.165Y-4.355
X6.17Y-5.515
X6.18Y-3.8
X6.19Y-6.005
X6.197Y-3.9556
X6.197Y-4.0356
X6.197Y-4.3206
X6.2Y-5.67
X6.21Y-7.286
X6.225Y-5.845
X6.247Y-3.8356
X6.247Y-4.0356
X6.247Y-4.3206
X6.28Y-4.355
X6.297Y-3.8356
X6.297Y-4.0356
X6.297Y-4.1556
X6.32Y-4.355
X6.347Y-3.8356
X6.347Y-3.9556
X6.347Y-4.0356
X6.347Y-4.3206
X6.36Y-7.145
X6.37Y-7.366
X6.388Y-7.476
X6.397Y-3.8356
X6.397Y-3.9556
X6.397Y-4.3206
X6.42Y-7.52
X6.447Y-3.8356
X6.447Y-3.9556
X6.447Y-4.1556
X6.455Y-7.14
X6.465Y-6.355
X6.465Y-6.495
X6.49Y-6.53
X6.497Y-3.8356
X6.497Y-4.0356
X6.497Y-4.3206
X6.525Y-6.585
X6.53Y-6.405
X6.547Y-3.8356
X6.547Y-3.9556
X6.547Y-4.3206
X6.555Y-5.72
X6.565Y-6.625
X6.5769Y-6.2919
X6.597Y-4.1556
X6.605Y-5.86
X6.605Y-6.315
X6.605Y-6.65
X6.625Y-6.625
X6.63Y-6.335
X6.647Y-4.0356
X6.647Y-4.3206
X6.65Y-6.65
X6.6525Y-6.3575
X6.685Y-6.625
X6.697Y-3.8356
X6.697Y-3.9556
X6.697Y-4.3206
X6.72Y-6.585
X6.7309Y-5.7159
X6.747Y-3.8356
X6.747Y-4.1556
X6.7591Y-5.7441
X6.76Y-6.485
X6.76Y-6.52
X6.765Y-6.39
X6.785Y-4.785
X6.785Y-4.835
X6.785Y-4.885
X6.785Y-6.015
X6.797Y-4.0356
X6.797Y-4.3206
X6.825Y-6.015
X6.83Y-7.286
X6.847Y-3.9556
X6.847Y-4.3206
X6.897Y-3.8356
X6.897Y-4.1556
X6.935Y-6.06
X6.947Y-3.8356
X6.947Y-4.0356
X6.947Y-4.3206
X6.975Y-6.06
X6.98Y-7.145
X6.99Y-7.366
X6.997Y-3.9556
X6.997Y-4.3206
X7.008Y-7.476
X7.02Y-4.77
X7.04Y-7.52
X7.047Y-4.1556
X7.075Y-6.32
X7.075Y-7.14
X7.097Y-3.8356
X7.097Y-4.0356
X7.097Y-4.3206
X7.115Y-6.32
X7.147Y-3.8356
X7.147Y-3.9556
X7.147Y-4.3206
X7.185Y-4.735
X7.185Y-4.785
X7.197Y-4.1556
X7.205Y-4.995
X7.225Y-6.025
X7.24Y-5.99
X7.247Y-4.0356
X7.247Y-4.3206
X7.25Y-4.89
X7.25Y-5.415
X7.265Y-5.87
X7.28Y-5.405
X7.297Y-3.8356
X7.297Y-3.9556
X7.297Y-4.3206
X7.305Y-5.775
X7.305Y-5.87
X7.31Y-6.085
X7.34Y-5.89
X7.345Y-6.0
X7.345Y-6.04
X7.345Y-6.5
X7.347Y-3.8356
X7.347Y-4.1556
X7.36Y-6.355
X7.38Y-6.16
X7.385Y-6.53
X7.397Y-4.0356
X7.397Y-4.3206
X7.405Y-5.825
X7.405Y-5.865
X7.42Y-6.095
X7.42Y-6.585
X7.425Y-6.405
X7.447Y-3.9556
X7.447Y-4.3206
X7.45Y-7.286
X7.455Y-5.56
X7.455Y-5.825
X7.455Y-5.865
X7.46Y-6.095
X7.46Y-6.625
X7.4719Y-6.2919
X7.48Y-4.355
X7.48Y-5.58
X7.497Y-3.8356
X7.497Y-4.1556
X7.5Y-6.0
X7.5Y-6.315
X7.5Y-6.65
X7.505Y-6.1
X7.51Y-5.89
X7.515Y-4.355
X7.52Y-5.615
X7.52Y-6.62
X7.525Y-6.335
X7.545Y-6.65
X7.547Y-3.8356
X7.547Y-4.0356
X7.547Y-4.3206
X7.5475Y-6.3575
X7.55Y-5.28
X7.555Y-5.87
X7.5568Y-5.775
X7.575Y-6.03
X7.575Y-6.07
X7.58Y-6.625
X7.59Y-5.28
X7.595Y-5.87
X7.597Y-3.9556
X7.597Y-4.0356
X7.597Y-4.3206
X7.6Y-7.145
X7.61Y-7.366
X7.615Y-6.585
X7.628Y-7.476
X7.647Y-3.9556
X7.647Y-4.0356
X7.647Y-4.1556
X7.655Y-6.485
X7.655Y-6.52
X7.66Y-5.53
X7.66Y-6.39
X7.66Y-7.52
X7.695Y-7.14
X7.697Y-3.8356
X7.697Y-4.0356
X7.715Y-5.52
X7.7191Y-8.47
X7.72Y-5.775
X7.7391Y-8.64
X7.745Y-5.835
X7.747Y-3.8356
X7.747Y-4.0356
X7.775Y-5.895
X7.797Y-3.9556
X7.797Y-4.1556
X7.847Y-3.9556
X7.875Y-5.895
X7.897Y-3.8356
X7.897Y-4.0356
X7.955Y-5.845
X7.96Y-4.355
X8.07Y-7.286
X8.095Y-5.3
X8.22Y-7.145
X8.23Y-7.366
X8.248Y-7.476
X8.28Y-7.52
X8.285Y-5.72
X8.315Y-7.14
X8.335Y-5.86
X8.336Y-4.36
X8.47Y-4.36
X8.4809Y-5.7409
X8.495Y-4.565
X8.495Y-4.6
X8.495Y-4.635
X8.5091Y-5.7691
X8.56Y-8.64
X8.5692Y-4.6486
X8.5692Y-4.6886
X8.58Y-8.47
X8.585Y-6.005
X8.62Y-4.51
X8.62Y-4.705
X8.625Y-6.005
X8.63Y-4.74
X8.66Y-4.77
X8.665Y-4.62
X8.675Y-4.545
X8.685Y-6.11
X8.69Y-7.286
X8.6909Y-4.8209
X8.703Y-3.8356
X8.703Y-4.0356
X8.715Y-3.745
X8.7191Y-4.8491
X8.725Y-6.11
X8.7439Y-4.5119
X8.75Y-3.745
X8.753Y-3.9556
X8.753Y-4.0356
X8.753Y-4.1556
X8.76Y-4.91
X8.76Y-8.54
X8.765Y-4.816
X8.765Y-8.64
X8.7739Y-4.5519
X8.785Y-3.745
X8.803Y-3.8356
X8.803Y-4.0356
X8.81Y-4.804
X8.8111Y-4.91
X8.82Y-3.99
X8.84Y-7.145
X8.846Y-4.8262
X8.85Y-7.366
X8.855Y-3.99
X8.865Y-3.8
X8.868Y-7.476
X8.8742Y-4.798
X8.89Y-3.99
X8.895Y-6.355
X8.895Y-6.5
X8.9Y-3.8
X8.9Y-7.52
X8.903Y-4.1556
X8.915Y-4.765
X8.92Y-6.535
X8.935Y-3.8
X8.935Y-7.14
X8.9439Y-4.6372
X8.945Y-4.595
X8.945Y-4.7
X8.945Y-4.735
X8.953Y-4.0356
X8.953Y-4.3206
X8.955Y-6.025
X8.955Y-6.585
X8.96Y-6.405
X8.97Y-5.99
X8.977Y-4.6469
X8.977Y-4.6869
X8.98Y-5.415
X8.995Y-5.87
X8.995Y-6.625
X9.003Y-4.3206
X9.0069Y-6.2919
X9.01Y-5.405
X9.035Y-5.775
X9.035Y-5.87
X9.035Y-6.315
X9.035Y-6.65
X9.04Y-6.085
X9.053Y-3.8356
X9.053Y-4.1556
X9.055Y-6.62
X9.06Y-6.335
X9.07Y-5.89
X9.075Y-6.0
X9.075Y-6.04
X9.08Y-6.65
X9.0825Y-6.3575
X9.103Y-3.8356
X9.103Y-4.0356
X9.103Y-4.3206
X9.11Y-6.165
X9.115Y-6.625
X9.135Y-5.825
X9.135Y-5.865
X9.15Y-6.095
X9.15Y-6.585
X9.153Y-3.9556
X9.153Y-4.0356
X9.153Y-4.3206
X9.185Y-4.365
X9.185Y-5.555
X9.185Y-5.825
X9.185Y-5.865
X9.19Y-6.095
X9.19Y-6.485
X9.19Y-6.52
X9.195Y-6.39
X9.203Y-3.9556
X9.203Y-4.0356
X9.203Y-4.1556
X9.21Y-5.58
X9.225Y-4.365
X9.23Y-6.0
X9.235Y-6.1
X9.24Y-5.89
X9.253Y-3.8356
X9.253Y-4.0356
X9.253Y-4.3206
X9.28Y-5.28
X9.285Y-5.87
X9.2868Y-5.775
X9.303Y-3.8356
X9.303Y-3.9556
X9.303Y-4.3206
X9.305Y-6.03
X9.305Y-6.07
X9.31Y-7.286
X9.32Y-5.28
X9.325Y-5.87
X9.353Y-4.1556
X9.403Y-4.0356
X9.403Y-4.3206
X9.445Y-5.52
X9.45Y-5.775
X9.453Y-3.8356
X9.453Y-3.9556
X9.453Y-4.0356
X9.453Y-4.3206
X9.46Y-7.145
X9.47Y-7.366
X9.475Y-5.835
X9.485Y-4.365
X9.488Y-7.476
X9.503Y-3.8356
X9.503Y-4.0356
X9.503Y-4.1556
X9.505Y-5.895
X9.52Y-7.52
X9.525Y-4.365
X9.553Y-4.0356
X9.553Y-4.3206
X9.555Y-7.14
X9.603Y-3.9556
X9.603Y-4.0356
X9.603Y-4.3206
X9.605Y-5.895
X9.635Y-4.365
X9.653Y-3.8356
X9.653Y-4.0356
X9.653Y-4.1556
X9.675Y-4.365
X9.685Y-5.845
X9.703Y-3.8356
X9.703Y-4.0356
X9.703Y-4.3206
X9.753Y-3.9556
X9.753Y-4.0356
X9.753Y-4.3206
X9.785Y-4.365
X9.803Y-4.0356
X9.803Y-4.1556
X9.825Y-4.365
X9.853Y-3.8356
X9.853Y-4.0356
X9.853Y-4.3206
X9.903Y-3.8356
X9.903Y-3.9556
X9.903Y-4.0356
X9.903Y-4.3206
X9.93Y-6.355
X9.93Y-6.5
X9.93Y-7.286
X9.935Y-4.365
X9.95Y-6.535
X9.953Y-4.0356
X9.953Y-4.1556
X9.975Y-4.365
X9.985Y-6.585
X9.99Y-6.405
X10.003Y-4.0356
X10.003Y-4.3206
X10.015Y-5.72
X10.025Y-6.625
X10.0369Y-6.2919
X10.053Y-3.8356
X10.053Y-3.9556
X10.053Y-4.0356
X10.053Y-4.3206
X10.065Y-5.86
X10.065Y-6.315
X10.065Y-6.65
X10.08Y-7.145
X10.085Y-4.365
X10.085Y-6.62
X10.09Y-6.335
X10.09Y-7.366
X10.103Y-3.8356
X10.103Y-4.0356
X10.103Y-4.1556
X10.108Y-7.476
X10.1125Y-6.3575
X10.115Y-6.65
X10.125Y-4.365
X10.14Y-7.52
X10.145Y-6.625
X10.153Y-4.0356
X10.153Y-4.3206
X10.175Y-7.14
X10.18Y-6.585
X10.2009Y-5.7459
X10.203Y-3.9556
X10.203Y-4.0356
X10.203Y-4.3206
X10.22Y-6.485
X10.22Y-6.52
X10.225Y-6.39
X10.2291Y-5.7741
X10.235Y-4.365
X10.253Y-3.8356
X10.253Y-3.9556
X10.253Y-4.0356
X10.253Y-4.1556
X10.27Y-6.01
X10.275Y-4.365
X10.303Y-3.8356
X10.303Y-4.0356
X10.303Y-4.3206
X10.31Y-6.01
X10.353Y-3.9556
X10.353Y-4.3206
X10.39Y-6.075
X10.395Y-4.5
X10.403Y-3.9556
X10.403Y-4.1556
X10.43Y-4.56
X10.43Y-6.075
X10.453Y-3.8356
X10.453Y-4.0356
X10.5Y-4.395
X10.503Y-3.8356
X10.503Y-4.0356
X10.54Y-6.27
X10.55Y-7.286
X10.553Y-3.9556
X10.553Y-4.1556
X10.555Y-4.22
X10.555Y-4.56
X10.575Y-4.4
X10.58Y-6.27
X10.603Y-3.9556
X10.653Y-3.8356
X10.653Y-3.9556
X10.653Y-4.0356
X10.655Y-4.405
X10.685Y-6.025
X10.7Y-5.99
X10.7Y-7.145
X10.71Y-7.366
X10.71Y-4.35
X10.71Y-5.415
X10.725Y-5.87
X10.728Y-7.476
X10.74Y-5.405
X10.76Y-7.52
X10.765Y-5.775
X10.765Y-5.87
X10.77Y-6.085
X10.775Y-7.025
X10.795Y-7.14
X10.8Y-4.345
X10.8Y-4.375
X10.8Y-4.405
X10.8Y-5.89
X10.805Y-6.0
X10.805Y-6.04
X10.865Y-5.825
X10.865Y-5.865
X10.8733Y-4.4125
X10.8875Y-6.4975
X10.895Y-6.355
X10.9033Y-4.4125
X10.915Y-5.555
X10.915Y-5.825
X10.915Y-5.865
X10.92Y-6.53
X10.94Y-5.58
X10.955Y-6.585
X10.96Y-6.0
X10.96Y-6.405
X10.97Y-5.89
X10.995Y-6.625
X11.0069Y-6.2919
X11.01Y-5.2667
X11.015Y-5.87
X11.0168Y-5.775
X11.035Y-6.03
X11.035Y-6.07
X11.035Y-6.315
X11.035Y-6.65
X11.05Y-5.2667
X11.055Y-5.87
X11.055Y-6.62
X11.06Y-4.475
X11.06Y-6.335
X11.08Y-6.65
X11.0825Y-6.3575
X11.09Y-4.475
X11.115Y-6.625
X11.12Y-4.475
X11.125Y-4.695
X11.135Y-4.66
X11.145Y-5.18
X11.15Y-6.585
X11.17Y-7.286
X11.175Y-5.52
X11.18Y-5.775
X11.185Y-6.515
X11.195Y-6.39
X11.195Y-6.485
X11.2Y-4.865
X11.205Y-5.835
X11.235Y-5.895
X11.25Y-4.73
X11.25Y-4.925
X11.255Y-5.205
X11.26Y-5.05
X11.28Y-4.995
X11.285Y-4.655
X11.31Y-4.615
X11.32Y-7.145
X11.33Y-7.366
X11.335Y-5.895
X11.348Y-7.476
X11.35Y-4.995
X11.365Y-4.69
X11.365Y-4.725
X11.365Y-5.205
X11.38Y-4.655
X11.38Y-4.925
X11.38Y-7.52
X11.415Y-5.845
X11.415Y-7.14
X11.48Y-4.7339
X11.48Y-5.0
X11.48Y-5.055
X11.485Y-4.81
X11.485Y-4.84
X11.5Y-4.7578
X11.505Y-5.195
X11.51Y-5.03
X11.535Y-4.93
X11.745Y-4.64
X11.745Y-4.85
X11.745Y-5.72
X11.7598Y-4.7902
X11.79Y-7.286
X11.795Y-5.86
X11.855Y-4.64
X11.89Y-4.86
X11.94Y-7.145
X11.95Y-7.366
X11.968Y-7.476
X12.0Y-7.52
X12.035Y-7.14
X12.2Y-8.48
X12.22Y-8.64
X12.335Y-6.505
X12.34Y-6.355
X12.3425Y-4.8275
X12.3425Y-4.9475
X12.3425Y-5.0675
X12.3425Y-5.3075
X12.37Y-6.53
X12.405Y-6.585
X12.41Y-6.405
X12.41Y-7.286
X12.445Y-6.625
X12.4569Y-6.2919
X12.485Y-6.315
X12.485Y-6.65
X12.4875Y-4.8925
X12.4875Y-4.9575
X12.4875Y-5.0125
X12.4875Y-5.0775
X12.4875Y-5.1325
X12.4875Y-5.1975
X12.4875Y-5.2525
X12.4875Y-5.3175
X12.4875Y-5.3725
X12.4875Y-5.4375
X12.505Y-6.62
X12.51Y-6.335
X12.53Y-6.65
X12.5325Y-6.3575
X12.535Y-5.165
X12.56Y-7.145
X12.565Y-6.625
X12.57Y-7.366
X12.58Y-6.355
X12.588Y-7.476
X12.6Y-6.585
X12.62Y-7.52
X12.64Y-6.485
X12.64Y-6.52
X12.655Y-7.14
X12.6563Y-5.4313
X12.66Y-4.63
X12.6613Y-5.4763
X12.67Y-5.08
X12.675Y-5.185
X12.71Y-4.63
X12.74Y-4.955
X12.76Y-4.63
X12.765Y-5.08
X12.785Y-5.23
X12.795Y-5.32
X12.81Y-4.63
X12.835Y-5.245
X12.86Y-4.63
X12.89Y-4.655
X12.89Y-5.94
X12.91Y-4.63
X12.935Y-4.655
X12.939Y-4.899
X12.96Y-4.63
X12.99Y-4.655
X13.01Y-4.63
X13.03Y-5.36
X13.03Y-7.286
X13.04Y-4.655
X13.06Y-4.63
X13.095Y-5.08
X13.11Y-4.63
X13.11Y-4.995
X13.125Y-5.025
X13.125Y-5.06
X13.18Y-7.145
X13.19Y-7.366
X13.205Y-5.045
X13.205Y-5.185
X13.208Y-7.476
X13.245Y-4.735
X13.245Y-4.86
X13.245Y-5.235
X13.245Y-5.3
X13.245Y-5.405
X13.25Y-7.155
X13.255Y-7.22
T3
X3.34Y-7.34
X3.348Y-7.22
X3.36Y-7.475
X3.365Y-7.1
X3.365Y-7.135
X3.395Y-7.07
X3.4145Y-4.9382
X3.44Y-7.34
X3.45Y-4.815
X3.4705Y-4.9882
X3.48Y-6.96
X3.49Y-4.815
X3.58Y-7.09
X3.58Y-7.3
X3.605Y-7.15
X3.616Y-7.3656
X3.62Y-7.1
X3.62Y-7.33
X3.64Y-7.03
X3.64Y-7.48
X3.69Y-7.1341
X3.69Y-7.33
X3.75Y-7.09
X3.8605Y-5.3622
X3.8896Y-5.4161
X3.89Y-7.065
X3.9046Y-5.4811
X3.944Y-5.412
X3.948Y-5.478
X3.96Y-7.34
X3.968Y-7.18
X3.968Y-7.22
X3.98Y-7.475
X4.03Y-7.07
X4.06Y-7.34
X4.064Y-5.346
X4.0846Y-5.6961
X4.126Y-5.342
X4.1346Y-4.5961
X4.1396Y-4.9011
X4.2Y-7.092
X4.2Y-7.3
X4.225Y-7.15
X4.236Y-7.3656
X4.2365Y-4.8902
X4.24Y-7.1
X4.24Y-7.33
X4.246Y-5.392
X4.26Y-7.48
X4.31Y-7.1341
X4.31Y-7.33
X4.37Y-7.09
X4.3925Y-5.4862
X4.3996Y-4.5961
X4.4125Y-5.0102
X4.4146Y-4.9011
X4.4246Y-4.7511
X4.4246Y-4.7811
X4.4246Y-4.8111
X4.4325Y-5.2182
X4.4385Y-5.5422
X4.4865Y-5.2702
X4.51Y-7.065
X4.58Y-7.34
X4.588Y-7.18
X4.588Y-7.22
X4.6Y-7.475
X4.65Y-7.07
X4.68Y-7.34
X4.82Y-7.09
X4.82Y-7.3
X4.83Y-6.4505
X4.8404Y-4.8394
X4.845Y-7.15
X4.8554Y-4.6594
X4.856Y-7.3656
X4.86Y-7.1
X4.86Y-7.33
X4.8704Y-4.8394
X4.88Y-7.48
X4.93Y-7.1341
X4.93Y-7.33
X4.99Y-7.09
X5.13Y-7.065
X5.2009Y-7.34
X5.208Y-7.18
X5.208Y-7.22
X5.22Y-7.475
X5.2275Y-4.7076
X5.2275Y-4.7526
X5.27Y-7.07
X5.3Y-7.34
X5.385Y-6.455
X5.4225Y-4.7728
X5.44Y-7.088
X5.44Y-7.3
X5.465Y-7.15
X5.476Y-7.3656
X5.4762Y-4.9476
X5.48Y-7.1
X5.48Y-7.33
X5.5Y-7.48
X5.55Y-7.1341
X5.55Y-7.33
X5.61Y-7.09
X5.75Y-7.065
X5.78Y-5.61
X5.8209Y-7.34
X5.828Y-7.18
X5.828Y-7.22
X5.84Y-7.475
X5.855Y-5.65
X5.885Y-5.53
X5.89Y-7.07
X5.92Y-7.34
X6.045Y-5.455
X6.0522Y-5.315
X6.06Y-7.092
X6.06Y-7.3
X6.085Y-7.15
X6.096Y-7.3656
X6.1Y-7.1
X6.1Y-7.33
X6.12Y-7.48
X6.17Y-7.1341
X6.17Y-7.33
X6.23Y-7.09
X6.37Y-7.065
X6.42Y-6.455
X6.4409Y-7.34
X6.448Y-7.18
X6.448Y-7.22
X6.46Y-7.475
X6.51Y-7.07
X6.54Y-7.34
X6.68Y-7.09
X6.68Y-7.3
X6.705Y-7.15
X6.716Y-7.3656
X6.72Y-7.1
X6.72Y-7.33
X6.74Y-7.48
X6.79Y-7.1341
X6.79Y-7.33
X6.85Y-7.09
X6.865Y-5.77
X6.87Y-5.655
X6.915Y-5.985
X6.97Y-5.755
X6.99Y-7.065
X7.055Y-5.835
X7.06Y-6.01
X7.0609Y-7.34
X7.068Y-7.18
X7.068Y-7.22
X7.07Y-5.665
X7.08Y-7.475
X7.1Y-5.81
X7.13Y-7.07
X7.145Y-6.055
X7.16Y-7.34
X7.275Y-6.18
X7.3Y-7.09
X7.3Y-7.3
X7.315Y-6.455
X7.325Y-7.15
X7.336Y-7.3656
X7.34Y-7.1
X7.34Y-7.33
X7.36Y-7.48
X7.41Y-7.1341
X7.41Y-7.33
X7.47Y-7.09
X7.51Y-5.39
X7.525Y-5.5711
X7.595Y-5.655
X7.61Y-7.065
X7.615Y-5.53
X7.615Y-6.135
X7.6809Y-7.34
X7.688Y-7.18
X7.688Y-7.22
X7.7Y-6.005
X7.7Y-7.475
X7.715Y-5.49
X7.725Y-5.645
X7.75Y-7.07
X7.78Y-7.34
X7.785Y-6.075
X7.875Y-5.99
X7.9Y-5.565
X7.92Y-7.09
X7.92Y-7.3
X7.935Y-5.71
X7.945Y-7.15
X7.956Y-7.3656
X7.96Y-7.1
X7.96Y-7.33
X7.98Y-7.48
X8.03Y-7.1341
X8.03Y-7.33
X8.09Y-7.09
X8.23Y-7.065
X8.3009Y-7.34
X8.308Y-7.18
X8.308Y-7.22
X8.32Y-7.475
X8.37Y-7.07
X8.4Y-7.34
X8.54Y-7.092
X8.54Y-7.3
X8.565Y-7.15
X8.576Y-7.3656
X8.58Y-7.1
X8.58Y-7.33
X8.6Y-7.48
X8.62Y-5.65
X8.625Y-5.77
X8.65Y-7.1341
X8.65Y-7.33
X8.71Y-7.09
X8.725Y-5.755
X8.784Y-6.2744
X8.785Y-5.895
X8.8Y-5.665
X8.81Y-5.835
X8.826Y-6.2744
X8.83Y-5.81
X8.85Y-6.455
X8.85Y-7.065
X8.865Y-6.015
X8.87Y-6.05
X8.9209Y-7.34
X8.928Y-7.18
X8.928Y-7.22
X8.94Y-7.475
X8.99Y-7.07
X8.995Y-6.175
X9.02Y-7.34
X9.16Y-7.09
X9.16Y-7.3
X9.185Y-7.15
X9.196Y-7.3656
X9.2Y-7.1
X9.2Y-7.33
X9.22Y-7.48
X9.24Y-5.39
X9.24Y-5.61
X9.2508Y-5.5722
X9.27Y-7.1341
X9.27Y-7.33
X9.33Y-5.645
X9.33Y-7.09
X9.34Y-6.145
X9.345Y-5.53
X9.42Y-6.015
X9.445Y-5.49
X9.445Y-5.645
X9.47Y-7.065
X9.515Y-6.055
X9.535Y-5.695
X9.5409Y-7.34
X9.548Y-7.18
X9.548Y-7.22
X9.56Y-7.475
X9.595Y-5.57
X9.605Y-5.675
X9.61Y-7.07
X9.625Y-5.985
X9.64Y-7.34
X9.78Y-7.09
X9.78Y-7.3
X9.805Y-7.15
X9.816Y-7.3656
X9.82Y-7.1
X9.82Y-7.33
X9.84Y-7.48
X9.885Y-6.455
X9.89Y-7.1341
X9.89Y-7.33
X9.95Y-7.09
X10.09Y-7.065
X10.1609Y-7.34
X10.168Y-7.18
X10.168Y-7.22
X10.18Y-7.475
X10.23Y-7.07
X10.26Y-7.34
X10.33Y-5.65
X10.335Y-5.77
X10.38Y-5.985
X10.4Y-7.3
X10.4Y-7.092
X10.425Y-7.15
X10.435Y-5.755
X10.436Y-7.3656
X10.44Y-7.1
X10.44Y-7.33
X10.46Y-7.48
X10.51Y-7.33
X10.51Y-7.1341
X10.52Y-5.83
X10.525Y-6.01
X10.53Y-5.665
X10.56Y-5.81
X10.57Y-7.09
X10.66Y-6.065
X10.71Y-7.065
X10.745Y-6.145
X10.7809Y-7.34
X10.788Y-7.18
X10.788Y-7.22
X10.8Y-7.475
X10.85Y-6.455
X10.85Y-7.07
X10.88Y-6.095
X10.88Y-7.34
X10.92Y-6.095
X10.965Y-6.1
X10.97Y-5.39
X10.97Y-5.61
X10.98Y-5.5711
X11.02Y-7.092
X11.02Y-7.3
X11.045Y-7.15
X11.056Y-7.3656
X11.06Y-5.65
X11.06Y-7.1
X11.06Y-7.33
X11.075Y-5.53
X11.08Y-7.48
X11.095Y-6.115
X11.13Y-5.985
X11.13Y-7.1341
X11.13Y-7.33
X11.17Y-5.645
X11.19Y-7.09
X11.23Y-6.055
X11.235Y-5.455
X11.305Y-5.68
X11.33Y-7.065
X11.335Y-5.985
X11.385Y-5.575
X11.385Y-5.69
X11.4009Y-7.34
X11.408Y-7.18
X11.408Y-7.22
X11.42Y-7.475
X11.47Y-7.07
X11.5Y-7.34
X11.64Y-7.092
X11.64Y-7.3
X11.665Y-7.15
X11.676Y-7.3656
X11.68Y-7.1
X11.68Y-7.33
X11.7Y-7.48
X11.75Y-7.1341
X11.75Y-7.33
X11.81Y-7.09
X11.95Y-7.065
X12.0209Y-7.34
X12.028Y-7.18
X12.028Y-7.22
X12.04Y-7.475
X12.09Y-7.07
X12.12Y-7.34
X12.26Y-7.092
X12.26Y-7.3
X12.285Y-7.15
X12.295Y-6.455
X12.296Y-7.3656
X12.3Y-7.1
X12.3Y-7.33
X12.32Y-7.48
X12.37Y-7.1341
X12.37Y-7.33
X12.43Y-7.09
X12.57Y-7.065
X12.6409Y-7.34
X12.648Y-7.18
X12.648Y-7.22
X12.66Y-7.475
X12.71Y-7.07
X12.74Y-7.34
X12.88Y-7.092
X12.88Y-7.3
X12.905Y-7.15
X12.916Y-7.3656
X12.92Y-7.1
X12.92Y-7.33
X12.94Y-7.48
X12.99Y-7.1341
X12.99Y-7.33
X13.05Y-7.09
X13.19Y-7.065
X13.26Y-7.3409
T4
X3.42Y-7.58
X3.42Y-8.08
X3.5Y-7.975
X3.595Y-7.585
X3.705Y-7.59
X3.77Y-7.975
X3.84Y-7.585
X3.855Y-8.08
X4.04Y-7.58
X4.04Y-8.08
X4.12Y-7.975
X4.15Y-5.13
X4.215Y-7.585
X4.325Y-7.59
X4.39Y-7.975
X4.46Y-7.585
X4.475Y-8.08
X4.66Y-7.58
X4.66Y-8.08
X4.74Y-7.975
X4.835Y-7.585
X4.945Y-7.59
X5.01Y-7.975
X5.08Y-7.585
X5.095Y-8.08
X5.1625Y-5.0076
X5.1975Y-5.0426
X5.2375Y-5.0826
X5.28Y-7.58
X5.28Y-8.08
X5.36Y-7.975
X5.42Y-4.48
X5.455Y-7.585
X5.465Y-4.48
X5.505Y-4.48
X5.545Y-4.48
X5.565Y-7.59
X5.63Y-7.975
X5.7Y-7.585
X5.715Y-8.08
X5.9Y-7.58
X5.9Y-8.08
X5.98Y-7.975
X6.075Y-7.585
X6.185Y-7.59
X6.25Y-7.975
X6.32Y-7.585
X6.335Y-8.08
X6.395Y-5.94
X6.52Y-7.58
X6.52Y-8.08
X6.6Y-7.975
X6.695Y-7.585
X6.805Y-7.59
X6.87Y-7.975
X6.94Y-7.585
X6.955Y-8.08
X7.14Y-7.58
X7.14Y-8.08
X7.22Y-7.975
X7.315Y-7.585
X7.425Y-7.59
X7.49Y-7.975
X7.56Y-7.585
X7.575Y-8.08
X7.76Y-7.58
X7.76Y-8.08
X7.84Y-7.975
X7.935Y-7.585
X8.045Y-7.59
X8.11Y-7.975
X8.125Y-5.94
X8.18Y-7.585
X8.195Y-8.08
X8.38Y-7.58
X8.38Y-8.08
X8.46Y-7.975
X8.555Y-7.585
X8.665Y-7.59
X8.73Y-7.975
X8.8Y-7.585
X8.815Y-8.08
X9.0Y-7.58
X9.0Y-8.08
X9.08Y-7.975
X9.175Y-7.585
X9.285Y-7.59
X9.35Y-7.975
X9.42Y-7.585
X9.435Y-8.08
X9.62Y-7.58
X9.62Y-8.08
X9.7Y-7.975
X9.795Y-7.585
X9.85Y-5.94
X9.905Y-7.59
X9.97Y-7.975
X10.04Y-7.585
X10.055Y-8.08
X10.24Y-7.58
X10.24Y-8.08
X10.32Y-7.975
X10.415Y-7.585
X10.525Y-7.59
X10.59Y-7.975
X10.66Y-7.585
X10.675Y-8.08
X10.86Y-7.58
X10.86Y-8.08
X10.94Y-7.975
X11.035Y-7.585
X11.145Y-7.59
X11.21Y-7.975
X11.28Y-7.585
X11.295Y-8.08
X11.48Y-7.58
X11.48Y-8.08
X11.56Y-7.975
X11.58Y-5.94
X11.655Y-7.585
X11.765Y-7.59
X11.83Y-7.975
X11.9Y-7.585
X11.915Y-8.08
X12.1Y-7.58
X12.1Y-8.08
X12.18Y-7.975
X12.275Y-7.585
X12.385Y-7.59
X12.45Y-7.975
X12.52Y-7.585
X12.535Y-8.08
X12.72Y-7.58
X12.72Y-8.08
X12.8Y-7.975
X12.895Y-7.585
X13.005Y-7.59
X13.07Y-7.975
X13.14Y-7.585
X13.155Y-8.08
T5
X6.8856Y-4.98
X6.9644Y-4.98
T6
X3.76Y-5.2961
X3.955Y-5.95
X4.285Y-5.95
X4.3996Y-5.6711
X4.535Y-5.95
X5.045Y-4.855
X5.155Y-4.57
X12.385Y-4.565
X12.385Y-4.72
X12.535Y-4.565
X12.535Y-4.725
T7
X5.089Y-8.42
X5.1435Y-8.532
X5.198Y-8.42
X5.2525Y-8.532
X5.307Y-8.42
X5.3615Y-8.532
X5.416Y-8.42
X5.4705Y-8.532
X5.525Y-8.42
X5.5795Y-8.532
X5.634Y-8.42
X5.6885Y-8.532
X5.743Y-8.42
X5.7975Y-8.532
X5.852Y-8.42
X5.9065Y-8.532
X5.961Y-8.42
X6.0155Y-8.532
X6.07Y-8.42
X6.1245Y-8.532
X6.179Y-8.42
X6.2335Y-8.532
X6.288Y-8.42
X6.3425Y-8.532
X6.397Y-8.42
X6.4515Y-8.532
X6.506Y-8.42
X6.5605Y-8.532
X6.615Y-8.42
X6.6695Y-8.532
X6.724Y-8.42
X6.7785Y-8.532
X6.833Y-8.42
X6.8875Y-8.532
X6.942Y-8.42
X6.9965Y-8.532
X7.051Y-8.42
X9.439Y-8.42
X9.4935Y-8.532
X9.548Y-8.42
X9.6025Y-8.532
X9.657Y-8.42
X9.7115Y-8.532
X9.766Y-8.42
X9.8205Y-8.532
X9.875Y-8.42
X9.9295Y-8.532
X9.984Y-8.42
X10.0385Y-8.532
X10.093Y-8.42
X10.1475Y-8.532
X10.202Y-8.42
X10.2565Y-8.532
X10.311Y-8.42
X10.3655Y-8.532
X10.42Y-8.42
X10.4745Y-8.532
X10.529Y-8.42
X10.5835Y-8.532
X10.638Y-8.42
X10.6925Y-8.532
X10.747Y-8.42
X10.8015Y-8.532
X10.856Y-8.42
X10.9105Y-8.532
X10.965Y-8.42
X11.0195Y-8.532
X11.074Y-8.42
X11.1285Y-8.532
X11.183Y-8.42
X11.2375Y-8.532
X11.292Y-8.42
X11.3465Y-8.532
X11.401Y-8.42
T8
X12.1Y-4.7
T9
X12.0Y-4.6
X12.0Y-4.8
X12.2Y-4.6
X12.2Y-4.8
T10
X3.5Y-8.51
X5.682Y-4.0743
X8.1624Y-4.0743
X8.3Y-8.51
X8.438Y-4.0743
X10.9183Y-4.0625
X13.1Y-8.51
T11
X4.817Y-8.476
X7.317Y-8.476
X9.167Y-8.476
X11.667Y-8.476
M30
