%TF.GenerationSoftware,KiCad,Pcbnew,(7.0.0)*%
%TF.CreationDate,2024-01-31T08:06:41-08:00*%
%TF.ProjectId,Quartz_v1p1,51756172-747a-45f7-9631-70312e6b6963,rev?*%
%TF.SameCoordinates,Original*%
%TF.FileFunction,Soldermask,Bot*%
%TF.FilePolarity,Negative*%
%FSLAX46Y46*%
G04 Gerber Fmt 4.6, Leading zero omitted, Abs format (unit mm)*
G04 Created by KiCad (PCBNEW (7.0.0)) date 2024-01-31 08:06:41*
%MOMM*%
%LPD*%
G01*
G04 APERTURE LIST*
G04 Aperture macros list*
%AMRoundRect*
0 Rectangle with rounded corners*
0 $1 Rounding radius*
0 $2 $3 $4 $5 $6 $7 $8 $9 X,Y pos of 4 corners*
0 Add a 4 corners polygon primitive as box body*
4,1,4,$2,$3,$4,$5,$6,$7,$8,$9,$2,$3,0*
0 Add four circle primitives for the rounded corners*
1,1,$1+$1,$2,$3*
1,1,$1+$1,$4,$5*
1,1,$1+$1,$6,$7*
1,1,$1+$1,$8,$9*
0 Add four rect primitives between the rounded corners*
20,1,$1+$1,$2,$3,$4,$5,0*
20,1,$1+$1,$4,$5,$6,$7,0*
20,1,$1+$1,$6,$7,$8,$9,0*
20,1,$1+$1,$8,$9,$2,$3,0*%
G04 Aperture macros list end*
%ADD10C,0.100000*%
%ADD11C,0.150000*%
%ADD12C,0.300000*%
%ADD13C,0.400000*%
%ADD14C,5.000000*%
%ADD15C,1.270000*%
%ADD16C,0.510000*%
%ADD17RoundRect,0.140000X0.140000X0.170000X-0.140000X0.170000X-0.140000X-0.170000X0.140000X-0.170000X0*%
%ADD18RoundRect,0.135000X0.035355X-0.226274X0.226274X-0.035355X-0.035355X0.226274X-0.226274X0.035355X0*%
%ADD19RoundRect,0.135000X-0.135000X-0.185000X0.135000X-0.185000X0.135000X0.185000X-0.135000X0.185000X0*%
%ADD20RoundRect,0.140000X-0.140000X-0.170000X0.140000X-0.170000X0.140000X0.170000X-0.140000X0.170000X0*%
%ADD21RoundRect,0.140000X-0.021213X0.219203X-0.219203X0.021213X0.021213X-0.219203X0.219203X-0.021213X0*%
%ADD22RoundRect,0.135000X0.135000X0.185000X-0.135000X0.185000X-0.135000X-0.185000X0.135000X-0.185000X0*%
%ADD23RoundRect,0.147500X0.172500X-0.147500X0.172500X0.147500X-0.172500X0.147500X-0.172500X-0.147500X0*%
%ADD24RoundRect,0.140000X0.170000X-0.140000X0.170000X0.140000X-0.170000X0.140000X-0.170000X-0.140000X0*%
%ADD25RoundRect,0.140000X-0.170000X0.140000X-0.170000X-0.140000X0.170000X-0.140000X0.170000X0.140000X0*%
%ADD26RoundRect,0.135000X0.226274X0.035355X0.035355X0.226274X-0.226274X-0.035355X-0.035355X-0.226274X0*%
%ADD27RoundRect,0.225000X0.250000X-0.225000X0.250000X0.225000X-0.250000X0.225000X-0.250000X-0.225000X0*%
%ADD28RoundRect,0.150000X-0.150000X0.512500X-0.150000X-0.512500X0.150000X-0.512500X0.150000X0.512500X0*%
%ADD29RoundRect,0.140000X0.219203X0.021213X0.021213X0.219203X-0.219203X-0.021213X-0.021213X-0.219203X0*%
%ADD30C,2.050000*%
%ADD31C,2.250000*%
%ADD32RoundRect,0.249750X1.250250X-0.305250X1.250250X0.305250X-1.250250X0.305250X-1.250250X-0.305250X0*%
%ADD33R,1.600200X2.209800*%
%ADD34RoundRect,0.135000X0.185000X-0.135000X0.185000X0.135000X-0.185000X0.135000X-0.185000X-0.135000X0*%
%ADD35RoundRect,0.200000X-0.200000X-0.275000X0.200000X-0.275000X0.200000X0.275000X-0.200000X0.275000X0*%
%ADD36RoundRect,0.225000X-0.225000X-0.250000X0.225000X-0.250000X0.225000X0.250000X-0.225000X0.250000X0*%
%ADD37RoundRect,0.200000X0.200000X0.275000X-0.200000X0.275000X-0.200000X-0.275000X0.200000X-0.275000X0*%
%ADD38RoundRect,0.075000X-0.075000X0.412500X-0.075000X-0.412500X0.075000X-0.412500X0.075000X0.412500X0*%
%ADD39RoundRect,0.075000X-0.412500X0.075000X-0.412500X-0.075000X0.412500X-0.075000X0.412500X0.075000X0*%
%ADD40R,3.100000X3.100000*%
%ADD41RoundRect,0.140000X0.021213X-0.219203X0.219203X-0.021213X-0.021213X0.219203X-0.219203X0.021213X0*%
%ADD42RoundRect,0.150000X-0.825000X-0.150000X0.825000X-0.150000X0.825000X0.150000X-0.825000X0.150000X0*%
%ADD43RoundRect,0.147500X0.147500X0.172500X-0.147500X0.172500X-0.147500X-0.172500X0.147500X-0.172500X0*%
%ADD44C,2.000000*%
%ADD45RoundRect,0.250000X-0.262500X-0.450000X0.262500X-0.450000X0.262500X0.450000X-0.262500X0.450000X0*%
%ADD46R,0.250000X0.700000*%
%ADD47R,6.440000X2.640000*%
%ADD48RoundRect,0.200000X0.275000X-0.200000X0.275000X0.200000X-0.275000X0.200000X-0.275000X-0.200000X0*%
%ADD49RoundRect,0.075000X-0.700000X-0.075000X0.700000X-0.075000X0.700000X0.075000X-0.700000X0.075000X0*%
%ADD50RoundRect,0.075000X-0.075000X-0.700000X0.075000X-0.700000X0.075000X0.700000X-0.075000X0.700000X0*%
%ADD51RoundRect,0.140000X-0.219203X-0.021213X-0.021213X-0.219203X0.219203X0.021213X0.021213X0.219203X0*%
%ADD52RoundRect,0.250000X0.262500X0.450000X-0.262500X0.450000X-0.262500X-0.450000X0.262500X-0.450000X0*%
%ADD53RoundRect,0.225000X-0.250000X0.225000X-0.250000X-0.225000X0.250000X-0.225000X0.250000X0.225000X0*%
%ADD54RoundRect,0.218750X-0.218750X-0.256250X0.218750X-0.256250X0.218750X0.256250X-0.218750X0.256250X0*%
%ADD55RoundRect,0.250000X-0.250000X-0.475000X0.250000X-0.475000X0.250000X0.475000X-0.250000X0.475000X0*%
%ADD56C,6.000000*%
%ADD57RoundRect,0.062500X-0.062500X0.325000X-0.062500X-0.325000X0.062500X-0.325000X0.062500X0.325000X0*%
%ADD58RoundRect,0.062500X-0.325000X0.062500X-0.325000X-0.062500X0.325000X-0.062500X0.325000X0.062500X0*%
%ADD59R,1.750000X1.750000*%
%ADD60R,0.740000X2.400000*%
%ADD61RoundRect,0.200000X-0.275000X0.200000X-0.275000X-0.200000X0.275000X-0.200000X0.275000X0.200000X0*%
%ADD62R,3.360000X4.860000*%
%ADD63R,1.390000X1.400000*%
%ADD64R,2.286000X1.800000*%
%ADD65R,0.355600X0.965200*%
%ADD66RoundRect,0.250000X0.475000X-0.250000X0.475000X0.250000X-0.475000X0.250000X-0.475000X-0.250000X0*%
%ADD67C,1.651000*%
%ADD68C,3.683000*%
%ADD69RoundRect,0.218750X0.218750X0.256250X-0.218750X0.256250X-0.218750X-0.256250X0.218750X-0.256250X0*%
%ADD70RoundRect,0.250000X-0.475000X0.250000X-0.475000X-0.250000X0.475000X-0.250000X0.475000X0.250000X0*%
%ADD71RoundRect,0.218750X0.256250X-0.218750X0.256250X0.218750X-0.256250X0.218750X-0.256250X-0.218750X0*%
%ADD72RoundRect,0.135000X-0.185000X0.135000X-0.185000X-0.135000X0.185000X-0.135000X0.185000X0.135000X0*%
%ADD73RoundRect,0.218750X-0.381250X0.218750X-0.381250X-0.218750X0.381250X-0.218750X0.381250X0.218750X0*%
%ADD74RoundRect,0.062500X0.062500X-0.350000X0.062500X0.350000X-0.062500X0.350000X-0.062500X-0.350000X0*%
%ADD75RoundRect,0.062500X0.350000X-0.062500X0.350000X0.062500X-0.350000X0.062500X-0.350000X-0.062500X0*%
%ADD76R,4.600000X4.600000*%
%ADD77RoundRect,0.218750X-0.218750X-0.381250X0.218750X-0.381250X0.218750X0.381250X-0.218750X0.381250X0*%
%ADD78R,1.350000X1.350000*%
%ADD79O,1.350000X1.350000*%
%ADD80RoundRect,0.275000X-0.725000X-0.275000X0.725000X-0.275000X0.725000X0.275000X-0.725000X0.275000X0*%
%ADD81RoundRect,0.125000X-0.125000X-0.275000X0.125000X-0.275000X0.125000X0.275000X-0.125000X0.275000X0*%
%ADD82R,4.000000X2.000000*%
%TA.AperFunction,Profile*%
%ADD83C,0.100000*%
%TD*%
G04 APERTURE END LIST*
D10*
D11*
X299989000Y-253002200D02*
X407989000Y-253002200D01*
X407989000Y-285002200D01*
X299989000Y-285002200D01*
X299989000Y-253002200D01*
D10*
D11*
X10000000Y-10000000D02*
X409989000Y-10000000D01*
X409989000Y-287002200D01*
X10000000Y-287002200D01*
X10000000Y-10000000D01*
D10*
D11*
X12000000Y-12000000D02*
X407989000Y-12000000D01*
X407989000Y-285002200D01*
X12000000Y-285002200D01*
X12000000Y-12000000D01*
D10*
D11*
X60000000Y-12000000D02*
X60000000Y-10000000D01*
D10*
D11*
X110000000Y-12000000D02*
X110000000Y-10000000D01*
D10*
D11*
X160000000Y-12000000D02*
X160000000Y-10000000D01*
D10*
D11*
X210000000Y-12000000D02*
X210000000Y-10000000D01*
D10*
D11*
X260000000Y-12000000D02*
X260000000Y-10000000D01*
D10*
D11*
X310000000Y-12000000D02*
X310000000Y-10000000D01*
D10*
D11*
X360000000Y-12000000D02*
X360000000Y-10000000D01*
D10*
D11*
X35990476Y-11477595D02*
X35247619Y-11477595D01*
X35619047Y-11477595D02*
X35619047Y-10177595D01*
X35619047Y-10177595D02*
X35495238Y-10363309D01*
X35495238Y-10363309D02*
X35371428Y-10487119D01*
X35371428Y-10487119D02*
X35247619Y-10549023D01*
D10*
D11*
X85247619Y-10301404D02*
X85309523Y-10239500D01*
X85309523Y-10239500D02*
X85433333Y-10177595D01*
X85433333Y-10177595D02*
X85742857Y-10177595D01*
X85742857Y-10177595D02*
X85866666Y-10239500D01*
X85866666Y-10239500D02*
X85928571Y-10301404D01*
X85928571Y-10301404D02*
X85990476Y-10425214D01*
X85990476Y-10425214D02*
X85990476Y-10549023D01*
X85990476Y-10549023D02*
X85928571Y-10734738D01*
X85928571Y-10734738D02*
X85185714Y-11477595D01*
X85185714Y-11477595D02*
X85990476Y-11477595D01*
D10*
D11*
X135185714Y-10177595D02*
X135990476Y-10177595D01*
X135990476Y-10177595D02*
X135557142Y-10672833D01*
X135557142Y-10672833D02*
X135742857Y-10672833D01*
X135742857Y-10672833D02*
X135866666Y-10734738D01*
X135866666Y-10734738D02*
X135928571Y-10796642D01*
X135928571Y-10796642D02*
X135990476Y-10920452D01*
X135990476Y-10920452D02*
X135990476Y-11229976D01*
X135990476Y-11229976D02*
X135928571Y-11353785D01*
X135928571Y-11353785D02*
X135866666Y-11415690D01*
X135866666Y-11415690D02*
X135742857Y-11477595D01*
X135742857Y-11477595D02*
X135371428Y-11477595D01*
X135371428Y-11477595D02*
X135247619Y-11415690D01*
X135247619Y-11415690D02*
X135185714Y-11353785D01*
D10*
D11*
X185866666Y-10610928D02*
X185866666Y-11477595D01*
X185557142Y-10115690D02*
X185247619Y-11044261D01*
X185247619Y-11044261D02*
X186052380Y-11044261D01*
D10*
D11*
X235928571Y-10177595D02*
X235309523Y-10177595D01*
X235309523Y-10177595D02*
X235247619Y-10796642D01*
X235247619Y-10796642D02*
X235309523Y-10734738D01*
X235309523Y-10734738D02*
X235433333Y-10672833D01*
X235433333Y-10672833D02*
X235742857Y-10672833D01*
X235742857Y-10672833D02*
X235866666Y-10734738D01*
X235866666Y-10734738D02*
X235928571Y-10796642D01*
X235928571Y-10796642D02*
X235990476Y-10920452D01*
X235990476Y-10920452D02*
X235990476Y-11229976D01*
X235990476Y-11229976D02*
X235928571Y-11353785D01*
X235928571Y-11353785D02*
X235866666Y-11415690D01*
X235866666Y-11415690D02*
X235742857Y-11477595D01*
X235742857Y-11477595D02*
X235433333Y-11477595D01*
X235433333Y-11477595D02*
X235309523Y-11415690D01*
X235309523Y-11415690D02*
X235247619Y-11353785D01*
D10*
D11*
X285866666Y-10177595D02*
X285619047Y-10177595D01*
X285619047Y-10177595D02*
X285495238Y-10239500D01*
X285495238Y-10239500D02*
X285433333Y-10301404D01*
X285433333Y-10301404D02*
X285309523Y-10487119D01*
X285309523Y-10487119D02*
X285247619Y-10734738D01*
X285247619Y-10734738D02*
X285247619Y-11229976D01*
X285247619Y-11229976D02*
X285309523Y-11353785D01*
X285309523Y-11353785D02*
X285371428Y-11415690D01*
X285371428Y-11415690D02*
X285495238Y-11477595D01*
X285495238Y-11477595D02*
X285742857Y-11477595D01*
X285742857Y-11477595D02*
X285866666Y-11415690D01*
X285866666Y-11415690D02*
X285928571Y-11353785D01*
X285928571Y-11353785D02*
X285990476Y-11229976D01*
X285990476Y-11229976D02*
X285990476Y-10920452D01*
X285990476Y-10920452D02*
X285928571Y-10796642D01*
X285928571Y-10796642D02*
X285866666Y-10734738D01*
X285866666Y-10734738D02*
X285742857Y-10672833D01*
X285742857Y-10672833D02*
X285495238Y-10672833D01*
X285495238Y-10672833D02*
X285371428Y-10734738D01*
X285371428Y-10734738D02*
X285309523Y-10796642D01*
X285309523Y-10796642D02*
X285247619Y-10920452D01*
D10*
D11*
X335185714Y-10177595D02*
X336052380Y-10177595D01*
X336052380Y-10177595D02*
X335495238Y-11477595D01*
D10*
D11*
X385495238Y-10734738D02*
X385371428Y-10672833D01*
X385371428Y-10672833D02*
X385309523Y-10610928D01*
X385309523Y-10610928D02*
X385247619Y-10487119D01*
X385247619Y-10487119D02*
X385247619Y-10425214D01*
X385247619Y-10425214D02*
X385309523Y-10301404D01*
X385309523Y-10301404D02*
X385371428Y-10239500D01*
X385371428Y-10239500D02*
X385495238Y-10177595D01*
X385495238Y-10177595D02*
X385742857Y-10177595D01*
X385742857Y-10177595D02*
X385866666Y-10239500D01*
X385866666Y-10239500D02*
X385928571Y-10301404D01*
X385928571Y-10301404D02*
X385990476Y-10425214D01*
X385990476Y-10425214D02*
X385990476Y-10487119D01*
X385990476Y-10487119D02*
X385928571Y-10610928D01*
X385928571Y-10610928D02*
X385866666Y-10672833D01*
X385866666Y-10672833D02*
X385742857Y-10734738D01*
X385742857Y-10734738D02*
X385495238Y-10734738D01*
X385495238Y-10734738D02*
X385371428Y-10796642D01*
X385371428Y-10796642D02*
X385309523Y-10858547D01*
X385309523Y-10858547D02*
X385247619Y-10982357D01*
X385247619Y-10982357D02*
X385247619Y-11229976D01*
X385247619Y-11229976D02*
X385309523Y-11353785D01*
X385309523Y-11353785D02*
X385371428Y-11415690D01*
X385371428Y-11415690D02*
X385495238Y-11477595D01*
X385495238Y-11477595D02*
X385742857Y-11477595D01*
X385742857Y-11477595D02*
X385866666Y-11415690D01*
X385866666Y-11415690D02*
X385928571Y-11353785D01*
X385928571Y-11353785D02*
X385990476Y-11229976D01*
X385990476Y-11229976D02*
X385990476Y-10982357D01*
X385990476Y-10982357D02*
X385928571Y-10858547D01*
X385928571Y-10858547D02*
X385866666Y-10796642D01*
X385866666Y-10796642D02*
X385742857Y-10734738D01*
D10*
D11*
X60000000Y-285002200D02*
X60000000Y-287002200D01*
D10*
D11*
X110000000Y-285002200D02*
X110000000Y-287002200D01*
D10*
D11*
X160000000Y-285002200D02*
X160000000Y-287002200D01*
D10*
D11*
X210000000Y-285002200D02*
X210000000Y-287002200D01*
D10*
D11*
X260000000Y-285002200D02*
X260000000Y-287002200D01*
D10*
D11*
X310000000Y-285002200D02*
X310000000Y-287002200D01*
D10*
D11*
X360000000Y-285002200D02*
X360000000Y-287002200D01*
D10*
D11*
X35990476Y-286479795D02*
X35247619Y-286479795D01*
X35619047Y-286479795D02*
X35619047Y-285179795D01*
X35619047Y-285179795D02*
X35495238Y-285365509D01*
X35495238Y-285365509D02*
X35371428Y-285489319D01*
X35371428Y-285489319D02*
X35247619Y-285551223D01*
D10*
D11*
X85247619Y-285303604D02*
X85309523Y-285241700D01*
X85309523Y-285241700D02*
X85433333Y-285179795D01*
X85433333Y-285179795D02*
X85742857Y-285179795D01*
X85742857Y-285179795D02*
X85866666Y-285241700D01*
X85866666Y-285241700D02*
X85928571Y-285303604D01*
X85928571Y-285303604D02*
X85990476Y-285427414D01*
X85990476Y-285427414D02*
X85990476Y-285551223D01*
X85990476Y-285551223D02*
X85928571Y-285736938D01*
X85928571Y-285736938D02*
X85185714Y-286479795D01*
X85185714Y-286479795D02*
X85990476Y-286479795D01*
D10*
D11*
X135185714Y-285179795D02*
X135990476Y-285179795D01*
X135990476Y-285179795D02*
X135557142Y-285675033D01*
X135557142Y-285675033D02*
X135742857Y-285675033D01*
X135742857Y-285675033D02*
X135866666Y-285736938D01*
X135866666Y-285736938D02*
X135928571Y-285798842D01*
X135928571Y-285798842D02*
X135990476Y-285922652D01*
X135990476Y-285922652D02*
X135990476Y-286232176D01*
X135990476Y-286232176D02*
X135928571Y-286355985D01*
X135928571Y-286355985D02*
X135866666Y-286417890D01*
X135866666Y-286417890D02*
X135742857Y-286479795D01*
X135742857Y-286479795D02*
X135371428Y-286479795D01*
X135371428Y-286479795D02*
X135247619Y-286417890D01*
X135247619Y-286417890D02*
X135185714Y-286355985D01*
D10*
D11*
X185866666Y-285613128D02*
X185866666Y-286479795D01*
X185557142Y-285117890D02*
X185247619Y-286046461D01*
X185247619Y-286046461D02*
X186052380Y-286046461D01*
D10*
D11*
X235928571Y-285179795D02*
X235309523Y-285179795D01*
X235309523Y-285179795D02*
X235247619Y-285798842D01*
X235247619Y-285798842D02*
X235309523Y-285736938D01*
X235309523Y-285736938D02*
X235433333Y-285675033D01*
X235433333Y-285675033D02*
X235742857Y-285675033D01*
X235742857Y-285675033D02*
X235866666Y-285736938D01*
X235866666Y-285736938D02*
X235928571Y-285798842D01*
X235928571Y-285798842D02*
X235990476Y-285922652D01*
X235990476Y-285922652D02*
X235990476Y-286232176D01*
X235990476Y-286232176D02*
X235928571Y-286355985D01*
X235928571Y-286355985D02*
X235866666Y-286417890D01*
X235866666Y-286417890D02*
X235742857Y-286479795D01*
X235742857Y-286479795D02*
X235433333Y-286479795D01*
X235433333Y-286479795D02*
X235309523Y-286417890D01*
X235309523Y-286417890D02*
X235247619Y-286355985D01*
D10*
D11*
X285866666Y-285179795D02*
X285619047Y-285179795D01*
X285619047Y-285179795D02*
X285495238Y-285241700D01*
X285495238Y-285241700D02*
X285433333Y-285303604D01*
X285433333Y-285303604D02*
X285309523Y-285489319D01*
X285309523Y-285489319D02*
X285247619Y-285736938D01*
X285247619Y-285736938D02*
X285247619Y-286232176D01*
X285247619Y-286232176D02*
X285309523Y-286355985D01*
X285309523Y-286355985D02*
X285371428Y-286417890D01*
X285371428Y-286417890D02*
X285495238Y-286479795D01*
X285495238Y-286479795D02*
X285742857Y-286479795D01*
X285742857Y-286479795D02*
X285866666Y-286417890D01*
X285866666Y-286417890D02*
X285928571Y-286355985D01*
X285928571Y-286355985D02*
X285990476Y-286232176D01*
X285990476Y-286232176D02*
X285990476Y-285922652D01*
X285990476Y-285922652D02*
X285928571Y-285798842D01*
X285928571Y-285798842D02*
X285866666Y-285736938D01*
X285866666Y-285736938D02*
X285742857Y-285675033D01*
X285742857Y-285675033D02*
X285495238Y-285675033D01*
X285495238Y-285675033D02*
X285371428Y-285736938D01*
X285371428Y-285736938D02*
X285309523Y-285798842D01*
X285309523Y-285798842D02*
X285247619Y-285922652D01*
D10*
D11*
X335185714Y-285179795D02*
X336052380Y-285179795D01*
X336052380Y-285179795D02*
X335495238Y-286479795D01*
D10*
D11*
X385495238Y-285736938D02*
X385371428Y-285675033D01*
X385371428Y-285675033D02*
X385309523Y-285613128D01*
X385309523Y-285613128D02*
X385247619Y-285489319D01*
X385247619Y-285489319D02*
X385247619Y-285427414D01*
X385247619Y-285427414D02*
X385309523Y-285303604D01*
X385309523Y-285303604D02*
X385371428Y-285241700D01*
X385371428Y-285241700D02*
X385495238Y-285179795D01*
X385495238Y-285179795D02*
X385742857Y-285179795D01*
X385742857Y-285179795D02*
X385866666Y-285241700D01*
X385866666Y-285241700D02*
X385928571Y-285303604D01*
X385928571Y-285303604D02*
X385990476Y-285427414D01*
X385990476Y-285427414D02*
X385990476Y-285489319D01*
X385990476Y-285489319D02*
X385928571Y-285613128D01*
X385928571Y-285613128D02*
X385866666Y-285675033D01*
X385866666Y-285675033D02*
X385742857Y-285736938D01*
X385742857Y-285736938D02*
X385495238Y-285736938D01*
X385495238Y-285736938D02*
X385371428Y-285798842D01*
X385371428Y-285798842D02*
X385309523Y-285860747D01*
X385309523Y-285860747D02*
X385247619Y-285984557D01*
X385247619Y-285984557D02*
X385247619Y-286232176D01*
X385247619Y-286232176D02*
X385309523Y-286355985D01*
X385309523Y-286355985D02*
X385371428Y-286417890D01*
X385371428Y-286417890D02*
X385495238Y-286479795D01*
X385495238Y-286479795D02*
X385742857Y-286479795D01*
X385742857Y-286479795D02*
X385866666Y-286417890D01*
X385866666Y-286417890D02*
X385928571Y-286355985D01*
X385928571Y-286355985D02*
X385990476Y-286232176D01*
X385990476Y-286232176D02*
X385990476Y-285984557D01*
X385990476Y-285984557D02*
X385928571Y-285860747D01*
X385928571Y-285860747D02*
X385866666Y-285798842D01*
X385866666Y-285798842D02*
X385742857Y-285736938D01*
D10*
D11*
X10000000Y-60000000D02*
X12000000Y-60000000D01*
D10*
D11*
X10000000Y-110000000D02*
X12000000Y-110000000D01*
D10*
D11*
X10000000Y-160000000D02*
X12000000Y-160000000D01*
D10*
D11*
X10000000Y-210000000D02*
X12000000Y-210000000D01*
D10*
D11*
X10000000Y-260000000D02*
X12000000Y-260000000D01*
D10*
D11*
X10690476Y-35106166D02*
X11309523Y-35106166D01*
X10566666Y-35477595D02*
X10999999Y-34177595D01*
X10999999Y-34177595D02*
X11433333Y-35477595D01*
D10*
D11*
X11092857Y-84796642D02*
X11278571Y-84858547D01*
X11278571Y-84858547D02*
X11340476Y-84920452D01*
X11340476Y-84920452D02*
X11402380Y-85044261D01*
X11402380Y-85044261D02*
X11402380Y-85229976D01*
X11402380Y-85229976D02*
X11340476Y-85353785D01*
X11340476Y-85353785D02*
X11278571Y-85415690D01*
X11278571Y-85415690D02*
X11154761Y-85477595D01*
X11154761Y-85477595D02*
X10659523Y-85477595D01*
X10659523Y-85477595D02*
X10659523Y-84177595D01*
X10659523Y-84177595D02*
X11092857Y-84177595D01*
X11092857Y-84177595D02*
X11216666Y-84239500D01*
X11216666Y-84239500D02*
X11278571Y-84301404D01*
X11278571Y-84301404D02*
X11340476Y-84425214D01*
X11340476Y-84425214D02*
X11340476Y-84549023D01*
X11340476Y-84549023D02*
X11278571Y-84672833D01*
X11278571Y-84672833D02*
X11216666Y-84734738D01*
X11216666Y-84734738D02*
X11092857Y-84796642D01*
X11092857Y-84796642D02*
X10659523Y-84796642D01*
D10*
D11*
X11402380Y-135353785D02*
X11340476Y-135415690D01*
X11340476Y-135415690D02*
X11154761Y-135477595D01*
X11154761Y-135477595D02*
X11030952Y-135477595D01*
X11030952Y-135477595D02*
X10845238Y-135415690D01*
X10845238Y-135415690D02*
X10721428Y-135291880D01*
X10721428Y-135291880D02*
X10659523Y-135168071D01*
X10659523Y-135168071D02*
X10597619Y-134920452D01*
X10597619Y-134920452D02*
X10597619Y-134734738D01*
X10597619Y-134734738D02*
X10659523Y-134487119D01*
X10659523Y-134487119D02*
X10721428Y-134363309D01*
X10721428Y-134363309D02*
X10845238Y-134239500D01*
X10845238Y-134239500D02*
X11030952Y-134177595D01*
X11030952Y-134177595D02*
X11154761Y-134177595D01*
X11154761Y-134177595D02*
X11340476Y-134239500D01*
X11340476Y-134239500D02*
X11402380Y-134301404D01*
D10*
D11*
X10659523Y-185477595D02*
X10659523Y-184177595D01*
X10659523Y-184177595D02*
X10969047Y-184177595D01*
X10969047Y-184177595D02*
X11154761Y-184239500D01*
X11154761Y-184239500D02*
X11278571Y-184363309D01*
X11278571Y-184363309D02*
X11340476Y-184487119D01*
X11340476Y-184487119D02*
X11402380Y-184734738D01*
X11402380Y-184734738D02*
X11402380Y-184920452D01*
X11402380Y-184920452D02*
X11340476Y-185168071D01*
X11340476Y-185168071D02*
X11278571Y-185291880D01*
X11278571Y-185291880D02*
X11154761Y-185415690D01*
X11154761Y-185415690D02*
X10969047Y-185477595D01*
X10969047Y-185477595D02*
X10659523Y-185477595D01*
D10*
D11*
X10721428Y-234796642D02*
X11154762Y-234796642D01*
X11340476Y-235477595D02*
X10721428Y-235477595D01*
X10721428Y-235477595D02*
X10721428Y-234177595D01*
X10721428Y-234177595D02*
X11340476Y-234177595D01*
D10*
D11*
X11185714Y-284796642D02*
X10752380Y-284796642D01*
X10752380Y-285477595D02*
X10752380Y-284177595D01*
X10752380Y-284177595D02*
X11371428Y-284177595D01*
D10*
D11*
X409989000Y-60000000D02*
X407989000Y-60000000D01*
D10*
D11*
X409989000Y-110000000D02*
X407989000Y-110000000D01*
D10*
D11*
X409989000Y-160000000D02*
X407989000Y-160000000D01*
D10*
D11*
X409989000Y-210000000D02*
X407989000Y-210000000D01*
D10*
D11*
X409989000Y-260000000D02*
X407989000Y-260000000D01*
D10*
D11*
X408679476Y-35106166D02*
X409298523Y-35106166D01*
X408555666Y-35477595D02*
X408988999Y-34177595D01*
X408988999Y-34177595D02*
X409422333Y-35477595D01*
D10*
D11*
X409081857Y-84796642D02*
X409267571Y-84858547D01*
X409267571Y-84858547D02*
X409329476Y-84920452D01*
X409329476Y-84920452D02*
X409391380Y-85044261D01*
X409391380Y-85044261D02*
X409391380Y-85229976D01*
X409391380Y-85229976D02*
X409329476Y-85353785D01*
X409329476Y-85353785D02*
X409267571Y-85415690D01*
X409267571Y-85415690D02*
X409143761Y-85477595D01*
X409143761Y-85477595D02*
X408648523Y-85477595D01*
X408648523Y-85477595D02*
X408648523Y-84177595D01*
X408648523Y-84177595D02*
X409081857Y-84177595D01*
X409081857Y-84177595D02*
X409205666Y-84239500D01*
X409205666Y-84239500D02*
X409267571Y-84301404D01*
X409267571Y-84301404D02*
X409329476Y-84425214D01*
X409329476Y-84425214D02*
X409329476Y-84549023D01*
X409329476Y-84549023D02*
X409267571Y-84672833D01*
X409267571Y-84672833D02*
X409205666Y-84734738D01*
X409205666Y-84734738D02*
X409081857Y-84796642D01*
X409081857Y-84796642D02*
X408648523Y-84796642D01*
D10*
D11*
X409391380Y-135353785D02*
X409329476Y-135415690D01*
X409329476Y-135415690D02*
X409143761Y-135477595D01*
X409143761Y-135477595D02*
X409019952Y-135477595D01*
X409019952Y-135477595D02*
X408834238Y-135415690D01*
X408834238Y-135415690D02*
X408710428Y-135291880D01*
X408710428Y-135291880D02*
X408648523Y-135168071D01*
X408648523Y-135168071D02*
X408586619Y-134920452D01*
X408586619Y-134920452D02*
X408586619Y-134734738D01*
X408586619Y-134734738D02*
X408648523Y-134487119D01*
X408648523Y-134487119D02*
X408710428Y-134363309D01*
X408710428Y-134363309D02*
X408834238Y-134239500D01*
X408834238Y-134239500D02*
X409019952Y-134177595D01*
X409019952Y-134177595D02*
X409143761Y-134177595D01*
X409143761Y-134177595D02*
X409329476Y-134239500D01*
X409329476Y-134239500D02*
X409391380Y-134301404D01*
D10*
D11*
X408648523Y-185477595D02*
X408648523Y-184177595D01*
X408648523Y-184177595D02*
X408958047Y-184177595D01*
X408958047Y-184177595D02*
X409143761Y-184239500D01*
X409143761Y-184239500D02*
X409267571Y-184363309D01*
X409267571Y-184363309D02*
X409329476Y-184487119D01*
X409329476Y-184487119D02*
X409391380Y-184734738D01*
X409391380Y-184734738D02*
X409391380Y-184920452D01*
X409391380Y-184920452D02*
X409329476Y-185168071D01*
X409329476Y-185168071D02*
X409267571Y-185291880D01*
X409267571Y-185291880D02*
X409143761Y-185415690D01*
X409143761Y-185415690D02*
X408958047Y-185477595D01*
X408958047Y-185477595D02*
X408648523Y-185477595D01*
D10*
D11*
X408710428Y-234796642D02*
X409143762Y-234796642D01*
X409329476Y-235477595D02*
X408710428Y-235477595D01*
X408710428Y-235477595D02*
X408710428Y-234177595D01*
X408710428Y-234177595D02*
X409329476Y-234177595D01*
D10*
D11*
X409174714Y-284796642D02*
X408741380Y-284796642D01*
X408741380Y-285477595D02*
X408741380Y-284177595D01*
X408741380Y-284177595D02*
X409360428Y-284177595D01*
D10*
D11*
X323346142Y-280653271D02*
X323346142Y-279153271D01*
X323346142Y-279153271D02*
X323703285Y-279153271D01*
X323703285Y-279153271D02*
X323917571Y-279224700D01*
X323917571Y-279224700D02*
X324060428Y-279367557D01*
X324060428Y-279367557D02*
X324131857Y-279510414D01*
X324131857Y-279510414D02*
X324203285Y-279796128D01*
X324203285Y-279796128D02*
X324203285Y-280010414D01*
X324203285Y-280010414D02*
X324131857Y-280296128D01*
X324131857Y-280296128D02*
X324060428Y-280438985D01*
X324060428Y-280438985D02*
X323917571Y-280581842D01*
X323917571Y-280581842D02*
X323703285Y-280653271D01*
X323703285Y-280653271D02*
X323346142Y-280653271D01*
X325489000Y-280653271D02*
X325489000Y-279867557D01*
X325489000Y-279867557D02*
X325417571Y-279724700D01*
X325417571Y-279724700D02*
X325274714Y-279653271D01*
X325274714Y-279653271D02*
X324989000Y-279653271D01*
X324989000Y-279653271D02*
X324846142Y-279724700D01*
X325489000Y-280581842D02*
X325346142Y-280653271D01*
X325346142Y-280653271D02*
X324989000Y-280653271D01*
X324989000Y-280653271D02*
X324846142Y-280581842D01*
X324846142Y-280581842D02*
X324774714Y-280438985D01*
X324774714Y-280438985D02*
X324774714Y-280296128D01*
X324774714Y-280296128D02*
X324846142Y-280153271D01*
X324846142Y-280153271D02*
X324989000Y-280081842D01*
X324989000Y-280081842D02*
X325346142Y-280081842D01*
X325346142Y-280081842D02*
X325489000Y-280010414D01*
X325989000Y-279653271D02*
X326560428Y-279653271D01*
X326203285Y-279153271D02*
X326203285Y-280438985D01*
X326203285Y-280438985D02*
X326274714Y-280581842D01*
X326274714Y-280581842D02*
X326417571Y-280653271D01*
X326417571Y-280653271D02*
X326560428Y-280653271D01*
X327631857Y-280581842D02*
X327489000Y-280653271D01*
X327489000Y-280653271D02*
X327203286Y-280653271D01*
X327203286Y-280653271D02*
X327060428Y-280581842D01*
X327060428Y-280581842D02*
X326989000Y-280438985D01*
X326989000Y-280438985D02*
X326989000Y-279867557D01*
X326989000Y-279867557D02*
X327060428Y-279724700D01*
X327060428Y-279724700D02*
X327203286Y-279653271D01*
X327203286Y-279653271D02*
X327489000Y-279653271D01*
X327489000Y-279653271D02*
X327631857Y-279724700D01*
X327631857Y-279724700D02*
X327703286Y-279867557D01*
X327703286Y-279867557D02*
X327703286Y-280010414D01*
X327703286Y-280010414D02*
X326989000Y-280153271D01*
X328346142Y-280510414D02*
X328417571Y-280581842D01*
X328417571Y-280581842D02*
X328346142Y-280653271D01*
X328346142Y-280653271D02*
X328274714Y-280581842D01*
X328274714Y-280581842D02*
X328346142Y-280510414D01*
X328346142Y-280510414D02*
X328346142Y-280653271D01*
X328346142Y-279724700D02*
X328417571Y-279796128D01*
X328417571Y-279796128D02*
X328346142Y-279867557D01*
X328346142Y-279867557D02*
X328274714Y-279796128D01*
X328274714Y-279796128D02*
X328346142Y-279724700D01*
X328346142Y-279724700D02*
X328346142Y-279867557D01*
D10*
D11*
X299989000Y-281502200D02*
X407989000Y-281502200D01*
D10*
D11*
X301346142Y-283453271D02*
X301346142Y-281953271D01*
X302203285Y-283453271D02*
X301560428Y-282596128D01*
X302203285Y-281953271D02*
X301346142Y-282810414D01*
X302846142Y-283453271D02*
X302846142Y-282453271D01*
X302846142Y-281953271D02*
X302774714Y-282024700D01*
X302774714Y-282024700D02*
X302846142Y-282096128D01*
X302846142Y-282096128D02*
X302917571Y-282024700D01*
X302917571Y-282024700D02*
X302846142Y-281953271D01*
X302846142Y-281953271D02*
X302846142Y-282096128D01*
X304417571Y-283310414D02*
X304346143Y-283381842D01*
X304346143Y-283381842D02*
X304131857Y-283453271D01*
X304131857Y-283453271D02*
X303989000Y-283453271D01*
X303989000Y-283453271D02*
X303774714Y-283381842D01*
X303774714Y-283381842D02*
X303631857Y-283238985D01*
X303631857Y-283238985D02*
X303560428Y-283096128D01*
X303560428Y-283096128D02*
X303489000Y-282810414D01*
X303489000Y-282810414D02*
X303489000Y-282596128D01*
X303489000Y-282596128D02*
X303560428Y-282310414D01*
X303560428Y-282310414D02*
X303631857Y-282167557D01*
X303631857Y-282167557D02*
X303774714Y-282024700D01*
X303774714Y-282024700D02*
X303989000Y-281953271D01*
X303989000Y-281953271D02*
X304131857Y-281953271D01*
X304131857Y-281953271D02*
X304346143Y-282024700D01*
X304346143Y-282024700D02*
X304417571Y-282096128D01*
X305703286Y-283453271D02*
X305703286Y-282667557D01*
X305703286Y-282667557D02*
X305631857Y-282524700D01*
X305631857Y-282524700D02*
X305489000Y-282453271D01*
X305489000Y-282453271D02*
X305203286Y-282453271D01*
X305203286Y-282453271D02*
X305060428Y-282524700D01*
X305703286Y-283381842D02*
X305560428Y-283453271D01*
X305560428Y-283453271D02*
X305203286Y-283453271D01*
X305203286Y-283453271D02*
X305060428Y-283381842D01*
X305060428Y-283381842D02*
X304989000Y-283238985D01*
X304989000Y-283238985D02*
X304989000Y-283096128D01*
X304989000Y-283096128D02*
X305060428Y-282953271D01*
X305060428Y-282953271D02*
X305203286Y-282881842D01*
X305203286Y-282881842D02*
X305560428Y-282881842D01*
X305560428Y-282881842D02*
X305703286Y-282810414D01*
X307060429Y-283453271D02*
X307060429Y-281953271D01*
X307060429Y-283381842D02*
X306917571Y-283453271D01*
X306917571Y-283453271D02*
X306631857Y-283453271D01*
X306631857Y-283453271D02*
X306489000Y-283381842D01*
X306489000Y-283381842D02*
X306417571Y-283310414D01*
X306417571Y-283310414D02*
X306346143Y-283167557D01*
X306346143Y-283167557D02*
X306346143Y-282738985D01*
X306346143Y-282738985D02*
X306417571Y-282596128D01*
X306417571Y-282596128D02*
X306489000Y-282524700D01*
X306489000Y-282524700D02*
X306631857Y-282453271D01*
X306631857Y-282453271D02*
X306917571Y-282453271D01*
X306917571Y-282453271D02*
X307060429Y-282524700D01*
X308674714Y-282667557D02*
X309174714Y-282667557D01*
X309389000Y-283453271D02*
X308674714Y-283453271D01*
X308674714Y-283453271D02*
X308674714Y-281953271D01*
X308674714Y-281953271D02*
X309389000Y-281953271D01*
X310031857Y-283310414D02*
X310103286Y-283381842D01*
X310103286Y-283381842D02*
X310031857Y-283453271D01*
X310031857Y-283453271D02*
X309960429Y-283381842D01*
X309960429Y-283381842D02*
X310031857Y-283310414D01*
X310031857Y-283310414D02*
X310031857Y-283453271D01*
X310746143Y-283453271D02*
X310746143Y-281953271D01*
X310746143Y-281953271D02*
X311103286Y-281953271D01*
X311103286Y-281953271D02*
X311317572Y-282024700D01*
X311317572Y-282024700D02*
X311460429Y-282167557D01*
X311460429Y-282167557D02*
X311531858Y-282310414D01*
X311531858Y-282310414D02*
X311603286Y-282596128D01*
X311603286Y-282596128D02*
X311603286Y-282810414D01*
X311603286Y-282810414D02*
X311531858Y-283096128D01*
X311531858Y-283096128D02*
X311460429Y-283238985D01*
X311460429Y-283238985D02*
X311317572Y-283381842D01*
X311317572Y-283381842D02*
X311103286Y-283453271D01*
X311103286Y-283453271D02*
X310746143Y-283453271D01*
X312246143Y-283310414D02*
X312317572Y-283381842D01*
X312317572Y-283381842D02*
X312246143Y-283453271D01*
X312246143Y-283453271D02*
X312174715Y-283381842D01*
X312174715Y-283381842D02*
X312246143Y-283310414D01*
X312246143Y-283310414D02*
X312246143Y-283453271D01*
X312889001Y-283024700D02*
X313603287Y-283024700D01*
X312746144Y-283453271D02*
X313246144Y-281953271D01*
X313246144Y-281953271D02*
X313746144Y-283453271D01*
X314246143Y-283310414D02*
X314317572Y-283381842D01*
X314317572Y-283381842D02*
X314246143Y-283453271D01*
X314246143Y-283453271D02*
X314174715Y-283381842D01*
X314174715Y-283381842D02*
X314246143Y-283310414D01*
X314246143Y-283310414D02*
X314246143Y-283453271D01*
X316760429Y-283453271D02*
X316760429Y-281953271D01*
X316903287Y-282881842D02*
X317331858Y-283453271D01*
X317331858Y-282453271D02*
X316760429Y-283024700D01*
X317974715Y-283453271D02*
X317974715Y-282453271D01*
X317974715Y-281953271D02*
X317903287Y-282024700D01*
X317903287Y-282024700D02*
X317974715Y-282096128D01*
X317974715Y-282096128D02*
X318046144Y-282024700D01*
X318046144Y-282024700D02*
X317974715Y-281953271D01*
X317974715Y-281953271D02*
X317974715Y-282096128D01*
X319331859Y-283381842D02*
X319189001Y-283453271D01*
X319189001Y-283453271D02*
X318903287Y-283453271D01*
X318903287Y-283453271D02*
X318760430Y-283381842D01*
X318760430Y-283381842D02*
X318689001Y-283310414D01*
X318689001Y-283310414D02*
X318617573Y-283167557D01*
X318617573Y-283167557D02*
X318617573Y-282738985D01*
X318617573Y-282738985D02*
X318689001Y-282596128D01*
X318689001Y-282596128D02*
X318760430Y-282524700D01*
X318760430Y-282524700D02*
X318903287Y-282453271D01*
X318903287Y-282453271D02*
X319189001Y-282453271D01*
X319189001Y-282453271D02*
X319331859Y-282524700D01*
X320617573Y-283453271D02*
X320617573Y-282667557D01*
X320617573Y-282667557D02*
X320546144Y-282524700D01*
X320546144Y-282524700D02*
X320403287Y-282453271D01*
X320403287Y-282453271D02*
X320117573Y-282453271D01*
X320117573Y-282453271D02*
X319974715Y-282524700D01*
X320617573Y-283381842D02*
X320474715Y-283453271D01*
X320474715Y-283453271D02*
X320117573Y-283453271D01*
X320117573Y-283453271D02*
X319974715Y-283381842D01*
X319974715Y-283381842D02*
X319903287Y-283238985D01*
X319903287Y-283238985D02*
X319903287Y-283096128D01*
X319903287Y-283096128D02*
X319974715Y-282953271D01*
X319974715Y-282953271D02*
X320117573Y-282881842D01*
X320117573Y-282881842D02*
X320474715Y-282881842D01*
X320474715Y-282881842D02*
X320617573Y-282810414D01*
X321974716Y-283453271D02*
X321974716Y-281953271D01*
X321974716Y-283381842D02*
X321831858Y-283453271D01*
X321831858Y-283453271D02*
X321546144Y-283453271D01*
X321546144Y-283453271D02*
X321403287Y-283381842D01*
X321403287Y-283381842D02*
X321331858Y-283310414D01*
X321331858Y-283310414D02*
X321260430Y-283167557D01*
X321260430Y-283167557D02*
X321260430Y-282738985D01*
X321260430Y-282738985D02*
X321331858Y-282596128D01*
X321331858Y-282596128D02*
X321403287Y-282524700D01*
X321403287Y-282524700D02*
X321546144Y-282453271D01*
X321546144Y-282453271D02*
X321831858Y-282453271D01*
X321831858Y-282453271D02*
X321974716Y-282524700D01*
X324017573Y-284024700D02*
X323946144Y-283953271D01*
X323946144Y-283953271D02*
X323803287Y-283738985D01*
X323803287Y-283738985D02*
X323731859Y-283596128D01*
X323731859Y-283596128D02*
X323660430Y-283381842D01*
X323660430Y-283381842D02*
X323589001Y-283024700D01*
X323589001Y-283024700D02*
X323589001Y-282738985D01*
X323589001Y-282738985D02*
X323660430Y-282381842D01*
X323660430Y-282381842D02*
X323731859Y-282167557D01*
X323731859Y-282167557D02*
X323803287Y-282024700D01*
X323803287Y-282024700D02*
X323946144Y-281810414D01*
X323946144Y-281810414D02*
X324017573Y-281738985D01*
X324446144Y-281953271D02*
X325446144Y-281953271D01*
X325446144Y-281953271D02*
X324803287Y-283453271D01*
X326017572Y-283310414D02*
X326089001Y-283381842D01*
X326089001Y-283381842D02*
X326017572Y-283453271D01*
X326017572Y-283453271D02*
X325946144Y-283381842D01*
X325946144Y-283381842D02*
X326017572Y-283310414D01*
X326017572Y-283310414D02*
X326017572Y-283453271D01*
X327017573Y-281953271D02*
X327160430Y-281953271D01*
X327160430Y-281953271D02*
X327303287Y-282024700D01*
X327303287Y-282024700D02*
X327374716Y-282096128D01*
X327374716Y-282096128D02*
X327446144Y-282238985D01*
X327446144Y-282238985D02*
X327517573Y-282524700D01*
X327517573Y-282524700D02*
X327517573Y-282881842D01*
X327517573Y-282881842D02*
X327446144Y-283167557D01*
X327446144Y-283167557D02*
X327374716Y-283310414D01*
X327374716Y-283310414D02*
X327303287Y-283381842D01*
X327303287Y-283381842D02*
X327160430Y-283453271D01*
X327160430Y-283453271D02*
X327017573Y-283453271D01*
X327017573Y-283453271D02*
X326874716Y-283381842D01*
X326874716Y-283381842D02*
X326803287Y-283310414D01*
X326803287Y-283310414D02*
X326731858Y-283167557D01*
X326731858Y-283167557D02*
X326660430Y-282881842D01*
X326660430Y-282881842D02*
X326660430Y-282524700D01*
X326660430Y-282524700D02*
X326731858Y-282238985D01*
X326731858Y-282238985D02*
X326803287Y-282096128D01*
X326803287Y-282096128D02*
X326874716Y-282024700D01*
X326874716Y-282024700D02*
X327017573Y-281953271D01*
X328160429Y-283310414D02*
X328231858Y-283381842D01*
X328231858Y-283381842D02*
X328160429Y-283453271D01*
X328160429Y-283453271D02*
X328089001Y-283381842D01*
X328089001Y-283381842D02*
X328160429Y-283310414D01*
X328160429Y-283310414D02*
X328160429Y-283453271D01*
X329160430Y-281953271D02*
X329303287Y-281953271D01*
X329303287Y-281953271D02*
X329446144Y-282024700D01*
X329446144Y-282024700D02*
X329517573Y-282096128D01*
X329517573Y-282096128D02*
X329589001Y-282238985D01*
X329589001Y-282238985D02*
X329660430Y-282524700D01*
X329660430Y-282524700D02*
X329660430Y-282881842D01*
X329660430Y-282881842D02*
X329589001Y-283167557D01*
X329589001Y-283167557D02*
X329517573Y-283310414D01*
X329517573Y-283310414D02*
X329446144Y-283381842D01*
X329446144Y-283381842D02*
X329303287Y-283453271D01*
X329303287Y-283453271D02*
X329160430Y-283453271D01*
X329160430Y-283453271D02*
X329017573Y-283381842D01*
X329017573Y-283381842D02*
X328946144Y-283310414D01*
X328946144Y-283310414D02*
X328874715Y-283167557D01*
X328874715Y-283167557D02*
X328803287Y-282881842D01*
X328803287Y-282881842D02*
X328803287Y-282524700D01*
X328803287Y-282524700D02*
X328874715Y-282238985D01*
X328874715Y-282238985D02*
X328946144Y-282096128D01*
X328946144Y-282096128D02*
X329017573Y-282024700D01*
X329017573Y-282024700D02*
X329160430Y-281953271D01*
X330160429Y-284024700D02*
X330231858Y-283953271D01*
X330231858Y-283953271D02*
X330374715Y-283738985D01*
X330374715Y-283738985D02*
X330446144Y-283596128D01*
X330446144Y-283596128D02*
X330517572Y-283381842D01*
X330517572Y-283381842D02*
X330589001Y-283024700D01*
X330589001Y-283024700D02*
X330589001Y-282738985D01*
X330589001Y-282738985D02*
X330517572Y-282381842D01*
X330517572Y-282381842D02*
X330446144Y-282167557D01*
X330446144Y-282167557D02*
X330374715Y-282024700D01*
X330374715Y-282024700D02*
X330231858Y-281810414D01*
X330231858Y-281810414D02*
X330160429Y-281738985D01*
D10*
D11*
X299989000Y-278502200D02*
X407989000Y-278502200D01*
D10*
D12*
X387203285Y-280653271D02*
X386703285Y-279938985D01*
X386346142Y-280653271D02*
X386346142Y-279153271D01*
X386346142Y-279153271D02*
X386917571Y-279153271D01*
X386917571Y-279153271D02*
X387060428Y-279224700D01*
X387060428Y-279224700D02*
X387131857Y-279296128D01*
X387131857Y-279296128D02*
X387203285Y-279438985D01*
X387203285Y-279438985D02*
X387203285Y-279653271D01*
X387203285Y-279653271D02*
X387131857Y-279796128D01*
X387131857Y-279796128D02*
X387060428Y-279867557D01*
X387060428Y-279867557D02*
X386917571Y-279938985D01*
X386917571Y-279938985D02*
X386346142Y-279938985D01*
X388417571Y-280581842D02*
X388274714Y-280653271D01*
X388274714Y-280653271D02*
X387989000Y-280653271D01*
X387989000Y-280653271D02*
X387846142Y-280581842D01*
X387846142Y-280581842D02*
X387774714Y-280438985D01*
X387774714Y-280438985D02*
X387774714Y-279867557D01*
X387774714Y-279867557D02*
X387846142Y-279724700D01*
X387846142Y-279724700D02*
X387989000Y-279653271D01*
X387989000Y-279653271D02*
X388274714Y-279653271D01*
X388274714Y-279653271D02*
X388417571Y-279724700D01*
X388417571Y-279724700D02*
X388489000Y-279867557D01*
X388489000Y-279867557D02*
X388489000Y-280010414D01*
X388489000Y-280010414D02*
X387774714Y-280153271D01*
X388988999Y-279653271D02*
X389346142Y-280653271D01*
X389346142Y-280653271D02*
X389703285Y-279653271D01*
X390274713Y-280510414D02*
X390346142Y-280581842D01*
X390346142Y-280581842D02*
X390274713Y-280653271D01*
X390274713Y-280653271D02*
X390203285Y-280581842D01*
X390203285Y-280581842D02*
X390274713Y-280510414D01*
X390274713Y-280510414D02*
X390274713Y-280653271D01*
X390274713Y-279724700D02*
X390346142Y-279796128D01*
X390346142Y-279796128D02*
X390274713Y-279867557D01*
X390274713Y-279867557D02*
X390203285Y-279796128D01*
X390203285Y-279796128D02*
X390274713Y-279724700D01*
X390274713Y-279724700D02*
X390274713Y-279867557D01*
D10*
D11*
X301274714Y-280581842D02*
X301489000Y-280653271D01*
X301489000Y-280653271D02*
X301846142Y-280653271D01*
X301846142Y-280653271D02*
X301989000Y-280581842D01*
X301989000Y-280581842D02*
X302060428Y-280510414D01*
X302060428Y-280510414D02*
X302131857Y-280367557D01*
X302131857Y-280367557D02*
X302131857Y-280224700D01*
X302131857Y-280224700D02*
X302060428Y-280081842D01*
X302060428Y-280081842D02*
X301989000Y-280010414D01*
X301989000Y-280010414D02*
X301846142Y-279938985D01*
X301846142Y-279938985D02*
X301560428Y-279867557D01*
X301560428Y-279867557D02*
X301417571Y-279796128D01*
X301417571Y-279796128D02*
X301346142Y-279724700D01*
X301346142Y-279724700D02*
X301274714Y-279581842D01*
X301274714Y-279581842D02*
X301274714Y-279438985D01*
X301274714Y-279438985D02*
X301346142Y-279296128D01*
X301346142Y-279296128D02*
X301417571Y-279224700D01*
X301417571Y-279224700D02*
X301560428Y-279153271D01*
X301560428Y-279153271D02*
X301917571Y-279153271D01*
X301917571Y-279153271D02*
X302131857Y-279224700D01*
X302774713Y-280653271D02*
X302774713Y-279653271D01*
X302774713Y-279153271D02*
X302703285Y-279224700D01*
X302703285Y-279224700D02*
X302774713Y-279296128D01*
X302774713Y-279296128D02*
X302846142Y-279224700D01*
X302846142Y-279224700D02*
X302774713Y-279153271D01*
X302774713Y-279153271D02*
X302774713Y-279296128D01*
X303346142Y-279653271D02*
X304131857Y-279653271D01*
X304131857Y-279653271D02*
X303346142Y-280653271D01*
X303346142Y-280653271D02*
X304131857Y-280653271D01*
X305274714Y-280581842D02*
X305131857Y-280653271D01*
X305131857Y-280653271D02*
X304846143Y-280653271D01*
X304846143Y-280653271D02*
X304703285Y-280581842D01*
X304703285Y-280581842D02*
X304631857Y-280438985D01*
X304631857Y-280438985D02*
X304631857Y-279867557D01*
X304631857Y-279867557D02*
X304703285Y-279724700D01*
X304703285Y-279724700D02*
X304846143Y-279653271D01*
X304846143Y-279653271D02*
X305131857Y-279653271D01*
X305131857Y-279653271D02*
X305274714Y-279724700D01*
X305274714Y-279724700D02*
X305346143Y-279867557D01*
X305346143Y-279867557D02*
X305346143Y-280010414D01*
X305346143Y-280010414D02*
X304631857Y-280153271D01*
X305988999Y-280510414D02*
X306060428Y-280581842D01*
X306060428Y-280581842D02*
X305988999Y-280653271D01*
X305988999Y-280653271D02*
X305917571Y-280581842D01*
X305917571Y-280581842D02*
X305988999Y-280510414D01*
X305988999Y-280510414D02*
X305988999Y-280653271D01*
X305988999Y-279724700D02*
X306060428Y-279796128D01*
X306060428Y-279796128D02*
X305988999Y-279867557D01*
X305988999Y-279867557D02*
X305917571Y-279796128D01*
X305917571Y-279796128D02*
X305988999Y-279724700D01*
X305988999Y-279724700D02*
X305988999Y-279867557D01*
X307531857Y-280224700D02*
X308246143Y-280224700D01*
X307389000Y-280653271D02*
X307889000Y-279153271D01*
X307889000Y-279153271D02*
X308389000Y-280653271D01*
X308746142Y-279153271D02*
X309674714Y-279153271D01*
X309674714Y-279153271D02*
X309174714Y-279724700D01*
X309174714Y-279724700D02*
X309388999Y-279724700D01*
X309388999Y-279724700D02*
X309531857Y-279796128D01*
X309531857Y-279796128D02*
X309603285Y-279867557D01*
X309603285Y-279867557D02*
X309674714Y-280010414D01*
X309674714Y-280010414D02*
X309674714Y-280367557D01*
X309674714Y-280367557D02*
X309603285Y-280510414D01*
X309603285Y-280510414D02*
X309531857Y-280581842D01*
X309531857Y-280581842D02*
X309388999Y-280653271D01*
X309388999Y-280653271D02*
X308960428Y-280653271D01*
X308960428Y-280653271D02*
X308817571Y-280581842D01*
X308817571Y-280581842D02*
X308746142Y-280510414D01*
D10*
D11*
X386346142Y-283453271D02*
X386346142Y-281953271D01*
X387703286Y-283453271D02*
X387703286Y-281953271D01*
X387703286Y-283381842D02*
X387560428Y-283453271D01*
X387560428Y-283453271D02*
X387274714Y-283453271D01*
X387274714Y-283453271D02*
X387131857Y-283381842D01*
X387131857Y-283381842D02*
X387060428Y-283310414D01*
X387060428Y-283310414D02*
X386989000Y-283167557D01*
X386989000Y-283167557D02*
X386989000Y-282738985D01*
X386989000Y-282738985D02*
X387060428Y-282596128D01*
X387060428Y-282596128D02*
X387131857Y-282524700D01*
X387131857Y-282524700D02*
X387274714Y-282453271D01*
X387274714Y-282453271D02*
X387560428Y-282453271D01*
X387560428Y-282453271D02*
X387703286Y-282524700D01*
X388417571Y-283310414D02*
X388489000Y-283381842D01*
X388489000Y-283381842D02*
X388417571Y-283453271D01*
X388417571Y-283453271D02*
X388346143Y-283381842D01*
X388346143Y-283381842D02*
X388417571Y-283310414D01*
X388417571Y-283310414D02*
X388417571Y-283453271D01*
X388417571Y-282524700D02*
X388489000Y-282596128D01*
X388489000Y-282596128D02*
X388417571Y-282667557D01*
X388417571Y-282667557D02*
X388346143Y-282596128D01*
X388346143Y-282596128D02*
X388417571Y-282524700D01*
X388417571Y-282524700D02*
X388417571Y-282667557D01*
X390817572Y-283453271D02*
X389960429Y-283453271D01*
X390389000Y-283453271D02*
X390389000Y-281953271D01*
X390389000Y-281953271D02*
X390246143Y-282167557D01*
X390246143Y-282167557D02*
X390103286Y-282310414D01*
X390103286Y-282310414D02*
X389960429Y-282381842D01*
X392531857Y-281881842D02*
X391246143Y-283810414D01*
X393817572Y-283453271D02*
X392960429Y-283453271D01*
X393389000Y-283453271D02*
X393389000Y-281953271D01*
X393389000Y-281953271D02*
X393246143Y-282167557D01*
X393246143Y-282167557D02*
X393103286Y-282310414D01*
X393103286Y-282310414D02*
X392960429Y-282381842D01*
D10*
D11*
X299989000Y-274502200D02*
X407989000Y-274502200D01*
D10*
D13*
X301441380Y-275036961D02*
X302584238Y-275036961D01*
X301762809Y-277036961D02*
X302012809Y-275036961D01*
X303000905Y-277036961D02*
X303167571Y-275703628D01*
X303250905Y-275036961D02*
X303143762Y-275132200D01*
X303143762Y-275132200D02*
X303227095Y-275227438D01*
X303227095Y-275227438D02*
X303334238Y-275132200D01*
X303334238Y-275132200D02*
X303250905Y-275036961D01*
X303250905Y-275036961D02*
X303227095Y-275227438D01*
X303834238Y-275703628D02*
X304596143Y-275703628D01*
X304203286Y-275036961D02*
X303989000Y-276751247D01*
X303989000Y-276751247D02*
X304060429Y-276941723D01*
X304060429Y-276941723D02*
X304239000Y-277036961D01*
X304239000Y-277036961D02*
X304429476Y-277036961D01*
X305381857Y-277036961D02*
X305203286Y-276941723D01*
X305203286Y-276941723D02*
X305131857Y-276751247D01*
X305131857Y-276751247D02*
X305346143Y-275036961D01*
X306917571Y-276941723D02*
X306715190Y-277036961D01*
X306715190Y-277036961D02*
X306334238Y-277036961D01*
X306334238Y-277036961D02*
X306155667Y-276941723D01*
X306155667Y-276941723D02*
X306084238Y-276751247D01*
X306084238Y-276751247D02*
X306179476Y-275989342D01*
X306179476Y-275989342D02*
X306298524Y-275798866D01*
X306298524Y-275798866D02*
X306500905Y-275703628D01*
X306500905Y-275703628D02*
X306881857Y-275703628D01*
X306881857Y-275703628D02*
X307060428Y-275798866D01*
X307060428Y-275798866D02*
X307131857Y-275989342D01*
X307131857Y-275989342D02*
X307108047Y-276179819D01*
X307108047Y-276179819D02*
X306131857Y-276370295D01*
X307881857Y-276846485D02*
X307965191Y-276941723D01*
X307965191Y-276941723D02*
X307858048Y-277036961D01*
X307858048Y-277036961D02*
X307774714Y-276941723D01*
X307774714Y-276941723D02*
X307881857Y-276846485D01*
X307881857Y-276846485D02*
X307858048Y-277036961D01*
X308012810Y-275798866D02*
X308096143Y-275894104D01*
X308096143Y-275894104D02*
X307989000Y-275989342D01*
X307989000Y-275989342D02*
X307905667Y-275894104D01*
X307905667Y-275894104D02*
X308012810Y-275798866D01*
X308012810Y-275798866D02*
X307989000Y-275989342D01*
D10*
D11*
X301846142Y-272467557D02*
X301346142Y-272467557D01*
X301346142Y-273253271D02*
X301346142Y-271753271D01*
X301346142Y-271753271D02*
X302060428Y-271753271D01*
X302631856Y-273253271D02*
X302631856Y-272253271D01*
X302631856Y-271753271D02*
X302560428Y-271824700D01*
X302560428Y-271824700D02*
X302631856Y-271896128D01*
X302631856Y-271896128D02*
X302703285Y-271824700D01*
X302703285Y-271824700D02*
X302631856Y-271753271D01*
X302631856Y-271753271D02*
X302631856Y-271896128D01*
X303560428Y-273253271D02*
X303417571Y-273181842D01*
X303417571Y-273181842D02*
X303346142Y-273038985D01*
X303346142Y-273038985D02*
X303346142Y-271753271D01*
X304703285Y-273181842D02*
X304560428Y-273253271D01*
X304560428Y-273253271D02*
X304274714Y-273253271D01*
X304274714Y-273253271D02*
X304131856Y-273181842D01*
X304131856Y-273181842D02*
X304060428Y-273038985D01*
X304060428Y-273038985D02*
X304060428Y-272467557D01*
X304060428Y-272467557D02*
X304131856Y-272324700D01*
X304131856Y-272324700D02*
X304274714Y-272253271D01*
X304274714Y-272253271D02*
X304560428Y-272253271D01*
X304560428Y-272253271D02*
X304703285Y-272324700D01*
X304703285Y-272324700D02*
X304774714Y-272467557D01*
X304774714Y-272467557D02*
X304774714Y-272610414D01*
X304774714Y-272610414D02*
X304060428Y-272753271D01*
X305417570Y-273110414D02*
X305488999Y-273181842D01*
X305488999Y-273181842D02*
X305417570Y-273253271D01*
X305417570Y-273253271D02*
X305346142Y-273181842D01*
X305346142Y-273181842D02*
X305417570Y-273110414D01*
X305417570Y-273110414D02*
X305417570Y-273253271D01*
X305417570Y-272324700D02*
X305488999Y-272396128D01*
X305488999Y-272396128D02*
X305417570Y-272467557D01*
X305417570Y-272467557D02*
X305346142Y-272396128D01*
X305346142Y-272396128D02*
X305417570Y-272324700D01*
X305417570Y-272324700D02*
X305417570Y-272467557D01*
X308031856Y-273396128D02*
X307888999Y-273324700D01*
X307888999Y-273324700D02*
X307746142Y-273181842D01*
X307746142Y-273181842D02*
X307531856Y-272967557D01*
X307531856Y-272967557D02*
X307388999Y-272896128D01*
X307388999Y-272896128D02*
X307246142Y-272896128D01*
X307317571Y-273253271D02*
X307174714Y-273181842D01*
X307174714Y-273181842D02*
X307031856Y-273038985D01*
X307031856Y-273038985D02*
X306960428Y-272753271D01*
X306960428Y-272753271D02*
X306960428Y-272253271D01*
X306960428Y-272253271D02*
X307031856Y-271967557D01*
X307031856Y-271967557D02*
X307174714Y-271824700D01*
X307174714Y-271824700D02*
X307317571Y-271753271D01*
X307317571Y-271753271D02*
X307603285Y-271753271D01*
X307603285Y-271753271D02*
X307746142Y-271824700D01*
X307746142Y-271824700D02*
X307888999Y-271967557D01*
X307888999Y-271967557D02*
X307960428Y-272253271D01*
X307960428Y-272253271D02*
X307960428Y-272753271D01*
X307960428Y-272753271D02*
X307888999Y-273038985D01*
X307888999Y-273038985D02*
X307746142Y-273181842D01*
X307746142Y-273181842D02*
X307603285Y-273253271D01*
X307603285Y-273253271D02*
X307317571Y-273253271D01*
X309246143Y-272253271D02*
X309246143Y-273253271D01*
X308603285Y-272253271D02*
X308603285Y-273038985D01*
X308603285Y-273038985D02*
X308674714Y-273181842D01*
X308674714Y-273181842D02*
X308817571Y-273253271D01*
X308817571Y-273253271D02*
X309031857Y-273253271D01*
X309031857Y-273253271D02*
X309174714Y-273181842D01*
X309174714Y-273181842D02*
X309246143Y-273110414D01*
X310603286Y-273253271D02*
X310603286Y-272467557D01*
X310603286Y-272467557D02*
X310531857Y-272324700D01*
X310531857Y-272324700D02*
X310389000Y-272253271D01*
X310389000Y-272253271D02*
X310103286Y-272253271D01*
X310103286Y-272253271D02*
X309960428Y-272324700D01*
X310603286Y-273181842D02*
X310460428Y-273253271D01*
X310460428Y-273253271D02*
X310103286Y-273253271D01*
X310103286Y-273253271D02*
X309960428Y-273181842D01*
X309960428Y-273181842D02*
X309889000Y-273038985D01*
X309889000Y-273038985D02*
X309889000Y-272896128D01*
X309889000Y-272896128D02*
X309960428Y-272753271D01*
X309960428Y-272753271D02*
X310103286Y-272681842D01*
X310103286Y-272681842D02*
X310460428Y-272681842D01*
X310460428Y-272681842D02*
X310603286Y-272610414D01*
X311317571Y-273253271D02*
X311317571Y-272253271D01*
X311317571Y-272538985D02*
X311389000Y-272396128D01*
X311389000Y-272396128D02*
X311460429Y-272324700D01*
X311460429Y-272324700D02*
X311603286Y-272253271D01*
X311603286Y-272253271D02*
X311746143Y-272253271D01*
X312031857Y-272253271D02*
X312603285Y-272253271D01*
X312246142Y-271753271D02*
X312246142Y-273038985D01*
X312246142Y-273038985D02*
X312317571Y-273181842D01*
X312317571Y-273181842D02*
X312460428Y-273253271D01*
X312460428Y-273253271D02*
X312603285Y-273253271D01*
X312960428Y-272253271D02*
X313746143Y-272253271D01*
X313746143Y-272253271D02*
X312960428Y-273253271D01*
X312960428Y-273253271D02*
X313746143Y-273253271D01*
X313960429Y-273396128D02*
X315103286Y-273396128D01*
X315317571Y-272253271D02*
X315674714Y-273253271D01*
X315674714Y-273253271D02*
X316031857Y-272253271D01*
X317389000Y-273253271D02*
X316531857Y-273253271D01*
X316960428Y-273253271D02*
X316960428Y-271753271D01*
X316960428Y-271753271D02*
X316817571Y-271967557D01*
X316817571Y-271967557D02*
X316674714Y-272110414D01*
X316674714Y-272110414D02*
X316531857Y-272181842D01*
X318031856Y-272253271D02*
X318031856Y-273753271D01*
X318031856Y-272324700D02*
X318174714Y-272253271D01*
X318174714Y-272253271D02*
X318460428Y-272253271D01*
X318460428Y-272253271D02*
X318603285Y-272324700D01*
X318603285Y-272324700D02*
X318674714Y-272396128D01*
X318674714Y-272396128D02*
X318746142Y-272538985D01*
X318746142Y-272538985D02*
X318746142Y-272967557D01*
X318746142Y-272967557D02*
X318674714Y-273110414D01*
X318674714Y-273110414D02*
X318603285Y-273181842D01*
X318603285Y-273181842D02*
X318460428Y-273253271D01*
X318460428Y-273253271D02*
X318174714Y-273253271D01*
X318174714Y-273253271D02*
X318031856Y-273181842D01*
X320174714Y-273253271D02*
X319317571Y-273253271D01*
X319746142Y-273253271D02*
X319746142Y-271753271D01*
X319746142Y-271753271D02*
X319603285Y-271967557D01*
X319603285Y-271967557D02*
X319460428Y-272110414D01*
X319460428Y-272110414D02*
X319317571Y-272181842D01*
X320817570Y-273110414D02*
X320888999Y-273181842D01*
X320888999Y-273181842D02*
X320817570Y-273253271D01*
X320817570Y-273253271D02*
X320746142Y-273181842D01*
X320746142Y-273181842D02*
X320817570Y-273110414D01*
X320817570Y-273110414D02*
X320817570Y-273253271D01*
X321531856Y-273253271D02*
X321531856Y-271753271D01*
X321674714Y-272681842D02*
X322103285Y-273253271D01*
X322103285Y-272253271D02*
X321531856Y-272824700D01*
X322746142Y-273253271D02*
X322746142Y-272253271D01*
X322746142Y-271753271D02*
X322674714Y-271824700D01*
X322674714Y-271824700D02*
X322746142Y-271896128D01*
X322746142Y-271896128D02*
X322817571Y-271824700D01*
X322817571Y-271824700D02*
X322746142Y-271753271D01*
X322746142Y-271753271D02*
X322746142Y-271896128D01*
X324103286Y-273181842D02*
X323960428Y-273253271D01*
X323960428Y-273253271D02*
X323674714Y-273253271D01*
X323674714Y-273253271D02*
X323531857Y-273181842D01*
X323531857Y-273181842D02*
X323460428Y-273110414D01*
X323460428Y-273110414D02*
X323389000Y-272967557D01*
X323389000Y-272967557D02*
X323389000Y-272538985D01*
X323389000Y-272538985D02*
X323460428Y-272396128D01*
X323460428Y-272396128D02*
X323531857Y-272324700D01*
X323531857Y-272324700D02*
X323674714Y-272253271D01*
X323674714Y-272253271D02*
X323960428Y-272253271D01*
X323960428Y-272253271D02*
X324103286Y-272324700D01*
X325389000Y-273253271D02*
X325389000Y-272467557D01*
X325389000Y-272467557D02*
X325317571Y-272324700D01*
X325317571Y-272324700D02*
X325174714Y-272253271D01*
X325174714Y-272253271D02*
X324889000Y-272253271D01*
X324889000Y-272253271D02*
X324746142Y-272324700D01*
X325389000Y-273181842D02*
X325246142Y-273253271D01*
X325246142Y-273253271D02*
X324889000Y-273253271D01*
X324889000Y-273253271D02*
X324746142Y-273181842D01*
X324746142Y-273181842D02*
X324674714Y-273038985D01*
X324674714Y-273038985D02*
X324674714Y-272896128D01*
X324674714Y-272896128D02*
X324746142Y-272753271D01*
X324746142Y-272753271D02*
X324889000Y-272681842D01*
X324889000Y-272681842D02*
X325246142Y-272681842D01*
X325246142Y-272681842D02*
X325389000Y-272610414D01*
X326746143Y-273253271D02*
X326746143Y-271753271D01*
X326746143Y-273181842D02*
X326603285Y-273253271D01*
X326603285Y-273253271D02*
X326317571Y-273253271D01*
X326317571Y-273253271D02*
X326174714Y-273181842D01*
X326174714Y-273181842D02*
X326103285Y-273110414D01*
X326103285Y-273110414D02*
X326031857Y-272967557D01*
X326031857Y-272967557D02*
X326031857Y-272538985D01*
X326031857Y-272538985D02*
X326103285Y-272396128D01*
X326103285Y-272396128D02*
X326174714Y-272324700D01*
X326174714Y-272324700D02*
X326317571Y-272253271D01*
X326317571Y-272253271D02*
X326603285Y-272253271D01*
X326603285Y-272253271D02*
X326746143Y-272324700D01*
X327103286Y-273396128D02*
X328246143Y-273396128D01*
X328603285Y-272253271D02*
X328603285Y-273753271D01*
X328603285Y-272324700D02*
X328746143Y-272253271D01*
X328746143Y-272253271D02*
X329031857Y-272253271D01*
X329031857Y-272253271D02*
X329174714Y-272324700D01*
X329174714Y-272324700D02*
X329246143Y-272396128D01*
X329246143Y-272396128D02*
X329317571Y-272538985D01*
X329317571Y-272538985D02*
X329317571Y-272967557D01*
X329317571Y-272967557D02*
X329246143Y-273110414D01*
X329246143Y-273110414D02*
X329174714Y-273181842D01*
X329174714Y-273181842D02*
X329031857Y-273253271D01*
X329031857Y-273253271D02*
X328746143Y-273253271D01*
X328746143Y-273253271D02*
X328603285Y-273181842D01*
X330603286Y-273181842D02*
X330460428Y-273253271D01*
X330460428Y-273253271D02*
X330174714Y-273253271D01*
X330174714Y-273253271D02*
X330031857Y-273181842D01*
X330031857Y-273181842D02*
X329960428Y-273110414D01*
X329960428Y-273110414D02*
X329889000Y-272967557D01*
X329889000Y-272967557D02*
X329889000Y-272538985D01*
X329889000Y-272538985D02*
X329960428Y-272396128D01*
X329960428Y-272396128D02*
X330031857Y-272324700D01*
X330031857Y-272324700D02*
X330174714Y-272253271D01*
X330174714Y-272253271D02*
X330460428Y-272253271D01*
X330460428Y-272253271D02*
X330603286Y-272324700D01*
X331246142Y-273253271D02*
X331246142Y-271753271D01*
X331246142Y-272324700D02*
X331389000Y-272253271D01*
X331389000Y-272253271D02*
X331674714Y-272253271D01*
X331674714Y-272253271D02*
X331817571Y-272324700D01*
X331817571Y-272324700D02*
X331889000Y-272396128D01*
X331889000Y-272396128D02*
X331960428Y-272538985D01*
X331960428Y-272538985D02*
X331960428Y-272967557D01*
X331960428Y-272967557D02*
X331889000Y-273110414D01*
X331889000Y-273110414D02*
X331817571Y-273181842D01*
X331817571Y-273181842D02*
X331674714Y-273253271D01*
X331674714Y-273253271D02*
X331389000Y-273253271D01*
X331389000Y-273253271D02*
X331246142Y-273181842D01*
D10*
D11*
X299989000Y-268502200D02*
X407989000Y-268502200D01*
D10*
D11*
X301274714Y-270481842D02*
X301489000Y-270553271D01*
X301489000Y-270553271D02*
X301846142Y-270553271D01*
X301846142Y-270553271D02*
X301989000Y-270481842D01*
X301989000Y-270481842D02*
X302060428Y-270410414D01*
X302060428Y-270410414D02*
X302131857Y-270267557D01*
X302131857Y-270267557D02*
X302131857Y-270124700D01*
X302131857Y-270124700D02*
X302060428Y-269981842D01*
X302060428Y-269981842D02*
X301989000Y-269910414D01*
X301989000Y-269910414D02*
X301846142Y-269838985D01*
X301846142Y-269838985D02*
X301560428Y-269767557D01*
X301560428Y-269767557D02*
X301417571Y-269696128D01*
X301417571Y-269696128D02*
X301346142Y-269624700D01*
X301346142Y-269624700D02*
X301274714Y-269481842D01*
X301274714Y-269481842D02*
X301274714Y-269338985D01*
X301274714Y-269338985D02*
X301346142Y-269196128D01*
X301346142Y-269196128D02*
X301417571Y-269124700D01*
X301417571Y-269124700D02*
X301560428Y-269053271D01*
X301560428Y-269053271D02*
X301917571Y-269053271D01*
X301917571Y-269053271D02*
X302131857Y-269124700D01*
X302774713Y-270553271D02*
X302774713Y-269053271D01*
X303417571Y-270553271D02*
X303417571Y-269767557D01*
X303417571Y-269767557D02*
X303346142Y-269624700D01*
X303346142Y-269624700D02*
X303203285Y-269553271D01*
X303203285Y-269553271D02*
X302988999Y-269553271D01*
X302988999Y-269553271D02*
X302846142Y-269624700D01*
X302846142Y-269624700D02*
X302774713Y-269696128D01*
X304703285Y-270481842D02*
X304560428Y-270553271D01*
X304560428Y-270553271D02*
X304274714Y-270553271D01*
X304274714Y-270553271D02*
X304131856Y-270481842D01*
X304131856Y-270481842D02*
X304060428Y-270338985D01*
X304060428Y-270338985D02*
X304060428Y-269767557D01*
X304060428Y-269767557D02*
X304131856Y-269624700D01*
X304131856Y-269624700D02*
X304274714Y-269553271D01*
X304274714Y-269553271D02*
X304560428Y-269553271D01*
X304560428Y-269553271D02*
X304703285Y-269624700D01*
X304703285Y-269624700D02*
X304774714Y-269767557D01*
X304774714Y-269767557D02*
X304774714Y-269910414D01*
X304774714Y-269910414D02*
X304060428Y-270053271D01*
X305988999Y-270481842D02*
X305846142Y-270553271D01*
X305846142Y-270553271D02*
X305560428Y-270553271D01*
X305560428Y-270553271D02*
X305417570Y-270481842D01*
X305417570Y-270481842D02*
X305346142Y-270338985D01*
X305346142Y-270338985D02*
X305346142Y-269767557D01*
X305346142Y-269767557D02*
X305417570Y-269624700D01*
X305417570Y-269624700D02*
X305560428Y-269553271D01*
X305560428Y-269553271D02*
X305846142Y-269553271D01*
X305846142Y-269553271D02*
X305988999Y-269624700D01*
X305988999Y-269624700D02*
X306060428Y-269767557D01*
X306060428Y-269767557D02*
X306060428Y-269910414D01*
X306060428Y-269910414D02*
X305346142Y-270053271D01*
X306488999Y-269553271D02*
X307060427Y-269553271D01*
X306703284Y-269053271D02*
X306703284Y-270338985D01*
X306703284Y-270338985D02*
X306774713Y-270481842D01*
X306774713Y-270481842D02*
X306917570Y-270553271D01*
X306917570Y-270553271D02*
X307060427Y-270553271D01*
X307560427Y-270410414D02*
X307631856Y-270481842D01*
X307631856Y-270481842D02*
X307560427Y-270553271D01*
X307560427Y-270553271D02*
X307488999Y-270481842D01*
X307488999Y-270481842D02*
X307560427Y-270410414D01*
X307560427Y-270410414D02*
X307560427Y-270553271D01*
X307560427Y-269624700D02*
X307631856Y-269696128D01*
X307631856Y-269696128D02*
X307560427Y-269767557D01*
X307560427Y-269767557D02*
X307488999Y-269696128D01*
X307488999Y-269696128D02*
X307560427Y-269624700D01*
X307560427Y-269624700D02*
X307560427Y-269767557D01*
D10*
D12*
D10*
D11*
D10*
D11*
D10*
D11*
D10*
D11*
D10*
D11*
X319989000Y-278502200D02*
X319989000Y-281502200D01*
D10*
D11*
X383989000Y-278502200D02*
X383989000Y-285002200D01*
%TO.C,Q3*%
G36*
X110844900Y-135365501D02*
G01*
X108533500Y-135365501D01*
X108533500Y-133562101D01*
X110844900Y-133562101D01*
X110844900Y-135365501D01*
G37*
%TD*%
D14*
%TO.C,H4*%
X144324000Y-103488000D03*
%TD*%
D15*
%TO.C,P1*%
X148629000Y-104538000D03*
X203010000Y-101488000D03*
%TD*%
D14*
%TO.C,H5*%
X207324000Y-103488000D03*
%TD*%
D16*
%TO.C,U33*%
X136068000Y-123255000D03*
X135318000Y-123255000D03*
X134568000Y-123255000D03*
%TD*%
D14*
%TO.C,H7*%
X277324000Y-103188000D03*
%TD*%
%TO.C,H6*%
X214324000Y-103488000D03*
%TD*%
D15*
%TO.C,P2*%
X218629000Y-104538000D03*
X273010000Y-101488000D03*
%TD*%
D17*
%TO.C,C803*%
X141082000Y-189103000D03*
X140122000Y-189103000D03*
%TD*%
D18*
%TO.C,R96*%
X105823376Y-125333625D03*
X106544624Y-124612377D03*
%TD*%
D19*
%TO.C,R806*%
X141857000Y-181034000D03*
X142877000Y-181034000D03*
%TD*%
D20*
%TO.C,C3207*%
X335054000Y-183388000D03*
X336014000Y-183388000D03*
%TD*%
D21*
%TO.C,C513*%
X150580411Y-154346589D03*
X149901589Y-155025411D03*
%TD*%
D22*
%TO.C,R2409*%
X246686800Y-143538000D03*
X245666800Y-143538000D03*
%TD*%
%TO.C,R1401*%
X174450000Y-189103000D03*
X173430000Y-189103000D03*
%TD*%
D23*
%TO.C,L503*%
X99822000Y-186413000D03*
X99822000Y-185443000D03*
%TD*%
D24*
%TO.C,C506*%
X93472000Y-183360000D03*
X93472000Y-182400000D03*
%TD*%
%TO.C,C808*%
X146558000Y-181201000D03*
X146558000Y-180241000D03*
%TD*%
%TO.C,C706*%
X124968000Y-183360000D03*
X124968000Y-182400000D03*
%TD*%
%TO.C,C608*%
X115062000Y-181201000D03*
X115062000Y-180241000D03*
%TD*%
D22*
%TO.C,R3109*%
X288469800Y-146459000D03*
X287449800Y-146459000D03*
%TD*%
D25*
%TO.C,C913*%
X176235866Y-144680293D03*
X176235866Y-145640293D03*
%TD*%
D17*
%TO.C,C603*%
X109586000Y-189103000D03*
X108626000Y-189103000D03*
%TD*%
D26*
%TO.C,R608*%
X157434810Y-154036382D03*
X156713562Y-153315134D03*
%TD*%
D18*
%TO.C,R209*%
X132989375Y-149454885D03*
X133710623Y-148733637D03*
%TD*%
D23*
%TO.C,L3001*%
X297180000Y-183365000D03*
X297180000Y-182395000D03*
%TD*%
D27*
%TO.C,C2201*%
X234315000Y-207785000D03*
X234315000Y-206235000D03*
%TD*%
D22*
%TO.C,R3007*%
X302389000Y-181034000D03*
X301369000Y-181034000D03*
%TD*%
D24*
%TO.C,C12*%
X152037000Y-141958000D03*
X152037000Y-140998000D03*
%TD*%
D28*
%TO.C,U36*%
X322298000Y-135166500D03*
X323248000Y-135166500D03*
X324198000Y-135166500D03*
X324198000Y-137441500D03*
X322298000Y-137441500D03*
%TD*%
D25*
%TO.C,C1613*%
X199644000Y-143030000D03*
X199644000Y-143990000D03*
%TD*%
D19*
%TO.C,R802*%
X144016000Y-189103000D03*
X145036000Y-189103000D03*
%TD*%
D24*
%TO.C,C185*%
X280670000Y-136878000D03*
X280670000Y-135918000D03*
%TD*%
D29*
%TO.C,C1911*%
X223185277Y-150833704D03*
X222506455Y-150154882D03*
%TD*%
D24*
%TO.C,C1306*%
X156464000Y-183360000D03*
X156464000Y-182400000D03*
%TD*%
%TO.C,C1506*%
X187960000Y-183360000D03*
X187960000Y-182400000D03*
%TD*%
D30*
%TO.C,J5*%
X307340000Y-119380000D03*
D31*
X309880000Y-121920000D03*
X309880000Y-116840000D03*
X304800000Y-121920000D03*
X304800000Y-116840000D03*
%TD*%
D23*
%TO.C,L2101*%
X218440000Y-183365000D03*
X218440000Y-182395000D03*
%TD*%
D17*
%TO.C,C1609*%
X210030000Y-184404000D03*
X209070000Y-184404000D03*
%TD*%
D32*
%TO.C,K3001*%
X302222000Y-191135000D03*
X302222000Y-196215000D03*
X302222000Y-198755000D03*
X302222000Y-201295000D03*
X302222000Y-203835000D03*
X294932000Y-203835000D03*
X294932000Y-201295000D03*
X294932000Y-198755000D03*
X294932000Y-196215000D03*
X294932000Y-191135000D03*
%TD*%
D33*
%TO.C,L7*%
X120531049Y-121426000D03*
X114130249Y-121426000D03*
%TD*%
D19*
%TO.C,R505*%
X95629000Y-186368000D03*
X96649000Y-186368000D03*
%TD*%
D23*
%TO.C,L603*%
X115570000Y-186413000D03*
X115570000Y-185443000D03*
%TD*%
D17*
%TO.C,C3009*%
X304518000Y-184404000D03*
X303558000Y-184404000D03*
%TD*%
D29*
%TO.C,C2712*%
X267929118Y-152016545D03*
X267250296Y-151337723D03*
%TD*%
D27*
%TO.C,C2302*%
X252984000Y-207785000D03*
X252984000Y-206235000D03*
%TD*%
D34*
%TO.C,R13*%
X189484000Y-154053000D03*
X189484000Y-153033000D03*
%TD*%
D35*
%TO.C,R1303*%
X155652000Y-187833000D03*
X157302000Y-187833000D03*
%TD*%
D36*
%TO.C,R45*%
X162293000Y-101473000D03*
X163843000Y-101473000D03*
%TD*%
D37*
%TO.C,R2204*%
X241363000Y-187833000D03*
X239713000Y-187833000D03*
%TD*%
D38*
%TO.C,U15*%
X228697000Y-162483500D03*
X229347000Y-162483500D03*
X229997000Y-162483500D03*
X230647000Y-162483500D03*
X231297000Y-162483500D03*
D39*
X232359500Y-163546000D03*
X232359500Y-164196000D03*
X232359500Y-164846000D03*
X232359500Y-165496000D03*
X232359500Y-166146000D03*
D38*
X231297000Y-167208500D03*
X230647000Y-167208500D03*
X229997000Y-167208500D03*
X229347000Y-167208500D03*
X228697000Y-167208500D03*
D39*
X227634500Y-166146000D03*
X227634500Y-165496000D03*
X227634500Y-164846000D03*
X227634500Y-164196000D03*
X227634500Y-163546000D03*
D40*
X229996999Y-164845999D03*
%TD*%
D27*
%TO.C,C1301*%
X155575000Y-207785000D03*
X155575000Y-206235000D03*
%TD*%
D41*
%TO.C,C512*%
X149917711Y-156517972D03*
X150596533Y-155839150D03*
%TD*%
D32*
%TO.C,K701*%
X128994000Y-191135000D03*
X128994000Y-196215000D03*
X128994000Y-198755000D03*
X128994000Y-201295000D03*
X128994000Y-203835000D03*
X121704000Y-203835000D03*
X121704000Y-201295000D03*
X121704000Y-198755000D03*
X121704000Y-196215000D03*
X121704000Y-191135000D03*
%TD*%
D22*
%TO.C,R3209*%
X292025800Y-143792000D03*
X291005800Y-143792000D03*
%TD*%
D42*
%TO.C,U27*%
X175960000Y-124079000D03*
X175960000Y-122809000D03*
X175960000Y-121539000D03*
X175960000Y-120269000D03*
X180910000Y-120269000D03*
X180910000Y-121539000D03*
X180910000Y-122809000D03*
X180910000Y-124079000D03*
%TD*%
D43*
%TO.C,L2202*%
X241531000Y-182372000D03*
X240561000Y-182372000D03*
%TD*%
D17*
%TO.C,C2103*%
X219822000Y-189103000D03*
X218862000Y-189103000D03*
%TD*%
D24*
%TO.C,C159*%
X108966001Y-117701001D03*
X108966001Y-116741001D03*
%TD*%
D27*
%TO.C,C501*%
X92583000Y-207785000D03*
X92583000Y-206235000D03*
%TD*%
D25*
%TO.C,C3214*%
X335026000Y-185448000D03*
X335026000Y-186408000D03*
%TD*%
D44*
%TO.C,TP4*%
X318389000Y-115951000D03*
%TD*%
D45*
%TO.C,R70*%
X222504000Y-217932000D03*
X224329000Y-217932000D03*
%TD*%
D20*
%TO.C,C1605*%
X205908000Y-188087000D03*
X206868000Y-188087000D03*
%TD*%
D45*
%TO.C,R38*%
X111252000Y-214884000D03*
X113077000Y-214884000D03*
%TD*%
D19*
%TO.C,R49*%
X173099000Y-122809000D03*
X174119000Y-122809000D03*
%TD*%
D24*
%TO.C,C2408*%
X272542000Y-181201000D03*
X272542000Y-180241000D03*
%TD*%
D46*
%TO.C,U35*%
X111461999Y-123312000D03*
X110961999Y-123312000D03*
X110461999Y-123312000D03*
X109961999Y-123312000D03*
X109461999Y-123312000D03*
X108961999Y-123312000D03*
X108461999Y-123312000D03*
X107961999Y-123312000D03*
X107461999Y-123312000D03*
X106961999Y-123312000D03*
X106461999Y-123312000D03*
X105961999Y-123312000D03*
X105961999Y-119512000D03*
X106461999Y-119512000D03*
X106961999Y-119512000D03*
X107461999Y-119512000D03*
X107961999Y-119512000D03*
X108461999Y-119512000D03*
X108961999Y-119512000D03*
X109461999Y-119512000D03*
X109961999Y-119512000D03*
X110461999Y-119512000D03*
X110961999Y-119512000D03*
X111461999Y-119512000D03*
D47*
X108711999Y-121412000D03*
%TD*%
D19*
%TO.C,R44*%
X173099000Y-124079000D03*
X174119000Y-124079000D03*
%TD*%
D23*
%TO.C,L2203*%
X241554000Y-186413000D03*
X241554000Y-185443000D03*
%TD*%
D18*
%TO.C,R1009*%
X176384241Y-149581178D03*
X177105489Y-148859930D03*
%TD*%
D25*
%TO.C,C714*%
X130302000Y-185448000D03*
X130302000Y-186408000D03*
%TD*%
D22*
%TO.C,R807*%
X144909000Y-181034000D03*
X143889000Y-181034000D03*
%TD*%
D23*
%TO.C,L2301*%
X249936000Y-183365000D03*
X249936000Y-182395000D03*
%TD*%
D17*
%TO.C,C609*%
X115542000Y-184404000D03*
X114582000Y-184404000D03*
%TD*%
D29*
%TO.C,C2011*%
X226526412Y-154902150D03*
X225847590Y-154223328D03*
%TD*%
D19*
%TO.C,R1306*%
X157605000Y-181034000D03*
X158625000Y-181034000D03*
%TD*%
%TO.C,R2106*%
X220597000Y-181034000D03*
X221617000Y-181034000D03*
%TD*%
D18*
%TO.C,R409*%
X136886534Y-158090885D03*
X137607782Y-157369637D03*
%TD*%
D22*
%TO.C,R2207*%
X239397000Y-181034000D03*
X238377000Y-181034000D03*
%TD*%
D24*
%TO.C,C1308*%
X162306000Y-181201000D03*
X162306000Y-180241000D03*
%TD*%
%TO.C,C137*%
X288290000Y-126083000D03*
X288290000Y-125123000D03*
%TD*%
D25*
%TO.C,C713*%
X154305000Y-145316000D03*
X154305000Y-146276000D03*
%TD*%
D27*
%TO.C,C702*%
X127000000Y-207785000D03*
X127000000Y-206235000D03*
%TD*%
D23*
%TO.C,L1401*%
X171196000Y-183365000D03*
X171196000Y-182395000D03*
%TD*%
D19*
%TO.C,R2509*%
X261237999Y-145541999D03*
X262257999Y-145541999D03*
%TD*%
D45*
%TO.C,R50*%
X111252000Y-218186000D03*
X113077000Y-218186000D03*
%TD*%
D41*
%TO.C,C611*%
X155926552Y-152668131D03*
X156605374Y-151989309D03*
%TD*%
D37*
%TO.C,R3204*%
X335851000Y-187833000D03*
X334201000Y-187833000D03*
%TD*%
D18*
%TO.C,R308*%
X133501115Y-152252624D03*
X134222363Y-151531376D03*
%TD*%
D32*
%TO.C,K501*%
X97498000Y-191135000D03*
X97498000Y-196215000D03*
X97498000Y-198755000D03*
X97498000Y-201295000D03*
X97498000Y-203835000D03*
X90208000Y-203835000D03*
X90208000Y-201295000D03*
X90208000Y-198755000D03*
X90208000Y-196215000D03*
X90208000Y-191135000D03*
%TD*%
D24*
%TO.C,C70*%
X283863000Y-141958000D03*
X283863000Y-140998000D03*
%TD*%
D23*
%TO.C,L1501*%
X186944000Y-183365000D03*
X186944000Y-182395000D03*
%TD*%
D27*
%TO.C,C601*%
X108331000Y-207785000D03*
X108331000Y-206235000D03*
%TD*%
D20*
%TO.C,C2307*%
X256314000Y-183388000D03*
X257274000Y-183388000D03*
%TD*%
D35*
%TO.C,R703*%
X124156000Y-187833000D03*
X125806000Y-187833000D03*
%TD*%
D29*
%TO.C,C2611*%
X265095277Y-147277704D03*
X264416455Y-146598882D03*
%TD*%
D24*
%TO.C,C68*%
X225044000Y-147546000D03*
X225044000Y-146586000D03*
%TD*%
D23*
%TO.C,L701*%
X123952000Y-183365000D03*
X123952000Y-182395000D03*
%TD*%
D22*
%TO.C,R1501*%
X190198000Y-189103000D03*
X189178000Y-189103000D03*
%TD*%
D32*
%TO.C,K2901*%
X286474000Y-191135000D03*
X286474000Y-196215000D03*
X286474000Y-198755000D03*
X286474000Y-201295000D03*
X286474000Y-203835000D03*
X279184000Y-203835000D03*
X279184000Y-201295000D03*
X279184000Y-198755000D03*
X279184000Y-196215000D03*
X279184000Y-191135000D03*
%TD*%
D19*
%TO.C,R3205*%
X331849000Y-186368000D03*
X332869000Y-186368000D03*
%TD*%
D17*
%TO.C,C2404*%
X272894999Y-189103000D03*
X271934999Y-189103000D03*
%TD*%
D41*
%TO.C,C2111*%
X239238552Y-154065131D03*
X239917374Y-153386309D03*
%TD*%
D17*
%TO.C,C709*%
X131290000Y-184404000D03*
X130330000Y-184404000D03*
%TD*%
D19*
%TO.C,R2902*%
X285748000Y-189103000D03*
X286768000Y-189103000D03*
%TD*%
D48*
%TO.C,R36*%
X328930000Y-135572000D03*
X328930000Y-133922000D03*
%TD*%
D24*
%TO.C,C3111*%
X286435800Y-145288000D03*
X286435800Y-144328000D03*
%TD*%
D27*
%TO.C,C602*%
X111252000Y-207785000D03*
X111252000Y-206235000D03*
%TD*%
D24*
%TO.C,C112*%
X131844750Y-146321750D03*
X131844750Y-145361750D03*
%TD*%
D49*
%TO.C,U10*%
X270931000Y-149038000D03*
X270931000Y-148538000D03*
X270931000Y-148038000D03*
X270931000Y-147538000D03*
X270931000Y-147038000D03*
X270931000Y-146538000D03*
X270931000Y-146038000D03*
X270931000Y-145538000D03*
X270931000Y-145038000D03*
X270931000Y-144538000D03*
X270931000Y-144038000D03*
X270931000Y-143538000D03*
X270931000Y-143038000D03*
X270931000Y-142538000D03*
X270931000Y-142038000D03*
X270931000Y-141538000D03*
D50*
X272856000Y-139613000D03*
X273356000Y-139613000D03*
X273856000Y-139613000D03*
X274356000Y-139613000D03*
X274856000Y-139613000D03*
X275356000Y-139613000D03*
X275856000Y-139613000D03*
X276356000Y-139613000D03*
X276856000Y-139613000D03*
X277356000Y-139613000D03*
X277856000Y-139613000D03*
X278356000Y-139613000D03*
X278856000Y-139613000D03*
X279356000Y-139613000D03*
X279856000Y-139613000D03*
X280356000Y-139613000D03*
D49*
X282281000Y-141538000D03*
X282281000Y-142038000D03*
X282281000Y-142538000D03*
X282281000Y-143038000D03*
X282281000Y-143538000D03*
X282281000Y-144038000D03*
X282281000Y-144538000D03*
X282281000Y-145038000D03*
X282281000Y-145538000D03*
X282281000Y-146038000D03*
X282281000Y-146538000D03*
X282281000Y-147038000D03*
X282281000Y-147538000D03*
X282281000Y-148038000D03*
X282281000Y-148538000D03*
X282281000Y-149038000D03*
D50*
X280356000Y-150963000D03*
X279856000Y-150963000D03*
X279356000Y-150963000D03*
X278856000Y-150963000D03*
X278356000Y-150963000D03*
X277856000Y-150963000D03*
X277356000Y-150963000D03*
X276856000Y-150963000D03*
X276356000Y-150963000D03*
X275856000Y-150963000D03*
X275356000Y-150963000D03*
X274856000Y-150963000D03*
X274356000Y-150963000D03*
X273856000Y-150963000D03*
X273356000Y-150963000D03*
X272856000Y-150963000D03*
%TD*%
D24*
%TO.C,C2308*%
X256794000Y-181201000D03*
X256794000Y-180241000D03*
%TD*%
D51*
%TO.C,C1813*%
X222456723Y-146727296D03*
X223135545Y-147406118D03*
%TD*%
D41*
%TO.C,C2911*%
X282672552Y-153303131D03*
X283351374Y-152624309D03*
%TD*%
D17*
%TO.C,C809*%
X147038000Y-184404000D03*
X146078000Y-184404000D03*
%TD*%
D24*
%TO.C,C2110*%
X219468000Y-185265000D03*
X219468000Y-184305000D03*
%TD*%
D27*
%TO.C,C1601*%
X202819000Y-207785000D03*
X202819000Y-206235000D03*
%TD*%
D22*
%TO.C,R809*%
X158752000Y-143129000D03*
X157732000Y-143129000D03*
%TD*%
D23*
%TO.C,L601*%
X108204000Y-183365000D03*
X108204000Y-182395000D03*
%TD*%
D19*
%TO.C,R3002*%
X301496000Y-189103000D03*
X302516000Y-189103000D03*
%TD*%
D20*
%TO.C,C3107*%
X319306000Y-183388000D03*
X320266000Y-183388000D03*
%TD*%
D22*
%TO.C,R601*%
X111458000Y-189103000D03*
X110438000Y-189103000D03*
%TD*%
D18*
%TO.C,R208*%
X132270956Y-148736465D03*
X132992204Y-148015217D03*
%TD*%
D48*
%TO.C,R95*%
X324264000Y-140812000D03*
X324264000Y-139162000D03*
%TD*%
D23*
%TO.C,L2303*%
X257302000Y-186413000D03*
X257302000Y-185443000D03*
%TD*%
D19*
%TO.C,R108*%
X129810750Y-144272000D03*
X130830750Y-144272000D03*
%TD*%
D34*
%TO.C,R25*%
X277368000Y-154053000D03*
X277368000Y-153033000D03*
%TD*%
D23*
%TO.C,L2401*%
X265683999Y-183365000D03*
X265683999Y-182395000D03*
%TD*%
D32*
%TO.C,K1501*%
X191986000Y-191135000D03*
X191986000Y-196215000D03*
X191986000Y-198755000D03*
X191986000Y-201295000D03*
X191986000Y-203835000D03*
X184696000Y-203835000D03*
X184696000Y-201295000D03*
X184696000Y-198755000D03*
X184696000Y-196215000D03*
X184696000Y-191135000D03*
%TD*%
D37*
%TO.C,R2104*%
X225615000Y-187833000D03*
X223965000Y-187833000D03*
%TD*%
D17*
%TO.C,C2204*%
X241399000Y-189103000D03*
X240439000Y-189103000D03*
%TD*%
D29*
%TO.C,C312*%
X136356411Y-152231411D03*
X135677589Y-151552589D03*
%TD*%
D52*
%TO.C,R66*%
X308506500Y-215392000D03*
X306681500Y-215392000D03*
%TD*%
D34*
%TO.C,R24*%
X275328000Y-153572000D03*
X275328000Y-152552000D03*
%TD*%
D41*
%TO.C,C2112*%
X237801711Y-155501972D03*
X238480533Y-154823150D03*
%TD*%
D25*
%TO.C,C1514*%
X193294000Y-185448000D03*
X193294000Y-186408000D03*
%TD*%
D19*
%TO.C,R27*%
X279670000Y-137922000D03*
X280690000Y-137922000D03*
%TD*%
%TO.C,R43*%
X289685000Y-120904000D03*
X290705000Y-120904000D03*
%TD*%
D43*
%TO.C,L3202*%
X336019000Y-182372000D03*
X335049000Y-182372000D03*
%TD*%
D24*
%TO.C,C3206*%
X329692000Y-183360000D03*
X329692000Y-182400000D03*
%TD*%
D53*
%TO.C,C131*%
X183007000Y-124193000D03*
X183007000Y-125743000D03*
%TD*%
D20*
%TO.C,C3105*%
X316144000Y-188087000D03*
X317104000Y-188087000D03*
%TD*%
D25*
%TO.C,C1414*%
X177546000Y-185448000D03*
X177546000Y-186408000D03*
%TD*%
D24*
%TO.C,C2106*%
X219456000Y-183360000D03*
X219456000Y-182400000D03*
%TD*%
D17*
%TO.C,C3004*%
X304391000Y-189103000D03*
X303431000Y-189103000D03*
%TD*%
D28*
%TO.C,U37*%
X300167000Y-119385500D03*
X301117000Y-119385500D03*
X302067000Y-119385500D03*
X302067000Y-121660500D03*
X301117000Y-121660500D03*
X300167000Y-121660500D03*
%TD*%
D17*
%TO.C,C2904*%
X288643000Y-189103000D03*
X287683000Y-189103000D03*
%TD*%
D25*
%TO.C,C1314*%
X161798000Y-185448000D03*
X161798000Y-186408000D03*
%TD*%
D27*
%TO.C,C1501*%
X187071000Y-207785000D03*
X187071000Y-206235000D03*
%TD*%
D43*
%TO.C,L2102*%
X225783000Y-182372000D03*
X224813000Y-182372000D03*
%TD*%
D24*
%TO.C,C181*%
X279654000Y-136878000D03*
X279654000Y-135918000D03*
%TD*%
D23*
%TO.C,L2903*%
X288798000Y-186413000D03*
X288798000Y-185443000D03*
%TD*%
D24*
%TO.C,C606*%
X109220000Y-183360000D03*
X109220000Y-182400000D03*
%TD*%
%TO.C,C3210*%
X329704000Y-185265000D03*
X329704000Y-184305000D03*
%TD*%
D54*
%TO.C,D1*%
X332714500Y-134620000D03*
X334289500Y-134620000D03*
%TD*%
D24*
%TO.C,C2411*%
X244652800Y-142367000D03*
X244652800Y-141407000D03*
%TD*%
%TO.C,C811*%
X156718000Y-141958000D03*
X156718000Y-140998000D03*
%TD*%
D25*
%TO.C,C1513*%
X198374000Y-146078000D03*
X198374000Y-147038000D03*
%TD*%
D51*
%TO.C,C213*%
X134446723Y-146600296D03*
X135125545Y-147279118D03*
%TD*%
D37*
%TO.C,R3004*%
X304355000Y-187833000D03*
X302705000Y-187833000D03*
%TD*%
D55*
%TO.C,C157*%
X106315501Y-144289007D03*
X108215501Y-144289007D03*
%TD*%
D26*
%TO.C,R3008*%
X287680847Y-153091662D03*
X286959599Y-152370414D03*
%TD*%
D56*
%TO.C,H3*%
X210820000Y-216662000D03*
%TD*%
D19*
%TO.C,R1709*%
X217802999Y-145541999D03*
X218822999Y-145541999D03*
%TD*%
D22*
%TO.C,R2301*%
X253190000Y-189103000D03*
X252170000Y-189103000D03*
%TD*%
D57*
%TO.C,U2401*%
X270116999Y-185163500D03*
X269616999Y-185163500D03*
X269116999Y-185163500D03*
X268616999Y-185163500D03*
D58*
X267904499Y-184451000D03*
X267904499Y-183951000D03*
X267904499Y-183451000D03*
X267904499Y-182951000D03*
D57*
X268616999Y-182238500D03*
X269116999Y-182238500D03*
X269616999Y-182238500D03*
X270116999Y-182238500D03*
D58*
X270829499Y-182951000D03*
X270829499Y-183451000D03*
X270829499Y-183951000D03*
X270829499Y-184451000D03*
D59*
X269366998Y-183700999D03*
%TD*%
D19*
%TO.C,R1605*%
X205865000Y-186368000D03*
X206885000Y-186368000D03*
%TD*%
D23*
%TO.C,L1603*%
X210058000Y-186413000D03*
X210058000Y-185443000D03*
%TD*%
D24*
%TO.C,C52*%
X239921000Y-141958000D03*
X239921000Y-140998000D03*
%TD*%
%TO.C,C1711*%
X219837000Y-144498000D03*
X219837000Y-143538000D03*
%TD*%
D17*
%TO.C,C2209*%
X241526000Y-184404000D03*
X240566000Y-184404000D03*
%TD*%
D19*
%TO.C,R3105*%
X316101000Y-186368000D03*
X317121000Y-186368000D03*
%TD*%
D24*
%TO.C,C812*%
X156718000Y-143990000D03*
X156718000Y-143030000D03*
%TD*%
D60*
%TO.C,J4*%
X332993999Y-119887999D03*
X332993999Y-115987999D03*
X331723999Y-119887999D03*
X331723999Y-115987999D03*
X330453999Y-119887999D03*
X330453999Y-115987999D03*
X329183999Y-119887999D03*
X329183999Y-115987999D03*
X327913999Y-119887999D03*
X327913999Y-115987999D03*
X326643999Y-119887999D03*
X326643999Y-115987999D03*
X325373999Y-119887999D03*
X325373999Y-115987999D03*
X324103999Y-119887999D03*
X324103999Y-115987999D03*
X322833999Y-119887999D03*
X322833999Y-115987999D03*
X321563999Y-119887999D03*
X321563999Y-115987999D03*
%TD*%
D17*
%TO.C,C1603*%
X204074000Y-189103000D03*
X203114000Y-189103000D03*
%TD*%
D51*
%TO.C,C1213*%
X183556589Y-154346589D03*
X184235411Y-155025411D03*
%TD*%
D25*
%TO.C,C1713*%
X220852000Y-144554000D03*
X220852000Y-145514000D03*
%TD*%
D29*
%TO.C,C311*%
X134919570Y-150794570D03*
X134240748Y-150115748D03*
%TD*%
D18*
%TO.C,R2708*%
X265073822Y-152037758D03*
X265795070Y-151316510D03*
%TD*%
D20*
%TO.C,C807*%
X146078000Y-183388000D03*
X147038000Y-183388000D03*
%TD*%
D17*
%TO.C,C504*%
X99667000Y-189103000D03*
X98707000Y-189103000D03*
%TD*%
D61*
%TO.C,R79*%
X126541400Y-117668400D03*
X126541400Y-119318400D03*
%TD*%
D25*
%TO.C,C3113*%
X285369000Y-145316000D03*
X285369000Y-146276000D03*
%TD*%
D62*
%TO.C,D7*%
X117359999Y-130665000D03*
D63*
X116439999Y-126683000D03*
X118279999Y-126683000D03*
%TD*%
D25*
%TO.C,C1614*%
X209042000Y-185448000D03*
X209042000Y-186408000D03*
%TD*%
D24*
%TO.C,C33*%
X195979000Y-141958000D03*
X195979000Y-140998000D03*
%TD*%
D35*
%TO.C,R2103*%
X218644000Y-187833000D03*
X220294000Y-187833000D03*
%TD*%
D24*
%TO.C,C3008*%
X304038000Y-181201000D03*
X304038000Y-180241000D03*
%TD*%
D25*
%TO.C,C614*%
X114554000Y-185448000D03*
X114554000Y-186408000D03*
%TD*%
D19*
%TO.C,R2305*%
X253109000Y-186368000D03*
X254129000Y-186368000D03*
%TD*%
D24*
%TO.C,C3112*%
X286435800Y-147320000D03*
X286435800Y-146360000D03*
%TD*%
%TO.C,C912*%
X175220866Y-146656293D03*
X175220866Y-145696293D03*
%TD*%
D27*
%TO.C,C3002*%
X300228000Y-207785000D03*
X300228000Y-206235000D03*
%TD*%
D19*
%TO.C,R2306*%
X252093000Y-181034000D03*
X253113000Y-181034000D03*
%TD*%
D48*
%TO.C,R94*%
X322740000Y-140812000D03*
X322740000Y-139162000D03*
%TD*%
D37*
%TO.C,R1604*%
X209867000Y-187833000D03*
X208217000Y-187833000D03*
%TD*%
D22*
%TO.C,R2307*%
X255145000Y-181034000D03*
X254125000Y-181034000D03*
%TD*%
D24*
%TO.C,C1408*%
X178054000Y-181201000D03*
X178054000Y-180241000D03*
%TD*%
D19*
%TO.C,R2402*%
X269999999Y-189103000D03*
X271019999Y-189103000D03*
%TD*%
D57*
%TO.C,U2201*%
X238621000Y-185163500D03*
X238121000Y-185163500D03*
X237621000Y-185163500D03*
X237121000Y-185163500D03*
D58*
X236408500Y-184451000D03*
X236408500Y-183951000D03*
X236408500Y-183451000D03*
X236408500Y-182951000D03*
D57*
X237121000Y-182238500D03*
X237621000Y-182238500D03*
X238121000Y-182238500D03*
X238621000Y-182238500D03*
D58*
X239333500Y-182951000D03*
X239333500Y-183451000D03*
X239333500Y-183951000D03*
X239333500Y-184451000D03*
D59*
X237870999Y-183700999D03*
%TD*%
D61*
%TO.C,R82*%
X108597001Y-126302001D03*
X108597001Y-127952001D03*
%TD*%
D35*
%TO.C,R3103*%
X313132000Y-187833000D03*
X314782000Y-187833000D03*
%TD*%
D29*
%TO.C,C1812*%
X223136252Y-148842252D03*
X222457430Y-148163430D03*
%TD*%
D20*
%TO.C,C1405*%
X174412000Y-188087000D03*
X175372000Y-188087000D03*
%TD*%
D49*
%TO.C,U7*%
X226989000Y-149038000D03*
X226989000Y-148538000D03*
X226989000Y-148038000D03*
X226989000Y-147538000D03*
X226989000Y-147038000D03*
X226989000Y-146538000D03*
X226989000Y-146038000D03*
X226989000Y-145538000D03*
X226989000Y-145038000D03*
X226989000Y-144538000D03*
X226989000Y-144038000D03*
X226989000Y-143538000D03*
X226989000Y-143038000D03*
X226989000Y-142538000D03*
X226989000Y-142038000D03*
X226989000Y-141538000D03*
D50*
X228914000Y-139613000D03*
X229414000Y-139613000D03*
X229914000Y-139613000D03*
X230414000Y-139613000D03*
X230914000Y-139613000D03*
X231414000Y-139613000D03*
X231914000Y-139613000D03*
X232414000Y-139613000D03*
X232914000Y-139613000D03*
X233414000Y-139613000D03*
X233914000Y-139613000D03*
X234414000Y-139613000D03*
X234914000Y-139613000D03*
X235414000Y-139613000D03*
X235914000Y-139613000D03*
X236414000Y-139613000D03*
D49*
X238339000Y-141538000D03*
X238339000Y-142038000D03*
X238339000Y-142538000D03*
X238339000Y-143038000D03*
X238339000Y-143538000D03*
X238339000Y-144038000D03*
X238339000Y-144538000D03*
X238339000Y-145038000D03*
X238339000Y-145538000D03*
X238339000Y-146038000D03*
X238339000Y-146538000D03*
X238339000Y-147038000D03*
X238339000Y-147538000D03*
X238339000Y-148038000D03*
X238339000Y-148538000D03*
X238339000Y-149038000D03*
D50*
X236414000Y-150963000D03*
X235914000Y-150963000D03*
X235414000Y-150963000D03*
X234914000Y-150963000D03*
X234414000Y-150963000D03*
X233914000Y-150963000D03*
X233414000Y-150963000D03*
X232914000Y-150963000D03*
X232414000Y-150963000D03*
X231914000Y-150963000D03*
X231414000Y-150963000D03*
X230914000Y-150963000D03*
X230414000Y-150963000D03*
X229914000Y-150963000D03*
X229414000Y-150963000D03*
X228914000Y-150963000D03*
%TD*%
D25*
%TO.C,C2413*%
X243586000Y-142395000D03*
X243586000Y-143355000D03*
%TD*%
D19*
%TO.C,R1506*%
X189101000Y-181034000D03*
X190121000Y-181034000D03*
%TD*%
D17*
%TO.C,C2409*%
X273021999Y-184404000D03*
X272061999Y-184404000D03*
%TD*%
D29*
%TO.C,C1811*%
X221699411Y-147405411D03*
X221020589Y-146726589D03*
%TD*%
D32*
%TO.C,K2301*%
X254978000Y-191135000D03*
X254978000Y-196215000D03*
X254978000Y-198755000D03*
X254978000Y-201295000D03*
X254978000Y-203835000D03*
X247688000Y-203835000D03*
X247688000Y-201295000D03*
X247688000Y-198755000D03*
X247688000Y-196215000D03*
X247688000Y-191135000D03*
%TD*%
D51*
%TO.C,C2813*%
X271694589Y-154600589D03*
X272373411Y-155279411D03*
%TD*%
D57*
%TO.C,U2101*%
X222873000Y-185163500D03*
X222373000Y-185163500D03*
X221873000Y-185163500D03*
X221373000Y-185163500D03*
D58*
X220660500Y-184451000D03*
X220660500Y-183951000D03*
X220660500Y-183451000D03*
X220660500Y-182951000D03*
D57*
X221373000Y-182238500D03*
X221873000Y-182238500D03*
X222373000Y-182238500D03*
X222873000Y-182238500D03*
D58*
X223585500Y-182951000D03*
X223585500Y-183451000D03*
X223585500Y-183951000D03*
X223585500Y-184451000D03*
D59*
X222122999Y-183700999D03*
%TD*%
D19*
%TO.C,R2905*%
X284605000Y-186368000D03*
X285625000Y-186368000D03*
%TD*%
D20*
%TO.C,C3205*%
X331892000Y-188087000D03*
X332852000Y-188087000D03*
%TD*%
%TO.C,C123*%
X299113000Y-123190000D03*
X300073000Y-123190000D03*
%TD*%
D34*
%TO.C,R6*%
X143502000Y-153572000D03*
X143502000Y-152552000D03*
%TD*%
D27*
%TO.C,C2101*%
X218567000Y-207785000D03*
X218567000Y-206235000D03*
%TD*%
D24*
%TO.C,C2910*%
X282460000Y-185265000D03*
X282460000Y-184305000D03*
%TD*%
D32*
%TO.C,K2101*%
X223482000Y-191135000D03*
X223482000Y-196215000D03*
X223482000Y-198755000D03*
X223482000Y-201295000D03*
X223482000Y-203835000D03*
X216192000Y-203835000D03*
X216192000Y-201295000D03*
X216192000Y-198755000D03*
X216192000Y-196215000D03*
X216192000Y-191135000D03*
%TD*%
D18*
%TO.C,R2808*%
X269518822Y-156736758D03*
X270240070Y-156015510D03*
%TD*%
D22*
%TO.C,R808*%
X158752000Y-141859000D03*
X157732000Y-141859000D03*
%TD*%
D27*
%TO.C,C701*%
X124079000Y-207785000D03*
X124079000Y-206235000D03*
%TD*%
%TO.C,C801*%
X139827000Y-207785000D03*
X139827000Y-206235000D03*
%TD*%
D26*
%TO.C,R2908*%
X284180810Y-154671382D03*
X283459562Y-153950134D03*
%TD*%
D27*
%TO.C,C1502*%
X189992000Y-207785000D03*
X189992000Y-206235000D03*
%TD*%
D23*
%TO.C,L3101*%
X312928000Y-183365000D03*
X312928000Y-182395000D03*
%TD*%
D27*
%TO.C,C502*%
X95504000Y-207785000D03*
X95504000Y-206235000D03*
%TD*%
D17*
%TO.C,C1404*%
X178407000Y-189103000D03*
X177447000Y-189103000D03*
%TD*%
D64*
%TO.C,Q3*%
X109689199Y-134472600D03*
D65*
X110664198Y-135514000D03*
X110014200Y-135514000D03*
X109364198Y-135514000D03*
X108714200Y-135514000D03*
X108714200Y-132313600D03*
X110664198Y-132313600D03*
X110014200Y-132313600D03*
X109364198Y-132313600D03*
%TD*%
D23*
%TO.C,L1503*%
X194310000Y-186413000D03*
X194310000Y-185443000D03*
%TD*%
D36*
%TO.C,R46*%
X232270000Y-101473000D03*
X233820000Y-101473000D03*
%TD*%
D18*
%TO.C,R1909*%
X222485241Y-153010178D03*
X223206489Y-152288930D03*
%TD*%
D57*
%TO.C,U2301*%
X254369000Y-185163500D03*
X253869000Y-185163500D03*
X253369000Y-185163500D03*
X252869000Y-185163500D03*
D58*
X252156500Y-184451000D03*
X252156500Y-183951000D03*
X252156500Y-183451000D03*
X252156500Y-182951000D03*
D57*
X252869000Y-182238500D03*
X253369000Y-182238500D03*
X253869000Y-182238500D03*
X254369000Y-182238500D03*
D58*
X255081500Y-182951000D03*
X255081500Y-183451000D03*
X255081500Y-183951000D03*
X255081500Y-184451000D03*
D59*
X253618999Y-183700999D03*
%TD*%
D29*
%TO.C,C1212*%
X184236118Y-156461545D03*
X183557296Y-155782723D03*
%TD*%
D19*
%TO.C,R2105*%
X221613000Y-186368000D03*
X222633000Y-186368000D03*
%TD*%
D25*
%TO.C,C2313*%
X242189000Y-145570000D03*
X242189000Y-146530000D03*
%TD*%
D43*
%TO.C,L3002*%
X304523000Y-182372000D03*
X303553000Y-182372000D03*
%TD*%
D34*
%TO.C,R18*%
X231386000Y-153572000D03*
X231386000Y-152552000D03*
%TD*%
D22*
%TO.C,R2309*%
X245289800Y-146713000D03*
X244269800Y-146713000D03*
%TD*%
D17*
%TO.C,C1303*%
X156830000Y-189103000D03*
X155870000Y-189103000D03*
%TD*%
D25*
%TO.C,C2314*%
X256286000Y-185448000D03*
X256286000Y-186408000D03*
%TD*%
D22*
%TO.C,R707*%
X129161000Y-181034000D03*
X128141000Y-181034000D03*
%TD*%
D41*
%TO.C,C3012*%
X284735748Y-153160252D03*
X285414570Y-152481430D03*
%TD*%
D23*
%TO.C,L2403*%
X273049999Y-186413000D03*
X273049999Y-185443000D03*
%TD*%
D17*
%TO.C,C1309*%
X162786000Y-184404000D03*
X161826000Y-184404000D03*
%TD*%
D37*
%TO.C,R604*%
X115379000Y-187833000D03*
X113729000Y-187833000D03*
%TD*%
D24*
%TO.C,C2406*%
X266699999Y-183360000D03*
X266699999Y-182400000D03*
%TD*%
D27*
%TO.C,C1401*%
X171323000Y-207785000D03*
X171323000Y-206235000D03*
%TD*%
%TO.C,C1602*%
X205740000Y-207785000D03*
X205740000Y-206235000D03*
%TD*%
D26*
%TO.C,R1409*%
X199335784Y-154553408D03*
X198614536Y-153832160D03*
%TD*%
D35*
%TO.C,R55*%
X272606000Y-108839000D03*
X274256000Y-108839000D03*
%TD*%
D41*
%TO.C,C3011*%
X286172589Y-151723411D03*
X286851411Y-151044589D03*
%TD*%
D45*
%TO.C,R68*%
X222607500Y-215138000D03*
X224432500Y-215138000D03*
%TD*%
D22*
%TO.C,R1407*%
X176405000Y-181034000D03*
X175385000Y-181034000D03*
%TD*%
D24*
%TO.C,C62*%
X137160000Y-147546000D03*
X137160000Y-146586000D03*
%TD*%
D66*
%TO.C,C11*%
X153561000Y-141666000D03*
X153561000Y-139766000D03*
%TD*%
D27*
%TO.C,C3101*%
X313055000Y-207785000D03*
X313055000Y-206235000D03*
%TD*%
D24*
%TO.C,C2311*%
X243255800Y-145542000D03*
X243255800Y-144582000D03*
%TD*%
D67*
%TO.C,J1*%
X130022600Y-213868000D03*
X132791200Y-213868000D03*
X135559800Y-213868000D03*
X138328400Y-213868000D03*
X141097000Y-213868000D03*
X143865600Y-213868000D03*
X146634200Y-213868000D03*
X149402800Y-213868000D03*
X152171400Y-213868000D03*
X154940000Y-213868000D03*
X157708600Y-213868000D03*
X160477200Y-213868000D03*
X163245800Y-213868000D03*
X166014400Y-213868000D03*
X168783000Y-213868000D03*
X171551600Y-213868000D03*
X174320200Y-213868000D03*
X177088800Y-213868000D03*
X179857400Y-213868000D03*
X131406900Y-216712800D03*
X134175500Y-216712800D03*
X136944100Y-216712800D03*
X139712700Y-216712800D03*
X142481300Y-216712800D03*
X145249900Y-216712800D03*
X148018500Y-216712800D03*
X150787100Y-216712800D03*
X153555700Y-216712800D03*
X156324300Y-216712800D03*
X159092900Y-216712800D03*
X161861500Y-216712800D03*
X164630100Y-216712800D03*
X167398700Y-216712800D03*
X170167300Y-216712800D03*
X172935900Y-216712800D03*
X175704500Y-216712800D03*
X178473100Y-216712800D03*
D68*
X123063000Y-215290400D03*
X186817000Y-215290400D03*
%TD*%
D69*
%TO.C,D6*%
X270662500Y-113030000D03*
X269087500Y-113030000D03*
%TD*%
D29*
%TO.C,C2812*%
X272374118Y-156715545D03*
X271695296Y-156036723D03*
%TD*%
D23*
%TO.C,L1303*%
X162814000Y-186413000D03*
X162814000Y-185443000D03*
%TD*%
D35*
%TO.C,R2903*%
X281636000Y-187833000D03*
X283286000Y-187833000D03*
%TD*%
D17*
%TO.C,C703*%
X125334000Y-189103000D03*
X124374000Y-189103000D03*
%TD*%
D37*
%TO.C,R704*%
X131127000Y-187833000D03*
X129477000Y-187833000D03*
%TD*%
D35*
%TO.C,R58*%
X272606000Y-107188000D03*
X274256000Y-107188000D03*
%TD*%
D22*
%TO.C,R3201*%
X331930000Y-189103000D03*
X330910000Y-189103000D03*
%TD*%
D17*
%TO.C,C2104*%
X225651000Y-189103000D03*
X224691000Y-189103000D03*
%TD*%
D24*
%TO.C,C3010*%
X298208000Y-185265000D03*
X298208000Y-184305000D03*
%TD*%
%TO.C,C86*%
X268986000Y-147546000D03*
X268986000Y-146586000D03*
%TD*%
D29*
%TO.C,C1211*%
X182799277Y-155024704D03*
X182120455Y-154345882D03*
%TD*%
D17*
%TO.C,C804*%
X146911000Y-189103000D03*
X145951000Y-189103000D03*
%TD*%
D29*
%TO.C,C2012*%
X227963253Y-156338991D03*
X227284431Y-155660169D03*
%TD*%
D24*
%TO.C,C1510*%
X187972000Y-185265000D03*
X187972000Y-184305000D03*
%TD*%
D34*
%TO.C,R114*%
X232410000Y-154053000D03*
X232410000Y-153033000D03*
%TD*%
D23*
%TO.C,L2201*%
X234188000Y-183365000D03*
X234188000Y-182395000D03*
%TD*%
D27*
%TO.C,C3001*%
X297307000Y-207785000D03*
X297307000Y-206235000D03*
%TD*%
D44*
%TO.C,TP6*%
X108839000Y-151130000D03*
%TD*%
D27*
%TO.C,C3202*%
X331724000Y-207785000D03*
X331724000Y-206235000D03*
%TD*%
D29*
%TO.C,C1912*%
X224622118Y-152270545D03*
X223943296Y-151591723D03*
%TD*%
D27*
%TO.C,C2301*%
X250063000Y-207785000D03*
X250063000Y-206235000D03*
%TD*%
%TO.C,C117*%
X252222000Y-163970000D03*
X252222000Y-162420000D03*
%TD*%
D17*
%TO.C,C2903*%
X282814000Y-189103000D03*
X281854000Y-189103000D03*
%TD*%
D24*
%TO.C,C610*%
X109232000Y-185265000D03*
X109232000Y-184305000D03*
%TD*%
D19*
%TO.C,R706*%
X126109000Y-181034000D03*
X127129000Y-181034000D03*
%TD*%
D24*
%TO.C,C2108*%
X225298000Y-181201000D03*
X225298000Y-180241000D03*
%TD*%
D38*
%TO.C,U17*%
X140813000Y-162483500D03*
X141463000Y-162483500D03*
X142113000Y-162483500D03*
X142763000Y-162483500D03*
X143413000Y-162483500D03*
D39*
X144475500Y-163546000D03*
X144475500Y-164196000D03*
X144475500Y-164846000D03*
X144475500Y-165496000D03*
X144475500Y-166146000D03*
D38*
X143413000Y-167208500D03*
X142763000Y-167208500D03*
X142113000Y-167208500D03*
X141463000Y-167208500D03*
X140813000Y-167208500D03*
D39*
X139750500Y-166146000D03*
X139750500Y-165496000D03*
X139750500Y-164846000D03*
X139750500Y-164196000D03*
X139750500Y-163546000D03*
D40*
X142112999Y-164845999D03*
%TD*%
D61*
%TO.C,R37*%
X332740000Y-131382000D03*
X332740000Y-133032000D03*
%TD*%
D19*
%TO.C,R3006*%
X299337000Y-181034000D03*
X300357000Y-181034000D03*
%TD*%
D52*
%TO.C,R63*%
X198167000Y-218088000D03*
X196342000Y-218088000D03*
%TD*%
D32*
%TO.C,K2401*%
X270725999Y-191135000D03*
X270725999Y-196215000D03*
X270725999Y-198755000D03*
X270725999Y-201295000D03*
X270725999Y-203835000D03*
X263435999Y-203835000D03*
X263435999Y-201295000D03*
X263435999Y-198755000D03*
X263435999Y-196215000D03*
X263435999Y-191135000D03*
%TD*%
D24*
%TO.C,C50*%
X181102000Y-147546000D03*
X181102000Y-146586000D03*
%TD*%
D37*
%TO.C,R1404*%
X178371000Y-187833000D03*
X176721000Y-187833000D03*
%TD*%
D24*
%TO.C,C2906*%
X282448000Y-183360000D03*
X282448000Y-182400000D03*
%TD*%
D17*
%TO.C,C1509*%
X194282000Y-184404000D03*
X193322000Y-184404000D03*
%TD*%
D26*
%TO.C,R2208*%
X244048810Y-153020382D03*
X243327562Y-152299134D03*
%TD*%
D24*
%TO.C,C2310*%
X250964000Y-185265000D03*
X250964000Y-184305000D03*
%TD*%
D61*
%TO.C,R90*%
X325787999Y-139162000D03*
X325787999Y-140812000D03*
%TD*%
D19*
%TO.C,R2906*%
X283589000Y-181034000D03*
X284609000Y-181034000D03*
%TD*%
D61*
%TO.C,R32*%
X330962000Y-133541000D03*
X330962000Y-135191000D03*
%TD*%
D21*
%TO.C,C3013*%
X285398448Y-150988869D03*
X284719626Y-151667691D03*
%TD*%
D57*
%TO.C,U501*%
X96889000Y-185163500D03*
X96389000Y-185163500D03*
X95889000Y-185163500D03*
X95389000Y-185163500D03*
D58*
X94676500Y-184451000D03*
X94676500Y-183951000D03*
X94676500Y-183451000D03*
X94676500Y-182951000D03*
D57*
X95389000Y-182238500D03*
X95889000Y-182238500D03*
X96389000Y-182238500D03*
X96889000Y-182238500D03*
D58*
X97601500Y-182951000D03*
X97601500Y-183451000D03*
X97601500Y-183951000D03*
X97601500Y-184451000D03*
D59*
X96138999Y-183700999D03*
%TD*%
D20*
%TO.C,C507*%
X98834000Y-183388000D03*
X99794000Y-183388000D03*
%TD*%
D19*
%TO.C,R1402*%
X175512000Y-189103000D03*
X176532000Y-189103000D03*
%TD*%
%TO.C,R2405*%
X268856999Y-186368000D03*
X269876999Y-186368000D03*
%TD*%
D49*
%TO.C,U4*%
X183047000Y-149038000D03*
X183047000Y-148538000D03*
X183047000Y-148038000D03*
X183047000Y-147538000D03*
X183047000Y-147038000D03*
X183047000Y-146538000D03*
X183047000Y-146038000D03*
X183047000Y-145538000D03*
X183047000Y-145038000D03*
X183047000Y-144538000D03*
X183047000Y-144038000D03*
X183047000Y-143538000D03*
X183047000Y-143038000D03*
X183047000Y-142538000D03*
X183047000Y-142038000D03*
X183047000Y-141538000D03*
D50*
X184972000Y-139613000D03*
X185472000Y-139613000D03*
X185972000Y-139613000D03*
X186472000Y-139613000D03*
X186972000Y-139613000D03*
X187472000Y-139613000D03*
X187972000Y-139613000D03*
X188472000Y-139613000D03*
X188972000Y-139613000D03*
X189472000Y-139613000D03*
X189972000Y-139613000D03*
X190472000Y-139613000D03*
X190972000Y-139613000D03*
X191472000Y-139613000D03*
X191972000Y-139613000D03*
X192472000Y-139613000D03*
D49*
X194397000Y-141538000D03*
X194397000Y-142038000D03*
X194397000Y-142538000D03*
X194397000Y-143038000D03*
X194397000Y-143538000D03*
X194397000Y-144038000D03*
X194397000Y-144538000D03*
X194397000Y-145038000D03*
X194397000Y-145538000D03*
X194397000Y-146038000D03*
X194397000Y-146538000D03*
X194397000Y-147038000D03*
X194397000Y-147538000D03*
X194397000Y-148038000D03*
X194397000Y-148538000D03*
X194397000Y-149038000D03*
D50*
X192472000Y-150963000D03*
X191972000Y-150963000D03*
X191472000Y-150963000D03*
X190972000Y-150963000D03*
X190472000Y-150963000D03*
X189972000Y-150963000D03*
X189472000Y-150963000D03*
X188972000Y-150963000D03*
X188472000Y-150963000D03*
X187972000Y-150963000D03*
X187472000Y-150963000D03*
X186972000Y-150963000D03*
X186472000Y-150963000D03*
X185972000Y-150963000D03*
X185472000Y-150963000D03*
X184972000Y-150963000D03*
%TD*%
D19*
%TO.C,R1502*%
X191260000Y-189103000D03*
X192280000Y-189103000D03*
%TD*%
D17*
%TO.C,C1409*%
X178534000Y-184404000D03*
X177574000Y-184404000D03*
%TD*%
D18*
%TO.C,R1808*%
X220280956Y-148863465D03*
X221002204Y-148142217D03*
%TD*%
D17*
%TO.C,C83*%
X275358800Y-154559000D03*
X274398800Y-154559000D03*
%TD*%
%TO.C,C2304*%
X257147000Y-189103000D03*
X256187000Y-189103000D03*
%TD*%
D29*
%TO.C,C1011*%
X177084277Y-147404704D03*
X176405455Y-146725882D03*
%TD*%
D43*
%TO.C,L2902*%
X288775000Y-182372000D03*
X287805000Y-182372000D03*
%TD*%
D22*
%TO.C,R3107*%
X318137000Y-181034000D03*
X317117000Y-181034000D03*
%TD*%
D17*
%TO.C,C1403*%
X172578000Y-189103000D03*
X171618000Y-189103000D03*
%TD*%
D24*
%TO.C,C183*%
X192786000Y-136878000D03*
X192786000Y-135918000D03*
%TD*%
D20*
%TO.C,C2205*%
X237404000Y-188087000D03*
X238364000Y-188087000D03*
%TD*%
D43*
%TO.C,L802*%
X147043000Y-182372000D03*
X146073000Y-182372000D03*
%TD*%
D24*
%TO.C,C1611*%
X200710800Y-143002000D03*
X200710800Y-142042000D03*
%TD*%
D18*
%TO.C,R1209*%
X182099241Y-157201178D03*
X182820489Y-156479930D03*
%TD*%
D23*
%TO.C,L501*%
X92456000Y-183365000D03*
X92456000Y-182395000D03*
%TD*%
D29*
%TO.C,C2811*%
X270937277Y-155278704D03*
X270258455Y-154599882D03*
%TD*%
D21*
%TO.C,C613*%
X155152411Y-151933589D03*
X154473589Y-152612411D03*
%TD*%
D25*
%TO.C,C514*%
X98806000Y-185448000D03*
X98806000Y-186408000D03*
%TD*%
D20*
%TO.C,C1307*%
X161826000Y-183388000D03*
X162786000Y-183388000D03*
%TD*%
D19*
%TO.C,R3206*%
X330833000Y-181034000D03*
X331853000Y-181034000D03*
%TD*%
D23*
%TO.C,L1601*%
X202692000Y-183365000D03*
X202692000Y-182395000D03*
%TD*%
%TO.C,L801*%
X139700000Y-183365000D03*
X139700000Y-182395000D03*
%TD*%
D19*
%TO.C,R908*%
X173186866Y-144652293D03*
X174206866Y-144652293D03*
%TD*%
D24*
%TO.C,C1512*%
X199440800Y-148082000D03*
X199440800Y-147122000D03*
%TD*%
D57*
%TO.C,U3201*%
X333109000Y-185163500D03*
X332609000Y-185163500D03*
X332109000Y-185163500D03*
X331609000Y-185163500D03*
D58*
X330896500Y-184451000D03*
X330896500Y-183951000D03*
X330896500Y-183451000D03*
X330896500Y-182951000D03*
D57*
X331609000Y-182238500D03*
X332109000Y-182238500D03*
X332609000Y-182238500D03*
X333109000Y-182238500D03*
D58*
X333821500Y-182951000D03*
X333821500Y-183451000D03*
X333821500Y-183951000D03*
X333821500Y-184451000D03*
D59*
X332358999Y-183700999D03*
%TD*%
D22*
%TO.C,R3101*%
X316182000Y-189103000D03*
X315162000Y-189103000D03*
%TD*%
D70*
%TO.C,C169*%
X88150000Y-123565801D03*
X88150000Y-125465801D03*
%TD*%
D35*
%TO.C,R3003*%
X297384000Y-187833000D03*
X299034000Y-187833000D03*
%TD*%
D18*
%TO.C,R1908*%
X221766822Y-152291758D03*
X222488070Y-151570510D03*
%TD*%
D24*
%TO.C,C508*%
X99314000Y-181201000D03*
X99314000Y-180241000D03*
%TD*%
D49*
%TO.C,U1*%
X139105000Y-149038000D03*
X139105000Y-148538000D03*
X139105000Y-148038000D03*
X139105000Y-147538000D03*
X139105000Y-147038000D03*
X139105000Y-146538000D03*
X139105000Y-146038000D03*
X139105000Y-145538000D03*
X139105000Y-145038000D03*
X139105000Y-144538000D03*
X139105000Y-144038000D03*
X139105000Y-143538000D03*
X139105000Y-143038000D03*
X139105000Y-142538000D03*
X139105000Y-142038000D03*
X139105000Y-141538000D03*
D50*
X141030000Y-139613000D03*
X141530000Y-139613000D03*
X142030000Y-139613000D03*
X142530000Y-139613000D03*
X143030000Y-139613000D03*
X143530000Y-139613000D03*
X144030000Y-139613000D03*
X144530000Y-139613000D03*
X145030000Y-139613000D03*
X145530000Y-139613000D03*
X146030000Y-139613000D03*
X146530000Y-139613000D03*
X147030000Y-139613000D03*
X147530000Y-139613000D03*
X148030000Y-139613000D03*
X148530000Y-139613000D03*
D49*
X150455000Y-141538000D03*
X150455000Y-142038000D03*
X150455000Y-142538000D03*
X150455000Y-143038000D03*
X150455000Y-143538000D03*
X150455000Y-144038000D03*
X150455000Y-144538000D03*
X150455000Y-145038000D03*
X150455000Y-145538000D03*
X150455000Y-146038000D03*
X150455000Y-146538000D03*
X150455000Y-147038000D03*
X150455000Y-147538000D03*
X150455000Y-148038000D03*
X150455000Y-148538000D03*
X150455000Y-149038000D03*
D50*
X148530000Y-150963000D03*
X148030000Y-150963000D03*
X147530000Y-150963000D03*
X147030000Y-150963000D03*
X146530000Y-150963000D03*
X146030000Y-150963000D03*
X145530000Y-150963000D03*
X145030000Y-150963000D03*
X144530000Y-150963000D03*
X144030000Y-150963000D03*
X143530000Y-150963000D03*
X143030000Y-150963000D03*
X142530000Y-150963000D03*
X142030000Y-150963000D03*
X141530000Y-150963000D03*
X141030000Y-150963000D03*
%TD*%
D23*
%TO.C,L1301*%
X155448000Y-183365000D03*
X155448000Y-182395000D03*
%TD*%
D51*
%TO.C,C313*%
X135676882Y-150116455D03*
X136355704Y-150795277D03*
%TD*%
D19*
%TO.C,R602*%
X112520000Y-189103000D03*
X113540000Y-189103000D03*
%TD*%
%TO.C,R1708*%
X217803000Y-144526000D03*
X218823000Y-144526000D03*
%TD*%
D57*
%TO.C,U2901*%
X285865000Y-185163500D03*
X285365000Y-185163500D03*
X284865000Y-185163500D03*
X284365000Y-185163500D03*
D58*
X283652500Y-184451000D03*
X283652500Y-183951000D03*
X283652500Y-183451000D03*
X283652500Y-182951000D03*
D57*
X284365000Y-182238500D03*
X284865000Y-182238500D03*
X285365000Y-182238500D03*
X285865000Y-182238500D03*
D58*
X286577500Y-182951000D03*
X286577500Y-183451000D03*
X286577500Y-183951000D03*
X286577500Y-184451000D03*
D59*
X285114999Y-183700999D03*
%TD*%
D22*
%TO.C,R3208*%
X292025800Y-142522000D03*
X291005800Y-142522000D03*
%TD*%
D27*
%TO.C,C121*%
X164211000Y-163970000D03*
X164211000Y-162420000D03*
%TD*%
%TO.C,C122*%
X276733000Y-163970000D03*
X276733000Y-162420000D03*
%TD*%
D43*
%TO.C,L502*%
X99799000Y-182372000D03*
X98829000Y-182372000D03*
%TD*%
D22*
%TO.C,R2401*%
X268937999Y-189103000D03*
X267917999Y-189103000D03*
%TD*%
D25*
%TO.C,C90*%
X323977000Y-132743000D03*
X323977000Y-133703000D03*
%TD*%
D66*
%TO.C,C32*%
X197503000Y-141666000D03*
X197503000Y-139766000D03*
%TD*%
D41*
%TO.C,C1312*%
X193986711Y-155247972D03*
X194665533Y-154569150D03*
%TD*%
D51*
%TO.C,C2013*%
X227283724Y-154224035D03*
X227962546Y-154902857D03*
%TD*%
D29*
%TO.C,C412*%
X139023411Y-157351252D03*
X138344589Y-156672430D03*
%TD*%
D24*
%TO.C,C3212*%
X289991800Y-144653000D03*
X289991800Y-143693000D03*
%TD*%
D29*
%TO.C,C1111*%
X178481277Y-150579704D03*
X177802455Y-149900882D03*
%TD*%
D26*
%TO.C,R2909*%
X283282784Y-155569408D03*
X282561536Y-154848160D03*
%TD*%
D24*
%TO.C,C3106*%
X313944000Y-183360000D03*
X313944000Y-182400000D03*
%TD*%
D41*
%TO.C,C1311*%
X195423552Y-153811131D03*
X196102374Y-153132309D03*
%TD*%
D44*
%TO.C,TP3*%
X128143000Y-123317000D03*
%TD*%
D21*
%TO.C,C2113*%
X238464411Y-153330589D03*
X237785589Y-154009411D03*
%TD*%
D24*
%TO.C,C171*%
X223774000Y-124051000D03*
X223774000Y-123091000D03*
%TD*%
%TO.C,C3211*%
X289991800Y-142621000D03*
X289991800Y-141661000D03*
%TD*%
D35*
%TO.C,R803*%
X139904000Y-187833000D03*
X141554000Y-187833000D03*
%TD*%
D32*
%TO.C,K1601*%
X207734000Y-191135000D03*
X207734000Y-196215000D03*
X207734000Y-198755000D03*
X207734000Y-201295000D03*
X207734000Y-203835000D03*
X200444000Y-203835000D03*
X200444000Y-201295000D03*
X200444000Y-198755000D03*
X200444000Y-196215000D03*
X200444000Y-191135000D03*
%TD*%
D23*
%TO.C,L3203*%
X336042000Y-186413000D03*
X336042000Y-185443000D03*
%TD*%
D37*
%TO.C,R1504*%
X194119000Y-187833000D03*
X192469000Y-187833000D03*
%TD*%
D35*
%TO.C,R1403*%
X171400000Y-187833000D03*
X173050000Y-187833000D03*
%TD*%
D26*
%TO.C,R2209*%
X243150784Y-153918408D03*
X242429536Y-153197160D03*
%TD*%
%TO.C,R509*%
X151964784Y-157347408D03*
X151243536Y-156626160D03*
%TD*%
D23*
%TO.C,L1403*%
X178562000Y-186413000D03*
X178562000Y-185443000D03*
%TD*%
D27*
%TO.C,C127*%
X313436000Y-163970000D03*
X313436000Y-162420000D03*
%TD*%
D17*
%TO.C,C2109*%
X225778000Y-184404000D03*
X224818000Y-184404000D03*
%TD*%
D27*
%TO.C,C126*%
X186944000Y-163970000D03*
X186944000Y-162420000D03*
%TD*%
D24*
%TO.C,C135*%
X286512000Y-126083000D03*
X286512000Y-125123000D03*
%TD*%
D71*
%TO.C,D5*%
X133858000Y-118516500D03*
X133858000Y-116941500D03*
%TD*%
D22*
%TO.C,R1301*%
X158702000Y-189103000D03*
X157682000Y-189103000D03*
%TD*%
D72*
%TO.C,R91*%
X109982000Y-116711001D03*
X109982000Y-117731001D03*
%TD*%
D17*
%TO.C,C509*%
X99794000Y-184404000D03*
X98834000Y-184404000D03*
%TD*%
D19*
%TO.C,R502*%
X96772000Y-189103000D03*
X97792000Y-189103000D03*
%TD*%
%TO.C,R3102*%
X317244000Y-189103000D03*
X318264000Y-189103000D03*
%TD*%
D51*
%TO.C,C413*%
X138343882Y-155236296D03*
X139022704Y-155915118D03*
%TD*%
D32*
%TO.C,K801*%
X144742000Y-191135000D03*
X144742000Y-196215000D03*
X144742000Y-198755000D03*
X144742000Y-201295000D03*
X144742000Y-203835000D03*
X137452000Y-203835000D03*
X137452000Y-201295000D03*
X137452000Y-198755000D03*
X137452000Y-196215000D03*
X137452000Y-191135000D03*
%TD*%
D73*
%TO.C,L6*%
X124865000Y-119310501D03*
X124865000Y-121435501D03*
%TD*%
D20*
%TO.C,C2105*%
X221656000Y-188087000D03*
X222616000Y-188087000D03*
%TD*%
D22*
%TO.C,R2907*%
X286641000Y-181034000D03*
X285621000Y-181034000D03*
%TD*%
D37*
%TO.C,R804*%
X146875000Y-187833000D03*
X145225000Y-187833000D03*
%TD*%
D21*
%TO.C,C1413*%
X197951411Y-151552589D03*
X197272589Y-152231411D03*
%TD*%
D43*
%TO.C,L2302*%
X257279000Y-182372000D03*
X256309000Y-182372000D03*
%TD*%
D20*
%TO.C,C2907*%
X287810000Y-183388000D03*
X288770000Y-183388000D03*
%TD*%
D41*
%TO.C,C612*%
X154489711Y-154104972D03*
X155168533Y-153426150D03*
%TD*%
D18*
%TO.C,R1008*%
X175665822Y-148862758D03*
X176387070Y-148141510D03*
%TD*%
D35*
%TO.C,R3203*%
X328880000Y-187833000D03*
X330530000Y-187833000D03*
%TD*%
D22*
%TO.C,R2407*%
X270892999Y-181034000D03*
X269872999Y-181034000D03*
%TD*%
D17*
%TO.C,C2309*%
X257274000Y-184404000D03*
X256314000Y-184404000D03*
%TD*%
D18*
%TO.C,R1809*%
X220999375Y-149581885D03*
X221720623Y-148860637D03*
%TD*%
D61*
%TO.C,R84*%
X109638400Y-137406801D03*
X109638400Y-139056801D03*
%TD*%
D57*
%TO.C,U701*%
X128385000Y-185163500D03*
X127885000Y-185163500D03*
X127385000Y-185163500D03*
X126885000Y-185163500D03*
D58*
X126172500Y-184451000D03*
X126172500Y-183951000D03*
X126172500Y-183451000D03*
X126172500Y-182951000D03*
D57*
X126885000Y-182238500D03*
X127385000Y-182238500D03*
X127885000Y-182238500D03*
X128385000Y-182238500D03*
D58*
X129097500Y-182951000D03*
X129097500Y-183451000D03*
X129097500Y-183951000D03*
X129097500Y-184451000D03*
D59*
X127634999Y-183700999D03*
%TD*%
D38*
%TO.C,U23*%
X316327000Y-162483500D03*
X316977000Y-162483500D03*
X317627000Y-162483500D03*
X318277000Y-162483500D03*
X318927000Y-162483500D03*
D39*
X319989500Y-163546000D03*
X319989500Y-164196000D03*
X319989500Y-164846000D03*
X319989500Y-165496000D03*
X319989500Y-166146000D03*
D38*
X318927000Y-167208500D03*
X318277000Y-167208500D03*
X317627000Y-167208500D03*
X316977000Y-167208500D03*
X316327000Y-167208500D03*
D39*
X315264500Y-166146000D03*
X315264500Y-165496000D03*
X315264500Y-164846000D03*
X315264500Y-164196000D03*
X315264500Y-163546000D03*
D40*
X317626999Y-164845999D03*
%TD*%
D25*
%TO.C,C3014*%
X303530000Y-185448000D03*
X303530000Y-186408000D03*
%TD*%
D24*
%TO.C,C1610*%
X203720000Y-185265000D03*
X203720000Y-184305000D03*
%TD*%
D54*
%TO.C,D2*%
X269468500Y-108839000D03*
X271043500Y-108839000D03*
%TD*%
D22*
%TO.C,R1608*%
X202744800Y-142903000D03*
X201724800Y-142903000D03*
%TD*%
D29*
%TO.C,C2612*%
X266532118Y-148714545D03*
X265853296Y-148035723D03*
%TD*%
D34*
%TO.C,R115*%
X276352000Y-154053000D03*
X276352000Y-153033000D03*
%TD*%
D43*
%TO.C,L602*%
X115547000Y-182372000D03*
X114577000Y-182372000D03*
%TD*%
D37*
%TO.C,R504*%
X99631000Y-187833000D03*
X97981000Y-187833000D03*
%TD*%
D23*
%TO.C,L3103*%
X320294000Y-186413000D03*
X320294000Y-185443000D03*
%TD*%
D18*
%TO.C,R2609*%
X264395241Y-149454178D03*
X265116489Y-148732930D03*
%TD*%
D27*
%TO.C,C802*%
X142748000Y-207785000D03*
X142748000Y-206235000D03*
%TD*%
D51*
%TO.C,C2613*%
X265852589Y-146599589D03*
X266531411Y-147278411D03*
%TD*%
D24*
%TO.C,C184*%
X236728000Y-136878000D03*
X236728000Y-135918000D03*
%TD*%
D21*
%TO.C,C2213*%
X241766411Y-150917589D03*
X241087589Y-151596411D03*
%TD*%
D66*
%TO.C,C153*%
X122925000Y-121487001D03*
X122925000Y-119587001D03*
%TD*%
D20*
%TO.C,C124*%
X299113000Y-117856000D03*
X300073000Y-117856000D03*
%TD*%
D26*
%TO.C,R3009*%
X286782821Y-153989688D03*
X286061573Y-153268440D03*
%TD*%
D19*
%TO.C,R3106*%
X315085000Y-181034000D03*
X316105000Y-181034000D03*
%TD*%
D27*
%TO.C,C1402*%
X174244000Y-207785000D03*
X174244000Y-206235000D03*
%TD*%
D22*
%TO.C,R501*%
X95710000Y-189103000D03*
X94690000Y-189103000D03*
%TD*%
D19*
%TO.C,R606*%
X110361000Y-181034000D03*
X111381000Y-181034000D03*
%TD*%
D24*
%TO.C,C2412*%
X244652800Y-144399000D03*
X244652800Y-143439000D03*
%TD*%
D66*
%TO.C,C152*%
X276479000Y-115123000D03*
X276479000Y-113223000D03*
%TD*%
D74*
%TO.C,U13*%
X330471000Y-132073500D03*
X329971000Y-132073500D03*
X329471000Y-132073500D03*
X328971000Y-132073500D03*
X328471000Y-132073500D03*
X327971000Y-132073500D03*
X327471000Y-132073500D03*
X326971000Y-132073500D03*
X326471000Y-132073500D03*
X325971000Y-132073500D03*
D75*
X325283500Y-131386000D03*
X325283500Y-130886000D03*
X325283500Y-130386000D03*
X325283500Y-129886000D03*
X325283500Y-129386000D03*
X325283500Y-128886000D03*
X325283500Y-128386000D03*
X325283500Y-127886000D03*
X325283500Y-127386000D03*
X325283500Y-126886000D03*
D74*
X325971000Y-126198500D03*
X326471000Y-126198500D03*
X326971000Y-126198500D03*
X327471000Y-126198500D03*
X327971000Y-126198500D03*
X328471000Y-126198500D03*
X328971000Y-126198500D03*
X329471000Y-126198500D03*
X329971000Y-126198500D03*
X330471000Y-126198500D03*
D75*
X331158500Y-126886000D03*
X331158500Y-127386000D03*
X331158500Y-127886000D03*
X331158500Y-128386000D03*
X331158500Y-128886000D03*
X331158500Y-129386000D03*
X331158500Y-129886000D03*
X331158500Y-130386000D03*
X331158500Y-130886000D03*
X331158500Y-131386000D03*
D76*
X328220999Y-129135999D03*
%TD*%
D22*
%TO.C,R801*%
X142954000Y-189103000D03*
X141934000Y-189103000D03*
%TD*%
%TO.C,R1509*%
X201474800Y-147221000D03*
X200454800Y-147221000D03*
%TD*%
D56*
%TO.C,H2*%
X332740000Y-216662000D03*
%TD*%
D22*
%TO.C,R507*%
X97665000Y-181034000D03*
X96645000Y-181034000D03*
%TD*%
D25*
%TO.C,C814*%
X146050000Y-185448000D03*
X146050000Y-186408000D03*
%TD*%
D27*
%TO.C,C3201*%
X328803000Y-207785000D03*
X328803000Y-206235000D03*
%TD*%
D20*
%TO.C,C3005*%
X300396000Y-188087000D03*
X301356000Y-188087000D03*
%TD*%
D22*
%TO.C,R1307*%
X160657000Y-181034000D03*
X159637000Y-181034000D03*
%TD*%
D41*
%TO.C,C1411*%
X198725552Y-152287131D03*
X199404374Y-151608309D03*
%TD*%
D24*
%TO.C,C2511*%
X263272000Y-144498000D03*
X263272000Y-143538000D03*
%TD*%
D22*
%TO.C,R708*%
X157405800Y-145189000D03*
X156385800Y-145189000D03*
%TD*%
D38*
%TO.C,U21*%
X189708000Y-162483500D03*
X190358000Y-162483500D03*
X191008000Y-162483500D03*
X191658000Y-162483500D03*
X192308000Y-162483500D03*
D39*
X193370500Y-163546000D03*
X193370500Y-164196000D03*
X193370500Y-164846000D03*
X193370500Y-165496000D03*
X193370500Y-166146000D03*
D38*
X192308000Y-167208500D03*
X191658000Y-167208500D03*
X191008000Y-167208500D03*
X190358000Y-167208500D03*
X189708000Y-167208500D03*
D39*
X188645500Y-166146000D03*
X188645500Y-165496000D03*
X188645500Y-164846000D03*
X188645500Y-164196000D03*
X188645500Y-163546000D03*
D40*
X191007999Y-164845999D03*
%TD*%
D17*
%TO.C,C2403*%
X267065999Y-189103000D03*
X266105999Y-189103000D03*
%TD*%
D22*
%TO.C,R2901*%
X284686000Y-189103000D03*
X283666000Y-189103000D03*
%TD*%
D57*
%TO.C,U1501*%
X191377000Y-185163500D03*
X190877000Y-185163500D03*
X190377000Y-185163500D03*
X189877000Y-185163500D03*
D58*
X189164500Y-184451000D03*
X189164500Y-183951000D03*
X189164500Y-183451000D03*
X189164500Y-182951000D03*
D57*
X189877000Y-182238500D03*
X190377000Y-182238500D03*
X190877000Y-182238500D03*
X191377000Y-182238500D03*
D58*
X192089500Y-182951000D03*
X192089500Y-183451000D03*
X192089500Y-183951000D03*
X192089500Y-184451000D03*
D59*
X190626999Y-183700999D03*
%TD*%
D24*
%TO.C,C3208*%
X335534000Y-181201000D03*
X335534000Y-180241000D03*
%TD*%
D41*
%TO.C,C1412*%
X197288711Y-153723972D03*
X197967533Y-153045150D03*
%TD*%
D22*
%TO.C,R2201*%
X237442000Y-189103000D03*
X236422000Y-189103000D03*
%TD*%
D17*
%TO.C,C503*%
X93838000Y-189103000D03*
X92878000Y-189103000D03*
%TD*%
D32*
%TO.C,K3201*%
X333718000Y-191135000D03*
X333718000Y-196215000D03*
X333718000Y-198755000D03*
X333718000Y-201295000D03*
X333718000Y-203835000D03*
X326428000Y-203835000D03*
X326428000Y-201295000D03*
X326428000Y-198755000D03*
X326428000Y-196215000D03*
X326428000Y-191135000D03*
%TD*%
D17*
%TO.C,C3103*%
X314310000Y-189103000D03*
X313350000Y-189103000D03*
%TD*%
D24*
%TO.C,C3006*%
X298196000Y-183360000D03*
X298196000Y-182400000D03*
%TD*%
D25*
%TO.C,C2414*%
X272033999Y-185448000D03*
X272033999Y-186408000D03*
%TD*%
D24*
%TO.C,C1511*%
X199440800Y-146050000D03*
X199440800Y-145090000D03*
%TD*%
%TO.C,C712*%
X155371800Y-147320000D03*
X155371800Y-146360000D03*
%TD*%
D66*
%TO.C,C51*%
X241445000Y-141666000D03*
X241445000Y-139766000D03*
%TD*%
D23*
%TO.C,L3201*%
X328676000Y-183365000D03*
X328676000Y-182395000D03*
%TD*%
D27*
%TO.C,C3102*%
X315976000Y-207785000D03*
X315976000Y-206235000D03*
%TD*%
D55*
%TO.C,C168*%
X97872700Y-130264601D03*
X99772700Y-130264601D03*
%TD*%
D25*
%TO.C,C813*%
X155651200Y-141986000D03*
X155651200Y-142946000D03*
%TD*%
D22*
%TO.C,R3108*%
X288469800Y-145189000D03*
X287449800Y-145189000D03*
%TD*%
D24*
%TO.C,C1606*%
X203708000Y-183360000D03*
X203708000Y-182400000D03*
%TD*%
D26*
%TO.C,R508*%
X152862810Y-156449382D03*
X152141562Y-155728134D03*
%TD*%
D22*
%TO.C,R26*%
X269242000Y-143891000D03*
X268222000Y-143891000D03*
%TD*%
D19*
%TO.C,R2508*%
X261238000Y-144526000D03*
X262258000Y-144526000D03*
%TD*%
D72*
%TO.C,R98*%
X105918000Y-116711001D03*
X105918000Y-117731001D03*
%TD*%
D27*
%TO.C,C116*%
X137922000Y-163970000D03*
X137922000Y-162420000D03*
%TD*%
D37*
%TO.C,R2904*%
X288607000Y-187833000D03*
X286957000Y-187833000D03*
%TD*%
D48*
%TO.C,R100*%
X320708000Y-136875000D03*
X320708000Y-135225000D03*
%TD*%
D17*
%TO.C,C1503*%
X188326000Y-189103000D03*
X187366000Y-189103000D03*
%TD*%
D19*
%TO.C,R15*%
X191786000Y-137922000D03*
X192806000Y-137922000D03*
%TD*%
D35*
%TO.C,R2303*%
X250140000Y-187833000D03*
X251790000Y-187833000D03*
%TD*%
D20*
%TO.C,C1505*%
X190160000Y-188087000D03*
X191120000Y-188087000D03*
%TD*%
D19*
%TO.C,R1406*%
X173353000Y-181034000D03*
X174373000Y-181034000D03*
%TD*%
D51*
%TO.C,C2713*%
X267249589Y-149901589D03*
X267928411Y-150580411D03*
%TD*%
D57*
%TO.C,U1601*%
X207125000Y-185163500D03*
X206625000Y-185163500D03*
X206125000Y-185163500D03*
X205625000Y-185163500D03*
D58*
X204912500Y-184451000D03*
X204912500Y-183951000D03*
X204912500Y-183451000D03*
X204912500Y-182951000D03*
D57*
X205625000Y-182238500D03*
X206125000Y-182238500D03*
X206625000Y-182238500D03*
X207125000Y-182238500D03*
D58*
X207837500Y-182951000D03*
X207837500Y-183451000D03*
X207837500Y-183951000D03*
X207837500Y-184451000D03*
D59*
X206374999Y-183700999D03*
%TD*%
D19*
%TO.C,R506*%
X94613000Y-181034000D03*
X95633000Y-181034000D03*
%TD*%
D24*
%TO.C,C179*%
X191770000Y-136878000D03*
X191770000Y-135918000D03*
%TD*%
D43*
%TO.C,L1402*%
X178539000Y-182372000D03*
X177569000Y-182372000D03*
%TD*%
D20*
%TO.C,C2405*%
X268899999Y-188087000D03*
X269859999Y-188087000D03*
%TD*%
D23*
%TO.C,L3003*%
X304546000Y-186413000D03*
X304546000Y-185443000D03*
%TD*%
D24*
%TO.C,C1612*%
X200710800Y-145034000D03*
X200710800Y-144074000D03*
%TD*%
%TO.C,C810*%
X140728000Y-185265000D03*
X140728000Y-184305000D03*
%TD*%
D44*
%TO.C,TP5*%
X111748700Y-144044901D03*
%TD*%
D19*
%TO.C,R2102*%
X222756000Y-189103000D03*
X223776000Y-189103000D03*
%TD*%
%TO.C,R705*%
X127125000Y-186368000D03*
X128145000Y-186368000D03*
%TD*%
D29*
%TO.C,C1112*%
X179918118Y-152016545D03*
X179239296Y-151337723D03*
%TD*%
D24*
%TO.C,C1608*%
X209550000Y-181201000D03*
X209550000Y-180241000D03*
%TD*%
D77*
%TO.C,L5*%
X272495500Y-115062000D03*
X274620500Y-115062000D03*
%TD*%
D24*
%TO.C,C1310*%
X156476000Y-185265000D03*
X156476000Y-184305000D03*
%TD*%
%TO.C,C711*%
X155371800Y-145288000D03*
X155371800Y-144328000D03*
%TD*%
D22*
%TO.C,R1607*%
X207901000Y-181034000D03*
X206881000Y-181034000D03*
%TD*%
D52*
%TO.C,R59*%
X198167000Y-215138000D03*
X196342000Y-215138000D03*
%TD*%
D22*
%TO.C,R1609*%
X202744800Y-144173000D03*
X201724800Y-144173000D03*
%TD*%
D41*
%TO.C,C2912*%
X281235711Y-154739972D03*
X281914533Y-154061150D03*
%TD*%
D21*
%TO.C,C2913*%
X281898411Y-152568589D03*
X281219589Y-153247411D03*
%TD*%
D78*
%TO.C,J6*%
X176894999Y-126491999D03*
D79*
X174894999Y-126491999D03*
%TD*%
D41*
%TO.C,C2211*%
X242540552Y-151652131D03*
X243219374Y-150973309D03*
%TD*%
D24*
%TO.C,C182*%
X148844000Y-136878000D03*
X148844000Y-135918000D03*
%TD*%
D17*
%TO.C,C3203*%
X330058000Y-189103000D03*
X329098000Y-189103000D03*
%TD*%
D52*
%TO.C,R65*%
X226083500Y-95123000D03*
X224258500Y-95123000D03*
%TD*%
D18*
%TO.C,R408*%
X136168115Y-157372465D03*
X136889363Y-156651217D03*
%TD*%
D20*
%TO.C,C2305*%
X253152000Y-188087000D03*
X254112000Y-188087000D03*
%TD*%
D19*
%TO.C,R2302*%
X254252000Y-189103000D03*
X255272000Y-189103000D03*
%TD*%
D57*
%TO.C,U801*%
X144133000Y-185163500D03*
X143633000Y-185163500D03*
X143133000Y-185163500D03*
X142633000Y-185163500D03*
D58*
X141920500Y-184451000D03*
X141920500Y-183951000D03*
X141920500Y-183451000D03*
X141920500Y-182951000D03*
D57*
X142633000Y-182238500D03*
X143133000Y-182238500D03*
X143633000Y-182238500D03*
X144133000Y-182238500D03*
D58*
X144845500Y-182951000D03*
X144845500Y-183451000D03*
X144845500Y-183951000D03*
X144845500Y-184451000D03*
D59*
X143382999Y-183700999D03*
%TD*%
D26*
%TO.C,R2109*%
X239848784Y-156331408D03*
X239127536Y-155610160D03*
%TD*%
D34*
%TO.C,R12*%
X187444000Y-153572000D03*
X187444000Y-152552000D03*
%TD*%
D20*
%TO.C,C2407*%
X272061999Y-183388000D03*
X273021999Y-183388000D03*
%TD*%
%TO.C,C2107*%
X224818000Y-183388000D03*
X225778000Y-183388000D03*
%TD*%
D26*
%TO.C,R86*%
X111751624Y-125714625D03*
X111030376Y-124993377D03*
%TD*%
D44*
%TO.C,TP9*%
X115189000Y-151130000D03*
%TD*%
D19*
%TO.C,R605*%
X111377000Y-186368000D03*
X112397000Y-186368000D03*
%TD*%
D37*
%TO.C,R76*%
X274256000Y-113030000D03*
X272606000Y-113030000D03*
%TD*%
D24*
%TO.C,C178*%
X147828000Y-136878000D03*
X147828000Y-135918000D03*
%TD*%
D20*
%TO.C,C707*%
X130330000Y-183388000D03*
X131290000Y-183388000D03*
%TD*%
D37*
%TO.C,R2404*%
X272858999Y-187833000D03*
X271208999Y-187833000D03*
%TD*%
D57*
%TO.C,U3101*%
X317361000Y-185163500D03*
X316861000Y-185163500D03*
X316361000Y-185163500D03*
X315861000Y-185163500D03*
D58*
X315148500Y-184451000D03*
X315148500Y-183951000D03*
X315148500Y-183451000D03*
X315148500Y-182951000D03*
D57*
X315861000Y-182238500D03*
X316361000Y-182238500D03*
X316861000Y-182238500D03*
X317361000Y-182238500D03*
D58*
X318073500Y-182951000D03*
X318073500Y-183451000D03*
X318073500Y-183951000D03*
X318073500Y-184451000D03*
D59*
X316610999Y-183700999D03*
%TD*%
D26*
%TO.C,R1309*%
X196033784Y-156077408D03*
X195312536Y-155356160D03*
%TD*%
D20*
%TO.C,C705*%
X127168000Y-188087000D03*
X128128000Y-188087000D03*
%TD*%
D56*
%TO.C,H1*%
X88900000Y-216662000D03*
%TD*%
D17*
%TO.C,C97*%
X335379001Y-130936999D03*
X334419001Y-130936999D03*
%TD*%
D66*
%TO.C,C69*%
X285387000Y-141666000D03*
X285387000Y-139766000D03*
%TD*%
D35*
%TO.C,R1603*%
X202896000Y-187833000D03*
X204546000Y-187833000D03*
%TD*%
D24*
%TO.C,C2512*%
X263272000Y-146530000D03*
X263272000Y-145570000D03*
%TD*%
D38*
%TO.C,U20*%
X279497000Y-162483500D03*
X280147000Y-162483500D03*
X280797000Y-162483500D03*
X281447000Y-162483500D03*
X282097000Y-162483500D03*
D39*
X283159500Y-163546000D03*
X283159500Y-164196000D03*
X283159500Y-164846000D03*
X283159500Y-165496000D03*
X283159500Y-166146000D03*
D38*
X282097000Y-167208500D03*
X281447000Y-167208500D03*
X280797000Y-167208500D03*
X280147000Y-167208500D03*
X279497000Y-167208500D03*
D39*
X278434500Y-166146000D03*
X278434500Y-165496000D03*
X278434500Y-164846000D03*
X278434500Y-164196000D03*
X278434500Y-163546000D03*
D40*
X280796999Y-164845999D03*
%TD*%
D20*
%TO.C,C805*%
X142916000Y-188087000D03*
X143876000Y-188087000D03*
%TD*%
D44*
%TO.C,TP1*%
X314579000Y-115951000D03*
%TD*%
D24*
%TO.C,C708*%
X130810000Y-181201000D03*
X130810000Y-180241000D03*
%TD*%
D25*
%TO.C,C163*%
X107950000Y-116741001D03*
X107950000Y-117701001D03*
%TD*%
D24*
%TO.C,C2306*%
X250952000Y-183360000D03*
X250952000Y-182400000D03*
%TD*%
D52*
%TO.C,R61*%
X156106500Y-95123000D03*
X154281500Y-95123000D03*
%TD*%
D34*
%TO.C,R113*%
X188468000Y-154053000D03*
X188468000Y-153033000D03*
%TD*%
D22*
%TO.C,R2101*%
X221694000Y-189103000D03*
X220674000Y-189103000D03*
%TD*%
D26*
%TO.C,R1408*%
X200233810Y-153655382D03*
X199512562Y-152934134D03*
%TD*%
D19*
%TO.C,R3005*%
X300353000Y-186368000D03*
X301373000Y-186368000D03*
%TD*%
D20*
%TO.C,C1305*%
X158664000Y-188087000D03*
X159624000Y-188087000D03*
%TD*%
D34*
%TO.C,R7*%
X145542000Y-154053000D03*
X145542000Y-153033000D03*
%TD*%
D17*
%TO.C,C98*%
X335379000Y-129921000D03*
X334419000Y-129921000D03*
%TD*%
D54*
%TO.C,D3*%
X269468500Y-107188000D03*
X271043500Y-107188000D03*
%TD*%
D21*
%TO.C,C1313*%
X194649411Y-153076589D03*
X193970589Y-153755411D03*
%TD*%
D38*
%TO.C,U14*%
X126589000Y-162356500D03*
X127239000Y-162356500D03*
X127889000Y-162356500D03*
X128539000Y-162356500D03*
X129189000Y-162356500D03*
D39*
X130251500Y-163419000D03*
X130251500Y-164069000D03*
X130251500Y-164719000D03*
X130251500Y-165369000D03*
X130251500Y-166019000D03*
D38*
X129189000Y-167081500D03*
X128539000Y-167081500D03*
X127889000Y-167081500D03*
X127239000Y-167081500D03*
X126589000Y-167081500D03*
D39*
X125526500Y-166019000D03*
X125526500Y-165369000D03*
X125526500Y-164719000D03*
X125526500Y-164069000D03*
X125526500Y-163419000D03*
D40*
X127888999Y-164718999D03*
%TD*%
D29*
%TO.C,C2711*%
X266492277Y-150579704D03*
X265813455Y-149900882D03*
%TD*%
D19*
%TO.C,R9*%
X147844000Y-137922000D03*
X148864000Y-137922000D03*
%TD*%
D17*
%TO.C,C2203*%
X235570000Y-189103000D03*
X234610000Y-189103000D03*
%TD*%
D24*
%TO.C,C2210*%
X235216000Y-185265000D03*
X235216000Y-184305000D03*
%TD*%
%TO.C,C1712*%
X219837000Y-146530000D03*
X219837000Y-145570000D03*
%TD*%
D43*
%TO.C,L1302*%
X162791000Y-182372000D03*
X161821000Y-182372000D03*
%TD*%
D19*
%TO.C,R1606*%
X204849000Y-181034000D03*
X205869000Y-181034000D03*
%TD*%
D22*
%TO.C,R54*%
X183644000Y-122809000D03*
X182624000Y-122809000D03*
%TD*%
D26*
%TO.C,R609*%
X156536784Y-154934408D03*
X155815536Y-154213160D03*
%TD*%
D22*
%TO.C,R607*%
X113413000Y-181034000D03*
X112393000Y-181034000D03*
%TD*%
D23*
%TO.C,L2901*%
X281432000Y-183365000D03*
X281432000Y-182395000D03*
%TD*%
%TO.C,L2103*%
X225806000Y-186413000D03*
X225806000Y-185443000D03*
%TD*%
D35*
%TO.C,R2203*%
X234392000Y-187833000D03*
X236042000Y-187833000D03*
%TD*%
D41*
%TO.C,C511*%
X151354552Y-155081131D03*
X152033374Y-154402309D03*
%TD*%
D61*
%TO.C,R110*%
X107073000Y-126302001D03*
X107073000Y-127952001D03*
%TD*%
D38*
%TO.C,U19*%
X166975000Y-162483500D03*
X167625000Y-162483500D03*
X168275000Y-162483500D03*
X168925000Y-162483500D03*
X169575000Y-162483500D03*
D39*
X170637500Y-163546000D03*
X170637500Y-164196000D03*
X170637500Y-164846000D03*
X170637500Y-165496000D03*
X170637500Y-166146000D03*
D38*
X169575000Y-167208500D03*
X168925000Y-167208500D03*
X168275000Y-167208500D03*
X167625000Y-167208500D03*
X166975000Y-167208500D03*
D39*
X165912500Y-166146000D03*
X165912500Y-165496000D03*
X165912500Y-164846000D03*
X165912500Y-164196000D03*
X165912500Y-163546000D03*
D40*
X168274999Y-164845999D03*
%TD*%
D35*
%TO.C,R603*%
X108408000Y-187833000D03*
X110058000Y-187833000D03*
%TD*%
D19*
%TO.C,R909*%
X173186865Y-145668292D03*
X174206865Y-145668292D03*
%TD*%
%TO.C,R2406*%
X267840999Y-181034000D03*
X268860999Y-181034000D03*
%TD*%
D20*
%TO.C,C2207*%
X240566000Y-183388000D03*
X241526000Y-183388000D03*
%TD*%
D24*
%TO.C,C1406*%
X172212000Y-183360000D03*
X172212000Y-182400000D03*
%TD*%
D29*
%TO.C,C1012*%
X178521118Y-148841545D03*
X177842296Y-148162723D03*
%TD*%
D22*
%TO.C,R20*%
X225300000Y-143891000D03*
X224280000Y-143891000D03*
%TD*%
%TO.C,R709*%
X157405800Y-146459000D03*
X156385800Y-146459000D03*
%TD*%
D27*
%TO.C,C2901*%
X281559000Y-207785000D03*
X281559000Y-206235000D03*
%TD*%
D24*
%TO.C,C911*%
X175220866Y-144624293D03*
X175220866Y-143664293D03*
%TD*%
%TO.C,C1410*%
X172224000Y-185265000D03*
X172224000Y-184305000D03*
%TD*%
D22*
%TO.C,R701*%
X127206000Y-189103000D03*
X126186000Y-189103000D03*
%TD*%
D34*
%TO.C,R19*%
X233426000Y-154053000D03*
X233426000Y-153033000D03*
%TD*%
D44*
%TO.C,TP8*%
X95504000Y-134519901D03*
%TD*%
D17*
%TO.C,C3104*%
X320139000Y-189103000D03*
X319179000Y-189103000D03*
%TD*%
%TO.C,C1304*%
X162659000Y-189103000D03*
X161699000Y-189103000D03*
%TD*%
D19*
%TO.C,R805*%
X142873000Y-186368000D03*
X143893000Y-186368000D03*
%TD*%
%TO.C,R109*%
X129810750Y-145415000D03*
X130830750Y-145415000D03*
%TD*%
D37*
%TO.C,R1304*%
X162623000Y-187833000D03*
X160973000Y-187833000D03*
%TD*%
D22*
%TO.C,R2107*%
X223649000Y-181034000D03*
X222629000Y-181034000D03*
%TD*%
D19*
%TO.C,R1505*%
X190117000Y-186368000D03*
X191137000Y-186368000D03*
%TD*%
%TO.C,R51*%
X173099000Y-121539000D03*
X174119000Y-121539000D03*
%TD*%
D43*
%TO.C,L1602*%
X210035000Y-182372000D03*
X209065000Y-182372000D03*
%TD*%
D19*
%TO.C,R1302*%
X159764000Y-189103000D03*
X160784000Y-189103000D03*
%TD*%
D17*
%TO.C,C65*%
X231416800Y-154559000D03*
X230456800Y-154559000D03*
%TD*%
D25*
%TO.C,C2513*%
X264287000Y-144554000D03*
X264287000Y-145514000D03*
%TD*%
D71*
%TO.C,D9*%
X148844000Y-115722500D03*
X148844000Y-114147500D03*
%TD*%
D43*
%TO.C,L702*%
X131295000Y-182372000D03*
X130325000Y-182372000D03*
%TD*%
%TO.C,L3102*%
X320271000Y-182372000D03*
X319301000Y-182372000D03*
%TD*%
D22*
%TO.C,R3001*%
X300434000Y-189103000D03*
X299414000Y-189103000D03*
%TD*%
D24*
%TO.C,C3110*%
X313956000Y-185265000D03*
X313956000Y-184305000D03*
%TD*%
D57*
%TO.C,U601*%
X112637000Y-185163500D03*
X112137000Y-185163500D03*
X111637000Y-185163500D03*
X111137000Y-185163500D03*
D58*
X110424500Y-184451000D03*
X110424500Y-183951000D03*
X110424500Y-183451000D03*
X110424500Y-182951000D03*
D57*
X111137000Y-182238500D03*
X111637000Y-182238500D03*
X112137000Y-182238500D03*
X112637000Y-182238500D03*
D58*
X113349500Y-182951000D03*
X113349500Y-183451000D03*
X113349500Y-183951000D03*
X113349500Y-184451000D03*
D59*
X111886999Y-183700999D03*
%TD*%
D20*
%TO.C,C1407*%
X177574000Y-183388000D03*
X178534000Y-183388000D03*
%TD*%
D70*
%TO.C,C154*%
X113959001Y-130630001D03*
X113959001Y-132530001D03*
%TD*%
D24*
%TO.C,C2206*%
X235204000Y-183360000D03*
X235204000Y-182400000D03*
%TD*%
D38*
%TO.C,U18*%
X254859000Y-162483500D03*
X255509000Y-162483500D03*
X256159000Y-162483500D03*
X256809000Y-162483500D03*
X257459000Y-162483500D03*
D39*
X258521500Y-163546000D03*
X258521500Y-164196000D03*
X258521500Y-164846000D03*
X258521500Y-165496000D03*
X258521500Y-166146000D03*
D38*
X257459000Y-167208500D03*
X256809000Y-167208500D03*
X256159000Y-167208500D03*
X255509000Y-167208500D03*
X254859000Y-167208500D03*
D39*
X253796500Y-166146000D03*
X253796500Y-165496000D03*
X253796500Y-164846000D03*
X253796500Y-164196000D03*
X253796500Y-163546000D03*
D40*
X256158999Y-164845999D03*
%TD*%
D24*
%TO.C,C510*%
X93484000Y-185265000D03*
X93484000Y-184305000D03*
%TD*%
D72*
%TO.C,R93*%
X106934001Y-116711001D03*
X106934001Y-117731001D03*
%TD*%
D18*
%TO.C,R1208*%
X181380822Y-156482758D03*
X182102070Y-155761510D03*
%TD*%
D22*
%TO.C,R8*%
X137416000Y-143891000D03*
X136396000Y-143891000D03*
%TD*%
D57*
%TO.C,U1301*%
X159881000Y-185163500D03*
X159381000Y-185163500D03*
X158881000Y-185163500D03*
X158381000Y-185163500D03*
D58*
X157668500Y-184451000D03*
X157668500Y-183951000D03*
X157668500Y-183451000D03*
X157668500Y-182951000D03*
D57*
X158381000Y-182238500D03*
X158881000Y-182238500D03*
X159381000Y-182238500D03*
X159881000Y-182238500D03*
D58*
X160593500Y-182951000D03*
X160593500Y-183451000D03*
X160593500Y-183951000D03*
X160593500Y-184451000D03*
D59*
X159130999Y-183700999D03*
%TD*%
D43*
%TO.C,L1502*%
X194287000Y-182372000D03*
X193317000Y-182372000D03*
%TD*%
D35*
%TO.C,R503*%
X92660000Y-187833000D03*
X94310000Y-187833000D03*
%TD*%
D32*
%TO.C,K1401*%
X176238000Y-191135000D03*
X176238000Y-196215000D03*
X176238000Y-198755000D03*
X176238000Y-201295000D03*
X176238000Y-203835000D03*
X168948000Y-203835000D03*
X168948000Y-201295000D03*
X168948000Y-198755000D03*
X168948000Y-196215000D03*
X168948000Y-191135000D03*
%TD*%
D51*
%TO.C,C1013*%
X177841589Y-146726589D03*
X178520411Y-147405411D03*
%TD*%
D80*
%TO.C,D8*%
X103432800Y-130154601D03*
D81*
X101782800Y-130154601D03*
%TD*%
D17*
%TO.C,C2303*%
X251318000Y-189103000D03*
X250358000Y-189103000D03*
%TD*%
D55*
%TO.C,C155*%
X109653600Y-140771206D03*
X111553600Y-140771206D03*
%TD*%
D22*
%TO.C,R2308*%
X245289800Y-145443000D03*
X244269800Y-145443000D03*
%TD*%
D17*
%TO.C,C3209*%
X336014000Y-184404000D03*
X335054000Y-184404000D03*
%TD*%
D19*
%TO.C,R1405*%
X174369000Y-186368000D03*
X175389000Y-186368000D03*
%TD*%
D23*
%TO.C,L703*%
X131318000Y-186413000D03*
X131318000Y-185443000D03*
%TD*%
D24*
%TO.C,C806*%
X140716000Y-183360000D03*
X140716000Y-182400000D03*
%TD*%
D34*
%TO.C,R112*%
X144526000Y-154053000D03*
X144526000Y-153033000D03*
%TD*%
D61*
%TO.C,R80*%
X110121000Y-126302001D03*
X110121000Y-127952001D03*
%TD*%
D51*
%TO.C,C1113*%
X179238589Y-149901589D03*
X179917411Y-150580411D03*
%TD*%
D27*
%TO.C,C1302*%
X158496000Y-207785000D03*
X158496000Y-206235000D03*
%TD*%
D20*
%TO.C,C505*%
X95672000Y-188087000D03*
X96632000Y-188087000D03*
%TD*%
D18*
%TO.C,R1109*%
X177781241Y-152756178D03*
X178502489Y-152034930D03*
%TD*%
D32*
%TO.C,K1301*%
X160490000Y-191135000D03*
X160490000Y-196215000D03*
X160490000Y-198755000D03*
X160490000Y-201295000D03*
X160490000Y-203835000D03*
X153200000Y-203835000D03*
X153200000Y-201295000D03*
X153200000Y-198755000D03*
X153200000Y-196215000D03*
X153200000Y-191135000D03*
%TD*%
D29*
%TO.C,C211*%
X133689411Y-147278411D03*
X133010589Y-146599589D03*
%TD*%
D26*
%TO.C,R1308*%
X196931810Y-155179382D03*
X196210562Y-154458134D03*
%TD*%
D24*
%TO.C,C1508*%
X193802000Y-181201000D03*
X193802000Y-180241000D03*
%TD*%
%TO.C,C2908*%
X288290000Y-181201000D03*
X288290000Y-180241000D03*
%TD*%
D18*
%TO.C,R2009*%
X225826376Y-157078624D03*
X226547624Y-156357376D03*
%TD*%
D44*
%TO.C,TP10*%
X318389000Y-120015000D03*
%TD*%
D19*
%TO.C,R21*%
X235728000Y-137922000D03*
X236748000Y-137922000D03*
%TD*%
D22*
%TO.C,R1507*%
X192153000Y-181034000D03*
X191133000Y-181034000D03*
%TD*%
D17*
%TO.C,C1504*%
X194155000Y-189103000D03*
X193195000Y-189103000D03*
%TD*%
D25*
%TO.C,C2914*%
X287782000Y-185448000D03*
X287782000Y-186408000D03*
%TD*%
D24*
%TO.C,C111*%
X131844750Y-144289750D03*
X131844750Y-143329750D03*
%TD*%
D19*
%TO.C,R2202*%
X238504000Y-189103000D03*
X239524000Y-189103000D03*
%TD*%
D18*
%TO.C,R2809*%
X270237241Y-157455178D03*
X270958489Y-156733930D03*
%TD*%
D32*
%TO.C,K3101*%
X317970000Y-191135000D03*
X317970000Y-196215000D03*
X317970000Y-198755000D03*
X317970000Y-201295000D03*
X317970000Y-203835000D03*
X310680000Y-203835000D03*
X310680000Y-201295000D03*
X310680000Y-198755000D03*
X310680000Y-196215000D03*
X310680000Y-191135000D03*
%TD*%
D44*
%TO.C,TP7*%
X100457000Y-151130000D03*
%TD*%
D32*
%TO.C,K2201*%
X239230000Y-191135000D03*
X239230000Y-196215000D03*
X239230000Y-198755000D03*
X239230000Y-201295000D03*
X239230000Y-203835000D03*
X231940000Y-203835000D03*
X231940000Y-201295000D03*
X231940000Y-198755000D03*
X231940000Y-196215000D03*
X231940000Y-191135000D03*
%TD*%
D29*
%TO.C,C212*%
X135126252Y-148715252D03*
X134447430Y-148036430D03*
%TD*%
D27*
%TO.C,C2401*%
X265810999Y-207785000D03*
X265810999Y-206235000D03*
%TD*%
D18*
%TO.C,R2608*%
X263676822Y-148735758D03*
X264398070Y-148014510D03*
%TD*%
D35*
%TO.C,R78*%
X269050000Y-115062000D03*
X270700000Y-115062000D03*
%TD*%
D24*
%TO.C,C130*%
X285750000Y-119225000D03*
X285750000Y-118265000D03*
%TD*%
D17*
%TO.C,C604*%
X115415000Y-189103000D03*
X114455000Y-189103000D03*
%TD*%
D19*
%TO.C,R1602*%
X207008000Y-189103000D03*
X208028000Y-189103000D03*
%TD*%
D22*
%TO.C,R3207*%
X333885000Y-181034000D03*
X332865000Y-181034000D03*
%TD*%
D57*
%TO.C,U1401*%
X175629000Y-185163500D03*
X175129000Y-185163500D03*
X174629000Y-185163500D03*
X174129000Y-185163500D03*
D58*
X173416500Y-184451000D03*
X173416500Y-183951000D03*
X173416500Y-183451000D03*
X173416500Y-182951000D03*
D57*
X174129000Y-182238500D03*
X174629000Y-182238500D03*
X175129000Y-182238500D03*
X175629000Y-182238500D03*
D58*
X176341500Y-182951000D03*
X176341500Y-183451000D03*
X176341500Y-183951000D03*
X176341500Y-184451000D03*
D59*
X174878999Y-183700999D03*
%TD*%
D25*
%TO.C,C2214*%
X240538000Y-185448000D03*
X240538000Y-186408000D03*
%TD*%
D51*
%TO.C,C1913*%
X223942589Y-150155589D03*
X224621411Y-150834411D03*
%TD*%
D27*
%TO.C,C2202*%
X237236000Y-207785000D03*
X237236000Y-206235000D03*
%TD*%
D20*
%TO.C,C605*%
X111420000Y-188087000D03*
X112380000Y-188087000D03*
%TD*%
%TO.C,C133*%
X288064000Y-117221000D03*
X289024000Y-117221000D03*
%TD*%
D41*
%TO.C,C2212*%
X241103711Y-153088972D03*
X241782533Y-152410150D03*
%TD*%
D17*
%TO.C,C2909*%
X288770000Y-184404000D03*
X287810000Y-184404000D03*
%TD*%
%TO.C,C3109*%
X320266000Y-184404000D03*
X319306000Y-184404000D03*
%TD*%
D52*
%TO.C,R64*%
X308506500Y-218186000D03*
X306681500Y-218186000D03*
%TD*%
D24*
%TO.C,C180*%
X235712000Y-136878000D03*
X235712000Y-135918000D03*
%TD*%
D27*
%TO.C,C2902*%
X284480000Y-207785000D03*
X284480000Y-206235000D03*
%TD*%
%TO.C,C2402*%
X268731999Y-207785000D03*
X268731999Y-206235000D03*
%TD*%
D23*
%TO.C,L803*%
X147066000Y-186413000D03*
X147066000Y-185443000D03*
%TD*%
D17*
%TO.C,C3204*%
X335887000Y-189103000D03*
X334927000Y-189103000D03*
%TD*%
D22*
%TO.C,R1601*%
X205946000Y-189103000D03*
X204926000Y-189103000D03*
%TD*%
D17*
%TO.C,C704*%
X131163000Y-189103000D03*
X130203000Y-189103000D03*
%TD*%
D43*
%TO.C,L2402*%
X273026999Y-182372000D03*
X272056999Y-182372000D03*
%TD*%
D24*
%TO.C,C3108*%
X319786000Y-181201000D03*
X319786000Y-180241000D03*
%TD*%
%TO.C,C2410*%
X266711999Y-185265000D03*
X266711999Y-184305000D03*
%TD*%
D22*
%TO.C,R2408*%
X246686800Y-142268000D03*
X245666800Y-142268000D03*
%TD*%
D19*
%TO.C,R3202*%
X332992000Y-189103000D03*
X334012000Y-189103000D03*
%TD*%
D25*
%TO.C,C2114*%
X224790000Y-185448000D03*
X224790000Y-186408000D03*
%TD*%
D20*
%TO.C,C607*%
X114582000Y-183388000D03*
X115542000Y-183388000D03*
%TD*%
D25*
%TO.C,C113*%
X132859750Y-144345750D03*
X132859750Y-145305750D03*
%TD*%
D55*
%TO.C,C167*%
X99341200Y-136199800D03*
X101241200Y-136199800D03*
%TD*%
D17*
%TO.C,C44*%
X187474800Y-154559000D03*
X186514800Y-154559000D03*
%TD*%
D24*
%TO.C,C2312*%
X243255800Y-147574000D03*
X243255800Y-146614000D03*
%TD*%
D27*
%TO.C,C94*%
X123825000Y-163843000D03*
X123825000Y-162293000D03*
%TD*%
D17*
%TO.C,C99*%
X335379000Y-128905001D03*
X334419000Y-128905001D03*
%TD*%
D19*
%TO.C,R2205*%
X237361000Y-186368000D03*
X238381000Y-186368000D03*
%TD*%
D22*
%TO.C,R14*%
X181358000Y-143891000D03*
X180338000Y-143891000D03*
%TD*%
D18*
%TO.C,R2709*%
X265792241Y-152756178D03*
X266513489Y-152034930D03*
%TD*%
D35*
%TO.C,R2403*%
X265887999Y-187833000D03*
X267537999Y-187833000D03*
%TD*%
D61*
%TO.C,R99*%
X101256400Y-132834801D03*
X101256400Y-134484801D03*
%TD*%
D35*
%TO.C,R1503*%
X187148000Y-187833000D03*
X188798000Y-187833000D03*
%TD*%
D24*
%TO.C,C2208*%
X241046000Y-181201000D03*
X241046000Y-180241000D03*
%TD*%
D17*
%TO.C,C1604*%
X209903000Y-189103000D03*
X208943000Y-189103000D03*
%TD*%
D20*
%TO.C,C2905*%
X284648000Y-188087000D03*
X285608000Y-188087000D03*
%TD*%
D72*
%TO.C,R83*%
X110998001Y-116711001D03*
X110998001Y-117731001D03*
%TD*%
D27*
%TO.C,C95*%
X225933000Y-163970000D03*
X225933000Y-162420000D03*
%TD*%
D25*
%TO.C,C3213*%
X288925000Y-142649000D03*
X288925000Y-143609000D03*
%TD*%
D29*
%TO.C,C411*%
X137586570Y-155914411D03*
X136907748Y-155235589D03*
%TD*%
D82*
%TO.C,L8*%
X93114999Y-123573400D03*
X93114999Y-120073400D03*
X101614999Y-120073400D03*
X101614999Y-123573400D03*
%TD*%
D26*
%TO.C,R2108*%
X240746810Y-155433382D03*
X240025562Y-154712134D03*
%TD*%
D57*
%TO.C,U3001*%
X301613000Y-185163500D03*
X301113000Y-185163500D03*
X300613000Y-185163500D03*
X300113000Y-185163500D03*
D58*
X299400500Y-184451000D03*
X299400500Y-183951000D03*
X299400500Y-183451000D03*
X299400500Y-182951000D03*
D57*
X300113000Y-182238500D03*
X300613000Y-182238500D03*
X301113000Y-182238500D03*
X301613000Y-182238500D03*
D58*
X302325500Y-182951000D03*
X302325500Y-183451000D03*
X302325500Y-183951000D03*
X302325500Y-184451000D03*
D59*
X300862999Y-183700999D03*
%TD*%
D18*
%TO.C,R1108*%
X177062822Y-152037758D03*
X177784070Y-151316510D03*
%TD*%
D67*
%TO.C,J2*%
X240512600Y-213868000D03*
X243281200Y-213868000D03*
X246049800Y-213868000D03*
X248818400Y-213868000D03*
X251587000Y-213868000D03*
X254355600Y-213868000D03*
X257124200Y-213868000D03*
X259892800Y-213868000D03*
X262661400Y-213868000D03*
X265430000Y-213868000D03*
X268198600Y-213868000D03*
X270967200Y-213868000D03*
X273735800Y-213868000D03*
X276504400Y-213868000D03*
X279273000Y-213868000D03*
X282041600Y-213868000D03*
X284810200Y-213868000D03*
X287578800Y-213868000D03*
X290347400Y-213868000D03*
X241896900Y-216712800D03*
X244665500Y-216712800D03*
X247434100Y-216712800D03*
X250202700Y-216712800D03*
X252971300Y-216712800D03*
X255739900Y-216712800D03*
X258508500Y-216712800D03*
X261277100Y-216712800D03*
X264045700Y-216712800D03*
X266814300Y-216712800D03*
X269582900Y-216712800D03*
X272351500Y-216712800D03*
X275120100Y-216712800D03*
X277888700Y-216712800D03*
X280657300Y-216712800D03*
X283425900Y-216712800D03*
X286194500Y-216712800D03*
X288963100Y-216712800D03*
D68*
X233553000Y-215290400D03*
X297307000Y-215290400D03*
%TD*%
D20*
%TO.C,C3007*%
X303558000Y-183388000D03*
X304518000Y-183388000D03*
%TD*%
D19*
%TO.C,R2206*%
X236345000Y-181034000D03*
X237365000Y-181034000D03*
%TD*%
D20*
%TO.C,C1607*%
X209070000Y-183388000D03*
X210030000Y-183388000D03*
%TD*%
D24*
%TO.C,C173*%
X222603600Y-124051000D03*
X222603600Y-123091000D03*
%TD*%
D19*
%TO.C,R702*%
X128268000Y-189103000D03*
X129288000Y-189103000D03*
%TD*%
D22*
%TO.C,R1508*%
X201474800Y-145951000D03*
X200454800Y-145951000D03*
%TD*%
D20*
%TO.C,C1507*%
X193322000Y-183388000D03*
X194282000Y-183388000D03*
%TD*%
D18*
%TO.C,R2008*%
X225107957Y-156360204D03*
X225829205Y-155638956D03*
%TD*%
D25*
%TO.C,C3114*%
X319278000Y-185448000D03*
X319278000Y-186408000D03*
%TD*%
D32*
%TO.C,K601*%
X113246000Y-191135000D03*
X113246000Y-196215000D03*
X113246000Y-198755000D03*
X113246000Y-201295000D03*
X113246000Y-203835000D03*
X105956000Y-203835000D03*
X105956000Y-201295000D03*
X105956000Y-198755000D03*
X105956000Y-196215000D03*
X105956000Y-191135000D03*
%TD*%
D37*
%TO.C,R2304*%
X257111000Y-187833000D03*
X255461000Y-187833000D03*
%TD*%
D18*
%TO.C,R309*%
X134219534Y-152971044D03*
X134940782Y-152249796D03*
%TD*%
D24*
%TO.C,C710*%
X124980000Y-185265000D03*
X124980000Y-184305000D03*
%TD*%
D17*
%TO.C,C3003*%
X298562000Y-189103000D03*
X297602000Y-189103000D03*
%TD*%
D48*
%TO.C,R67*%
X133858000Y-115506000D03*
X133858000Y-113856000D03*
%TD*%
D37*
%TO.C,R3104*%
X320103000Y-187833000D03*
X318453000Y-187833000D03*
%TD*%
D27*
%TO.C,C2102*%
X221488000Y-207785000D03*
X221488000Y-206235000D03*
%TD*%
D44*
%TO.C,TP2*%
X314579000Y-119888000D03*
%TD*%
D17*
%TO.C,C36*%
X143532800Y-154559000D03*
X142572800Y-154559000D03*
%TD*%
D19*
%TO.C,R1305*%
X158621000Y-186368000D03*
X159641000Y-186368000D03*
%TD*%
D83*
X280820000Y-91488000D02*
X280820000Y-112488000D01*
X83820000Y-112488000D02*
X83820000Y-221488000D01*
X83820000Y-221488000D02*
X337820000Y-221488000D01*
X280820000Y-91488000D02*
X140820000Y-91488000D01*
X280820000Y-112488000D02*
X337820000Y-112488000D01*
X337820000Y-112488000D02*
X337820000Y-221488000D01*
X140820000Y-112488000D02*
X83820000Y-112488000D01*
X140820000Y-91488000D02*
X140820000Y-112488000D01*
M02*
