%TF.GenerationSoftware,KiCad,Pcbnew,8.0.5*%
%TF.CreationDate,2025-02-25T16:57:44-08:00*%
%TF.ProjectId,Quartz,51756172-747a-42e6-9b69-6361645f7063,rev?*%
%TF.SameCoordinates,Original*%
%TF.FileFunction,Drillmap*%
%TF.FilePolarity,Positive*%
%FSLAX45Y45*%
G04 Gerber Fmt 4.5, Leading zero omitted, Abs format (unit mm)*
G04 Created by KiCad (PCBNEW 8.0.5) date 2025-02-25 16:57:44*
%MOMM*%
%LPD*%
G01*
G04 APERTURE LIST*
%ADD10C,0.100000*%
%ADD11C,0.200000*%
%ADD12C,0.127000*%
G04 APERTURE END LIST*
D10*
X28082000Y-9148800D02*
X28082000Y-11248800D01*
X8382000Y-11248800D02*
X8382000Y-22148800D01*
X8382000Y-22148800D02*
X33782000Y-22148800D01*
X28082000Y-9148800D02*
X14082000Y-9148800D01*
X28082000Y-11248800D02*
X33782000Y-11248800D01*
X33782000Y-11248800D02*
X33782000Y-22148800D01*
X14082000Y-11248800D02*
X8382000Y-11248800D01*
X14082000Y-9148800D02*
X14082000Y-11248800D01*
D11*
D12*
X14799400Y-10390300D02*
X14926400Y-10517300D01*
X14926400Y-10390300D02*
X14799400Y-10517300D01*
X20237500Y-10085300D02*
X20364500Y-10212300D01*
X20364500Y-10085300D02*
X20237500Y-10212300D01*
X21799400Y-10390300D02*
X21926400Y-10517300D01*
X21926400Y-10390300D02*
X21799400Y-10517300D01*
X27237500Y-10085300D02*
X27364500Y-10212300D01*
X27364500Y-10085300D02*
X27237500Y-10212300D01*
D11*
X8637777Y-22465284D02*
X8637777Y-22265284D01*
X8637777Y-22265284D02*
X8685396Y-22265284D01*
X8685396Y-22265284D02*
X8713967Y-22274808D01*
X8713967Y-22274808D02*
X8733015Y-22293855D01*
X8733015Y-22293855D02*
X8742539Y-22312903D01*
X8742539Y-22312903D02*
X8752063Y-22350998D01*
X8752063Y-22350998D02*
X8752063Y-22379569D01*
X8752063Y-22379569D02*
X8742539Y-22417665D01*
X8742539Y-22417665D02*
X8733015Y-22436712D01*
X8733015Y-22436712D02*
X8713967Y-22455760D01*
X8713967Y-22455760D02*
X8685396Y-22465284D01*
X8685396Y-22465284D02*
X8637777Y-22465284D01*
X8837777Y-22465284D02*
X8837777Y-22331950D01*
X8837777Y-22370046D02*
X8847301Y-22350998D01*
X8847301Y-22350998D02*
X8856824Y-22341474D01*
X8856824Y-22341474D02*
X8875872Y-22331950D01*
X8875872Y-22331950D02*
X8894920Y-22331950D01*
X8961586Y-22465284D02*
X8961586Y-22331950D01*
X8961586Y-22265284D02*
X8952063Y-22274808D01*
X8952063Y-22274808D02*
X8961586Y-22284331D01*
X8961586Y-22284331D02*
X8971110Y-22274808D01*
X8971110Y-22274808D02*
X8961586Y-22265284D01*
X8961586Y-22265284D02*
X8961586Y-22284331D01*
X9085396Y-22465284D02*
X9066348Y-22455760D01*
X9066348Y-22455760D02*
X9056824Y-22436712D01*
X9056824Y-22436712D02*
X9056824Y-22265284D01*
X9190158Y-22465284D02*
X9171110Y-22455760D01*
X9171110Y-22455760D02*
X9161586Y-22436712D01*
X9161586Y-22436712D02*
X9161586Y-22265284D01*
X9418729Y-22465284D02*
X9418729Y-22265284D01*
X9418729Y-22265284D02*
X9485396Y-22408141D01*
X9485396Y-22408141D02*
X9552063Y-22265284D01*
X9552063Y-22265284D02*
X9552063Y-22465284D01*
X9733015Y-22465284D02*
X9733015Y-22360522D01*
X9733015Y-22360522D02*
X9723491Y-22341474D01*
X9723491Y-22341474D02*
X9704444Y-22331950D01*
X9704444Y-22331950D02*
X9666348Y-22331950D01*
X9666348Y-22331950D02*
X9647301Y-22341474D01*
X9733015Y-22455760D02*
X9713967Y-22465284D01*
X9713967Y-22465284D02*
X9666348Y-22465284D01*
X9666348Y-22465284D02*
X9647301Y-22455760D01*
X9647301Y-22455760D02*
X9637777Y-22436712D01*
X9637777Y-22436712D02*
X9637777Y-22417665D01*
X9637777Y-22417665D02*
X9647301Y-22398617D01*
X9647301Y-22398617D02*
X9666348Y-22389093D01*
X9666348Y-22389093D02*
X9713967Y-22389093D01*
X9713967Y-22389093D02*
X9733015Y-22379569D01*
X9828253Y-22331950D02*
X9828253Y-22531950D01*
X9828253Y-22341474D02*
X9847301Y-22331950D01*
X9847301Y-22331950D02*
X9885396Y-22331950D01*
X9885396Y-22331950D02*
X9904444Y-22341474D01*
X9904444Y-22341474D02*
X9913967Y-22350998D01*
X9913967Y-22350998D02*
X9923491Y-22370046D01*
X9923491Y-22370046D02*
X9923491Y-22427188D01*
X9923491Y-22427188D02*
X9913967Y-22446236D01*
X9913967Y-22446236D02*
X9904444Y-22455760D01*
X9904444Y-22455760D02*
X9885396Y-22465284D01*
X9885396Y-22465284D02*
X9847301Y-22465284D01*
X9847301Y-22465284D02*
X9828253Y-22455760D01*
X10009205Y-22446236D02*
X10018729Y-22455760D01*
X10018729Y-22455760D02*
X10009205Y-22465284D01*
X10009205Y-22465284D02*
X9999682Y-22455760D01*
X9999682Y-22455760D02*
X10009205Y-22446236D01*
X10009205Y-22446236D02*
X10009205Y-22465284D01*
X10009205Y-22341474D02*
X10018729Y-22350998D01*
X10018729Y-22350998D02*
X10009205Y-22360522D01*
X10009205Y-22360522D02*
X9999682Y-22350998D01*
X9999682Y-22350998D02*
X10009205Y-22341474D01*
X10009205Y-22341474D02*
X10009205Y-22360522D01*
D12*
X8250000Y-22730300D02*
X8377000Y-22857300D01*
X8377000Y-22730300D02*
X8250000Y-22857300D01*
D11*
X8742539Y-22885284D02*
X8628253Y-22885284D01*
X8685396Y-22885284D02*
X8685396Y-22685284D01*
X8685396Y-22685284D02*
X8666348Y-22713855D01*
X8666348Y-22713855D02*
X8647301Y-22732903D01*
X8647301Y-22732903D02*
X8628253Y-22742427D01*
X8828253Y-22866236D02*
X8837777Y-22875760D01*
X8837777Y-22875760D02*
X8828253Y-22885284D01*
X8828253Y-22885284D02*
X8818729Y-22875760D01*
X8818729Y-22875760D02*
X8828253Y-22866236D01*
X8828253Y-22866236D02*
X8828253Y-22885284D01*
X8913967Y-22704331D02*
X8923491Y-22694808D01*
X8923491Y-22694808D02*
X8942539Y-22685284D01*
X8942539Y-22685284D02*
X8990158Y-22685284D01*
X8990158Y-22685284D02*
X9009205Y-22694808D01*
X9009205Y-22694808D02*
X9018729Y-22704331D01*
X9018729Y-22704331D02*
X9028253Y-22723379D01*
X9028253Y-22723379D02*
X9028253Y-22742427D01*
X9028253Y-22742427D02*
X9018729Y-22770998D01*
X9018729Y-22770998D02*
X8904444Y-22885284D01*
X8904444Y-22885284D02*
X9028253Y-22885284D01*
X9094920Y-22685284D02*
X9228253Y-22685284D01*
X9228253Y-22685284D02*
X9142539Y-22885284D01*
X9342539Y-22685284D02*
X9361586Y-22685284D01*
X9361586Y-22685284D02*
X9380634Y-22694808D01*
X9380634Y-22694808D02*
X9390158Y-22704331D01*
X9390158Y-22704331D02*
X9399682Y-22723379D01*
X9399682Y-22723379D02*
X9409205Y-22761474D01*
X9409205Y-22761474D02*
X9409205Y-22809093D01*
X9409205Y-22809093D02*
X9399682Y-22847188D01*
X9399682Y-22847188D02*
X9390158Y-22866236D01*
X9390158Y-22866236D02*
X9380634Y-22875760D01*
X9380634Y-22875760D02*
X9361586Y-22885284D01*
X9361586Y-22885284D02*
X9342539Y-22885284D01*
X9342539Y-22885284D02*
X9323491Y-22875760D01*
X9323491Y-22875760D02*
X9313967Y-22866236D01*
X9313967Y-22866236D02*
X9304444Y-22847188D01*
X9304444Y-22847188D02*
X9294920Y-22809093D01*
X9294920Y-22809093D02*
X9294920Y-22761474D01*
X9294920Y-22761474D02*
X9304444Y-22723379D01*
X9304444Y-22723379D02*
X9313967Y-22704331D01*
X9313967Y-22704331D02*
X9323491Y-22694808D01*
X9323491Y-22694808D02*
X9342539Y-22685284D01*
X9494920Y-22885284D02*
X9494920Y-22751950D01*
X9494920Y-22770998D02*
X9504444Y-22761474D01*
X9504444Y-22761474D02*
X9523491Y-22751950D01*
X9523491Y-22751950D02*
X9552063Y-22751950D01*
X9552063Y-22751950D02*
X9571110Y-22761474D01*
X9571110Y-22761474D02*
X9580634Y-22780522D01*
X9580634Y-22780522D02*
X9580634Y-22885284D01*
X9580634Y-22780522D02*
X9590158Y-22761474D01*
X9590158Y-22761474D02*
X9609205Y-22751950D01*
X9609205Y-22751950D02*
X9637777Y-22751950D01*
X9637777Y-22751950D02*
X9656825Y-22761474D01*
X9656825Y-22761474D02*
X9666348Y-22780522D01*
X9666348Y-22780522D02*
X9666348Y-22885284D01*
X9761586Y-22885284D02*
X9761586Y-22751950D01*
X9761586Y-22770998D02*
X9771110Y-22761474D01*
X9771110Y-22761474D02*
X9790158Y-22751950D01*
X9790158Y-22751950D02*
X9818729Y-22751950D01*
X9818729Y-22751950D02*
X9837777Y-22761474D01*
X9837777Y-22761474D02*
X9847301Y-22780522D01*
X9847301Y-22780522D02*
X9847301Y-22885284D01*
X9847301Y-22780522D02*
X9856825Y-22761474D01*
X9856825Y-22761474D02*
X9875872Y-22751950D01*
X9875872Y-22751950D02*
X9904444Y-22751950D01*
X9904444Y-22751950D02*
X9923491Y-22761474D01*
X9923491Y-22761474D02*
X9933015Y-22780522D01*
X9933015Y-22780522D02*
X9933015Y-22885284D01*
X10323491Y-22675760D02*
X10152063Y-22932903D01*
X10580634Y-22685284D02*
X10599682Y-22685284D01*
X10599682Y-22685284D02*
X10618729Y-22694808D01*
X10618729Y-22694808D02*
X10628253Y-22704331D01*
X10628253Y-22704331D02*
X10637777Y-22723379D01*
X10637777Y-22723379D02*
X10647301Y-22761474D01*
X10647301Y-22761474D02*
X10647301Y-22809093D01*
X10647301Y-22809093D02*
X10637777Y-22847188D01*
X10637777Y-22847188D02*
X10628253Y-22866236D01*
X10628253Y-22866236D02*
X10618729Y-22875760D01*
X10618729Y-22875760D02*
X10599682Y-22885284D01*
X10599682Y-22885284D02*
X10580634Y-22885284D01*
X10580634Y-22885284D02*
X10561587Y-22875760D01*
X10561587Y-22875760D02*
X10552063Y-22866236D01*
X10552063Y-22866236D02*
X10542539Y-22847188D01*
X10542539Y-22847188D02*
X10533015Y-22809093D01*
X10533015Y-22809093D02*
X10533015Y-22761474D01*
X10533015Y-22761474D02*
X10542539Y-22723379D01*
X10542539Y-22723379D02*
X10552063Y-22704331D01*
X10552063Y-22704331D02*
X10561587Y-22694808D01*
X10561587Y-22694808D02*
X10580634Y-22685284D01*
X10733015Y-22866236D02*
X10742539Y-22875760D01*
X10742539Y-22875760D02*
X10733015Y-22885284D01*
X10733015Y-22885284D02*
X10723491Y-22875760D01*
X10723491Y-22875760D02*
X10733015Y-22866236D01*
X10733015Y-22866236D02*
X10733015Y-22885284D01*
X10866348Y-22685284D02*
X10885396Y-22685284D01*
X10885396Y-22685284D02*
X10904444Y-22694808D01*
X10904444Y-22694808D02*
X10913968Y-22704331D01*
X10913968Y-22704331D02*
X10923491Y-22723379D01*
X10923491Y-22723379D02*
X10933015Y-22761474D01*
X10933015Y-22761474D02*
X10933015Y-22809093D01*
X10933015Y-22809093D02*
X10923491Y-22847188D01*
X10923491Y-22847188D02*
X10913968Y-22866236D01*
X10913968Y-22866236D02*
X10904444Y-22875760D01*
X10904444Y-22875760D02*
X10885396Y-22885284D01*
X10885396Y-22885284D02*
X10866348Y-22885284D01*
X10866348Y-22885284D02*
X10847301Y-22875760D01*
X10847301Y-22875760D02*
X10837777Y-22866236D01*
X10837777Y-22866236D02*
X10828253Y-22847188D01*
X10828253Y-22847188D02*
X10818729Y-22809093D01*
X10818729Y-22809093D02*
X10818729Y-22761474D01*
X10818729Y-22761474D02*
X10828253Y-22723379D01*
X10828253Y-22723379D02*
X10837777Y-22704331D01*
X10837777Y-22704331D02*
X10847301Y-22694808D01*
X10847301Y-22694808D02*
X10866348Y-22685284D01*
X11113968Y-22685284D02*
X11018729Y-22685284D01*
X11018729Y-22685284D02*
X11009206Y-22780522D01*
X11009206Y-22780522D02*
X11018729Y-22770998D01*
X11018729Y-22770998D02*
X11037777Y-22761474D01*
X11037777Y-22761474D02*
X11085396Y-22761474D01*
X11085396Y-22761474D02*
X11104444Y-22770998D01*
X11104444Y-22770998D02*
X11113968Y-22780522D01*
X11113968Y-22780522D02*
X11123491Y-22799569D01*
X11123491Y-22799569D02*
X11123491Y-22847188D01*
X11123491Y-22847188D02*
X11113968Y-22866236D01*
X11113968Y-22866236D02*
X11104444Y-22875760D01*
X11104444Y-22875760D02*
X11085396Y-22885284D01*
X11085396Y-22885284D02*
X11037777Y-22885284D01*
X11037777Y-22885284D02*
X11018729Y-22875760D01*
X11018729Y-22875760D02*
X11009206Y-22866236D01*
X11247301Y-22685284D02*
X11266348Y-22685284D01*
X11266348Y-22685284D02*
X11285396Y-22694808D01*
X11285396Y-22694808D02*
X11294920Y-22704331D01*
X11294920Y-22704331D02*
X11304444Y-22723379D01*
X11304444Y-22723379D02*
X11313967Y-22761474D01*
X11313967Y-22761474D02*
X11313967Y-22809093D01*
X11313967Y-22809093D02*
X11304444Y-22847188D01*
X11304444Y-22847188D02*
X11294920Y-22866236D01*
X11294920Y-22866236D02*
X11285396Y-22875760D01*
X11285396Y-22875760D02*
X11266348Y-22885284D01*
X11266348Y-22885284D02*
X11247301Y-22885284D01*
X11247301Y-22885284D02*
X11228253Y-22875760D01*
X11228253Y-22875760D02*
X11218729Y-22866236D01*
X11218729Y-22866236D02*
X11209206Y-22847188D01*
X11209206Y-22847188D02*
X11199682Y-22809093D01*
X11199682Y-22809093D02*
X11199682Y-22761474D01*
X11199682Y-22761474D02*
X11209206Y-22723379D01*
X11209206Y-22723379D02*
X11218729Y-22704331D01*
X11218729Y-22704331D02*
X11228253Y-22694808D01*
X11228253Y-22694808D02*
X11247301Y-22685284D01*
X11437777Y-22685284D02*
X11456825Y-22685284D01*
X11456825Y-22685284D02*
X11475872Y-22694808D01*
X11475872Y-22694808D02*
X11485396Y-22704331D01*
X11485396Y-22704331D02*
X11494920Y-22723379D01*
X11494920Y-22723379D02*
X11504444Y-22761474D01*
X11504444Y-22761474D02*
X11504444Y-22809093D01*
X11504444Y-22809093D02*
X11494920Y-22847188D01*
X11494920Y-22847188D02*
X11485396Y-22866236D01*
X11485396Y-22866236D02*
X11475872Y-22875760D01*
X11475872Y-22875760D02*
X11456825Y-22885284D01*
X11456825Y-22885284D02*
X11437777Y-22885284D01*
X11437777Y-22885284D02*
X11418729Y-22875760D01*
X11418729Y-22875760D02*
X11409206Y-22866236D01*
X11409206Y-22866236D02*
X11399682Y-22847188D01*
X11399682Y-22847188D02*
X11390158Y-22809093D01*
X11390158Y-22809093D02*
X11390158Y-22761474D01*
X11390158Y-22761474D02*
X11399682Y-22723379D01*
X11399682Y-22723379D02*
X11409206Y-22704331D01*
X11409206Y-22704331D02*
X11418729Y-22694808D01*
X11418729Y-22694808D02*
X11437777Y-22685284D01*
X11580634Y-22685284D02*
X11580634Y-22723379D01*
X11656825Y-22685284D02*
X11656825Y-22723379D01*
X11952063Y-22961474D02*
X11942539Y-22951950D01*
X11942539Y-22951950D02*
X11923491Y-22923379D01*
X11923491Y-22923379D02*
X11913968Y-22904331D01*
X11913968Y-22904331D02*
X11904444Y-22875760D01*
X11904444Y-22875760D02*
X11894920Y-22828141D01*
X11894920Y-22828141D02*
X11894920Y-22790046D01*
X11894920Y-22790046D02*
X11904444Y-22742427D01*
X11904444Y-22742427D02*
X11913968Y-22713855D01*
X11913968Y-22713855D02*
X11923491Y-22694808D01*
X11923491Y-22694808D02*
X11942539Y-22666236D01*
X11942539Y-22666236D02*
X11952063Y-22656712D01*
X12113968Y-22751950D02*
X12113968Y-22885284D01*
X12066348Y-22675760D02*
X12018729Y-22818617D01*
X12018729Y-22818617D02*
X12142539Y-22818617D01*
X12371110Y-22885284D02*
X12371110Y-22685284D01*
X12456825Y-22885284D02*
X12456825Y-22780522D01*
X12456825Y-22780522D02*
X12447301Y-22761474D01*
X12447301Y-22761474D02*
X12428253Y-22751950D01*
X12428253Y-22751950D02*
X12399682Y-22751950D01*
X12399682Y-22751950D02*
X12380634Y-22761474D01*
X12380634Y-22761474D02*
X12371110Y-22770998D01*
X12580634Y-22885284D02*
X12561587Y-22875760D01*
X12561587Y-22875760D02*
X12552063Y-22866236D01*
X12552063Y-22866236D02*
X12542539Y-22847188D01*
X12542539Y-22847188D02*
X12542539Y-22790046D01*
X12542539Y-22790046D02*
X12552063Y-22770998D01*
X12552063Y-22770998D02*
X12561587Y-22761474D01*
X12561587Y-22761474D02*
X12580634Y-22751950D01*
X12580634Y-22751950D02*
X12609206Y-22751950D01*
X12609206Y-22751950D02*
X12628253Y-22761474D01*
X12628253Y-22761474D02*
X12637777Y-22770998D01*
X12637777Y-22770998D02*
X12647301Y-22790046D01*
X12647301Y-22790046D02*
X12647301Y-22847188D01*
X12647301Y-22847188D02*
X12637777Y-22866236D01*
X12637777Y-22866236D02*
X12628253Y-22875760D01*
X12628253Y-22875760D02*
X12609206Y-22885284D01*
X12609206Y-22885284D02*
X12580634Y-22885284D01*
X12761587Y-22885284D02*
X12742539Y-22875760D01*
X12742539Y-22875760D02*
X12733015Y-22856712D01*
X12733015Y-22856712D02*
X12733015Y-22685284D01*
X12913968Y-22875760D02*
X12894920Y-22885284D01*
X12894920Y-22885284D02*
X12856825Y-22885284D01*
X12856825Y-22885284D02*
X12837777Y-22875760D01*
X12837777Y-22875760D02*
X12828253Y-22856712D01*
X12828253Y-22856712D02*
X12828253Y-22780522D01*
X12828253Y-22780522D02*
X12837777Y-22761474D01*
X12837777Y-22761474D02*
X12856825Y-22751950D01*
X12856825Y-22751950D02*
X12894920Y-22751950D01*
X12894920Y-22751950D02*
X12913968Y-22761474D01*
X12913968Y-22761474D02*
X12923491Y-22780522D01*
X12923491Y-22780522D02*
X12923491Y-22799569D01*
X12923491Y-22799569D02*
X12828253Y-22818617D01*
X12999682Y-22875760D02*
X13018730Y-22885284D01*
X13018730Y-22885284D02*
X13056825Y-22885284D01*
X13056825Y-22885284D02*
X13075872Y-22875760D01*
X13075872Y-22875760D02*
X13085396Y-22856712D01*
X13085396Y-22856712D02*
X13085396Y-22847188D01*
X13085396Y-22847188D02*
X13075872Y-22828141D01*
X13075872Y-22828141D02*
X13056825Y-22818617D01*
X13056825Y-22818617D02*
X13028253Y-22818617D01*
X13028253Y-22818617D02*
X13009206Y-22809093D01*
X13009206Y-22809093D02*
X12999682Y-22790046D01*
X12999682Y-22790046D02*
X12999682Y-22780522D01*
X12999682Y-22780522D02*
X13009206Y-22761474D01*
X13009206Y-22761474D02*
X13028253Y-22751950D01*
X13028253Y-22751950D02*
X13056825Y-22751950D01*
X13056825Y-22751950D02*
X13075872Y-22761474D01*
X13152063Y-22961474D02*
X13161587Y-22951950D01*
X13161587Y-22951950D02*
X13180634Y-22923379D01*
X13180634Y-22923379D02*
X13190158Y-22904331D01*
X13190158Y-22904331D02*
X13199682Y-22875760D01*
X13199682Y-22875760D02*
X13209206Y-22828141D01*
X13209206Y-22828141D02*
X13209206Y-22790046D01*
X13209206Y-22790046D02*
X13199682Y-22742427D01*
X13199682Y-22742427D02*
X13190158Y-22713855D01*
X13190158Y-22713855D02*
X13180634Y-22694808D01*
X13180634Y-22694808D02*
X13161587Y-22666236D01*
X13161587Y-22666236D02*
X13152063Y-22656712D01*
X13513968Y-22961474D02*
X13504444Y-22951950D01*
X13504444Y-22951950D02*
X13485396Y-22923379D01*
X13485396Y-22923379D02*
X13475872Y-22904331D01*
X13475872Y-22904331D02*
X13466349Y-22875760D01*
X13466349Y-22875760D02*
X13456825Y-22828141D01*
X13456825Y-22828141D02*
X13456825Y-22790046D01*
X13456825Y-22790046D02*
X13466349Y-22742427D01*
X13466349Y-22742427D02*
X13475872Y-22713855D01*
X13475872Y-22713855D02*
X13485396Y-22694808D01*
X13485396Y-22694808D02*
X13504444Y-22666236D01*
X13504444Y-22666236D02*
X13513968Y-22656712D01*
X13590158Y-22751950D02*
X13590158Y-22885284D01*
X13590158Y-22770998D02*
X13599682Y-22761474D01*
X13599682Y-22761474D02*
X13618730Y-22751950D01*
X13618730Y-22751950D02*
X13647301Y-22751950D01*
X13647301Y-22751950D02*
X13666349Y-22761474D01*
X13666349Y-22761474D02*
X13675872Y-22780522D01*
X13675872Y-22780522D02*
X13675872Y-22885284D01*
X13799682Y-22885284D02*
X13780634Y-22875760D01*
X13780634Y-22875760D02*
X13771111Y-22866236D01*
X13771111Y-22866236D02*
X13761587Y-22847188D01*
X13761587Y-22847188D02*
X13761587Y-22790046D01*
X13761587Y-22790046D02*
X13771111Y-22770998D01*
X13771111Y-22770998D02*
X13780634Y-22761474D01*
X13780634Y-22761474D02*
X13799682Y-22751950D01*
X13799682Y-22751950D02*
X13828253Y-22751950D01*
X13828253Y-22751950D02*
X13847301Y-22761474D01*
X13847301Y-22761474D02*
X13856825Y-22770998D01*
X13856825Y-22770998D02*
X13866349Y-22790046D01*
X13866349Y-22790046D02*
X13866349Y-22847188D01*
X13866349Y-22847188D02*
X13856825Y-22866236D01*
X13856825Y-22866236D02*
X13847301Y-22875760D01*
X13847301Y-22875760D02*
X13828253Y-22885284D01*
X13828253Y-22885284D02*
X13799682Y-22885284D01*
X13923492Y-22751950D02*
X13999682Y-22751950D01*
X13952063Y-22685284D02*
X13952063Y-22856712D01*
X13952063Y-22856712D02*
X13961587Y-22875760D01*
X13961587Y-22875760D02*
X13980634Y-22885284D01*
X13980634Y-22885284D02*
X13999682Y-22885284D01*
X14218730Y-22751950D02*
X14218730Y-22951950D01*
X14218730Y-22761474D02*
X14237777Y-22751950D01*
X14237777Y-22751950D02*
X14275873Y-22751950D01*
X14275873Y-22751950D02*
X14294920Y-22761474D01*
X14294920Y-22761474D02*
X14304444Y-22770998D01*
X14304444Y-22770998D02*
X14313968Y-22790046D01*
X14313968Y-22790046D02*
X14313968Y-22847188D01*
X14313968Y-22847188D02*
X14304444Y-22866236D01*
X14304444Y-22866236D02*
X14294920Y-22875760D01*
X14294920Y-22875760D02*
X14275873Y-22885284D01*
X14275873Y-22885284D02*
X14237777Y-22885284D01*
X14237777Y-22885284D02*
X14218730Y-22875760D01*
X14428253Y-22885284D02*
X14409206Y-22875760D01*
X14409206Y-22875760D02*
X14399682Y-22856712D01*
X14399682Y-22856712D02*
X14399682Y-22685284D01*
X14590158Y-22885284D02*
X14590158Y-22780522D01*
X14590158Y-22780522D02*
X14580634Y-22761474D01*
X14580634Y-22761474D02*
X14561587Y-22751950D01*
X14561587Y-22751950D02*
X14523492Y-22751950D01*
X14523492Y-22751950D02*
X14504444Y-22761474D01*
X14590158Y-22875760D02*
X14571111Y-22885284D01*
X14571111Y-22885284D02*
X14523492Y-22885284D01*
X14523492Y-22885284D02*
X14504444Y-22875760D01*
X14504444Y-22875760D02*
X14494920Y-22856712D01*
X14494920Y-22856712D02*
X14494920Y-22837665D01*
X14494920Y-22837665D02*
X14504444Y-22818617D01*
X14504444Y-22818617D02*
X14523492Y-22809093D01*
X14523492Y-22809093D02*
X14571111Y-22809093D01*
X14571111Y-22809093D02*
X14590158Y-22799569D01*
X14656825Y-22751950D02*
X14733015Y-22751950D01*
X14685396Y-22685284D02*
X14685396Y-22856712D01*
X14685396Y-22856712D02*
X14694920Y-22875760D01*
X14694920Y-22875760D02*
X14713968Y-22885284D01*
X14713968Y-22885284D02*
X14733015Y-22885284D01*
X14875873Y-22875760D02*
X14856825Y-22885284D01*
X14856825Y-22885284D02*
X14818730Y-22885284D01*
X14818730Y-22885284D02*
X14799682Y-22875760D01*
X14799682Y-22875760D02*
X14790158Y-22856712D01*
X14790158Y-22856712D02*
X14790158Y-22780522D01*
X14790158Y-22780522D02*
X14799682Y-22761474D01*
X14799682Y-22761474D02*
X14818730Y-22751950D01*
X14818730Y-22751950D02*
X14856825Y-22751950D01*
X14856825Y-22751950D02*
X14875873Y-22761474D01*
X14875873Y-22761474D02*
X14885396Y-22780522D01*
X14885396Y-22780522D02*
X14885396Y-22799569D01*
X14885396Y-22799569D02*
X14790158Y-22818617D01*
X15056825Y-22885284D02*
X15056825Y-22685284D01*
X15056825Y-22875760D02*
X15037777Y-22885284D01*
X15037777Y-22885284D02*
X14999682Y-22885284D01*
X14999682Y-22885284D02*
X14980634Y-22875760D01*
X14980634Y-22875760D02*
X14971111Y-22866236D01*
X14971111Y-22866236D02*
X14961587Y-22847188D01*
X14961587Y-22847188D02*
X14961587Y-22790046D01*
X14961587Y-22790046D02*
X14971111Y-22770998D01*
X14971111Y-22770998D02*
X14980634Y-22761474D01*
X14980634Y-22761474D02*
X14999682Y-22751950D01*
X14999682Y-22751950D02*
X15037777Y-22751950D01*
X15037777Y-22751950D02*
X15056825Y-22761474D01*
X15133015Y-22961474D02*
X15142539Y-22951950D01*
X15142539Y-22951950D02*
X15161587Y-22923379D01*
X15161587Y-22923379D02*
X15171111Y-22904331D01*
X15171111Y-22904331D02*
X15180634Y-22875760D01*
X15180634Y-22875760D02*
X15190158Y-22828141D01*
X15190158Y-22828141D02*
X15190158Y-22790046D01*
X15190158Y-22790046D02*
X15180634Y-22742427D01*
X15180634Y-22742427D02*
X15171111Y-22713855D01*
X15171111Y-22713855D02*
X15161587Y-22694808D01*
X15161587Y-22694808D02*
X15142539Y-22666236D01*
X15142539Y-22666236D02*
X15133015Y-22656712D01*
M02*
